<?xml version="1.0" encoding="utf-8"?>
<!-- Generator: Adobe Illustrator 24.0.2, SVG Export Plug-In . SVG Version: 6.00 Build 0)  -->
<svg version="1.1" id="Слой_1" xmlns="http://www.w3.org/2000/svg" xmlns:xlink="http://www.w3.org/1999/xlink" x="0px" y="0px"
	 width="31.837px" height="60.766px" viewBox="0 0 31.837 60.766" enable-background="new 0 0 31.837 60.766" xml:space="preserve">
<g>
	<path fill="#009FE3" d="M28.81,14.748c-0.002-0.197-0.062-4.853-1.09-7.32c-1.041-2.497-2.928-4.198-2.977-4.241
		c-0.782-0.758-2.583-1.799-4.382-0.901c-0.959,0.48-1.707,0.955-2.197,1.292c-0.794-0.523-2.205-1.24-3.73-1
		c-2.159,0.341-7.71,3.453-10.758,9.099c-1.428,2.646-1.734,4.416-0.964,5.569c0.192,0.288,0.564,0.597,1.386,1.266
		c0.798,0.65,1.891,1.539,2.306,2.101c0.209,0.283,0.508,0.636,0.855,1.045c1.082,1.276,2.717,3.204,3.287,4.98
		c0.293,0.915,0.622,1.692,0.94,2.444c0.594,1.404,1.107,2.617,1.283,4.433c0.29,3.002,0.811,5.717,0.841,5.867
		c0.066,0.287,0.449,1.749,1.497,2.372c0.315,0.187,0.656,0.282,1.007,0.282c0.183,0,0.369-0.026,0.555-0.078
		c0.274-0.076,0.519-0.147,0.744-0.213l0.813,5.139l0.052,0.195c0.204,0.545,0.77,1.356,1.767,1.782v7.988l1.544,1.978h1.072
		l1.458-2.009v-8.029c0.647-0.283,1.331-0.785,1.533-1.672l0.31-5.076c1.013-0.374,1.891-0.713,1.964-0.742l0.241-0.093l0.166-0.198
		c0.129-0.153,1.255-1.566,1.2-4.007L28.81,14.748z M23.671,46.707c-0.099,0.158-0.588,0.364-1.018,0.425h-1.166
		c-0.836,0-1.187-0.499-1.292-0.697l-0.983-6.176l-0.128-2.788l-2.012,0.092l0.099,2.155c-0.287,0.089-0.627,0.192-1.027,0.307
		c-0.155-0.068-0.448-0.589-0.562-1.061c-0.005-0.027-0.525-2.736-0.806-5.644c-0.206-2.123-0.829-3.598-1.433-5.024
		c-0.3-0.711-0.611-1.446-0.877-2.274c-0.692-2.157-2.483-4.27-3.668-5.668c-0.324-0.382-0.603-0.711-0.772-0.939
		c-0.566-0.766-1.724-1.709-2.654-2.466c-0.401-0.327-0.901-0.733-0.982-0.821C4.37,16.101,3.95,15.413,5.45,12.634
		c2.734-5.066,7.76-7.823,9.299-8.066c0.635-0.1,1.316,0.141,1.857,0.426c-0.082,0.087-0.166,0.174-0.257,0.27h-2.792
		c-1.287,1.136,0,1.986,0,1.986h0.942c-0.99,1.083-1.968,2.192-2.457,2.866c-0.73,1.004-1.939,2.881-2.21,4.018H5.636
		c-1.334,1.314,0,2.19,0,2.19h4.098c0.154,0.812,0.603,1.758,1.747,2.615c1.775,1.332,4.21,4.064,4.866,5.857
		c0.236,0.644,0.56,1.37,0.902,2.139c0.724,1.622,1.544,3.461,1.693,4.899c0.109,1.046,0.304,2.051,0.476,2.938
		c0.22,1.135,0.411,2.116,0.387,2.906l-0.003,0.094l0.545,3.468l0.032,0.14c0.232,0.754,0.967,1.721,2.126,1.721
		c0.184,0,0.38-0.025,0.585-0.078c0.205-0.054,0.488-0.142,0.812-0.249L23.671,46.707z M26.914,39.53
		c-1.156,0.443-3.54,1.336-4.332,1.543c-0.048,0.013-0.071,0.011-0.073,0.011h0c-0.046-0.018-0.138-0.141-0.187-0.253l-0.501-3.19
		c0.015-0.989-0.199-2.09-0.425-3.253c-0.172-0.888-0.35-1.805-0.45-2.763c-0.183-1.758-1.073-3.752-1.857-5.511
		c-0.329-0.736-0.639-1.432-0.85-2.011c-0.814-2.225-3.514-5.249-5.549-6.776c-1.193-0.895-1.059-1.717-0.95-2.378
		c0.022-0.135,0.04-0.253,0.047-0.336c0.051-0.329,0.725-1.717,1.885-3.313c1.038-1.427,4.704-5.245,5.166-5.725
		c0.203-0.157,1.099-0.825,2.426-1.488c0.971-0.486,2.073,0.539,2.108,0.573c0.016,0.015,1.631,1.481,2.49,3.542
		c0.877,2.105,0.934,6.521,0.935,6.588l0.723,22.266C27.548,38.327,27.13,39.178,26.914,39.53z"/>
	<path fill="#009FE3" d="M21.828,4.995c-0.663,0-1.201,0.837-1.201,1.87c0,1.033,0.538,1.87,1.201,1.87
		c0.663,0,1.201-0.837,1.201-1.87C23.029,5.833,22.492,4.995,21.828,4.995z"/>
	<path fill="#009FE3" d="M14.588,13.309c-0.703,0-1.274,0.86-1.274,1.92c0,1.06,0.57,1.92,1.274,1.92c0.703,0,1.274-0.86,1.274-1.92
		C15.862,14.168,15.291,13.309,14.588,13.309z"/>
</g>
</svg>
