<?xml version="1.0" encoding="utf-8"?>
<!-- Generator: Adobe Illustrator 24.0.2, SVG Export Plug-In . SVG Version: 6.00 Build 0)  -->
<svg version="1.1" id="Слой_1" xmlns="http://www.w3.org/2000/svg" xmlns:xlink="http://www.w3.org/1999/xlink" x="0px" y="0px"
	 width="26.887px" height="65.524px" viewBox="0 0 26.887 65.524" enable-background="new 0 0 26.887 65.524" xml:space="preserve">
<g>
	<path fill="#009FE3" d="M20.755,52.032c2.026-1.098,2.916-2.445,2.956-2.505l0.043-0.073c1.427-2.644-1.33-4.345-2.369-4.986
		l-0.247-0.154c-0.387-0.246-1.009-0.535-1.659-0.808c1.348-0.59,2.106-1.011,2.178-1.052c0.375-0.214,2.244-1.366,2.223-3.076
		c-0.012-1.013-0.654-1.868-1.907-2.543c-1.464-0.788-2.869-1.352-3.996-1.738c1.323-0.377,2.851-0.822,3.546-1.062
		c0.727-0.25,2.657-0.917,2.513-2.495c-0.143-1.574-1.792-1.787-2.678-1.902c-1.147-0.148-4.081-0.14-5.369-0.129v-6.452
		l-0.458-2.841l0.791-0.384v-2.193l1.353-0.693V4.25c0-0.884-0.782-1.663-1.508-2.012c-2.424-1.165-5.488-0.301-5.83-0.199
		c-0.931,0.279-1.632,1.16-1.632,2.044L8.62,15.33v1.64l1.539,0.693v2.183l0.971,0.395l-0.599,2.739v6.084l-5.605,0.001
		c-0.692,0.029-2.333,0.23-2.638,1.476c-0.307,1.255,0.985,2.189,2.29,2.937l0.116,0.057c0.102,0.043,2.188,0.917,4.772,1.629
		c-1.971,0.544-3.799,1.097-4.418,1.434l-1.352,0.632c-0.314,0.162-1.347,0.771-1.431,1.819c-0.028,0.354,0.041,1.033,0.825,1.611
		l0.181,0.108c0.082,0.038,2.033,0.932,7.26,2.337v1.128c-0.247,0.06-0.49,0.12-0.745,0.178l-6.062,1.658
		c-0.763,0.244-1.674,0.726-1.679,1.647c-0.003,0.455,0.215,1.071,1.267,1.422c0.89,0.297,2.27,0.621,3.487,0.906
		c0.762,0.179,1.481,0.348,1.833,0.455c0.63,0.191,1.475,0.545,1.901,0.729v2.256c-1.001,0.279-2.084,0.565-3.265,0.855
		l-5.006,1.109v3.059h7.517l-0.17,0.367l2.87,5.014h1.552l2.764-5.046l-0.177-0.335h8.217v-2.181
		C24.902,55.673,24.73,53.717,20.755,52.032z M20.001,46.102l0.272,0.169c1.721,1.062,1.923,1.562,1.641,2.128
		c-0.141,0.191-0.928,1.188-2.547,1.963c-0.701,0.336-1.803,0.818-3.378,1.392v-6.895c0.201-0.069,0.389-0.137,0.58-0.205
		C17.718,45.066,19.416,45.729,20.001,46.102z M21.763,39.403c0.004,0.303-0.618,0.9-1.15,1.208
		c-0.025,0.014-1.68,0.933-4.623,1.994v-5.909c1.079,0.304,2.977,0.927,4.98,2.005C21.594,39.036,21.761,39.307,21.763,39.403z
		 M21.088,31.739c0.137,0.018,0.255,0.036,0.358,0.053c-0.157,0.071-0.358,0.152-0.613,0.239c-0.915,0.316-3.49,1.045-4.843,1.424
		v-1.827C17.475,31.615,20.149,31.618,21.088,31.739z M10.033,16.057l0.085-11.969c0-0.261,0.304-0.599,0.626-0.696
		c0.972-0.292,3.229-0.642,4.811,0.119c0.392,0.188,0.708,0.558,0.708,0.739v11.832l-1.353,0.693v2.172l-0.943,0.459l0.611,3.709
		v10.717c-0.685,0.17-1.614,0.404-2.634,0.67V23.134l0.821-3.753l-1.193-0.485V16.75L10.033,16.057z M4.909,31.189
		c0.021-0.002,0.041-0.003,0.061-0.004h5.561v2.072c-2.444-0.635-4.581-1.494-4.956-1.648C5.297,31.447,5.079,31.307,4.909,31.189z
		 M4.739,39.082l1.242-0.579l0.106-0.057c0.376-0.218,2.171-0.756,4.444-1.373v3.836C7.397,40.05,5.575,39.406,4.739,39.082z
		 M11.943,36.695c0.856-0.226,1.746-0.455,2.634-0.678v7.072c-0.807,0.264-1.685,0.528-2.634,0.784V36.695z M9.245,48.471
		c-0.417-0.126-1.134-0.295-1.964-0.49c-0.426-0.1-0.891-0.209-1.348-0.321l4.365-1.194c0.079-0.018,0.153-0.037,0.231-0.055v2.523
		C10.115,48.769,9.652,48.595,9.245,48.471z M11.943,46.066c0.941-0.243,1.819-0.494,2.634-0.748v6.931
		c-0.785,0.264-1.662,0.543-2.634,0.831V46.066z M15.188,58.832l-1.946,3.552l-2.047-3.578l0.138-0.298h3.684L15.188,58.832z
		 M22.714,56.389H7.808c4.694-1.155,7.976-2.262,10.129-3.108c4.31,1.269,4.743,2.668,4.781,2.852L22.714,56.389z"/>
</g>
</svg>
