<?xml version="1.0" encoding="utf-8"?>
<!-- Generator: Adobe Illustrator 24.0.2, SVG Export Plug-In . SVG Version: 6.00 Build 0)  -->
<svg version="1.1" id="Слой_1" xmlns="http://www.w3.org/2000/svg" xmlns:xlink="http://www.w3.org/1999/xlink" x="0px" y="0px"
	 width="55.837px" height="45.915px" viewBox="0 0 55.837 45.915" enable-background="new 0 0 55.837 45.915" xml:space="preserve">
<path fill="#009FE3" d="M53.622,38.128l-2.727-4.048h-0.26l-4.741-3.954l-1.865-2.339c-0.907-5.067-2.363-13.176-2.363-13.176
	s-0.55-2.549-2.441-2.319l1.621-5.12c0.338-1.059,0.165-2.188-0.474-3.096c-0.639-0.909-1.643-1.452-2.753-1.492l-25.656-0.91
	c-1.659-0.062-3.112,1.023-3.53,2.631L6,13.665l0.201,0.052l-0.762,0.016c-0.399-0.406-0.943-0.687-1.678-0.567
	c-2.043,0.332-1.473,3.405-1.473,3.405l3.098,18.863c0,0,0.315,2.579,2.562,2.068c0.125-0.028,0.238-0.067,0.346-0.111
	c0.18,0.423,0.36,0.794,0.384,0.842c1.908,4.469,6.128,5.095,6.336,5.122l9.253,0.885l1.958-1.491l-0.173-0.261l5.712,0.547
	l1.951-1.486l-0.174-0.269l5.001,0.478l1.944-1.481l-0.131-0.208l5.114,0.49l1.786-1.36l4.405,0.422L53.622,38.128z M38.336,5.509
	c0.187,0.266,0.238,0.597,0.138,0.909l-2.106,6.652l-3.434,0.074l2.13-8.158l2.467,0.087C37.855,5.085,38.149,5.244,38.336,5.509z
	 M21.448,13.39l2.299-8.806l3.176,0.113l-2.251,8.624L21.448,13.39z M15.026,13.528l2.393-9.168l3.778,0.134l-2.337,8.952
	L15.026,13.528z M29.473,4.787l3.042,0.108l-2.168,8.304l-3.087,0.066L29.473,4.787z M10.842,4.933
	c0.122-0.47,0.544-0.79,1.033-0.77L14.87,4.27l-2.431,9.314l-3.867,0.083L10.842,4.933z M23.828,42.699l-8.638-0.826
	c-0.145-0.021-3.57-0.555-5.154-4.261c-0.129-0.263-0.46-0.974-0.601-1.407c0.436-1.083,0.207-2.448,0.174-2.661
	c-0.051-0.332-3.218-17.967-3.218-17.967s-0.084-0.392-0.299-0.862l4.015-0.086c0.572,2.835,1.98,10.619,2.495,13.474l-0.363,0.041
	l-0.479,0.308l1.316,3.573l0.601,0.68l0.038,0.152l2.41,2.711l5.95,4.136h0.333l1.798,2.706L23.828,42.699z M31.325,41.494
	l-6.337-0.607l-1.779-2.676H23.09l-4.732-3.946l-2.154-2.701l-1.522-3.693l-0.594,0.066c-0.485-2.693-1.853-10.257-2.466-13.34
	l5.983-0.128c0.562,2.719,2.052,10.282,2.539,12.756l-0.169,0.019l-0.479,0.308l1.316,3.573l0.371,0.419l0.027,0.108l2.41,2.711
	l6.121,4.309h0.33l1.637,2.528L31.325,41.494z M38.102,40.217l-5.597-0.536l-1.621-2.502h-0.214l-4.575-3.815l-2.154-2.701
	l-1.522-3.693l-0.787,0.088c-0.435-2.211-1.896-9.632-2.509-12.622l5.658-0.121c0.521,2.512,1.722,9.21,2.139,11.551l-0.154,0.017
	l-0.479,0.308l1.316,3.573l0.322,0.365l0.062,0.246l2.41,2.711l6.277,4.467h0.326l1.492,2.366L38.102,40.217z M45.03,39.018
	l-5.681-0.544l-1.522-2.414h-0.141l0.041-0.021l-4.838-4.035l-2.154-2.701l-1.522-3.693l-0.803,0.09
	c-0.388-2.178-1.55-8.668-2.108-11.417l0.601-0.013l0.089,0.023l0.007-0.025l4.843-0.104c0.568,2.785,1.715,8.957,2.063,10.828
	l-0.327,0.21l1.077,2.922l0.264,1.052l2.41,2.711l6.209,4.398h0.328l1.555,2.436L45.03,39.018z M51.221,38.079l-4.73-0.453
	l-1.604-2.512l0.127-0.064l-4.838-4.035l-2.154-2.701L36.5,24.621l-1.124,0.126c-0.319-1.72-1.425-7.675-2.018-10.615l4.36-0.094
	c0.616,2.825,1.889,8.124,2.327,9.937l-0.271,0.03l-0.479,0.308l1.316,3.573l2.872,3.248l3.242,2.194l3.026,2.245H50.1l1.495,2.22
	L51.221,38.079z"/>
</svg>
