<?xml version="1.0" encoding="utf-8"?>
<!-- Generator: Adobe Illustrator 24.0.2, SVG Export Plug-In . SVG Version: 6.00 Build 0)  -->
<svg version="1.1" id="Слой_1" xmlns="http://www.w3.org/2000/svg" xmlns:xlink="http://www.w3.org/1999/xlink" x="0px" y="0px"
	 width="65px" height="32px" viewBox="0 0 65 32" enable-background="new 0 0 65 32" xml:space="preserve">
<g>
	<path fill="#009FE3" d="M62.865,22.103l-6.335-18.8l-0.813-0.294c-0.74-0.269-3.208-1.156-3.905-1.308
		c-0.2-0.044-0.414-0.105-0.616-0.162c-0.645-0.18-1.153-0.324-1.71-0.235c-0.354,0.056-0.656,0.187-0.907,0.366L34.492,2.583v0.001
		L10.314,4.035c-0.387-0.103-1.005-0.277-1.349-0.41C7.546,3.073,6.272,3.818,5.791,4.798l-3.252,8.375L1,17.206l0.045,0.425
		c0.06,0.57,0.179,1.595,0.303,2.049l0.05,0.188c0.215,0.826,0.458,1.683,0.862,2.282l0.113,0.172
		c0.365,0.569,1.045,1.627,2.301,2.247c0.964,0.474,3.84,1.65,4.186,1.792l4.512,1.773v0.464l4.492,1.806
		c0.405,0.255,0.922,0.32,1.447,0.32c0.294,0,0.592-0.021,0.873-0.041c1.428-0.098,5.163-0.505,5.326-0.524L64,25.856v-2.874
		L62.865,22.103z M10.193,23.028c-0.85-0.347-3.214-1.324-3.931-1.678c-0.362-0.179-0.632-0.598-0.87-0.969l-0.141-0.215
		c-0.083-0.148-0.21-0.552-0.379-1.2l-0.059-0.222c-0.031-0.132-0.094-0.581-0.151-1.066l1.23-3.224l2.459-6.445l0.292-0.713
		C9.089,7.427,9.48,7.529,9.633,7.568l1.845,0.612l4.626,17.17L10.193,23.028z M34.725,6.166l15.992-1.038
		c0.11,0.029,0.219,0.055,0.325,0.078c0.28,0.064,1.461,0.466,2.638,0.886l5.62,16.675l-34.186,3.823
		c-0.035,0.004-3.265,0.357-4.827,0.484L14.973,7.352l19.743-1.185"/>
	<path fill="#009FE3" d="M48.06,15.888c-0.015-0.004-1.456-0.396-1.698-1.416c-0.384-1.619-0.298-1.766,0.114-2.473l-2.067-1.206
		c-0.839,1.439-0.829,2.317-0.376,4.231c0.455,1.915,2.292,2.878,3.374,3.168c8.941,3.556,9.013,3.569,9.17,3.597l0.237-1.322
		l0.35-0.992c-0.354-0.125-5.542-2.183-8.943-3.535L48.06,15.888z"/>
	
		<rect x="20.339" y="15.614" transform="matrix(0.9968 -0.0796 0.0796 0.9968 -1.2409 2.4797)" fill="#009FE3" width="20.307" height="2.394"/>
</g>
</svg>
