<?xml version="1.0" encoding="utf-8"?>
<!-- Generator: Adobe Illustrator 24.0.2, SVG Export Plug-In . SVG Version: 6.00 Build 0)  -->
<svg version="1.1" id="Слой_1" xmlns="http://www.w3.org/2000/svg" xmlns:xlink="http://www.w3.org/1999/xlink" x="0px" y="0px"
	 width="61.454px" height="45.915px" viewBox="0 0 61.454 45.915" enable-background="new 0 0 61.454 45.915" xml:space="preserve">
<path fill="#009FE3" d="M59.095,2.665L39.258,1.512l-36.9,1.473L1.837,2.922V35.04h1.005v-1.723l15.092,7.711v3.375h1.005v-3.247
	l38.634-9.865l-0.07,1.935l1.004,0.037l1.11-30.627L59.095,2.665z M2.842,4.055l15.092,1.803v5.381L2.842,12.447V4.055z
	 M18.938,5.888l14.253-0.787v4.917l-14.253,1.141V5.888z M48.091,22.584l-2.623,0.484l-6.399-1.464l0.069-4.053l8.996,1.832
	L48.091,22.584z M49.137,19.587l7.229,1.472l-7.267,1.34L49.137,19.587z M48.077,23.609l-0.001,0.056l-0.134-0.031L48.077,23.609z
	 M38.694,14.162l-4.498,0.536v-4.262l4.567-0.366L38.694,14.162z M38.645,17.025l-4.449,0.613V15.71l4.48-0.534L38.645,17.025z
	 M33.191,14.818l-14.253,1.7V11.66l14.253-1.143V14.818z M18.938,17.53l14.253-1.7v1.946l-14.253,1.963V17.53z M33.191,18.283v4.236
	l-14.253,2.348v-4.621L33.191,18.283z M34.196,18.145l4.44-0.611l-0.07,4.1l-4.37,0.72V18.145z M39.06,22.118l5.159,1.18
	l-5.195,0.958L39.06,22.118z M39.147,17.039l0.033-1.924l9.027-1.077l-0.065,4.832L39.147,17.039z M39.197,14.102l0.068-4.009
	l8.979,1.129l-0.024,1.804L39.197,14.102z M49.248,11.348l6.35,0.798l-6.371,0.76L49.248,11.348z M58.278,11.826l-0.614,0.073
	l-8.409-1.055l0.09-6.636l9.228-0.509L58.278,11.826z M48.252,10.719l-8.978-1.126l0.082-4.833l8.982-0.496L48.252,10.719z
	 M38.772,9.571l-4.576,0.366V5.045l4.657-0.257L38.772,9.571z M2.842,12.95l15.092-1.21v4.712L2.842,12.965V12.95z M17.934,17.484
	v2.393L2.842,21.955v-7.959L17.934,17.484z M3.5,22.373l14.434-1.988v4.648l-5.159,0.85L3.5,22.373z M10.797,26.209L2.842,27.52
	v-4.322L10.797,26.209z M17.934,25.543v2.293l-4.221-1.598L17.934,25.543z M18.938,25.377l14.253-2.349v2.303L18.938,27.96V25.377z
	 M34.196,22.863l4.361-0.719l-0.038,2.205l-4.324,0.797V22.863z M46.693,23.864l1.376,0.315l-0.059,4.377l0.072,0.001l-13.887,3.146
	v-5.535L46.693,23.864z M49.071,24.408l8.619,1.972l-8.672,1.965L49.071,24.408z M49.078,23.894l0.006-0.47l8.832-1.628
	l-0.148,4.087L49.078,23.894z M57.954,20.766l-0.266,0.049l-8.544-1.74l0.07-5.156l9.028-1.077L57.954,20.766z M39.374,3.754
	l0.021-1.23l10.831,0.631L39.374,3.754z M38.892,2.53l-0.021,1.252l-20.42,1.127l-9.787-1.17L38.892,2.53z M2.956,28.011
	l8.779-1.447l6.198,2.346v6.127L2.956,28.011z M18.938,28.981l14.253-2.627v5.577l-14.253,3.229V28.981z"/>
</svg>
