<?xml version="1.0" encoding="utf-8"?>
<!-- Generator: Adobe Illustrator 24.0.2, SVG Export Plug-In . SVG Version: 6.00 Build 0)  -->
<svg version="1.1" id="Слой_1" xmlns="http://www.w3.org/2000/svg" xmlns:xlink="http://www.w3.org/1999/xlink" x="0px" y="0px"
	 width="67.454px" height="42.681px" viewBox="0 0 67.454 42.681" enable-background="new 0 0 67.454 42.681" xml:space="preserve">
<g>
	<path fill="#009FE3" d="M66.374,31.125l-2.292-9.38l-0.793,0.105l-0.151-0.945l-0.847-0.648c-0.659-2.817-2.098-9.358-2.05-11
		c0.047-1.604,0.969-2.322,1.768-2.769c0.954-0.534,1.296-1.099,1.174-2.01c-0.087-0.878-0.982-1.277-1.508-1.437l-0.269-0.044
		c-0.649-0.018-15.9-0.458-16.529-0.458c-1.001,0-1.483,0.894-1.706,1.586l-1.373,0.413c-3.718,0.988-5.29,4.395-5.818,5.915
		l-0.477,0.038l-0.071-0.386c-0.284-1.197-0.005-1.929,0.32-2.778c0.106-0.278,0.208-0.549,0.288-0.821
		c0.057-0.194,0.226-0.306,0.599-0.514c0.411-0.229,1.099-0.614,1.143-1.457c0.061-1.149-1.091-1.932-1.446-2.145L36.11,2.254
		l-0.263-0.01C34.956,2.211,14.01,1.418,12.361,1.49c-1.464,0.058-2.322,1.004-2.732,1.814c-6.755,1.396-8.443,9.781-8.514,10.148
		l-0.036,0.183l3.83,22.249l0.871-0.15l1.022,5.46L66.374,31.125z M9.271,37.657l-1.016-5.429l53.494-7.071l0.851,3.486
		L9.271,37.657z M37.757,11.655c0.01-0.042,1.04-4.199,4.599-5.145l2.576-0.774l0.105-0.63c0.025-0.149,0.086-0.361,0.147-0.511
		c1.817,0.041,10.811,0.298,15.297,0.427c-1.469,1.001-2.239,2.402-2.291,4.174c-0.068,2.296,1.956,10.914,2.187,11.889l0.085,0.356
		l0.779,0.596l0.013,0.082L39.531,24.99l-2.497-12.565l0.55-0.043L37.757,11.655z M10.513,5.233l0.677-0.107l0.176-0.657
		c0.04-0.149,0.281-0.897,1.076-0.929c1.242-0.05,15.43,0.458,23.028,0.742c0.003,0.002,0.006,0.005,0.009,0.007
		c-0.476,0.274-1.139,0.725-1.407,1.636c-0.065,0.221-0.15,0.442-0.237,0.669c-0.369,0.968-0.828,2.171-0.41,3.931l0.396,2.153
		l1.153-0.091l2.518,12.672L5.881,29.438L3.167,13.669C3.436,12.52,5.201,5.969,10.513,5.233z"/>
	
		<rect x="11.257" y="12.216" transform="matrix(0.9992 -0.04 0.04 0.9992 -0.4936 0.7913)" fill="#009FE3" width="16.536" height="1.027"/>
	
		<rect x="44.523" y="10.921" transform="matrix(0.9992 -0.04 0.04 0.9992 -0.4179 1.9857)" fill="#009FE3" width="9.766" height="1.027"/>
</g>
</svg>
