<?xml version="1.0" encoding="utf-8"?>
<!-- Generator: Adobe Illustrator 24.0.2, SVG Export Plug-In . SVG Version: 6.00 Build 0)  -->
<svg version="1.1" id="Слой_1" xmlns="http://www.w3.org/2000/svg" xmlns:xlink="http://www.w3.org/1999/xlink" x="0px" y="0px"
	 width="77.44px" height="32px" viewBox="0 0 77.44 32" enable-background="new 0 0 77.44 32" xml:space="preserve">
<g>
	<path fill="#009FE3" d="M73.744,21.736L67.532,3.303l-0.797-0.289c-0.725-0.264-3.145-1.133-3.829-1.282
		C62.71,1.689,62.5,1.629,62.302,1.573c-0.633-0.176-1.131-0.317-1.677-0.23c-0.347,0.055-0.643,0.183-0.89,0.359L45.925,2.597
		v0.001L11.716,4.516c-0.379-0.101-0.985-0.272-1.322-0.402c-1.392-0.541-2.641,0.189-3.113,1.15l-3.189,8.211L2.583,17.43
		l0.044,0.417c0.058,0.559,0.175,1.564,0.297,2.009l0.049,0.184c0.211,0.81,0.449,1.65,0.845,2.238l0.111,0.168
		c0.358,0.558,1.025,1.595,2.256,2.203c0.945,0.465,3.765,1.618,4.104,1.757l4.424,1.738V28.6l4.405,1.77
		c0.397,0.25,0.904,0.314,1.419,0.314c0.289,0,0.58-0.021,0.856-0.04c1.4-0.096,5.062-0.495,5.222-0.513l48.243-4.715v-2.818
		L73.744,21.736z M11.597,23.139c-0.834-0.34-3.151-1.298-3.855-1.645c-0.355-0.175-0.62-0.587-0.853-0.95l-0.138-0.211
		c-0.081-0.146-0.206-0.541-0.371-1.177l-0.058-0.218c-0.03-0.129-0.092-0.569-0.148-1.045l1.206-3.161l2.411-6.319l0.286-0.699
		c0.437,0.129,0.821,0.229,0.971,0.267l1.809,0.6l4.536,16.835L11.597,23.139z M46.153,6.11l15.68-1.018
		c0.108,0.029,0.214,0.054,0.319,0.077c0.275,0.063,1.432,0.457,2.587,0.869l5.51,16.35l-44.022,4.244
		c-0.034,0.004-3.201,0.35-4.733,0.474l-5.21-19.338l29.86-1.658"/>
	<path fill="#009FE3" d="M56.562,15.478c-0.014-0.003-1.428-0.388-1.665-1.389c-0.376-1.587-0.292-1.731,0.112-2.425l-2.027-1.183
		c-0.822,1.411-0.813,2.272-0.368,4.148c0.446,1.878,2.248,2.822,3.308,3.106c8.766,3.487,8.837,3.499,8.991,3.527l0.232-1.296
		l0.343-0.973c-0.347-0.123-5.434-2.14-8.769-3.466L56.562,15.478z"/>
	
		<rect x="25.832" y="16.175" transform="matrix(0.9968 -0.0796 0.0796 0.9968 -1.267 2.9027)" fill="#009FE3" width="19.911" height="2.347"/>
</g>
</svg>
