<?xml version="1.0" encoding="utf-8"?>
<!-- Generator: Adobe Illustrator 24.0.2, SVG Export Plug-In . SVG Version: 6.00 Build 0)  -->
<svg version="1.1" id="Слой_1" xmlns="http://www.w3.org/2000/svg" xmlns:xlink="http://www.w3.org/1999/xlink" x="0px" y="0px"
	 width="77.44px" height="33.489px" viewBox="0 0 77.44 33.489" enable-background="new 0 0 77.44 33.489" xml:space="preserve">
<path fill="#009FE3" d="M32.217,22.655c1.692,0.245,20.28,3.262,20.28,3.262l22.414,2.305l1.383-0.381l-0.009-0.452l-1.373-0.417
	c0,0-37.838-5.959-39.261-6.155c-0.952-0.131-1.164-0.828-1.203-1.278l5.701-0.735V2.789L34.433,3.05l-0.002-2.295h-3.703
	L30.727,3.22l-16.97,0.777l-0.006-2.48H9.215v2.688L1.147,4.575v19.257l8.068-1.04v0.035c0,0-0.196,3.016,1.226,3.237l21.384,4.022
	l22.671,2.649l1.839-0.478v-0.429l-1.238-0.589c0,0-38.108-6.94-39.776-7.161c-1.668-0.221-1.52-1.177-1.52-1.177l-0.002-0.7
	l16.923-2.182l0,0.724C30.721,20.743,30.525,22.41,32.217,22.655z M37.871,6.871v8.672l-3.425,0.395l-0.008-8.845L37.871,6.871z
	 M3.858,19.466V9.069l5.356-0.346v10.126L3.858,19.466z M13.79,18.32l-0.023-9.892l16.959-1.096l-0.003,9.035L13.79,18.32z"/>
</svg>
