<?xml version="1.0" encoding="utf-8"?>
<!-- Generator: Adobe Illustrator 24.0.2, SVG Export Plug-In . SVG Version: 6.00 Build 0)  -->
<svg version="1.1" id="Слой_1" xmlns="http://www.w3.org/2000/svg" xmlns:xlink="http://www.w3.org/1999/xlink" x="0px" y="0px"
	 width="66.305px" height="45.915px" viewBox="0 0 66.305 45.915" enable-background="new 0 0 66.305 45.915" xml:space="preserve">
<path fill="#009FE3" d="M64.362,14.371c-1.341-3.203-4.315-6.564-4.447-6.712c-0.245-0.271-6.094-6.609-14.43-4.86
	c-2.86,0.599-5.55,1.857-8.014,3.739c-1.439-1.427-3.28-2.823-5.562-3.786C26.367,0.414,21.7,1.85,21.105,2.051
	c-4.252,1.044-7.76,5.29-7.898,5.459l-5.855,6.931L2.885,16.79L2.71,16.907c-0.716,0.597-0.909,1.259-0.944,1.708
	c-0.06,0.767,0.268,1.565,0.972,2.369c0.088,0.124,0.117,0.614,0.058,0.967l-0.015,0.173C2.776,31.926,3.912,34.823,4.103,35.24
	c2.529,5.975,6.76,6.494,6.901,6.508l10.647,1.556l0.033,0.649l4.298,0.532l5.596-2.099l-2.292-1.061l-0.046-0.327l-0.558-0.208
	c0,0-6.57-2.456-10.397-3.891c-3.306-1.24-4.91-2.332-5.163-2.512c0,0-0.001-0.001-0.001-0.001c-0.309-0.736-0.508-1.741,0.2-2.493
	c0.939-0.996,1.458-1.079,2.058-1.176c0.327-0.053,0.698-0.112,1.13-0.305c1.094-0.486,1.116-1.949,0.923-2.927l3.624-0.353
	c0.111,0.556,0.411,1.732,1.038,2.19c0.629,0.46,1.714,0.484,2.763,0.508c0.216,0.005,0.425,0.009,0.619,0.019
	c0.314,0.015,0.776,0.316,1.218,0.688c0.834,2.362,1.959,3.931,2.031,4.028c1.889,2.688,5.005,3.126,5.145,3.144l10.645,1.31
	l0.005,0.344l4.384,0.353l3.627-2.191l-1.4-0.858l-0.017-0.495l-0.748-0.195c-0.097-0.025-9.782-2.552-13.522-3.908
	c-3.143-1.139-3.4-4.935-3.41-5.094l-0.018-0.144c-0.404-2.019,1.014-5.422,4.214-10.115c0.139-0.203,0.246-0.361,0.311-0.463
	c0.008-0.013,0.017-0.028,0.025-0.042c0.684,0.909,1.227,1.674,1.237,1.689l0.299,0.422h0.517c0.255,0,1.555-0.004,2.128-0.091
	c0.412-0.063,0.76-0.281,0.98-0.615c0.364-0.553,0.236-1.193,0.188-1.376l-0.055-0.155c0,0-1.097-2.448-1.701-3.847
	c-0.006-0.014-0.149-0.338-0.438-0.865c1.451-1.61,3.07-2.64,4.825-3.062c3.501-0.841,7.22,0.392,11.055,3.664
	c1.689,1.442,3.904,4.359,3.927,4.388l0.264,0.348l0.435,0.043c0.103,0.01,0.439,0.04,0.831,0.04c0.331,0,0.703-0.021,1.01-0.093
	c0.402-0.095,0.725-0.344,0.91-0.701C64.715,15.354,64.454,14.597,64.362,14.371z M16.104,29.498
	c-0.314,0.14-0.59,0.184-0.883,0.231c-0.682,0.11-1.455,0.234-2.627,1.478c-0.426,0.452-0.638,0.946-0.72,1.438
	c-0.698-1.441-0.871-3.091-0.833-4.538l5.39-0.525C16.535,28.078,16.671,29.246,16.104,29.498z M33.111,10.91
	c-0.154,0.207-0.258,0.359-0.307,0.431c-0.038,0.047-0.105,0.131-0.192,0.241H18.87c0.384-0.526,0.783-1.058,1.2-1.595
	c1.535-1.975,3.394-2.768,5.852-2.496h0C28.822,7.815,31.287,9.371,33.111,10.91z M18.154,12.582h13.692
	c-0.687,0.919-1.641,2.257-2.591,3.786c-1.433,0.014-4.947,0.075-13.727,0.249C16.285,15.357,17.158,13.999,18.154,12.582z
	 M25.819,24.842c-0.016,0.278-0.018,0.551-0.016,0.823l-2.12,0.207l3.846-8.478c0.416-0.007,0.789-0.013,1.119-0.019
	C27.221,19.818,25.949,22.583,25.819,24.842z M21.363,17.506l-3.711,8.954L14.1,26.805l3.902-9.236
	C19.074,17.549,20.219,17.527,21.363,17.506z M22.453,17.485c1.415-0.026,2.786-0.051,3.97-0.072l-3.888,8.57l-3.756,0.366
	L22.453,17.485z M14.932,17.629c0.589-0.012,1.258-0.025,1.977-0.038l-3.94,9.325l-1.867,0.182c0.133-1.435,0.424-2.511,0.476-2.694
	C11.699,24.089,12.752,21.404,14.932,17.629z M25.524,28.849c-0.201-0.009-0.419-0.014-0.643-0.019
	c-0.768-0.017-1.819-0.041-2.195-0.316c-0.26-0.19-0.5-0.907-0.626-1.481l3.786-0.369c0.069,0.837,0.213,1.631,0.4,2.377
	C26.004,28.933,25.76,28.86,25.524,28.849z M36.576,14.604c-0.135,0.254-0.237,0.451-0.313,0.568
	c-0.06,0.093-0.156,0.234-0.282,0.418c-2.259,3.312-5.178,8.105-4.535,11.566c0.052,0.679,0.559,5.283,4.719,6.791
	c3.037,1.101,9.628,2.884,12.421,3.626l-0.161,0.098l-1.931-0.156l-0.004-0.269l-12.365-1.522c-0.024-0.003-2.372-0.332-3.774-2.326
	c-0.028-0.039-2.799-3.878-2.536-8.442c0.265-4.594,6.508-12.315,6.571-12.392l0.063-0.087c0.001-0.002,0.049-0.075,0.142-0.205
	c0.554,0.556,1.004,1.053,1.325,1.41l0.192,0.213c0.163,0.18,0.339,0.386,0.522,0.606C36.612,14.536,36.592,14.573,36.576,14.604z
	 M40.532,16.32c-0.602-0.834-1.961-2.682-2.944-3.766l-0.186-0.206c-1.526-1.699-5.581-6.21-11.259-6.842h0
	c-3.128-0.347-5.702,0.748-7.651,3.255C12.369,16.638,9.8,23.452,9.693,23.738l-0.02,0.057c-0.097,0.32-2.33,7.881,2.12,12.085
	l0.079,0.067c0.071,0.054,1.789,1.351,5.71,2.822c2.723,1.021,6.836,2.559,8.982,3.362l-0.826,0.31l-2.145-0.265l-0.031-0.611
	l-12.298-1.797c-0.133-0.017-3.284-0.478-5.343-5.354c-0.011-0.025-1.141-2.668-1.143-12.21c0.063-0.427,0.179-1.716-0.534-2.532
	c-0.462-0.528-0.494-0.805-0.487-0.9c0.006-0.081,0.061-0.17,0.163-0.268l4.707-2.475l6.116-7.242
	c0.032-0.039,3.263-3.939,6.875-4.804l0.107-0.032c0.042-0.015,4.308-1.509,9.407,0.643c4.965,2.095,7.887,6.801,8.593,8.438
	c0.42,0.974,1.078,2.453,1.444,3.272C40.964,16.312,40.741,16.317,40.532,16.32z M62.241,14.792c-0.679-0.868-2.445-3.06-3.94-4.336
	c-5.416-4.621-9.96-4.772-12.819-4.086c-1.993,0.478-3.816,1.576-5.443,3.249c-0.342-0.498-0.747-1.04-1.211-1.598
	c2.187-1.641,4.559-2.739,7.069-3.266c7.194-1.508,12.486,4.189,12.532,4.239c0.028,0.031,2.663,3.011,3.939,5.802
	C62.324,14.794,62.282,14.793,62.241,14.792z"/>
</svg>
