<?xml version="1.0" encoding="utf-8"?>
<!-- Generator: Adobe Illustrator 22.0.1, SVG Export Plug-In . SVG Version: 6.00 Build 0)  -->
<svg version="1.1" id="Слой_1" xmlns="http://www.w3.org/2000/svg" xmlns:xlink="http://www.w3.org/1999/xlink" x="0px" y="0px"
	 width="100px" height="92.857px" viewBox="0 0 100 92.857" style="enable-background:new 0 0 100 92.857;" xml:space="preserve">
<style type="text/css">
	.st0{fill:#E30613;}
</style>
<path class="st0" d="M99.787,25.724C97.53,7.114,78.166-4.198,60.769,2.851c-4.123,1.67-7.62,4.227-10.639,7.508
	c-0.251-0.137-0.348-0.169-0.416-0.232c-0.248-0.232-0.487-0.475-0.729-0.715C41.944,2.424,33.513-0.304,23.714,1.18
	C8.366,3.504-2.446,18.99,0.479,34.305c1.278,6.689,3.959,12.777,7.517,18.504c7.786,12.533,17.861,23.002,29.437,32.044
	c3.046,2.379,6.429,4.337,9.709,6.406c1.88,1.186,3.865,1.112,5.799,0.011c1.307-0.744,2.653-1.43,3.906-2.257
	c8.575-5.654,16.092-12.535,22.978-20.112c6.528-7.184,12.299-14.907,16.343-23.807C98.968,38.933,100.611,32.522,99.787,25.724z"/>
</svg>
