<?xml version="1.0" encoding="utf-8"?>
<!-- Generator: Adobe Illustrator 22.0.1, SVG Export Plug-In . SVG Version: 6.00 Build 0)  -->
<svg version="1.1" id="Слой_1" xmlns="http://www.w3.org/2000/svg" xmlns:xlink="http://www.w3.org/1999/xlink" x="0px" y="0px"
	 width="16px" height="18px" viewBox="0 0 16 18" style="enable-background:new 0 0 16 18;" xml:space="preserve">
<style type="text/css">
	.st0{fill:#009FE3;}
</style>
<g>
	<path d="M690.6,610.9L348.4,268.7C429,168,479.3,37.2,479.3-103.7c0-332.1-261.7-593.8-593.8-593.8
		c-322.1,0-583.7,261.7-583.7,593.8s261.7,593.8,593.8,593.8c140.9,0,271.7-50.3,372.4-130.8l342.2,342.2
		c20.1,20.1,60.4,20.1,80.5,0C720.8,671.2,720.8,631,690.6,610.9z M-104.5,369.3c-261.7,0-473-211.3-473-473s211.3-473,473-473
		c261.7,0,473,211.3,473,473S157.2,369.3-104.5,369.3z"/>
</g>
<path class="st0" d="M16,17.3L15,5c0-0.3-0.3-0.5-0.6-0.5h-1.8C12.6,2,10.5,0,8,0S3.4,2,3.4,4.5H1.6C1.2,4.5,1,4.7,1,5L0,17.4
	c0,0.2,0,0.3,0.2,0.4C0.3,17.9,0.5,18,0.6,18h14.8l0,0c0.3,0,0.6-0.3,0.6-0.6V17.3z M8,1.1c1.9,0,3.5,1.5,3.5,3.4H4.6
	C4.5,2.6,6.1,1.1,8,1.1z M1.2,16.9L2.1,5.6h1.3v1.1C3.4,7,3.7,7.3,4,7.3c0.3,0,0.6-0.3,0.6-0.6V5.6h6.9v1.1c0,0.3,0.3,0.6,0.6,0.6
	c0.3,0,0.6-0.3,0.6-0.6V5.6H14l0.9,11.3H1.2z"/>
</svg>
