<?xml version="1.0" encoding="utf-8"?>
<!-- Generator: Adobe Illustrator 22.0.1, SVG Export Plug-In . SVG Version: 6.00 Build 0)  -->
<svg version="1.1" id="Слой_1" xmlns="http://www.w3.org/2000/svg" xmlns:xlink="http://www.w3.org/1999/xlink" x="0px" y="0px"
	 width="200px" height="200px" viewBox="0 0 200 200" style="enable-background:new 0 0 200 200;" xml:space="preserve">
<style type="text/css">
	.st0{fill-rule:evenodd;clip-rule:evenodd;fill:#FFFFFF;}
	.st1{fill-rule:evenodd;clip-rule:evenodd;}
</style>
<g>
	<circle class="st0" cx="100.2" cy="100" r="99.6"/>
	<g>
		<path class="st1" d="M95.2,16l-0.4-7.4c-0.7,0-1.3,0.1-2,0.1l0.6,7.4C94,16.1,94.6,16,95.2,16z"/>
		<path class="st1" d="M67,22.6l-2.9-6.8c-0.6,0.3-1.2,0.5-1.8,0.8l3.1,6.7C65.9,23.1,66.5,22.9,67,22.6z"/>
		<path class="st1" d="M48.3,33.7l-4.6-5.8c-0.5,0.4-1,0.8-1.5,1.2l4.7,5.7C47.4,34.5,47.8,34.1,48.3,33.7z"/>
		<path class="st1" d="M60.5,25.8L57,19.3c-0.6,0.3-1.2,0.6-1.7,1l3.6,6.5C59.4,26.4,59.9,26.1,60.5,25.8z"/>
		<path class="st1" d="M57.3,27.6l-3.8-6.4c-0.6,0.3-1.1,0.7-1.7,1l3.9,6.3C56.3,28.2,56.8,27.9,57.3,27.6z"/>
		<path class="st1" d="M51.2,31.6l-4.3-6c-0.5,0.4-1.1,0.8-1.6,1.2l4.5,5.9C50.2,32.3,50.7,31.9,51.2,31.6z"/>
		<path class="st1" d="M54.2,29.5l-4.1-6.2c-0.5,0.4-1.1,0.7-1.6,1.1l4.2,6.1C53.2,30.2,53.7,29.8,54.2,29.5z"/>
		<path class="st1" d="M70.4,21.3l-2.6-6.9c-0.6,0.2-1.2,0.5-1.8,0.7l2.8,6.9C69.3,21.7,69.8,21.5,70.4,21.3z"/>
		<path class="st1" d="M73.8,20.1l-2.3-7c-0.6,0.2-1.3,0.4-1.9,0.6l2.5,7C72.7,20.5,73.2,20.3,73.8,20.1z"/>
		<path class="st1" d="M84.4,17.3L83,10c-0.6,0.1-1.3,0.3-1.9,0.4l1.5,7.3C83.2,17.6,83.8,17.4,84.4,17.3z"/>
		<path class="st1" d="M91.6,16.3l-0.7-7.4c-0.7,0.1-1.3,0.1-2,0.2l0.9,7.4C90.4,16.4,91,16.3,91.6,16.3z"/>
		<path class="st1" d="M88,16.7l-1.1-7.3c-0.7,0.1-1.3,0.2-2,0.3l1.2,7.3C86.8,16.9,87.4,16.8,88,16.7z"/>
		<path class="st1" d="M80.8,18.1l-1.7-7.2c-0.6,0.2-1.3,0.3-1.9,0.5l1.9,7.2C79.6,18.4,80.2,18.2,80.8,18.1z"/>
		<path class="st1" d="M77.3,19l-2-7.1c-0.6,0.2-1.3,0.4-1.9,0.6l2.2,7.1C76.1,19.3,76.7,19.2,77.3,19z"/>
		<path class="st1" d="M63.7,24.1l-3.2-6.7c-0.6,0.3-1.2,0.6-1.8,0.9l3.4,6.6C62.6,24.7,63.2,24.4,63.7,24.1z"/>
		<path class="st1" d="M22.2,68.3l-6.9-2.8c-0.2,0.6-0.5,1.2-0.7,1.9l6.9,2.7C21.8,69.4,22,68.8,22.2,68.3z"/>
		<path class="st1" d="M19.8,75.1L12.7,73c-0.2,0.6-0.4,1.3-0.6,1.9l7.1,2C19.4,76.3,19.6,75.7,19.8,75.1z"/>
		<path class="st1" d="M20.9,71.7l-7-2.5c-0.2,0.6-0.4,1.3-0.6,1.9l7,2.3C20.5,72.8,20.7,72.2,20.9,71.7z"/>
		<path class="st1" d="M23.7,64.9l-6.7-3.1c-0.3,0.6-0.5,1.2-0.8,1.8l6.8,2.9C23.2,66,23.4,65.5,23.7,64.9z"/>
		<path class="st1" d="M17.9,82.2l-7.2-1.6c-0.1,0.6-0.3,1.3-0.4,1.9l7.3,1.4C17.7,83.4,17.8,82.8,17.9,82.2z"/>
		<path class="st1" d="M16.7,89.4l-7.4-0.9c-0.1,0.6-0.2,1.3-0.2,2l7.4,0.8C16.6,90.6,16.6,90,16.7,89.4z"/>
		<path class="st1" d="M17.2,85.8l-7.3-1.2c-0.1,0.6-0.2,1.3-0.3,2l7.3,1.1C17,87,17.1,86.4,17.2,85.8z"/>
		<path class="st1" d="M25.3,61.6l-6.6-3.4c-0.3,0.6-0.6,1.2-0.9,1.8l6.7,3.2C24.7,62.7,25,62.2,25.3,61.6z"/>
		<path class="st1" d="M18.8,78.6l-7.2-1.9c-0.2,0.6-0.3,1.3-0.5,1.9l7.2,1.7C18.5,79.8,18.6,79.2,18.8,78.6z"/>
		<path class="st1" d="M33,49.3l-5.9-4.5c-0.4,0.5-0.8,1.1-1.2,1.6l6,4.3C32.3,50.3,32.7,49.8,33,49.3z"/>
		<path class="st1" d="M40.2,41l-5.3-5.2c-0.5,0.5-0.9,1-1.4,1.4l5.4,5.1C39.3,41.9,39.8,41.4,40.2,41z"/>
		<path class="st1" d="M27,58.4l-6.4-3.7c-0.3,0.6-0.7,1.2-1,1.7l6.5,3.5C26.4,59.5,26.7,58.9,27,58.4z"/>
		<path class="st1" d="M42.8,38.5l-5.1-5.4c-0.5,0.4-1,0.9-1.4,1.4l5.2,5.3C41.9,39.3,42.3,38.9,42.8,38.5z"/>
		<path class="st1" d="M35.3,46.4l-5.7-4.7c-0.4,0.5-0.8,1-1.2,1.5l5.8,4.6C34.5,47.4,34.9,46.9,35.3,46.4z"/>
		<path class="st1" d="M37.7,43.7l-5.5-5c-0.4,0.5-0.9,1-1.3,1.5l5.6,4.8C36.9,44.6,37.3,44.1,37.7,43.7z"/>
		<path class="st1" d="M28.9,55.3l-6.3-4c-0.3,0.6-0.7,1.1-1,1.7l6.4,3.8C28.2,56.3,28.6,55.8,28.9,55.3z"/>
		<path class="st1" d="M45.5,36l-4.8-5.6c-0.5,0.4-1,0.9-1.5,1.3l4.9,5.5C44.6,36.8,45,36.4,45.5,36z"/>
		<path class="st1" d="M30.9,52.2L24.8,48c-0.4,0.5-0.7,1.1-1.1,1.6l6.2,4.1C30.2,53.2,30.6,52.7,30.9,52.2z"/>
		<path class="st1" d="M114.5,9.6c-0.7-0.1-1.3-0.2-2-0.3l-1,7.4c0.6,0.1,1.2,0.2,1.8,0.3L114.5,9.6z"/>
		<path class="st1" d="M173.9,59.4l6.5-3.6c-0.3-0.6-0.6-1.2-1-1.7l-6.4,3.7C173.3,58.3,173.6,58.8,173.9,59.4z"/>
		<path class="st1" d="M175.6,62.6l6.6-3.3c-0.3-0.6-0.6-1.2-0.9-1.8l-6.6,3.4C175,61.5,175.3,62,175.6,62.6z"/>
		<path class="st1" d="M172.1,56.2l6.3-3.9c-0.3-0.6-0.7-1.1-1-1.7l-6.2,4C171.4,55.2,171.8,55.7,172.1,56.2z"/>
		<path class="st1" d="M177.1,65.9l6.8-3c-0.3-0.6-0.5-1.2-0.8-1.8l-6.7,3.2C176.6,64.8,176.9,65.3,177.1,65.9z"/>
		<path class="st1" d="M168,50.2l6-4.4c-0.4-0.5-0.8-1.1-1.2-1.6l-5.9,4.5C167.3,49.2,167.7,49.7,168,50.2z"/>
		<path class="st1" d="M165.8,47.3l5.8-4.6c-0.4-0.5-0.8-1-1.3-1.5l-5.7,4.8C165,46.4,165.4,46.8,165.8,47.3z"/>
		<path class="st1" d="M163.4,44.5l5.6-4.9c-0.4-0.5-0.9-1-1.3-1.5l-5.5,5C162.6,43.6,163.1,44.1,163.4,44.5z"/>
		<path class="st1" d="M178.5,69.2l6.9-2.7c-0.2-0.6-0.5-1.2-0.7-1.8l-6.8,2.9C178.1,68.1,178.3,68.7,178.5,69.2z"/>
		<path class="st1" d="M170.1,53.2l6.2-4.1c-0.4-0.5-0.7-1.1-1.1-1.6l-6.1,4.3C169.4,52.2,169.8,52.7,170.1,53.2z"/>
		<path class="st1" d="M179.8,72.6l7-2.4c-0.2-0.6-0.4-1.2-0.7-1.9l-7,2.6C179.4,71.5,179.6,72.1,179.8,72.6z"/>
		<path class="st1" d="M183.3,86.8l7.3-1.2c-0.1-0.6-0.2-1.3-0.3-2L183,85C183.1,85.6,183.2,86.2,183.3,86.8z"/>
		<path class="st1" d="M184.1,94l7.4-0.5c0-0.7-0.1-1.3-0.2-2l-7.4,0.7C184,92.8,184.1,93.4,184.1,94z"/>
		<path class="st1" d="M183.8,90.4l7.4-0.8c-0.1-0.7-0.2-1.3-0.2-2l-7.3,1C183.6,89.1,183.7,89.8,183.8,90.4z"/>
		<path class="st1" d="M184.3,97.6l7.4-0.2c0-0.7,0-1.3-0.1-2l-7.4,0.4C184.3,96.4,184.3,97,184.3,97.6z"/>
		<path class="st1" d="M161,41.8l5.4-5.1c-0.5-0.5-0.9-1-1.4-1.4l-5.2,5.2C160.1,41,160.6,41.4,161,41.8z"/>
		<path class="st1" d="M182.6,83.2l7.3-1.5c-0.1-0.6-0.3-1.3-0.4-1.9l-7.2,1.6C182.4,82,182.5,82.6,182.6,83.2z"/>
		<path class="st1" d="M180.9,76.1L188,74c-0.2-0.6-0.4-1.3-0.6-1.9l-7.1,2.3C180.5,74.9,180.7,75.5,180.9,76.1z"/>
		<path class="st1" d="M181.8,79.6l7.2-1.8c-0.2-0.6-0.3-1.3-0.5-1.9l-7.2,1.9C181.5,78.4,181.7,79,181.8,79.6z"/>
		<path class="st1" d="M16.3,93l-7.4-0.6c-0.1,0.7-0.1,1.3-0.1,2l7.4,0.4C16.2,94.2,16.3,93.6,16.3,93z"/>
		<path class="st1" d="M124,19.3l2.1-7.1c-0.6-0.2-1.3-0.4-1.9-0.5l-1.9,7.2C122.9,18.9,123.5,19.1,124,19.3z"/>
		<path class="st1" d="M122.3,11.1c-0.6-0.2-1.3-0.3-1.9-0.5l-1.6,7.2c0.6,0.1,1.2,0.3,1.8,0.4L122.3,11.1z"/>
		<path class="st1" d="M127.5,20.4l2.4-7c-0.6-0.2-1.3-0.4-1.9-0.6l-2.3,7.1C126.4,20,126.9,20.2,127.5,20.4z"/>
		<path class="st1" d="M130.9,21.7l2.7-6.9c-0.6-0.2-1.2-0.5-1.9-0.7l-2.6,7C129.8,21.2,130.4,21.4,130.9,21.7z"/>
		<path class="st1" d="M118.4,10.3c-0.6-0.1-1.3-0.3-1.9-0.4l-1.3,7.3c0.6,0.1,1.2,0.2,1.8,0.3L118.4,10.3z"/>
		<path class="st1" d="M106.7,8.7c-0.7,0-1.3-0.1-2-0.1l-0.4,7.4c0.6,0,1.2,0.1,1.8,0.1L106.7,8.7z"/>
		<path class="st1" d="M98.9,15.9l-0.1-7.4c-0.7,0-1.3,0-2,0.1l0.3,7.4C97.7,15.9,98.3,15.9,98.9,15.9z"/>
		<path class="st1" d="M102.7,8.5c-0.7,0-1.3,0-2,0l0,7.4c0.6,0,1.2,0,1.8,0L102.7,8.5z"/>
		<path class="st1" d="M110.6,9c-0.6-0.1-1.3-0.1-2-0.2l-0.7,7.4c0.6,0.1,1.2,0.1,1.8,0.2L110.6,9z"/>
		<path class="st1" d="M150.1,32.2l4.4-6c-0.5-0.4-1.1-0.8-1.6-1.2l-4.3,6.1C149.1,31.5,149.6,31.9,150.1,32.2z"/>
		<path class="st1" d="M158.4,39.3l5.1-5.4c-0.5-0.5-1-0.9-1.4-1.4l-5,5.5C157.5,38.4,158,38.8,158.4,39.3z"/>
		<path class="st1" d="M147.1,30.1l4.1-6.2c-0.5-0.4-1.1-0.7-1.7-1.1l-4,6.2C146.1,29.4,146.6,29.8,147.1,30.1z"/>
		<path class="st1" d="M152.9,34.4l4.7-5.8c-0.5-0.4-1-0.8-1.6-1.2l-4.5,5.9C152,33.7,152.5,34.1,152.9,34.4z"/>
		<path class="st1" d="M155.7,36.8l4.9-5.6c-0.5-0.4-1-0.9-1.5-1.3l-4.8,5.7C154.8,36,155.3,36.4,155.7,36.8z"/>
		<path class="st1" d="M137.6,24.6l3.3-6.6c-0.6-0.3-1.2-0.6-1.8-0.9l-3.2,6.7C136.5,24.1,137.1,24.3,137.6,24.6z"/>
		<path class="st1" d="M134.3,23.1l3-6.8c-0.6-0.3-1.2-0.5-1.8-0.8l-2.9,6.8C133.2,22.6,133.8,22.8,134.3,23.1z"/>
		<path class="st1" d="M144,28.1l3.9-6.3c-0.6-0.3-1.1-0.7-1.7-1l-3.7,6.4C143,27.5,143.5,27.8,144,28.1z"/>
		<path class="st1" d="M140.8,26.3l3.6-6.5c-0.6-0.3-1.2-0.6-1.7-0.9l-3.5,6.6C139.8,25.7,140.3,26,140.8,26.3z"/>
		<path class="st1" d="M110.3,183.5l0.9,7.4c0.6-0.1,1.3-0.2,2-0.3l-1-7.3C111.5,183.4,110.9,183.5,110.3,183.5z"/>
		<path class="st1" d="M134.8,176.7l3.1,6.8c0.6-0.3,1.2-0.6,1.8-0.8l-3.2-6.7C135.9,176.2,135.3,176.5,134.8,176.7z"/>
		<path class="st1" d="M138,175.2l3.3,6.6c0.6-0.3,1.2-0.6,1.8-0.9l-3.5-6.5C139.1,174.6,138.6,174.9,138,175.2z"/>
		<path class="st1" d="M156,162.9l4.9,5.5c0.5-0.4,1-0.9,1.5-1.3l-5-5.4C156.9,162.1,156.5,162.5,156,162.9z"/>
		<path class="st1" d="M141.3,173.5l3.6,6.5c0.6-0.3,1.2-0.7,1.7-1l-3.8-6.4C142.3,172.9,141.8,173.2,141.3,173.5z"/>
		<path class="st1" d="M128,179.4l2.5,7c0.6-0.2,1.2-0.4,1.9-0.7l-2.6-6.9C129.2,179,128.6,179.2,128,179.4z"/>
		<path class="st1" d="M144.4,171.6l3.9,6.3c0.6-0.3,1.1-0.7,1.7-1.1l-4-6.2C145.4,171,144.9,171.3,144.4,171.6z"/>
		<path class="st1" d="M153.3,165.3l4.7,5.8c0.5-0.4,1-0.8,1.5-1.3l-4.8-5.7C154.2,164.5,153.7,164.9,153.3,165.3z"/>
		<path class="st1" d="M150.4,167.5l4.4,5.9c0.5-0.4,1.1-0.8,1.6-1.2l-4.6-5.9C151.4,166.8,150.9,167.2,150.4,167.5z"/>
		<path class="st1" d="M147.4,169.6l4.2,6.1c0.5-0.4,1.1-0.8,1.6-1.1l-4.3-6C148.4,168.9,147.9,169.3,147.4,169.6z"/>
		<path class="st1" d="M131.4,178.1l2.8,6.9c0.6-0.2,1.2-0.5,1.8-0.8l-2.9-6.8C132.6,177.7,132,177.9,131.4,178.1z"/>
		<path class="st1" d="M124.6,180.6l2.1,7.1c0.6-0.2,1.3-0.4,1.9-0.6l-2.3-7.1C125.7,180.2,125.1,180.4,124.6,180.6z"/>
		<path class="st1" d="M95.4,191.4c0.7,0,1.3,0.1,2,0.1l0.2-7.4c-0.6,0-1.2,0-1.8-0.1L95.4,191.4z"/>
		<path class="st1" d="M91.4,191.1c0.7,0.1,1.3,0.1,2,0.2l0.5-7.4c-0.6,0-1.2-0.1-1.8-0.2L91.4,191.1z"/>
		<path class="st1" d="M103.1,184.1l0.2,7.4c0.7,0,1.3-0.1,2-0.1l-0.4-7.4C104.3,184,103.7,184.1,103.1,184.1z"/>
		<path class="st1" d="M99.4,184.1l-0.1,7.4c0.3,0,0.6,0,0.8,0c0.4,0,0.8,0,1.1,0l-0.1-7.4C100.6,184.1,100,184.1,99.4,184.1z"/>
		<path class="st1" d="M106.7,183.9l0.6,7.4c0.7-0.1,1.3-0.1,2-0.2l-0.7-7.4C107.9,183.8,107.3,183.8,106.7,183.9z"/>
		<path class="st1" d="M117.5,182.4l1.5,7.3c0.6-0.1,1.3-0.3,1.9-0.4l-1.7-7.2C118.7,182.1,118.1,182.2,117.5,182.4z"/>
		<path class="st1" d="M87.5,190.7c0.6,0.1,1.3,0.2,2,0.3l0.9-7.4c-0.6-0.1-1.2-0.1-1.8-0.2L87.5,190.7z"/>
		<path class="st1" d="M113.9,183l1.2,7.3c0.6-0.1,1.3-0.2,2-0.3l-1.4-7.3C115.1,182.8,114.5,182.9,113.9,183z"/>
		<path class="st1" d="M121.1,181.5l1.8,7.2c0.6-0.2,1.3-0.3,1.9-0.5l-2-7.1C122.2,181.2,121.6,181.4,121.1,181.5z"/>
		<path class="st1" d="M182,119.8l7.2,1.7c0.2-0.6,0.3-1.3,0.4-1.9l-7.2-1.6C182.3,118.7,182.1,119.3,182,119.8z"/>
		<path class="st1" d="M178.7,130.3l6.9,2.7c0.2-0.6,0.5-1.2,0.7-1.9l-7-2.5C179.1,129.1,178.9,129.7,178.7,130.3z"/>
		<path class="st1" d="M182.8,116.3l7.3,1.4c0.1-0.6,0.2-1.3,0.4-1.9l-7.3-1.3C183,115.1,182.9,115.7,182.8,116.3z"/>
		<path class="st1" d="M180,126.8l7,2.4c0.2-0.6,0.4-1.3,0.6-1.9l-7.1-2.2C180.3,125.7,180.1,126.3,180,126.8z"/>
		<path class="st1" d="M158.7,160.5l5.2,5.3c0.5-0.5,0.9-0.9,1.4-1.4l-5.3-5.2C159.6,159.6,159.2,160,158.7,160.5z"/>
		<path class="st1" d="M191.7,99.4l-7.4,0.1c0,0.2,0,0.4,0,0.5c0,0.6,0,1.2,0,1.8l7.4,0.2c0-0.7,0-1.3,0-2
			C191.7,99.8,191.7,99.6,191.7,99.4z"/>
		<path class="st1" d="M184.2,105.5l7.4,0.5c0-0.7,0.1-1.3,0.1-2l-7.4-0.3C184.2,104.2,184.2,104.9,184.2,105.5z"/>
		<path class="st1" d="M183.4,112.7l7.3,1.1c0.1-0.6,0.2-1.3,0.3-2l-7.4-1C183.6,111.5,183.5,112.1,183.4,112.7z"/>
		<path class="st1" d="M183.8,109.1l7.4,0.8c0.1-0.7,0.1-1.3,0.2-2l-7.4-0.6C184,107.9,183.9,108.5,183.8,109.1z"/>
		<path class="st1" d="M181,123.4l7.1,2.1c0.2-0.6,0.4-1.3,0.5-1.9l-7.2-1.9C181.4,122.2,181.2,122.8,181,123.4z"/>
		<path class="st1" d="M163.7,155.2l5.6,4.9c0.4-0.5,0.9-1,1.3-1.5l-5.7-4.7C164.5,154.2,164.1,154.7,163.7,155.2z"/>
		<path class="st1" d="M168.3,149.5l6,4.4c0.4-0.5,0.8-1.1,1.2-1.6l-6.1-4.2C169,148.5,168.6,149,168.3,149.5z"/>
		<path class="st1" d="M166.1,152.4l5.8,4.6c0.4-0.5,0.8-1,1.2-1.6l-5.9-4.5C166.8,151.4,166.4,151.9,166.1,152.4z"/>
		<path class="st1" d="M161.3,157.9l5.4,5.1c0.5-0.5,0.9-1,1.3-1.5l-5.5-5C162.1,157,161.7,157.4,161.3,157.9z"/>
		<path class="st1" d="M170.3,146.5l6.2,4.1c0.4-0.5,0.7-1.1,1.1-1.7l-6.3-4C171,145.4,170.7,146,170.3,146.5z"/>
		<path class="st1" d="M177.3,133.7l6.8,3c0.3-0.6,0.5-1.2,0.8-1.8L178,132C177.8,132.5,177.6,133.1,177.3,133.7z"/>
		<path class="st1" d="M174.1,140.2l6.5,3.5c0.3-0.6,0.6-1.2,0.9-1.8l-6.6-3.4C174.7,139.1,174.4,139.7,174.1,140.2z"/>
		<path class="st1" d="M175.8,137l6.7,3.3c0.3-0.6,0.6-1.2,0.9-1.8l-6.7-3.1C176.3,135.9,176.1,136.4,175.8,137z"/>
		<path class="st1" d="M172.3,143.4l6.4,3.8c0.3-0.6,0.7-1.1,1-1.7l-6.4-3.7C172.9,142.3,172.6,142.9,172.3,143.4z"/>
		<path class="st1" d="M74.3,180.1l-2.3,7.1c0.6,0.2,1.3,0.4,1.9,0.6l2.1-7.1C75.5,180.5,74.9,180.3,74.3,180.1z"/>
		<path class="st1" d="M27.2,142l-6.4,3.7c0.3,0.6,0.7,1.1,1,1.7l6.3-3.8C27.9,143,27.5,142.5,27.2,142z"/>
		<path class="st1" d="M43.1,161.8l-5,5.4c0.5,0.4,1,0.9,1.5,1.3l4.9-5.6C44,162.6,43.5,162.2,43.1,161.8z"/>
		<path class="st1" d="M29.1,145.1l-6.3,4c0.4,0.6,0.7,1.1,1.1,1.7l6.2-4.1C29.8,146.1,29.5,145.6,29.1,145.1z"/>
		<path class="st1" d="M25.5,138.8l-6.6,3.4c0.3,0.6,0.6,1.2,0.9,1.7l6.5-3.6C26.1,139.9,25.8,139.3,25.5,138.8z"/>
		<path class="st1" d="M23.9,135.5l-6.7,3.1c0.3,0.6,0.6,1.2,0.9,1.8l6.7-3.3C24.4,136.6,24.1,136.1,23.9,135.5z"/>
		<path class="st1" d="M33.3,151l-5.9,4.5c0.4,0.5,0.8,1,1.2,1.6l5.8-4.6C34,152,33.7,151.5,33.3,151z"/>
		<path class="st1" d="M38,156.6l-5.5,5c0.4,0.5,0.9,1,1.3,1.5l5.4-5.1C38.8,157.5,38.4,157.1,38,156.6z"/>
		<path class="st1" d="M22.4,132.2l-6.8,2.8c0.2,0.6,0.5,1.2,0.8,1.8l6.8-3C22.9,133.3,22.7,132.8,22.4,132.2z"/>
		<path class="st1" d="M40.5,159.3l-5.3,5.2c0.5,0.5,0.9,0.9,1.4,1.4l5.2-5.3C41.3,160.1,40.9,159.7,40.5,159.3z"/>
		<path class="st1" d="M35.6,153.9l-5.7,4.8c0.4,0.5,0.9,1,1.3,1.5l5.6-4.9C36.3,154.8,36,154.4,35.6,153.9z"/>
		<path class="st1" d="M31.1,148.1l-6.1,4.2c0.4,0.5,0.8,1.1,1.2,1.6l6-4.4C31.8,149.1,31.5,148.6,31.1,148.1z"/>
		<path class="st1" d="M16.1,103.9l-7.4,0.3c0,0.7,0.1,1.3,0.1,2l7.4-0.5C16.2,105.1,16.2,104.5,16.1,103.9z"/>
		<path class="st1" d="M16.8,111.2l-7.3,1c0.1,0.7,0.2,1.3,0.3,2L17,113C16.9,112.4,16.9,111.8,16.8,111.2z"/>
		<path class="st1" d="M21.1,128.8l-7,2.5c0.2,0.6,0.5,1.2,0.7,1.9l6.9-2.7C21.5,130,21.3,129.4,21.1,128.8z"/>
		<path class="st1" d="M16,100.3l-7.4,0c0,0.7,0,1.3,0,2l7.4-0.2C16.1,101.5,16,100.9,16,100.3z"/>
		<path class="st1" d="M16.4,107.5L9,108.2c0.1,0.7,0.1,1.3,0.2,2l7.4-0.8C16.5,108.8,16.4,108.2,16.4,107.5z"/>
		<path class="st1" d="M18.9,121.9l-7.2,1.9c0.2,0.6,0.4,1.3,0.5,1.9l7.1-2.1C19.2,123.1,19.1,122.5,18.9,121.9z"/>
		<path class="st1" d="M19.9,125.4l-7.1,2.2c0.2,0.6,0.4,1.3,0.6,1.9l7-2.4C20.3,126.5,20.1,125.9,19.9,125.4z"/>
		<path class="st1" d="M17.3,114.8l-7.3,1.3c0.1,0.7,0.2,1.3,0.4,1.9l7.3-1.5C17.6,116,17.4,115.4,17.3,114.8z"/>
		<path class="st1" d="M18,118.3l-7.2,1.6c0.1,0.6,0.3,1.3,0.4,1.9l7.2-1.8C18.3,119.5,18.2,118.9,18,118.3z"/>
		<path class="st1" d="M51.6,168.7l-4.3,6.1c0.5,0.4,1.1,0.8,1.6,1.1l4.2-6.1C52.6,169.4,52.1,169,51.6,168.7z"/>
		<path class="st1" d="M16.1,96.6l-7.4-0.3c0,0.7,0,1.3-0.1,2l7.4,0.1C16.1,97.8,16.1,97.2,16.1,96.6z"/>
		<path class="st1" d="M70.9,178.9l-2.6,7c0.6,0.2,1.3,0.5,1.9,0.7l2.4-7C72,179.3,71.5,179.1,70.9,178.9z"/>
		<path class="st1" d="M67.5,177.6l-2.9,6.8c0.6,0.3,1.2,0.5,1.8,0.8l2.7-6.9C68.6,178,68,177.8,67.5,177.6z"/>
		<path class="st1" d="M79.7,189.3c0.6,0.1,1.3,0.3,1.9,0.4l1.5-7.3c-0.6-0.1-1.2-0.3-1.8-0.4L79.7,189.3z"/>
		<path class="st1" d="M45.8,164.2l-4.8,5.7c0.5,0.4,1,0.8,1.5,1.3l4.7-5.8C46.7,165,46.3,164.6,45.8,164.2z"/>
		<path class="st1" d="M75.9,188.3c0.6,0.2,1.3,0.3,1.9,0.5l1.8-7.2c-0.6-0.1-1.2-0.3-1.8-0.5L75.9,188.3z"/>
		<path class="st1" d="M64.2,176.1l-3.2,6.7c0.6,0.3,1.2,0.6,1.8,0.8l3-6.8C65.3,176.6,64.7,176.3,64.2,176.1z"/>
		<path class="st1" d="M83.6,190.1c0.7,0.1,1.3,0.2,1.9,0.3l1.2-7.3c-0.6-0.1-1.2-0.2-1.8-0.3L83.6,190.1z"/>
		<path class="st1" d="M48.6,166.5l-4.5,5.9c0.5,0.4,1.1,0.8,1.6,1.2l4.4-6C49.6,167.3,49.1,166.9,48.6,166.5z"/>
		<path class="st1" d="M60.9,174.4l-3.5,6.6c0.6,0.3,1.2,0.6,1.8,0.9l3.3-6.6C62,175,61.4,174.7,60.9,174.4z"/>
		<path class="st1" d="M54.6,170.7l-4,6.2c0.6,0.4,1.1,0.7,1.7,1.1l3.9-6.3C55.6,171.4,55.1,171.1,54.6,170.7z"/>
		<path class="st1" d="M57.7,172.6L54,179c0.6,0.3,1.1,0.7,1.7,1l3.6-6.5C58.8,173.3,58.2,173,57.7,172.6z"/>
		<rect x="34.1" y="123.3" class="st1" width="46.6" height="2.9"/>
		<rect x="120.3" y="123.3" class="st1" width="45.9" height="2.9"/>
		<path class="st1" d="M108.5,131.8c1.1,0.1,2-0.4,2.9-1c1.7-1.4,2.7-3.1,3.4-5.1c0.1-0.2,0.1-0.4,0.1-0.6c0-0.7-0.6-1-1.2-0.6
			c-0.2,0.1-0.3,0.2-0.4,0.4c-0.1,0.2-0.3,0.5-0.4,0.7c-0.6,1.4-1.4,2.7-2.5,3.7c-0.4,0.3-0.8,0.6-1.3,0.6c-0.4,0-0.6-0.1-0.5-0.5
			c0.1-0.3,0.2-0.5,0.3-0.8c0.6-1,1.2-2.1,1.8-3.1c0.3-0.6,0.6-1.2,0.9-1.9c0.2-0.6,0.1-1.1-0.3-1.6c-0.4-0.4-0.9-0.7-1.5-0.8
			c-1-0.2-1.5,0.1-1.9,1c-0.2,0.6-0.4,1.2-0.6,1.8c-0.5,1.6-1.2,3.1-2.2,4.5c-0.4,0.5-0.8,0.9-1.3,1.2c-0.7,0.3-1.3,0-1.4-0.8
			c0-0.5,0-1,0.1-1.5c0.7-2.6,2.2-4.7,4.3-6.2c1.5-1,3.1-1.4,4.9-1.1c0.3,0.1,0.7,0.1,1,0.1c0.6,0,0.9-0.6,0.6-1.2
			c-0.2-0.4-0.6-0.6-1-0.7c-0.5-0.1-1-0.3-1.5-0.4c-1.9-0.4-3.7-0.2-5.5,0.5c-2.9,1.1-4.7,3.2-5.9,5.9c-0.4,1-0.9,2-1.4,2.9
			c-0.4,0.8-1,1.4-1.6,2c-0.4,0.3-0.8,0.5-1.3,0.6c-0.3,0-0.4-0.1-0.4-0.4c0.1-0.4,0.2-0.8,0.4-1.1c0.7-1.2,1.4-2.5,2.1-3.7
			c0.7-1.2,1.3-2.4,1.9-3.6c0.2-0.4,0.3-0.9,0.1-1.3c-0.3-1-1.8-2-2.9-1.9c-0.5,0.1-0.9,0.3-1.1,0.8c-0.2,0.4-0.3,0.7-0.5,1.1
			c-0.5,1.3-1,2.7-1.5,4c-0.7,1.8-1.6,3.5-2.8,5c-0.4,0.5-0.9,1-1.5,1.2c-0.7,0.2-1.2-0.1-1-0.9c0.2-0.6,0.4-1.3,0.7-1.9
			c1.1-2.1,2.3-4.1,3.5-6.2c0.3-0.6,0.3-1.2,0-1.7c-0.5-0.9-1.2-1.4-2.1-1.7c-0.1,0-0.3,0-0.4,0c-0.5,0.1-0.8,0.5-1,0.9
			c-0.3,0.6-0.5,1.1-0.8,1.7c-0.9,1.9-1.7,3.8-2.1,5.8c-0.3,1.2-0.5,2.4-0.3,3.7c0.1,0.7,0.4,1.3,0.9,1.7c1,0.7,2,0.7,3,0.2
			c1-0.5,1.7-1.2,2.3-2.1c0.3-0.4,0.6-0.9,0.9-1.4c0,0.2,0,0.4,0,0.5c0,0.7,0,1.3,0.3,2c0.3,0.6,0.7,1.1,1.4,1.2
			c0.6,0.1,1.1,0,1.7-0.2c1.1-0.4,2-1.2,2.8-2.2c0.1-0.1,0.2-0.2,0.3-0.4c0,0.1,0.1,0.2,0.1,0.2c0.8,2.4,3.7,2.9,5.3,1.8
			c0.5-0.4,1-0.9,1.5-1.4c0.2-0.2,0.4-0.5,0.6-0.8c0,0.1,0,0.2,0,0.3c0.1,0.4,0.1,0.8,0.2,1.2C107.1,131.4,107.6,131.8,108.5,131.8z
			"/>
		<path class="st1" d="M87.6,93.2c1.3-4.2,1.8-4.9,2.8-6.7c0.4-0.7,0.4-1.1-0.2-1.3c-1-0.4-2-0.8-3-1.3c0,0-1.8-0.3-5.3,10.6
			c-0.6,1.7-1.2,3.4-2.8,4.8c-0.6,0.5-1.3,1.4-2,1.1c-0.4-0.2-0.3-1.3-0.1-1.9c0.7-1.8,1.5-3.5,2.3-5.2c0.7-1.3,0.7-1.7-0.3-2.5
			c-0.2-0.2-0.5-0.4-0.8-0.6c0.8-0.9,0.6-1.7,0-2.3c-0.9-0.8-1.8-1.5-2.9-2C73,84.6,71,85,68.7,87.2c-3.7,3.6-5.5,7.8-6,12.3
			c-0.1,1.3,0.3,2.4,1.1,3.4c1.6,1.8,4.1,1.6,6.1-0.5c0.9-1,1.6-2.1,2.5-3.3c-0.1,2.1,0.7,3.7,3,4.1c2.5,0.4,4-1.5,5.7-3
			c0.9,1.4,1.9,2.5,3.8,2.7c0.1-0.2,0.2-0.3,0.4-1.5c0.6-2.1,1.1-3.8,1.5-5.2c0.2-0.5,0.5-0.6,0.7-0.6c1.1,0,2.7-0.1,3.9-0.1
			c0,0.1,0,0.2,0,0.3c-0.4,1.2-0.8,2.6-1,4.1c-0.3,1.9,0.7,3.6,2.6,4.3c1.9,0.6,3.2,0.2,5.1-1.7c0.5-0.5,0.9-1,1.3-1.5c0,0,0,0,0,0
			c0.1-0.1,0.1-0.2,0.2-0.2c0.1-0.1,0.2-0.3,0.3-0.4c0,0,0,0,0-0.1c0,0,0,0,0,0c0.1-0.1,0.2-0.3,0.3-0.4c1.6-2.5,3.2-5.1,4.6-7.7
			c0.8-1.5,1.5-2.4,3.3-2.1c0.3,0,0.6-0.1,0.8-0.1c-0.6,1-1.2,2-1.7,3.1c-1.1,2.3-2.2,4.6-2.5,7c-0.2,1.7,0.7,2.8,2.3,3.3
			c1.5,0.6,3.1,0.3,4.5-1c0.7-0.6,1.4-1.3,2.1-1.9c0,0.2,0.1,0.4,0.1,0.6c0.8,3,3.6,4.4,6.9,3.3c2-0.6,3.5-2,4.7-3.6
			c0.6-0.8,1.2-1.4,2.4-1.7c2.1-0.6,3.7-2,5-3.7c0.3,1,0.5,2,0.9,2.9c0.2,0.5,0,0.7-0.4,1.1c-1.3,1.2-2.5,2.5-3.7,3.8
			c-0.8,0.9-0.6,2.4,0.3,3c1.6-1.7,3.3-3.4,4.9-5.2c0.2,0.2,0.3,0.4,0.4,0.5c0.8,1.1,1.7,2,3.1,2.5c1.4,0.5,2.8,0.3,4.1-0.9
			c0.7-0.6,1.3-1.2,1.9-1.8c0.1,0.3,0.2,0.6,0.4,0.9c1.1,2.2,4.2,3.4,7,0c0.7-0.9,1.3-1.8,2-2.9c0,0.3,0,0.5,0,0.7
			c0.1,1.7,0.9,2.9,2.6,3.3c1.7,0.4,3.1-0.3,4.4-1.5c2.3-2.2,3.9-4.7,5.3-7.3c0.5-1,0.3-1.3-0.9-1.3c-0.2,0.3-0.4,0.7-0.6,1
			c-1.4,1.9-2.8,3.8-4.3,5.7c-0.4,0.4-1.1,0.6-1.7,0.9c0-0.5-0.3-1.1-0.1-1.5c0.8-2,1.7-4,2.6-5.9c0.3-0.6,0.4-1.1,0-1.5
			c-0.4-0.4-0.8-0.8-1.2-1.2c0.7-1,0.4-1.8-0.2-2.4c-0.8-0.7-1.6-1.3-2.5-1.7c-2.9-1.5-5.2-0.5-7.4,1.8c-2.4,2.5-3.8,5.3-4.7,8.3
			c-0.5,1.9-1.8,3.3-3.4,4.7c-0.7,0.6-1.2,0.6-1.7,0c-0.5-0.7-0.7-1.5-1.2-2.3c-0.5-0.9-0.2-1.7,0.7-2.6c2.3-2.4,4.5-4.8,6.7-7.3
			c1-1.2,0.7-2.3-0.6-2.7c-2.6,2.9-5.1,5.7-7.6,8.6c-0.1,0-0.3-0.1-0.4-0.1c-0.1-2.1-0.3-4.2-0.4-6.5c-0.7,0.1-1.5,0.1-2.3,0.3
			c-2.2,0.5-2.7,1-2.5,2.9c0.2,1.5-0.5,2.6-1.6,3.7c-1.1,1.1-2.1,1.7-3,1.8c0.4-1.7,0.8-3.3,1.1-5c0.2-1.3,0.1-2.7-1.1-3.5
			c-1.2-0.8-2.7-1.5-4.1-2.1c-1.2-0.5-2.5,0.1-3.5,1.3c-0.1,0.2-0.3,0.4-0.5,0.5c-1.4,0.4-2.2,1.5-2.9,2.5c-1.4,1.9-2.2,3.9-2.8,6
			c-0.4,1.6-1.8,2.8-3.1,3.8c-0.9,0.7-1.7,0.3-1.6-0.7c0.1-0.6,0.2-1.3,0.5-1.9c1.4-2.5,2.8-5.1,4.3-7.6c0.3-0.5,0.4-0.9,0-1.2
			c-0.8-0.6-1.5-1.2-2.4-1.7c-0.4-0.2-1.1-0.1-1.6,0c-1,0.2-2,0.5-3,0.7c0-0.1-0.1-0.1-0.1-0.2c0.8-1.2,1.6-2.3,2.5-3.6
			c-0.6-0.4-1.1-0.9-1.8-1.2c-1.2-0.5-2.2-0.2-3.1,1c-0.6,0.9-1.1,1.8-1.5,2.8c-0.5,1.2,0.1,2,1.1,2.6c0.2,0.1,0.3,0.2,0.5,0.3
			c-1.1,2.1-2.3,4.1-3.7,6.1c-1,1.4-2,2.8-3.3,4.2c-0.5,0.5-1.1,1-1.7,1.4c-0.6,0.4-1.1,0.2-1.1-0.4c0-0.5,0-1.1,0.2-1.6
			c1.1-3.3,2.7-6.4,4.7-9.5c0.4-0.6,0.5-1,0-1.3c-0.9-0.8-1.8-1.6-2.9-2.3c-0.2-0.1-2.4,2.1-4.3,6.2c-0.1,0.1-0.2,0.3-0.2,0.4
			c-0.1,0.2-0.3,0.4-0.5,0.5C90.7,93.3,88.8,93.2,87.6,93.2z M74.9,91.3c-1.7,2.6-3.2,5.2-4.9,7.7c-0.4,0.7-1,1.3-1.6,1.8
			c-0.6,0.6-1.2,0.4-1.2-0.3c0-0.6,0.1-1.3,0.2-2c0.8-2.9,2-5.6,3.9-8.2c0.5-0.8,1.2-1.5,2-2.1c1-0.8,1.7-0.6,2,0.4
			C75.4,89.6,75.5,90.4,74.9,91.3z M148.8,99.3c1-3.3,2.3-6.4,4.5-9.3c0.4-0.5,0.8-0.9,1.3-1.2c0.9-0.7,1.7-0.5,2,0.4
			c0.2,0.8,0.3,1.7-0.3,2.6c-1.7,2.6-3.2,5.2-4.9,7.7c-0.4,0.6-1,1.2-1.7,1.8c-0.5,0.5-1,0.4-1-0.3
			C148.7,100.4,148.8,99.8,148.8,99.3z M121.9,91.4c0.2-0.2,0.4-0.4,0.7-0.6c1.1-0.8,1.1-0.8,0.1-1.6c0.7-0.5,1.4-0.9,2.1-0.6
			c0.7,0.3,0.7,1,0.7,1.7c0,2-0.9,3.9-1.7,5.9c-0.1,0.2-0.2,0.4-0.3,0.6c-1.1-0.4-1.8-1.2-2.3-2.1C120.4,93.2,120.4,92.9,121.9,91.4
			z M118.2,97.7c0.1-0.4,0.3-0.9,0.5-1.2c1.1,0.9,2.2,1.8,3.4,2.7c-0.6,0.9-1.3,1.9-2.4,2.7c-1,0.7-2,0.5-2-0.5
			C117.7,100.2,118,98.9,118.2,97.7z"/>
		<path class="st1" d="M59.8,93.9c1.8-4.7,4.2-9.4,7.2-13.8c0.4-0.6,0.5-1.1-0.5-1.7c-1.8-0.9-3-0.4-3.7,0.1c-0.5,0.4-1,1.8-1.2,2.1
			c-1.6,3-3.3,6-4.8,9.1c-1.5,3.1-2.6,6.2-3.3,9.4c-1,6.9,3.6,6.6,4.2,6.6c1.9-0.1,3.8-2.2,3.9-3.9c0-0.4-0.1-0.4-0.2-0.5
			c-4.3,3.6-4.2,1-4,0.5C58.1,99.2,58.8,96.5,59.8,93.9z"/>
		<path class="st1" d="M79,69.9c0-0.2,0-0.4,0-0.6c0-0.2-0.2-0.7-0.6-0.7c-0.1,0-0.5,0-1.1,0.5c-1.7,1.4-3.4,1.9-5.4,1.5
			c-2.2-0.4-4.4-0.8-6.6-1.2c-1.8-0.3-8.2-1.5-9.6-1.7c-2-0.3-4.1-0.4-6.3-0.1c-5.7,0.8-12,5-14.4,10c-1.6,3.2-1.2,6.6,1,8.3
			c2.1,1.6,4.9,1.5,7.7,0c2.7-1.6,5.1-5.3,4.8-7.7c-0.1-1.1-0.7-1.7-1.6-1.5c-0.9,0.2-1.4,1-1.5,2.1c0,0.7-0.1,1.4-0.3,2.1
			c-0.6,2.4-2.8,4.1-5.2,4.1c-2.3,0-3.7-1.7-3.4-4.1c0.7-5.3,6.9-9.2,12.1-8.6c5.5,0.5,12.1,3.6,15,4.3c2.8,0.7,5.7,0.7,5.7,0.7
			C74.1,77.1,78.3,73.9,79,69.9z"/>
		<path class="st1" d="M38.3,103c0.3-0.2,0.5-0.4,0.8-0.6c0.4-0.4,0.6-0.9,0.4-1.4c-0.2-0.6-0.6-0.9-1.1-1c-0.7-0.1-1.3,0-1.8,0.6
			c-0.4,0.5-0.7,0.9-0.8,1.3c-0.2,0.7-0.4,1.5,0.5,2.8c1.3,1.7,3.1,2.1,5,1.7c2.8-0.5,5-3.3,5.5-4.4c1.4-2.4,1.9-3.4,3-5.9
			c1.6-3.6,6.5-17.8,6.6-18.5c0-0.3-0.3-0.7-0.5-0.7c-1.2-0.1-2.5,0-3.8,0.1c-0.2,0-0.5,0.3-0.5,0.5c-0.8,3.8-3.9,13-5.4,16.7
			c-0.8,2-3.9,10.2-7.3,10.6c-0.5,0-0.8-0.3-1-0.7C37.8,103.5,38.1,103.2,38.3,103z"/>
	</g>
</g>
</svg>
