<?xml version="1.0" encoding="utf-8"?>
<!-- Generator: Adobe Illustrator 22.0.1, SVG Export Plug-In . SVG Version: 6.00 Build 0)  -->
<svg version="1.1" id="Слой_1" xmlns="http://www.w3.org/2000/svg" xmlns:xlink="http://www.w3.org/1999/xlink" x="0px" y="0px"
	 width="15px" height="14px" viewBox="0 0 15 14" style="enable-background:new 0 0 15 14;" xml:space="preserve">
<g>
	<path d="M690.1,608.9L347.9,266.7C428.5,166,478.8,35.2,478.8-105.7c0-332.1-261.7-593.8-593.8-593.8
		c-322.1,0-583.7,261.7-583.7,593.8S-437.1,488.1-105,488.1c140.9,0,271.7-50.3,372.4-130.8l342.2,342.2c20.1,20.1,60.4,20.1,80.5,0
		C720.3,669.2,720.3,629,690.1,608.9z M-105,367.3c-261.7,0-473-211.3-473-473s211.3-473,473-473c261.7,0,473,211.3,473,473
		S156.7,367.3-105,367.3z"/>
</g>
<path d="M7.5,14c-0.2,0-0.5-0.1-0.7-0.2l-0.3-0.2c-0.4-0.2-0.7-0.5-1.1-0.7C3.6,11.5,2.2,10,1.2,8.3C0.6,7.4,0.3,6.4,0.1,5.5
	C-0.1,4.3,0.2,3,0.9,2s1.8-1.7,2.9-1.9c1.4-0.2,2.7,0.1,3.7,1.1c0.4-0.3,0.8-0.6,1.3-0.8c1.3-0.5,2.8-0.4,4,0.3s2,2,2.2,3.4
	c0.1,1-0.1,2-0.5,3c-0.5,1.2-1.3,2.3-2.4,3.5s-2.2,2.2-3.3,2.9c-0.1,0.1-0.3,0.2-0.4,0.2l-0.2,0.1C8,13.9,7.7,14,7.5,14z M4.6,1.2
	c-0.2,0-0.4,0-0.6,0C3.2,1.3,2.4,1.8,1.8,2.6C1.3,3.4,1.1,4.3,1.2,5.2c0.2,0.8,0.5,1.6,1,2.4c1,1.6,2.3,3,3.9,4.3
	c0.3,0.2,0.6,0.5,1,0.7l0.3,0.2c0,0,0.1,0.1,0.2,0l0.2-0.1c0.1-0.1,0.2-0.1,0.3-0.2c1.1-0.7,2.1-1.6,3.1-2.7s1.7-2.1,2.2-3.2
	c0.4-0.9,0.5-1.7,0.5-2.4l0,0c-0.1-1.1-0.7-2-1.6-2.5s-2-0.6-3-0.2C8.8,1.7,8.4,2,8,2.4L7.7,2.7L7.3,2.5c0,0-0.1-0.1-0.2-0.1L7,2.3
	C6.3,1.5,5.5,1.2,4.6,1.2z"/>
</svg>
