<?xml version="1.0" encoding="utf-8"?>
<!-- Generator: Adobe Illustrator 22.0.1, SVG Export Plug-In . SVG Version: 6.00 Build 0)  -->
<svg version="1.1" id="Слой_1" xmlns="http://www.w3.org/2000/svg" xmlns:xlink="http://www.w3.org/1999/xlink" x="0px" y="0px"
	 width="102px" height="102px" viewBox="0 0 102 102" style="enable-background:new 0 0 102 102;" xml:space="preserve">
<style type="text/css">
	.st0{fill:#EAF6FE;}
	.st1{fill:#1B9DD9;}
</style>
<g>
	<circle class="st0" cx="51" cy="51" r="51"/>
	<g>
		<g>
			<path class="st1" d="M30.2,74.2c-0.2,0-0.4,0-0.6,0c-3.8-0.3-6.8-3.4-6.9-7.2c0-0.2,0-0.3,0-0.5l-0.8,0l-3.8,0c-1.1,0-2-0.9-2-2
				V29.3c0-1.1,0.9-2,2-2h44.3c1.1,0,2,0.9,2,2V37h8.2c0.5,0,1,0.2,1.4,0.6l11.2,11.2c0.4,0.4,0.6,0.9,0.6,1.4v14.4c0,1.1-0.9,2-2,2
				H81c0,0.1,0,0.1,0,0.2c0,3.8-2.9,7-6.7,7.3c-0.2,0-0.4,0-0.5,0c-4.1-0.2-5.7-2.6-6-2.9c-0.9-1.3-1.4-2.8-1.4-4.4
				c0-0.1,0-0.1,0-0.2H48.6c0,0.2,0,0.3,0,0.5c-0.2,3.8-3.1,6.8-6.9,7.1c-2.3,0.2-4.5-0.7-6-2.3C34.3,73.4,32.3,74.2,30.2,74.2z
				 M21.9,65.2l2.2,0L24,66c0,0.3-0.1,0.7,0,1c0.1,3.1,2.6,5.7,5.7,5.9c2.1,0.2,4.1-0.7,5.4-2.4l0.5-0.6l0.5,0.7
				c1.3,1.6,3.3,2.5,5.4,2.3c3.1-0.2,5.6-2.8,5.7-5.9c0-0.3,0-0.7,0-1l-0.1-0.7h20.5L67.7,66c0,0.3,0,0.5,0,0.7
				c0,1.3,0.4,2.6,1.2,3.6l0,0.1c0,0.1,1.3,2.1,4.9,2.3c0.1,0,0.3,0,0.4,0c3.1-0.3,5.5-2.9,5.5-6c0-0.2,0-0.5,0-0.7l-0.1-0.7h4.2
				c0.4,0,0.7-0.3,0.7-0.7V50.2c0-0.2-0.1-0.4-0.2-0.5L73.2,38.5c-0.1-0.1-0.3-0.2-0.5-0.2h-9.5v-8.9c0-0.4-0.3-0.7-0.7-0.7H18.2
				c-0.4,0-0.7,0.3-0.7,0.7v35.2c0,0.4,0.3,0.7,0.7,0.7L21.9,65.2z M73.7,71.3c-2.6,0-4.6-2.1-4.6-4.6s2.1-4.6,4.6-4.6
				s4.6,2.1,4.6,4.6S76.2,71.3,73.7,71.3z M73.7,63.3c-1.9,0-3.4,1.5-3.4,3.4c0,1.9,1.5,3.4,3.4,3.4s3.4-1.5,3.4-3.4
				C77,64.8,75.5,63.3,73.7,63.3z M41.1,71.3c-2.6,0-4.6-2.1-4.6-4.6s2.1-4.6,4.6-4.6s4.6,2.1,4.6,4.6S43.7,71.3,41.1,71.3z
				 M41.1,63.3c-1.9,0-3.4,1.5-3.4,3.4c0,1.9,1.5,3.4,3.4,3.4s3.4-1.5,3.4-3.4C44.5,64.8,43,63.3,41.1,63.3z M30.4,71.3
				c-2.6,0-4.6-2.1-4.6-4.6s2.1-4.6,4.6-4.6s4.6,2.1,4.6,4.6S33,71.3,30.4,71.3z M30.4,63.3c-1.9,0-3.4,1.5-3.4,3.4
				c0,1.9,1.5,3.4,3.4,3.4c1.9,0,3.4-1.5,3.4-3.4C33.8,64.8,32.3,63.3,30.4,63.3z M82.2,57.5H69.3c-2.6,0-4.6-2.1-4.6-4.6V40.2h6.8
				L82.2,51V57.5z M65.9,41.5v11.4c0,1.9,1.5,3.4,3.4,3.4h11.6v-4.7l-10-10H65.9z"/>
		</g>
	</g>
	<g>
		<path class="st1" d="M44.7,41.5c0.6,0,1.1-0.5,1.1-1.1s-0.5-1.1-1.1-1.1h-2.4c-1.2,0-2.2,1-2.2,2.2v5.6c0,1.2,1,2.2,2.2,2.2h2.4
			c0.6,0,1.1-0.5,1.1-1.1s-0.5-1.1-1.1-1.1h-2.4v-1.7h2.4c0.6,0,1.1-0.5,1.1-1.1s-0.5-1.1-1.1-1.1h-2.4v-1.7H44.7z"/>
		<path class="st1" d="M52.4,41.5c0.6,0,1.1-0.5,1.1-1.1s-0.5-1.1-1.1-1.1H50c-1.2,0-2.2,1-2.2,2.2v5.6c0,1.2,1,2.2,2.2,2.2h2.4
			c0.6,0,1.1-0.5,1.1-1.1s-0.5-1.1-1.1-1.1H50v-1.7h2.4c0.6,0,1.1-0.5,1.1-1.1s-0.5-1.1-1.1-1.1H50v-1.7H52.4z"/>
		<path class="st1" d="M25,41.4v6.8c0,0.6,0.5,1.1,1.1,1.1s1.1-0.5,1.1-1.1v-2.8h2c0.6,0,1.1-0.5,1.1-1.1c0-0.6-0.5-1.1-1.1-1.1h-2
			v-1.7h2c0.6,0,1.1-0.5,1.1-1.1s-0.5-1.1-1.1-1.1h-2.1C25.9,39.3,25,40.2,25,41.4z"/>
		<path class="st1" d="M38.4,42.3c0-1.7-1.4-3-3-3h-2.1c-0.6,0-1.1,0.5-1.1,1.1v7.8c0,0.6,0.5,1.1,1.1,1.1s1.1-0.5,1.1-1.1v-1.5
			l2.2,2.2c0.2,0.2,0.5,0.3,0.8,0.3c0.3,0,0.6-0.1,0.8-0.3c0.4-0.4,0.4-1.1,0-1.5L36,45.3C37.3,45,38.4,43.8,38.4,42.3z M35.4,43.2
			h-1v-1.7h1c0.5,0,0.9,0.4,0.9,0.9S35.8,43.2,35.4,43.2z"/>
	</g>
</g>
</svg>
