<?xml version="1.0" encoding="utf-8"?>
<!-- Generator: Adobe Illustrator 22.0.1, SVG Export Plug-In . SVG Version: 6.00 Build 0)  -->
<svg version="1.1" id="Слой_1" xmlns="http://www.w3.org/2000/svg" xmlns:xlink="http://www.w3.org/1999/xlink" x="0px" y="0px"
	 width="102px" height="102px" viewBox="0 0 102 102" style="enable-background:new 0 0 102 102;" xml:space="preserve">
<style type="text/css">
	.st0{fill:#EAF6FE;}
	.st1{fill:#009FE3;}
	.st2{fill:#2C2E2C;}
	.st3{fill:#617171;}
</style>
<g>
	<circle class="st0" cx="51" cy="51" r="51"/>
	<g>
		<path id="path14_1_" class="st1" d="M63.2,36.8c0,0-12.9-2.9-12.9-2.9c-3.9-0.9-6.3-4.7-5.4-8.6c0.9-3.9,4.7-6.3,8.6-5.4
			c3.9,0.9,6.3,4.7,5.4,8.6c-0.4,1.9-1.6,3.5-3.2,4.5c0,0,0,0,0,0c0,0-0.1,0.1-0.1,0.1c0,0.1,0.1,0.2,0.1,0.2c0,0,5.8,1.3,5.8,1.3
			c0.1,0,0.3,0,0.4-0.1c0,0,0,0,0,0c1.6-2.1,2.5-4.7,2.5-7.5c0-6.7-5.2-12.1-11.8-12.5c-0.1,0-0.4,0-0.5,0c-2.9,0-5.9,0.8-8.4,2.6
			c-6.5,4.5-8,13.5-3.5,19.9l11.5,16.4c0,0.1,0.1,0.1,0.2,0.1c0.1,0,0.2,0,0.2-0.1c0,0,11.3-16.1,11.3-16.1c0,0,0-0.1,0-0.1
			C63.5,37,63.4,36.9,63.2,36.8"/>
		<g>
			<path id="path16_1_" class="st2" d="M18.3,60.2c0.1,0,0.1,0,0.2,0.1l2.4,4h0.1l2-4c0-0.1,0.1-0.1,0.2-0.1h1.4
				c0.1,0,0.2,0.1,0.1,0.2l-4.2,7.3c0,0.1-0.1,0.1-0.2,0.1h-1.4c-0.2,0-0.2-0.1-0.1-0.2l1.1-1.9l-3.3-5.4c-0.1-0.1,0-0.2,0.1-0.2
				H18.3"/>
			<path id="path18_1_" class="st2" d="M27.2,60.2c0.1,0,0.2,0.1,0.2,0.2v3l3.2-3.1c0.1-0.1,0.2-0.1,0.4-0.1h1.7
				c0.1,0,0.2,0.1,0.1,0.2l-3.4,3.2l3.6,4.1c0.1,0.1,0,0.2-0.1,0.2h-1.7c-0.2,0-0.3,0-0.4-0.1l-2.7-3.2l-0.7,0.7v2.4
				c0,0.1-0.1,0.2-0.2,0.2H26c-0.1,0-0.2-0.1-0.2-0.2v-7.3c0-0.1,0.1-0.2,0.2-0.2H27.2"/>
			<path id="path20_1_" class="st2" d="M37.6,64.3c0.9,0,1.4-0.5,1.4-1.3c0-0.7-0.5-1.3-1.4-1.3h-2v2.5H37.6z M37.6,60.2
				c1.7,0,3,1.2,3,2.8c0,1.6-1.3,2.8-3,2.8h-2v1.8c0,0.1-0.1,0.2-0.2,0.2h-1.2c-0.1,0-0.2-0.1-0.2-0.2v-7.3c0-0.1,0.1-0.2,0.2-0.2
				H37.6"/>
			<path id="path22_1_" class="st2" d="M48.3,60.2c0.1,0,0.2,0.1,0.2,0.2v7.3c0,0.1-0.1,0.2-0.2,0.2h-1.2c-0.1,0-0.2-0.1-0.2-0.2v-6
				h-3.4v6c0,0.1-0.1,0.2-0.2,0.2H42c-0.1,0-0.2-0.1-0.2-0.2v-7.3c0-0.1,0.1-0.2,0.2-0.2H48.3"/>
			<path id="path24_1_" class="st2" d="M51.6,64.1c0,1.4,1,2.4,2.4,2.4c1.4,0,2.4-1,2.4-2.4c0-1.4-1-2.4-2.4-2.4
				C52.6,61.6,51.6,62.6,51.6,64.1 M54,60.1c2.2,0,4,1.7,4,4c0,2.3-1.8,4-4,4c-2.2,0-4.1-1.7-4.1-4C50,61.8,51.8,60.1,54,60.1"/>
			<path id="path26_1_" class="st2" d="M63.6,66.4v-6c0-0.1,0.1-0.2,0.2-0.2H65c0.1,0,0.2,0.1,0.2,0.2v6h2.4v-6
				c0-0.1,0.1-0.2,0.2-0.2H69c0.1,0,0.2,0.1,0.2,0.2v7.3c0,0.1-0.1,0.2-0.2,0.2h-9.3c-0.1,0-0.2-0.1-0.2-0.2v-7.3
				c0-0.1,0.1-0.2,0.2-0.2H61c0.1,0,0.2,0.1,0.2,0.2v6H63.6"/>
			<path id="path28_1_" class="st2" d="M77,60.2c0.1,0,0.2,0.1,0.2,0.2v1.2c0,0.1-0.1,0.2-0.2,0.2h-2.5v5.9c0,0.1-0.1,0.2-0.2,0.2
				h-1.2c-0.1,0-0.2-0.1-0.2-0.2v-5.9h-2.5c-0.1,0-0.2-0.1-0.2-0.2v-1.2c0-0.1,0.1-0.2,0.2-0.2H77"/>
			<path id="path30_1_" class="st2" d="M79.8,64.9h2.7l-1.2-3.2h-0.2L79.8,64.9z M83.1,66.4h-3.8l-0.5,1.4c0,0.1-0.1,0.2-0.2,0.2
				h-1.4c-0.1,0-0.2-0.1-0.1-0.2l3.3-7.4c0-0.1,0.1-0.1,0.2-0.1h1.6c0.1,0,0.2,0,0.2,0.1l3.2,7.4c0,0.1,0,0.2-0.2,0.2h-1.3
				c-0.1,0-0.2-0.1-0.3-0.2L83.1,66.4"/>
			<path id="path32_1_" class="st3" d="M17.7,74.5v-3.3h2.2v0.4h-1.7v2.9H17.7"/>
			<path id="path34_1_" class="st3" d="M20.9,72.8c0,0.8,0.4,1.4,1.1,1.4c0.7,0,1.1-0.5,1.1-1.4c0-0.8-0.4-1.3-1.1-1.3
				C21.3,71.5,20.9,72.1,20.9,72.8z M23.6,72.8c0,1-0.5,1.8-1.6,1.8c-1.1,0-1.6-0.8-1.6-1.8c0-1,0.6-1.7,1.6-1.7
				C23.1,71.1,23.6,71.8,23.6,72.8"/>
			<path id="path36_1_" class="st3" d="M27.1,74.5h-0.4v-2.9h-1.2l-0.1,1.9c0,0.7-0.3,1.1-0.8,1.1c-0.1,0-0.2,0-0.3-0.1v-0.4
				c0.1,0,0.2,0,0.2,0c0.2,0,0.4-0.1,0.4-1l0.1-2h2.1L27.1,74.5"/>
			<path id="path38_1_" class="st3" d="M28.5,72.8c0,0.8,0.4,1.4,1.1,1.4c0.7,0,1.1-0.5,1.1-1.4c0-0.8-0.4-1.3-1.1-1.3
				C28.9,71.5,28.5,72.1,28.5,72.8z M31.2,72.8c0,1-0.5,1.8-1.6,1.8c-1.1,0-1.6-0.8-1.6-1.8c0-1,0.6-1.7,1.6-1.7
				C30.7,71.1,31.2,71.8,31.2,72.8"/>
			<path id="path40_1_" class="st3" d="M32.7,74.1h0.9c0.4,0,0.9,0,0.9-0.6c0-0.6-0.5-0.6-0.9-0.6h-0.8V74.1z M32.7,72.6h0.8
				c0.4,0,0.8,0,0.8-0.5c0-0.5-0.4-0.5-0.8-0.5h-0.8L32.7,72.6z M33.7,71.2c0.5,0,1.1,0.2,1.1,0.8c0,0.3-0.2,0.6-0.5,0.7
				c0.4,0.1,0.6,0.4,0.6,0.8c0,0.8-0.6,0.9-1.3,0.9h-1.4v-3.3H33.7"/>
			<path id="path42_1_" class="st3" d="M38.5,74.5h-0.4V73h-1.7v1.5h-0.4v-3.3h0.4v1.4h1.7v-1.4h0.4V74.5"/>
			<path id="path44_1_" class="st3" d="M41,71.6l-0.6,1.5h1.1L41,71.6z M42.5,74.5H42l-0.4-1h-1.4l-0.4,1h-0.5l1.3-3.3h0.5
				L42.5,74.5"/>
			<path id="path46_1_" class="st3" d="M47.9,74.5h-0.4v-2.9h-1.7v2.9h-0.4v-3.3h2.6L47.9,74.5"/>
			<path id="path48_1_" class="st3" d="M49.3,72.8c0,0.8,0.4,1.4,1.1,1.4c0.7,0,1.1-0.5,1.1-1.4c0-0.8-0.4-1.3-1.1-1.3
				C49.7,71.5,49.3,72.1,49.3,72.8z M52.1,72.8c0,1-0.5,1.8-1.6,1.8c-1.1,0-1.6-0.8-1.6-1.8c0-1,0.6-1.7,1.6-1.7
				C51.5,71.1,52.1,71.8,52.1,72.8"/>
			<path id="path50_1_" class="st3" d="M53.1,71.2h0.4v2.9H55v-2.9h0.4v2.9h1.5v-2.9h0.4v3.3h-4.2L53.1,71.2"/>
			<path id="path52_1_" class="st3" d="M60.9,71.6h-1.1v2.9h-0.4v-2.9h-1.1v-0.4h2.6V71.6"/>
			<path id="path54_1_" class="st3" d="M62.6,71.6L62,73.1h1.1L62.6,71.6z M64.1,74.5h-0.5l-0.4-1h-1.4l-0.4,1H61l1.3-3.3h0.5
				L64.1,74.5"/>
			<path id="path56_1_" class="st3" d="M68.2,72.5l1.4,2H69l-1.2-1.7l-0.5,0.5v1.2h-0.4v-3.3h0.4v1.6l1.7-1.6h0.6L68.2,72.5"/>
			<path id="path58_1_" class="st3" d="M71,72.8h0.8c0.4,0,0.7-0.1,0.7-0.6c0-0.5-0.4-0.6-0.8-0.6H71V72.8z M71.9,71.2
				c0.6,0,1.1,0.3,1.1,0.9c0,0.7-0.5,1-1.1,1H71v1.4h-0.4v-3.3H71.9"/>
			<path id="path60_1_" class="st3" d="M74.9,71.6l-0.6,1.5h1.1L74.9,71.6z M76.4,74.5H76l-0.4-1h-1.4l-0.4,1h-0.5l1.3-3.3h0.5
				L76.4,74.5"/>
			<path id="path62_1_" class="st3" d="M78.2,70.9h-0.4v-0.5h0.4V70.9z M77.8,74.5h-0.4v-3.3h0.4V74.5z M77.3,70.9h-0.4v-0.5h0.4
				V70.9"/>
			<path id="path64_1_" class="st3" d="M81.6,74.5h-0.4V73h-1.7v1.5H79v-3.3h0.4v1.4h1.7v-1.4h0.4V74.5"/>
			<path id="path66_1_" class="st3" d="M82.8,71.2h0.4V74h0l1.6-2.8h0.6v3.3H85v-2.8h0l-1.6,2.8h-0.5V71.2"/>
		</g>
	</g>
</g>
</svg>
