<?xml version="1.0" encoding="utf-8"?>
<!-- Generator: Adobe Illustrator 22.0.1, SVG Export Plug-In . SVG Version: 6.00 Build 0)  -->
<svg version="1.1" id="Слой_1" xmlns="http://www.w3.org/2000/svg" xmlns:xlink="http://www.w3.org/1999/xlink" x="0px" y="0px"
	 width="102px" height="102px" viewBox="0 0 102 102" style="enable-background:new 0 0 102 102;" xml:space="preserve">
<style type="text/css">
	.st0{fill:#EAF6FE;}
	.st1{fill:#1B9DD9;}
</style>
<g>
	<circle class="st0" cx="51" cy="51" r="51"/>
	<g>
		<path class="st1" d="M57.5,41.5l-4.1-0.6l-1.8-3.7c-0.1-0.2-0.4-0.4-0.7-0.4c-0.3,0-0.5,0.2-0.7,0.4l-1.8,3.7l-4.1,0.6
			c-0.3,0-0.5,0.2-0.6,0.5c-0.1,0.3,0,0.6,0.2,0.7l2.9,2.9l-0.7,4c0,0.3,0.1,0.6,0.3,0.7c0.2,0.2,0.5,0.2,0.8,0.1l3.6-1.9l3.6,1.9
			c0.2,0.1,0.5,0.1,0.8-0.1c0.2-0.2,0.3-0.4,0.3-0.7l-0.7-4l2.9-2.9c0.2-0.2,0.3-0.5,0.2-0.7C58,41.7,57.8,41.5,57.5,41.5z
			 M53.7,44.8c-0.2,0.2-0.3,0.4-0.2,0.6l0.5,3L51.3,47c-0.2-0.1-0.5-0.1-0.7,0L48,48.4l0.5-3c0-0.2,0-0.5-0.2-0.6l-2.2-2.1l3-0.4
			c0.2,0,0.4-0.2,0.6-0.4l1.3-2.7l1.3,2.7c0.1,0.2,0.3,0.4,0.6,0.4l3,0.4L53.7,44.8z"/>
		<path class="st1" d="M51,29.4c-7.9,0-14.3,6.4-14.3,14.3c0,4.6,2.2,8.7,5.6,11.3v16.9c0,0.3,0.2,0.6,0.4,0.7
			c0.3,0.1,0.6,0.1,0.8-0.1l7.5-7.1l7.5,7.1c0.1,0.1,0.3,0.2,0.5,0.2c0.1,0,0.2,0,0.3-0.1c0.3-0.1,0.4-0.4,0.4-0.7V55
			c3.4-2.6,5.6-6.7,5.6-11.3C65.3,35.8,58.9,29.4,51,29.4z M58.2,70.2l-6.7-6.4c-0.3-0.3-0.7-0.3-1,0l-6.7,6.4V56
			c4.5,2.6,10,2.6,14.4,0V70.2z M51,56.5c-7.1,0-12.8-5.8-12.8-12.8S43.9,30.8,51,30.8s12.8,5.8,12.8,12.8S58.1,56.5,51,56.5z"/>
	</g>
</g>
</svg>
