<?xml version="1.0" encoding="utf-8"?>
<!-- Generator: Adobe Illustrator 22.0.1, SVG Export Plug-In . SVG Version: 6.00 Build 0)  -->
<svg version="1.1" id="Слой_1" xmlns="http://www.w3.org/2000/svg" xmlns:xlink="http://www.w3.org/1999/xlink" x="0px" y="0px"
	 width="102px" height="102px" viewBox="0 0 102 102" style="enable-background:new 0 0 102 102;" xml:space="preserve">
<style type="text/css">
	.st0{fill:#EAF6FE;}
	.st1{fill:#1B9DD9;}
</style>
<g>
	<circle class="st0" cx="51" cy="51" r="51"/>
	<g>
		<path class="st1" d="M62.9,35.8L42.7,66.7h-3.6l20.1-30.8H62.9z M51.2,42c0,0.9-0.1,1.8-0.4,2.6c-0.3,0.8-0.7,1.5-1.2,2.1
			c-0.5,0.6-1.1,1.1-1.9,1.4c-0.7,0.3-1.6,0.5-2.5,0.5c-0.9,0-1.7-0.1-2.4-0.4c-0.7-0.3-1.3-0.7-1.8-1.2c-0.5-0.5-0.9-1.2-1.2-2
			c-0.3-0.8-0.4-1.7-0.4-2.8c0-0.9,0.1-1.8,0.4-2.6c0.3-0.8,0.7-1.5,1.2-2.1c0.5-0.6,1.1-1.1,1.9-1.4c0.7-0.3,1.6-0.5,2.5-0.5
			c0.9,0,1.7,0.1,2.4,0.4c0.7,0.3,1.3,0.7,1.8,1.2c0.5,0.5,0.9,1.2,1.2,2C51.1,40,51.2,40.9,51.2,42z M48,42.1
			c0-1.3-0.2-2.2-0.7-2.8c-0.5-0.6-1.1-0.9-1.9-0.9c-0.4,0-0.8,0.1-1.1,0.3c-0.3,0.2-0.6,0.5-0.8,0.8c-0.2,0.3-0.4,0.7-0.5,1.2
			c-0.1,0.5-0.2,1-0.2,1.5c0,1.3,0.2,2.2,0.7,2.8c0.5,0.6,1.1,0.9,1.9,0.9c0.4,0,0.8-0.1,1.1-0.3c0.3-0.2,0.6-0.5,0.8-0.8
			c0.2-0.3,0.4-0.7,0.5-1.2C48,43.1,48,42.6,48,42.1z M62.5,60.4c0,0.9-0.1,1.8-0.4,2.6c-0.3,0.8-0.7,1.5-1.2,2.1
			c-0.5,0.6-1.1,1.1-1.9,1.4c-0.7,0.3-1.6,0.5-2.5,0.5c-0.9,0-1.7-0.1-2.4-0.4c-0.7-0.3-1.3-0.7-1.8-1.2c-0.5-0.5-0.9-1.2-1.2-2
			c-0.3-0.8-0.4-1.7-0.4-2.8c0-0.9,0.1-1.8,0.4-2.6c0.3-0.8,0.7-1.5,1.2-2.1c0.5-0.6,1.1-1.1,1.9-1.4c0.7-0.3,1.6-0.5,2.5-0.5
			c0.9,0,1.7,0.1,2.4,0.4c0.7,0.3,1.3,0.7,1.8,1.2c0.5,0.5,0.9,1.2,1.2,2C62.4,58.4,62.5,59.3,62.5,60.4z M59.3,60.5
			c0-1.3-0.2-2.2-0.7-2.8c-0.5-0.6-1.1-0.9-2-0.9c-0.4,0-0.8,0.1-1.1,0.3c-0.3,0.2-0.6,0.5-0.8,0.8c-0.2,0.3-0.4,0.7-0.5,1.2
			c-0.1,0.5-0.2,1-0.2,1.5c0,1.3,0.2,2.2,0.7,2.8c0.5,0.6,1.1,0.9,1.9,0.9c0.4,0,0.8-0.1,1.1-0.3c0.3-0.2,0.6-0.5,0.8-0.8
			c0.2-0.3,0.4-0.7,0.5-1.2C59.2,61.5,59.3,61,59.3,60.5z"/>
	</g>
</g>
</svg>
