<?xml version="1.0" encoding="utf-8"?>
<!-- Generator: Adobe Illustrator 22.0.1, SVG Export Plug-In . SVG Version: 6.00 Build 0)  -->
<svg version="1.1" id="Слой_1" xmlns="http://www.w3.org/2000/svg" xmlns:xlink="http://www.w3.org/1999/xlink" x="0px" y="0px"
	 width="14px" height="14px" viewBox="0 0 14 14" style="enable-background:new 0 0 14 14;" xml:space="preserve">
<g>
	<path d="M13.8,13l-3.4-3.4c0.8-1,1.3-2.3,1.3-3.7C11.7,2.6,9.1,0,5.8,0C2.6,0,0,2.6,0,5.9s2.6,5.9,5.9,5.9c1.4,0,2.7-0.5,3.7-1.3
		l3.4,3.4c0.2,0.2,0.6,0.2,0.8,0C14.1,13.6,14.1,13.2,13.8,13z M5.9,10.6c-2.6,0-4.7-2.1-4.7-4.7s2.1-4.7,4.7-4.7s4.7,2.1,4.7,4.7
		S8.5,10.6,5.9,10.6z"/>
</g>
</svg>
