<?xml version="1.0" encoding="utf-8"?>
<!-- Generator: Adobe Illustrator 22.0.1, SVG Export Plug-In . SVG Version: 6.00 Build 0)  -->
<svg version="1.1" id="Слой_1" xmlns="http://www.w3.org/2000/svg" xmlns:xlink="http://www.w3.org/1999/xlink" x="0px" y="0px"
	 width="14px" height="14px" viewBox="0 0 14 14" style="enable-background:new 0 0 14 14;" xml:space="preserve">
<style type="text/css">
	.st0{fill:#009FE3;}
</style>
<g>
	<path d="M689.6,608.9L347.4,266.7C428,166,478.3,35.2,478.3-105.7c0-332.1-261.7-593.8-593.8-593.8
		c-322.1,0-583.7,261.7-583.7,593.8s261.7,593.8,593.8,593.8c140.9,0,271.7-50.3,372.4-130.8l342.2,342.2
		c20.1,20.1,60.4,20.1,80.5,0C719.8,669.2,719.8,629,689.6,608.9z M-105.5,367.3c-261.7,0-473-211.3-473-473s211.3-473,473-473
		c261.7,0,473,211.3,473,473S156.2,367.3-105.5,367.3z"/>
</g>
<g>
	<path class="st0" d="M13.8,13l-3.4-3.4c0.8-1,1.3-2.3,1.3-3.7C11.7,2.6,9.1,0,5.8,0C2.6,0,0,2.6,0,5.9s2.6,5.9,5.9,5.9
		c1.4,0,2.7-0.5,3.7-1.3l3.4,3.4c0.2,0.2,0.6,0.2,0.8,0C14.1,13.6,14.1,13.2,13.8,13z M5.9,10.6c-2.6,0-4.7-2.1-4.7-4.7
		s2.1-4.7,4.7-4.7c2.6,0,4.7,2.1,4.7,4.7S8.5,10.6,5.9,10.6z"/>
</g>
</svg>
