<?xml version="1.0" encoding="utf-8"?>
<!-- Generator: Adobe Illustrator 22.0.1, SVG Export Plug-In . SVG Version: 6.00 Build 0)  -->
<svg version="1.1" id="Слой_1" xmlns="http://www.w3.org/2000/svg" xmlns:xlink="http://www.w3.org/1999/xlink" x="0px" y="0px"
	 width="1920px" height="1080px" viewBox="0 0 1920 1080" style="enable-background:new 0 0 1920 1080;" xml:space="preserve">
<style type="text/css">
	.st0{fill:#009FE3;}
	.st1{fill:#E30613;}
	.st2{fill:none;}
	.st3{fill:#4C4C4C;}
	.st4{fill:#CCCCCC;}
	.st5{fill:#FFFFFF;}
	.st6{fill:#00579F;}
	.st7{fill:#FAA61A;}
	.st8{fill:#FF9800;}
	.st9{fill:#D50000;}
	.st10{fill:#FF3D00;}
	.st11{fill:#808080;}
	.st12{fill:#FABC26;}
	.st13{fill:#2C2E2C;}
	.st14{fill:#617171;}
	.st15{fill:#ED1C24;}
	.st16{fill:#1D1D1B;}
	.st17{fill:#A0A0A0;}
	.st18{fill:#3AAA35;}
	.st19{fill:#666666;}
	.st20{fill:#7AB72B;}
	.st21{fill:#62B12F;}
</style>
<g>
	<path d="M5,7C3.8,7,2.8,6,2.8,4.9s1-2.1,2.2-2.1s2.2,1,2.2,2.1S6.2,7,5,7z M5,3.8c-0.6,0-1,0.5-1,1.1s0.4,1,1,1s1.1-0.5,1.1-1.1
		S5.6,3.8,5,3.8z"/>
	<path d="M5,14L1,8.3c-1.5-1.9-1.3-5.1,0.5-6.8C2.4,0.5,3.7,0,5,0s2.6,0.5,3.5,1.4l0,0l0,0c1.7,1.7,2,4.9,0.5,6.9L5,14z M5,1.1
		c-1,0-2,0.4-2.8,1.1C0.9,3.5,0.7,6.1,1.9,7.7L5,12.1l3.1-4.4c1.2-1.5,1-4.1-0.4-5.5l0,0C7,1.5,6,1.1,5,1.1z"/>
</g>
<g>
	<path d="M23.9,14c-0.6,0-1.3-0.1-2.1-0.4c-1.6-0.6-3.4-1.8-5-3.4s-2.8-3.3-3.4-5c-0.6-1.7-0.6-3,0.1-3.7c0.1-0.1,0.1-0.2,0.2-0.2
		C14.3,0.7,15,0,16,0c0.7,0,1.3,0.4,1.9,1.2c1.7,2.1,1,3,0,4l0,0C18,5.4,18.2,6,19.6,7.4c0.7,0.7,1.3,1.2,1.7,1.5
		c0.2,0.2,0.4,0.2,0.5,0.3l0,0c1-1,1.9-1.7,4,0C26.6,9.7,27,10.3,27,11c0,1-0.7,1.7-1.2,2.2l-0.2,0.2C25.2,13.8,24.6,14,23.9,14z
		 M15.9,1.1c-0.5,0-0.9,0.5-1.3,0.9c-0.1,0.1-0.2,0.2-0.2,0.3c-0.3,0.3-0.4,1.2,0.1,2.5c0.6,1.5,1.7,3.1,3.1,4.6
		c1.5,1.5,3.1,2.6,4.6,3.1c1.1,0.4,2.2,0.5,2.5,0.1c0.1-0.1,0.1-0.1,0.2-0.2c0.5-0.5,0.9-0.9,0.9-1.4c0-0.3-0.3-0.7-0.7-1.1
		c-1.4-1.2-1.8-0.8-2.5-0.1L22.5,10c-0.4,0.4-1,0.3-1.8-0.2c-0.5-0.3-1.2-0.9-1.9-1.6C17.6,7,16.1,5.3,17,4.5l0.1-0.1
		c0.7-0.7,1.1-1.1-0.1-2.5C16.6,1.4,16.3,1.1,15.9,1.1L15.9,1.1z"/>
</g>
<g>
	<path class="st0" d="M298.1,27.8c-0.6,0-1.4-0.1-2.2-0.4c-1.7-0.6-3.6-1.8-5.3-3.4c-1.7-1.6-3-3.3-3.6-5s-0.6-3,0.1-3.7
		c0.1-0.1,0.1-0.2,0.2-0.2c0.6-0.6,1.4-1.3,2.5-1.3c0.7,0,1.4,0.4,2,1.2c1.8,2.1,1.1,3,0,4l0,0c0.1,0.2,0.3,0.8,1.8,2.2
		c0.7,0.7,1.4,1.2,1.8,1.5c0.2,0.2,0.4,0.2,0.5,0.3l0,0c1.1-1,2-1.7,4.3,0c0.9,0.5,1.3,1.1,1.3,1.8c0,1-0.7,1.7-1.3,2.2l-0.2,0.2
		C299.5,27.6,298.8,27.8,298.1,27.8z M289.5,14.9c-0.5,0-1,0.5-1.4,0.9c-0.1,0.1-0.2,0.2-0.2,0.3c-0.3,0.3-0.4,1.2,0.1,2.5
		c0.6,1.5,1.8,3.1,3.3,4.6c1.6,1.5,3.3,2.6,4.9,3.1c1.2,0.4,2.4,0.5,2.7,0.1c0.1-0.1,0.1-0.1,0.2-0.2c0.5-0.5,1-0.9,1-1.4
		c0-0.3-0.3-0.7-0.7-1.1c-1.5-1.2-1.9-0.8-2.7-0.1l-0.1,0.2c-0.4,0.4-1.1,0.3-1.9-0.2c-0.5-0.3-1.3-0.9-2-1.6
		c-1.3-1.2-2.9-2.9-1.9-3.7l0.1-0.1c0.7-0.7,1.2-1.1-0.1-2.5C290.3,15.2,290,14.9,289.5,14.9L289.5,14.9z"/>
</g>
<g>
	<rect x="30" width="8" height="1"/>
	<rect x="30" y="3" width="8" height="1"/>
	<rect x="30" y="6" width="8" height="1"/>
</g>
<polygon class="st0" points="8,25 5.1,27.9 4.4,27.2 6.6,25 0,25 0,24 6.6,24 4.4,21.8 5.1,21.1 8,24 "/>
<g>
	<path d="M54.8,13l-3.4-3.4c0.8-1,1.3-2.3,1.3-3.7c0-3.3-2.6-5.9-5.9-5.9C43.6,0,41,2.6,41,5.9s2.6,5.9,5.9,5.9
		c1.4,0,2.7-0.5,3.7-1.3l3.4,3.4c0.2,0.2,0.6,0.2,0.8,0C55.1,13.6,55.1,13.2,54.8,13z M46.9,10.6c-2.6,0-4.7-2.1-4.7-4.7
		s2.1-4.7,4.7-4.7c2.6,0,4.7,2.1,4.7,4.7S49.5,10.6,46.9,10.6z"/>
</g>
<g>
	<path d="M24.6,65.2l-6.1-6c1.4-1.8,2.3-4.1,2.3-6.6c0-5.9-4.6-10.5-10.5-10.5C4.6,42.1,0,46.7,0,52.5S4.6,63,10.5,63
		c2.5,0,4.8-0.9,6.6-2.3l6.1,6c0.4,0.4,1.1,0.4,1.4,0C25.1,66.2,25.1,65.5,24.6,65.2z M10.5,60.9c-4.6,0-8.4-3.7-8.4-8.4
		s3.7-8.4,8.4-8.4c4.6,0,8.4,3.7,8.4,8.4S15.2,60.9,10.5,60.9z"/>
</g>
<g>
	<path class="st0" d="M24.8,34l-3.4-3.4c0.8-1,1.3-2.3,1.3-3.7c0-3.3-2.6-5.9-5.9-5.9s-5.9,2.6-5.9,5.9s2.6,5.9,5.9,5.9
		c1.4,0,2.7-0.5,3.7-1.3l3.4,3.4c0.2,0.2,0.6,0.2,0.8,0C25.1,34.6,25.1,34.2,24.8,34z M16.9,31.6c-2.6,0-4.7-2.1-4.7-4.7
		s2.1-4.7,4.7-4.7s4.7,2.1,4.7,4.7S19.5,31.6,16.9,31.6z"/>
</g>
<path d="M65.5,14c-0.2,0-0.5-0.1-0.7-0.2l-0.3-0.2c-0.4-0.2-0.7-0.5-1.1-0.7c-1.8-1.4-3.2-2.9-4.2-4.6c-0.6-0.9-0.9-1.9-1.1-2.8
	C57.9,4.3,58.2,3,58.9,2s1.8-1.7,2.9-1.9c1.4-0.2,2.7,0.1,3.7,1.1c0.4-0.3,0.8-0.6,1.3-0.8c1.3-0.5,2.8-0.4,4,0.3s2,2,2.2,3.4
	c0.1,1-0.1,2-0.5,3c-0.5,1.2-1.3,2.3-2.4,3.5s-2.2,2.2-3.3,2.9c-0.1,0.1-0.3,0.2-0.4,0.2l-0.2,0.1C66,13.9,65.7,14,65.5,14z
	 M62.6,1.2c-0.2,0-0.4,0-0.6,0c-0.8,0.1-1.6,0.6-2.2,1.4c-0.5,0.8-0.7,1.7-0.6,2.6c0.2,0.8,0.5,1.6,1,2.4c1,1.6,2.3,3,3.9,4.3
	c0.3,0.2,0.6,0.5,1,0.7l0.3,0.2c0,0,0.1,0.1,0.2,0l0.2-0.1c0.1-0.1,0.2-0.1,0.3-0.2c1.1-0.7,2.1-1.6,3.1-2.7s1.7-2.1,2.2-3.2
	c0.4-0.9,0.5-1.7,0.5-2.4l0,0c-0.1-1.1-0.7-2-1.6-2.5s-2-0.6-3-0.2C66.8,1.7,66.4,2,66,2.4l-0.3,0.3l-0.4-0.2c0,0-0.1-0.1-0.2-0.1
	L65,2.3C64.3,1.5,63.5,1.2,62.6,1.2z"/>
<path class="st1" d="M33.3,35c-0.2,0-0.5-0.1-0.7-0.2l-0.3-0.2c-0.4-0.2-0.7-0.5-1.1-0.7C29.4,32.5,28,31,27,29.3
	c-0.6-0.9-0.9-1.9-1.1-2.8C25.7,25.3,26,24,26.7,23s1.8-1.7,2.9-1.9c1.4-0.2,2.7,0.1,3.7,1.1c0.4-0.3,0.8-0.6,1.3-0.8
	c1.3-0.5,2.8-0.4,4,0.3s2,2,2.2,3.4c0.1,1-0.1,2-0.5,3c-0.5,1.2-1.3,2.3-2.4,3.5c-1.1,1.2-2.2,2.2-3.3,2.9c-0.1,0.1-0.3,0.2-0.4,0.2
	L34,34.8C33.8,34.9,33.5,35,33.3,35z M30.4,22.2c-0.2,0-0.4,0-0.6,0c-0.8,0.1-1.6,0.6-2.2,1.4c-0.5,0.8-0.7,1.7-0.6,2.6
	c0.2,0.8,0.5,1.6,1,2.4c1,1.6,2.3,3,3.9,4.3c0.3,0.2,0.6,0.5,1,0.7l0.3,0.2c0,0,0.1,0.1,0.2,0l0.2-0.1c0.1-0.1,0.2-0.1,0.3-0.2
	c1.1-0.7,2.1-1.6,3.1-2.7s1.7-2.1,2.2-3.2c0.4-0.9,0.5-1.7,0.5-2.4l0,0c-0.1-1.1-0.7-2-1.6-2.5c-0.9-0.5-2-0.6-3-0.2
	c-0.5,0.2-0.9,0.5-1.3,0.9l-0.3,0.3l-0.4-0.2c0,0-0.1-0.1-0.2-0.1l-0.1-0.1C32.1,22.5,31.3,22.2,30.4,22.2z"/>
<path class="st1" d="M195.4,68.3c-0.2,0-0.5-0.1-0.7-0.2l-0.3-0.2c-0.4-0.2-0.7-0.5-1.1-0.7c-1.8-1.4-3.2-2.9-4.2-4.6
	c-0.6-0.9-0.9-1.9-1.1-2.8c-0.2-1.2,0.1-2.5,0.8-3.5s1.8-1.7,2.9-1.9c1.4-0.2,2.7,0.1,3.7,1.1c0.4-0.3,0.8-0.6,1.3-0.8
	c1.3-0.5,2.8-0.4,4,0.3s2,2,2.2,3.4c0.1,1-0.1,2-0.5,3c-0.5,1.2-1.3,2.3-2.4,3.5c-1.1,1.2-2.2,2.2-3.3,2.9c-0.1,0.1-0.3,0.2-0.4,0.2
	l-0.2,0.1C195.9,68.2,195.6,68.3,195.4,68.3z"/>
<path d="M92,17.3L91,5c0-0.3-0.3-0.5-0.6-0.5h-1.8C88.6,2,86.5,0,84,0s-4.6,2-4.6,4.5h-1.8C77.2,4.5,77,4.7,77,5l-1,12.4
	c0,0.2,0,0.3,0.2,0.4c0.1,0.1,0.3,0.2,0.4,0.2h14.8l0,0C91.7,18,92,17.7,92,17.3L92,17.3z M84,1.1c1.9,0,3.5,1.5,3.5,3.4h-6.9
	C80.5,2.6,82.1,1.1,84,1.1z M77.2,16.9l0.9-11.3h1.3v1.1c0,0.3,0.3,0.6,0.6,0.6c0.3,0,0.6-0.3,0.6-0.6V5.6h6.9v1.1
	c0,0.3,0.3,0.6,0.6,0.6c0.3,0,0.6-0.3,0.6-0.6V5.6H90l0.9,11.3H77.2z"/>
<path class="st0" d="M59.8,38.3l-1-12.3c0-0.3-0.3-0.5-0.6-0.5h-1.8c0-2.5-2.1-4.5-4.6-4.5s-4.6,2-4.6,4.5h-1.8
	c-0.3,0-0.6,0.2-0.6,0.5l-1,12.4c0,0.2,0,0.3,0.2,0.4c0.1,0.1,0.3,0.2,0.4,0.2h14.8l0,0c0.3,0,0.6-0.3,0.6-0.6
	C59.8,38.4,59.8,38.3,59.8,38.3z M51.8,22.1c1.9,0,3.5,1.5,3.5,3.4h-6.9C48.3,23.6,49.9,22.1,51.8,22.1z M45,37.9l0.9-11.3h1.3v1.1
	c0,0.3,0.3,0.6,0.6,0.6s0.6-0.3,0.6-0.6v-1.1h6.9v1.1c0,0.3,0.3,0.6,0.6,0.6s0.6-0.3,0.6-0.6v-1.1h1.3l0.9,11.3H45z"/>
<path d="M103.3,9.3c1.6-0.8,2.6-2.5,2.6-4.3c0-2.7-2.2-5-4.9-5c-2.7,0-4.9,2.2-4.9,5c0,1.9,1.1,3.5,2.6,4.3c-2.2,0.9-3.7,3-3.7,5.5
	V17h1v-2.2c0-2.7,2.2-5,5-5c2.7,0,5,2.2,5,5V17h1v-2.2C107,12.4,105.5,10.2,103.3,9.3z M97.1,5c0-2.1,1.8-4,3.9-4s3.9,1.8,3.9,4
	c0,2.1-1.7,3.9-3.9,3.9C98.9,8.9,97.1,7.1,97.1,5z"/>
<path d="M312.6,8.2c1.5-0.7,2.4-2.2,2.4-3.8c0-2.4-2-4.4-4.5-4.4S306,1.9,306,4.4c0,1.7,1,3.1,2.4,3.8c-2,0.8-3.4,2.6-3.4,4.9V15
	h1.3v-1.9c0-2.4,2-4.3,4.6-4.2c2.3,0.1,3.5,1.7,3.8,4.2V15h1.3v-1.9C316,10.9,314.6,9,312.6,8.2z M307.3,4.4c0-1.7,1.5-3.2,3.2-3.2
	s3.2,1.4,3.2,3.2c0,1.7-1.4,3.1-3.2,3.1C308.8,7.5,307.3,6.1,307.3,4.4z"/>
<path class="st0" d="M71.1,30.3c1.6-0.8,2.6-2.5,2.6-4.3c0-2.7-2.2-5-4.9-5c-2.7,0-4.9,2.2-4.9,5c0,1.9,1.1,3.5,2.6,4.3
	c-2.2,0.9-3.7,3-3.7,5.5V38h1v-2.2c0-2.7,2.2-5,5-5c2.7,0,5,2.2,5,5V38h1v-2.2C74.8,33.4,73.3,31.2,71.1,30.3z M64.9,26
	c0-2.1,1.8-4,3.9-4s3.9,1.8,3.9,4c0,2.1-1.7,3.9-3.9,3.9C66.7,29.9,64.9,28.1,64.9,26z"/>
<g>
	<rect x="110" width="19" height="2"/>
	<rect x="110" y="6" width="16" height="2"/>
	<rect x="110" y="12" width="13" height="2"/>
</g>
<g>
	<rect x="77.8" y="21" class="st0" width="19" height="2"/>
	<rect x="77.8" y="27" class="st0" width="16" height="2"/>
	<rect x="77.8" y="33" class="st0" width="13" height="2"/>
</g>
<polygon points="39.3,43.5 37.9,42.1 33.7,46.3 29.4,42.1 28,43.5 32.2,47.7 28,51.9 29.4,53.4 33.7,49.1 37.9,53.4 39.3,51.9 
	35.1,47.7 "/>
<polygon points="36,57.4 35,56.4 32,59.4 29,56.4 28,57.4 31,60.4 28,63.4 29,64.4 32,61.4 35,64.4 36,63.4 33,60.4 "/>
<g>
	<g id="Pencil">
		<g>
			<path d="M73.6,42.8c-0.5-0.5-1.1-0.7-1.7-0.7s-1.2,0.2-1.7,0.7L63,49.9L62.9,50l-1.6,4.5c-0.1,0.1,0,0.3,0.1,0.4
				c0.1,0.1,0.2,0.1,0.3,0.1h0.1l4-1.2c0.1,0,0.1-0.1,0.2-0.1l7.6-7.6c0.5-0.5,0.7-1.1,0.7-1.7C74.3,43.9,74.1,43.3,73.6,42.8z
				 M65.4,53.1l-1.5,0.5c-0.1-0.3-0.2-0.5-0.4-0.7s-0.4-0.3-0.6-0.4l0.7-1.9h0.9v0.8c0,0.2,0.2,0.4,0.4,0.4h0.7L65.4,53.1z
				 M71.4,47.2l-4.9,4.9l0.1-0.7c0-0.1,0-0.2-0.1-0.3s-0.2-0.2-0.3-0.2h-0.8v-0.8c0-0.2-0.2-0.4-0.4-0.4h-0.6l4.8-4.8l0,0
				c0.3-0.3,0.7-0.5,1.1-0.5s0.8,0.2,1.1,0.5c0.3,0.3,0.5,0.7,0.5,1.1S71.7,46.9,71.4,47.2z M73,45.6L72.6,46c0-0.6-0.3-1.1-0.7-1.5
				c-0.4-0.4-1-0.7-1.5-0.7l0.4-0.4l0,0c0.3-0.3,0.7-0.5,1.1-0.5s0.8,0.2,1.1,0.5c0.3,0.3,0.5,0.7,0.5,1.1
				C73.5,44.9,73.3,45.3,73,45.6z M70.4,45.5l-4.1,4.1c-0.2,0.2-0.2,0.4,0,0.6c0.1,0.1,0.2,0.1,0.3,0.1s0.2,0,0.3-0.1l4.1-4.1
				c0.2-0.2,0.2-0.4,0-0.6C70.8,45.3,70.5,45.3,70.4,45.5z"/>
		</g>
	</g>
</g>
<g>
	<g id="Pencil_2_">
		<g>
			<path d="M216.3,54.9c-0.4-0.4-0.9-0.6-1.4-0.6s-1,0.2-1.4,0.6l-6.1,6.1l-0.1,0.1l-1.3,3.8c-0.1,0.1,0,0.3,0.1,0.3
				c0.1,0.1,0.2,0.1,0.3,0.1h0.1l3.4-1c0.1,0,0.1-0.1,0.2-0.1l6.4-6.5c0.4-0.4,0.6-0.9,0.6-1.4C216.9,55.9,216.8,55.4,216.3,54.9z
				 M209.4,63.7l-1.3,0.4c-0.1-0.3-0.2-0.4-0.3-0.6c-0.2-0.2-0.3-0.3-0.5-0.3l0.6-1.6h0.8v0.7c0,0.2,0.2,0.3,0.3,0.3h0.6L209.4,63.7
				z M214.5,58.7l-4.1,4.2l0.1-0.6c0-0.1,0-0.2-0.1-0.3s-0.2-0.2-0.3-0.2h-0.7v-0.7c0-0.2-0.2-0.3-0.3-0.3h-0.5l4-4.1l0,0
				c0.3-0.3,0.6-0.4,0.9-0.4s0.7,0.2,0.9,0.4s0.4,0.6,0.4,0.9S214.7,58.4,214.5,58.7z M215.8,57.3l-0.3,0.3c0-0.5-0.3-0.9-0.6-1.3
				c-0.3-0.3-0.8-0.6-1.3-0.6l0.3-0.3l0,0c0.3-0.3,0.6-0.4,0.9-0.4s0.7,0.2,0.9,0.4s0.4,0.6,0.4,0.9
				C216.3,56.7,216.1,57.1,215.8,57.3z M213.6,57.2l-3.5,3.5c-0.2,0.2-0.2,0.3,0,0.5c0.1,0.1,0.2,0.1,0.3,0.1s0.2,0,0.3-0.1l3.5-3.5
				c0.2-0.2,0.2-0.3,0-0.5C214,57.1,213.7,57.1,213.6,57.2z"/>
		</g>
	</g>
</g>
<path d="M124.9,48.9v5.7H122c0-0.8,0-3.6,0-3.6c0-0.5-0.3-0.8-0.8-0.8h-2.4c-0.5,0-0.8,0.3-0.8,0.8v2.8h1v-2.6h2v3.4h-6.1v-7.9l5-4
	l5.1,4.1l0.6-0.8l-5.2-4.2c-0.1-0.1-0.3-0.2-0.6-0.2l0,0c-0.2,0-0.4,0.1-0.5,0.2l-5.2,4.2c-0.2,0.2-0.2,0.5-0.2,0.6v8.2
	c0,0.5,0.3,0.8,0.8,0.8h10.4c0.5,0,0.8-0.3,0.8-0.8v-5.9H124.9z"/>
<g>
	<path class="st2" d="M105.8,24.2c0-1.2-1-2.2-2.1-2.2s-2.1,1-2.1,2.2s1,2.1,2.1,2.1C104.9,26.4,105.8,25.4,105.8,24.2z"/>
	<path class="st0" d="M105.2,27c1-0.5,1.7-1.6,1.7-2.8c0-1.7-1.4-3.2-3.2-3.2c-1.7,0-3.2,1.4-3.2,3.2c0,1.2,0.7,2.3,1.7,2.8
		c-1.4,0.6-2.4,1.9-2.4,3.6V32h0.6h0.4v-1.2c0-1.6,1.3-2.9,2.9-2.9s2.9,1.3,2.9,2.9V32h0.4h0.6v-1.4C107.6,29,106.6,27.6,105.2,27z
		 M101.6,24.2c0-1.1,1-2.2,2.1-2.2s2.1,1,2.1,2.2c0,1.1-0.9,2.1-2.1,2.1C102.5,26.4,101.6,25.4,101.6,24.2z"/>
</g>
<g>
	<g>
		<path d="M56.3,42.1h-12c-1.1,0-2,0.8-2,1.8v7.5c0,1,0.9,1.8,2,1.8h12.1c1.1,0,2-0.8,2-1.8v-7.5C58.3,42.9,57.4,42.1,56.3,42.1z
			 M57.4,51.3c0,0.5-0.5,1-1.1,1h-12c-0.6,0-1.1-0.4-1.1-1v-7.5c0-0.5,0.5-1,1.1-1h12.1c0.6,0,1.1,0.4,1.1,1L57.4,51.3L57.4,51.3z"
			/>
		<path d="M52.4,47.5l3.9-3.2c0.2-0.2,0.2-0.4,0-0.6c-0.2-0.2-0.4-0.2-0.6,0l-5.4,4.4l-1.1-0.8l0,0c0,0,0,0-0.1-0.1l-4.3-3.5
			c-0.2-0.2-0.5-0.1-0.6,0c-0.2,0.2-0.1,0.4,0,0.6l4,3.2l-3.9,3.3c-0.2,0.2-0.2,0.4,0,0.6c0.1,0.1,0.2,0.1,0.3,0.1s0.2,0,0.3-0.1
			l4-3.4l1.1,1c0.1,0.1,0.2,0.1,0.3,0.1s0.2,0,0.3-0.1l1.1-0.9l4,3.4c0.1,0.1,0.2,0.1,0.3,0.1s0.2,0,0.3-0.1c0.2-0.2,0.2-0.4,0-0.6
			L52.4,47.5z"/>
	</g>
</g>
<g>
	<g>
		<g>
			<path d="M90.2,53.9l-0.9-2.6c0.4-0.9,0.7-1.8,0.7-2.8c0-1.7-0.6-3.3-1.8-4.5c-1.2-1.2-2.8-1.9-4.4-1.9c-0.9,0-1.7,0.1-2.5,0.5
				c-0.8,0.3-1.5,0.8-2.1,1.4c-0.6,0.6-1.1,1.3-1.4,2.1s-0.5,1.7-0.5,2.5c0,1.7,0.7,3.2,1.9,4.4c1.2,1.2,2.8,1.8,4.5,1.8l0,0
				c1,0,1.9-0.2,2.8-0.7l2.6,0.9c0.1,0,0.2,0.1,0.3,0.1c0.2,0,0.5-0.1,0.7-0.3C90.3,54.6,90.4,54.2,90.2,53.9z M89.1,53.9
				c0,0-0.1,0.1-0.2,0L86.3,53h-0.1c-0.1,0-0.1,0-0.2,0c-0.7,0.4-1.6,0.6-2.4,0.6c-2.8,0-5.2-2.3-5.2-5.1c0-1.4,0.5-2.8,1.5-3.8
				s2.4-1.6,3.8-1.5c2.8,0,5.1,2.4,5.1,5.2c0,0.8-0.2,1.7-0.6,2.4c0,0.1-0.1,0.2,0,0.3l0.9,2.6C89.2,53.8,89.1,53.9,89.1,53.9z"/>
		</g>
	</g>
	<g>
		<g>
			<path d="M83.6,51.3c-0.2,0-0.4,0.2-0.4,0.4s0.2,0.4,0.4,0.4c0.2,0,0.4-0.2,0.4-0.4S83.8,51.3,83.6,51.3z"/>
		</g>
	</g>
	<g>
		<g>
			<path d="M83.6,45.3c-1.1,0-1.9,0.9-1.9,1.9c0,0.2,0.2,0.4,0.4,0.4c0.2,0,0.4-0.2,0.4-0.4c0-0.6,0.5-1.1,1.1-1.1s1.1,0.5,1.1,1.1
				s-0.5,1.1-1.1,1.1c-0.2,0-0.4,0.2-0.4,0.4v1.6c0,0.2,0.2,0.4,0.4,0.4c0.2,0,0.4-0.2,0.4-0.4v-1.2c0.9-0.2,1.5-1,1.5-1.9
				C85.5,46.2,84.7,45.3,83.6,45.3z"/>
		</g>
	</g>
</g>
<g>
	<g>
		<path d="M102.4,60.1c-0.3,0-0.6-0.1-0.8-0.3l-1.7-1.6c0,0-0.1-0.1-0.1,0l-2.3,0.1c-0.6,0-1.2-0.4-1.3-1.1l-0.3-2.3
			c0-0.1,0-0.1-0.1-0.1L94,53.3c-0.5-0.4-0.6-1.1-0.3-1.6l1.2-2v-0.1l-0.5-2.3c-0.1-0.6,0.2-1.2,0.8-1.4l2.2-0.7c0,0,0.1,0,0.1-0.1
			l1.1-2.1c0.3-0.6,1-0.8,1.5-0.6l2.2,0.9h0.1l2.2-0.9c0.6-0.2,1.3,0,1.5,0.6l1.1,2.1l0.1,0.1l2.2,0.7c0.6,0.2,1,0.8,0.8,1.4
			l-0.5,2.3v0.1l1.2,2c0.3,0.5,0.2,1.2-0.3,1.6l-1.8,1.5l-0.1,0.1l-0.3,2.3c-0.1,0.6-0.6,1.1-1.3,1.1l-2.3-0.1c-0.1,0-0.1,0-0.1,0
			l-1.7,1.6C103,60,102.7,60.1,102.4,60.1z M99.8,57.1c0.3,0,0.6,0.1,0.8,0.3l1.7,1.6c0.1,0.1,0.2,0.1,0.3,0l1.7-1.6
			c0.2-0.2,0.5-0.3,0.9-0.3l2.3,0.1c0.1,0,0.2-0.1,0.2-0.2l0.3-2.3c0-0.3,0.2-0.6,0.5-0.8l1.8-1.5c0.1-0.1,0.1-0.2,0-0.3l-1.2-2
			c-0.2-0.3-0.2-0.6-0.2-0.9l0.5-2.3c0-0.1,0-0.2-0.1-0.2l-2.2-0.7c-0.3-0.1-0.6-0.3-0.7-0.6l-1.1-2.1c0-0.1-0.2-0.1-0.2-0.1
			l-2.2,0.9c-0.3,0.1-0.6,0.1-0.9,0l-2.2-0.9c-0.1,0-0.2,0-0.2,0.1l-1.1,2.1c-0.2,0.3-0.4,0.5-0.7,0.6l-2.2,0.7
			c-0.1,0-0.2,0.1-0.1,0.2l0.5,2.3c0.1,0.3,0,0.6-0.2,0.9l-1.2,2c-0.1,0.1,0,0.2,0,0.3l1.8,1.5c0.3,0.2,0.4,0.5,0.5,0.8l0.3,2.3
			c0,0.1,0.1,0.2,0.2,0.2L99.8,57.1C99.7,57.1,99.7,57.1,99.8,57.1z"/>
	</g>
	<g>
		<path d="M101.7,48.2c0.2,0.1,0.4,0.3,0.5,0.5s0.2,0.5,0.2,0.7s-0.1,0.5-0.2,0.7s-0.3,0.4-0.5,0.5S101.2,51,101,51
			s-0.5-0.1-0.7-0.2s-0.4-0.3-0.5-0.5s-0.2-0.5-0.2-0.7s0.1-0.5,0.2-0.7s0.3-0.4,0.5-0.5s0.5-0.2,0.7-0.2
			C101.2,48,101.5,48.1,101.7,48.2z M104.4,48c0.1,0,0.2,0,0.3,0.1c0.1,0.1,0.1,0.2,0.1,0.3s0,0.2-0.1,0.2l-3.9,5
			c-0.1,0.1-0.2,0.1-0.3,0.1c-0.1,0-0.2,0-0.3-0.1s-0.1-0.2-0.1-0.3s0-0.2,0.1-0.3l3.8-5C104.2,48.1,104.3,48,104.4,48z M100.5,49
			c-0.1,0.1-0.2,0.3-0.2,0.5s0.1,0.4,0.2,0.5s0.3,0.2,0.5,0.2s0.4-0.1,0.5-0.2s0.2-0.3,0.2-0.5s-0.1-0.4-0.2-0.5s-0.3-0.2-0.5-0.2
			S100.6,48.9,100.5,49z M104.6,51.1c0.2,0.1,0.4,0.3,0.5,0.5s0.2,0.5,0.2,0.7c0,0.3-0.1,0.5-0.2,0.7s-0.3,0.4-0.5,0.5
			s-0.5,0.2-0.7,0.2s-0.5-0.1-0.7-0.2c-0.2-0.1-0.4-0.3-0.5-0.5s-0.2-0.5-0.2-0.7c0-0.3,0.1-0.5,0.2-0.7s0.3-0.4,0.5-0.5
			s0.5-0.2,0.7-0.2C104.2,50.9,104.4,50.9,104.6,51.1z M103.4,51.8c-0.1,0.1-0.2,0.3-0.2,0.5s0.1,0.4,0.2,0.5s0.3,0.2,0.5,0.2
			s0.4-0.1,0.5-0.2s0.2-0.3,0.2-0.5s-0.1-0.4-0.2-0.5s-0.3-0.2-0.5-0.2S103.6,51.7,103.4,51.8z"/>
	</g>
</g>
<g>
	<g>
		<path class="st3" d="M75.5,101c-0.5,0-1-0.2-1.4-0.6l-3-2.7c-0.1-0.1-0.2-0.1-0.2-0.1l-4,0.2c-1.1,0.1-2-0.8-2.2-1.8l-0.5-4
			c0-0.1-0.1-0.2-0.1-0.2l-3.2-2.5c-0.9-0.7-1.1-1.9-0.5-2.8l2.1-3.5c0-0.1,0.1-0.2,0-0.2l-0.9-4c-0.2-1.1,0.4-2.1,1.4-2.5l3.8-1.2
			c0.1,0,0.2-0.1,0.2-0.2l1.9-3.6c0.5-1,1.7-1.4,2.7-1l3.7,1.5c0.1,0,0.2,0,0.3,0l3.7-1.5c1-0.4,2.2,0,2.7,1l1.9,3.6
			c0,0.1,0.1,0.1,0.2,0.2l3.8,1.2c1,0.3,1.6,1.4,1.4,2.5l-0.9,4c0,0.1,0,0.2,0,0.3l2.1,3.5c0.6,0.9,0.4,2.2-0.5,2.8l-3,2.3
			c-0.1,0.1-0.1,0.1-0.1,0.2l-0.5,4c-0.1,1.1-1.1,1.9-2.2,1.8l-4-0.2c-0.1,0-0.2,0-0.2,0.1l-3,2.7C76.5,100.8,76,101,75.5,101z
			 M70.9,95.8c0.5,0,1,0.2,1.4,0.6l3,2.7c0.1,0.1,0.3,0.1,0.4,0l3-2.7c0.4-0.4,0.9-0.6,1.5-0.6l4,0.2c0.1,0,0.3-0.1,0.3-0.3l0.5-4
			c0.1-0.6,0.4-1.1,0.8-1.4l3.2-2.5c0.1-0.1,0.2-0.3,0.1-0.4L87,83.8c-0.3-0.5-0.4-1-0.3-1.6l0.9-4c0-0.2-0.1-0.3-0.2-0.4l-3.8-1.2
			c-0.5-0.2-1-0.5-1.2-1l-2-3.6c-0.1-0.2-0.3-0.2-0.4-0.2l-3.7,1.5c-0.5,0.2-1.1,0.2-1.6,0L71,71.8c-0.2-0.1-0.3,0-0.4,0.2l-1.9,3.6
			c-0.3,0.5-0.7,0.9-1.2,1l-3.8,1.2c-0.2,0.1-0.3,0.2-0.2,0.4l0.9,4c0.1,0.5,0,1.1-0.3,1.6L62,87.3c-0.1,0.1-0.1,0.3,0.1,0.4
			l3.2,2.5c0.4,0.3,0.7,0.8,0.8,1.4l0.5,4c0,0.2,0.2,0.3,0.3,0.3L70.9,95.8C70.8,95.8,70.9,95.8,70.9,95.8z"/>
	</g>
	<g>
		<path class="st3" d="M74.2,80.6c0.4,0.2,0.7,0.5,0.9,0.9c0.2,0.4,0.3,0.8,0.3,1.3c0,0.4-0.1,0.9-0.3,1.3c-0.2,0.4-0.5,0.7-0.9,0.9
			c-0.4,0.2-0.8,0.3-1.2,0.3s-0.9-0.1-1.3-0.3c-0.4-0.2-0.7-0.5-0.9-0.9s-0.3-0.8-0.3-1.3c0-0.4,0.1-0.9,0.3-1.3s0.5-0.7,0.9-0.9
			s0.8-0.3,1.3-0.3C73.4,80.2,73.8,80.3,74.2,80.6z M78.8,80.2c0.2,0,0.3,0.1,0.5,0.2c0.1,0.1,0.2,0.3,0.2,0.5c0,0.1,0,0.3-0.1,0.4
			L72.8,90c-0.1,0.1-0.3,0.2-0.5,0.2S72,90.1,71.8,90s-0.2-0.3-0.2-0.5s0.1-0.3,0.2-0.4l6.6-8.6C78.5,80.3,78.6,80.2,78.8,80.2z
			 M72.1,81.9c-0.2,0.2-0.4,0.5-0.4,0.9c0,0.3,0.1,0.6,0.4,0.9c0.2,0.2,0.5,0.4,0.9,0.4c0.3,0,0.6-0.1,0.9-0.4s0.4-0.5,0.4-0.9
			c0-0.3-0.1-0.6-0.4-0.9c-0.2-0.2-0.5-0.4-0.9-0.4S72.3,81.6,72.1,81.9z M79.3,85.4c0.4,0.2,0.7,0.5,0.9,0.9
			c0.2,0.4,0.3,0.8,0.3,1.3s-0.1,0.9-0.3,1.3c-0.2,0.4-0.5,0.7-0.9,0.9s-0.8,0.3-1.3,0.3c-0.4,0-0.9-0.1-1.2-0.3
			c-0.4-0.2-0.7-0.5-0.9-0.9c-0.2-0.4-0.3-0.8-0.3-1.3s0.1-0.9,0.3-1.3c0.2-0.4,0.5-0.7,0.9-0.9c0.4-0.2,0.8-0.3,1.2-0.3
			C78.5,85.1,78.9,85.2,79.3,85.4z M77.2,86.7c-0.2,0.2-0.4,0.5-0.4,0.9s0.1,0.6,0.4,0.9c0.2,0.2,0.5,0.4,0.9,0.4s0.6-0.1,0.9-0.4
			s0.4-0.5,0.4-0.9S79.3,87,79,86.7c-0.2-0.2-0.5-0.4-0.9-0.4S77.4,86.5,77.2,86.7z"/>
	</g>
</g>
<path class="st4" d="M153.5,0.3c-0.4-0.5-1.2-0.5-1.6,0c-0.4,0.4-0.4,1.2,0,1.6l8.2,8.4h-27c-0.6,0-1.1,0.5-1.1,1.2s0.5,1.2,1.1,1.2
	h27l-8.2,8.3c-0.4,0.5-0.4,1.2,0,1.6c0.5,0.5,1.2,0.5,1.6,0l10.1-10.3c0.5-0.4,0.5-1.2,0-1.6L153.5,0.3z"/>
<path d="M188.5,0.3c-0.4-0.5-1.2-0.5-1.6,0c-0.4,0.4-0.4,1.2,0,1.6l8.2,8.4h-27c-0.6,0-1.1,0.5-1.1,1.2s0.5,1.2,1.1,1.2h27l-8.2,8.3
	c-0.4,0.5-0.4,1.2,0,1.6c0.5,0.5,1.2,0.5,1.6,0l10.1-10.3c0.5-0.4,0.5-1.2,0-1.6L188.5,0.3z"/>
<g>
	<g>
		<path class="st3" d="M15,100c-0.5,0-1-0.2-1.4-0.5l-2.9-2.7c-0.1-0.1-0.1-0.1-0.2-0.1l-3.9,0.2c-1,0-2-0.7-2.1-1.8L4,91.2
			C4,91.1,3.9,91,3.9,91l-3.1-2.4c-0.8-0.7-1-1.8-0.5-2.7l2.1-3.3c0-0.1,0.1-0.2,0-0.2l-0.8-3.9C1.4,77.3,2,76.3,3,76l3.7-1.2
			c0.1,0,0.1-0.1,0.2-0.2l1.8-3.5c0.5-0.9,1.6-1.4,2.6-0.9l3.6,1.5c0.1,0,0.2,0,0.2,0l3.6-1.5c1-0.4,2.1,0,2.6,1l1.8,3.5
			c0,0.1,0.1,0.1,0.2,0.2L27,76c1,0.3,1.6,1.4,1.4,2.4l-0.8,3.9c0,0.1,0,0.2,0,0.2l2.1,3.3c0.6,0.9,0.4,2.1-0.5,2.7L26.1,91
			c0,0-0.1,0.1-0.1,0.2l-0.5,3.9c-0.1,1.1-1.1,1.8-2.1,1.8l-3.9-0.2c-0.1,0-0.2,0-0.2,0.1l-2.9,2.7C16,99.8,15.5,100,15,100z
			 M10.5,95c0.5,0,1,0.2,1.4,0.5l2.9,2.7c0.1,0.1,0.3,0.1,0.4,0l2.9-2.7c0.4-0.4,0.9-0.6,1.5-0.5l3.9,0.2c0.1,0,0.3-0.1,0.3-0.3
			l0.5-3.9c0.1-0.5,0.3-1,0.8-1.4l3.1-2.4c0.1-0.1,0.2-0.3,0.1-0.4l0,0l-2.1-3.3c-0.3-0.5-0.4-1-0.3-1.5l0.8-3.9
			c0-0.2-0.1-0.3-0.2-0.4l-3.7-1.2c-0.5-0.2-0.9-0.5-1.2-1L19.8,72c-0.1-0.1-0.3-0.2-0.4-0.1l-3.6,1.5c-0.5,0.2-1,0.2-1.5,0
			l-3.6-1.5c-0.2-0.1-0.3,0-0.4,0.1l-1.8,3.5c-0.2,0.5-0.7,0.8-1.2,1l-3.7,1.2c-0.2,0.1-0.2,0.2-0.2,0.4L4.2,82
			c0.1,0.5,0,1.1-0.3,1.5l-2.1,3.3c-0.1,0.1-0.1,0.3,0.1,0.4L5,89.6c0.4,0.3,0.7,0.8,0.8,1.4l0.5,3.9c0,0.2,0.2,0.3,0.3,0.3L10.5,95
			L10.5,95z"/>
	</g>
	<g>
		<polygon class="st3" points="12.1,89.2 9.1,87 10.3,89.9 9.5,90.3 7.6,85.8 8.5,85.4 11.6,87.6 10.3,84.6 11.1,84.3 13,88.8 		"/>
		<polygon class="st3" points="14,88.3 12.1,83.9 15.3,82.4 15.7,83.2 13.3,84.2 13.7,85.2 15.9,84.3 16.2,85 14,86 14.5,87.2 
			17,86.1 17.3,86.9 		"/>
		<polygon class="st3" points="21.5,85.1 19.1,82.1 19.7,85.8 18.7,86.3 15.8,82.2 16.7,81.8 18.6,84.6 18.1,81.2 19.2,80.7 
			21.3,83.5 20.7,80.1 21.6,79.7 22.4,84.7 		"/>
	</g>
</g>
<g>
	<g>
		<path class="st3" d="M52,92H38c-0.6,0-1.2-0.5-1.2-1.2v-9.9l-3.5-3.5c-0.2-0.3-0.4-0.6-0.3-0.9c0-0.3,0.1-0.6,0.4-0.8l4.6-4.2
			c0.1-0.1,0.2-0.2,0.4-0.2l3.4-1.2c0.1,0,0.2-0.1,0.3-0.1c0.6,0,1.2,0.5,1.2,1.1c0,0.3,0.2,1.7,1.7,1.7s1.6-1.5,1.7-1.7
			c0-0.1,0-0.2,0.1-0.4c0.1-0.3,0.3-0.5,0.6-0.7c0.3-0.1,0.6-0.1,0.9,0l3.4,1.2c0.2,0.1,0.3,0.1,0.4,0.2l4.7,4.2
			c0.2,0.2,0.3,0.5,0.3,0.8S57,77,56.7,77.2l-3.5,3.5v9.9C53.2,91.5,52.7,92,52,92z M38.3,90.5h13.5V80.3l3.7-3.7l-4.5-4l-3-1.1
			c-0.2,1-0.9,2.7-3.1,2.7c-2.1,0-2.9-1.6-3.1-2.7l-3,1.1l-4.4,3.9l3.7,3.7L38.3,90.5L38.3,90.5z M55.6,76.3L55.6,76.3L55.6,76.3z
			 M39,72.6L39,72.6L39,72.6z M51,72.6L51,72.6L51,72.6z M47.7,71.4L47.7,71.4L47.7,71.4z"/>
	</g>
</g>
<g>
	<g id="Pencil_1_">
		<g>
			<path class="st3" d="M112,71c-0.7-0.7-1.5-1-2.5-1s-1.8,0.4-2.5,1L96.6,81.5c-0.1,0.1-0.1,0.1-0.1,0.2L94,88.2
				c-0.1,0.2,0,0.4,0.1,0.6c0.1,0.1,0.3,0.2,0.4,0.2s0.1,0,0.2,0l5.9-1.8c0.1,0,0.2-0.1,0.2-0.1L112,76c0.7-0.7,1-1.5,1-2.5
				C113,72.6,112.6,71.7,112,71z M100,86.1l-2.2,0.7c-0.1-0.4-0.3-0.7-0.6-1c-0.2-0.2-0.5-0.4-0.8-0.6l1-2.8h1.4v1.2
				c0,0.3,0.3,0.6,0.6,0.6h1L100,86.1z M108.7,77.5l-7.2,7.2l0.2-1c0-0.2,0-0.4-0.1-0.5s-0.3-0.2-0.5-0.2h-1.2v-1.2
				c0-0.3-0.3-0.6-0.6-0.6h-0.9l7.1-7l0,0c0.4-0.4,1-0.7,1.6-0.7s1.2,0.2,1.6,0.7c0.4,0.4,0.7,1,0.7,1.6
				C109.4,76.5,109.2,77.1,108.7,77.5z M111.1,75.1l-0.6,0.6c-0.1-0.8-0.4-1.6-1-2.2s-1.4-1-2.2-1l0.6-0.6l0,0
				c0.4-0.4,1-0.7,1.6-0.7s1.2,0.2,1.6,0.7c0.4,0.4,0.7,1,0.7,1.6C111.8,74.1,111.6,74.7,111.1,75.1z M107.2,74.9l-5.9,5.9
				c-0.2,0.2-0.2,0.6,0,0.8c0.1,0.1,0.3,0.2,0.4,0.2s0.3-0.1,0.4-0.2l5.9-5.9c0.2-0.2,0.2-0.6,0-0.8S107.5,74.7,107.2,74.9z"/>
		</g>
	</g>
</g>
<path d="M120.7,21.2c-0.2-0.2-0.5-0.2-0.8,0c-0.2,0.2-0.2,0.6,0,0.8l3.8,4h-12.6c-0.3,0-0.5,0.2-0.5,0.6c0,0.3,0.2,0.6,0.5,0.6h12.6
	l-3.8,4c-0.2,0.2-0.2,0.6,0,0.8c0.2,0.2,0.6,0.2,0.8,0l4.7-4.9c0.2-0.2,0.2-0.6,0-0.8L120.7,21.2z"/>
<path d="M247.8,75.3c-0.3-0.3-0.6-0.3-1,0c-0.3,0.3-0.3,0.8,0,1l4.8,5h-16c-0.4,0-0.6,0.3-0.6,0.8c0,0.4,0.3,0.8,0.6,0.8h16l-4.8,5
	c-0.3,0.3-0.3,0.8,0,1c0.3,0.3,0.8,0.3,1,0l6-6.2c0.3-0.3,0.3-0.8,0-1L247.8,75.3z"/>
<g>
	<g>
		<path d="M171.6,32.6h-4.4c-2,0-3.7,1.6-3.7,3.7v4.4c0,2,1.6,3.7,3.7,3.7h4.4c2,0,3.7-1.6,3.7-3.7v-4.4
			C175.3,34.3,173.6,32.6,171.6,32.6z M174.2,40.7c0,1.4-1.1,2.6-2.6,2.6h-4.4c-1.4,0-2.6-1.1-2.6-2.6v-4.4c0-1.4,1.1-2.6,2.6-2.6
			h4.4c1.4,0,2.6,1.1,2.6,2.6V40.7z"/>
		<path d="M169.4,35.6c-1.6,0-2.9,1.3-2.9,2.9s1.3,2.9,2.9,2.9s2.9-1.3,2.9-2.9S171,35.6,169.4,35.6z M169.4,40.3
			c-1,0-1.8-0.8-1.8-1.8s0.8-1.8,1.8-1.8s1.8,0.8,1.8,1.8S170.4,40.3,169.4,40.3z"/>
		<path d="M172.5,35c-0.2,0-0.4,0.2-0.4,0.4s0.2,0.4,0.4,0.4s0.4-0.2,0.4-0.4C172.9,35.1,172.8,35,172.5,35z"/>
	</g>
	<path d="M181.9,38.5c0-6.9-5.6-12.5-12.5-12.5s-12.5,5.6-12.5,12.5S162.5,51,169.4,51C176.3,51,181.9,45.4,181.9,38.5z M158,38.5
		c0-6.3,5.1-11.4,11.4-11.4c6.3,0,11.4,5.1,11.4,11.4s-5.1,11.4-11.4,11.4S158,44.8,158,38.5z"/>
</g>
<g>
	<path d="M141.4,26c-6.9,0-12.5,5.6-12.5,12.5S134.5,51,141.4,51s12.5-5.6,12.5-12.5S148.3,26,141.4,26z M141.4,49.9
		c-6.3,0-11.4-5.1-11.4-11.4s5.1-11.4,11.4-11.4s11.4,5.1,11.4,11.4S147.7,49.9,141.4,49.9z"/>
	<path d="M142.8,35.3c0,0,0.1-0.1,0.5-0.1h1.2c0.4,0,0.7-0.3,0.7-0.7v-2.1c0-0.4-0.3-0.7-0.7-0.7h-1.8c-1.1,0-2,0.4-2.7,1
		c-0.7,0.7-1,1.6-1,2.7v1.1h-1.3c-0.4,0-0.7,0.3-0.7,0.7v2.2c0,0.4,0.3,0.7,0.7,0.7h1.3v5.2c0,0.4,0.3,0.7,0.7,0.7h2.3
		c0.4,0,0.7-0.3,0.7-0.7v-5.2h1.6c0.4,0,0.7-0.3,0.7-0.7v-2.2c0-0.3-0.1-0.5-0.4-0.6c-0.1-0.1-0.2-0.1-0.3-0.1h-1.6v-0.9
		C142.7,35.5,142.8,35.4,142.8,35.3z M142.4,37.5h1.9v1.9h-1.9c-0.3,0-0.5,0.2-0.5,0.5v5.5h-2v-5.5c0-0.3-0.2-0.5-0.5-0.5h-1.6v-1.9
		h1.6c0.3,0,0.5-0.2,0.5-0.5v-1.5c0-1.8,1.1-2.9,2.8-2.9h1.6v1.8h-1c-0.3,0-0.8,0-1.1,0.4c-0.2,0.3-0.3,0.7-0.3,1V37
		C141.9,37.3,142.1,37.5,142.4,37.5z"/>
</g>
<g>
	<path d="M209.9,38.5c0-6.9-5.6-12.5-12.5-12.5s-12.5,5.6-12.5,12.5S190.5,51,197.4,51C204.3,51,209.9,45.4,209.9,38.5z M186,38.5
		c0-6.3,5.1-11.4,11.4-11.4c6.3,0,11.4,5.1,11.4,11.4s-5.1,11.4-11.4,11.4S186,44.8,186,38.5z"/>
	<path d="M202.6,33c-0.2-0.3-0.5-0.4-0.8-0.4c-0.2,0-0.4,0.1-0.7,0.2l-9.6,5c-0.7,0.4-0.7,0.9-0.7,1.1c0,0.2,0.1,0.7,0.8,1l1.2,0.5
		c0.2,0.1,0.5,0.1,0.8,0.1h0.1c0,0,0,0-0.1,0.1c-0.2,0.3-0.2,0.8,0,1.3l0,0c0.4,0.8,0.8,1.7,0.8,1.8c0.1,0.3,0.4,0.5,0.8,0.5
		c0.5,0,0.7-0.2,1.5-1.6c0.1-0.1,0.2-0.3,0.2-0.6c0.1,0,0.2,0.1,0.3,0.1l1.4,0.6c0.3,0.1,0.5,0.2,0.6,0.3c0,0,0.1,0,0.1,0.1
		c0.1,0,0.2,0.1,0.3,0.1c0.6,0,0.8-0.5,0.8-0.8c0-0.1,0.1-0.3,0.2-0.6l2.1-7.6C202.9,33.6,202.7,33.2,202.6,33z M196.1,42.3
		l-0.8,1.3l0,0c-0.1-0.2-0.8-1.9-0.8-1.9c-0.1-0.3-0.1-0.6,0.1-0.6c0.1,0,0.1,0,0.2,0l0.6,0.3c0.1,0.1,0.2,0.1,0.3,0.2l0,0h0.1
		C196.2,41.8,196.3,41.9,196.1,42.3z M202,33.9l-2.1,7.6c-0.1,0.4-0.2,0.8-0.2,0.8l0,0c0,0-0.3-0.1-0.8-0.3l-1.4-0.6
		c-0.4-0.2-1.1-0.4-1.5-0.6h-0.1l-0.3-0.1c-0.3-0.2-0.3-0.5,0-0.8l4.2-4.5c0.2-0.2,0.2-0.3,0.2-0.3s-0.1,0.1-0.3,0.2l-5.3,4.2
		c-0.2,0.2-0.6,0.3-0.9,0.3c-0.2,0-0.3,0-0.5-0.1l-1.2-0.5c-0.4-0.2-0.4-0.5,0-0.7l9.6-5c0.1-0.1,0.2-0.1,0.3-0.1
		C202,33.5,202.1,33.6,202,33.9z"/>
</g>
<g>
	<path class="st0" d="M265.9,38.5c0-6.9-5.6-12.5-12.5-12.5s-12.5,5.6-12.5,12.5S246.5,51,253.4,51S265.9,45.4,265.9,38.5z"/>
	<g>
		<path class="st5" d="M255.6,32.6h-4.4c-2,0-3.7,1.6-3.7,3.7v4.4c0,2,1.6,3.7,3.7,3.7h4.4c2,0,3.7-1.6,3.7-3.7v-4.4
			C259.3,34.3,257.6,32.6,255.6,32.6z M258.2,40.7c0,1.4-1.1,2.6-2.6,2.6h-4.4c-1.4,0-2.6-1.1-2.6-2.6v-4.4c0-1.4,1.1-2.6,2.6-2.6
			h4.4c1.4,0,2.6,1.1,2.6,2.6V40.7z"/>
		<path class="st5" d="M253.4,35.6c-1.6,0-2.9,1.3-2.9,2.9s1.3,2.9,2.9,2.9s2.9-1.3,2.9-2.9S255,35.6,253.4,35.6z M253.4,40.3
			c-1,0-1.8-0.8-1.8-1.8s0.8-1.8,1.8-1.8s1.8,0.8,1.8,1.8S254.4,40.3,253.4,40.3z"/>
		<path class="st5" d="M256.5,35c-0.2,0-0.4,0.2-0.4,0.4s0.2,0.4,0.4,0.4c0.2,0,0.4-0.2,0.4-0.4C256.9,35.1,256.8,35,256.5,35z"/>
	</g>
</g>
<g>
	<path class="st0" d="M225.4,26c-6.9,0-12.5,5.6-12.5,12.5S218.5,51,225.4,51s12.5-5.6,12.5-12.5S232.3,26,225.4,26z"/>
	<path class="st5" d="M226.8,35.3c0,0,0.1-0.1,0.5-0.1h1.2c0.4,0,0.7-0.3,0.7-0.7v-2.1c0-0.4-0.3-0.7-0.7-0.7h-1.8
		c-1.1,0-2,0.4-2.7,1c-0.7,0.7-1,1.6-1,2.7v1.1h-1.3c-0.4,0-0.7,0.3-0.7,0.7v2.2c0,0.4,0.3,0.7,0.7,0.7h1.3v5.2
		c0,0.4,0.3,0.7,0.7,0.7h2.3c0.4,0,0.7-0.3,0.7-0.7v-5.2h1.6c0.4,0,0.7-0.3,0.7-0.7v-2.2c0-0.3-0.1-0.5-0.4-0.6
		c-0.1-0.1-0.2-0.1-0.3-0.1h-1.6v-0.9C226.7,35.5,226.8,35.4,226.8,35.3z M226.4,37.5h1.9v1.9h-1.9c-0.3,0-0.5,0.2-0.5,0.5v5.5h-2
		v-5.5c0-0.3-0.2-0.5-0.5-0.5h-1.6v-1.9h1.6c0.3,0,0.5-0.2,0.5-0.5v-1.5c0-1.8,1.1-2.9,2.8-2.9h1.6v1.8h-1c-0.3,0-0.8,0-1.1,0.4
		c-0.2,0.3-0.3,0.7-0.3,1V37C225.9,37.3,226.1,37.5,226.4,37.5z"/>
</g>
<g>
	<path class="st0" d="M293.9,38.5c0-6.9-5.6-12.5-12.5-12.5s-12.5,5.6-12.5,12.5S274.5,51,281.4,51S293.9,45.4,293.9,38.5z"/>
	<path class="st5" d="M286.6,33c-0.2-0.3-0.5-0.4-0.8-0.4c-0.2,0-0.4,0.1-0.7,0.2l-9.6,5c-0.7,0.4-0.7,0.9-0.7,1.1
		c0,0.2,0.1,0.7,0.8,1l1.2,0.5c0.2,0.1,0.5,0.1,0.8,0.1h0.1c0,0,0,0-0.1,0.1c-0.2,0.3-0.2,0.8,0,1.3l0,0c0.4,0.8,0.8,1.7,0.8,1.8
		c0.1,0.3,0.4,0.5,0.8,0.5c0.5,0,0.7-0.2,1.5-1.6c0.1-0.1,0.2-0.3,0.2-0.6c0.1,0,0.2,0.1,0.3,0.1l1.4,0.6c0.3,0.1,0.5,0.2,0.6,0.3
		c0,0,0.1,0,0.1,0.1c0.1,0,0.2,0.1,0.3,0.1c0.6,0,0.8-0.5,0.8-0.8c0-0.1,0.1-0.3,0.2-0.6l2.1-7.6C286.9,33.6,286.7,33.2,286.6,33z
		 M280.1,42.3l-0.8,1.3l0,0c-0.1-0.2-0.8-1.9-0.8-1.9c-0.1-0.3-0.1-0.6,0.1-0.6c0.1,0,0.1,0,0.2,0l0.6,0.3c0.1,0.1,0.2,0.1,0.3,0.2
		l0,0h0.1C280.2,41.8,280.3,41.9,280.1,42.3z M286,33.9l-2.1,7.6c-0.1,0.4-0.2,0.8-0.2,0.8l0,0c0,0-0.3-0.1-0.8-0.3l-1.4-0.6
		c-0.4-0.2-1.1-0.4-1.5-0.6h-0.1l-0.3-0.1c-0.3-0.2-0.3-0.5,0-0.8l4.2-4.5c0.2-0.2,0.2-0.3,0.2-0.3s-0.1,0.1-0.3,0.2l-5.3,4.2
		c-0.2,0.2-0.6,0.3-0.9,0.3c-0.2,0-0.3,0-0.5-0.1l-1.2-0.5c-0.4-0.2-0.4-0.5,0-0.7l9.6-5c0.1-0.1,0.2-0.1,0.3-0.1
		C286,33.5,286.1,33.6,286,33.9z"/>
</g>
<polygon class="st6" points="150.7,54.3 147.9,71.7 152.3,71.7 155,54.3 "/>
<path class="st6" d="M163.9,57.7c1.4,0,2.5,0.3,3.3,0.7l0.4,0.2l0.6-3.8c-0.9-0.4-2.2-0.7-3.9-0.7c-4.3,0-7.4,2.4-7.4,5.8
	c0,2.5,2.2,3.9,3.8,4.7c1.7,0.9,2.3,1.4,2.3,2.2c0,1.2-1.4,1.7-2.6,1.7c-1.7,0-2.7-0.3-4.1-0.9l-0.6-0.3l-0.6,3.9
	c1,0.5,2.9,0.9,4.9,0.9c4.6,0,7.6-2.3,7.6-6c0-2-1.2-3.5-3.7-4.7c-1.5-0.8-2.5-1.3-2.5-2.2C161.4,58.4,162.2,57.7,163.9,57.7z"/>
<path class="st6" d="M179.4,54.3H176c-1,0-1.8,0.3-2.3,1.4l-6.5,16h4.6c0,0,0.8-2.2,0.9-2.6c0.5,0,5,0,5.6,0
	c0.1,0.6,0.5,2.6,0.5,2.6h4.1L179.4,54.3z M174,65.6c0.4-1,1.7-4.9,1.7-4.9s0.4-1,0.6-1.7l0.3,1.5c0,0,0.8,4.2,1,5
	C176.9,65.6,174.8,65.6,174,65.6z"/>
<path class="st6" d="M144.3,54.3L140,66.2l-0.5-2.4c-0.8-2.8-3.3-5.8-6-7.3l3.9,15.2h4.6l6.9-17.4C148.9,54.3,144.3,54.3,144.3,54.3
	z"/>
<path class="st7" d="M138,55.8c-0.3-1.1-1-1.4-2-1.5h-7l-0.1,0.4c5.5,1.4,9.1,4.9,10.6,9.1L138,55.8z"/>
<ellipse class="st8" cx="141.9" cy="87" rx="12.1" ry="12"/>
<ellipse class="st9" cx="128.1" cy="87" rx="12.1" ry="12"/>
<ellipse class="st10" cx="135" cy="87" rx="5.2" ry="9.8"/>
<g>
	<path d="M168,89c-0.6,0-1.3-0.1-2.1-0.4c-1.6-0.6-3.4-1.8-5-3.4s-2.8-3.4-3.4-5c-0.6-1.6-0.6-3,0.1-3.7l0.2-0.2
		c0.5-0.6,1.2-1.3,2.2-1.2c0.7,0,1.3,0.4,1.9,1.1c1.8,2.2,0.8,3.1,0,3.9l-0.1,0.1c0,0.2,0.2,0.8,1.8,2.4c0.7,0.7,1.3,1.2,1.8,1.5
		c0.3,0.2,0.5,0.3,0.6,0.3l0.1-0.1c0.8-0.8,1.7-1.7,3.9,0c0.7,0.6,1.1,1.2,1.1,1.9c0,1-0.7,1.6-1.2,2.1l-0.2,0.2
		C169.2,88.8,168.6,89,168,89z M159.9,75.9c-0.5,0-1,0.5-1.4,0.9c-0.1,0.1-0.2,0.2-0.2,0.3c-0.4,0.4-0.4,1.4,0.1,2.7
		c0.6,1.5,1.7,3.2,3.2,4.7s3.2,2.6,4.7,3.2c1.2,0.5,2.3,0.5,2.7,0.1l0.2-0.2c0.5-0.5,1-0.9,0.9-1.4c0-0.4-0.3-0.7-0.8-1.2
		c-1.5-1.2-1.9-0.8-2.7-0.1l-0.1,0.1c-0.4,0.4-0.9,0.3-1.7-0.2c-0.5-0.3-1.2-0.9-1.9-1.7c-1.2-1.2-2.7-2.8-1.9-3.6l0.1-0.1
		c0.7-0.7,1.2-1.1-0.1-2.7C160.6,76.2,160.2,75.9,159.9,75.9L159.9,75.9z"/>
</g>
<g>
	<g>
		<path d="M181,89c-0.9,0-1.9-0.2-2.7-0.6c-1.7-0.7-3-2-3.7-3.7c-0.4-0.9-0.6-1.8-0.6-2.7c0-1,0.2-1.9,0.6-2.7c0.7-1.7,2-3,3.7-3.7
			s3.7-0.7,5.4,0s3,2,3.7,3.7c0.4,0.9,0.6,1.8,0.6,2.7c0,0.9-0.2,1.9-0.6,2.7c-0.7,1.7-2,3-3.7,3.7C182.8,88.8,181.9,89,181,89z
			 M181,75.9c-0.8,0-1.6,0.2-2.4,0.5c-1.5,0.6-2.6,1.7-3.2,3.2c-0.3,0.7-0.5,1.5-0.5,2.4c0,0.8,0.2,1.6,0.5,2.4
			c0.6,1.5,1.7,2.6,3.2,3.2s3.2,0.6,4.7,0s2.6-1.7,3.2-3.2c0.3-0.7,0.5-1.5,0.5-2.4c0-0.8-0.2-1.6-0.5-2.4l0,0
			c-0.6-1.5-1.7-2.6-3.2-3.2C182.6,76.1,181.8,75.9,181,75.9z"/>
		<path d="M182.5,84.8l-2.1-2.1c-0.2-0.2-0.2-0.4-0.2-0.6V82v-3.8h0.9V82l2.1,2.1L182.5,84.8z"/>
	</g>
</g>
<g id="g10" transform="matrix(1.25,0,0,-1.25,0,76.9)">
	<g id="g12" transform="scale(0.1,0.1)">
		<path id="path14" class="st11" d="M1373.9-351.2l-83.6,18.6c-24.9,5.5-40.5,29.9-34.9,54.3c5.6,24.5,30.4,39.8,55.3,34.3
			s40.5-29.9,34.9-54.3c-2.8-12.3-10.4-22.2-20.5-28.4l0,0c-0.3-0.2-0.5-0.5-0.5-0.9c0-0.5,0.4-1,0.9-1.1l37.2-8.3
			c0.9-0.2,1.8,0.1,2.3,0.8l0,0c10.2,13.3,16.4,29.9,16.4,47.9c0,42.3-33.7,76.9-76.1,79.4c-0.4,0-2.7,0.1-3.5,0.1
			c-18.8,0.3-37.9-5-54.4-16.4c-41.9-28.8-52-85.4-22.7-126.6l74.4-104.3c0.3-0.4,0.8-0.7,1.4-0.7s1.1,0.3,1.4,0.7l73,102.3
			c0.2,0.3,0.3,0.6,0.3,1C1375.3-352,1374.7-351.4,1373.9-351.2"/>
		<path id="path16" class="st11" d="M1445.5-257.7c0.9,0,1.5-0.3,1.8-0.9l24.8-41.6h1.2l21.1,41c0.4,1,1.3,1.5,2.5,1.5h15.1
			c1.3,0,2.1-1.3,1.5-2.3l-43.7-75.8c-0.4-0.9-1.3-1.3-2.5-1.3h-14.8c-1.6,0-1.8,1-1.2,2.2l11.7,19.7l-35,55.7
			c-0.6,1-0.1,1.9,0.9,1.9L1445.5-257.7"/>
		<path id="path18" class="st11" d="M1539.6-257.7c1.3,0,2.1-0.7,2.1-2v-31.2l33.4,32.1c0.9,0.7,2.2,1.2,3.9,1.2h18.1
			c1.3,0,1.8-1.2,0.7-2.2l-35.5-32.7L1600-335c1-1,0.4-2.2-0.9-2.2h-17.8c-1.6,0-2.8,0.4-3.7,1.5l-28.3,32.7l-7.7-7v-25.1
			c0-1.3-0.7-2-2.1-2h-13.1c-1.3,0-2.1,0.7-2.1,2v75.4c0,1.3,0.7,2,2.1,2H1539.6"/>
		<path id="path20" class="st11" d="M1649.2-299.9c9.1,0,14.3,5.5,14.3,13.3c0,7.6-5.2,13-14.3,13h-21.5v-26.3H1649.2z
			 M1649.2-257.6c18,0,31.5-12.7,31.5-29c0-16.9-13.5-29.3-31.5-29.3h-21.5V-335c0-1.3-0.7-2-2.1-2h-13.1c-1.3,0-2.1,0.7-2.1,2v75.4
			c0,1.3,0.7,2,2.1,2H1649.2"/>
		<path id="path22" class="st11" d="M1761.9-257.7c1.3,0,2.1-0.7,2.1-2v-75.4c0-1.3-0.7-2-2.1-2h-13.1c-1.3,0-2.1,0.7-2.1,2v61.6
			h-35.9v-61.6c0-1.3-0.7-2-2.1-2h-13.1c-1.3,0-2.1,0.7-2.1,2v75.4c0,1.3,0.7,2,2.1,2H1761.9"/>
		<path id="path24" class="st11" d="M1796.7-297.5c0-14.4,10.4-24.9,25.2-24.9c14.7,0,25.1,10.5,25.1,24.9
			c0,14.7-10.4,25.1-25.1,25.1C1807.1-272.4,1796.7-282.7,1796.7-297.5 M1821.9-256.5c23.3,0,42.5-17.6,42.5-41
			c0-23.5-19.2-40.8-42.5-40.8c-23.5,0-42.6,17.4-42.6,40.8S1798.5-256.5,1821.9-256.5"/>
		<path id="path26" class="st11" d="M1922.1-321.2v61.6c0,1.3,0.7,2,2.1,2h12.8c1.3,0,2.1-0.7,2.1-2v-61.6h25.4v61.6
			c0,1.3,0.7,2,2.1,2h12.8c1.3,0,2.1-0.7,2.1-2V-335c0-1.3-0.7-2-2.1-2H1882c-1,0-2.1,0.7-2.1,2v75.4c0,1.3,0.7,2,2.1,2h12.8
			c1.3,0,2.1-0.7,2.1-2v-61.6H1922.1"/>
		<path id="path28" class="st11" d="M2063.8-257.7c1.3,0,2.1-0.7,2.1-2v-12c0-1.3-0.7-2-2.1-2H2038v-61.4c0-1.3-0.7-2-2.1-2h-13.1
			c-1.3,0-2.1,0.7-2.1,2v61.4h-25.8c-1.3,0-2.1,0.7-2.1,2v12c0,1.3,0.7,2,2.1,2H2063.8"/>
		<path id="path30" class="st11" d="M2093.2-306.1h28.2l-13.1,32.7h-1.6L2093.2-306.1z M2127.4-321.4H2087l-5.6-14
			c-0.4-1.2-1.3-1.8-2.5-1.8h-14.7c-1.5,0-1.9,0.7-1.5,2l35,76.3c0.3,0.7,0.9,1.2,1.9,1.2h16.9c1,0,1.6-0.4,1.9-1.2l33.4-76
			c0.4-1.2-0.3-2.3-1.6-2.3h-14.1c-1.5,0-2.5,0.7-3.1,2L2127.4-321.4"/>
		<path id="path32" class="st11" d="M1439.4-405.3v34h22.8v-3.9H1444v-30.1H1439.4"/>
		<path id="path34" class="st11" d="M1473.4-388.2c0-8.5,4.7-14,12.1-14c7.3,0,12,5.5,12,14c0,8.4-4.7,13.9-12.1,13.9
			C1477.2-374.4,1473.4-381,1473.4-388.2z M1502.1-388c0-10-5.6-18.1-16.6-18.1c-11.1,0-16.6,8.3-16.6,18.2
			c0,10.6,6.5,17.4,16.6,17.4C1496.2-370.4,1502.1-377.9,1502.1-388"/>
		<path id="path36" class="st11" d="M1537.9-405.3h-4.6v30.1h-12.8l-0.7-19.2c-0.2-6.8-2.8-11.7-8-11.7c-1,0-2.4,0.3-3.3,0.7v3.8
			c0.6-0.4,1.9-0.5,2.5-0.5c2.5,0,4.3,1.3,4.5,10l0.6,20.7h21.8V-405.3"/>
		<path id="path38" class="st11" d="M1553.3-388.2c0-8.5,4.7-14,12.1-14c7.3,0,12,5.5,12,14c0,8.4-4.7,13.9-12.1,13.9
			C1557.1-374.4,1553.3-381,1553.3-388.2z M1582-388c0-10-5.6-18.1-16.6-18.1c-11.1,0-16.6,8.3-16.6,18.2c0,10.6,6.5,17.4,16.6,17.4
			C1576.1-370.4,1582-377.9,1582-388"/>
		<path id="path40" class="st11" d="M1597.2-401.5h9.2c4.6,0,9.2,0.3,9.2,6.3c0,5.9-5.3,5.9-9.9,5.9h-8.4L1597.2-401.5L1597.2-401.5
			z M1597.2-385.8h8.2c3.9,0,8.6,0.3,8.6,5.4s-4,5.4-8.1,5.4h-8.7V-385.8z M1607.5-371.3c5.7,0,11.1-2.2,11.1-8.5
			c0-3.3-2-6.2-5.1-7.3c4.3-1,6.7-4.1,6.7-8.6c0-7.8-6.5-9.6-13.2-9.6h-14.3v34H1607.5"/>
		<path id="path42" class="st11" d="M1658.6-405.3h-4.6v15.9h-18.3v-15.9h-4.6v34h4.6v-14.2h18.3v14.2h4.6V-405.3"/>
		<path id="path44" class="st11" d="M1684.2-375.6l-6-15.7h11.9L1684.2-375.6z M1700.4-405.3h-5.1l-3.8,10.4h-14.6l-3.9-10.4h-4.9
			l13.6,34h5.2L1700.4-405.3"/>
		<path id="path46" class="st11" d="M1756.9-405.3h-4.6v30.1H1734v-30.1h-4.6v34h27.5V-405.3"/>
		<path id="path48" class="st11" d="M1772.3-388.2c0-8.5,4.7-14,12.1-14c7.3,0,12,5.5,12,14c0,8.4-4.7,13.9-12.1,13.9
			C1776.1-374.4,1772.3-381,1772.3-388.2z M1800.9-388c0-10-5.6-18.1-16.6-18.1c-11.1,0-16.6,8.3-16.6,18.2
			c0,10.6,6.5,17.4,16.6,17.4C1795-370.4,1800.9-377.9,1800.9-388"/>
		<path id="path50" class="st11" d="M1811.7-371.3h4.6v-30.1h15.4v30.1h4.6v-30.1h15.4v30.1h4.6v-34h-44.5L1811.7-371.3"/>
		<path id="path52" class="st11" d="M1893.9-375.2h-11.6v-30.1h-4.6v30.1H1866v3.9h27.9V-375.2"/>
		<path id="path54" class="st11" d="M1911.6-375.6l-6-15.7h11.9L1911.6-375.6z M1927.8-405.3h-5.1l-3.8,10.4h-14.6l-3.9-10.4h-4.9
			l13.6,34h5.2L1927.8-405.3"/>
		<path id="path56" class="st11" d="M1970.4-384.9l15.2-20.4h-5.8l-12.6,17.3l-5.7-5.4v-12h-4.6v34h4.6v-16.9l17.6,16.9h6
			L1970.4-384.9"/>
		<path id="path58" class="st11" d="M1999.8-387.6h8.8c4.4,0,7.8,1.2,7.8,6.2c0,5.5-3.9,6.2-8.5,6.2h-8.2L1999.8-387.6L1999.8-387.6
			z M2009.5-371.3c6.6,0,11.5-2.7,11.5-9.8c0-7.7-5.1-10.3-11.8-10.3h-9.4v-14h-4.6v34L2009.5-371.3"/>
		<path id="path60" class="st11" d="M2041.3-375.6l-6-15.7h11.9L2041.3-375.6z M2057.5-405.3h-5.1l-3.8,10.4H2034l-3.9-10.4h-4.9
			l13.6,34h5.2L2057.5-405.3"/>
		<path id="path62" class="st11" d="M2076.2-368.3h-4.4v4.8h4.4V-368.3z M2071.6-405.3h-4.6v34h4.6V-405.3z M2067-368.3h-4.4v4.8
			h4.4V-368.3"/>
		<path id="path64" class="st11" d="M2111.8-405.3h-4.6v15.9h-18.3v-15.9h-4.6v34h4.6v-14.2h18.3v14.2h4.6V-405.3"/>
		<path id="path66" class="st11" d="M2124.4-371.3h4.6v-28.8h0.1l17,28.8h5.8v-34h-4.6v28.9h-0.1l-17.1-28.9h-5.7V-371.3"/>
	</g>
</g>
<g>
	<path class="st11" d="M38.9,110.8c0,3.5,0,3.5,0,3.5c-4.7,0-4.7,0-4.7,0c0-3.5,0-3.5,0-3.5c0-1-0.4-1.4-1.3-1.4c-2.4,0-2.4,0-2.4,0
		c0,2.3,0,2.3,0,2.3c1,0,1,0,1,0c0.1,0,0.1,0.1,0.1,0.1c0,9.8,0,9.8,0,9.8c2.6,0,2.6,0,2.6,0c0-4.9,0-4.9,0-4.9c4.7,0,4.7,0,4.7,0
		c0,4.9,0,4.9,0,4.9c2.6,0,2.6,0,2.6,0c0-9.8,0-9.8,0-9.8l0.1-0.1c1,0,1,0,1,0c0-2.3,0-2.3,0-2.3c-2.3,0-2.3,0-2.3,0
		C39.4,109.4,38.9,109.8,38.9,110.8z"/>
	<path class="st11" d="M50.8,109.3l-1.2-0.1h-0.1c-3.5,0-6.4,2.7-6.4,6.2c0,3.6,2.8,6.4,6.4,6.4h0.1l0,0l1.2-0.1
		c2.9-0.6,5.1-3.2,5.1-6.3C55.9,112.3,53.7,109.9,50.8,109.3z M50.9,119l-1.3,0.3h-0.1c-2,0-3.5-1.7-3.5-3.9c0-2.1,1.5-3.7,3.5-3.7
		h0.1l1.3,0.3c1.3,0.6,2.2,1.9,2.2,3.4C53.2,117,52.2,118.4,50.9,119z"/>
	<path class="st11" d="M57.5,120.2c0,1,0.4,1.4,1.3,1.4c1.6,0,2.4,0,2.8,0h0.2H62l0,0c2.5,0,4.3-1.4,4.3-3.7c0-1.2-0.7-2.3-1.6-2.7
		c0.5-0.5,1.1-1.3,1.1-2.5c0-2-1.4-3.3-3.8-3.3h-0.1h-1.8c-3.7,0-3.7,0-3.7,0c0,2.3,0,2.3,0,2.3c1.1,0,1.1,0,1.1,0L57.5,120.2z
		 M60.2,111.7c0.9,0,1.3,0,1.5,0h0.2l0,0l0,0c0.8,0,1.2,0.4,1.2,1.2c0,0.8-0.4,1.3-1.2,1.3h-0.1h-1c-0.7,0-0.7,0-0.7,0
		C60.2,111.7,60.2,111.7,60.2,111.7z M60.2,116.4c0.5,0,0.9,0,1.1,0h0.6l0,0c0.2,0,0.2,0,0.2,0c0.9,0,1.4,0.5,1.4,1.4
		s-0.6,1.4-1.4,1.4h-0.3H61c-0.8,0-0.8,0-0.8,0c-0.1,0-0.1,0-0.1-0.1C60.2,116.4,60.2,116.4,60.2,116.4z"/>
	<path class="st11" d="M75.2,120.4c0.2,0.9,0.7,1.2,1.5,1.2c1.5,0,1.5,0,1.5,0c0-2.4,0-2.4,0-2.4c-0.4,0-0.4,0-0.4,0
		c-0.2,0-0.2,0-0.3-0.1c-3.5-9.7-3.5-9.7-3.5-9.7h-1.3h-0.2c-1.1,0-1.1,0-1.1,0c-3.5,9.7-3.5,9.7-3.5,9.7c-0.1,0.1-0.1,0.1-0.3,0.1
		c-0.5,0-0.5,0-0.5,0c0,2.4,0,2.4,0,2.4c1.6,0,1.6,0,1.6,0c0.9,0,1.3-0.3,1.5-1.1c0.8-2,0.8-2,0.8-2c0.4,0,0.8,0,1.2,0h0.6h0.3
		c1.5,0,1.5,0,1.5,0C75.2,120.4,75.2,120.4,75.2,120.4z M72.7,116.3h-0.2c-0.9,0-0.9,0-0.9,0c0.9-2.5,0.9-2.5,0.9-2.5
		c0-0.3,0.1-0.7,0.2-0.9c0.1,0.2,0.2,0.5,0.2,0.9c0.9,2.5,0.9,2.5,0.9,2.5H72.7z"/>
	<path class="st11" d="M94.7,119.1c0-8.3,0-8.3,0-8.3c0-1-0.5-1.4-1.4-1.4c-9.5,0-9.5,0-9.5,0c0,2.3,0,2.3,0,2.3c1.1,0,1.1,0,1.1,0
		c0,9.9,0,9.9,0,9.9c2.6,0,2.6,0,2.6,0c0-9.9,0-9.9,0-9.9c4.4,0,4.4,0,4.4,0c0.1,0,0.1,0.1,0.1,0.1c0,8.4,0,8.4,0,8.4
		c0,1,0.4,1.4,1.4,1.4c2.3,0,2.3,0,2.3,0c0-2.4,0-2.4,0-2.4C94.8,119.2,94.8,119.2,94.7,119.1C94.7,119.2,94.7,119.2,94.7,119.1z"/>
	<path class="st11" d="M103.9,109.3l-1.3-0.1h-0.1c-3.5,0-6.2,2.7-6.2,6.2c0,3.6,2.7,6.4,6.2,6.4h0.1l1.3-0.1c2.9-0.6,5-3.2,5-6.3
		C108.9,112.3,106.8,109.9,103.9,109.3z M104,119l-1.4,0.3h-0.1c-2,0-3.5-1.7-3.5-3.9c0-2.1,1.5-3.7,3.5-3.7h0.1l1.4,0.3
		c1.3,0.6,2.2,1.9,2.2,3.4C106.2,117,105.3,118.4,104,119z"/>
	<path class="st11" d="M122.4,110.8c0,8.3,0,8.3,0,8.3c0,0.1,0,0.1-0.1,0.1c-3.2,0-3.2,0-3.2,0c0-9.8,0-9.8,0-9.8
		c-2.6,0-2.6,0-2.6,0c0,9.8,0,9.8,0,9.8c-3.2,0-3.2,0-3.2,0c-0.1,0-0.1,0-0.1-0.1c0-8.3,0-8.3,0-8.3c0-1-0.4-1.4-1.3-1.4
		c-2.4,0-2.4,0-2.4,0c0,2.3,0,2.3,0,2.3c1,0,1,0,1,0c0.1,0,0.1,0.1,0.1,0.1c0,8.4,0,8.4,0,8.4c0,1,0.4,1.4,1.4,1.4
		c11.7,0,11.7,0,11.7,0c0.9,0,1.3-0.4,1.3-1.4c0-8.4,0-8.4,0-8.4s0-0.1,0.1-0.1c1,0,1,0,1,0c0-2.3,0-2.3,0-2.3c-2.4,0-2.4,0-2.4,0
		C122.8,109.4,122.4,109.8,122.4,110.8z"/>
	<path class="st11" d="M137.7,112.8c0-2.1,0-2.1,0-2.1c0-0.9-0.3-1.3-1.3-1.3c-8.2,0-8.2,0-8.2,0c-0.9,0-1.2,0.4-1.2,1.3
		c0,2.1,0,2.1,0,2.1c2.4,0,2.4,0,2.4,0c0-1,0-1,0-1c0-0.1,0-0.1,0.1-0.1c1.5,0,1.5,0,1.5,0c0,9.9,0,9.9,0,9.9c2.6,0,2.6,0,2.6,0
		c0-9.9,0-9.9,0-9.9c1.5,0,1.5,0,1.5,0c0.1,0,0.1,0,0.1,0.1c0,1,0,1,0,1H137.7z"/>
	<path class="st11" d="M147.6,119.2c-0.2,0-0.2,0-0.3-0.1c-3.5-9.7-3.5-9.7-3.5-9.7h-1.3h-0.2c-1.1,0-1.1,0-1.1,0
		c-3.5,9.7-3.5,9.7-3.5,9.7c-0.1,0.1-0.1,0.1-0.3,0.1c-0.5,0-0.5,0-0.5,0c0,2.4,0,2.4,0,2.4c1.6,0,1.6,0,1.6,0
		c0.9,0,1.3-0.3,1.5-1.2c0.8-1.9,0.8-1.9,0.8-1.9c0.4,0,0.8,0,1.2,0h0.6h0.3c1.5,0,1.5,0,1.5,0c0.8,1.9,0.8,1.9,0.8,1.9
		c0.2,0.9,0.7,1.2,1.5,1.2c1.5,0,1.5,0,1.5,0c0-2.4,0-2.4,0-2.4H147.6z M142.4,116.3h-0.2c-0.9,0-0.9,0-0.9,0
		c0.9-2.5,0.9-2.5,0.9-2.5c0-0.3,0.1-0.7,0.2-0.9c0.1,0.2,0.2,0.5,0.2,0.9c0.9,2.5,0.9,2.5,0.9,2.5H142.4z"/>
	<g>
		<path class="st11" d="M20.5,110.6c-0.1-0.1-0.2-0.2-0.3-0.2c-0.1,0-0.1,0.1-0.1,0.3v9.5c0,0.2,0,0.3,0.1,0.3s0.2,0,0.3-0.1
			c4.5-4.5,4.5-4.5,4.5-4.5c0.3-0.2,0.3-0.6,0-0.9C20.5,110.6,20.5,110.6,20.5,110.6z"/>
		<path class="st11" d="M13.1,103.1l-0.3-0.1h-0.3l-0.3,0.1c-4.7,4.6-4.7,4.6-4.7,4.6c-0.2,0.3-0.1,0.5,0.2,0.5h2.1
			c0.3,0,0.6,0.3,0.6,0.6c0,3.4,0,3.4,0,3.4c0,0.3,0.3,0.6,0.6,0.6c3.4,0,3.4,0,3.4,0c0.4,0,0.7-0.3,0.7-0.6c0-3.4,0-3.4,0-3.4
			c0-0.3,0.3-0.6,0.6-0.6c1.9,0,1.9,0,1.9,0c0.3,0,0.4-0.2,0.2-0.5C13.1,103.1,13.1,103.1,13.1,103.1z"/>
		<path class="st11" d="M5.1,110.3c-0.1,0-0.2,0-0.3,0.1C0.2,115,0.2,115,0.2,115c-0.3,0.3-0.3,0.7,0,0.9c4.6,4.6,4.6,4.6,4.6,4.6
			c0.1,0.1,0.3,0.1,0.3,0.1c0.1,0,0.1-0.1,0.1-0.3v-9.7C5.3,110.5,5.2,110.3,5.1,110.3z"/>
		<path class="st11" d="M17.4,122.8h-1.8c-0.3,0-0.6-0.3-0.6-0.7c0-3.6,0-3.6,0-3.6c0-0.3-0.3-0.6-0.7-0.6c-3.4,0-3.4,0-3.4,0
			c-0.3,0-0.6,0.3-0.6,0.6c0,3.6,0,3.6,0,3.6c0,0.4-0.3,0.7-0.6,0.7c-1.9,0-1.9,0-1.9,0c-0.3,0-0.5,0.2-0.2,0.4
			c4.5,4.6,4.5,4.6,4.5,4.6c0.1,0.1,0.3,0.2,0.5,0.2s0.3-0.1,0.5-0.2c4.5-4.6,4.5-4.6,4.5-4.6C17.9,123,17.7,122.8,17.4,122.8z"/>
	</g>
</g>
<g id="g10_1_" transform="matrix(1.25,0,0,-1.25,0,76.9)">
	<g id="g12_1_" transform="scale(0.1,0.1)">
		<path id="path14_1_" class="st12" d="M1373.9-623.2l-83.6,18.6c-24.9,5.5-40.5,29.9-34.9,54.3c5.6,24.5,30.4,39.8,55.3,34.3
			s40.5-29.9,34.9-54.3c-2.8-12.3-10.4-22.2-20.5-28.4l0,0c-0.3-0.2-0.5-0.5-0.5-0.9c0-0.5,0.4-1,0.9-1.1l37.2-8.3
			c0.9-0.2,1.8,0.1,2.3,0.8l0,0c10.2,13.3,16.4,29.9,16.4,47.9c0,42.3-33.7,76.9-76.1,79.4c-0.4,0-2.7,0.1-3.5,0.1
			c-18.8,0.3-37.9-5-54.4-16.4c-41.9-28.8-52-85.4-22.7-126.6l74.4-104.3c0.3-0.4,0.8-0.7,1.4-0.7s1.1,0.3,1.4,0.7l73,102.3
			c0.2,0.3,0.3,0.6,0.3,1C1375.3-624,1374.7-623.3,1373.9-623.2"/>
		<path id="path16_1_" class="st13" d="M1445.5-529.7c0.9,0,1.5-0.3,1.8-0.9l24.8-41.6h1.2l21.1,41c0.4,1,1.3,1.5,2.5,1.5h15.1
			c1.3,0,2.1-1.3,1.5-2.3l-43.7-75.8c-0.4-0.9-1.3-1.3-2.5-1.3h-14.8c-1.6,0-1.8,1-1.2,2.2l11.7,19.7l-35,55.7
			c-0.6,1-0.1,1.9,0.9,1.9h16.6"/>
		<path id="path18_1_" class="st13" d="M1539.6-529.7c1.3,0,2.1-0.7,2.1-2v-31.2l33.4,32.1c0.9,0.7,2.2,1.2,3.9,1.2h18.1
			c1.3,0,1.8-1.2,0.7-2.2l-35.5-32.7L1600-607c1-1,0.4-2.2-0.9-2.2h-17.8c-1.6,0-2.8,0.4-3.7,1.5l-28.3,32.7l-7.7-7v-25.1
			c0-1.3-0.7-2-2.1-2h-13.1c-1.3,0-2.1,0.7-2.1,2v75.4c0,1.3,0.7,2,2.1,2L1539.6-529.7"/>
		<path id="path20_1_" class="st13" d="M1649.2-571.9c9.1,0,14.3,5.5,14.3,13.3c0,7.6-5.2,13-14.3,13h-21.5v-26.3H1649.2z
			 M1649.2-529.6c18,0,31.5-12.7,31.5-29c0-16.9-13.5-29.3-31.5-29.3h-21.5V-607c0-1.3-0.7-2-2.1-2h-13.1c-1.3,0-2.1,0.7-2.1,2v75.4
			c0,1.3,0.7,2,2.1,2H1649.2"/>
		<path id="path22_1_" class="st13" d="M1761.9-529.7c1.3,0,2.1-0.7,2.1-2v-75.4c0-1.3-0.7-2-2.1-2h-13.1c-1.3,0-2.1,0.7-2.1,2v61.6
			h-35.9v-61.6c0-1.3-0.7-2-2.1-2h-13.1c-1.3,0-2.1,0.7-2.1,2v75.4c0,1.3,0.7,2,2.1,2H1761.9"/>
		<path id="path24_1_" class="st13" d="M1796.7-569.5c0-14.4,10.4-24.9,25.2-24.9c14.7,0,25.1,10.5,25.1,24.9
			c0,14.7-10.4,25.1-25.1,25.1C1807.1-544.4,1796.7-554.7,1796.7-569.5 M1821.9-528.5c23.3,0,42.5-17.6,42.5-41
			c0-23.5-19.2-40.8-42.5-40.8c-23.5,0-42.6,17.4-42.6,40.8C1779.3-546.1,1798.5-528.5,1821.9-528.5"/>
		<path id="path26_1_" class="st13" d="M1922.1-593.2v61.6c0,1.3,0.7,2,2.1,2h12.8c1.3,0,2.1-0.7,2.1-2v-61.6h25.4v61.6
			c0,1.3,0.7,2,2.1,2h12.8c1.3,0,2.1-0.7,2.1-2V-607c0-1.3-0.7-2-2.1-2H1882c-1,0-2.1,0.7-2.1,2v75.4c0,1.3,0.7,2,2.1,2h12.8
			c1.3,0,2.1-0.7,2.1-2v-61.6L1922.1-593.2"/>
		<path id="path28_1_" class="st13" d="M2063.8-529.7c1.3,0,2.1-0.7,2.1-2v-12c0-1.3-0.7-2-2.1-2H2038v-61.4c0-1.3-0.7-2-2.1-2
			h-13.1c-1.3,0-2.1,0.7-2.1,2v61.4h-25.8c-1.3,0-2.1,0.7-2.1,2v12c0,1.3,0.7,2,2.1,2H2063.8"/>
		<path id="path30_1_" class="st13" d="M2093.2-578.1h28.2l-13.1,32.7h-1.6L2093.2-578.1z M2127.4-593.4H2087l-5.6-14
			c-0.4-1.2-1.3-1.8-2.5-1.8h-14.7c-1.5,0-1.9,0.7-1.5,2l35,76.3c0.3,0.7,0.9,1.2,1.9,1.2h16.9c1,0,1.6-0.4,1.9-1.2l33.4-76
			c0.4-1.2-0.3-2.3-1.6-2.3h-14.1c-1.5,0-2.5,0.7-3.1,2L2127.4-593.4"/>
		<path id="path32_1_" class="st14" d="M1439.4-677.3v34h22.8v-3.9H1444v-30.1H1439.4"/>
		<path id="path34_1_" class="st14" d="M1473.4-660.2c0-8.5,4.7-14,12.1-14c7.3,0,12,5.5,12,14c0,8.4-4.7,13.9-12.1,13.9
			C1477.2-646.4,1473.4-653,1473.4-660.2z M1502.1-660c0-10-5.6-18.1-16.6-18.1c-11.1,0-16.6,8.3-16.6,18.2
			c0,10.6,6.5,17.4,16.6,17.4C1496.2-642.4,1502.1-649.9,1502.1-660"/>
		<path id="path36_1_" class="st14" d="M1537.9-677.3h-4.6v30.1h-12.8l-0.7-19.2c-0.2-6.8-2.8-11.7-8-11.7c-1,0-2.4,0.3-3.3,0.7v3.8
			c0.6-0.4,1.9-0.5,2.5-0.5c2.5,0,4.3,1.3,4.5,10l0.6,20.7h21.8V-677.3"/>
		<path id="path38_1_" class="st14" d="M1553.3-660.2c0-8.5,4.7-14,12.1-14c7.3,0,12,5.5,12,14c0,8.4-4.7,13.9-12.1,13.9
			C1557.1-646.4,1553.3-653,1553.3-660.2z M1582-660c0-10-5.6-18.1-16.6-18.1c-11.1,0-16.6,8.3-16.6,18.2c0,10.6,6.5,17.4,16.6,17.4
			C1576.1-642.4,1582-649.9,1582-660"/>
		<path id="path40_1_" class="st14" d="M1597.2-673.5h9.2c4.6,0,9.2,0.3,9.2,6.3c0,5.9-5.3,5.9-9.9,5.9h-8.4L1597.2-673.5
			L1597.2-673.5z M1597.2-657.8h8.2c3.9,0,8.6,0.3,8.6,5.4c0,5.1-4,5.4-8.1,5.4h-8.7V-657.8z M1607.5-643.3c5.7,0,11.1-2.2,11.1-8.5
			c0-3.3-2-6.2-5.1-7.3c4.3-1,6.7-4.1,6.7-8.6c0-7.8-6.5-9.6-13.2-9.6h-14.3v34L1607.5-643.3"/>
		<path id="path42_1_" class="st14" d="M1658.6-677.3h-4.6v15.9h-18.3v-15.9h-4.6v34h4.6v-14.2h18.3v14.2h4.6V-677.3"/>
		<path id="path44_1_" class="st14" d="M1684.2-647.6l-6-15.7h11.9L1684.2-647.6z M1700.4-677.3h-5.1l-3.8,10.4h-14.6l-3.9-10.4
			h-4.9l13.6,34h5.2L1700.4-677.3"/>
		<path id="path46_1_" class="st14" d="M1756.9-677.3h-4.6v30.1H1734v-30.1h-4.6v34h27.5V-677.3"/>
		<path id="path48_1_" class="st14" d="M1772.3-660.2c0-8.5,4.7-14,12.1-14c7.3,0,12,5.5,12,14c0,8.4-4.7,13.9-12.1,13.9
			C1776.1-646.4,1772.3-653,1772.3-660.2z M1800.9-660c0-10-5.6-18.1-16.6-18.1c-11.1,0-16.6,8.3-16.6,18.2
			c0,10.6,6.5,17.4,16.6,17.4C1795-642.4,1800.9-649.9,1800.9-660"/>
		<path id="path50_1_" class="st14" d="M1811.7-643.3h4.6v-30.1h15.4v30.1h4.6v-30.1h15.4v30.1h4.6v-34h-44.5L1811.7-643.3"/>
		<path id="path52_1_" class="st14" d="M1893.9-647.2h-11.6v-30.1h-4.6v30.1H1866v3.9h27.9V-647.2"/>
		<path id="path54_1_" class="st14" d="M1911.6-647.6l-6-15.7h11.9L1911.6-647.6z M1927.8-677.3h-5.1l-3.8,10.4h-14.6l-3.9-10.4
			h-4.9l13.6,34h5.2L1927.8-677.3"/>
		<path id="path56_1_" class="st14" d="M1970.4-656.9l15.2-20.4h-5.8l-12.6,17.3l-5.7-5.4v-12h-4.6v34h4.6v-16.9l17.6,16.9h6
			L1970.4-656.9"/>
		<path id="path58_1_" class="st14" d="M1999.8-659.6h8.8c4.4,0,7.8,1.2,7.8,6.2c0,5.5-3.9,6.2-8.5,6.2h-8.2L1999.8-659.6
			L1999.8-659.6z M2009.5-643.3c6.6,0,11.5-2.7,11.5-9.8c0-7.7-5.1-10.3-11.8-10.3h-9.4v-14h-4.6v34L2009.5-643.3"/>
		<path id="path60_1_" class="st14" d="M2041.3-647.6l-6-15.7h11.9L2041.3-647.6z M2057.5-677.3h-5.1l-3.8,10.4H2034l-3.9-10.4h-4.9
			l13.6,34h5.2L2057.5-677.3"/>
		<path id="path62_1_" class="st14" d="M2076.2-640.3h-4.4v4.8h4.4V-640.3z M2071.6-677.3h-4.6v34h4.6V-677.3z M2067-640.3h-4.4v4.8
			h4.4V-640.3"/>
		<path id="path64_1_" class="st14" d="M2111.8-677.3h-4.6v15.9h-18.3v-15.9h-4.6v34h4.6v-14.2h18.3v14.2h4.6V-677.3"/>
		<path id="path66_1_" class="st14" d="M2124.4-643.3h4.6v-28.8h0.1l17,28.8h5.8v-34h-4.6v28.9h-0.1l-17.1-28.9h-5.7V-643.3"/>
	</g>
</g>
<g>
	<path class="st15" d="M38.9,144.8c0,3.5,0,3.5,0,3.5c-4.7,0-4.7,0-4.7,0c0-3.5,0-3.5,0-3.5c0-1-0.4-1.4-1.3-1.4c-2.4,0-2.4,0-2.4,0
		c0,2.3,0,2.3,0,2.3c1,0,1,0,1,0c0.1,0,0.1,0.1,0.1,0.1c0,9.8,0,9.8,0,9.8c2.6,0,2.6,0,2.6,0c0-4.9,0-4.9,0-4.9c4.7,0,4.7,0,4.7,0
		c0,4.9,0,4.9,0,4.9c2.6,0,2.6,0,2.6,0c0-9.8,0-9.8,0-9.8l0.1-0.1c1,0,1,0,1,0c0-2.3,0-2.3,0-2.3c-2.3,0-2.3,0-2.3,0
		C39.4,143.4,38.9,143.8,38.9,144.8z"/>
	<path class="st15" d="M50.8,143.3l-1.2-0.1h-0.1c-3.5,0-6.4,2.7-6.4,6.2c0,3.6,2.8,6.4,6.4,6.4h0.1l0,0l1.2-0.1
		c2.9-0.6,5.1-3.2,5.1-6.3C55.9,146.3,53.7,143.9,50.8,143.3z M50.9,153l-1.3,0.3h-0.1c-2,0-3.5-1.7-3.5-3.9c0-2.1,1.5-3.7,3.5-3.7
		h0.1l1.3,0.3c1.3,0.6,2.2,1.9,2.2,3.4C53.2,151,52.2,152.4,50.9,153z"/>
	<path class="st15" d="M57.5,154.2c0,1,0.4,1.4,1.3,1.4c1.6,0,2.4,0,2.8,0h0.2H62l0,0c2.5,0,4.3-1.4,4.3-3.7c0-1.2-0.7-2.3-1.6-2.7
		c0.5-0.5,1.1-1.3,1.1-2.5c0-2-1.4-3.3-3.8-3.3h-0.1h-1.8c-3.7,0-3.7,0-3.7,0c0,2.3,0,2.3,0,2.3c1.1,0,1.1,0,1.1,0L57.5,154.2z
		 M60.2,145.7c0.9,0,1.3,0,1.5,0h0.2l0,0l0,0c0.8,0,1.2,0.4,1.2,1.2s-0.4,1.3-1.2,1.3h-0.1h-1c-0.7,0-0.7,0-0.7,0
		C60.2,145.7,60.2,145.7,60.2,145.7z M60.2,150.4c0.5,0,0.9,0,1.1,0h0.6l0,0c0.2,0,0.2,0,0.2,0c0.9,0,1.4,0.5,1.4,1.4
		s-0.6,1.4-1.4,1.4h-0.3H61c-0.8,0-0.8,0-0.8,0c-0.1,0-0.1,0-0.1-0.1C60.2,150.4,60.2,150.4,60.2,150.4z"/>
	<path class="st15" d="M75.2,154.4c0.2,0.9,0.7,1.2,1.5,1.2c1.5,0,1.5,0,1.5,0c0-2.4,0-2.4,0-2.4c-0.4,0-0.4,0-0.4,0
		c-0.2,0-0.2,0-0.3-0.1c-3.5-9.7-3.5-9.7-3.5-9.7h-1.3h-0.2c-1.1,0-1.1,0-1.1,0c-3.5,9.7-3.5,9.7-3.5,9.7c-0.1,0.1-0.1,0.1-0.3,0.1
		c-0.5,0-0.5,0-0.5,0c0,2.4,0,2.4,0,2.4c1.6,0,1.6,0,1.6,0c0.9,0,1.3-0.3,1.5-1.1c0.8-2,0.8-2,0.8-2c0.4,0,0.8,0,1.2,0h0.6h0.3
		c1.5,0,1.5,0,1.5,0C75.2,154.4,75.2,154.4,75.2,154.4z M72.7,150.3h-0.2c-0.9,0-0.9,0-0.9,0c0.9-2.5,0.9-2.5,0.9-2.5
		c0-0.3,0.1-0.7,0.2-0.9c0.1,0.2,0.2,0.5,0.2,0.9c0.9,2.5,0.9,2.5,0.9,2.5H72.7z"/>
	<path class="st15" d="M94.7,153.1c0-8.3,0-8.3,0-8.3c0-1-0.5-1.4-1.4-1.4c-9.5,0-9.5,0-9.5,0c0,2.3,0,2.3,0,2.3c1.1,0,1.1,0,1.1,0
		c0,9.9,0,9.9,0,9.9c2.6,0,2.6,0,2.6,0c0-9.9,0-9.9,0-9.9c4.4,0,4.4,0,4.4,0c0.1,0,0.1,0.1,0.1,0.1c0,8.4,0,8.4,0,8.4
		c0,1,0.4,1.4,1.4,1.4c2.3,0,2.3,0,2.3,0c0-2.4,0-2.4,0-2.4c-0.9,0-0.9,0-0.9,0C94.7,153.2,94.7,153.2,94.7,153.1z"/>
	<path class="st15" d="M103.9,143.3l-1.3-0.1h-0.1c-3.5,0-6.2,2.7-6.2,6.2c0,3.6,2.7,6.4,6.2,6.4h0.1l1.3-0.1c2.9-0.6,5-3.2,5-6.3
		C108.9,146.3,106.8,143.9,103.9,143.3z M104,153l-1.4,0.3h-0.1c-2,0-3.5-1.7-3.5-3.9c0-2.1,1.5-3.7,3.5-3.7h0.1l1.4,0.3
		c1.3,0.6,2.2,1.9,2.2,3.4C106.2,151,105.3,152.4,104,153z"/>
	<path class="st15" d="M122.4,144.8c0,8.3,0,8.3,0,8.3c0,0.1,0,0.1-0.1,0.1c-3.2,0-3.2,0-3.2,0c0-9.8,0-9.8,0-9.8
		c-2.6,0-2.6,0-2.6,0c0,9.8,0,9.8,0,9.8c-3.2,0-3.2,0-3.2,0c-0.1,0-0.1,0-0.1-0.1c0-8.3,0-8.3,0-8.3c0-1-0.4-1.4-1.3-1.4
		c-2.4,0-2.4,0-2.4,0c0,2.3,0,2.3,0,2.3c1,0,1,0,1,0c0.1,0,0.1,0.1,0.1,0.1c0,8.4,0,8.4,0,8.4c0,1,0.4,1.4,1.4,1.4
		c11.7,0,11.7,0,11.7,0c0.9,0,1.3-0.4,1.3-1.4c0-8.4,0-8.4,0-8.4s0-0.1,0.1-0.1c1,0,1,0,1,0c0-2.3,0-2.3,0-2.3c-2.4,0-2.4,0-2.4,0
		C122.8,143.4,122.4,143.8,122.4,144.8z"/>
	<path class="st15" d="M137.7,146.8c0-2.1,0-2.1,0-2.1c0-0.9-0.3-1.3-1.3-1.3c-8.2,0-8.2,0-8.2,0c-0.9,0-1.2,0.4-1.2,1.3
		c0,2.1,0,2.1,0,2.1c2.4,0,2.4,0,2.4,0c0-1,0-1,0-1c0-0.1,0-0.1,0.1-0.1c1.5,0,1.5,0,1.5,0c0,9.9,0,9.9,0,9.9c2.6,0,2.6,0,2.6,0
		c0-9.9,0-9.9,0-9.9c1.5,0,1.5,0,1.5,0c0.1,0,0.1,0,0.1,0.1c0,1,0,1,0,1H137.7z"/>
	<path class="st15" d="M147.6,153.2c-0.2,0-0.2,0-0.3-0.1c-3.5-9.7-3.5-9.7-3.5-9.7h-1.3h-0.2c-1.1,0-1.1,0-1.1,0
		c-3.5,9.7-3.5,9.7-3.5,9.7c-0.1,0.1-0.1,0.1-0.3,0.1c-0.5,0-0.5,0-0.5,0c0,2.4,0,2.4,0,2.4c1.6,0,1.6,0,1.6,0
		c0.9,0,1.3-0.3,1.5-1.2c0.8-1.9,0.8-1.9,0.8-1.9c0.4,0,0.8,0,1.2,0h0.6h0.3c1.5,0,1.5,0,1.5,0c0.8,1.9,0.8,1.9,0.8,1.9
		c0.2,0.9,0.7,1.2,1.5,1.2c1.5,0,1.5,0,1.5,0c0-2.4,0-2.4,0-2.4H147.6z M142.4,150.3h-0.2c-0.9,0-0.9,0-0.9,0
		c0.9-2.5,0.9-2.5,0.9-2.5c0-0.3,0.1-0.7,0.2-0.9c0.1,0.2,0.2,0.5,0.2,0.9c0.9,2.5,0.9,2.5,0.9,2.5H142.4z"/>
	<g>
		<path class="st15" d="M20.5,144.6c-0.1-0.1-0.2-0.2-0.3-0.2c-0.1,0-0.1,0.1-0.1,0.3v9.5c0,0.2,0,0.3,0.1,0.3s0.2,0,0.3-0.1
			c4.5-4.5,4.5-4.5,4.5-4.5c0.3-0.2,0.3-0.6,0-0.9C20.5,144.6,20.5,144.6,20.5,144.6z"/>
		<path class="st15" d="M13.1,137.1l-0.3-0.1h-0.3l-0.3,0.1c-4.7,4.6-4.7,4.6-4.7,4.6c-0.2,0.3-0.1,0.5,0.2,0.5h2.1
			c0.3,0,0.6,0.3,0.6,0.6c0,3.4,0,3.4,0,3.4c0,0.3,0.3,0.6,0.6,0.6c3.4,0,3.4,0,3.4,0c0.4,0,0.7-0.3,0.7-0.6c0-3.4,0-3.4,0-3.4
			c0-0.3,0.3-0.6,0.6-0.6c1.9,0,1.9,0,1.9,0c0.3,0,0.4-0.2,0.2-0.5C13.1,137.1,13.1,137.1,13.1,137.1z"/>
		<path class="st15" d="M5.1,144.3c-0.1,0-0.2,0-0.3,0.1C0.2,149,0.2,149,0.2,149c-0.3,0.3-0.3,0.7,0,0.9c4.6,4.6,4.6,4.6,4.6,4.6
			c0.1,0.1,0.3,0.1,0.3,0.1c0.1,0,0.1-0.1,0.1-0.3v-9.7C5.3,144.5,5.2,144.3,5.1,144.3z"/>
		<path class="st15" d="M17.4,156.8h-1.8c-0.3,0-0.6-0.3-0.6-0.7c0-3.6,0-3.6,0-3.6c0-0.3-0.3-0.6-0.7-0.6c-3.4,0-3.4,0-3.4,0
			c-0.3,0-0.6,0.3-0.6,0.6c0,3.6,0,3.6,0,3.6c0,0.4-0.3,0.7-0.6,0.7c-1.9,0-1.9,0-1.9,0c-0.3,0-0.5,0.2-0.2,0.4
			c4.5,4.6,4.5,4.6,4.5,4.6c0.1,0.1,0.3,0.2,0.5,0.2s0.3-0.1,0.5-0.2c4.5-4.6,4.5-4.6,4.5-4.6C17.9,157,17.7,156.8,17.4,156.8z"/>
	</g>
</g>
<g>
	<path class="st16" d="M193,88.1v-1.6c-0.8,0-1.6-0.3-2-0.7l0.3-1.1c0.5,0.4,1.2,0.7,1.9,0.7c0.9,0,1.6-0.6,1.6-1.6
		c0-0.9-0.5-1.4-1.5-1.9c-1.4-0.6-2.2-1.4-2.2-2.7c0-1.3,0.8-2.3,2-2.5v-1.6h0.8v1.5c0.8,0,1.4,0.3,1.7,0.6l-0.3,1
		c-0.3-0.2-0.8-0.5-1.7-0.5c-1,0-1.4,0.7-1.4,1.4c0,0.8,0.5,1.2,1.7,1.8c1.4,0.7,2.1,1.5,2.1,2.9c0,1.3-0.7,2.4-2.1,2.7v1.6
		C193.9,88.1,193,88.1,193,88.1z"/>
</g>
<g>
	<path class="st16" d="M214.8,80l-2.5-2.5c-0.1-0.1-0.3-0.2-0.5-0.2h-1.6v-1.5c0-0.4-0.3-0.7-0.7-0.7h-9.9c-0.4,0-0.7,0.3-0.7,0.7v8
		c0,0.4,0.3,0.7,0.7,0.7h0.8c0.1,0.9,0.8,1.7,1.7,1.7h0.1c0.1,0,0.2,0,0.4,0c0.3-0.1,0.6-0.2,0.8-0.4c0.3,0.2,0.6,0.4,0.9,0.4
		c0.2,0,0.3,0,0.5,0c0.9-0.1,1.7-0.8,1.7-1.7h3.6c0,0.3,0.2,0.7,0.3,0.9c0,0,0.1,0.2,0.4,0.4c0.3,0.3,0.7,0.4,1.1,0.4
		c0.6,0,1.2-0.3,1.5-0.8c0.2-0.3,0.3-0.6,0.4-0.9h0.4c0.4,0,0.7-0.3,0.7-0.7v-3.3C215,80.3,214.9,80.1,214.8,80z M204.7,85.4h-0.1
		c-0.3-0.1-0.5-0.2-0.7-0.4l-0.1-0.1l-0.2-0.3l-0.3,0.4c0,0,0,0-0.1,0.1s-0.2,0.2-0.4,0.3l0,0c-0.1,0-0.1,0-0.2,0.1
		c-0.1,0-0.1,0-0.2,0c-0.6,0-1-0.4-1-1s0.5-1,1-1c0.3,0,0.7,0.2,0.8,0.4l0.3,0.4l0.3-0.4c0.2-0.3,0.5-0.4,0.8-0.4c0.6,0,1,0.4,1,1
		S205.3,85.4,204.7,85.4z M213,84.7C213,84.8,213,84.8,213,84.7c-0.1,0.1-0.1,0.2-0.2,0.2c-0.2,0.2-0.5,0.3-0.8,0.4
		c-0.3,0-0.5-0.1-0.7-0.2c0,0,0,0-0.1,0l0,0c-0.2-0.2-0.3-0.4-0.3-0.7c0-0.6,0.5-1,1-1c0.6,0,1,0.5,1,1
		C213.1,84.5,213.1,84.6,213,84.7z M213.7,83.6c-0.3-0.6-0.9-1-1.6-1s-1.3,0.4-1.6,1h-4.2c-0.3-0.6-0.9-1-1.6-1
		c-0.4,0-0.8,0.2-1.1,0.4c-0.3-0.3-0.7-0.4-1.1-0.4c-0.7,0-1.3,0.4-1.6,1h-0.4l-0.8,0.1l-0.1-7.9h5.6h4.3V78h2.3l2.5,2.5l0.1,3.2
		L213.7,83.6L213.7,83.6z"/>
	<path class="st16" d="M210,78.6v2.6c0,0.6,0.5,1.1,1.1,1.1h2.6v-1.5l-2.1-2.1L210,78.6L210,78.6z M212.9,81.6H211
		c-0.2,0-0.4-0.2-0.4-0.4v-1.9h0.6l1.7,1.7L212.9,81.6L212.9,81.6z"/>
</g>
<g>
	<g>
		<g>
			<path class="st16" d="M231.9,87.8l-1-2.8c0.5-0.9,0.7-2,0.7-3c0-1.8-0.7-3.5-2-4.8s-3-2-4.8-2.1c-0.9,0-1.9,0.2-2.7,0.5
				s-1.6,0.8-2.2,1.5c-0.6,0.6-1.1,1.4-1.5,2.2c-0.4,0.9-0.5,1.8-0.5,2.7c0,1.8,0.8,3.5,2.1,4.8s3,2,4.8,2l0,0c1,0,2.1-0.2,3-0.7
				l2.8,1c0.1,0,0.2,0.1,0.3,0.1c0.3,0,0.5-0.1,0.7-0.3C232,88.5,232.1,88.1,231.9,87.8z M231.1,88.2c0,0-0.1,0.1-0.2,0l-3-1h-0.1
				c-0.1,0-0.1,0-0.2,0c-0.9,0.5-1.8,0.7-2.8,0.7c-3.3,0-6-2.6-6-5.9c0-1.6,0.6-3.2,1.8-4.4c1.2-1.2,2.7-1.8,4.4-1.8
				c3.3,0.1,5.9,2.8,5.9,6c0,1-0.2,1.9-0.7,2.8c-0.1,0.1-0.1,0.2,0,0.3l1,3C231.2,88.1,231.1,88.2,231.1,88.2z"/>
		</g>
	</g>
	<g>
		<g>
			<path class="st16" d="M224.8,84.5c-0.4,0-0.8,0.3-0.8,0.8c0,0.4,0.3,0.8,0.8,0.8c0.4,0,0.8-0.3,0.8-0.8
				C225.5,84.8,225.2,84.5,224.8,84.5z"/>
		</g>
	</g>
	<path class="st16" d="M224.8,77.7L224.8,77.7c0.4,0,0.8,0.3,0.8,0.7l-0.3,4.5c0,0.2-0.2,0.4-0.4,0.4l0,0c-0.2,0-0.4-0.2-0.4-0.4
		l-0.3-4.5C224,78,224.3,77.7,224.8,77.7z"/>
</g>
<polygon class="st17" points="205.4,2.9 202.6,0 202,0.6 204.8,3.5 202,6.4 202.6,7 205.4,4.1 206,3.5 "/>
<polygon points="210,11.5 208.5,10 206,12.5 203.4,10 202,11.5 204.5,14 202,16.5 203.4,18 206,15.5 208.5,18 210,16.5 207.4,14 "/>
<g>
	<g>
		<g>
			<g>
				<path d="M226.1,14.1l-0.8-10c0-0.2-0.2-0.4-0.5-0.4h-10.6c-0.2,0-0.5,0.2-0.5,0.4L213,14.2c0,0.1,0,0.3,0.1,0.3
					c0.1,0.1,0.2,0.1,0.3,0.1h12.2l0,0C225.9,14.6,226.1,14.4,226.1,14.1C226.1,14.2,226.1,14.1,226.1,14.1z M214,13.8l0.7-9.2h9.7
					l0.7,9.2H214z"/>
			</g>
		</g>
		<g>
			<g>
				<path d="M219.6,0c-2.1,0-3.8,1.6-3.8,3.7v1.8c0,0.3,0.2,0.5,0.5,0.5s0.5-0.2,0.5-0.5V3.7c0-1.5,1.3-2.8,2.8-2.8s2.8,1.2,2.8,2.8
					v1.8c0,0.3,0.2,0.5,0.5,0.5s0.5-0.2,0.5-0.5V3.7C223.3,1.6,221.6,0,219.6,0z"/>
			</g>
		</g>
	</g>
	<ellipse class="st18" cx="223.3" cy="12.4" rx="4.7" ry="4.6"/>
	<g>
		<rect x="220.9" y="12" class="st5" width="4.8" height="0.9"/>
		<rect x="222.8" y="10.1" class="st5" width="0.9" height="4.6"/>
	</g>
</g>
<g>
	<path d="M239.5,10c-2.3,0-4.4-0.9-6.1-2.5L231,5l2.4-2.4c3.3-3.4,8.8-3.4,12.1,0L248,5l-2.4,2.4C244,9.1,241.8,10,239.5,10z
		 M232.5,5l1.8,1.8c1.4,1.4,3.3,2.2,5.3,2.2s3.9-0.8,5.3-2.2l1.8-1.8l-1.8-1.8c-2.9-2.9-7.6-2.9-10.5,0L232.5,5z"/>
	<g>
		<path d="M239.5,7.9c-1.5,0-2.7-1.3-2.7-2.9s1.2-2.9,2.7-2.9s2.7,1.3,2.7,2.9S241,7.9,239.5,7.9z M239.5,3c-1,0-1.8,0.9-1.8,2
			s0.8,2,1.8,2s1.8-0.9,1.8-2S240.5,3,239.5,3z"/>
	</g>
</g>
<g>
	<polygon points="254.5,12 251,8.5 251.7,7.7 254.5,10.6 257.3,7.7 258,8.5 	"/>
	<polygon points="257.3,4.3 254.5,1.4 251.7,4.3 251,3.5 254.5,0 258,3.5 	"/>
</g>
<g>
	<polygon class="st5" points="328.5,57 325,53.5 325.7,52.7 328.5,55.6 331.3,52.7 332,53.5 	"/>
	<polygon class="st5" points="331.3,49.3 328.5,46.4 325.7,49.3 325,48.5 328.5,45 332,48.5 	"/>
</g>
<path class="st5" d="M272,12.5l-0.7-8.9c0-0.2-0.2-0.4-0.4-0.4h-1.3c0-1.8-1.4-3.2-3.2-3.2s-3.2,1.5-3.2,3.2h-1.3
	c-0.2,0-0.4,0.2-0.4,0.4l-0.7,8.9c0,0.1,0,0.2,0.1,0.3s0.2,0.1,0.3,0.1h10.2l0,0c0.2,0,0.4-0.2,0.4-0.4C272,12.6,272,12.5,272,12.5z
	 M266.5,0.8c1.3,0,2.4,1.1,2.4,2.4h-4.8C264.1,1.9,265.2,0.8,266.5,0.8z M261.8,12.2l0.6-8.1h0.9v0.8c0,0.2,0.2,0.4,0.4,0.4
	c0.2,0,0.4-0.2,0.4-0.4V4.1h4.8v0.8c0,0.2,0.2,0.4,0.4,0.4c0.2,0,0.4-0.2,0.4-0.4V4.1h0.9l0.6,8.1C271.2,12.2,261.8,12.2,261.8,12.2
	z"/>
<g>
	<g id="filter">
		<path d="M279.7,8h2.7V6.4h-2.7V8z M275,0v1.6h12V0H275z M277,4.8h8V3.2h-8V4.8z"/>
	</g>
</g>
<g>
	<g id="filter_1_">
		<path class="st5" d="M294.7,8h2.7V6.4h-2.7V8z M290,0v1.6h12V0H290z M292,4.8h8V3.2h-8V4.8z"/>
	</g>
</g>
<g>
	<g>
		<path d="M229.4,65.3h-7c-0.3,0-0.6-0.3-0.6-0.6v-5l-1.7-1.8c-0.1-0.1-0.2-0.3-0.2-0.4c0-0.2,0.1-0.3,0.2-0.4l2.3-2.1
			c0.1,0,0.1-0.1,0.2-0.1l1.7-0.6c0.1,0,0.1,0,0.2,0c0.3,0,0.6,0.2,0.6,0.6c0,0.1,0.1,0.8,0.8,0.8c0.8,0,0.8-0.8,0.8-0.8
			c0-0.1,0-0.1,0-0.2c0.1-0.1,0.2-0.3,0.3-0.3c0.1-0.1,0.3-0.1,0.4,0l1.7,0.6c0.1,0,0.1,0.1,0.2,0.1l2.4,2.1l0,0
			c0.1,0.1,0.2,0.3,0.2,0.4c0,0.2-0.1,0.3-0.2,0.4l-1.7,1.8v5C230,65.1,229.8,65.3,229.4,65.3z M222.6,64.6h6.7v-5.1l1.8-1.9l-2.2-2
			l-1.5-0.5c-0.1,0.5-0.4,1.3-1.5,1.4c-1.1,0-1.5-0.8-1.5-1.4l-1.5,0.5l-2.2,2l1.8,1.9L222.6,64.6L222.6,64.6z M231.2,57.5
			L231.2,57.5L231.2,57.5z M222.9,55.6L222.9,55.6L222.9,55.6z M228.9,55.6L228.9,55.6L228.9,55.6z M227.3,55.1L227.3,55.1
			L227.3,55.1z"/>
	</g>
</g>
<g>
	<path d="M248.1,57.1c-0.7,0-1.4,0.2-1.9,0.7c-0.9-0.9-2.1-1.5-3.4-1.5h-0.5c-2.5,0-4.5,1.9-4.7,4.3h-0.2c-1.3,0-2.4,1.1-2.4,2.4
		s1.1,2.4,2.4,2.4H248c1.2,0,2.2-1,2.2-2.2c0-0.2,0-0.4-0.1-0.6c0.7-0.6,1.1-1.4,1.1-2.3C251.2,58.5,249.8,57.1,248.1,57.1z
		 M248,64.6h-10.7c-0.9,0-1.6-0.7-1.6-1.6c0-0.9,0.7-1.6,1.6-1.6h0.9V61c0-2.2,1.8-4,4-4h0.5c2.2,0,4,1.8,4,4v0.6h1.3
		c0.8,0,1.5,0.7,1.5,1.5S248.8,64.6,248,64.6z M249.8,61.8c-0.4-0.6-1.1-0.9-1.8-0.9h-0.5c0-0.9-0.3-1.8-0.8-2.5
		c0.4-0.3,0.9-0.5,1.5-0.5c1.3,0,2.4,1,2.4,2.3C250.4,60.8,250.2,61.4,249.8,61.8z"/>
	<path d="M246.2,56.2c0.1,0.3,0.4,0.4,0.7,0.3c0.3-0.1,0.4-0.4,0.3-0.7l-0.4-1.1c-0.1-0.3-0.4-0.4-0.7-0.3c-0.3,0.1-0.4,0.4-0.3,0.7
		L246.2,56.2z"/>
	<path d="M249.3,56.4c0.3,0.1,0.6,0,0.7-0.3l0.5-1.1c0.1-0.3,0-0.6-0.3-0.7c-0.3-0.1-0.6,0-0.7,0.3l-0.5,1.1
		C248.9,56,249,56.3,249.3,56.4z"/>
	<path d="M252,58.2l1-0.6c0.3-0.1,0.4-0.5,0.2-0.7c-0.1-0.3-0.5-0.4-0.7-0.2l-1,0.6c-0.3,0.1-0.4,0.5-0.2,0.7
		C251.4,58.3,251.7,58.4,252,58.2z"/>
	<path d="M253.5,60.2l-1.2-0.2c-0.3,0-0.6,0.2-0.6,0.5s0.2,0.6,0.5,0.6l1.2,0.2c0.3,0,0.6-0.2,0.6-0.5S253.8,60.3,253.5,60.2z"/>
</g>
<g>
	<g>
		<g>
			<path d="M270.9,67l-1-2.8c0.5-0.9,0.7-2,0.7-3c0-1.8-0.7-3.5-2-4.8s-3-2-4.8-2.1c-0.9,0-1.9,0.2-2.7,0.5
				c-0.8,0.3-1.6,0.8-2.2,1.5c-0.6,0.6-1.1,1.4-1.5,2.2c-0.4,0.9-0.5,1.8-0.5,2.7c0,1.8,0.8,3.5,2.1,4.8c1.3,1.3,3,2,4.8,2l0,0
				c1,0,2.1-0.2,3-0.7l2.8,1c0.1,0,0.2,0.1,0.3,0.1c0.3,0,0.5-0.1,0.7-0.3C270.9,67.8,271,67.4,270.9,67z M270,67.5
				c0,0-0.1,0.1-0.2,0l-3-1h-0.1c-0.1,0-0.1,0-0.2,0c-0.9,0.5-1.8,0.7-2.8,0.7c-3.3,0-6-2.6-6-5.9c0-1.6,0.6-3.2,1.8-4.4
				c1.2-1.2,2.7-1.8,4.4-1.8c3.3,0.1,5.9,2.8,5.9,6c0,1-0.2,1.9-0.7,2.8c-0.1,0.1-0.1,0.2,0,0.3l1,3C270.1,67.4,270.1,67.4,270,67.5
				z"/>
		</g>
	</g>
	<g>
		<g>
			<path d="M263.7,63.7c-0.4,0-0.8,0.3-0.8,0.8c0,0.4,0.3,0.8,0.8,0.8c0.4,0,0.8-0.3,0.8-0.8C264.4,64.1,264.1,63.7,263.7,63.7z"/>
		</g>
	</g>
	<path d="M263.7,57L263.7,57c0.4,0,0.8,0.3,0.8,0.7l-0.3,4.5c0,0.2-0.2,0.4-0.4,0.4l0,0c-0.2,0-0.4-0.2-0.4-0.4l-0.3-4.5
		C262.9,57.3,263.3,57,263.7,57z"/>
</g>
<g>
	<g>
		<g>
			<path d="M324.9,36l-1.4-4c0.7-1.3,1-2.8,1-4.3c0-2.6-1-5-2.8-6.8c-1.9-1.8-4.3-2.8-6.8-3c-1.3,0-2.7,0.3-3.8,0.7
				c-1.1,0.4-2.3,1.1-3.1,2.1c-0.9,0.9-1.6,2-2.1,3.1c-0.6,1.3-0.7,2.6-0.7,3.8c0,2.6,1.1,5,3,6.8s4.3,2.8,6.8,2.8l0,0
				c1.4,0,3-0.3,4.3-1l4,1.4c0.1,0,0.3,0.1,0.4,0.1c0.4,0,0.7-0.1,1-0.4C324.9,37.1,325.1,36.6,324.9,36z M323.7,36.7
				c0,0-0.1,0.1-0.3,0l-4.3-1.4H319c-0.1,0-0.1,0-0.3,0c-1.3,0.7-2.6,1-4,1c-4.7,0-8.5-3.7-8.5-8.4c0-2.3,0.9-4.5,2.6-6.2
				c1.7-1.7,3.8-2.6,6.3-2.6c4.7,0.1,8.4,4,8.4,8.5c0,1.4-0.3,2.7-1,4c-0.1,0.1-0.1,0.3,0,0.4l1.4,4.3
				C323.8,36.6,323.8,36.6,323.7,36.7z"/>
		</g>
	</g>
	<g>
		<g>
			<path d="M314.7,31.3c-0.6,0-1.1,0.4-1.1,1.1c0,0.6,0.4,1.1,1.1,1.1c0.6,0,1.1-0.4,1.1-1.1C315.7,31.9,315.3,31.3,314.7,31.3z"/>
		</g>
	</g>
	<path d="M314.7,21.8L314.7,21.8c0.6,0,1.1,0.4,1.1,1l-0.4,6.4c0,0.3-0.3,0.6-0.6,0.6l0,0c-0.3,0-0.6-0.3-0.6-0.6l-0.4-6.4
		C313.5,22.3,314.1,21.8,314.7,21.8z"/>
</g>
<g>
	<path d="M325.7,7.4c1.3-0.7,2.1-2,2.1-3.5c0-2.2-1.8-4-4-4s-4,1.8-4,4c0,1.5,0.9,2.8,2.1,3.5c-1.8,0.7-3,2.4-3,4.4v1.8h0.8v-1.8
		c0-2.2,1.8-4,4-4s4,1.8,4,4v1.8h0.8v-1.8C328.7,9.8,327.5,8.1,325.7,7.4z M320.7,4c0-1.7,1.4-3.2,3.1-3.2s3.1,1.4,3.1,3.2
		c0,1.7-1.4,3.1-3.1,3.1S320.7,5.7,320.7,4z"/>
	<path d="M335,0h-6v0.8h6c0.6,0,1.2,0.5,1.2,1.1V12c0,0.6-0.5,1.1-1.2,1.1h-4.2V14h4.2c1.1,0,2-0.9,2-1.9V1.9C337,0.9,336.1,0,335,0
		z"/>
	<rect x="329.9" y="2.9" width="4.3" height="0.8"/>
	<rect x="328.9" y="5.5" width="5.7" height="0.8"/>
	<rect x="330.6" y="8" width="4" height="0.8"/>
</g>
<path d="M353.7,3.8l-6.4-3.7c-0.2-0.1-0.5-0.1-0.7,0l-6.4,3.7h-0.1l0,0L340,3.9v0.2l0,0v0.1v7.5c0,0.2,0.1,0.4,0.3,0.5l6.4,3.7l0,0
	l0,0c0.1,0,0.2,0,0.2,0c0.1,0,0.2,0,0.2,0l0,0L354,12V4.3C354,4.1,353.9,3.9,353.7,3.8z M347,0.7l6,3.5l-6,3.4l-5.9-3.4L347,0.7z
	 M340.7,4.8l1.6,0.9v3.2h0.7V6.1l1.2,0.7v3.3h0.7V7.2l1.7,1v6.9l-5.9-3.4L340.7,4.8L340.7,4.8z M347.4,15.1V8.2l5.9-3.4v6.9
	L347.4,15.1z"/>
<g>
	<g>
		<path d="M367,20c-0.3,0-0.6-0.1-0.9-0.3l-1.9-1.8c-0.1-0.1-0.2-0.1-0.2-0.1l-2.6,0.1c-0.7,0-1.2-0.5-1.3-1.1l-0.4-2.6
			c0-0.1-0.1-0.2-0.1-0.2l-2.1-1.6c-0.5-0.4-0.6-1.1-0.3-1.7l1.4-2.3c0-0.1,0.1-0.2,0-0.2L358,5.6c-0.1-0.6,0.2-1.3,0.9-1.5l2.5-0.8
			c0.1,0,0.1-0.1,0.2-0.2l1.2-2.4c0.3-0.6,1-0.8,1.6-0.6l2.4,1c0.1,0,0.2,0,0.2,0l2.4-1c0.6-0.3,1.3,0,1.6,0.6l1.2,2.4
			c0,0.1,0.1,0.1,0.2,0.2l2.5,0.8c0.6,0.2,1,0.8,0.9,1.5l-0.6,2.6c0,0.1,0,0.2,0,0.2l1.4,2.3c0.3,0.6,0.2,1.3-0.3,1.7l-2.1,1.6
			c-0.1,0.1-0.1,0.1-0.1,0.2l-0.4,2.6c-0.1,0.7-0.7,1.1-1.3,1.1l-2.6-0.1c-0.1,0-0.2,0-0.2,0.1l-1.9,1.8C367.6,19.9,367.3,20,367,20
			z M364,16.8c0.3,0,0.6,0.1,0.9,0.3l1.9,1.8c0.1,0.1,0.3,0.1,0.4,0l1.9-1.8c0.2-0.2,0.6-0.4,0.9-0.3l2.6,0.1c0.2,0,0.3-0.1,0.3-0.3
			l0.4-2.6c0-0.3,0.2-0.6,0.5-0.8l2.1-1.6c0.1-0.1,0.2-0.3,0.1-0.4l-1.4-2.3c-0.2-0.3-0.2-0.6-0.2-1l0.6-2.6c0-0.2-0.1-0.3-0.2-0.4
			l-2.5-0.8c-0.3-0.1-0.6-0.3-0.7-0.6l-1.2-2.4c-0.1-0.1-0.2-0.2-0.4-0.2l-2.4,1c-0.3,0.1-0.7,0.1-1,0l-2.4-1
			c-0.1-0.1-0.3,0-0.4,0.2l-1.2,2.4c-0.2,0.3-0.4,0.5-0.7,0.6l-2.5,0.8C359.1,5,359,5.1,359,5.3l0.6,2.6c0.1,0.3,0,0.7-0.2,1
			l-1.4,2.3c-0.1,0.1-0.1,0.3,0.1,0.4l2.1,1.6c0.3,0.2,0.4,0.5,0.5,0.8l0.4,2.6c0,0.2,0.2,0.3,0.3,0.3L364,16.8L364,16.8z"/>
	</g>
	<g>
		<path d="M366.2,6.8c0.2,0.1,0.4,0.3,0.6,0.6c0.1,0.2,0.2,0.5,0.2,0.8c0,0.3-0.1,0.6-0.2,0.8s-0.3,0.4-0.6,0.6
			c-0.2,0.1-0.5,0.2-0.8,0.2s-0.6-0.1-0.8-0.2c-0.2-0.1-0.4-0.3-0.6-0.6s-0.2-0.5-0.2-0.8s0.1-0.6,0.2-0.8c0.1-0.2,0.3-0.4,0.6-0.6
			c0.2-0.1,0.5-0.2,0.8-0.2C365.7,6.5,365.9,6.6,366.2,6.8z M364.9,7.3c-0.1,0.1-0.3,0.2-0.4,0.4c-0.1,0.2-0.1,0.3-0.1,0.5
			c0,0.2,0,0.3,0.1,0.5c0.1,0.1,0.2,0.3,0.4,0.4c0.2,0.1,0.3,0.1,0.5,0.1s0.3,0,0.5-0.1c0.1-0.1,0.3-0.2,0.4-0.4
			c0.1-0.1,0.1-0.3,0.1-0.5s0-0.3-0.1-0.5s-0.2-0.3-0.4-0.4c-0.1-0.1-0.3-0.1-0.5-0.1C365.2,7.2,365.1,7.2,364.9,7.3z M369.3,6.5
			c0.1,0,0.2,0,0.2,0.1c0.1,0.1,0.1,0.1,0.1,0.2s0,0.1-0.1,0.2l-4.5,5.8c-0.1,0.1-0.2,0.1-0.2,0.1c-0.1,0-0.2,0-0.2-0.1
			c-0.1-0.1-0.1-0.1-0.1-0.2c0-0.1,0-0.1,0.1-0.2l4.5-5.8C369.1,6.6,369.2,6.5,369.3,6.5z M369.5,10c0.2,0.1,0.4,0.3,0.6,0.6
			c0.1,0.2,0.2,0.5,0.2,0.8s-0.1,0.6-0.2,0.8s-0.3,0.4-0.6,0.6c-0.2,0.1-0.5,0.2-0.8,0.2s-0.6-0.1-0.8-0.2c-0.2-0.1-0.4-0.3-0.6-0.6
			c-0.1-0.2-0.2-0.5-0.2-0.8s0.1-0.6,0.2-0.8s0.3-0.4,0.6-0.6c0.2-0.1,0.5-0.2,0.8-0.2S369.2,9.9,369.5,10z M368,10.7
			c-0.2,0.2-0.3,0.4-0.3,0.7s0.1,0.5,0.3,0.7c0.2,0.2,0.4,0.3,0.7,0.3c0.2,0,0.3,0,0.5-0.1c0.1-0.1,0.3-0.2,0.4-0.4s0.1-0.3,0.1-0.5
			s0-0.3-0.1-0.5s-0.2-0.3-0.4-0.4c-0.1-0.1-0.3-0.1-0.5-0.1C368.4,10.4,368.2,10.5,368,10.7z"/>
	</g>
</g>
<g>
	<g>
		<g>
			<path class="st19" d="M333,32.2h-3.7c-0.2,0-0.4-0.2-0.4-0.4v-7.5c0-0.2,0.2-0.4,0.4-0.4h3.7c0.2,0,0.4-0.2,0.4-0.4
				S333.2,23,333,23h-3.7c-0.7,0-1.2,0.6-1.2,1.3v7.5c0,0.7,0.6,1.2,1.2,1.2h3.7c0.2,0,0.4-0.2,0.4-0.4
				C333.4,32.4,333.2,32.2,333,32.2z"/>
		</g>
	</g>
	<g>
		<g>
			<path class="st19" d="M337.9,27.7l-2.5-2.5c-0.2-0.2-0.4-0.2-0.6,0s-0.2,0.4,0,0.6l1.8,1.8h-4.8c-0.2,0-0.4,0.2-0.4,0.4
				c0,0.2,0.2,0.4,0.4,0.4h4.8l-1.8,1.8c-0.2,0.2-0.2,0.4,0,0.6c0.1,0.1,0.2,0.1,0.3,0.1c0.1,0,0.2,0,0.3-0.1l2.5-2.5
				c0.1-0.1,0.1-0.2,0.1-0.3C338,27.9,337.9,27.8,337.9,27.7z"/>
		</g>
	</g>
</g>
<g>
	<g>
		<path class="st0" d="M273.3,13.8h-12.1c-1.1,0-2,0.9-2,1.9v8.1c0,1.1,0.9,1.9,2,1.9h12.1c1.1,0,2-0.9,2-1.9v-8.1
			C275.3,14.7,274.4,13.8,273.3,13.8z M274.4,23.9c0,0.6-0.5,1-1.1,1h-12.1c-0.6,0-1.1-0.5-1.1-1v-8.1c0-0.6,0.5-1,1.1-1h12.1
			c0.6,0,1.1,0.5,1.1,1V23.9L274.4,23.9z"/>
		<path class="st0" d="M269.4,19.7l3.9-3.5c0.2-0.2,0.2-0.4,0-0.6c-0.2-0.2-0.4-0.2-0.6,0l-5.4,4.8l-1.1-0.9l0,0c0,0,0,0-0.1-0.1
			l-4.3-3.8c-0.2-0.2-0.5-0.1-0.6,0s-0.1,0.5,0,0.6l4,3.5l-3.9,3.6c-0.2,0.2-0.2,0.4,0,0.6c0.1,0.1,0.2,0.1,0.3,0.1
			c0.1,0,0.2,0,0.3-0.1l4-3.7l1.1,1c0.1,0.1,0.2,0.1,0.3,0.1c0.1,0,0.2,0,0.3-0.1l1.1-1l4,3.7c0.1,0.1,0.2,0.1,0.3,0.1
			c0.1,0,0.2,0,0.3-0.1c0.2-0.2,0.2-0.5,0-0.6L269.4,19.7z"/>
	</g>
</g>
<g id="Personal">
	<g id="Site_Personal-Copy" transform="translate(-60.000000, -12.000000)">
		<g id="Header">
			<g id="logo_liqpay" transform="translate(60.000000, 12.000000)">
				<polygon id="Shape" class="st20" points="341.6,73.1 348.8,81.3 341.6,89.5 343.6,91.2 352.3,81.3 343.6,71.4 				"/>
				<polygon id="Shape_1_" class="st20" points="350.3,73.1 357.5,81.3 350.3,89.5 352.3,91.2 361,81.3 352.3,71.4 				"/>
				<path id="Shape_2_" class="st20" d="M266,88.9c0,0.2,0,0.3,0,0.4s0,0.2-0.1,0.3c0,0.1-0.1,0.1-0.1,0.2c-0.1,0-0.1,0.1-0.2,0.1
					h-7.7c-0.2,0-0.4-0.1-0.6-0.2S257,89.3,257,89V73.2c0-0.1,0-0.1,0.1-0.2c0-0.1,0.1-0.1,0.2-0.1s0.2-0.1,0.4-0.1
					c0.2,0,0.3,0,0.5,0s0.4,0,0.6,0c0.1,0,0.3,0,0.4,0.1c0.1,0,0.2,0.1,0.2,0.1c0,0.1,0.1,0.1,0.1,0.2v14.7h6.2c0.1,0,0.1,0,0.2,0.1
					c0.1,0,0.1,0.1,0.1,0.2s0.1,0.2,0.1,0.3C266,88.6,266,88.7,266,88.9L266,88.9L266,88.9z"/>
				<path id="Shape_3_" class="st20" d="M270.8,89.5c0,0.1,0,0.1-0.1,0.2c0,0.1-0.1,0.1-0.2,0.1s-0.2,0.1-0.4,0.1
					c-0.1,0-0.3,0-0.6,0c-0.2,0-0.4,0-0.5,0c-0.2,0-0.3,0-0.4-0.1c-0.1,0-0.2-0.1-0.2-0.1c0-0.1-0.1-0.1-0.1-0.2V73.2
					c0-0.1,0-0.1,0.1-0.2c0-0.1,0.1-0.1,0.2-0.1s0.2-0.1,0.4-0.1c0.1,0,0.3,0,0.5,0s0.4,0,0.6,0c0.1,0,0.3,0,0.4,0.1
					c0.1,0,0.2,0.1,0.2,0.1c0,0.1,0.1,0.1,0.1,0.2V89.5L270.8,89.5L270.8,89.5z"/>
				<path id="Shape_4_" class="st20" d="M292.1,91.4c0,0.2,0,0.4,0,0.5s-0.1,0.2-0.1,0.3c0,0.1-0.1,0.1-0.1,0.2s-0.1,0-0.2,0
					c-0.2,0-0.5-0.1-0.9-0.2s-0.9-0.4-1.4-0.6c-0.5-0.3-1.1-0.6-1.7-1s-1.2-0.9-1.7-1.4c-0.4,0.3-1,0.5-1.7,0.7s-1.4,0.3-2.3,0.3
					c-1.3,0-2.4-0.2-3.4-0.6s-1.7-0.9-2.4-1.7c-0.6-0.7-1.1-1.6-1.4-2.7s-0.5-2.3-0.5-3.7c0-1.4,0.2-2.6,0.5-3.7s0.8-2,1.5-2.8
					s1.5-1.4,2.5-1.8s2.1-0.6,3.5-0.6c1.2,0,2.3,0.2,3.3,0.6c0.9,0.4,1.7,0.9,2.4,1.7c0.6,0.7,1.1,1.6,1.4,2.7s0.5,2.3,0.5,3.7
					c0,0.7,0,1.4-0.1,2s-0.2,1.3-0.4,1.8c-0.2,0.6-0.4,1.1-0.7,1.6c-0.3,0.5-0.6,0.9-1,1.3c0.7,0.5,1.2,0.9,1.7,1.2
					c0.5,0.3,0.9,0.5,1.2,0.7c0.3,0.1,0.6,0.3,0.7,0.3c0.2,0.1,0.3,0.1,0.4,0.2s0.2,0.2,0.2,0.4C292.1,90.9,292.1,91.1,292.1,91.4
					L292.1,91.4L292.1,91.4z M287.5,81.3c0-1-0.1-1.9-0.3-2.7c-0.2-0.8-0.5-1.5-0.9-2.2c-0.4-0.6-0.9-1.1-1.6-1.4s-1.5-0.5-2.5-0.5
					s-1.8,0.2-2.5,0.5c-0.7,0.4-1.2,0.9-1.7,1.5c-0.4,0.6-0.7,1.3-0.9,2.2c-0.2,0.8-0.3,1.7-0.3,2.6c0,1,0.1,1.9,0.3,2.8
					c0.2,0.8,0.5,1.6,0.9,2.2s0.9,1.1,1.6,1.4s1.5,0.5,2.5,0.5s1.9-0.2,2.5-0.6c0.7-0.4,1.2-0.9,1.7-1.5c0.4-0.6,0.7-1.4,0.9-2.2
					C287.4,83.1,287.5,82.2,287.5,81.3L287.5,81.3L287.5,81.3z"/>
				<path id="Shape_5_" class="st20" d="M304.5,77.8c0,0.9-0.1,1.6-0.4,2.3c-0.3,0.7-0.7,1.3-1.2,1.7c-0.5,0.5-1.2,0.9-2,1.1
					c-0.8,0.3-1.7,0.4-2.8,0.4h-2v6.1c0,0.1,0,0.1-0.1,0.2c0,0.1-0.1,0.1-0.2,0.1s-0.2,0.1-0.3,0.1c-0.1,0-0.3,0-0.6,0
					c-0.2,0-0.4,0-0.6,0c-0.1,0-0.3,0-0.4-0.1c-0.1,0-0.2-0.1-0.2-0.1c0-0.1-0.1-0.1-0.1-0.2V73.8c0-0.4,0.1-0.6,0.3-0.7
					c0.2-0.1,0.4-0.2,0.6-0.2h3.7c0.4,0,0.7,0,1.1,0s0.7,0.1,1.2,0.2s0.9,0.3,1.4,0.6c0.5,0.3,0.9,0.6,1.2,1
					c0.3,0.4,0.6,0.9,0.8,1.4C304.4,76.6,304.5,77.2,304.5,77.8L304.5,77.8L304.5,77.8z M302.1,78c0-0.7-0.1-1.3-0.4-1.7
					c-0.3-0.5-0.6-0.8-1-1s-0.8-0.4-1.2-0.4c-0.4-0.1-0.8-0.1-1.2-0.1h-2.1v6.8h2.1c0.7,0,1.3-0.1,1.7-0.3c0.5-0.2,0.8-0.4,1.2-0.7
					c0.3-0.3,0.5-0.7,0.7-1.1C302,79,302.1,78.5,302.1,78L302.1,78L302.1,78z"/>
				<path id="Shape_6_" class="st20" d="M321,89.1c0.1,0.2,0.1,0.3,0.1,0.5c0,0.1,0,0.2-0.1,0.3c-0.1,0.1-0.2,0.1-0.4,0.1
					c-0.2,0-0.4,0-0.7,0s-0.5,0-0.7,0s-0.3,0-0.4-0.1c-0.1,0-0.1-0.1-0.2-0.1c0-0.1-0.1-0.1-0.1-0.2l-1.5-4.1h-7l-1.4,4.1
					c0,0.1-0.1,0.1-0.1,0.2s-0.1,0.1-0.2,0.1s-0.2,0.1-0.4,0.1c-0.2,0-0.4,0-0.6,0c-0.3,0-0.5,0-0.6,0c-0.2,0-0.3-0.1-0.3-0.1
					c-0.1-0.1-0.1-0.2-0.1-0.3c0-0.1,0-0.3,0.1-0.5l5.8-15.8c0-0.1,0.1-0.2,0.1-0.2c0.1-0.1,0.1-0.1,0.3-0.1c0.1,0,0.3-0.1,0.4-0.1
					c0.2,0,0.4,0,0.7,0c0.3,0,0.5,0,0.7,0s0.3,0,0.5,0.1c0.1,0,0.2,0.1,0.3,0.2c0.1,0.1,0.1,0.1,0.1,0.2L321,89.1L321,89.1L321,89.1
					z M313.6,75.1L313.6,75.1l-3,8.5h6L313.6,75.1L313.6,75.1L313.6,75.1z"/>
				<path id="Shape_7_" class="st20" d="M329.4,83.3v6.3c0,0.1,0,0.1-0.1,0.2c0,0.1-0.1,0.1-0.2,0.1s-0.2,0.1-0.4,0.1
					c-0.2,0-0.3,0-0.5,0s-0.4,0-0.6,0c-0.1,0-0.3,0-0.4-0.1c-0.1,0-0.2-0.1-0.2-0.1c0-0.1-0.1-0.1-0.1-0.2v-6.3l-4.9-9.6
					c-0.1-0.2-0.2-0.4-0.2-0.5s0-0.2,0.1-0.3c0.1-0.1,0.2-0.1,0.4-0.1c0.2,0,0.4,0,0.7,0c0.3,0,0.5,0,0.6,0c0.2,0,0.3,0,0.4,0.1
					c0.1,0,0.2,0.1,0.2,0.1c0,0.1,0.1,0.1,0.1,0.2l2.4,4.9c0.2,0.5,0.4,1,0.7,1.5c0.2,0.5,0.4,1,0.7,1.5l0,0c0.2-0.5,0.4-1,0.6-1.5
					s0.4-1,0.7-1.5l2.4-4.9c0-0.1,0.1-0.2,0.1-0.2c0-0.1,0.1-0.1,0.2-0.1s0.2-0.1,0.4-0.1c0.2,0,0.3,0,0.6,0c0.3,0,0.6,0,0.8,0
					c0.2,0,0.3,0.1,0.4,0.1c0.1,0.1,0.1,0.1,0.1,0.3c0,0.1-0.1,0.3-0.2,0.5L329.4,83.3L329.4,83.3L329.4,83.3z"/>
			</g>
		</g>
	</g>
</g>
<g>
	<polygon class="st21" points="303.3,127.2 299.2,127.2 299.2,112.7 313.8,112.7 313.8,127.2 309.8,127.2 309.8,115.5 303.3,115.5 	
		"/>
	<path class="st21" d="M319.4,121.9c0-2.9,1.8-3.5,2.9-3.5s2.9,0.6,2.9,3.5c0,1.8-0.8,3.6-2.9,3.6
		C320.1,125.4,319.4,123.7,319.4,121.9L319.4,121.9z M315.8,116.6L315.8,116.6V131h3.7v-4.9c1.3,1.4,3.3,1.5,3.8,1.5
		c3.6,0,5.8-2.3,5.8-5.6c0-3.5-2.2-5.7-5.7-5.7c-0.9,0-2.6,0.1-4,1.7h-0.1v-1.3L315.8,116.6L315.8,116.6z"/>
	<path class="st21" d="M338.4,125.9c-1.4,1.3-2.7,1.7-4.2,1.7c-4,0-4.2-3.1-4.2-4.3v-6.6h3.7v6.1c0,2.1,0.7,2.7,2.1,2.7
		c2.4,0,2.5-2.1,2.5-2.9v-5.9h3.7v10.5h-3.7v-1.3L338.4,125.9L338.4,125.9z"/>
	<path class="st21" d="M347.5,118.8h2c1.1,0,2,0.2,2,1c0,1-1.4,1-2,1h-1.9v-2H347.5z M343.8,116.6L343.8,116.6v10.5h7.4
		c2.7,0,4.6-0.5,4.6-2.7c0-1.7-0.9-2.4-3-2.8v-0.1c1.4-0.2,2.5-1,2.5-2.5c0-2.5-3-2.5-4.1-2.5L343.8,116.6L343.8,116.6z
		 M347.5,122.7L347.5,122.7h2.3c1.8,0,2.1,0.5,2.1,1.2c0,0.5-0.2,1.1-2.1,1.1h-2.3V122.7L347.5,122.7z"/>
	<path class="st21" d="M364.9,122.8c0,2.1-1.8,2.6-2.7,2.6c-0.7,0-1.9-0.2-1.9-1.2c0-1.2,1.4-1.4,2.2-1.5c1.5-0.2,1.3-0.1,2.5-0.6
		v0.7H364.9z M360.5,120L360.5,120c0-1.6,1.6-1.7,2.3-1.7c0.4,0,2,0,2,1.4c0,0.1,0,0.2,0,0.3c-0.1,1-1.1,0.8-3.8,1.2
		c-2.3,0.3-4.7,0.9-4.7,3.3c0,0.9,0.4,3,4.4,3c1.5,0,3.2-0.4,4.2-1.4h0.1l0.3,1h3.9V127c-0.7-0.1-0.8-0.9-0.7-2l0.1-4.8
		c0-1.2-0.1-3.9-5.7-3.9c-1.4,0-5.7,0.1-5.9,3.8L360.5,120L360.5,120z"/>
	<polygon class="st21" points="369,118.8 369,116.6 381.1,116.6 381.1,118.8 376.9,118.8 376.9,127.2 373.2,127.2 373.2,118.8 	"/>
	<path class="st21" d="M385.8,120.9h3.4c1,0,3,0.1,3,1.8c0,1.4-1.4,1.6-3,1.6h-3.3v-3.4H385.8z M385.8,115.5L385.8,115.5h9.3v-2.8
		h-13.4v14.5h8.2c4,0,6.6-1.4,6.6-4.4c0-4.6-5.1-4.7-6.6-4.7h-4.2v-2.6H385.8z"/>
	<path class="st21" d="M405.8,122.8c0,2.1-1.8,2.6-2.7,2.6c-0.7,0-1.9-0.2-1.9-1.2c0-1.2,1.4-1.4,2.2-1.5c1.5-0.2,1.3-0.1,2.5-0.6
		v0.7H405.8z M401.4,120L401.4,120c0-1.6,1.6-1.7,2.3-1.7c0.4,0,2,0,2,1.4c0,0.1,0,0.2,0,0.3c-0.1,1-1.1,0.8-3.8,1.2
		c-2.3,0.3-4.7,0.9-4.7,3.3c0,0.9,0.4,3,4.4,3c1.5,0,3.2-0.4,4.2-1.4h0.1l0.3,1h3.9V127c-0.7-0.1-0.8-0.9-0.7-2l0.1-4.8
		c0-1.2-0.1-3.9-5.7-3.9c-1.4,0-5.7,0.1-5.9,3.8L401.4,120L401.4,120z"/>
	<polygon class="st21" points="414.9,127.2 411.1,127.2 411.1,116.6 414.9,116.6 414.9,120.6 419.4,120.6 419.4,116.6 423.1,116.6 
		423.1,127.2 419.4,127.2 419.4,122.7 414.9,122.7 	"/>
	<polygon class="st21" points="432.6,116.6 436.7,116.6 431.6,121.6 437,127.2 432.6,127.2 428.6,122.6 428.5,122.6 428.5,127.2 
		424.7,127.2 424.7,116.6 428.5,116.6 428.5,120.9 428.6,120.9 	"/>
	<polygon class="st16" points="272,127.2 281.4,127.2 281.4,117.7 272,117.7 	"/>
	<path class="st21" d="M272,103v11.8h2.5c6.5,0,9.8,3.3,9.8,9.9v2.5H296V103H272L272,103z M291,108L291,108c0,3.2,0,11,0,14.2
		c-0.9,0-1,0-1.9,0c-0.8-7-5.2-11.4-12.2-12.3c0-0.9,0-1,0-1.9C280.2,108,287.9,108,291,108L291,108z"/>
</g>
<g>
	<path class="st20" d="M365,71l37-18l19,10l-36,18L365,71z"/>
	<path d="M385,82c-0.2,0-0.3,0-0.4-0.1l-20-10c-0.3-0.2-0.6-0.5-0.6-0.9s0.2-0.7,0.6-0.9l37-18c0.3-0.1,0.6-0.1,0.9,0l19,10
		c0.3,0.2,0.5,0.5,0.5,0.9s-0.2,0.7-0.6,0.9l-36,18C385.3,82,385.2,82,385,82L385,82z M367.3,71l17.7,8.9L418.8,63L402,54.1
		L367.3,71z"/>
	<path d="M385,88c-0.2,0-0.3,0-0.4-0.1l-20-10c-0.5-0.2-0.7-0.8-0.4-1.3c0.2-0.5,0.8-0.7,1.3-0.4l19.6,9.8l35.6-17.8
		c0.5-0.2,1.1,0,1.3,0.4c0.2,0.5,0,1.1-0.4,1.3l-36,18C385.3,88,385.2,88,385,88L385,88z"/>
	<path d="M385,94c-0.2,0-0.3,0-0.4-0.1l-20-10c-0.5-0.2-0.7-0.8-0.4-1.3c0.2-0.5,0.8-0.7,1.3-0.4l19.6,9.8l35.6-17.8
		c0.5-0.2,1.1,0,1.3,0.4c0.2,0.5,0,1.1-0.4,1.3l-36,18C385.3,94,385.2,94,385,94L385,94z"/>
	<path d="M385,100c-0.2,0-0.3,0-0.4-0.1l-20-10c-0.5-0.2-0.7-0.8-0.4-1.3c0.2-0.5,0.8-0.7,1.3-0.4l19.6,9.8l35.6-17.8
		c0.5-0.2,1.1,0,1.3,0.4c0.2,0.5,0,1.1-0.4,1.3l-36,18C385.3,100,385.2,100,385,100L385,100z"/>
	<path class="st5" d="M378,63l10-5l20,11v20l-10,5l-0.1-19.4L378,63z"/>
	<path d="M398,95c-0.2,0-0.4,0-0.5-0.1c-0.3-0.2-0.5-0.5-0.5-0.8l-0.1-18.9l-19.4-11.3c-0.3-0.2-0.5-0.5-0.5-0.9s0.2-0.7,0.6-0.9
		l10-5c0.3-0.1,0.6-0.1,0.9,0l20,11c0.3,0.2,0.5,0.5,0.5,0.9v20c0,0.4-0.2,0.7-0.6,0.9l-10,5C398.3,95,398.2,95,398,95z M380.1,63.1
		l18.3,10.6c0.3,0.2,0.5,0.5,0.5,0.9l0.1,17.8l8-4V69.6l-19-10.5L380.1,63.1z"/>
	<path d="M408,66.5c-0.4,0-0.7-0.2-0.9-0.6c-0.2-0.5,0-1.1,0.4-1.3l3.3-1.6l-8.9-4.8l-3.5,1.8c-0.5,0.2-1.1,0-1.3-0.4
		c-0.2-0.5,0-1.1,0.4-1.3l4-2c0.3-0.1,0.6-0.1,0.9,0l11,6c0.3,0.2,0.5,0.5,0.5,0.9s-0.2,0.7-0.6,0.9l-5,2.5
		C408.3,66.5,408.2,66.5,408,66.5z"/>
	<path d="M385,77.5c-0.2,0-0.3,0-0.5-0.1l-11-6c-0.3-0.2-0.5-0.5-0.5-0.9s0.2-0.7,0.6-0.9l5-2.5c0.5-0.2,1.1,0,1.3,0.4
		s0,1.1-0.4,1.3l-3.3,1.6l8.9,4.8l3.5-1.8c0.5-0.2,1.1,0,1.3,0.4c0.2,0.5,0,1.1-0.4,1.3l-4,2C385.3,77.5,385.2,77.5,385,77.5
		L385,77.5z"/>
	<ellipse cx="403.5" cy="62.5" rx="1.2" ry="0.8"/>
	<ellipse cx="383.5" cy="71.5" rx="1.2" ry="0.8"/>
</g>
<g>
	<circle class="st0" cx="351" cy="33" r="10"/>
	<path class="st5" d="M350,33.7l-0.3-4.2c-0.1-0.8-0.1-1.4-0.1-1.8c0-0.5,0.1-0.9,0.4-1.1c0.3-0.3,0.6-0.4,1-0.4
		c0.5,0,0.8,0.2,1,0.5c0.2,0.4,0.3,0.9,0.3,1.5c0,0.4,0,0.8-0.1,1.2l-0.4,4.4c0,0.5-0.1,0.9-0.3,1.2c-0.1,0.3-0.4,0.4-0.7,0.4
		c-0.3,0-0.5-0.1-0.7-0.4C350.2,34.6,350.1,34.2,350,33.7z M351,39.5c-0.4,0-0.7-0.1-0.9-0.3c-0.3-0.2-0.4-0.6-0.4-1
		s0.1-0.7,0.4-0.9c0.3-0.3,0.6-0.4,0.9-0.4c0.4,0,0.7,0.1,0.9,0.4c0.3,0.3,0.4,0.6,0.4,0.9c0,0.4-0.1,0.7-0.4,1
		C351.7,39.3,351.4,39.5,351,39.5z"/>
</g>
<g>
	<path d="M390.6,6.6h-7.5c-0.2,0-0.3,0.1-0.3,0.3s0.1,0.3,0.3,0.3h7.5c0.2,0,0.3-0.1,0.3-0.3S390.8,6.6,390.6,6.6z"/>
	<path d="M383.1,4.8h3c0.2,0,0.3-0.1,0.3-0.3s-0.1-0.3-0.3-0.3h-3c-0.2,0-0.3,0.1-0.3,0.3S382.9,4.8,383.1,4.8z"/>
	<path d="M390.6,9h-7.5c-0.2,0-0.3,0.1-0.3,0.3s0.1,0.3,0.3,0.3h7.5c0.2,0,0.3-0.1,0.3-0.3S390.8,9,390.6,9z"/>
	<path d="M390.6,11.4h-7.5c-0.2,0-0.3,0.1-0.3,0.3s0.1,0.3,0.3,0.3h7.5c0.2,0,0.3-0.1,0.3-0.3S390.8,11.4,390.6,11.4z"/>
	<path d="M390.6,13.8h-7.5c-0.2,0-0.3,0.1-0.3,0.3s0.1,0.3,0.3,0.3h7.5c0.2,0,0.3-0.1,0.3-0.3C390.9,13.9,390.8,13.8,390.6,13.8z"/>
	<path d="M389.5,0h-9.7v18h14.1V4.4L389.5,0z M389.7,1l3.2,3.2h-3.2V1z M380.4,17.4V0.6h8.7v4.2h4.2v12.6H380.4z"/>
</g>
<polygon points="322,46.5 320.5,45 312,53.5 303.5,45 302,46.5 310.5,55 302,63.5 303.5,65 312,56.5 320.5,65 322,63.5 313.5,55 "/>
<g>
	<path d="M401.7,0.4c0.5,0.3,0.9,0.7,1.2,1.2c0.3,0.5,0.4,1,0.4,1.6c0,0.6-0.1,1.1-0.4,1.6s-0.7,0.9-1.2,1.2c-0.5,0.3-1,0.4-1.6,0.4
		c-0.6,0-1.1-0.1-1.6-0.4c-0.5-0.3-0.9-0.7-1.2-1.2c-0.3-0.5-0.4-1-0.4-1.6s0.1-1.1,0.4-1.6c0.3-0.5,0.7-0.9,1.2-1.2
		c0.5-0.3,1-0.4,1.6-0.4C400.7,0,401.2,0.1,401.7,0.4z M399,1.3c-0.3,0.2-0.6,0.5-0.8,0.8s-0.3,0.7-0.3,1.1c0,0.4,0.1,0.8,0.3,1.1
		c0.2,0.3,0.5,0.6,0.8,0.8c0.3,0.2,0.7,0.3,1.1,0.3c0.4,0,0.8-0.1,1.1-0.3c0.3-0.2,0.6-0.5,0.8-0.8c0.2-0.3,0.3-0.7,0.3-1.1
		c0-0.4-0.1-0.8-0.3-1.1c-0.2-0.3-0.5-0.6-0.8-0.8c-0.3-0.2-0.7-0.3-1.1-0.3C399.7,1,399.4,1.1,399,1.3z M408.2,0
		c0.1,0,0.3,0,0.4,0.1c0.1,0.1,0.1,0.2,0.1,0.4c0,0.1,0,0.2-0.1,0.3l-9.4,12c-0.1,0.1-0.3,0.2-0.4,0.2c-0.1,0-0.3,0-0.4-0.1
		c-0.1-0.1-0.1-0.2-0.1-0.4c0-0.1,0-0.2,0.1-0.3l9.4-11.9C407.9,0.1,408.1,0,408.2,0z M408.4,7c0.5,0.3,0.9,0.7,1.2,1.2
		c0.3,0.5,0.4,1,0.4,1.6c0,0.6-0.1,1.1-0.4,1.6c-0.3,0.5-0.7,0.9-1.2,1.2c-0.5,0.3-1,0.4-1.6,0.4c-0.6,0-1.1-0.1-1.6-0.4
		c-0.5-0.3-0.9-0.7-1.2-1.2c-0.3-0.5-0.4-1-0.4-1.6c0-0.6,0.1-1.1,0.4-1.6c0.3-0.5,0.7-0.9,1.2-1.2c0.5-0.3,1-0.4,1.6-0.4
		C407.4,6.6,408,6.7,408.4,7z M405.7,7.9c-0.3,0.2-0.6,0.5-0.8,0.8c-0.2,0.3-0.3,0.7-0.3,1.1c0,0.4,0.1,0.8,0.3,1.1
		c0.2,0.3,0.5,0.6,0.8,0.8c0.3,0.2,0.7,0.3,1.1,0.3c0.4,0,0.8-0.1,1.1-0.3s0.6-0.5,0.8-0.8c0.2-0.3,0.3-0.7,0.3-1.1
		c0-0.4-0.1-0.8-0.3-1.1c-0.2-0.3-0.5-0.6-0.8-0.8c-0.3-0.2-0.7-0.3-1.1-0.3C406.4,7.6,406.1,7.7,405.7,7.9z"/>
</g>
<g>
	<path d="M419.5,0.4c0.5,0.3,1,0.7,1.3,1.2c0.3,0.5,0.5,1.1,0.5,1.7c0,0.6-0.2,1.1-0.5,1.6c-0.3,0.5-0.7,0.8-1.3,1.1
		c0.8,0.2,1.4,0.6,1.8,1.1c0.4,0.5,0.7,1.2,0.7,2.1c0,0.7-0.2,1.4-0.5,2s-0.8,1-1.4,1.4c-0.6,0.3-1.3,0.5-2.1,0.5h-4.2
		c-0.2,0-0.4-0.1-0.5-0.2c-0.1-0.1-0.2-0.3-0.2-0.5V0.6c0-0.2,0.1-0.3,0.2-0.5c0.1-0.1,0.3-0.2,0.5-0.2h4C418.4,0,419,0.1,419.5,0.4
		z M419.4,4.9c0.4-0.4,0.6-0.9,0.6-1.6c0-0.6-0.2-1.1-0.6-1.5c-0.4-0.4-1-0.5-1.7-0.5h-3.4v4.2h3.4C418.4,5.4,419,5.2,419.4,4.9z
		 M420,11c0.5-0.5,0.8-1.1,0.8-1.9c0-0.8-0.3-1.4-0.8-1.8c-0.5-0.4-1.2-0.7-2-0.7h-3.7v5.1h3.7C418.8,11.8,419.5,11.5,420,11z"/>
</g>
</svg>
