<?xml version="1.0" encoding="utf-8"?>
<!-- Generator: Adobe Illustrator 22.0.1, SVG Export Plug-In . SVG Version: 6.00 Build 0)  -->
<svg version="1.1" id="Слой_1" xmlns="http://www.w3.org/2000/svg" xmlns:xlink="http://www.w3.org/1999/xlink" x="0px" y="0px"
	 width="1920px" height="1080px" viewBox="0 0 1920 1080" style="enable-background:new 0 0 1920 1080;" xml:space="preserve">
<style type="text/css">
	.st0{fill:#009FE3;}
	.st1{fill:#E30613;}
</style>
<g>
	<path d="M5,7C3.8,7,2.8,6,2.8,4.9s1-2.1,2.2-2.1s2.2,1,2.2,2.1S6.2,7,5,7z M5,3.8c-0.6,0-1,0.5-1,1.1s0.4,1,1,1s1.1-0.5,1.1-1.1
		S5.6,3.8,5,3.8z"/>
	<path d="M5,14L1,8.3c-1.5-1.9-1.3-5.1,0.5-6.8C2.4,0.5,3.7,0,5,0s2.6,0.5,3.5,1.4l0,0l0,0c1.7,1.7,2,4.9,0.5,6.9L5,14z M5,1.1
		c-1,0-2,0.4-2.8,1.1C0.9,3.5,0.7,6.1,1.9,7.7L5,12.1l3.1-4.4c1.2-1.5,1-4.1-0.4-5.5l0,0C7,1.5,6,1.1,5,1.1z"/>
</g>
<g>
	<path d="M23.9,14c-0.6,0-1.3-0.1-2.1-0.4c-1.6-0.6-3.4-1.8-5-3.4s-2.8-3.3-3.4-5c-0.6-1.7-0.6-3,0.1-3.7c0.1-0.1,0.1-0.2,0.2-0.2
		C14.3,0.7,15,0,16,0c0.7,0,1.3,0.4,1.9,1.2c1.7,2.1,1,3,0,4l0,0C18,5.4,18.2,6,19.6,7.4c0.7,0.7,1.3,1.2,1.7,1.5
		c0.2,0.2,0.4,0.2,0.5,0.3l0,0c1-1,1.9-1.7,4,0C26.6,9.7,27,10.3,27,11c0,1-0.7,1.7-1.2,2.2l-0.2,0.2C25.2,13.8,24.6,14,23.9,14z
		 M15.9,1.1c-0.5,0-0.9,0.5-1.3,0.9c-0.1,0.1-0.2,0.2-0.2,0.3c-0.3,0.3-0.4,1.2,0.1,2.5c0.6,1.5,1.7,3.1,3.1,4.6
		c1.5,1.5,3.1,2.6,4.6,3.1c1.1,0.4,2.2,0.5,2.5,0.1c0.1-0.1,0.1-0.1,0.2-0.2c0.5-0.5,0.9-0.9,0.9-1.4c0-0.3-0.3-0.7-0.7-1.1
		c-1.4-1.2-1.8-0.8-2.5-0.1L22.5,10c-0.4,0.4-1,0.3-1.8-0.2c-0.5-0.3-1.2-0.9-1.9-1.6C17.6,7,16.1,5.3,17,4.5l0.1-0.1
		c0.7-0.7,1.1-1.1-0.1-2.5C16.6,1.4,16.3,1.1,15.9,1.1L15.9,1.1z"/>
</g>
<rect x="107" y="-3.6" width="3" height="3"/>
<rect x="-7.9" y="18" width="3" height="3"/>
<g>
	<rect x="30" y="0" width="8" height="1"/>
	<rect x="30" y="3" width="8" height="1"/>
	<rect x="30" y="6" width="8" height="1"/>
</g>
<rect x="5.7" y="20.9" transform="matrix(0.7071 -0.7071 0.7071 0.7071 -14.408 11.0866)" class="st0" width="1" height="4"/>
<rect y="24" class="st0" width="8" height="1"/>
<rect x="4.2" y="25.6" transform="matrix(0.7071 -0.7071 0.7071 0.7071 -16.6371 12.0575)" class="st0" width="4" height="1"/>
<g>
	<path d="M54.8-6.5l-3.4-3.4c0.8-1,1.3-2.3,1.3-3.7c0-3.3-2.6-5.9-5.9-5.9c-3.2,0-5.8,2.6-5.8,5.9s2.6,5.9,5.9,5.9
		c1.4,0,2.7-0.5,3.7-1.3L54-5.6c0.2,0.2,0.6,0.2,0.8,0C55.1-5.9,55.1-6.3,54.8-6.5z M46.9-8.9c-2.6,0-4.7-2.1-4.7-4.7
		s2.1-4.7,4.7-4.7c2.6,0,4.7,2.1,4.7,4.7S49.5-8.9,46.9-8.9z"/>
</g>
<g>
	<path class="st0" d="M24.8-11.1l-3.4-3.4c0.8-1,1.3-2.3,1.3-3.7c0-3.3-2.6-5.9-5.9-5.9s-5.9,2.6-5.9,5.9s2.6,5.9,5.9,5.9
		c1.4,0,2.7-0.5,3.7-1.3l3.4,3.4c0.2,0.2,0.6,0.2,0.8,0C25.1-10.5,25.1-10.9,24.8-11.1z M16.9-13.5c-2.6,0-4.7-2.1-4.7-4.7
		s2.1-4.7,4.7-4.7s4.7,2.1,4.7,4.7S19.5-13.5,16.9-13.5z"/>
</g>
<path d="M65.5-11.3c-0.2,0-0.5-0.1-0.7-0.2l-0.3-0.2c-0.4-0.2-0.7-0.5-1.1-0.7c-1.8-1.4-3.2-2.9-4.2-4.6c-0.6-0.9-0.9-1.9-1.1-2.8
	c-0.2-1.2,0.1-2.5,0.8-3.5s1.8-1.7,2.9-1.9c1.4-0.2,2.7,0.1,3.7,1.1c0.4-0.3,0.8-0.6,1.3-0.8c1.3-0.5,2.8-0.4,4,0.3
	c1.2,0.7,2,2,2.2,3.4c0.1,1-0.1,2-0.5,3c-0.5,1.2-1.3,2.3-2.4,3.5s-2.2,2.2-3.3,2.9c-0.1,0.1-0.3,0.2-0.4,0.2l-0.2,0.1
	C66-11.4,65.7-11.3,65.5-11.3z M62.6-24.1c-0.2,0-0.4,0-0.6,0c-0.8,0.1-1.6,0.6-2.2,1.4c-0.5,0.8-0.7,1.7-0.6,2.6
	c0.2,0.8,0.5,1.6,1,2.4c1,1.6,2.3,3,3.9,4.3c0.3,0.2,0.6,0.5,1,0.7l0.3,0.2c0,0,0.1,0.1,0.2,0l0.2-0.1c0.1-0.1,0.2-0.1,0.3-0.2
	c1.1-0.7,2.1-1.6,3.1-2.7s1.7-2.1,2.2-3.2c0.4-0.9,0.5-1.7,0.5-2.4l0,0c-0.1-1.1-0.7-2-1.6-2.5s-2-0.6-3-0.2
	c-0.5,0.2-0.9,0.5-1.3,0.9l-0.3,0.3l-0.4-0.2c0,0-0.1-0.1-0.2-0.1L65-23C64.3-23.8,63.5-24.1,62.6-24.1z"/>
<path class="st1" d="M33.3-20.2c-0.2,0-0.5-0.1-0.7-0.2l-0.3-0.2c-0.4-0.2-0.7-0.5-1.1-0.7c-1.8-1.4-3.2-2.9-4.2-4.6
	c-0.6-0.9-0.9-1.9-1.1-2.8c-0.2-1.2,0.1-2.5,0.8-3.5c0.7-1,1.8-1.7,2.9-1.9c1.4-0.2,2.7,0.1,3.7,1.1c0.4-0.3,0.8-0.6,1.3-0.8
	c1.3-0.5,2.8-0.4,4,0.3c1.2,0.7,2,2,2.2,3.4c0.1,1-0.1,2-0.5,3c-0.5,1.2-1.3,2.3-2.4,3.5c-1.1,1.2-2.2,2.2-3.3,2.9
	c-0.1,0.1-0.3,0.2-0.4,0.2L34-20.4C33.8-20.3,33.5-20.2,33.3-20.2z M30.4-33c-0.2,0-0.4,0-0.6,0c-0.8,0.1-1.6,0.6-2.2,1.4
	c-0.5,0.8-0.7,1.7-0.6,2.6c0.2,0.8,0.5,1.6,1,2.4c1,1.6,2.3,3,3.9,4.3c0.3,0.2,0.6,0.5,1,0.7l0.3,0.2c0,0,0.1,0.1,0.2,0l0.2-0.1
	c0.1-0.1,0.2-0.1,0.3-0.2c1.1-0.7,2.1-1.6,3.1-2.7s1.7-2.1,2.2-3.2c0.4-0.9,0.5-1.7,0.5-2.4l0,0c-0.1-1.1-0.7-2-1.6-2.5
	c-0.9-0.5-2-0.6-3-0.2c-0.5,0.2-0.9,0.5-1.3,0.9l-0.3,0.3l-0.4-0.2c0,0-0.1-0.1-0.2-0.1l-0.1-0.1C32.1-32.7,31.3-33,30.4-33z"/>
<path d="M94.5-15.8l-1-12.3c0-0.3-0.3-0.5-0.6-0.5h-1.8c0-2.5-2.1-4.5-4.6-4.5s-4.6,2-4.6,4.5h-1.8c-0.4,0-0.6,0.2-0.6,0.5l-1,12.4
	c0,0.2,0,0.3,0.2,0.4c0.1,0.1,0.3,0.2,0.4,0.2h14.8l0,0c0.3,0,0.6-0.3,0.6-0.6V-15.8z M86.5-32c1.9,0,3.5,1.5,3.5,3.4h-6.9
	C83-30.5,84.6-32,86.5-32z M79.7-16.2l0.9-11.3h1.3v1.1c0,0.3,0.3,0.6,0.6,0.6c0.3,0,0.6-0.3,0.6-0.6v-1.1H90v1.1
	c0,0.3,0.3,0.6,0.6,0.6c0.3,0,0.6-0.3,0.6-0.6v-1.1h1.3l0.9,11.3H79.7z"/>
<path class="st0" d="M62-29.3l-1-12.3c0-0.3-0.3-0.5-0.6-0.5h-1.8c0-2.5-2.1-4.5-4.6-4.5s-4.6,2-4.6,4.5h-1.8
	c-0.3,0-0.6,0.2-0.6,0.5l-1,12.4c0,0.2,0,0.3,0.2,0.4c0.1,0.1,0.3,0.2,0.4,0.2h14.8l0,0c0.3,0,0.6-0.3,0.6-0.6
	C62-29.2,62-29.3,62-29.3z M54-45.5c1.9,0,3.5,1.5,3.5,3.4h-6.9C50.5-44,52.1-45.5,54-45.5z M47.2-29.7L48.1-41h1.3v1.1
	c0,0.3,0.3,0.6,0.6,0.6s0.6-0.3,0.6-0.6V-41h6.9v1.1c0,0.3,0.3,0.6,0.6,0.6s0.6-0.3,0.6-0.6V-41H60l0.9,11.3H47.2z"/>
<path d="M103.3,9.3c1.6-0.8,2.6-2.5,2.6-4.3c0-2.7-2.2-5-4.9-5c-2.7,0-4.9,2.2-4.9,5c0,1.9,1.1,3.5,2.6,4.3c-2.2,0.9-3.7,3-3.7,5.5
	V17h1v-2.2c0-2.7,2.2-5,5-5c2.7,0,5,2.2,5,5V17h1v-2.2C107,12.4,105.5,10.2,103.3,9.3z M97.1,5c0-2.1,1.8-4,3.9-4s3.9,1.8,3.9,4
	c0,2.1-1.7,3.9-3.9,3.9C98.9,8.9,97.1,7.1,97.1,5z"/>
<path class="st0" d="M73.3,30.3c1.6-0.8,2.6-2.5,2.6-4.3c0-2.7-2.2-5-4.9-5c-2.7,0-4.9,2.2-4.9,5c0,1.9,1.1,3.5,2.6,4.3
	c-2.2,0.9-3.7,3-3.7,5.5V38h1v-2.2c0-2.7,2.2-5,5-5c2.7,0,5,2.2,5,5V38h1v-2.2C77,33.4,75.5,31.2,73.3,30.3z M67.1,26
	c0-2.1,1.8-4,3.9-4s3.9,1.8,3.9,4c0,2.1-1.7,3.9-3.9,3.9C68.9,29.9,67.1,28.1,67.1,26z"/>
<g>
	<rect x="110" y="0" width="19" height="2"/>
	<rect x="110" y="6" width="16" height="2"/>
	<rect x="110" y="12" width="13" height="2"/>
</g>
<g>
	<rect x="80" y="21" class="st0" width="19" height="2"/>
	<rect x="80" y="27" class="st0" width="16" height="2"/>
	<rect x="80" y="33" class="st0" width="13" height="2"/>
</g>
</svg>
