<?xml version="1.0" encoding="utf-8"?>
<!-- Generator: Adobe Illustrator 22.0.1, SVG Export Plug-In . SVG Version: 6.00 Build 0)  -->
<svg version="1.1" id="Слой_1" xmlns="http://www.w3.org/2000/svg" xmlns:xlink="http://www.w3.org/1999/xlink" x="0px" y="0px"
	 width="1920px" height="1080px" viewBox="0 0 1920 1080" style="enable-background:new 0 0 1920 1080;" xml:space="preserve">
<style type="text/css">
	.st0{fill:#009FE3;}
	.st1{fill:#E30613;}
</style>
<g>
	<path d="M5,7C3.8,7,2.8,6,2.8,4.9s1-2.1,2.2-2.1s2.2,1,2.2,2.1S6.2,7,5,7z M5,3.8c-0.6,0-1,0.5-1,1.1s0.4,1,1,1s1.1-0.5,1.1-1.1
		S5.6,3.8,5,3.8z"/>
	<path d="M5,14L1,8.3c-1.5-1.9-1.3-5.1,0.5-6.8C2.4,0.5,3.7,0,5,0s2.6,0.5,3.5,1.4l0,0l0,0c1.7,1.7,2,4.9,0.5,6.9L5,14z M5,1.1
		c-1,0-2,0.4-2.8,1.1C0.9,3.5,0.7,6.1,1.9,7.7L5,12.1l3.1-4.4c1.2-1.5,1-4.1-0.4-5.5l0,0C7,1.5,6,1.1,5,1.1z"/>
</g>
<g>
	<path d="M23.9,14c-0.6,0-1.3-0.1-2.1-0.4c-1.6-0.6-3.4-1.8-5-3.4s-2.8-3.3-3.4-5c-0.6-1.7-0.6-3,0.1-3.7c0.1-0.1,0.1-0.2,0.2-0.2
		C14.3,0.7,15,0,16,0c0.7,0,1.3,0.4,1.9,1.2c1.7,2.1,1,3,0,4l0,0C18,5.4,18.2,6,19.6,7.4c0.7,0.7,1.3,1.2,1.7,1.5
		c0.2,0.2,0.4,0.2,0.5,0.3l0,0c1-1,1.9-1.7,4,0C26.6,9.7,27,10.3,27,11c0,1-0.7,1.7-1.2,2.2l-0.2,0.2C25.2,13.8,24.6,14,23.9,14z
		 M15.9,1.1c-0.5,0-0.9,0.5-1.3,0.9c-0.1,0.1-0.2,0.2-0.2,0.3c-0.3,0.3-0.4,1.2,0.1,2.5c0.6,1.5,1.7,3.1,3.1,4.6
		c1.5,1.5,3.1,2.6,4.6,3.1c1.1,0.4,2.2,0.5,2.5,0.1c0.1-0.1,0.1-0.1,0.2-0.2c0.5-0.5,0.9-0.9,0.9-1.4c0-0.3-0.3-0.7-0.7-1.1
		c-1.4-1.2-1.8-0.8-2.5-0.1L22.5,10c-0.4,0.4-1,0.3-1.8-0.2c-0.5-0.3-1.2-0.9-1.9-1.6C17.6,7,16.1,5.3,17,4.5l0.1-0.1
		c0.7-0.7,1.1-1.1-0.1-2.5C16.6,1.4,16.3,1.1,15.9,1.1L15.9,1.1z"/>
</g>
<rect y="-3.8" width="41" height="3"/>
<rect x="-7.9" y="18" width="3" height="3"/>
<g>
	<rect x="30" width="8" height="1"/>
	<rect x="30" y="3" width="8" height="1"/>
	<rect x="30" y="6" width="8" height="1"/>
</g>
<rect x="5.7" y="20.9" transform="matrix(0.7071 -0.7071 0.7071 0.7071 -14.3826 11.0677)" class="st0" width="1" height="4"/>
<rect y="24" class="st0" width="8" height="1"/>
<rect x="4.2" y="25.6" transform="matrix(0.7071 -0.7071 0.7071 0.7071 -16.6593 12.0386)" class="st0" width="4" height="1"/>
<g>
	<path d="M54.8,13l-3.4-3.4c0.8-1,1.3-2.3,1.3-3.7c0-3.3-2.6-5.9-5.9-5.9C43.6,0,41,2.6,41,5.9s2.6,5.9,5.9,5.9
		c1.4,0,2.7-0.5,3.7-1.3l3.4,3.4c0.2,0.2,0.6,0.2,0.8,0C55.1,13.6,55.1,13.2,54.8,13z M46.9,10.6c-2.6,0-4.7-2.1-4.7-4.7
		s2.1-4.7,4.7-4.7c2.6,0,4.7,2.1,4.7,4.7S49.5,10.6,46.9,10.6z"/>
</g>
<g>
	<path class="st0" d="M24.8,34l-3.4-3.4c0.8-1,1.3-2.3,1.3-3.7c0-3.3-2.6-5.9-5.9-5.9s-5.9,2.6-5.9,5.9s2.6,5.9,5.9,5.9
		c1.4,0,2.7-0.5,3.7-1.3l3.4,3.4c0.2,0.2,0.6,0.2,0.8,0C25.1,34.6,25.1,34.2,24.8,34z M16.9,31.6c-2.6,0-4.7-2.1-4.7-4.7
		s2.1-4.7,4.7-4.7s4.7,2.1,4.7,4.7S19.5,31.6,16.9,31.6z"/>
</g>
<path d="M65.5,14c-0.2,0-0.5-0.1-0.7-0.2l-0.3-0.2c-0.4-0.2-0.7-0.5-1.1-0.7c-1.8-1.4-3.2-2.9-4.2-4.6c-0.6-0.9-0.9-1.9-1.1-2.8
	C57.9,4.3,58.2,3,58.9,2s1.8-1.7,2.9-1.9c1.4-0.2,2.7,0.1,3.7,1.1c0.4-0.3,0.8-0.6,1.3-0.8c1.3-0.5,2.8-0.4,4,0.3
	c1.2,0.7,2,2,2.2,3.4c0.1,1-0.1,2-0.5,3c-0.5,1.2-1.3,2.3-2.4,3.5s-2.2,2.2-3.3,2.9c-0.1,0.1-0.3,0.2-0.4,0.2l-0.2,0.1
	C66,13.9,65.7,14,65.5,14z M62.6,1.2c-0.2,0-0.4,0-0.6,0c-0.8,0.1-1.6,0.6-2.2,1.4c-0.5,0.8-0.7,1.7-0.6,2.6c0.2,0.8,0.5,1.6,1,2.4
	c1,1.6,2.3,3,3.9,4.3c0.3,0.2,0.6,0.5,1,0.7l0.3,0.2c0,0,0.1,0.1,0.2,0l0.2-0.1c0.1-0.1,0.2-0.1,0.3-0.2c1.1-0.7,2.1-1.6,3.1-2.7
	s1.7-2.1,2.2-3.2c0.4-0.9,0.5-1.7,0.5-2.4l0,0c-0.1-1.1-0.7-2-1.6-2.5s-2-0.6-3-0.2C66.8,1.7,66.4,2,66,2.4l-0.3,0.3l-0.4-0.2
	c0,0-0.1-0.1-0.2-0.1L65,2.3C64.3,1.5,63.5,1.2,62.6,1.2z"/>
<path class="st1" d="M33.3,35c-0.2,0-0.5-0.1-0.7-0.2l-0.3-0.2c-0.4-0.2-0.7-0.5-1.1-0.7C29.4,32.5,28,31,27,29.3
	c-0.6-0.9-0.9-1.9-1.1-2.8C25.7,25.3,26,24,26.7,23c0.7-1,1.8-1.7,2.9-1.9c1.4-0.2,2.7,0.1,3.7,1.1c0.4-0.3,0.8-0.6,1.3-0.8
	c1.3-0.5,2.8-0.4,4,0.3s2,2,2.2,3.4c0.1,1-0.1,2-0.5,3c-0.5,1.2-1.3,2.3-2.4,3.5c-1.1,1.2-2.2,2.2-3.3,2.9c-0.1,0.1-0.3,0.2-0.4,0.2
	L34,34.8C33.8,34.9,33.5,35,33.3,35z M30.4,22.2c-0.2,0-0.4,0-0.6,0c-0.8,0.1-1.6,0.6-2.2,1.4c-0.5,0.8-0.7,1.7-0.6,2.6
	c0.2,0.8,0.5,1.6,1,2.4c1,1.6,2.3,3,3.9,4.3c0.3,0.2,0.6,0.5,1,0.7l0.3,0.2c0,0,0.1,0.1,0.2,0l0.2-0.1c0.1-0.1,0.2-0.1,0.3-0.2
	c1.1-0.7,2.1-1.6,3.1-2.7s1.7-2.1,2.2-3.2c0.4-0.9,0.5-1.7,0.5-2.4l0,0c-0.1-1.1-0.7-2-1.6-2.5c-0.9-0.5-2-0.6-3-0.2
	c-0.5,0.2-0.9,0.5-1.3,0.9l-0.3,0.3l-0.4-0.2c0,0-0.1-0.1-0.2-0.1l-0.1-0.1C32.1,22.5,31.3,22.2,30.4,22.2z"/>
<path d="M94.5,17.3L93.5,5c0-0.3-0.3-0.5-0.6-0.5h-1.8C91.1,2,89,0,86.5,0s-4.6,2-4.6,4.5h-1.8c-0.4,0-0.6,0.2-0.6,0.5l-1,12.4
	c0,0.2,0,0.3,0.2,0.4c0.1,0.1,0.3,0.2,0.4,0.2h14.8l0,0C94.2,18,94.5,17.7,94.5,17.3L94.5,17.3z M86.5,1.1c1.9,0,3.5,1.5,3.5,3.4
	h-6.9C83,2.6,84.6,1.1,86.5,1.1z M79.7,16.9l0.9-11.3h1.3v1.1c0,0.3,0.3,0.6,0.6,0.6c0.3,0,0.6-0.3,0.6-0.6V5.6H90v1.1
	c0,0.3,0.3,0.6,0.6,0.6c0.3,0,0.6-0.3,0.6-0.6V5.6h1.3l0.9,11.3H79.7z"/>
<path class="st0" d="M62,38.3L61,26c0-0.3-0.3-0.5-0.6-0.5h-1.8c0-2.5-2.1-4.5-4.6-4.5s-4.6,2-4.6,4.5h-1.8c-0.3,0-0.6,0.2-0.6,0.5
	l-1,12.4c0,0.2,0,0.3,0.2,0.4c0.1,0.1,0.3,0.2,0.4,0.2h14.8l0,0c0.3,0,0.6-0.3,0.6-0.6C62,38.4,62,38.3,62,38.3z M54,22.1
	c1.9,0,3.5,1.5,3.5,3.4h-6.9C50.5,23.6,52.1,22.1,54,22.1z M47.2,37.9l0.9-11.3h1.3v1.1c0,0.3,0.3,0.6,0.6,0.6s0.6-0.3,0.6-0.6v-1.1
	h6.9v1.1c0,0.3,0.3,0.6,0.6,0.6s0.6-0.3,0.6-0.6v-1.1H60l0.9,11.3H47.2z"/>
<path d="M103.3,9.3c1.6-0.8,2.6-2.5,2.6-4.3c0-2.7-2.2-5-4.9-5c-2.7,0-4.9,2.2-4.9,5c0,1.9,1.1,3.5,2.6,4.3c-2.2,0.9-3.7,3-3.7,5.5
	V17h1v-2.2c0-2.7,2.2-5,5-5c2.7,0,5,2.2,5,5V17h1v-2.2C107,12.4,105.5,10.2,103.3,9.3z M97.1,5c0-2.1,1.8-4,3.9-4s3.9,1.8,3.9,4
	c0,2.1-1.7,3.9-3.9,3.9C98.9,8.9,97.1,7.1,97.1,5z"/>
<path class="st0" d="M73.3,30.3c1.6-0.8,2.6-2.5,2.6-4.3c0-2.7-2.2-5-4.9-5c-2.7,0-4.9,2.2-4.9,5c0,1.9,1.1,3.5,2.6,4.3
	c-2.2,0.9-3.7,3-3.7,5.5V38h1v-2.2c0-2.7,2.2-5,5-5c2.7,0,5,2.2,5,5V38h1v-2.2C77,33.4,75.5,31.2,73.3,30.3z M67.1,26
	c0-2.1,1.8-4,3.9-4s3.9,1.8,3.9,4c0,2.1-1.7,3.9-3.9,3.9C68.9,29.9,67.1,28.1,67.1,26z"/>
<g>
	<rect x="110" width="19" height="2"/>
	<rect x="110" y="6" width="16" height="2"/>
	<rect x="110" y="12" width="13" height="2"/>
</g>
<g>
	<rect x="80" y="21" class="st0" width="19" height="2"/>
	<rect x="80" y="27" class="st0" width="16" height="2"/>
	<rect x="80" y="33" class="st0" width="13" height="2"/>
</g>
</svg>
