<?xml version="1.0" encoding="utf-8"?>
<!-- Generator: Adobe Illustrator 22.0.1, SVG Export Plug-In . SVG Version: 6.00 Build 0)  -->
<svg version="1.1" id="Слой_1" xmlns="http://www.w3.org/2000/svg" xmlns:xlink="http://www.w3.org/1999/xlink" x="0px" y="0px"
	 width="1920px" height="1080px" viewBox="0 0 1920 1080" style="enable-background:new 0 0 1920 1080;" xml:space="preserve">
<style type="text/css">
	.st0{fill:#009FE3;}
	.st1{fill:#E30613;}
	.st2{fill:none;}
	.st3{fill:#4C4C4C;}
	.st4{fill:#CCCCCC;}
</style>
<g>
	<path d="M5,7C3.8,7,2.8,6,2.8,4.9s1-2.1,2.2-2.1s2.2,1,2.2,2.1S6.2,7,5,7z M5,3.8c-0.6,0-1,0.5-1,1.1s0.4,1,1,1s1.1-0.5,1.1-1.1
		S5.6,3.8,5,3.8z"/>
	<path d="M5,14L1,8.3c-1.5-1.9-1.3-5.1,0.5-6.8C2.4,0.5,3.7,0,5,0s2.6,0.5,3.5,1.4l0,0l0,0c1.7,1.7,2,4.9,0.5,6.9L5,14z M5,1.1
		c-1,0-2,0.4-2.8,1.1C0.9,3.5,0.7,6.1,1.9,7.7L5,12.1l3.1-4.4c1.2-1.5,1-4.1-0.4-5.5l0,0C7,1.5,6,1.1,5,1.1z"/>
</g>
<g>
	<path d="M23.9,14c-0.6,0-1.3-0.1-2.1-0.4c-1.6-0.6-3.4-1.8-5-3.4s-2.8-3.3-3.4-5c-0.6-1.7-0.6-3,0.1-3.7c0.1-0.1,0.1-0.2,0.2-0.2
		C14.3,0.7,15,0,16,0c0.7,0,1.3,0.4,1.9,1.2c1.7,2.1,1,3,0,4l0,0C18,5.4,18.2,6,19.6,7.4c0.7,0.7,1.3,1.2,1.7,1.5
		c0.2,0.2,0.4,0.2,0.5,0.3l0,0c1-1,1.9-1.7,4,0C26.6,9.7,27,10.3,27,11c0,1-0.7,1.7-1.2,2.2l-0.2,0.2C25.2,13.8,24.6,14,23.9,14z
		 M15.9,1.1c-0.5,0-0.9,0.5-1.3,0.9c-0.1,0.1-0.2,0.2-0.2,0.3c-0.3,0.3-0.4,1.2,0.1,2.5c0.6,1.5,1.7,3.1,3.1,4.6
		c1.5,1.5,3.1,2.6,4.6,3.1c1.1,0.4,2.2,0.5,2.5,0.1c0.1-0.1,0.1-0.1,0.2-0.2c0.5-0.5,0.9-0.9,0.9-1.4c0-0.3-0.3-0.7-0.7-1.1
		c-1.4-1.2-1.8-0.8-2.5-0.1L22.5,10c-0.4,0.4-1,0.3-1.8-0.2c-0.5-0.3-1.2-0.9-1.9-1.6C17.6,7,16.1,5.3,17,4.5l0.1-0.1
		c0.7-0.7,1.1-1.1-0.1-2.5C16.6,1.4,16.3,1.1,15.9,1.1L15.9,1.1z"/>
</g>
<rect y="-35.5" width="110.6" height="21"/>
<rect x="107.6" y="-5.5" width="3" height="3"/>
<g>
	<rect x="30" width="8" height="1"/>
	<rect x="30" y="3" width="8" height="1"/>
	<rect x="30" y="6" width="8" height="1"/>
</g>
<polygon class="st0" points="8,25 5.1,27.9 4.4,27.2 6.6,25 0,25 0,24 6.6,24 4.4,21.8 5.1,21.1 8,24 "/>
<g>
	<path d="M54.8,13l-3.4-3.4c0.8-1,1.3-2.3,1.3-3.7c0-3.3-2.6-5.9-5.9-5.9C43.6,0,41,2.6,41,5.9s2.6,5.9,5.9,5.9
		c1.4,0,2.7-0.5,3.7-1.3l3.4,3.4c0.2,0.2,0.6,0.2,0.8,0C55.1,13.6,55.1,13.2,54.8,13z M46.9,10.6c-2.6,0-4.7-2.1-4.7-4.7
		s2.1-4.7,4.7-4.7c2.6,0,4.7,2.1,4.7,4.7S49.5,10.6,46.9,10.6z"/>
</g>
<g>
	<path d="M24.6,65.2l-6.1-6c1.4-1.8,2.3-4.1,2.3-6.6c0-5.9-4.6-10.5-10.5-10.5C4.6,42.1,0,46.7,0,52.5S4.6,63,10.5,63
		c2.5,0,4.8-0.9,6.6-2.3l6.1,6c0.4,0.4,1.1,0.4,1.4,0C25.1,66.2,25.1,65.5,24.6,65.2z M10.5,60.9c-4.6,0-8.4-3.7-8.4-8.4
		s3.7-8.4,8.4-8.4c4.6,0,8.4,3.7,8.4,8.4S15.2,60.9,10.5,60.9z"/>
</g>
<g>
	<path class="st0" d="M24.8,34l-3.4-3.4c0.8-1,1.3-2.3,1.3-3.7c0-3.3-2.6-5.9-5.9-5.9s-5.9,2.6-5.9,5.9s2.6,5.9,5.9,5.9
		c1.4,0,2.7-0.5,3.7-1.3l3.4,3.4c0.2,0.2,0.6,0.2,0.8,0C25.1,34.6,25.1,34.2,24.8,34z M16.9,31.6c-2.6,0-4.7-2.1-4.7-4.7
		s2.1-4.7,4.7-4.7s4.7,2.1,4.7,4.7S19.5,31.6,16.9,31.6z"/>
</g>
<path d="M65.5,14c-0.2,0-0.5-0.1-0.7-0.2l-0.3-0.2c-0.4-0.2-0.7-0.5-1.1-0.7c-1.8-1.4-3.2-2.9-4.2-4.6c-0.6-0.9-0.9-1.9-1.1-2.8
	C57.9,4.3,58.2,3,58.9,2s1.8-1.7,2.9-1.9c1.4-0.2,2.7,0.1,3.7,1.1c0.4-0.3,0.8-0.6,1.3-0.8c1.3-0.5,2.8-0.4,4,0.3s2,2,2.2,3.4
	c0.1,1-0.1,2-0.5,3c-0.5,1.2-1.3,2.3-2.4,3.5s-2.2,2.2-3.3,2.9c-0.1,0.1-0.3,0.2-0.4,0.2l-0.2,0.1C66,13.9,65.7,14,65.5,14z
	 M62.6,1.2c-0.2,0-0.4,0-0.6,0c-0.8,0.1-1.6,0.6-2.2,1.4c-0.5,0.8-0.7,1.7-0.6,2.6c0.2,0.8,0.5,1.6,1,2.4c1,1.6,2.3,3,3.9,4.3
	c0.3,0.2,0.6,0.5,1,0.7l0.3,0.2c0,0,0.1,0.1,0.2,0l0.2-0.1c0.1-0.1,0.2-0.1,0.3-0.2c1.1-0.7,2.1-1.6,3.1-2.7s1.7-2.1,2.2-3.2
	c0.4-0.9,0.5-1.7,0.5-2.4l0,0c-0.1-1.1-0.7-2-1.6-2.5s-2-0.6-3-0.2C66.8,1.7,66.4,2,66,2.4l-0.3,0.3l-0.4-0.2c0,0-0.1-0.1-0.2-0.1
	L65,2.3C64.3,1.5,63.5,1.2,62.6,1.2z"/>
<path class="st1" d="M33.3,35c-0.2,0-0.5-0.1-0.7-0.2l-0.3-0.2c-0.4-0.2-0.7-0.5-1.1-0.7C29.4,32.5,28,31,27,29.3
	c-0.6-0.9-0.9-1.9-1.1-2.8C25.7,25.3,26,24,26.7,23s1.8-1.7,2.9-1.9c1.4-0.2,2.7,0.1,3.7,1.1c0.4-0.3,0.8-0.6,1.3-0.8
	c1.3-0.5,2.8-0.4,4,0.3s2,2,2.2,3.4c0.1,1-0.1,2-0.5,3c-0.5,1.2-1.3,2.3-2.4,3.5c-1.1,1.2-2.2,2.2-3.3,2.9c-0.1,0.1-0.3,0.2-0.4,0.2
	L34,34.8C33.8,34.9,33.5,35,33.3,35z M30.4,22.2c-0.2,0-0.4,0-0.6,0c-0.8,0.1-1.6,0.6-2.2,1.4c-0.5,0.8-0.7,1.7-0.6,2.6
	c0.2,0.8,0.5,1.6,1,2.4c1,1.6,2.3,3,3.9,4.3c0.3,0.2,0.6,0.5,1,0.7l0.3,0.2c0,0,0.1,0.1,0.2,0l0.2-0.1c0.1-0.1,0.2-0.1,0.3-0.2
	c1.1-0.7,2.1-1.6,3.1-2.7s1.7-2.1,2.2-3.2c0.4-0.9,0.5-1.7,0.5-2.4l0,0c-0.1-1.1-0.7-2-1.6-2.5c-0.9-0.5-2-0.6-3-0.2
	c-0.5,0.2-0.9,0.5-1.3,0.9l-0.3,0.3l-0.4-0.2c0,0-0.1-0.1-0.2-0.1l-0.1-0.1C32.1,22.5,31.3,22.2,30.4,22.2z"/>
<path d="M92,17.3L91,5c0-0.3-0.3-0.5-0.6-0.5h-1.8C88.6,2,86.5,0,84,0s-4.6,2-4.6,4.5h-1.8C77.2,4.5,77,4.7,77,5l-1,12.4
	c0,0.2,0,0.3,0.2,0.4c0.1,0.1,0.3,0.2,0.4,0.2h14.8l0,0C91.7,18,92,17.7,92,17.3L92,17.3z M84,1.1c1.9,0,3.5,1.5,3.5,3.4h-6.9
	C80.5,2.6,82.1,1.1,84,1.1z M77.2,16.9l0.9-11.3h1.3v1.1c0,0.3,0.3,0.6,0.6,0.6c0.3,0,0.6-0.3,0.6-0.6V5.6h6.9v1.1
	c0,0.3,0.3,0.6,0.6,0.6c0.3,0,0.6-0.3,0.6-0.6V5.6H90l0.9,11.3H77.2z"/>
<path class="st0" d="M59.8,38.3l-1-12.3c0-0.3-0.3-0.5-0.6-0.5h-1.8c0-2.5-2.1-4.5-4.6-4.5s-4.6,2-4.6,4.5h-1.8
	c-0.3,0-0.6,0.2-0.6,0.5l-1,12.4c0,0.2,0,0.3,0.2,0.4c0.1,0.1,0.3,0.2,0.4,0.2h14.8l0,0c0.3,0,0.6-0.3,0.6-0.6
	C59.8,38.4,59.8,38.3,59.8,38.3z M51.8,22.1c1.9,0,3.5,1.5,3.5,3.4h-6.9C48.3,23.6,49.9,22.1,51.8,22.1z M45,37.9l0.9-11.3h1.3v1.1
	c0,0.3,0.3,0.6,0.6,0.6s0.6-0.3,0.6-0.6v-1.1h6.9v1.1c0,0.3,0.3,0.6,0.6,0.6s0.6-0.3,0.6-0.6v-1.1h1.3l0.9,11.3H45z"/>
<path d="M103.3,9.3c1.6-0.8,2.6-2.5,2.6-4.3c0-2.7-2.2-5-4.9-5c-2.7,0-4.9,2.2-4.9,5c0,1.9,1.1,3.5,2.6,4.3c-2.2,0.9-3.7,3-3.7,5.5
	V17h1v-2.2c0-2.7,2.2-5,5-5c2.7,0,5,2.2,5,5V17h1v-2.2C107,12.4,105.5,10.2,103.3,9.3z M97.1,5c0-2.1,1.8-4,3.9-4s3.9,1.8,3.9,4
	c0,2.1-1.7,3.9-3.9,3.9C98.9,8.9,97.1,7.1,97.1,5z"/>
<path class="st0" d="M71.1,30.3c1.6-0.8,2.6-2.5,2.6-4.3c0-2.7-2.2-5-4.9-5c-2.7,0-4.9,2.2-4.9,5c0,1.9,1.1,3.5,2.6,4.3
	c-2.2,0.9-3.7,3-3.7,5.5V38h1v-2.2c0-2.7,2.2-5,5-5c2.7,0,5,2.2,5,5V38h1v-2.2C74.8,33.4,73.3,31.2,71.1,30.3z M64.9,26
	c0-2.1,1.8-4,3.9-4s3.9,1.8,3.9,4c0,2.1-1.7,3.9-3.9,3.9C66.7,29.9,64.9,28.1,64.9,26z"/>
<g>
	<rect x="110" width="19" height="2"/>
	<rect x="110" y="6" width="16" height="2"/>
	<rect x="110" y="12" width="13" height="2"/>
</g>
<g>
	<rect x="77.8" y="21" class="st0" width="19" height="2"/>
	<rect x="77.8" y="27" class="st0" width="16" height="2"/>
	<rect x="77.8" y="33" class="st0" width="13" height="2"/>
</g>
<polygon points="39.3,43.5 37.9,42.1 33.7,46.3 29.4,42.1 28,43.5 32.2,47.7 28,51.9 29.4,53.4 33.7,49.1 37.9,53.4 39.3,51.9 
	35.1,47.7 "/>
<polygon points="36,57.4 35,56.4 32,59.4 29,56.4 28,57.4 31,60.4 28,63.4 29,64.4 32,61.4 35,64.4 36,63.4 33,60.4 "/>
<g>
	<g id="Pencil">
		<g>
			<path d="M73.6,42.8c-0.5-0.5-1.1-0.7-1.7-0.7s-1.2,0.2-1.7,0.7L63,49.9L62.9,50l-1.6,4.5c-0.1,0.1,0,0.3,0.1,0.4
				c0.1,0.1,0.2,0.1,0.3,0.1h0.1l4-1.2c0.1,0,0.1-0.1,0.2-0.1l7.6-7.6c0.5-0.5,0.7-1.1,0.7-1.7C74.3,43.9,74.1,43.3,73.6,42.8z
				 M65.4,53.1l-1.5,0.5c-0.1-0.3-0.2-0.5-0.4-0.7s-0.4-0.3-0.6-0.4l0.7-1.9h0.9v0.8c0,0.2,0.2,0.4,0.4,0.4h0.7L65.4,53.1z
				 M71.4,47.2l-4.9,4.9l0.1-0.7c0-0.1,0-0.2-0.1-0.3s-0.2-0.2-0.3-0.2h-0.8v-0.8c0-0.2-0.2-0.4-0.4-0.4h-0.6l4.8-4.8l0,0
				c0.3-0.3,0.7-0.5,1.1-0.5s0.8,0.2,1.1,0.5c0.3,0.3,0.5,0.7,0.5,1.1S71.7,46.9,71.4,47.2z M73,45.6L72.6,46c0-0.6-0.3-1.1-0.7-1.5
				c-0.4-0.4-1-0.7-1.5-0.7l0.4-0.4l0,0c0.3-0.3,0.7-0.5,1.1-0.5s0.8,0.2,1.1,0.5c0.3,0.3,0.5,0.7,0.5,1.1
				C73.5,44.9,73.3,45.3,73,45.6z M70.4,45.5l-4.1,4.1c-0.2,0.2-0.2,0.4,0,0.6c0.1,0.1,0.2,0.1,0.3,0.1s0.2,0,0.3-0.1l4.1-4.1
				c0.2-0.2,0.2-0.4,0-0.6C70.8,45.3,70.5,45.3,70.4,45.5z"/>
		</g>
	</g>
</g>
<g>
	<path d="M122,55.1h-1v-3.909h-2v2.606h-1v-2.805c0-0.479,0.321-0.801,0.8-0.801h2.4c0.479,0,0.8,0.322,0.8,0.801V55.1z"/>
	<path d="M125.1,55.6h-10.4c-0.479,0-0.8-0.322-0.8-0.801v-8.216c0-0.072,0.018-0.325,0.247-0.554l5.239-4.243
		c0.1-0.105,0.302-0.187,0.513-0.187c0,0,0,0,0.001,0c0.211,0,0.414,0.082,0.555,0.223l5.16,4.172l-0.629,0.777l-5.087-4.117
		l-4.998,4.048V54.6h10v-5.712h1v5.911C125.9,55.278,125.579,55.6,125.1,55.6z M119.786,42.564c0.001,0.002,0.004,0.005,0.01,0.008
		L119.786,42.564z M120.056,42.527l-0.048,0.039C120.024,42.555,120.041,42.542,120.056,42.527z"/>
</g>
<g>
	<path class="st2" d="M105.8,24.2c0-1.2-1-2.2-2.1-2.2s-2.1,1-2.1,2.2s1,2.1,2.1,2.1C104.9,26.4,105.8,25.4,105.8,24.2z"/>
	<path class="st0" d="M105.2,27c1-0.5,1.7-1.6,1.7-2.8c0-1.7-1.4-3.2-3.2-3.2c-1.7,0-3.2,1.4-3.2,3.2c0,1.2,0.7,2.3,1.7,2.8
		c-1.4,0.6-2.4,1.9-2.4,3.6V32h0.6h0.4v-1.2c0-1.6,1.3-2.9,2.9-2.9s2.9,1.3,2.9,2.9V32h0.4h0.6v-1.4C107.6,29,106.6,27.6,105.2,27z
		 M101.6,24.2c0-1.1,1-2.2,2.1-2.2s2.1,1,2.1,2.2c0,1.1-0.9,2.1-2.1,2.1C102.5,26.4,101.6,25.4,101.6,24.2z"/>
</g>
<g>
	<g>
		<path d="M56.347,42.1h-12.09c-1.079,0-1.957,0.793-1.957,1.768v7.465c0,0.975,0.877,1.768,1.957,1.768h12.087
			c1.079,0,1.957-0.793,1.957-1.768v-7.462C58.303,42.896,57.426,42.1,56.347,42.1z M57.409,51.332c0,0.529-0.477,0.96-1.063,0.96
			h-12.09c-0.586,0-1.063-0.431-1.063-0.96v-7.462c0-0.529,0.477-0.96,1.063-0.96h12.087c0.586,0,1.063,0.431,1.063,0.96v7.462
			H57.409z"/>
		<path d="M52.391,47.507l3.913-3.17c0.182-0.15,0.199-0.404,0.033-0.571c-0.166-0.164-0.447-0.179-0.632-0.03l-5.396,4.375
			l-1.053-0.849c-0.003-0.003-0.007-0.006-0.007-0.009c-0.023-0.021-0.046-0.039-0.073-0.057l-4.284-3.463
			c-0.185-0.15-0.467-0.135-0.632,0.033c-0.166,0.167-0.149,0.422,0.036,0.571l3.959,3.197l-3.943,3.335
			c-0.179,0.153-0.189,0.407-0.02,0.571c0.089,0.084,0.209,0.129,0.328,0.129c0.109,0,0.218-0.036,0.305-0.108l4.002-3.383
			l1.086,0.876c0.086,0.069,0.192,0.102,0.298,0.102s0.215-0.036,0.298-0.105l1.116-0.903l3.979,3.415
			c0.086,0.075,0.199,0.111,0.308,0.111c0.119,0,0.235-0.042,0.324-0.126c0.169-0.162,0.162-0.419-0.017-0.571L52.391,47.507z"/>
	</g>
</g>
<g>
	<g>
		<g>
			<path d="M90.249,53.873l-0.892-2.597c0.429-0.868,0.656-1.835,0.658-2.808c0.003-1.676-0.646-3.26-1.826-4.462
				c-1.18-1.202-2.753-1.878-4.428-1.905c-0.878-0.014-1.73,0.148-2.533,0.48c-0.775,0.321-1.47,0.785-2.065,1.381
				c-0.596,0.596-1.06,1.29-1.381,2.065c-0.333,0.803-0.494,1.656-0.48,2.533c0.027,1.675,0.703,3.248,1.905,4.428
				c1.199,1.178,2.78,1.826,4.452,1.826c0.003,0,0.007,0,0.01,0c0.973-0.002,1.94-0.229,2.808-0.658l2.597,0.892
				c0.1,0.034,0.202,0.051,0.304,0.051c0.241,0,0.475-0.095,0.652-0.272C90.28,54.576,90.365,54.21,90.249,53.873z M89.118,53.918
				c-0.024,0.024-0.075,0.06-0.15,0.035l-2.575-0.885c-0.038-0.013-0.078-0.02-0.117-0.02c-0.058,0-0.116,0.014-0.169,0.042
				c-0.744,0.394-1.585,0.603-2.432,0.604c-2.84,0.005-5.19-2.302-5.235-5.142c-0.023-1.429,0.521-2.772,1.53-3.781
				c1.01-1.009,2.352-1.553,3.781-1.53c2.84,0.045,5.147,2.393,5.142,5.235c-0.001,0.847-0.21,1.688-0.604,2.432
				c-0.047,0.088-0.055,0.192-0.022,0.286l0.885,2.575C89.178,53.843,89.142,53.894,89.118,53.918z"/>
		</g>
	</g>
	<g>
		<g>
			<path d="M83.595,51.31c-0.202,0-0.395,0.177-0.385,0.385c0.009,0.209,0.169,0.385,0.385,0.385c0.202,0,0.395-0.177,0.385-0.385
				C83.971,51.487,83.811,51.31,83.595,51.31z"/>
		</g>
	</g>
	<g>
		<g>
			<path d="M83.595,45.342c-1.057,0-1.917,0.86-1.917,1.917c0,0.213,0.173,0.385,0.385,0.385c0.213,0,0.385-0.173,0.385-0.385
				c0-0.632,0.514-1.147,1.147-1.147s1.147,0.514,1.147,1.147c0,0.632-0.514,1.147-1.147,1.147c-0.213,0-0.385,0.173-0.385,0.385
				v1.572c0,0.213,0.173,0.385,0.385,0.385c0.213,0,0.385-0.173,0.385-0.385v-1.225c0.873-0.179,1.532-0.953,1.532-1.878
				C85.512,46.202,84.652,45.342,83.595,45.342z"/>
		</g>
	</g>
</g>
<g>
	<g>
		<path d="M102.431,60.1c-0.294,0-0.588-0.108-0.823-0.323l-1.731-1.592c-0.038-0.034-0.088-0.053-0.136-0.05l-2.337,0.092
			c-0.624,0.031-1.175-0.436-1.26-1.072l-0.317-2.347c-0.007-0.051-0.033-0.096-0.073-0.127l-1.848-1.451
			c-0.5-0.393-0.623-1.099-0.286-1.642l1.247-2.004c0.027-0.043,0.036-0.095,0.025-0.145l-0.495-2.316
			c-0.134-0.627,0.22-1.247,0.823-1.443l2.227-0.723c0.048-0.016,0.087-0.049,0.111-0.094l1.09-2.097
			c0.295-0.567,0.96-0.813,1.546-0.57l2.165,0.896c0.046,0.019,0.099,0.019,0.145,0l2.164-0.896c0.585-0.243,1.25,0.002,1.546,0.57
			l1.09,2.097c0.023,0.044,0.064,0.079,0.112,0.094l2.226,0.724c0.603,0.196,0.957,0.816,0.823,1.443l-0.495,2.316
			c-0.011,0.05-0.002,0.102,0.025,0.146l1.246,2.004c0.337,0.543,0.214,1.248-0.286,1.642l-1.848,1.452
			c-0.04,0.031-0.066,0.077-0.073,0.128l-0.317,2.347c-0.086,0.636-0.627,1.102-1.26,1.071l-2.336-0.092
			c-0.059-0.001-0.099,0.016-0.136,0.05l-1.732,1.592C103.02,59.992,102.725,60.1,102.431,60.1z M99.75,57.089
			c0.303,0,0.593,0.113,0.82,0.321l1.732,1.593c0.074,0.067,0.184,0.067,0.258,0l1.732-1.592c0.239-0.22,0.541-0.335,0.87-0.32
			l2.336,0.092c0.084-0.003,0.184-0.068,0.198-0.168l0.317-2.347c0.044-0.324,0.208-0.612,0.462-0.813l1.848-1.452
			c0.078-0.062,0.098-0.172,0.045-0.257l-1.247-2.004c-0.172-0.278-0.229-0.605-0.16-0.924l0.495-2.316
			c0.021-0.098-0.034-0.196-0.129-0.226L107.1,45.95c-0.307-0.1-0.559-0.314-0.709-0.602l-1.09-2.097
			c-0.047-0.089-0.15-0.128-0.242-0.089l-2.165,0.896c-0.298,0.123-0.627,0.123-0.925,0l-2.165-0.896
			c-0.091-0.039-0.196,0-0.242,0.089l-1.09,2.096c-0.15,0.288-0.401,0.503-0.709,0.603l-2.227,0.723
			c-0.094,0.031-0.15,0.128-0.129,0.226l0.495,2.316c0.068,0.319,0.011,0.647-0.161,0.924l-1.247,2.005
			c-0.053,0.085-0.034,0.196,0.045,0.258l1.848,1.451c0.255,0.2,0.419,0.489,0.463,0.813l0.317,2.348
			c0.013,0.099,0.093,0.164,0.198,0.168l2.337-0.092C99.717,57.089,99.734,57.089,99.75,57.089z"/>
	</g>
	<g>
		<path d="M101.679,48.238c0.223,0.135,0.4,0.316,0.531,0.542c0.131,0.226,0.196,0.469,0.196,0.729c0,0.26-0.065,0.504-0.196,0.729
			c-0.131,0.226-0.306,0.405-0.527,0.538c-0.221,0.133-0.462,0.199-0.723,0.199s-0.504-0.066-0.727-0.199
			c-0.223-0.133-0.4-0.312-0.531-0.538c-0.131-0.226-0.196-0.469-0.196-0.729c0-0.26,0.066-0.503,0.196-0.729
			c0.131-0.226,0.308-0.407,0.531-0.542c0.223-0.135,0.465-0.202,0.727-0.202C101.216,48.035,101.456,48.103,101.679,48.238z
			 M104.361,48.035c0.107,0,0.196,0.037,0.269,0.11c0.073,0.074,0.109,0.162,0.109,0.265c0,0.083-0.027,0.16-0.08,0.228
			l-3.861,5.032c-0.073,0.079-0.165,0.118-0.276,0.118c-0.107,0-0.195-0.037-0.265-0.111c-0.07-0.074-0.105-0.162-0.105-0.265
			s0.029-0.187,0.087-0.25l3.824-4.98C104.151,48.085,104.25,48.035,104.361,48.035z M100.454,49
			c-0.138,0.142-0.207,0.312-0.207,0.508c0,0.196,0.069,0.365,0.207,0.505c0.138,0.14,0.306,0.21,0.505,0.21
			c0.194,0,0.36-0.07,0.498-0.21c0.138-0.14,0.207-0.308,0.207-0.505c0-0.196-0.07-0.366-0.211-0.508
			c-0.141-0.142-0.305-0.214-0.494-0.214C100.76,48.787,100.592,48.858,100.454,49z M104.631,51.052
			c0.223,0.13,0.401,0.308,0.534,0.534c0.133,0.226,0.2,0.471,0.2,0.737c0,0.265-0.066,0.509-0.196,0.733
			c-0.131,0.224-0.308,0.402-0.531,0.534c-0.223,0.133-0.465,0.199-0.727,0.199c-0.262,0-0.503-0.066-0.723-0.199
			c-0.221-0.133-0.396-0.311-0.527-0.534c-0.131-0.223-0.196-0.468-0.196-0.733c0-0.265,0.066-0.509,0.196-0.733
			c0.131-0.223,0.306-0.401,0.527-0.534c0.221-0.133,0.462-0.199,0.723-0.199C104.168,50.857,104.408,50.922,104.631,51.052z
			 M103.413,51.818c-0.138,0.14-0.207,0.308-0.207,0.505c0,0.196,0.069,0.365,0.207,0.505c0.138,0.14,0.304,0.21,0.498,0.21
			s0.361-0.07,0.502-0.21s0.211-0.308,0.211-0.505c0-0.196-0.07-0.365-0.211-0.505c-0.141-0.14-0.308-0.21-0.502-0.21
			S103.551,51.678,103.413,51.818z"/>
	</g>
</g>
<g>
	<g>
		<path class="st3" d="M75.5,101c-0.506,0-1.013-0.185-1.417-0.556l-2.982-2.742c-0.065-0.059-0.152-0.091-0.234-0.087l-4.025,0.158
			c-1.075,0.053-2.023-0.751-2.17-1.846l-0.546-4.042c-0.012-0.088-0.056-0.165-0.125-0.219l-3.183-2.5
			c-0.861-0.678-1.073-1.893-0.492-2.828l2.147-3.452c0.046-0.074,0.062-0.163,0.043-0.249l-0.852-3.989
			c-0.23-1.08,0.378-2.148,1.417-2.486l3.835-1.246c0.082-0.027,0.15-0.084,0.191-0.162l1.877-3.611
			c0.508-0.977,1.653-1.399,2.662-0.982l3.729,1.543c0.08,0.033,0.17,0.033,0.25,0l3.728-1.543c1.008-0.419,2.154,0.004,2.662,0.982
			l1.877,3.611c0.04,0.076,0.11,0.135,0.192,0.162l3.834,1.246c1.039,0.337,1.647,1.406,1.417,2.486l-0.852,3.988
			c-0.019,0.087-0.003,0.176,0.044,0.251l2.147,3.451c0.581,0.935,0.369,2.15-0.492,2.827l-3.183,2.5
			c-0.069,0.054-0.113,0.132-0.125,0.22l-0.546,4.042c-0.148,1.095-1.079,1.898-2.17,1.845l-4.024-0.158
			c-0.102-0.002-0.171,0.027-0.235,0.086l-2.983,2.742C76.513,100.814,76.007,101,75.5,101z M70.882,95.814
			c0.523,0,1.022,0.194,1.413,0.553l2.983,2.743c0.127,0.116,0.318,0.116,0.444,0l2.982-2.742c0.411-0.378,0.932-0.576,1.499-0.552
			l4.023,0.158c0.145-0.004,0.317-0.118,0.34-0.29l0.546-4.042c0.076-0.558,0.358-1.055,0.796-1.399l3.183-2.5
			c0.135-0.106,0.168-0.297,0.077-0.443l-2.147-3.452c-0.296-0.478-0.394-1.043-0.276-1.592l0.852-3.988
			c0.036-0.169-0.059-0.337-0.222-0.39l-3.835-1.246c-0.529-0.172-0.963-0.54-1.221-1.037l-1.877-3.611
			c-0.08-0.153-0.259-0.221-0.417-0.153l-3.729,1.543c-0.513,0.212-1.079,0.212-1.593,0l-3.729-1.544
			c-0.157-0.066-0.338,0-0.418,0.154l-1.877,3.61c-0.258,0.496-0.691,0.866-1.22,1.038l-3.836,1.246
			c-0.162,0.053-0.258,0.221-0.222,0.39l0.852,3.988c0.118,0.549,0.02,1.114-0.276,1.591l-2.147,3.453
			c-0.091,0.146-0.058,0.337,0.078,0.444l3.182,2.499c0.439,0.345,0.722,0.842,0.797,1.399l0.546,4.043
			c0.023,0.171,0.16,0.282,0.34,0.289l4.024-0.158C70.826,95.814,70.854,95.814,70.882,95.814z"/>
	</g>
	<g>
		<path class="st3" d="M74.204,80.571c0.384,0.233,0.689,0.544,0.914,0.933c0.226,0.389,0.338,0.808,0.338,1.256
			c0,0.449-0.112,0.867-0.338,1.256c-0.225,0.389-0.528,0.698-0.907,0.926c-0.38,0.228-0.795,0.343-1.246,0.343
			s-0.868-0.114-1.252-0.343c-0.384-0.228-0.689-0.537-0.914-0.926c-0.225-0.389-0.338-0.807-0.338-1.256
			c0-0.448,0.113-0.867,0.338-1.256c0.225-0.389,0.53-0.7,0.914-0.933c0.384-0.233,0.801-0.349,1.252-0.349
			C73.407,80.222,73.82,80.338,74.204,80.571z M78.824,80.222c0.184,0,0.338,0.063,0.464,0.19c0.125,0.127,0.187,0.279,0.187,0.457
			c0,0.144-0.046,0.275-0.138,0.393l-6.649,8.666c-0.125,0.135-0.284,0.203-0.476,0.203c-0.184,0-0.336-0.063-0.457-0.19
			c-0.121-0.127-0.181-0.279-0.181-0.456s0.05-0.321,0.15-0.431l6.586-8.577C78.461,80.307,78.632,80.222,78.824,80.222z
			 M72.094,81.884c-0.238,0.245-0.357,0.537-0.357,0.876c0,0.338,0.119,0.628,0.357,0.869c0.238,0.241,0.528,0.361,0.87,0.361
			c0.334,0,0.62-0.12,0.858-0.361c0.238-0.241,0.357-0.531,0.357-0.869c0-0.338-0.121-0.63-0.363-0.876
			c-0.242-0.245-0.526-0.368-0.852-0.368C72.622,81.516,72.332,81.639,72.094,81.884z M79.288,85.418
			c0.384,0.224,0.69,0.531,0.92,0.92c0.23,0.389,0.345,0.812,0.345,1.269c0,0.456-0.113,0.877-0.338,1.262
			c-0.226,0.385-0.53,0.692-0.914,0.92c-0.384,0.228-0.801,0.343-1.252,0.343c-0.45,0-0.866-0.114-1.246-0.343
			c-0.38-0.228-0.683-0.535-0.908-0.92c-0.225-0.385-0.338-0.806-0.338-1.262c0-0.457,0.113-0.877,0.338-1.263
			c0.225-0.385,0.528-0.691,0.908-0.92c0.38-0.228,0.795-0.343,1.246-0.343C78.49,85.081,78.904,85.194,79.288,85.418z
			 M77.19,86.737c-0.238,0.241-0.357,0.531-0.357,0.869s0.119,0.628,0.357,0.869c0.238,0.241,0.524,0.361,0.858,0.361
			s0.622-0.12,0.864-0.361c0.242-0.241,0.363-0.531,0.363-0.869s-0.121-0.628-0.363-0.869c-0.242-0.241-0.53-0.361-0.864-0.361
			S77.428,86.496,77.19,86.737z"/>
	</g>
</g>
<path class="st4" d="M153.548,0.346c-0.436-0.461-1.162-0.461-1.613,0c-0.436,0.446-0.436,1.187,0,1.632l8.177,8.359h-26.984
	C132.5,10.338,132,10.849,132,11.492s0.5,1.171,1.129,1.171h26.984l-8.177,8.343c-0.436,0.461-0.436,1.204,0,1.648
	c0.451,0.461,1.178,0.461,1.613,0l10.113-10.338c0.451-0.446,0.451-1.187,0-1.632L153.548,0.346z"/>
<g>
	<g>
		<path class="st3" d="M15,100c-0.49,0-0.98-0.179-1.371-0.538l-2.886-2.654c-0.063-0.057-0.148-0.086-0.227-0.084l-3.895,0.153
			c-1.043,0.046-1.958-0.726-2.1-1.786l-0.528-3.912c-0.011-0.085-0.055-0.16-0.121-0.212l-3.08-2.419
			c-0.834-0.656-1.039-1.833-0.476-2.737l2.077-3.341c0.045-0.071,0.06-0.158,0.042-0.241l-0.825-3.86
			c-0.223-1.045,0.366-2.079,1.371-2.406l3.711-1.206c0.08-0.026,0.145-0.082,0.184-0.157l1.817-3.494
			c0.492-0.945,1.6-1.354,2.576-0.95l3.608,1.493c0.077,0.032,0.164,0.031,0.242,0l3.607-1.493c0.977-0.404,2.085,0.004,2.577,0.951
			l1.816,3.494c0.039,0.075,0.105,0.132,0.186,0.157l3.71,1.206c1.005,0.326,1.594,1.361,1.371,2.405l-0.825,3.86
			c-0.018,0.084-0.003,0.17,0.042,0.242l2.078,3.34c0.562,0.904,0.358,2.08-0.476,2.736l-3.08,2.419
			c-0.066,0.052-0.11,0.128-0.121,0.213l-0.528,3.912c-0.143,1.06-1.058,1.838-2.1,1.786l-3.894-0.153
			c-0.094,0-0.165,0.026-0.227,0.083l-2.887,2.654C15.98,99.82,15.49,100,15,100z M10.531,94.981c0.506,0,0.989,0.188,1.367,0.535
			l2.887,2.654c0.123,0.112,0.307,0.112,0.43,0l2.886-2.654c0.398-0.366,0.903-0.559,1.451-0.534l3.893,0.153
			c0.144,0.002,0.307-0.114,0.329-0.28l0.528-3.912c0.073-0.54,0.346-1.021,0.771-1.354l3.08-2.419
			c0.131-0.103,0.163-0.287,0.075-0.429h0L26.15,83.4c-0.286-0.461-0.381-1.008-0.267-1.54L26.707,78
			c0.035-0.164-0.057-0.326-0.215-0.377l-3.711-1.206c-0.512-0.167-0.932-0.523-1.182-1.005l-1.816-3.494
			c-0.078-0.149-0.251-0.213-0.404-0.149l-3.608,1.494c-0.498,0.205-1.045,0.205-1.542,0l-3.609-1.494
			c-0.151-0.064-0.327,0.001-0.404,0.149L8.4,75.412c-0.249,0.48-0.669,0.838-1.181,1.005l-3.712,1.206
			C3.35,77.674,3.258,77.836,3.293,78l0.824,3.86c0.113,0.531,0.019,1.077-0.267,1.538L1.772,86.74
			c-0.088,0.142-0.056,0.326,0.075,0.429l3.079,2.419c0.425,0.334,0.698,0.815,0.772,1.354l0.528,3.913
			c0.022,0.166,0.163,0.278,0.329,0.28l3.894-0.153C10.477,94.981,10.504,94.981,10.531,94.981z"/>
	</g>
	<g>
		<polygon class="st3" points="12.126,89.153 9.095,87.008 10.341,89.933 9.511,90.296 7.6,85.81 8.47,85.43 11.558,87.633 
			10.282,84.638 11.112,84.274 13.023,88.76 		"/>
		<polygon class="st3" points="13.968,88.347 12.058,83.861 15.34,82.425 15.663,83.184 13.274,84.229 13.698,85.223 15.92,84.251 
			16.242,85.007 14.02,85.979 14.54,87.2 17.013,86.118 17.335,86.874 		"/>
		<polygon class="st3" points="21.451,85.074 19.141,82.106 19.691,85.844 18.721,86.268 15.754,82.245 16.669,81.844 
			18.649,84.634 18.146,81.199 19.209,80.734 21.319,83.528 20.664,80.097 21.564,79.703 22.4,84.66 		"/>
	</g>
</g>
<g>
	<g>
		<path class="st3" d="M52.012,92H37.988c-0.645,0-1.169-0.527-1.169-1.175v-9.927l-3.471-3.526
			c-0.242-0.254-0.356-0.553-0.348-0.866c0.008-0.314,0.138-0.606,0.364-0.822l4.639-4.159c0.109-0.1,0.239-0.179,0.382-0.231
			l3.362-1.223c0.109-0.039,0.221-0.061,0.334-0.067c0.633-0.041,1.193,0.463,1.228,1.11c0.015,0.283,0.168,1.673,1.688,1.697
			c1.525-0.025,1.643-1.508,1.651-1.677c0.006-0.131,0.029-0.246,0.068-0.356c0.108-0.298,0.322-0.533,0.605-0.666
			c0.284-0.133,0.602-0.146,0.894-0.04l3.363,1.208c0.15,0.055,0.28,0.135,0.393,0.239l4.706,4.209
			c0.215,0.228,0.329,0.526,0.321,0.839c-0.008,0.314-0.138,0.606-0.364,0.822l-3.454,3.51v9.927C53.181,91.473,52.657,92,52.012,92
			z M38.272,90.539h13.455V80.297l3.69-3.749l-4.382-3.914l-2.967-1.066c-0.154,0.953-0.876,2.668-3.07,2.702
			c-2.117-0.033-2.914-1.613-3.098-2.702l-2.966,1.079l-4.351,3.901l3.69,3.748V90.539z M55.618,76.344
			c-0.002,0.002-0.005,0.005-0.007,0.007L55.618,76.344z M38.977,72.61l-0.004,0.003C38.974,72.612,38.976,72.611,38.977,72.61z
			 M50.998,72.602c0.001,0.001,0.003,0.002,0.004,0.004L50.998,72.602z M47.724,71.445c0.001,0,0.001,0,0.002,0.001L47.724,71.445z"
			/>
	</g>
</g>
<g>
	<g id="Pencil_1_">
		<g>
			<path class="st3" d="M111.977,71.022c-0.658-0.66-1.535-1.022-2.467-1.022s-1.808,0.362-2.466,1.021L96.55,81.454
				c-0.062,0.062-0.11,0.136-0.14,0.218l-2.375,6.531c-0.077,0.211-0.027,0.449,0.128,0.612c0.114,0.12,0.27,0.185,0.431,0.185
				c0.058,0,0.116-0.008,0.174-0.026l5.907-1.812c0.093-0.028,0.177-0.079,0.246-0.147l11.056-11.056
				c0.66-0.658,1.023-1.536,1.023-2.468C113,72.558,112.638,71.681,111.977,71.022z M99.993,86.129l-2.211,0.679
				c-0.129-0.378-0.33-0.713-0.603-0.987c-0.238-0.237-0.514-0.421-0.805-0.571l1.012-2.782h1.366v1.187
				c0,0.328,0.265,0.594,0.594,0.594h1.048L99.993,86.129z M108.733,77.523l-7.234,7.234l0.208-0.978
				c0.037-0.176-0.007-0.358-0.12-0.497c-0.113-0.14-0.282-0.22-0.461-0.22h-1.188v-1.187c0-0.328-0.266-0.594-0.594-0.594h-0.937
				l7.061-7.021l0.007,0.007c0.435-0.435,1.014-0.674,1.628-0.674s1.194,0.239,1.628,0.674c0.434,0.435,0.676,1.014,0.676,1.629
				C109.408,76.51,109.168,77.088,108.733,77.523z M111.137,75.119l-0.553,0.554c-0.053-0.848-0.406-1.639-1.011-2.245
				c-0.606-0.607-1.398-0.958-2.249-1.011l0.557-0.553l0.001-0.001c0.433-0.435,1.012-0.674,1.627-0.674s1.193,0.239,1.627,0.674
				c0.436,0.435,0.676,1.014,0.676,1.628C111.813,74.106,111.574,74.684,111.137,75.119z M107.237,74.924l-5.938,5.937
				c-0.232,0.232-0.232,0.607,0,0.84c0.115,0.116,0.268,0.174,0.42,0.174s0.303-0.058,0.42-0.174l5.938-5.937
				c0.232-0.232,0.232-0.607,0-0.84C107.844,74.692,107.469,74.692,107.237,74.924z"/>
		</g>
	</g>
</g>
<path d="M120.701,21.165c-0.204-0.221-0.544-0.221-0.756,0c-0.204,0.213-0.204,0.568,0,0.78l3.833,3.998h-12.649
	c-0.295,0-0.529,0.245-0.529,0.552c0,0.308,0.234,0.56,0.529,0.56h12.649l-3.833,3.99c-0.204,0.221-0.204,0.576,0,0.788
	c0.211,0.221,0.552,0.221,0.756,0l4.741-4.944c0.211-0.213,0.211-0.568,0-0.78L120.701,21.165z"/>
</svg>
