<?xml version="1.0" encoding="utf-8"?>
<!-- Generator: Adobe Illustrator 22.0.1, SVG Export Plug-In . SVG Version: 6.00 Build 0)  -->
<svg version="1.1" id="Слой_1" xmlns="http://www.w3.org/2000/svg" xmlns:xlink="http://www.w3.org/1999/xlink" x="0px" y="0px"
	 width="1920px" height="1080px" viewBox="0 0 1920 1080" style="enable-background:new 0 0 1920 1080;" xml:space="preserve">
<style type="text/css">
	.st0{fill:#009FE3;}
	.st1{fill:#E30613;}
</style>
<g>
	<path d="M5,7C3.8,7,2.8,6,2.8,4.9s1-2.1,2.2-2.1s2.2,1,2.2,2.1S6.2,7,5,7z M5,3.8c-0.6,0-1,0.5-1,1.1s0.4,1,1,1s1.1-0.5,1.1-1.1
		S5.6,3.8,5,3.8z"/>
	<path d="M5,14L1,8.3c-1.5-1.9-1.3-5.1,0.5-6.8C2.4,0.5,3.7,0,5,0s2.6,0.5,3.5,1.4l0,0l0,0c1.7,1.7,2,4.9,0.5,6.9L5,14z M5,1.1
		c-1,0-2,0.4-2.8,1.1C0.9,3.5,0.7,6.1,1.9,7.7L5,12.1l3.1-4.4c1.2-1.5,1-4.1-0.4-5.5l0,0C7,1.5,6,1.1,5,1.1z"/>
</g>
<g>
	<path d="M23.9,14c-0.6,0-1.3-0.1-2.1-0.4c-1.6-0.6-3.4-1.8-5-3.4s-2.8-3.3-3.4-5c-0.6-1.7-0.6-3,0.1-3.7c0.1-0.1,0.1-0.2,0.2-0.2
		C14.3,0.7,15,0,16,0c0.7,0,1.3,0.4,1.9,1.2c1.7,2.1,1,3,0,4l0,0C18,5.4,18.2,6,19.6,7.4c0.7,0.7,1.3,1.2,1.7,1.5
		c0.2,0.2,0.4,0.2,0.5,0.3l0,0c1-1,1.9-1.7,4,0C26.6,9.7,27,10.3,27,11c0,1-0.7,1.7-1.2,2.2l-0.2,0.2C25.2,13.8,24.6,14,23.9,14z
		 M15.9,1.1c-0.5,0-0.9,0.5-1.3,0.9c-0.1,0.1-0.2,0.2-0.2,0.3c-0.3,0.3-0.4,1.2,0.1,2.5c0.6,1.5,1.7,3.1,3.1,4.6
		c1.5,1.5,3.1,2.6,4.6,3.1c1.1,0.4,2.2,0.5,2.5,0.1c0.1-0.1,0.1-0.1,0.2-0.2c0.5-0.5,0.9-0.9,0.9-1.4c0-0.3-0.3-0.7-0.7-1.1
		c-1.4-1.2-1.8-0.8-2.5-0.1L22.5,10c-0.4,0.4-1,0.3-1.8-0.2c-0.5-0.3-1.2-0.9-1.9-1.6C17.6,7,16.1,5.3,17,4.5l0.1-0.1
		c0.7-0.7,1.1-1.1-0.1-2.5C16.6,1.4,16.3,1.1,15.9,1.1L15.9,1.1z"/>
</g>
<rect y="-35.5" width="110.6" height="21"/>
<rect x="88" y="-8.8" width="3" height="3"/>
<g>
	<rect x="30" y="0" width="8" height="1"/>
	<rect x="30" y="3" width="8" height="1"/>
	<rect x="30" y="6" width="8" height="1"/>
</g>
<rect x="5.7" y="20.9" transform="matrix(0.7071 -0.7071 0.7071 0.7071 -14.3783 11.1019)" class="st0" width="1" height="4"/>
<rect y="24" class="st0" width="8" height="1"/>
<rect x="4.2" y="25.6" transform="matrix(0.7071 -0.7071 0.7071 0.7071 -16.6294 12.0276)" class="st0" width="4" height="1"/>
<g>
	<path d="M54.8,13l-3.4-3.4c0.8-1,1.3-2.3,1.3-3.7c0-3.3-2.6-5.9-5.9-5.9C43.6,0,41,2.6,41,5.9s2.6,5.9,5.9,5.9
		c1.4,0,2.7-0.5,3.7-1.3l3.4,3.4c0.2,0.2,0.6,0.2,0.8,0C55.1,13.6,55.1,13.2,54.8,13z M46.9,10.6c-2.6,0-4.7-2.1-4.7-4.7
		s2.1-4.7,4.7-4.7c2.6,0,4.7,2.1,4.7,4.7S49.5,10.6,46.9,10.6z"/>
</g>
<g>
	<path d="M24.6,65.2l-6.1-6c1.4-1.8,2.3-4.1,2.3-6.6c0-5.9-4.6-10.5-10.5-10.5C4.6,42.1,0,46.7,0,52.5S4.6,63,10.5,63
		c2.5,0,4.8-0.9,6.6-2.3l6.1,6c0.4,0.4,1.1,0.4,1.4,0C25.1,66.2,25.1,65.5,24.6,65.2z M10.5,60.9c-4.6,0-8.4-3.7-8.4-8.4
		s3.7-8.4,8.4-8.4c4.6,0,8.4,3.7,8.4,8.4S15.2,60.9,10.5,60.9z"/>
</g>
<g>
	<path class="st0" d="M24.8,34l-3.4-3.4c0.8-1,1.3-2.3,1.3-3.7c0-3.3-2.6-5.9-5.9-5.9s-5.9,2.6-5.9,5.9s2.6,5.9,5.9,5.9
		c1.4,0,2.7-0.5,3.7-1.3l3.4,3.4c0.2,0.2,0.6,0.2,0.8,0C25.1,34.6,25.1,34.2,24.8,34z M16.9,31.6c-2.6,0-4.7-2.1-4.7-4.7
		s2.1-4.7,4.7-4.7s4.7,2.1,4.7,4.7S19.5,31.6,16.9,31.6z"/>
</g>
<path d="M65.5,14c-0.2,0-0.5-0.1-0.7-0.2l-0.3-0.2c-0.4-0.2-0.7-0.5-1.1-0.7c-1.8-1.4-3.2-2.9-4.2-4.6c-0.6-0.9-0.9-1.9-1.1-2.8
	C57.9,4.3,58.2,3,58.9,2s1.8-1.7,2.9-1.9c1.4-0.2,2.7,0.1,3.7,1.1c0.4-0.3,0.8-0.6,1.3-0.8c1.3-0.5,2.8-0.4,4,0.3s2,2,2.2,3.4
	c0.1,1-0.1,2-0.5,3c-0.5,1.2-1.3,2.3-2.4,3.5s-2.2,2.2-3.3,2.9c-0.1,0.1-0.3,0.2-0.4,0.2l-0.2,0.1C66,13.9,65.7,14,65.5,14z
	 M62.6,1.2c-0.2,0-0.4,0-0.6,0c-0.8,0.1-1.6,0.6-2.2,1.4c-0.5,0.8-0.7,1.7-0.6,2.6c0.2,0.8,0.5,1.6,1,2.4c1,1.6,2.3,3,3.9,4.3
	c0.3,0.2,0.6,0.5,1,0.7l0.3,0.2c0,0,0.1,0.1,0.2,0l0.2-0.1c0.1-0.1,0.2-0.1,0.3-0.2c1.1-0.7,2.1-1.6,3.1-2.7s1.7-2.1,2.2-3.2
	c0.4-0.9,0.5-1.7,0.5-2.4l0,0c-0.1-1.1-0.7-2-1.6-2.5s-2-0.6-3-0.2C66.8,1.7,66.4,2,66,2.4l-0.3,0.3l-0.4-0.2c0,0-0.1-0.1-0.2-0.1
	L65,2.3C64.3,1.5,63.5,1.2,62.6,1.2z"/>
<path class="st1" d="M33.3,35c-0.2,0-0.5-0.1-0.7-0.2l-0.3-0.2c-0.4-0.2-0.7-0.5-1.1-0.7C29.4,32.5,28,31,27,29.3
	c-0.6-0.9-0.9-1.9-1.1-2.8C25.7,25.3,26,24,26.7,23s1.8-1.7,2.9-1.9c1.4-0.2,2.7,0.1,3.7,1.1c0.4-0.3,0.8-0.6,1.3-0.8
	c1.3-0.5,2.8-0.4,4,0.3s2,2,2.2,3.4c0.1,1-0.1,2-0.5,3c-0.5,1.2-1.3,2.3-2.4,3.5c-1.1,1.2-2.2,2.2-3.3,2.9c-0.1,0.1-0.3,0.2-0.4,0.2
	L34,34.8C33.8,34.9,33.5,35,33.3,35z M30.4,22.2c-0.2,0-0.4,0-0.6,0c-0.8,0.1-1.6,0.6-2.2,1.4c-0.5,0.8-0.7,1.7-0.6,2.6
	c0.2,0.8,0.5,1.6,1,2.4c1,1.6,2.3,3,3.9,4.3c0.3,0.2,0.6,0.5,1,0.7l0.3,0.2c0,0,0.1,0.1,0.2,0l0.2-0.1c0.1-0.1,0.2-0.1,0.3-0.2
	c1.1-0.7,2.1-1.6,3.1-2.7s1.7-2.1,2.2-3.2c0.4-0.9,0.5-1.7,0.5-2.4l0,0c-0.1-1.1-0.7-2-1.6-2.5c-0.9-0.5-2-0.6-3-0.2
	c-0.5,0.2-0.9,0.5-1.3,0.9l-0.3,0.3l-0.4-0.2c0,0-0.1-0.1-0.2-0.1l-0.1-0.1C32.1,22.5,31.3,22.2,30.4,22.2z"/>
<path d="M92,17.3L91,5c0-0.3-0.3-0.5-0.6-0.5h-1.8C88.6,2,86.5,0,84,0s-4.6,2-4.6,4.5h-1.8C77.2,4.5,77,4.7,77,5l-1,12.4
	c0,0.2,0,0.3,0.2,0.4c0.1,0.1,0.3,0.2,0.4,0.2h14.8l0,0C91.7,18,92,17.7,92,17.3L92,17.3z M84,1.1c1.9,0,3.5,1.5,3.5,3.4h-6.9
	C80.5,2.6,82.1,1.1,84,1.1z M77.2,16.9l0.9-11.3h1.3v1.1c0,0.3,0.3,0.6,0.6,0.6c0.3,0,0.6-0.3,0.6-0.6V5.6h6.9v1.1
	c0,0.3,0.3,0.6,0.6,0.6c0.3,0,0.6-0.3,0.6-0.6V5.6H90l0.9,11.3H77.2z"/>
<path class="st0" d="M59.8,38.3l-1-12.3c0-0.3-0.3-0.5-0.6-0.5h-1.8c0-2.5-2.1-4.5-4.6-4.5s-4.6,2-4.6,4.5h-1.8
	c-0.3,0-0.6,0.2-0.6,0.5l-1,12.4c0,0.2,0,0.3,0.2,0.4c0.1,0.1,0.3,0.2,0.4,0.2h14.8l0,0c0.3,0,0.6-0.3,0.6-0.6
	C59.8,38.4,59.8,38.3,59.8,38.3z M51.8,22.1c1.9,0,3.5,1.5,3.5,3.4h-6.9C48.3,23.6,49.9,22.1,51.8,22.1z M45,37.9l0.9-11.3h1.3v1.1
	c0,0.3,0.3,0.6,0.6,0.6s0.6-0.3,0.6-0.6v-1.1h6.9v1.1c0,0.3,0.3,0.6,0.6,0.6s0.6-0.3,0.6-0.6v-1.1h1.3l0.9,11.3H45z"/>
<path d="M103.3,9.3c1.6-0.8,2.6-2.5,2.6-4.3c0-2.7-2.2-5-4.9-5c-2.7,0-4.9,2.2-4.9,5c0,1.9,1.1,3.5,2.6,4.3c-2.2,0.9-3.7,3-3.7,5.5
	V17h1v-2.2c0-2.7,2.2-5,5-5c2.7,0,5,2.2,5,5V17h1v-2.2C107,12.4,105.5,10.2,103.3,9.3z M97.1,5c0-2.1,1.8-4,3.9-4s3.9,1.8,3.9,4
	c0,2.1-1.7,3.9-3.9,3.9C98.9,8.9,97.1,7.1,97.1,5z"/>
<path class="st0" d="M105.2,27c1-0.5,1.7-1.6,1.7-2.8c0-1.7-1.4-3.2-3.2-3.2c-1.7,0-3.2,1.4-3.2,3.2c0,1.2,0.7,2.3,1.7,2.8
	c-1.4,0.6-2.4,1.9-2.4,3.6V32h0.6v-1.4c0-1.7,1.4-3.2,3.2-3.2c1.7,0,3.2,1.4,3.2,3.2V32h0.6v-1.4C107.6,29,106.6,27.6,105.2,27z
	 M101.2,24.2c0-1.4,1.2-2.6,2.5-2.6c1.4,0,2.5,1.2,2.5,2.6c0,1.4-1.1,2.5-2.5,2.5C102.3,26.8,101.2,25.6,101.2,24.2z"/>
<path class="st0" d="M71.1,30.3c1.6-0.8,2.6-2.5,2.6-4.3c0-2.7-2.2-5-4.9-5c-2.7,0-4.9,2.2-4.9,5c0,1.9,1.1,3.5,2.6,4.3
	c-2.2,0.9-3.7,3-3.7,5.5V38h1v-2.2c0-2.7,2.2-5,5-5c2.7,0,5,2.2,5,5V38h1v-2.2C74.8,33.4,73.3,31.2,71.1,30.3z M64.9,26
	c0-2.1,1.8-4,3.9-4s3.9,1.8,3.9,4c0,2.1-1.7,3.9-3.9,3.9C66.7,29.9,64.9,28.1,64.9,26z"/>
<g>
	<rect x="110" y="0" width="19" height="2"/>
	<rect x="110" y="6" width="16" height="2"/>
	<rect x="110" y="12" width="13" height="2"/>
</g>
<g>
	<rect x="77.8" y="21" class="st0" width="19" height="2"/>
	<rect x="77.8" y="27" class="st0" width="16" height="2"/>
	<rect x="77.8" y="33" class="st0" width="13" height="2"/>
</g>
<polygon points="39.3,43.5 37.9,42.1 33.7,46.3 29.4,42.1 28,43.5 32.2,47.7 28,51.9 29.4,53.4 33.7,49.1 37.9,53.4 39.3,51.9 
	35.1,47.7 "/>
<polygon points="36,57.4 35,56.4 32,59.4 29,56.4 28,57.4 31,60.4 28,63.4 29,64.4 32,61.4 35,64.4 36,63.4 33,60.4 "/>
<path d="M57,42.1H43.6c-0.7,0-1.3,0.6-1.3,1.2v8.5c0,0.7,0.6,1.2,1.3,1.2H57c0.7,0,1.3-0.6,1.3-1.2v-8.5
	C58.3,42.7,57.7,42.1,57,42.1z M57,42.6c0.1,0,0.3,0,0.4,0.1l-6.5,5.5c-0.3,0.3-0.9,0.3-1.2,0l-6.5-5.5c0.1-0.1,0.2-0.1,0.4-0.1H57z
	 M57.8,51.9c0,0.4-0.3,0.7-0.8,0.7H43.6c-0.4,0-0.8-0.3-0.8-0.7v-8.5c0-0.1,0-0.2,0.1-0.3l5.2,4.4l-3,2.7c-0.1,0.1-0.1,0.3,0,0.4
	c0.1,0.1,0.1,0.1,0.2,0.1c0.1,0,0.1,0,0.2-0.1l3-2.7c0,0,0,0,0,0l0.8,0.7c0.3,0.2,0.6,0.3,0.9,0.3c0.3,0,0.7-0.1,0.9-0.3l0.8-0.7
	c0,0,0,0,0,0l3,2.7c0,0,0.1,0.1,0.2,0.1c0.1,0,0.1,0,0.2-0.1c0.1-0.1,0.1-0.3,0-0.4l-3-2.7l5.2-4.4c0,0.1,0.1,0.2,0.1,0.3V51.9z"/>
<g>
	<g id="Pencil">
		<g>
			<path d="M73.6,42.8c-0.5-0.5-1.1-0.7-1.7-0.7s-1.2,0.2-1.7,0.7L63,49.9c0,0-0.1,0.1-0.1,0.1l-1.6,4.5c-0.1,0.1,0,0.3,0.1,0.4
				c0.1,0.1,0.2,0.1,0.3,0.1c0,0,0.1,0,0.1,0l4-1.2c0.1,0,0.1-0.1,0.2-0.1l7.6-7.6c0.5-0.5,0.7-1.1,0.7-1.7
				C74.3,43.9,74.1,43.3,73.6,42.8z M65.4,53.1l-1.5,0.5c-0.1-0.3-0.2-0.5-0.4-0.7c-0.2-0.2-0.4-0.3-0.6-0.4l0.7-1.9h0.9v0.8
				c0,0.2,0.2,0.4,0.4,0.4h0.7L65.4,53.1z M71.4,47.2l-4.9,4.9l0.1-0.7c0-0.1,0-0.2-0.1-0.3c-0.1-0.1-0.2-0.2-0.3-0.2h-0.8v-0.8
				c0-0.2-0.2-0.4-0.4-0.4h-0.6l4.8-4.8l0,0c0.3-0.3,0.7-0.5,1.1-0.5s0.8,0.2,1.1,0.5c0.3,0.3,0.5,0.7,0.5,1.1S71.7,46.9,71.4,47.2z
				 M73,45.6L72.6,46c0-0.6-0.3-1.1-0.7-1.5c-0.4-0.4-1-0.7-1.5-0.7l0.4-0.4l0,0c0.3-0.3,0.7-0.5,1.1-0.5c0.4,0,0.8,0.2,1.1,0.5
				c0.3,0.3,0.5,0.7,0.5,1.1C73.5,44.9,73.3,45.3,73,45.6z M70.4,45.5l-4.1,4.1c-0.2,0.2-0.2,0.4,0,0.6c0.1,0.1,0.2,0.1,0.3,0.1
				s0.2,0,0.3-0.1l4.1-4.1c0.2-0.2,0.2-0.4,0-0.6C70.8,45.3,70.5,45.3,70.4,45.5z"/>
		</g>
	</g>
</g>
<g>
	<g>
		<g>
			<path d="M90.2,53.9l-0.9-2.6c0.4-0.9,0.7-1.8,0.7-2.8c0-1.7-0.6-3.3-1.8-4.5c-1.2-1.2-2.8-1.9-4.4-1.9c-0.9,0-1.7,0.1-2.5,0.5
				c-0.8,0.3-1.5,0.8-2.1,1.4c-0.6,0.6-1.1,1.3-1.4,2.1c-0.3,0.8-0.5,1.7-0.5,2.5c0,1.7,0.7,3.2,1.9,4.4c1.2,1.2,2.8,1.8,4.5,1.8
				c0,0,0,0,0,0c1,0,1.9-0.2,2.8-0.7l2.6,0.9c0.1,0,0.2,0.1,0.3,0.1c0.2,0,0.5-0.1,0.7-0.3C90.3,54.6,90.4,54.2,90.2,53.9z
				 M89.5,54.3c0,0-0.1,0.1-0.2,0l-2.8-0.9c0,0-0.1,0-0.1,0c-0.1,0-0.1,0-0.2,0c-0.8,0.4-1.7,0.6-2.6,0.6c-3,0-5.5-2.5-5.6-5.5
				c0-1.5,0.6-3,1.6-4c1.1-1.1,2.5-1.7,4-1.6c3,0,5.5,2.6,5.5,5.6c0,0.9-0.2,1.8-0.6,2.6c0,0.1-0.1,0.2,0,0.3l0.9,2.8
				C89.5,54.2,89.5,54.3,89.5,54.3z"/>
		</g>
	</g>
	<g>
		<g>
			<path d="M83.6,51.3c-0.2,0-0.4,0.2-0.4,0.4c0,0.2,0.2,0.4,0.4,0.4c0.2,0,0.4-0.2,0.4-0.4C84,51.5,83.8,51.3,83.6,51.3z"/>
		</g>
	</g>
	<g>
		<g>
			<path d="M83.6,45.3c-1.1,0-1.9,0.9-1.9,1.9c0,0.2,0.2,0.4,0.4,0.4c0.2,0,0.4-0.2,0.4-0.4c0-0.6,0.5-1.1,1.1-1.1
				c0.6,0,1.1,0.5,1.1,1.1s-0.5,1.1-1.1,1.1c-0.2,0-0.4,0.2-0.4,0.4v1.6c0,0.2,0.2,0.4,0.4,0.4c0.2,0,0.4-0.2,0.4-0.4v-1.2
				c0.9-0.2,1.5-1,1.5-1.9C85.5,46.2,84.7,45.3,83.6,45.3z"/>
		</g>
	</g>
</g>
<g>
	<g>
		<path d="M102.3,60.1c-0.2,0-0.5-0.1-0.7-0.3l-1.8-1.6c-0.1-0.1-0.2-0.1-0.3-0.1l-2.4,0.1c-0.5,0-1-0.4-1-0.9l-0.3-2.4
			c0-0.1-0.1-0.2-0.2-0.3l-1.9-1.5c-0.4-0.3-0.5-0.9-0.2-1.3l1.3-2.1c0.1-0.1,0.1-0.2,0.1-0.3l-0.5-2.4c-0.1-0.5,0.2-1,0.7-1.2
			l2.3-0.7c0.1,0,0.2-0.1,0.3-0.2l1.1-2.2c0.2-0.5,0.8-0.7,1.3-0.5l2.2,0.9c0.1,0,0.2,0,0.4,0l2.2-0.9c0.5-0.2,1,0,1.3,0.5l1.1,2.2
			c0.1,0.1,0.2,0.2,0.3,0.2l2.3,0.7c0.5,0.2,0.8,0.7,0.7,1.2l-0.5,2.4c0,0.1,0,0.2,0.1,0.3l1.3,2.1c0.3,0.4,0.2,1-0.2,1.3l-1.9,1.5
			c-0.1,0.1-0.2,0.2-0.2,0.3l-0.3,2.4c-0.1,0.5-0.5,0.9-1,0.9l-2.4-0.1c-0.1,0-0.2,0-0.3,0.1l-1.8,1.6
			C102.8,60,102.5,60.1,102.3,60.1z M99.7,57.1c0.2,0,0.5,0.1,0.6,0.2l1.7,1.5c0.2,0.2,0.4,0.2,0.6,0l1.7-1.5
			c0.2-0.2,0.4-0.3,0.7-0.2l2.3,0.1c0.2,0,0.4-0.2,0.4-0.4l0.3-2.3c0-0.2,0.2-0.5,0.4-0.6l1.8-1.4c0.2-0.1,0.2-0.4,0.1-0.6L109,50
			c-0.1-0.2-0.2-0.5-0.1-0.7l0.5-2.2c0-0.2-0.1-0.4-0.3-0.5l-2.2-0.7c-0.2-0.1-0.4-0.2-0.5-0.5l-1.1-2c-0.1-0.2-0.3-0.3-0.5-0.2
			l-2.1,0.9c-0.2,0.1-0.5,0.1-0.7,0l-2.1-0.9c-0.2-0.1-0.4,0-0.5,0.2l-1.1,2c-0.1,0.2-0.3,0.4-0.5,0.5l-2.2,0.7
			c-0.2,0.1-0.3,0.3-0.3,0.5l0.5,2.2c0.1,0.2,0,0.5-0.1,0.7L94.4,52c-0.1,0.2-0.1,0.4,0.1,0.6l1.8,1.4c0.2,0.2,0.3,0.4,0.4,0.6
			l0.3,2.3c0,0.2,0.2,0.4,0.4,0.4L99.7,57.1C99.7,57.1,99.7,57.1,99.7,57.1z"/>
	</g>
	<g>
		<path d="M101.5,48.1c0.2,0.1,0.4,0.3,0.5,0.5c0.1,0.2,0.2,0.5,0.2,0.7c0,0.3-0.1,0.5-0.2,0.7c-0.1,0.2-0.3,0.4-0.5,0.5
			c-0.2,0.1-0.5,0.2-0.7,0.2c-0.3,0-0.5-0.1-0.7-0.2c-0.2-0.1-0.4-0.3-0.5-0.5s-0.2-0.5-0.2-0.7c0-0.3,0.1-0.5,0.2-0.7
			c0.1-0.2,0.3-0.4,0.5-0.5c0.2-0.1,0.5-0.2,0.7-0.2C101.1,47.9,101.3,48,101.5,48.1z M100.4,48.6c-0.1,0.1-0.2,0.2-0.3,0.3
			c-0.1,0.1-0.1,0.3-0.1,0.5c0,0.2,0,0.3,0.1,0.4c0.1,0.1,0.2,0.2,0.3,0.3c0.1,0.1,0.3,0.1,0.4,0.1c0.2,0,0.3,0,0.4-0.1
			c0.1-0.1,0.2-0.2,0.3-0.3c0.1-0.1,0.1-0.3,0.1-0.4c0-0.2,0-0.3-0.1-0.5c-0.1-0.1-0.2-0.3-0.3-0.3c-0.1-0.1-0.3-0.1-0.4-0.1
			C100.7,48.5,100.5,48.6,100.4,48.6z M104.4,47.9c0.1,0,0.2,0,0.2,0.1c0.1,0.1,0.1,0.1,0.1,0.2c0,0.1,0,0.1-0.1,0.2l-4.1,5.4
			c-0.1,0.1-0.1,0.1-0.2,0.1c-0.1,0-0.1,0-0.2-0.1s-0.1-0.1-0.1-0.2c0-0.1,0-0.1,0.1-0.2l4.1-5.3C104.2,48,104.3,47.9,104.4,47.9z
			 M104.6,51.1c0.2,0.1,0.4,0.3,0.5,0.5c0.1,0.2,0.2,0.5,0.2,0.7c0,0.3-0.1,0.5-0.2,0.7c-0.1,0.2-0.3,0.4-0.5,0.5
			c-0.2,0.1-0.5,0.2-0.7,0.2c-0.3,0-0.5-0.1-0.7-0.2c-0.2-0.1-0.4-0.3-0.5-0.5c-0.1-0.2-0.2-0.5-0.2-0.7c0-0.3,0.1-0.5,0.2-0.7
			c0.1-0.2,0.3-0.4,0.5-0.5c0.2-0.1,0.5-0.2,0.7-0.2C104.1,50.9,104.4,51,104.6,51.1z M103.2,51.8c-0.2,0.2-0.3,0.4-0.3,0.6
			c0,0.2,0.1,0.5,0.3,0.6s0.4,0.3,0.6,0.3c0.2,0,0.3,0,0.4-0.1c0.1-0.1,0.2-0.2,0.3-0.3c0.1-0.1,0.1-0.3,0.1-0.4
			c0-0.2,0-0.3-0.1-0.4c-0.1-0.1-0.2-0.3-0.3-0.3s-0.3-0.1-0.4-0.1C103.6,51.5,103.4,51.6,103.2,51.8z"/>
	</g>
</g>
<path d="M125,48.5c-0.2,0-0.3,0.1-0.3,0.3v5.6h-3.3V51c0-0.2-0.1-0.3-0.3-0.3h-2.4c-0.2,0-0.3,0.1-0.3,0.3v2.8
	c0,0.2,0.1,0.3,0.3,0.3c0.2,0,0.3-0.1,0.3-0.3v-2.5h1.8v3.2h-5.8v-7.7l4.9-3.9l5,4c0.1,0.1,0.3,0.1,0.4,0c0.1-0.1,0.1-0.3,0-0.4
	l-5.2-4.2c-0.1-0.1-0.3-0.1-0.4,0l-5.2,4.2c-0.1,0.1-0.1,0.2-0.1,0.2v8.2c0,0.2,0.1,0.3,0.3,0.3H125c0.2,0,0.3-0.1,0.3-0.3v-5.9
	C125.3,48.7,125.2,48.5,125,48.5z"/>
</svg>
