<?xml version="1.0" encoding="utf-8"?>
<!-- Generator: Adobe Illustrator 22.0.1, SVG Export Plug-In . SVG Version: 6.00 Build 0)  -->
<svg version="1.1" id="Слой_1" xmlns="http://www.w3.org/2000/svg" xmlns:xlink="http://www.w3.org/1999/xlink" x="0px" y="0px"
	 width="100px" height="92.857px" viewBox="0 0 100 92.857" style="enable-background:new 0 0 100 92.857;" xml:space="preserve">
<style type="text/css">
	.st0{fill:none;stroke:#000000;stroke-width:3;stroke-miterlimit:10;}
</style>
<path d="M49.974,92.476c-1.616,0-3.207-0.468-4.694-1.405l-1.95-1.215c-2.438-1.51-4.958-3.07-7.325-4.92
	C24.149,75.675,14.97,65.677,7.945,54.369c-3.827-6.159-6.263-12.175-7.45-18.391c-1.494-7.822,0.371-16.154,5.118-22.861
	C10.305,6.485,17.434,2.011,25.171,0.841C34.644-0.599,42.985,1.761,50,7.844c2.577-2.234,5.412-3.984,8.463-5.221
	c8.816-3.569,18.561-2.851,26.741,1.968c8.132,4.793,13.446,12.91,14.581,22.272l0,0c0.766,6.319-0.43,12.843-3.659,19.946
	c-3.503,7.706-8.502,15.004-15.736,22.965C73.187,77.7,66.013,83.974,58.458,88.956c-0.898,0.592-1.842,1.118-2.789,1.64
	L54.64,91.17C53.11,92.041,51.531,92.476,49.974,92.476z M30.395,8.236c-1.314,0-2.664,0.105-4.056,0.316
	c-5.651,0.856-10.884,4.162-14.359,9.07c-3.528,4.986-4.922,11.142-3.824,16.893c1.006,5.259,3.103,10.407,6.415,15.738
	c6.532,10.515,15.114,19.85,26.236,28.536c2.034,1.588,4.266,2.971,6.63,4.435l2.005,1.249c0.292,0.183,0.569,0.358,1.338-0.081
	l1.121-0.625c0.766-0.423,1.534-0.842,2.261-1.322c7.007-4.62,13.697-10.48,20.455-17.916c6.673-7.345,11.251-14,14.407-20.947
	c2.656-5.843,3.614-10.856,3.017-15.78l0,0c-0.84-6.932-4.776-12.943-10.798-16.492c-6.07-3.58-13.304-4.112-19.851-1.459
	c-3.145,1.276-5.895,3.222-8.405,5.951l-2.061,2.24l-2.674-1.454c-0.302-0.154-0.738-0.372-1.19-0.796
	c-0.194-0.183-0.391-0.377-0.588-0.573C41.732,10.511,36.471,8.236,30.395,8.236z"/>
<path class="st0" d="M186,74.929c-0.8-6.601-7.669-10.613-13.84-8.113c-1.462,0.593-2.703,1.499-3.774,2.663
	c-0.089-0.049-0.124-0.06-0.148-0.082c-0.088-0.082-0.173-0.169-0.259-0.254c-2.497-2.479-5.488-3.447-8.964-2.92
	c-5.444,0.825-9.279,6.317-8.242,11.749c0.453,2.373,1.404,4.532,2.666,6.563c2.762,4.446,6.335,8.159,10.441,11.366
	c1.081,0.844,2.28,1.538,3.444,2.272c0.667,0.421,1.371,0.394,2.057,0.004c0.464-0.264,0.941-0.507,1.386-0.8
	c3.041-2.006,5.708-4.446,8.15-7.134c2.316-2.548,4.362-5.288,5.797-8.444C185.71,79.614,186.292,77.34,186,74.929z"/>
</svg>
