<?xml version="1.0" encoding="utf-8"?>
<!-- Generator: Adobe Illustrator 22.0.1, SVG Export Plug-In . SVG Version: 6.00 Build 0)  -->
<svg version="1.1" id="Слой_1" xmlns="http://www.w3.org/2000/svg" xmlns:xlink="http://www.w3.org/1999/xlink" x="0px" y="0px"
	 width="102px" height="102px" viewBox="0 0 102 102" style="enable-background:new 0 0 102 102;" xml:space="preserve">
<style type="text/css">
	.st0{fill:#EAF6FE;}
	.st1{fill:#009FE3;}
</style>
<g>
	<circle class="st0" cx="51" cy="51" r="51"/>
	<g>
		<g>
			<path class="st1" d="M72.7,41.8c-2.5-5.8-6.7-10-12.6-12.5c-2.9-1.2-6-1.9-9.2-1.9c-3.2,0-6.2,0.6-9.2,1.9
				c-5.8,2.5-10,6.7-12.5,12.5c-1.2,2.9-1.9,6-1.9,9.2c0,3.2,0.6,6.3,1.9,9.2c2.5,5.8,6.7,10,12.5,12.5c2.9,1.3,6,1.9,9.2,1.9
				s6.3-0.6,9.2-1.9C66,70.2,70.2,66,72.7,60.2c1.3-2.9,1.9-6,1.9-9.2C74.6,47.8,74,44.7,72.7,41.8z M68.9,61.4
				c-1.9,3.2-4.4,5.7-7.6,7.6c-3.2,1.9-6.7,2.8-10.4,2.8c-2.8,0-5.5-0.5-8-1.7c-2.6-1.1-4.8-2.6-6.6-4.4c-1.8-1.8-3.3-4.1-4.4-6.6
				c-1.1-2.5-1.6-5.3-1.6-8.1c0-3.7,0.9-7.2,2.8-10.4c1.8-3.2,4.4-5.7,7.6-7.6c3.2-1.9,6.6-2.8,10.4-2.8c3.7,0,7.2,0.9,10.4,2.8
				c3.2,1.9,5.7,4.4,7.6,7.6c1.9,3.2,2.8,6.6,2.8,10.4C71.7,54.7,70.8,58.2,68.9,61.4z"/>
			<path class="st1" d="M52.5,50.8V37.4c0-0.8-0.7-1.4-1.5-1.4c-0.7,0-1.4,0.6-1.4,1.4V51c0,0,0.1,0.1,0.1,0.2
				c-0.1,0.5,0.1,0.9,0.4,1.2l7.7,7.7c0.5,0.5,1.5,0.5,2,0c0.6-0.6,0.6-1.5,0-2L52.5,50.8z"/>
		</g>
	</g>
</g>
</svg>
