<?xml version="1.0" encoding="utf-8"?>
<!-- Generator: Adobe Illustrator 22.0.1, SVG Export Plug-In . SVG Version: 6.00 Build 0)  -->
<svg version="1.1" id="Слой_1" xmlns="http://www.w3.org/2000/svg" xmlns:xlink="http://www.w3.org/1999/xlink" x="0px" y="0px"
	 width="102px" height="102px" viewBox="0 0 102 102" style="enable-background:new 0 0 102 102;" xml:space="preserve">
<style type="text/css">
	.st0{fill:#EAF6FE;}
	.st1{fill:#009FE3;}
</style>
<g>
	<circle class="st0" cx="51" cy="51" r="51"/>
	<g>
		<g>
			<g>
				<path class="st1" d="M45.8,34.5c-1.8-4.1-4.7-7.1-8.9-8.8c-2.1-0.9-4.2-1.3-6.5-1.3c-2.3,0-4.4,0.4-6.5,1.3
					c-4.1,1.8-7.1,4.7-8.9,8.8c-0.9,2.1-1.3,4.2-1.3,6.5c0,2.3,0.4,4.4,1.3,6.5c1.8,4.1,4.8,7.1,8.9,8.9c2.1,0.9,4.2,1.3,6.5,1.3
					s4.4-0.5,6.5-1.3c4.1-1.8,7.1-4.8,8.9-8.9c0.9-2.1,1.3-4.2,1.3-6.5C47.2,38.7,46.7,36.6,45.8,34.5z M43.2,48.4
					c-1.3,2.2-3.1,4-5.4,5.3c-2.2,1.3-4.7,2-7.4,2c-2,0-3.9-0.4-5.7-1.2c-1.8-0.8-3.4-1.8-4.7-3.1c-1.3-1.3-2.3-2.9-3.1-4.7
					c-0.8-1.8-1.1-3.7-1.1-5.7c0-2.6,0.6-5.1,2-7.3c1.3-2.2,3.1-4,5.3-5.3c2.2-1.3,4.7-2,7.3-2c2.6,0,5.1,0.7,7.4,2
					c2.3,1.3,4.1,3.1,5.4,5.3c1.3,2.2,2,4.7,2,7.3C45.1,43.6,44.5,46.1,43.2,48.4z"/>
				<path class="st1" d="M31.5,40.8v-9.5c0-0.6-0.5-1-1.1-1c-0.5,0-1,0.5-1,1V41c0,0,0,0.1,0,0.1c0,0.3,0.1,0.6,0.3,0.8l5.5,5.5
					c0.4,0.4,1,0.4,1.4,0c0.4-0.4,0.4-1,0-1.4L31.5,40.8z"/>
			</g>
		</g>
		<g>
			<g>
				<path class="st1" d="M33.3,78.5c-0.2,0-0.4,0-0.6,0c-3.9-0.3-6.9-3.5-7.1-7.4c0-0.1,0-0.2,0-0.3l-0.6,0l-3.8,0
					c-1.2,0-2.2-1-2.2-2.2V52.9h1.7v15.8c0,0.3,0.2,0.5,0.5,0.5l3.8,0l2.4,0l-0.1,0.9c0,0.3-0.1,0.7,0,1c0.1,3,2.5,5.5,5.5,5.7
					c2,0.2,4-0.7,5.2-2.3l0.7-0.9l0.7,0.9c1.3,1.6,3.2,2.4,5.2,2.3c3-0.2,5.4-2.7,5.5-5.7c0-0.3,0-0.7,0-1L50,69.1h21l-0.1,0.9
					c0,0.2,0,0.5,0,0.7c0,1.3,0.4,2.5,1.2,3.5l0,0c0.1,0.1,1.9,2.5,5.2,2.3c3-0.2,5.3-2.8,5.3-5.8c0-0.2,0-0.5,0-0.7l-0.1-0.9h4.5
					c0.3,0,0.5-0.2,0.5-0.5V54.2c0-0.1-0.1-0.3-0.1-0.3L76,42.7c-0.1-0.1-0.2-0.1-0.3-0.1H66v-9.1c0-0.3-0.2-0.5-0.5-0.5H44.1v-1.7
					h21.4c1.2,0,2.2,1,2.2,2.2v7.4h8c0.6,0,1.1,0.2,1.5,0.6l11.2,11.2c0.4,0.4,0.6,1,0.6,1.5v14.4c0,1.2-1,2.2-2.2,2.2h-2.6
					c0,3.9-3,7.1-6.9,7.4c-4.2,0.3-6.5-2.7-6.7-3c-1-1.3-1.5-2.8-1.5-4.5H51.9c0,0.1,0,0.2,0,0.3c-0.2,3.9-3.2,7-7.1,7.3
					c-2.3,0.2-4.5-0.6-6.1-2.2C37.3,77.7,35.3,78.5,33.3,78.5z M76.7,75.6c-2.7,0-4.9-2.2-4.9-4.8c0-2.7,2.2-4.9,4.9-4.9
					c2.7,0,4.8,2.2,4.8,4.9C81.6,73.5,79.4,75.6,76.7,75.6z M76.7,67.6c-1.7,0-3.2,1.4-3.2,3.2c0,1.7,1.4,3.2,3.2,3.2
					c1.7,0,3.2-1.4,3.2-3.2C79.9,69,78.5,67.6,76.7,67.6z M44.2,75.6c-2.7,0-4.8-2.2-4.8-4.8c0-2.7,2.2-4.9,4.8-4.9
					c2.7,0,4.8,2.2,4.8,4.9C49,73.5,46.8,75.6,44.2,75.6z M44.2,67.6c-1.7,0-3.2,1.4-3.2,3.2c0,1.7,1.4,3.2,3.2,3.2
					c1.7,0,3.2-1.4,3.2-3.2C47.3,69,45.9,67.6,44.2,67.6z M33.5,75.6c-2.7,0-4.8-2.2-4.8-4.8c0-2.7,2.2-4.9,4.8-4.9s4.8,2.2,4.8,4.9
					C38.3,73.5,36.2,75.6,33.5,75.6z M33.5,67.6c-1.7,0-3.2,1.4-3.2,3.2c0,1.7,1.4,3.2,3.2,3.2c1.7,0,3.2-1.4,3.2-3.2
					C36.6,69,35.2,67.6,33.5,67.6z M85.4,61.8H72.3c-2.7,0-4.9-2.2-4.9-4.8V44.1h7.1L85.4,55V61.8z M69.2,45.8v11.1
					c0,1.7,1.4,3.2,3.2,3.2h11.4v-4.4l-9.9-9.9H69.2z M44.1,32.9H43v-1.7h1.1V32.9z"/>
			</g>
		</g>
	</g>
</g>
</svg>
