<svg xmlns="http://www.w3.org/2000/svg" viewBox="0 0 150 150"><path d="M123.7 40.7c-.7-.6-1.5-.8-2.4-.7l-1 .1c-2.5.4-5.6 1.9-6.8 7.3l-5.6 30.3c-.3 1.3-1.8 2.9-3 4.2l-5.6 6.2-5.9-5.3c-3.6-3.2-9-3.7-13.3-1.1-1.1.7-1.7 1.7-1.8 3-.1 1.2.3 2.3 1.3 3.2l4.2 4.7 1.3 2.9c1.6 3.5 4 6.6 7 9l8.7 7.2 3.9 17.3 3.9-.9-4-17.9c-.1-.4-.3-.8-.7-1.1l-9.3-7.7c-2.5-2-4.6-4.6-5.9-7.6l-1.4-3.2c-.1-.2-.2-.3-.3-.5l-4.5-5-.1-.1c2.6-1.6 6.1-1.3 8.3.8l7.3 6.7c.4.4.9.5 1.4.5s1-.3 1.4-.7l6.5-7.2.3-.4c1.6-1.7 3.6-3.7 4-6.2l5.6-30.2c.7-3.2 2.1-3.9 3.3-4.1l-.1 31.2c0 1.7-.1 3.4-.4 5l-4 24.3c-.1.3 0 .7.1 1l4 11.6 3.8-1.3-3.8-11.1 4-23.8c.3-1.9.4-3.8.4-5.6l.1-32.4c.1-1-.2-1.9-.9-2.4zm-53.9 41s-.1-.1 0 0c-4.2-2.6-9.6-2.1-13.3 1.1l-5.9 5.3-5.2-5.8-.3-.3c-1.2-1.3-2.7-2.8-3-4.2l-5.6-30.4c-1.2-5.3-4.4-6.9-6.8-7.3l-1-.1c-.9-.1-1.7.1-2.4.7s-1 1.4-1 2.3l.1 32.4c0 1.9.1 3.8.4 5.7l3.9 23.8-3.8 11.1 3.8 1.3 4-11.6c.1-.3.1-.7.1-1l-4-24.2c-.2-1.7-.4-3.4-.4-5.1l-.1-31.2c1.2.2 2.6 1 3.3 4.1l5.6 30.3c.5 2.5 2.4 4.6 4 6.2l6.8 7.6c.4.4.9.6 1.4.7.5 0 1.1-.2 1.4-.5l7.3-6.7c2.3-2 5.7-2.4 8.4-.8l-.1.1-4.5 5c-.1.1-.2.3-.3.5l-1.4 3.2a20.1 20.1 0 0 1-6 7.6l-9.2 7.6c-.3.3-.6.7-.7 1.1l-4 17.9 3.9.9 3.9-17.3 8.7-7.2c3-2.4 5.5-5.5 7.1-9.1l1.3-2.9 4.2-4.7c.9-.8 1.4-2 1.3-3.2-.2-1.2-.9-2.3-1.9-2.9z"/><circle cx="75" cy="28.7" r="1.8"/><circle cx="93.4" cy="47.1" r="1.8"/><circle cx="75" cy="65.4" r="1.8"/><circle cx="56.6" cy="47.1" r="1.8"/><path d="M99.6 55.7c4.1-11.8-.9-25.3-11.8-31.4-9.5-5.3-21.8-4.1-29.9 3.1-8.3 7.3-11.1 19-7.1 29.2 3.9 9.9 13.6 16.5 24.3 16.5h.5c10.7-.2 20.4-7.2 24-17.4zM75.4 69.1c-9.1.2-17.6-5.4-21-14s-1-18.6 6.1-24.7c4-3.6 9.3-5.4 14.5-5.4 3.7 0 7.4.9 10.8 2.8 9.2 5.2 13.5 16.6 10 26.6-3 8.6-11.2 14.5-20.4 14.7z"/><path d="M80.3 47c0-2.9-2.4-5.3-5.3-5.3-.4 0-.8.1-1.2.2l-4.4-6.1-3.2 2.4 4.4 6.1c-.6.8-.9 1.7-.9 2.7 0 2.9 2.4 5.3 5.3 5.3 1.3 0 2.5-.5 3.5-1.3l10 4.9 1.8-3.6-10-4.9c-.1-.1 0-.2 0-.4zm-4 0c0 .7-.6 1.3-1.3 1.3s-1.3-.6-1.3-1.3.6-1.3 1.3-1.3 1.3.7 1.3 1.3z"/></svg>