<svg xmlns="http://www.w3.org/2000/svg" viewBox="0 0 100 100"><title>Artboard 2</title><path d="M35.6 90.1l37-.4h3.1c4 0 7.4-2.9 7.8-6.9.2-1.7-.2-3.4-1.2-4.9 3.2-.8 5.5-3.4 5.9-6.7.2-1.7-.2-3.4-1.2-4.9 3.2-.8 5.5-3.4 5.9-6.6.2-1.7-.2-3.4-1.1-4.8 3.5-.8 6-4.1 5.9-7.7-.2-4.2-3.7-7.5-7.9-7.4H61.5l3.1-23.4v-.3c-.1-3.5-3.1-6.2-6.6-6.1-2.8.1-5.1 2-5.9 4.7L38 44.7 34.3 46c-1.4.5-2.3 1.9-2.3 3.3v37.4c.1 1.9 1.7 3.4 3.6 3.4zm-.5-40.9c0-.2.1-.4.3-.5l4.3-1.5c.4-.1.7-.4.9-.8L55 15.8c0-.1.1-.2.1-.3.4-1.8 2.2-2.9 4-2.5 1.4.3 2.4 1.5 2.5 3l-3.3 25c-.1.8.5 1.6 1.3 1.7h30.2c2.6-.1 4.8 1.9 4.9 4.5 0 2.6-2 4.7-4.6 4.8h-1.8c-.8 0-1.5.7-1.5 1.5 0 .5.3 1 .8 1.3 1.6.9 2.6 2.7 2.4 4.6-.3 2.4-2.4 4.2-4.9 4.2h-1.5c-.8 0-1.5.7-1.5 1.5 0 .5.3 1 .8 1.3 1.6.9 2.5 2.7 2.3 4.5-.3 2.4-2.4 4.2-4.9 4.2h-1.4c-.8 0-1.5.7-1.5 1.5 0 .5.3 1 .8 1.3 1.6.9 2.5 2.7 2.3 4.5-.3 2.4-2.4 4.2-4.9 4.2h-3.1l-37 .4c-.1 0-.2-.1-.3-.1-.1-.1-.1-.2-.1-.3V49.2zM15.6 84.7c2.4 0 4.3-1.9 4.3-4.3s-1.9-4.3-4.3-4.3-4.3 1.9-4.3 4.3 2 4.3 4.3 4.3zm0-5.6c.7 0 1.3.6 1.3 1.3s-.6 1.3-1.3 1.3c-.7 0-1.3-.6-1.3-1.3 0-.7.6-1.3 1.3-1.3zm-8.7 11H25c2.6 0 4.7-2.1 4.7-4.7V49c0-2.6-2.1-4.7-4.6-4.7H7c-2.6 0-4.7 2-4.7 4.6v36.5c0 2.6 2.1 4.7 4.6 4.7zM5.3 49c0-.9.7-1.7 1.6-1.7H25c.9 0 1.6.8 1.6 1.7v36.4c0 .9-.7 1.6-1.6 1.7H7c-.9 0-1.7-.7-1.7-1.7V49z"/></svg>