<svg xmlns="http://www.w3.org/2000/svg" viewBox="0 0 100 100"><path d="M93.6 24.6h-7.7c-.8 0-1.4.6-1.4 1.4s.6 1.4 1.4 1.4h7.7c.8 0 1.4-.6 1.4-1.4 0-.7-.6-1.4-1.4-1.4zm0 47.9h-7.7c-.8 0-1.4.6-1.4 1.4s.6 1.4 1.4 1.4h7.7c.8 0 1.4-.6 1.4-1.4 0-.8-.6-1.4-1.4-1.4zM14.1 24.6H6.4c-.8 0-1.4.6-1.4 1.4 0 .8.6 1.4 1.4 1.4h7.7c.8 0 1.4-.6 1.4-1.4.1-.7-.6-1.4-1.4-1.4zm0 47.9H6.4c-.8 0-1.4.6-1.4 1.4 0 .8.6 1.4 1.4 1.4h7.7c.8 0 1.4-.6 1.4-1.4.1-.8-.6-1.4-1.4-1.4zm7.8-63.3c-.8 0-1.4.6-1.4 1.4v7.7c0 .8.6 1.4 1.4 1.4.8 0 1.4-.6 1.4-1.4v-7.7c0-.8-.6-1.4-1.4-1.4zm56.2 0c-.8 0-1.4.6-1.4 1.4v7.7c0 .8.6 1.4 1.4 1.4.8 0 1.4-.6 1.4-1.4v-7.7c0-.8-.6-1.4-1.4-1.4zM23.3 81.7c0-.8-.6-1.4-1.4-1.4-.8 0-1.4.6-1.4 1.4v7.7c0 .8.6 1.4 1.4 1.4.8 0 1.4-.6 1.4-1.4v-7.7zm54.8-1.5c-.8 0-1.4.6-1.4 1.4v7.7c0 .8.6 1.4 1.4 1.4.8 0 1.4-.6 1.4-1.4v-7.7c0-.7-.6-1.4-1.4-1.4zm1-5.2c.3-.3.4-.6.4-1V26.1c0-.4-.2-.8-.4-1-.3-.3-.6-.4-1-.4H21.9c-.4 0-.8.2-1 .4-.3.3-.4.6-.4 1V74c0 .4.2.8.4 1 .3.3.6.4 1 .4h56.2c.4 0 .8-.2 1-.4zm-2.4-47.5v34.7l-7.4-6.3c-.5-.5-1.3-.5-1.9 0l-7.5 6.3-23-23.4c-.3-.3-.6-.4-1-.4s-.8.2-1 .4L23.3 50.7V27.5h53.4zm-53.4 45V54.9l12.5-13 22.9 23.3c.5.5 1.4.6 2 .1l7.6-6.4 8.3 7.2v6.5H23.3z"/><path d="M60.3 48.4c3.8 0 6.9-3.1 6.9-6.9 0-3.8-3.1-6.9-6.9-6.9-3.8 0-6.9 3.1-6.9 6.9-.1 3.8 3 6.9 6.9 6.9zm-2.9-9.8c.7-.7 1.7-1.2 2.8-1.2 1.1 0 2.1.4 2.8 1.2.7.7 1.2 1.7 1.2 2.8 0 1.1-.4 2.1-1.2 2.8-.7.7-1.7 1.2-2.8 1.2-1.1 0-2.1-.4-2.8-1.2-.7-.7-1.2-1.7-1.2-2.8 0-1.1.5-2.1 1.2-2.8z"/></svg>