<svg id="Слой_1" xmlns="http://www.w3.org/2000/svg" viewBox="0 0 150 150"><style>.st0{fill:#fff;stroke:#000;stroke-width:3;stroke-linecap:square;stroke-miterlimit:10}</style><path d="M129.7 61.2h-4.9c-.2 0-.3-.2-.3-.3-1.1-3.8-2.6-7.4-4.5-10.8-.1-.1-.1-.3 0-.4l3.5-3.5c1-1 1.6-2.3 1.6-3.8s-.6-2.8-1.6-3.8l-12-12c-2.1-2.1-5.5-2.1-7.5 0l-3.5 3.5c-.1.1-.3.1-.4 0-3.4-1.9-7.1-3.4-10.8-4.5-.1 0-.3-.2-.3-.3v-4.9c0-2.9-2.4-5.3-5.3-5.3h-17c-2.9 0-5.3 2.4-5.3 5.3v4.9c0 .2-.2.3-.3.3-3.8 1.1-7.4 2.6-10.8 4.5-.1.1-.3.1-.4 0l-3.5-3.5c-2.1-2.1-5.5-2.1-7.5 0l-12 12c-2.1 2.1-2.1 5.5 0 7.5l3.5 3.5c.1.1.1.3 0 .4-1.9 3.4-3.4 7.1-4.5 10.8 0 .1-.2.3-.3.3h-4.9c-2.9 0-5.3 2.4-5.3 5.3v17c0 2.9 2.4 5.3 5.3 5.3h4.9c.2 0 .3.2.3.3 1.1 3.8 2.6 7.4 4.5 10.8.1.1.1.3 0 .4l-3.5 3.5c-2.1 2.1-2.1 5.5 0 7.5l12 12c2.1 2.1 5.5 2.1 7.5 0l3.5-3.5c.1-.1.3-.1.4 0 3.4 1.9 7.1 3.4 10.8 4.5.1 0 .3.2.3.3v4.9c0 2.9 2.4 5.3 5.3 5.3h17c2.9 0 5.3-2.4 5.3-5.3v-4.9c0-.2.2-.3.3-.3 3.8-1.1 7.4-2.6 10.8-4.5.1-.1.3-.1.4 0l3.5 3.5c2.1 2.1 5.5 2.1 7.5 0l12-12c1-1 1.6-2.3 1.6-3.8s-.6-2.8-1.6-3.8l-3.5-3.5c-.1-.1-.1-.3 0-.4 1.9-3.4 3.4-7.1 4.5-10.8 0-.1.2-.3.3-.3h4.9c2.9 0 5.3-2.4 5.3-5.3v-17c0-2.7-2.4-5.1-5.3-5.1zm.3 22.3c0 .2-.1.3-.3.3h-4.9c-2.4 0-4.5 1.6-5.1 3.9-1 3.4-2.3 6.7-4.1 9.8-1.2 2.1-.8 4.7.9 6.4l3.5 3.5c.1.1.1.1.1.2s0 .2-.1.2l-12 12c-.1.1-.3.1-.5 0l-3.5-3.5c-1.7-1.7-4.3-2-6.4-.9-3.1 1.7-6.4 3.1-9.8 4.1-2.3.7-3.9 2.8-3.9 5.1v4.9c0 .2-.1.3-.3.3h-17c-.2 0-.3-.1-.3-.3v-4.9c0-2.4-1.6-4.5-3.9-5.1-3.4-1-6.7-2.3-9.8-4.1-.8-.5-1.7-.7-2.6-.7-1.4 0-2.8.5-3.8 1.5l-3.5 3.5c-.1.1-.3.1-.5 0l-12-12c-.1-.1-.1-.3 0-.5l3.5-3.5c1.7-1.7 2-4.3.9-6.4-1.7-3.1-3.1-6.4-4.1-9.8-.7-2.3-2.8-3.9-5.1-3.9h-4.9c-.2 0-.3-.1-.3-.3v-17c0-.2.1-.3.3-.3h4.9c2.4 0 4.5-1.6 5.1-3.9 1-3.4 2.3-6.7 4-9.8 1.2-2.1.8-4.7-.9-6.4l-3.5-3.5c-.1-.1-.1-.3 0-.5l12-12c.1-.1.3-.1.5 0l3.5 3.5c1.7 1.7 4.3 2 6.4.9 3.1-1.7 6.4-3.1 9.8-4.1 2.3-.7 3.9-2.8 3.9-5.1v-4.9c0-.2.1-.3.3-.3h17c.2 0 .3.1.3.3v4.9c0 2.4 1.6 4.5 3.9 5.1 3.4 1 6.7 2.3 9.8 4.1 2.1 1.2 4.7.8 6.4-.9l3.5-3.5c.1-.1.3-.1.5 0l12 12c.1.1.1.1.1.2s0 .2-.1.2l-3.5 3.5c-1.7 1.7-2 4.3-.9 6.4 1.7 3.1 3.1 6.4 4.1 9.8.7 2.3 2.8 3.9 5.1 3.9h4.9c.2 0 .3.1.3.3v17.3h.1z"/><path d="M92.6 43.8c-13-7.4-29.9-5.6-41.1 4.2-11.4 10-15.3 26.1-9.8 40.1 5.4 13.6 18.7 22.7 33.4 22.7h.7c14.8-.3 28.1-9.9 33.1-23.9 5.6-16.1-1.4-34.7-16.3-43.1zm11.5 41.5c-4.3 12-15.7 20.3-28.5 20.5-12.8.3-24.6-7.6-29.3-19.5-4.7-12-1.3-25.9 8.5-34.5 5.6-5 13-7.5 20.3-7.5 5.2 0 10.4 1.3 15 3.9 12.9 7.2 18.8 23.2 14 37.1z"/><path d="M75 69c-1.1 0-2.1.3-3 .8l-7.7-8-2.2 2.1 7.7 8c-.6.9-.9 2-.9 3.1 0 3.3 2.7 6 6 6 2.8 0 5.1-1.9 5.8-4.5h14v-3h-14c-.6-2.6-2.9-4.5-5.7-4.5zm3 6c0 1.7-1.3 3-3 3s-3-1.3-3-3 1.3-3 3-3 3 1.3 3 3z"/><circle cx="75" cy="49.6" r="2.5"/><circle cx="100.4" cy="75" r="2.5"/><circle cx="75" cy="100.4" r="2.5"/><circle cx="49.6" cy="75" r="2.5"/></svg>