<svg id="Слой_1" data-name="Слой 1" xmlns="http://www.w3.org/2000/svg" viewBox="0 0 810.38 618.84"><defs><style>.cls-1{fill:#fff}</style></defs><title>Монтажная область 1</title><path class="cls-1" d="M428.34 590.57a40.46 40.46 0 0 1-6.77-2.41 18.21 18.21 0 0 1-6.23-4.81c-1.27-1.56-2.34-3-3.46-4.69a25.93 25.93 0 0 1-2.19-4c-.42-.92-.78-1.86-1.13-2.8V560a5.08 5.08 0 0 1-2.17.54 5.19 5.19 0 0 1-2.31-.6v12.17c-.31.88-.64 1.75-1 2.61a26.69 26.69 0 0 1-2.15 4 58.1 58.1 0 0 1-3.42 4.73 18.21 18.21 0 0 1-6.18 4.87 39.87 39.87 0 0 1-6.75 2.47 8 8 0 0 0-4.65 3.25 8.17 8.17 0 0 0-1.13 6.53 7.57 7.57 0 0 0 3.91 4.92 8 8 0 0 0 6.35.18 11 11 0 0 0 4-2.69 29.93 29.93 0 0 0 4.89-7.37 97.9 97.9 0 0 0 6.33-15.45.46.46 0 0 1 .5-.24 61.32 61.32 0 0 1-.57 8 54.21 54.21 0 0 1-3.94 16.23c-1.47 3.4-2.57 7.36-.42 10.74a7.77 7.77 0 0 0 13.55-.07c2.13-3.4 1-7.35-.53-10.74a55.14 55.14 0 0 1-4.11-16.19 61.63 61.63 0 0 1-.64-8 .48.48 0 0 1 .5.23 96.74 96.74 0 0 0 6.49 15.38 30 30 0 0 0 5 7.32 11.08 11.08 0 0 0 4 2.65 7.91 7.91 0 0 0 6.34-.24 7.55 7.55 0 0 0 3.87-5 8.1 8.1 0 0 0-1.2-6.52 7.87 7.87 0 0 0-4.78-3.14zm-77.41-24.02a17 17 0 0 1 6.91-9.21c.5-.34-.49-.7-1.18-.47a28.16 28.16 0 0 0-9.88 5.63 30.9 30.9 0 0 0-9.38 14.77c-3.56 11.84-.35 22 7.84 24.06 5.42 1.37 10.8-2.59 11.77-7.88 1-5.64-2.56-10-5-14.9a15.85 15.85 0 0 1-1.08-12zm-191.72-79.14a12.84 12.84 0 0 1 4.79-8.51c3.42-2.79 7.53-4.86 8.64-9.36a8 8 0 0 0-6.09-9.7c-6.74-1.17-12.45 5.25-13.74 15.18a25 25 0 0 0 2.05 14 22.67 22.67 0 0 0 5.43 7.43c.44.4 1.3.46 1 0a13.92 13.92 0 0 1-2.08-9.04z"/><path class="cls-1" d="M175.2 499.87a8.75 8.75 0 0 1-2.11-6.31c.16-3 1-6-.76-8.64a5.42 5.42 0 0 0-7.68-1.37c-3.68 2.87-3.06 8.69 1.35 13.88a17.06 17.06 0 0 0 8 5.39 15.58 15.58 0 0 0 6.23.67c.4 0 .82-.45.49-.5a9.48 9.48 0 0 1-5.52-3.12z"/><path class="cls-1" d="M187.7 499.27a13.85 13.85 0 0 0 6.38-4.56 12.49 12.49 0 0 0 2.28-4.55c.09-.32-.09-.76-.24-.53a7.64 7.64 0 0 1-3.95 3.32 7.1 7.1 0 0 1-5.4-.19c-2.23-1-4.3-2.47-6.79-1.88a4.41 4.41 0 0 0-3.24 5.45c1.14 3.67 5.75 4.82 10.96 2.94zM86.18 461.09a40.49 40.49 0 0 0 14.88-6.8c.85-.62 1.27-2.07.45-1.78a24.53 24.53 0 0 1-16.57.33 22.8 22.8 0 0 1-13.11-11.34c-3.64-6.95-5.75-14.83-13.19-18.37-7-3.32-16.13-.36-19.09 7.11-4.45 11.32 4.68 23.59 21.5 29.39a44.46 44.46 0 0 0 25.13 1.46zm.52 3.91a13 13 0 0 1-6.83 5.52 12.08 12.08 0 0 1-9.17-.52c-3.78-1.73-7.22-4.34-11.49-3.41a7.51 7.51 0 0 0-5.68 9.18c1.81 6.18 9.63 8.35 18.55 5.32a23.57 23.57 0 0 0 11-7.55 21.46 21.46 0 0 0 4-7.68c.17-.49-.08-1.23-.38-.86zm93.17 69.85c-5.2 0-5.2 8.05 0 8.05s5.2-8.05 0-8.05zM156 533.36c5.2 0 5.2-8.06 0-8.06s-5.19 8.06 0 8.06z"/><path class="cls-1" d="M659.13 440.68c4.69 1.36 9.59 1.61 14.35 2.6 14.79 3.08 30.92 8.08 45.89 3.33 4.06-1.29 8.07-3.05 10.85-6.41 3.8-4.59 5.94-11.91 1.65-17-3.51-4.18-10.14-5.48-14.64-2-8.65 6.75-2.41 18.56 6.21 18.87a25.31 25.31 0 0 1-18.85 3.28c-21.67-4.87-43.7-9.57-65.85-11.53-21.65-1.91-43.84-.62-64.25 7.34a20 20 0 0 0-7.37-14.06c-7.1-5.87-19-5.4-24.46 2.45-4.85 6.91-3.19 19.13 6.24 21.43 8.48 2.06 18.34-4.82 14.75-14.16-3.06-8-16.06-4.15-12.85 4.2 1 2.66 5.35 1.51 4.32-1.19-1.61-4.18 7.53-1.95 4.17 3.37a6.69 6.69 0 0 1-2.24 2.44c-2.05 1.17-4.63 1.91-7 1a9.36 9.36 0 0 1-4.27-13.85c6.86-9.77 21.78-4.48 24 6.39 1.48 7.24-2.24 15.42-9.6 17.85a24.08 24.08 0 0 1-19-1.82c-11.65-6.25-19.15-17.37-29.47-25.32-17.44-13.44-43.54-19-61.94-3.91a35.29 35.29 0 0 0-4.1 4 19.32 19.32 0 0 0-5.57.26 45.19 45.19 0 0 0 9-8.93c9.83-12.95 7-28.69-6.68-34.88-11.29-5.11-27.14 2.87-26.56 16.8.44 10.54 13.09 17.8 19.82 9-9.19 3.82-13.43-8.07-10.43-13.88 3.52-6.78 14-10 20.12-3.18 8 8.84 7 18.27.18 26.73-4 5-9.51 8.65-14.48 11.6a46 46 0 0 0-4.94 3c-1.91 1.2-2.73 1.82-2.68 2a87.57 87.57 0 0 0-7.45 6.62 3.14 3.14 0 0 1 2.05-3.37c1.06-.46 1.31-.63.43-1.38a4.7 4.7 0 0 0-6.05-.09c1-3.75-4.57-10.4-6-10.4h-.08c-1.45 0-7 6.65-6 10.4a4.7 4.7 0 0 0-6.05.09c-.88.75-.62.92.43 1.38a3.14 3.14 0 0 1 2.05 3.37 87.7 87.7 0 0 0-7.45-6.62c0-.15-.78-.77-2.68-2a46 46 0 0 0-4.94-3c-5-2.95-10.45-6.59-14.48-11.6-6.79-8.46-7.78-17.88.18-26.73 6.14-6.84 16.6-3.6 20.12 3.18 3 5.81-1.23 17.7-10.43 13.88 6.73 8.78 19.38 1.52 19.82-9 .58-13.93-15.26-21.92-26.56-16.8-13.64 6.19-16.51 21.93-6.68 34.88a45.21 45.21 0 0 0 9 8.93 19.32 19.32 0 0 0-5.57-.26 35.35 35.35 0 0 0-4.1-4c-18.4-15.12-44.5-9.52-61.94 3.91-10.32 7.95-17.81 19.07-29.47 25.32a24.08 24.08 0 0 1-19 1.82c-7.36-2.42-11.07-10.61-9.6-17.85 2.22-10.87 17.14-16.16 24-6.39a9.36 9.36 0 0 1-4.27 13.85c-2.33.88-4.91.14-7-1a6.7 6.7 0 0 1-2.23-2.44c-3.35-5.32 5.78-7.55 4.17-3.37-1 2.7 3.29 3.85 4.32 1.19 3.21-8.35-9.79-12.17-12.85-4.2-3.59 9.35 6.27 16.23 14.75 14.16 9.43-2.29 11.09-14.52 6.24-21.43-5.5-7.84-17.36-8.32-24.46-2.45a20.05 20.05 0 0 0-7.37 14.06c-20.41-8-42.59-9.25-64.25-7.34-22.15 2-44.18 6.65-65.85 11.53a25.31 25.31 0 0 1-18.85-3.28c8.63-.31 14.87-12.11 6.21-18.87-4.5-3.51-11.13-2.21-14.64 2-4.29 5.11-2.16 12.43 1.65 17 2.78 3.35 6.79 5.12 10.85 6.41 15 4.75 31.1-.25 45.89-3.33 4.76-1 9.66-1.24 14.35-2.6-25.83 7.5-51.36 22.48-61.22 46.25-14.16 34.13-2.57 56.55 13.85 76.63-.77-7.18-3.39-13.18-4.54-17.38-1.69-6.14.74-16.31 6.35-22.35s3.4-20.39 2-28.86 4.32-24.43 6.69-28.2 7-5.76 1.42 3.52-2.19 15.42-.77 20.08 1.11 5 .5 7.6c7.32-3.72 14.64-7.71 15.06-17.93s-1.79-24.21 11.08-30.79a125.42 125.42 0 0 1 11.66-5c-13.94 9.76-21.35 26.1-18.08 45.18 2.23 12.93 11.34 24 22.92 29.94 2.75 2.81 4.22 6.71 2.64 10.73-1.86 4.74-7.36 7.06-11.54 3.76-3-2.35-3.56-9.64 2.2-9.82-5.64-3-10.59 3.81-8.32 9.48 3 7.49 13.28 7.94 18 2.55a11.8 11.8 0 0 0 1-14.9 41.89 41.89 0 0 0 4.12 1.37 16.36 16.36 0 0 0 4.11.9 38 38 0 0 0 4.32.47c5.63 1.17 10.7 5 11.08 11.3s-4.53 11.63-10.86 10.11c-4.51-1.08-8.92-8.86-2.62-12-7.82-.46-9.79 9.68-4.34 14.8 7.2 6.76 18.82 2 21.31-6.46 2.29-7.78-1.33-14.77-8.29-18a35.75 35.75 0 0 0 17.05-6.88 30.34 30.34 0 0 0 11.27-16.93 14.5 14.5 0 0 0 5.27 10c7.18 5.94 19.42 1.93 17.63-7.67-2.93 8.29-13.24 4-15.28-1.37-2.86-7.6 3.07-14.5 10.82-15 9.2-.6 15.3 7.35 16.64 15.6a24.06 24.06 0 0 0 1.94 6.32 45.92 45.92 0 0 0 9.27 20.99l.09.11a15.44 15.44 0 0 1 1.84 4.29 12.83 12.83 0 0 1-.49 7.42c-1.71 4.61-6.54 8.34-10.67 7.51a7.31 7.31 0 0 1-3-1.16 5.92 5.92 0 0 0 4.16-10 5.2 5.2 0 0 0-4.15-2.07 6.92 6.92 0 0 0-5.91 4 8 8 0 0 0 .77 8.25 11 11 0 0 0 7.55 4.66 11.58 11.58 0 0 0 8.94-2.63 15.61 15.61 0 0 0 5.87-14.81 64.65 64.65 0 0 0 11.79 9.19 19 19 0 0 1 3.34 3.72 16.61 16.61 0 0 1 2.71 9.24c0 6.36-4.24 13-9.63 13.87a9.44 9.44 0 0 1-4.1-.1 7.66 7.66 0 0 0 .7-13.92 6.75 6.75 0 0 0-6-.71 9 9 0 0 0-5.39 7.54 10.42 10.42 0 0 0 4.6 9.68 14.28 14.28 0 0 0 11.25 2.3A15 15 0 0 0 282 568a20.16 20.16 0 0 0 1.71-18.17c.68.13 1.44.24 2.29.32a29.38 29.38 0 0 1 11.74 3.48 20.82 20.82 0 0 1 8.09 9c3.44 7.2 2.31 17-3.33 20.92a11.86 11.86 0 0 1-4.69 2.13 9.6 9.6 0 0 0-6.81-16.13 8.46 8.46 0 0 0-7.21 2.48 11.24 11.24 0 0 0-2 11.45c1.27 4.21 5.75 7.82 10.47 8.43a17.91 17.91 0 0 0 14-3.52c4.19-3 6.67-8.49 7.06-13.39a25.29 25.29 0 0 0-7.88-21.39c11.13 1 22.22-.69 33.08-3.5a40.75 40.75 0 0 0 23.35 3.48 31.7 31.7 0 0 0-5.37 10 21.93 21.93 0 0 0 4 21.22 17.38 17.38 0 0 0 9.81 5.49 17.86 17.86 0 0 0 3.31.37h.28a18 18 0 0 0 13.64-6.34 17.6 17.6 0 0 0 4.19-14.09c-1.55-10.19-9.48-12.42-12.4-12.42a5.7 5.7 0 0 0-.7 0 13.37 13.37 0 0 0-8.85 5.37c-.89 1.33-2.23 5.72-1.1 8a2.46 2.46 0 0 0 2.18 1.42h.14c2.12 0 3.11-2.53 3.84-4.38a13.16 13.16 0 0 1 .56-1.3c1-1.84 2.67-4.07 5-4.25h.77a6.87 6.87 0 0 1 5 1.92 7.07 7.07 0 0 0-3.21-.81 5.46 5.46 0 0 0-5.41 4.3c-.26 1-.32 1.63 0 2.06a.93.93 0 0 0 .75.36 2.5 2.5 0 0 0 1-.32 4.41 4.41 0 0 1 1.86-.53 3.82 3.82 0 0 1 2.87 1.7c4.6 5.58 2 9.67 0 11.61a14.56 14.56 0 0 1-10.16 3.85 13.61 13.61 0 0 1-9-3.11c-5.57-4.84-7.32-14-4.07-21.25a28.17 28.17 0 0 1 8.53-10.8l.54-.21a56.18 56.18 0 0 0 15.12-10 14.42 14.42 0 0 1-2.27-7.88 14.65 14.65 0 0 1 .47-3.7 2.75 2.75 0 0 1-1.52-1.13 4.42 4.42 0 0 1-.15-3.9 123.67 123.67 0 0 1-24.06 12.88q-1.7.71-3.43 1.39c-4.09-3.21-7.48-4.85-11.31-3.42-4.29 1.6-10.58 1.77-14.2-3.08a12.79 12.79 0 0 1-1.92-3.91c-1.77-5.91-1.39 8.75 2.27 13.62a23.9 23.9 0 0 0 3.09 3.38 100.22 100.22 0 0 1-27.26 2c-15.09-1.09-29.25-7-39.9-17.91a41.83 41.83 0 0 1-11.55-29.63 2.15 2.15 0 0 0 .06-.84v-.17a34 34 0 0 1 4-14.66c7.12-13 25.76-18.7 39.06-12.77 8.23 3.69 13.41 11.56 9.05 24.06s-15.28 2.17-10.31 9.49c5.27 7.74 16.59 5.42 20.62-6.67.16-.47.28-.45.27 0-.19 12-8.27 14.14-13.07 15.5s-12.16-1.65-12.75-7.26-12.83-9-9.26 3.35 15.8 12.71 21.33 11.45c5.24-1.22 18.43-8.46 16.26-26.37-.06-.49.08-.54.31-.1a21.63 21.63 0 0 1 2.84 10.15c0 9.7-9.35 17.19-17.95 19.56-11.81 3.26-24.74-2.75-28.93-14.36-3.08-8.54-1.9-20.83 5-27.25.36-.34.61-.19.6.3-.12 4.1 2.65 8.83 5.79 11 5.59 3.84 15.42 2.52 16.45-5.44 1.08-8.3-6.31-13.65-13.85-14.15-8.88-.58-15.53 7.41-18.27 14.9a34.06 34.06 0 0 0 2.49 27.39c4.62 7.94 13.48 12.12 22.33 12.87a30.17 30.17 0 0 0 24-9.36 24 24 0 0 0 6.2-11.08c1.13-5.28 1.48-10.67 2.38-16 .87-5.08 3.35-9.15 6.52-13.16q1.46-1.85 3.08-3.56c.34-.36.48-.27.32.2a29.24 29.24 0 0 0-1.1 13.72c1.16 7.16 4.83 12.72 8.3 18.93a19.68 19.68 0 0 1 2.68 8.3c0 .49-.15.54-.41.12a10 10 0 0 0-8.09-5.11 10.85 10.85 0 0 0-11.4 9.87c-.66 5.37 5.16 10.69 10.24 10.75 6.64.09 11.49-4 13.57-10.17 2.35-6.92-1.43-14-4.88-19.74-4.9-8.2-7.5-16.48-4.42-25.91a21.24 21.24 0 0 1 19.28-14.2 19.1 19.1 0 0 1 11 3.42c4.12 2.7 8 9.75 2.88 13.48a2.36 2.36 0 0 0-.6.62 5.9 5.9 0 0 0-.66 1.62 2 2 0 0 0 1 2.24 15.86 15.86 0 0 0 6.9 2c.49 0 .54.2.08.38-3.77 1.48-8.57 1-10.77-2.7-.48-.8 0-4.09 1.36-5.65 2-2.25 3-6.59.19-8.82-1.3-1-2.55-.84-2 .17.43.78.1 1.91-.52 1.73-.47-.14-.7-1-1-2.25-.87-3.29-6.41-2.73-5.36-1.13 2 3 .26 5.52-1.18 5.57-7.38.23-11.76 9.22-11.53 15 .46 11.58 9 19.33 15.39 20a18.23 18.23 0 0 0 5.53-.16c.49-.09.66.16.46.61-3.09 6.7 7.27 9.49 5.61 5.61-.76-1.78 1.78-6.87 3.46-7.79 8-4.32 13.17-15.75 14.53-19.43a58.3 58.3 0 0 0 3.05-15.6 1 1 0 0 1 1-.92h12a1 1 0 0 1 1 .92 58.34 58.34 0 0 0 3.06 15.6c1.36 3.68 6.57 15.11 14.53 19.43 1.68.91 4.22 6 3.46 7.79-1.66 3.88 8.7 1.09 5.61-5.61-.21-.45 0-.7.46-.61a18.22 18.22 0 0 0 5.53.16c6.4-.69 14.93-8.44 15.39-20 .23-5.76-4.15-14.75-11.53-15-1.44 0-3.17-2.54-1.18-5.57 1-1.6-4.5-2.16-5.36 1.13-.33 1.26-.57 2.11-1 2.25-.62.18-1-1-.52-1.73.56-1-.69-1.21-2-.17-2.86 2.38-1.86 6.67.14 8.97 1.37 1.56 1.84 4.85 1.36 5.65-2.21 3.68-7 4.18-10.77 2.7-.46-.18-.42-.36.08-.38a15.86 15.86 0 0 0 6.9-2 2 2 0 0 0 1-2.24 5.87 5.87 0 0 0-.66-1.62 2.36 2.36 0 0 0-.6-.62c-5.1-3.74-1.24-10.79 2.88-13.48a19.1 19.1 0 0 1 11-3.42A21.24 21.24 0 0 1 470.52 478c3.09 9.42.48 17.71-4.41 25.91-3.44 5.76-7.23 12.82-4.88 19.74 2.08 6.13 6.93 10.26 13.57 10.17 5.08-.07 10.89-5.38 10.24-10.75a10.85 10.85 0 0 0-11.4-9.87 10 10 0 0 0-8.09 5.11c-.26.42-.45.38-.41-.12a19.7 19.7 0 0 1 2.68-8.3c3.47-6.21 7.14-11.77 8.3-18.93a29.23 29.23 0 0 0-1.1-13.72c-.16-.47 0-.56.32-.2q1.62 1.71 3.08 3.56c3.16 4 5.65 8.08 6.52 13.16.91 5.31 1.26 10.71 2.38 16a24 24 0 0 0 6.2 11.08 30.17 30.17 0 0 0 24 9.36c8.85-.75 17.71-4.93 22.33-12.87A34.06 34.06 0 0 0 542.3 490c-2.74-7.48-9.4-15.48-18.27-14.9-7.54.5-14.93 5.85-13.85 14.15 1 8 10.86 9.28 16.45 5.44 3.14-2.16 5.91-6.89 5.79-11 0-.49.24-.64.6-.3 6.9 6.41 8.09 18.7 5 27.25-4.19 11.61-17.11 17.62-28.93 14.36-8.6-2.37-17.92-9.85-17.95-19.56a21.62 21.62 0 0 1 2.86-10.18c.23-.44.37-.39.31.1-2.17 17.92 11 25.15 16.26 26.37 5.54 1.25 17.75.92 21.33-11.45s-8.66-9-9.26-3.35-7.87 8.65-12.76 7.26-12.87-3.51-13.06-15.5c0-.49.11-.51.27 0 4 12.1 15.35 14.41 20.62 6.67 5-7.32-6 3-10.31-9.49s.82-20.37 9.05-24.06c13.3-5.93 31.94-.24 39.06 12.77a34 34 0 0 1 4 14.66v.17a2.13 2.13 0 0 0 .06.84A41.82 41.82 0 0 1 548 529.82c-10.65 10.87-24.81 16.82-39.9 17.91a100.22 100.22 0 0 1-27.26-2 23.89 23.89 0 0 0 3.09-3.38c3.65-4.87 4-19.54 2.27-13.62a12.81 12.81 0 0 1-1.92 3.91c-3.62 4.84-9.91 4.68-14.2 3.08-3.83-1.42-7.21.22-11.31 3.42q-1.73-.68-3.43-1.39a123.37 123.37 0 0 1-24.16-12.95 4.46 4.46 0 0 1-.13 4 2.74 2.74 0 0 1-1.52 1.13 14.69 14.69 0 0 1 .47 3.71 14.43 14.43 0 0 1-2.24 7.84 56.26 56.26 0 0 0 15.17 10l.54.21a28.17 28.17 0 0 1 8.53 10.8c3.25 7.27 1.5 16.4-4.07 21.25a13.61 13.61 0 0 1-9 3.11 14.55 14.55 0 0 1-10.16-3.85c-2-1.94-4.62-6 0-11.61a3.82 3.82 0 0 1 2.87-1.7 4.41 4.41 0 0 1 1.86.53 2.49 2.49 0 0 0 1 .32.93.93 0 0 0 .75-.36c.33-.42.26-1 0-2.06a5.47 5.47 0 0 0-5.41-4.3 7.07 7.07 0 0 0-3.21.81 6.87 6.87 0 0 1 5-1.92h.77c2.32.18 4 2.41 5 4.25a13.42 13.42 0 0 1 .56 1.3c.72 1.85 1.72 4.39 3.84 4.39h.2a2.46 2.46 0 0 0 2.18-1.41c1.13-2.25-.21-6.65-1.1-8a13.37 13.37 0 0 0-8.85-5.37 5.7 5.7 0 0 0-.7 0c-2.92 0-10.85 2.23-12.4 12.42a17.61 17.61 0 0 0 4.19 14.09 18 18 0 0 0 13.68 6.28h.28a17.79 17.79 0 0 0 3.29-.36 17.4 17.4 0 0 0 9.83-5.5 21.94 21.94 0 0 0 4-21.22 31.7 31.7 0 0 0-5.37-10 40.75 40.75 0 0 0 23.35-3.48c10.86 2.81 21.95 4.48 33.08 3.5a25.29 25.29 0 0 0-7.9 21.4c.39 4.89 2.87 10.38 7.06 13.39a17.91 17.91 0 0 0 14 3.52c4.72-.62 9.2-4.22 10.47-8.43a11.23 11.23 0 0 0-2-11.45 8.46 8.46 0 0 0-7.21-2.48 9.6 9.6 0 0 0-6.79 16.11 11.87 11.87 0 0 1-4.69-2.13c-5.64-3.88-6.77-13.72-3.33-20.92a20.82 20.82 0 0 1 8.09-9 29.38 29.38 0 0 1 11.74-3.48c.84-.08 1.6-.2 2.29-.32a20.15 20.15 0 0 0 1.68 18.19 15 15 0 0 0 9.7 7.17 14.28 14.28 0 0 0 11.25-2.3 10.42 10.42 0 0 0 4.6-9.68 9 9 0 0 0-5.39-7.54 6.75 6.75 0 0 0-6 .71 7.66 7.66 0 0 0 .7 13.92 9.44 9.44 0 0 1-4.11.1c-5.39-.83-9.61-7.51-9.63-13.87a16.61 16.61 0 0 1 2.71-9.24 19 19 0 0 1 3.34-3.72 64.69 64.69 0 0 0 11.79-9.19 15.61 15.61 0 0 0 5.87 14.81 11.58 11.58 0 0 0 8.94 2.63 11 11 0 0 0 7.55-4.66 8 8 0 0 0 .77-8.25 6.92 6.92 0 0 0-5.91-4 5.2 5.2 0 0 0-4.15 2.07 5.92 5.92 0 0 0 4.16 10 7.3 7.3 0 0 1-3 1.16c-4.14.83-9-2.9-10.67-7.51a12.83 12.83 0 0 1-.49-7.42 15.41 15.41 0 0 1 1.84-4.29l.09-.11a45.9 45.9 0 0 0 9.17-20.98 24.06 24.06 0 0 0 1.94-6.32c1.34-8.25 7.43-16.2 16.63-15.6 7.75.51 13.68 7.41 10.82 15-2 5.41-12.34 9.66-15.28 1.37-1.79 9.6 10.46 13.62 17.63 7.67a14.5 14.5 0 0 0 5.27-10 30.34 30.34 0 0 0 11.27 16.93 35.76 35.76 0 0 0 17.05 6.88c-7 3.19-10.58 10.17-8.29 18 2.49 8.42 14.11 13.22 21.31 6.46 5.45-5.12 3.48-15.26-4.34-14.8 6.3 3.16 1.89 10.94-2.62 12-6.33 1.52-11.23-3.9-10.86-10.11s5.45-10.14 11.08-11.3a38.06 38.06 0 0 0 4.32-.47 16.37 16.37 0 0 0 4.11-.9 42 42 0 0 0 4.12-1.37 11.79 11.79 0 0 0 1 14.9c4.75 5.39 15 4.94 18-2.55 2.28-5.67-2.67-12.52-8.32-9.48 5.76.17 5.17 7.46 2.2 9.82-4.17 3.31-9.67 1-11.54-3.76-1.58-4-.11-7.92 2.64-10.73 11.58-5.92 20.69-17 22.92-29.94C678.37 470.38 671 454 657 444.28a125.39 125.39 0 0 1 11.66 5c12.87 6.58 10.7 20.59 11.08 30.79s7.73 14.21 15.06 17.93c-.61-2.63-.91-2.91.5-7.6s4.86-10.82-.77-20.08-1-7.3 1.42-3.52 8.06 19.73 6.69 28.2-3.56 22.78 2 28.86 8 16.21 6.35 22.35c-1.15 4.2-3.78 10.19-4.54 17.38 16.42-20.09 28-42.5 13.85-76.63-9.8-23.8-35.3-38.77-61.17-46.28zm-555.72 61.81c.92 23.9-6.17 6.05-7.93 35.47-5.7-12.59-7-27.75 11.15-65.16-2.15 10.73-4.12 5.79-3.22 29.69zm19.11-15.84s2.93-1.43 1.84-8.42 1.28-12.24 5.73-18.32c-1.34 16.03-4.09 27.66-7.57 26.74zm243.81 53.68a13.29 13.29 0 0 0 7.43 3.12l1 .12a21.71 21.71 0 0 0-3.26 1.59 22.86 22.86 0 0 1-11.22-2.16c2.05-.82 4.06-1.72 6.06-2.67zm75 4.82a21.8 21.8 0 0 0-3.26-1.59l1-.12a13.29 13.29 0 0 0 7.43-3.12c2 .95 4 1.85 6.06 2.69a22.86 22.86 0 0 1-11.25 2.15zM446 435a27.58 27.58 0 0 1 1.62-2.38 10.24 10.24 0 0 1 3.93 1.81c2.34 1.78 4.87 5.05 3.8 8.23-.7 2.1-2.59 4.94-5.22 4.79-6.36-.34-6.72-8.22-4.13-12.45zm-80.67-2.38a27.59 27.59 0 0 1 1.62 2.38c2.54 4.21 2.18 12.09-4.13 12.45-2.63.15-4.51-2.69-5.22-4.79-1.07-3.18 1.46-6.45 3.8-8.23a10.23 10.23 0 0 1 3.88-1.79zm-63.11 31.69c2 2.56 4.92 4.25 7.28 6.45a28.52 28.52 0 0 1 6.08 7.84c1.37 2.7 2.27 6.1 4.19 8.48a79.7 79.7 0 0 0-8.39-8.91 35.91 35.91 0 0 0-12.11-9.66 19.74 19.74 0 0 1-3.57-3.54c-1.66-2.28-3.66-9.17-1.46-12a3.08 3.08 0 0 1 .78-.72c4.43-2.81 10.73 2.64 13.78 5.38 4.14 3.72 7.83 8 9.31 13.48a70.52 70.52 0 0 1 2.58 15.23c-2-8.08-5.72-16.75-11.81-22.63a21.17 21.17 0 0 0-5.93-4.21c-4.36-1.85-2.22 2.98-.78 4.83zm19.93 4c-.25-4.5 1.06-9 1.19-13.52a34.9 34.9 0 0 0-.82-8.85c-.51-2.22-1.56-6.73-3.57-8.15-1.81 1.67-2.26 6.28-2.48 8.54a34.9 34.9 0 0 0 .34 8.88c.71 4.43 2.6 8.75 2.94 13.25h-.36a23.14 23.14 0 0 0-4.13-8.71c-1.89-2.48-4.79-4-5.35-7.17a23.76 23.76 0 0 1-.26-6.33c.37-4.17 1.78-7.33 3.84-11.07h11c2.28 3.15 4 6 4.87 9.78a23.84 23.84 0 0 1 .56 6.31c-.15 3.23-2.82 5.1-4.38 7.8a23.16 23.16 0 0 0-3 9.18zm23.38-6.65c-3 5.57-12.06 10.48-21 25.06 1.6-2.61 2-6.1 3.05-8.95a28.53 28.53 0 0 1 5-8.56c2.06-2.49 4.73-4.54 6.38-7.34 1.19-2 2.69-7.1-1.35-4.7a21.17 21.17 0 0 0-5.33 4.94c-5.28 6.62-7.8 15.69-8.77 24a70.48 70.48 0 0 1 .58-15.43c.76-5.58 3.86-10.35 7.48-14.58 2.67-3.11 8.21-9.33 13-7.12a3.07 3.07 0 0 1 .87.61c2.48 2.57 1.39 9.66.04 12.14zm143.9 24.42c-1-8.28-3.5-17.35-8.77-24a21.16 21.16 0 0 0-5.33-4.94c-4-2.4-2.54 2.68-1.35 4.7 1.65 2.8 4.33 4.85 6.38 7.34a28.52 28.52 0 0 1 5 8.56c1 2.85 1.46 6.34 3.05 8.95-8.93-14.58-18-19.49-21-25.06-1.35-2.48-2.43-9.57.11-12.1a3.05 3.05 0 0 1 .87-.61c4.76-2.21 10.3 4 13 7.12 3.63 4.23 6.72 9 7.48 14.58a70.48 70.48 0 0 1 .51 15.53zm.19-31.29c.13 4.49 1.44 9 1.19 13.52h-.36a23.13 23.13 0 0 0-3-9.18c-1.55-2.7-4.23-4.57-4.38-7.8a23.8 23.8 0 0 1 .56-6.31c.85-3.81 2.59-6.63 4.87-9.78h11c2.05 3.74 3.46 6.9 3.84 11.07a23.84 23.84 0 0 1-.26 6.33c-.57 3.18-3.46 4.69-5.35 7.17a23.15 23.15 0 0 0-4.13 8.71h-.36c.34-4.5 2.22-8.81 2.93-13.25a34.89 34.89 0 0 0 .34-8.88c-.22-2.27-.67-6.88-2.48-8.54-2 1.42-3.05 5.93-3.57 8.15a34.89 34.89 0 0 0-.89 8.86zM517.21 465a19.72 19.72 0 0 1-3.57 3.54 35.92 35.92 0 0 0-12.11 9.66 79.71 79.71 0 0 0-8.39 8.91c1.92-2.38 2.82-5.78 4.19-8.48a28.51 28.51 0 0 1 6.08-7.84c2.36-2.2 5.28-3.89 7.28-6.45 1.44-1.85 3.59-6.69-.73-4.83a21.16 21.16 0 0 0-5.93 4.21c-6.09 5.88-9.77 14.54-11.81 22.63a70.52 70.52 0 0 1 2.58-15.23c1.48-5.44 5.17-9.76 9.31-13.48 3-2.74 9.35-8.19 13.78-5.38a3.07 3.07 0 0 1 .78.72c2.2 2.83.2 9.72-1.46 12.02zm145.7 8.43c4.84 19.44-13.82 34.37-30.36 32.43-14.15-1.7-30.44-23.86-12.3-35.86-13.55.79-20.23 11.19-20.17 22.57a17.07 17.07 0 0 0-9-10c-11.88-5.19-23.66 1.83-26.66 15.38 0-.29 0-.59-.06-.88 3.29-19 18-35.12 37.25-38.86 9.75-1.89 22.52-.9 28 8.81a20.13 20.13 0 0 1 1.86 4.6c-4.77-1.09-10.28-.12-12.21 5.05-1.73 4.65.46 10.85 6.22 10.93 6.51.09 10.86-5.58 10.94-11.86.09-6.93-3.24-13-8.57-17.27-12.2-9.86-31.93-5.65-44 2.12a52.82 52.82 0 0 0-21.53 27.09c-.11-.3-.22-.61-.34-.91a33.94 33.94 0 0 0-14.27-16.7 34.46 34.46 0 0 0-20.18-5.19h-.22c-2.31.05-4.59.6-6.9.62-.49 0-.6-.28-.4-.74a43.17 43.17 0 0 0 1.53-4.75c.1-.39.19-.8.27-1.23.58-3.07.3-8.19-3.15-9.66s-8.52 1.12-11.81 2.83c-.44.23-.68.08-.65-.36s0-.7 0-.8c0-.26 0-.52.05-.78v-1.68c0-.77 0-1.53-.09-2.29a28.7 28.7 0 0 0-1.5-7.09c-.16-.47-.45-1.22-.64-1.67a29.91 29.91 0 0 0-1.42-2.95c-.42-.75-1.17-2.19-2.18-2.19l-13.05.13a1.6 1.6 0 0 0-1.29.81c-2.64 5.34-5.22 10.9-5.67 16.89 0 .49-.38.66-.78.38-3-2.12-8-5.53-11.6-4.52s-4.56 6.06-4.38 9.17c0 .44.06.85.11 1.25a43.28 43.28 0 0 0 .9 4.91c.14.48 0 .74-.49.67-1.64-.25-4-.86-6.19-1.42a23.08 23.08 0 0 0-4.32-1 8.84 8.84 0 0 0-1-.11 20.78 20.78 0 0 0-9.63 1.47c-8 3.25-16.36 13.29-10.85 20.95.29.4.17.82-.32.92a10.49 10.49 0 0 1-12.09-7.18c-.16-.47.16-.81.62-1 1.9-.8 1.92-4.71-1-7.75-1-1.05-3-1.58-5.07-1.82-.49-.06-.64-.4-.29-.74a5.19 5.19 0 0 1 1.66-1.13c5.77-2.31 10.27 3.58 10.5 8.88.08 1.9 1.15 1.38 2.42-.12 5-5.94 4-14.48-2.24-17.12-.45-.19-.81-.69-.6-1.13a5.1 5.1 0 0 0 .42-3.88c-.46-1.65-2.77-2.42-3.92-2.42-.81 0-.73 3.13-2.31 5.07-1.82 2.24-4.8 3.16-8 3.48a40.2 40.2 0 0 1-5.53.08h-.08a40.21 40.21 0 0 1-5.53-.08c-3.24-.32-6.22-1.24-8-3.48-1.57-1.94-1.5-5.07-2.31-5.07-1.15 0-3.46.77-3.92 2.42a5.11 5.11 0 0 0 .41 3.88c.22.44-.14.94-.6 1.13-6.26 2.64-7.25 11.18-2.24 17.12 1.27 1.5 2.34 2 2.42.12.23-5.3 4.73-11.19 10.5-8.88a5.19 5.19 0 0 1 1.66 1.13c.35.34.2.69-.29.74-2.11.24-4.07.77-5.07 1.82-2.88 3-2.86 6.95-1 7.75.46.19.78.53.62 1a10.49 10.49 0 0 1-12 7.2c-.48-.1-.61-.52-.32-.92 5.51-7.66-2.88-17.7-10.85-20.95a20.78 20.78 0 0 0-9.63-1.47 8.84 8.84 0 0 0-1 .11 23.11 23.11 0 0 0-4.32 1c-2.18.55-4.55 1.16-6.19 1.42-.49.08-.63-.19-.49-.67a43.28 43.28 0 0 0 .9-4.91c0-.4.08-.82.11-1.25.18-3.12-.77-8.15-4.38-9.17s-8.57 2.4-11.6 4.52c-.41.28-.75.11-.79-.38-.45-6-3-11.54-5.67-16.89a1.6 1.6 0 0 0-1.29-.81l-13.05-.13c-1 0-1.76 1.44-2.18 2.19a30.32 30.32 0 0 0-1.42 2.95c-.19.46-.48 1.21-.64 1.67a28.7 28.7 0 0 0-1.49 7.09c-.06.76-.09 1.53-.09 2.29v1.68c0 .26 0 .52.05.78v.8c0 .35-.22.59-.65.36-3.29-1.71-8.45-4.27-11.81-2.83s-3.73 6.6-3.15 9.66c.08.43.17.84.27 1.23a43.47 43.47 0 0 0 1.53 4.75c.2.45.1.74-.4.74-2.31 0-4.59-.57-6.9-.62h-.22a34.47 34.47 0 0 0-20.18 5.19 34 34 0 0 0-14.27 16.7c-.12.3-.22.61-.33.91a52.83 52.83 0 0 0-21.53-27.09c-12.12-7.77-31.85-12-44-2.12-5.33 4.31-8.66 10.34-8.57 17.27.08 6.28 4.42 11.95 10.93 11.86 5.76-.08 8-6.28 6.22-10.93-1.93-5.18-7.43-6.14-12.21-5.05a20.21 20.21 0 0 1 1.86-4.6c5.47-9.7 18.24-10.7 28-8.81 19.25 3.73 34 19.85 37.25 38.86 0 .29 0 .58-.06.88-3-13.55-14.78-20.57-26.66-15.38a17.07 17.07 0 0 0-9 10c.06-11.38-6.62-21.78-20.17-22.57 18.13 11.92 1.85 34.12-12.31 35.8-16.54 1.94-35.2-13-30.36-32.43 6.22-25.18 24.45-34.92 48-33 14 1.15 27.31 6.61 38.73 12 4 1.89 7.26 3.38 9.87 4.55 6.4 4.4 15.34 4.58 22.67 2.18 11.8-3.86 20.13-14.26 28.73-22.57 9.48-9.15 21.38-15.81 34.65-17.05a40.5 40.5 0 0 1 24.3 5.65 29.19 29.19 0 0 1 5.27 4c-5.34 2-9.47 6.49-9.25 13 .31 9 11.4 12.67 17.21 6.29 4.46-4.9 3.3-10.85.23-16a27.45 27.45 0 0 1 7.32 2.05c4.35 1.85 7.64 5.39 10.83 8.75 3.67 3.87 7.09 8.3 12.83 8.38h10.08c5.73-.08 9.15-4.51 12.83-8.38 3.19-3.36 6.48-6.9 10.83-8.75a27.45 27.45 0 0 1 7.32-2.05c-3.06 5.12-4.23 11.07.23 16 5.81 6.38 16.9 2.74 17.21-6.29.22-6.46-3.91-10.91-9.25-13a29.24 29.24 0 0 1 5.27-4 40.5 40.5 0 0 1 24.3-5.65c13.27 1.24 25.17 7.9 34.65 17.05 8.6 8.31 16.94 18.71 28.73 22.57 7.33 2.4 16.27 2.22 22.67-2.18 2.61-1.16 5.87-2.66 9.87-4.55 11.42-5.38 24.72-10.84 38.73-12 23.66-1.9 41.89 7.84 48.11 33.02zm19.86-13.5c4.44 6.08 6.82 11.3 5.73 18.32s1.84 8.42 1.84 8.42c-3.49.9-6.23-10.73-7.57-26.76zm34.61 78c-1.76-29.42-8.85-11.57-7.93-35.47s-1.07-19-3.22-29.69c18.16 37.44 16.85 52.6 11.15 65.23z"/><path class="cls-1" d="M466.07 562.5a28.15 28.15 0 0 0-9.88-5.63c-.7-.23-1.68.13-1.18.47a17.05 17.05 0 0 1 6.91 9.21 15.85 15.85 0 0 1-1.07 12c-2.44 4.87-6 9.27-5 14.9 1 5.29 6.35 9.24 11.77 7.88 8.19-2.09 11.4-12.22 7.84-24.06a30.9 30.9 0 0 0-9.39-14.77zm180.28-102.66a8 8 0 0 0-6.09 9.7c1.11 4.5 5.22 6.57 8.64 9.36a12.84 12.84 0 0 1 4.75 8.51 13.92 13.92 0 0 1-2.06 9.1c-.27.41.59.35 1 0A22.68 22.68 0 0 0 658 489a25 25 0 0 0 2.05-14c-1.24-9.91-6.95-16.33-13.7-15.16z"/><path class="cls-1" d="M648.21 483.55a5.43 5.43 0 0 0-7.68 1.37c-1.76 2.62-.92 5.63-.76 8.64a8.75 8.75 0 0 1-2.11 6.31 9.48 9.48 0 0 1-5.53 3.12c-.33.06.09.46.49.5a15.58 15.58 0 0 0 6.23-.67 17.07 17.07 0 0 0 8-5.39c4.42-5.2 5.04-11.02 1.36-13.88z"/><path class="cls-1" d="M636.11 496.34a4.41 4.41 0 0 0-3.24-5.45c-2.5-.59-4.56.91-6.79 1.88a7.1 7.1 0 0 1-5.4.19 7.65 7.65 0 0 1-3.95-3.32c-.15-.24-.33.2-.24.53a12.49 12.49 0 0 0 2.28 4.55 13.84 13.84 0 0 0 6.38 4.56c5.22 1.87 9.85.72 10.96-2.94zm118.11-73.21c-7.44 3.55-9.56 11.42-13.19 18.37a22.8 22.8 0 0 1-13.11 11.34 24.53 24.53 0 0 1-16.57-.33c-.82-.29-.41 1.16.45 1.78a40.49 40.49 0 0 0 14.88 6.8 44.46 44.46 0 0 0 25.13-1.47c16.82-5.8 26-18.07 21.51-29.39-2.97-7.46-12.12-10.42-19.1-7.1zm-.57 43.51c-4.27-.93-7.71 1.68-11.49 3.41a12.08 12.08 0 0 1-9.17.49 13 13 0 0 1-6.83-5.52c-.25-.39-.55.35-.39.89a21.46 21.46 0 0 0 4 7.68 23.57 23.57 0 0 0 11 7.55c8.93 3 16.74.87 18.55-5.32a7.51 7.51 0 0 0-5.67-9.18zM633 542.91c5.2 0 5.2-8.05 0-8.05s-5.21 8.05 0 8.05zm23.86-9.55c5.2 0 5.2-8.06 0-8.06s-5.2 8.06 0 8.06zM385 533.6a12.51 12.51 0 0 0 1.68 6.33c1.21 2 3 3.36 4.87 3.36h.19c.62 0 .76-.54.69-2.08-.12-2.61 1.33-3.83 2.18-3.83a.53.53 0 0 1 .58.54 27.7 27.7 0 0 0 2.11 10.16c2.12 4.35 4.68 7.67 6.79 9.23a4.2 4.2 0 0 0 2.31 1 4 4 0 0 0 2.17-.89c2.14-1.52 4.76-4.88 6.94-9.34a27.69 27.69 0 0 0 2.11-10.16.53.53 0 0 1 .58-.54c.85 0 2.31 1.21 2.18 3.83-.07 1.54.07 2 .69 2.08h.19c1.93 0 3.69-1.35 4.9-3.41a12.52 12.52 0 0 0 1.65-6.29 13.46 13.46 0 0 0-1.11-5.25c-.35-.88-.06-1.14.34-1.14a1.88 1.88 0 0 1 .88.28 1.62 1.62 0 0 0 .82.3c.75 0 .91-1.08.11-2.95a30.93 30.93 0 0 0-1.45-3 21.78 21.78 0 0 0-6.33-7.13c-8.74-6.55-10.68-21.89-10.58-32.61h-8.17c.26 11.18-1.84 26.05-10.58 32.61a21.79 21.79 0 0 0-6.4 7.24 31.08 31.08 0 0 0-1.39 2.85c-.8 1.87-.64 2.95.1 2.95a1.61 1.61 0 0 0 .82-.3 1.89 1.89 0 0 1 .89-.28c.4 0 .69.25.34 1.14a13.48 13.48 0 0 0-1.1 5.3zM383.28 28a39.91 39.91 0 0 1 6.72 2.52 18.21 18.21 0 0 1 6.18 4.87 58.26 58.26 0 0 1 3.42 4.73 26.73 26.73 0 0 1 2.15 4c.38.86.71 1.74 1 2.61v12.16a5.18 5.18 0 0 1 2.31-.6 5.09 5.09 0 0 1 2.17.54V47c.35-.94.71-1.88 1.13-2.8a26 26 0 0 1 2.19-4c1.13-1.69 2.2-3.13 3.46-4.69a18.22 18.22 0 0 1 6.23-4.81 40.47 40.47 0 0 1 6.76-2.43 7.87 7.87 0 0 0 4.68-3.2 8.1 8.1 0 0 0 1.2-6.52 7.55 7.55 0 0 0-3.87-5 7.91 7.91 0 0 0-6.34-.24 11.07 11.07 0 0 0-4 2.65 30 30 0 0 0-5 7.32 96.76 96.76 0 0 0-6.49 15.38.48.48 0 0 1-.5.23 61.63 61.63 0 0 1 .64-8 55.13 55.13 0 0 1 4.11-16.19c1.5-3.39 2.65-7.34.53-10.74a7.77 7.77 0 0 0-13.55-.07c-2.15 3.38-1.05 7.34.42 10.74a54.22 54.22 0 0 1 3.94 16.23 61.35 61.35 0 0 1 .57 8 .46.46 0 0 1-.5-.24 97.93 97.93 0 0 0-6.33-15.45 30 30 0 0 0-4.89-7.37 11 11 0 0 0-4-2.69 8 8 0 0 0-6.35.18 7.57 7.57 0 0 0-3.91 4.92 8.18 8.18 0 0 0 1.13 6.53 8 8 0 0 0 4.79 3.26zM345.5 56.33a28.15 28.15 0 0 0 9.87 5.67c.7.23 1.68-.13 1.18-.47a17.05 17.05 0 0 1-6.91-9.21 15.85 15.85 0 0 1 1.07-12c2.44-4.87 6-9.27 5-14.9-1-5.29-6.35-9.24-11.77-7.88-8.19 2.09-11.4 12.22-7.84 24.07a30.9 30.9 0 0 0 9.4 14.72zM165.22 159a8 8 0 0 0 6.09-9.7c-1.11-4.5-5.22-6.57-8.64-9.36a12.84 12.84 0 0 1-4.75-8.51 13.92 13.92 0 0 1 2.06-9.1c.27-.41-.59-.35-1 .05a22.66 22.66 0 0 0-5.43 7.43 25 25 0 0 0-2.05 14c1.26 9.94 6.97 16.36 13.72 15.19z"/><path class="cls-1" d="M163.36 135.29a5.42 5.42 0 0 0 7.68-1.37c1.76-2.62.92-5.64.76-8.64a8.75 8.75 0 0 1 2.11-6.31 9.49 9.49 0 0 1 5.53-3.12c.33-.06-.09-.46-.49-.5a15.57 15.57 0 0 0-6.23.67 17.07 17.07 0 0 0-8 5.39c-4.42 5.19-5.04 11.01-1.36 13.88z"/><path class="cls-1" d="M175.46 122.5a4.41 4.41 0 0 0 3.24 5.45c2.5.59 4.56-.91 6.79-1.88a7.1 7.1 0 0 1 5.4-.19 7.64 7.64 0 0 1 3.95 3.32c.15.24.33-.2.24-.52a12.48 12.48 0 0 0-2.28-4.55 13.84 13.84 0 0 0-6.38-4.56c-5.22-1.88-9.83-.69-10.96 2.93zM57.35 195.71c7.44-3.55 9.55-11.43 13.19-18.37A22.8 22.8 0 0 1 83.65 166a24.53 24.53 0 0 1 16.57.33c.82.3.41-1.16-.45-1.78a40.49 40.49 0 0 0-14.88-6.79 44.47 44.47 0 0 0-25.13 1.47c-16.82 5.8-26 18.07-21.5 29.39 2.96 7.45 12.11 10.38 19.09 7.09zm.56-43.52c4.27.93 7.71-1.68 11.49-3.41a12.08 12.08 0 0 1 9.17-.49 13 13 0 0 1 6.83 5.52c.25.39.55-.35.39-.89a21.46 21.46 0 0 0-4-7.68 23.57 23.57 0 0 0-11-7.55c-8.93-3-16.74-.87-18.55 5.32a7.51 7.51 0 0 0 5.67 9.18zm120.67-76.26c-5.2 0-5.2 8.06 0 8.06s5.2-8.06 0-8.06zm-23.87 9.55c-5.19 0-5.19 8.06 0 8.06s5.2-8.06 0-8.06z"/><path class="cls-1" d="M152.44 178.15c-4.69-1.36-9.59-1.61-14.35-2.6-14.79-3.08-30.92-8.08-45.89-3.33-4.06 1.29-8.07 3.05-10.85 6.41-3.8 4.59-5.94 11.91-1.65 17 3.51 4.18 10.14 5.48 14.64 2 8.65-6.75 2.41-18.56-6.21-18.87a25.3 25.3 0 0 1 18.87-3.29c21.67 4.87 43.7 9.57 65.85 11.53 21.66 1.91 43.84.62 64.25-7.34a20.05 20.05 0 0 0 7.37 14.06c7.1 5.87 19 5.4 24.46-2.45 4.85-6.91 3.19-19.13-6.24-21.43-8.48-2.06-18.34 4.82-14.75 14.16 3.06 8 16.06 4.15 12.85-4.2-1-2.66-5.35-1.51-4.32 1.19 1.61 4.18-7.53 1.95-4.17-3.37a6.69 6.69 0 0 1 2.23-2.44c2.05-1.17 4.63-1.91 7-1a9.36 9.36 0 0 1 4.21 13.82c-6.86 9.77-21.78 4.48-24-6.39-1.48-7.24 2.24-15.42 9.6-17.85a24.08 24.08 0 0 1 19 1.82c11.66 6.25 19.15 17.42 29.47 25.32 17.44 13.44 43.54 19 61.94 3.91a35.31 35.31 0 0 0 4.1-4 19.3 19.3 0 0 0 5.57-.26 45.23 45.23 0 0 0-9 8.93c-9.83 12.95-7 28.69 6.68 34.88 11.29 5.11 27.14-2.87 26.56-16.8-.44-10.54-13.09-17.8-19.82-9 9.19-3.82 13.43 8.07 10.43 13.88-3.52 6.78-14 10-20.12 3.18-8-8.84-7-18.27-.18-26.73 4-5 9.51-8.65 14.48-11.6a45.89 45.89 0 0 0 4.94-3c1.9-1.2 2.73-1.82 2.68-2a87.61 87.61 0 0 0 7.45-6.62 3.15 3.15 0 0 1-2.05 3.37c-1.06.46-1.31.63-.43 1.38a4.7 4.7 0 0 0 6.05.09c-1 3.75 4.57 10.4 6 10.4h.08c1.45 0 7-6.65 6-10.4a4.7 4.7 0 0 0 6.05-.09c.88-.75.62-.92-.43-1.38a3.14 3.14 0 0 1-2.05-3.37 87.48 87.48 0 0 0 7.45 6.62c0 .15.78.77 2.68 2a45.88 45.88 0 0 0 4.94 3c5 3 10.45 6.59 14.48 11.6 6.79 8.46 7.78 17.88-.18 26.73-6.14 6.84-16.6 3.6-20.12-3.18-3-5.81 1.23-17.7 10.43-13.88-6.73-8.78-19.38-1.52-19.82 9-.58 13.93 15.26 21.92 26.56 16.8 13.65-6.19 16.51-21.93 6.68-34.88a45.2 45.2 0 0 0-9-8.93 19.3 19.3 0 0 0 5.57.26 35.25 35.25 0 0 0 4.1 4c18.4 15.12 44.5 9.52 61.94-3.91 10.32-7.95 17.81-19.07 29.47-25.32a24.08 24.08 0 0 1 19-1.82c7.36 2.42 11.07 10.61 9.6 17.85-2.22 10.87-17.14 16.16-24 6.39a9.36 9.36 0 0 1 4.27-13.85c2.33-.88 4.91-.14 7 1a6.69 6.69 0 0 1 2.24 2.44c3.35 5.32-5.78 7.55-4.17 3.37 1-2.7-3.29-3.85-4.32-1.19-3.21 8.35 9.79 12.17 12.85 4.2 3.59-9.35-6.27-16.23-14.75-14.16-9.43 2.3-11.09 14.52-6.24 21.43 5.5 7.84 17.36 8.32 24.46 2.45a20.05 20.05 0 0 0 7.37-14.06c20.41 8 42.59 9.25 64.25 7.34 22.15-2 44.18-6.65 65.85-11.53a25.3 25.3 0 0 1 18.85 3.28c-8.63.31-14.87 12.11-6.21 18.87 4.5 3.51 11.13 2.21 14.64-2 4.29-5.11 2.16-12.43-1.65-17-2.78-3.35-6.79-5.12-10.85-6.41-15-4.75-31.1.25-45.89 3.33-4.76 1-9.66 1.24-14.35 2.6 25.83-7.5 51.36-22.48 61.22-46.26 14.16-34.13 2.57-56.55-13.85-76.63.76 7.18 3.39 13.18 4.54 17.38 1.66 6.18-.78 16.4-6.38 22.4s-3.41 20.39-2 28.86-4.32 24.43-6.69 28.2-7 5.76-1.42-3.52 2.19-15.42.77-20.08-1.11-5-.5-7.6c-7.32 3.72-14.64 7.71-15.06 17.93s1.79 24.21-11.08 30.79a125.48 125.48 0 0 1-11.66 5c13.94-9.76 21.35-26.11 18.08-45.18-2.23-12.93-11.34-24-22.92-29.94-2.75-2.81-4.22-6.71-2.64-10.73 1.86-4.74 7.36-7.07 11.54-3.76 3 2.35 3.57 9.64-2.2 9.82 5.64 3 10.59-3.81 8.32-9.48-3-7.49-13.28-7.94-18-2.55a11.8 11.8 0 0 0-1 14.91 42.08 42.08 0 0 0-4.12-1.37 16.36 16.36 0 0 0-4.11-.9 38.3 38.3 0 0 0-4.32-.47c-5.63-1.17-10.7-5-11.08-11.3s4.47-11.63 10.8-10.15c4.51 1.08 8.92 8.86 2.62 12 7.82.46 9.79-9.68 4.34-14.8-7.2-6.76-18.82-2-21.31 6.46-2.29 7.78 1.33 14.77 8.29 18A35.75 35.75 0 0 0 611 102a30.34 30.34 0 0 0-11.27 16.93 14.5 14.5 0 0 0-5.27-10c-7.18-5.93-19.46-1.93-17.63 7.65 2.93-8.29 13.24-4 15.28 1.37 2.86 7.59-3.07 14.5-10.82 15-9.2.6-15.29-7.35-16.63-15.6a24.07 24.07 0 0 0-1.96-6.35 45.9 45.9 0 0 0-9.15-20.91l-.09-.11a15.4 15.4 0 0 1-1.84-4.29 12.83 12.83 0 0 1 .49-7.42c1.71-4.61 6.54-8.34 10.67-7.51a7.31 7.31 0 0 1 3 1.16 5.92 5.92 0 0 0-4.16 10 5.2 5.2 0 0 0 4.11 2.08 6.92 6.92 0 0 0 5.91-4 8.05 8.05 0 0 0-.77-8.25 11 11 0 0 0-7.55-4.75 11.58 11.58 0 0 0-8.94 2.63 15.61 15.61 0 0 0-5.87 14.81 64.65 64.65 0 0 0-11.79-9.19 19 19 0 0 1-3.34-3.72 16.61 16.61 0 0 1-2.71-9.24c0-6.36 4.24-13 9.63-13.87a9.46 9.46 0 0 1 4.11.1 7.66 7.66 0 0 0-.7 13.92 6.75 6.75 0 0 0 6 .71 9 9 0 0 0 5.39-7.54 10.42 10.42 0 0 0-4.6-9.68 14.27 14.27 0 0 0-11.25-2.3 15 15 0 0 0-9.7 7.17 20.15 20.15 0 0 0-1.68 18.2c-.68-.13-1.44-.24-2.29-.32a29.39 29.39 0 0 1-11.74-3.48 20.83 20.83 0 0 1-8.09-9c-3.43-7.2-2.31-17 3.33-20.92a11.88 11.88 0 0 1 4.69-2.13 9.6 9.6 0 0 0 6.79 16.11 8.46 8.46 0 0 0 7.21-2.48 11.23 11.23 0 0 0 2-11.45c-1.27-4.21-5.75-7.82-10.47-8.43a17.91 17.91 0 0 0-14 3.52c-4.19 3-6.67 8.49-7.06 13.39a25.29 25.29 0 0 0 7.88 21.39c-11.13-1-22.23.69-33.08 3.5a40.75 40.75 0 0 0-23.35-3.48 31.69 31.69 0 0 0 5.37-10 21.94 21.94 0 0 0-4-21.22 17.39 17.39 0 0 0-9.81-5.49 17.87 17.87 0 0 0-3.3-.37h-.28A18 18 0 0 0 424 34.51a17.6 17.6 0 0 0-4.19 14.09c1.57 10.19 9.49 12.4 12.42 12.4a5.58 5.58 0 0 0 .7 0 13.36 13.36 0 0 0 8.85-5.37c.89-1.33 2.23-5.72 1.1-8a2.46 2.46 0 0 0-2.18-1.42h-.13c-2.12 0-3.11 2.53-3.84 4.39a13.48 13.48 0 0 1-.56 1.3c-1 1.84-2.67 4.06-5 4.25h-.77a6.87 6.87 0 0 1-5-1.92 7.08 7.08 0 0 0 3.21.81 5.47 5.47 0 0 0 5.41-4.3c.25-1 .32-1.63 0-2.06a.93.93 0 0 0-.75-.36 2.5 2.5 0 0 0-1 .32 4.42 4.42 0 0 1-1.86.53 3.82 3.82 0 0 1-2.87-1.7c-4.6-5.58-2-9.67 0-11.61A14.55 14.55 0 0 1 437.71 32a13.61 13.61 0 0 1 9 3.11c5.57 4.84 7.32 14 4.07 21.25a28.17 28.17 0 0 1-8.53 10.8l-.54.21a56.27 56.27 0 0 0-15.17 10 14.43 14.43 0 0 1 2.24 7.84 14.7 14.7 0 0 1-.47 3.7 2.75 2.75 0 0 1 1.52 1.13 4.46 4.46 0 0 1 .13 4 123.35 123.35 0 0 1 24.13-12.94q1.7-.71 3.43-1.39c4.09 3.21 7.48 4.85 11.31 3.42 4.29-1.6 10.58-1.77 14.2 3.08a12.82 12.82 0 0 1 1.92 3.91c1.77 5.91 1.39-8.75-2.27-13.62a23.94 23.94 0 0 0-3.09-3.38 100.22 100.22 0 0 1 27.26-2c15.08 1.09 29.25 7 39.9 17.91a41.82 41.82 0 0 1 11.55 29.63 2.13 2.13 0 0 0-.06.84v.17a34 34 0 0 1-4 14.66c-7.12 13-25.76 18.7-39.06 12.77-8.23-3.69-13.41-11.56-9.05-24.06s15.28-2.17 10.31-9.49c-5.27-7.74-16.59-5.43-20.62 6.67-.16.47-.28.45-.27 0 .19-12 8.27-14.14 13.06-15.5s12.16 1.65 12.76 7.26 12.83 9 9.26-3.35-15.8-12.71-21.33-11.45c-5.24 1.22-18.43 8.46-16.26 26.37.06.49-.08.54-.31.1a21.62 21.62 0 0 1-2.84-10.15c0-9.7 9.35-17.18 17.95-19.56 11.81-3.26 24.74 2.75 28.93 14.36 3.08 8.54 1.9 20.83-5 27.25-.36.34-.61.19-.6-.3.12-4.1-2.65-8.83-5.79-11-5.59-3.84-15.42-2.52-16.45 5.44-1.08 8.3 6.31 13.65 13.85 14.15 8.88.58 15.53-7.41 18.27-14.9a34.07 34.07 0 0 0-2.49-27.39c-4.66-8-13.56-12.18-22.37-12.93a30.18 30.18 0 0 0-24 9.36 24 24 0 0 0-6.2 11.08c-1.13 5.27-1.48 10.67-2.38 16-.87 5.08-3.35 9.15-6.52 13.16q-1.46 1.85-3.08 3.56c-.34.36-.48.27-.32-.2a29.23 29.23 0 0 0 1.1-13.72c-1.16-7.16-4.83-12.72-8.3-18.93a19.71 19.71 0 0 1-2.68-8.3c0-.49.16-.54.41-.12a10 10 0 0 0 8.09 5.11 10.85 10.85 0 0 0 11.4-9.87c.65-5.37-5.16-10.69-10.24-10.75-6.64-.09-11.49 4-13.57 10.17-2.35 6.92 1.43 14 4.88 19.74 4.9 8.2 7.5 16.48 4.41 25.91A21.24 21.24 0 0 1 449.95 155a19.1 19.1 0 0 1-11-3.42c-4.12-2.7-8-9.75-2.88-13.48a2.38 2.38 0 0 0 .6-.62 5.87 5.87 0 0 0 .66-1.62 2 2 0 0 0-1-2.24 15.84 15.84 0 0 0-6.9-2c-.49 0-.54-.2-.08-.38 3.77-1.48 8.57-1 10.77 2.7.48.8 0 4.09-1.36 5.65-2 2.25-3 6.59-.19 8.82 1.3 1 2.55.84 2-.17-.43-.78-.1-1.91.52-1.73.47.14.7 1 1 2.25.87 3.29 6.41 2.73 5.36 1.13-2-3-.26-5.52 1.18-5.57 7.38-.23 11.76-9.22 11.53-15-.46-11.58-9-19.33-15.39-20a18.25 18.25 0 0 0-5.53.16c-.49.09-.66-.16-.46-.61 3.09-6.7-7.27-9.49-5.61-5.61.76 1.78-1.78 6.87-3.46 7.79-8 4.32-13.17 15.75-14.53 19.43a58.35 58.35 0 0 0-3.06 15.6 1 1 0 0 1-1 .92h-12a1 1 0 0 1-1-.92 58.31 58.31 0 0 0-3.05-15.6c-1.36-3.68-6.57-15.11-14.53-19.43-1.68-.91-4.22-6-3.46-7.79 1.66-3.88-8.7-1.09-5.61 5.61.21.45 0 .7-.46.61a18.25 18.25 0 0 0-5.53-.16c-6.4.69-14.93 8.44-15.39 20-.23 5.76 4.15 14.75 11.53 15 1.44 0 3.17 2.54 1.18 5.57-1 1.6 4.5 2.16 5.36-1.13.33-1.26.57-2.11 1-2.25.62-.18 1 1 .52 1.73-.56 1 .69 1.21 2 .17 2.78-2.23 1.77-6.57-.19-8.82-1.36-1.56-1.84-4.85-1.36-5.65 2.21-3.68 7-4.18 10.77-2.7.46.18.42.36-.08.38a15.84 15.84 0 0 0-6.9 2 2 2 0 0 0-1 2.24 5.9 5.9 0 0 0 .66 1.62 2.38 2.38 0 0 0 .6.62c5.1 3.74 1.24 10.79-2.88 13.48a19.1 19.1 0 0 1-11 3.42 21.24 21.24 0 0 1-19.3-14.2c-3.09-9.42-.48-17.71 4.42-25.91 3.44-5.76 7.23-12.81 4.88-19.74C348.26 89 343.41 84.9 336.77 85c-5.08.07-10.89 5.38-10.24 10.75a10.85 10.85 0 0 0 11.4 9.87 10 10 0 0 0 8.07-5.12c.26-.42.45-.38.41.12a19.68 19.68 0 0 1-2.68 8.3c-3.47 6.21-7.14 11.77-8.3 18.93a29.24 29.24 0 0 0 1.1 13.72c.16.47 0 .56-.32.2q-1.61-1.71-3.08-3.56c-3.16-4-5.65-8.08-6.52-13.16-.91-5.31-1.26-10.71-2.38-16A24 24 0 0 0 318.07 98a30.18 30.18 0 0 0-24-9.36c-8.85.75-17.71 4.93-22.33 12.87a34.07 34.07 0 0 0-2.49 27.39c2.74 7.48 9.4 15.48 18.27 14.9 7.54-.5 14.93-5.85 13.85-14.15-1-8-10.86-9.28-16.45-5.44-3.14 2.16-5.91 6.89-5.79 11 0 .49-.24.64-.6.3-6.9-6.41-8.09-18.7-5-27.25 4.19-11.61 17.11-17.62 28.93-14.36 8.6 2.37 17.92 9.85 17.95 19.56a21.63 21.63 0 0 1-2.84 10.15c-.23.44-.37.39-.31-.1 2.17-17.92-11-25.15-16.26-26.37-5.54-1.25-17.75-.92-21.33 11.45s8.66 9 9.26 3.35 7.87-8.65 12.75-7.26 12.87 3.52 13.07 15.5c0 .49-.11.51-.27 0-4-12.1-15.35-14.41-20.62-6.67-5 7.32 6-3 10.31 9.49s-.82 20.37-9.05 24.06c-13.3 5.93-31.94.24-39.06-12.77a34 34 0 0 1-4-14.66v-.17a2.15 2.15 0 0 0-.06-.84A41.82 41.82 0 0 1 263.53 89c10.65-10.88 24.81-16.82 39.9-17.91a100.22 100.22 0 0 1 27.26 2 24 24 0 0 0-3.09 3.38c-3.65 4.87-4 19.54-2.27 13.62a12.8 12.8 0 0 1 1.92-3.91c3.62-4.84 9.91-4.68 14.2-3.08 3.83 1.42 7.21-.22 11.31-3.42q1.73.68 3.43 1.39A123.68 123.68 0 0 1 380.26 94a4.42 4.42 0 0 1 .15-3.9 2.75 2.75 0 0 1 1.52-1.13 14.65 14.65 0 0 1-.47-3.7 14.42 14.42 0 0 1 2.27-7.88 56.24 56.24 0 0 0-15.12-10l-.54-.21a28.17 28.17 0 0 1-8.53-10.8c-3.25-7.27-1.5-16.4 4.07-21.25a13.61 13.61 0 0 1 9-3.11 14.55 14.55 0 0 1 10.16 3.85c2 1.94 4.62 6 0 11.61a3.82 3.82 0 0 1-2.87 1.7 4.42 4.42 0 0 1-1.86-.53 2.5 2.5 0 0 0-1-.32.93.93 0 0 0-.75.36c-.33.42-.26 1 0 2.06a5.47 5.47 0 0 0 5.41 4.3 7.08 7.08 0 0 0 3.21-.81 6.87 6.87 0 0 1-5 1.92h-.77c-2.32-.18-4-2.41-5-4.25a13.33 13.33 0 0 1-.56-1.3c-.73-1.85-1.72-4.38-3.84-4.38h-.13a2.46 2.46 0 0 0-2.18 1.42c-1.13 2.26.21 6.65 1.1 8a13.36 13.36 0 0 0 8.82 5.35 5.61 5.61 0 0 0 .7 0c2.92 0 10.85-2.23 12.4-12.42a17.6 17.6 0 0 0-4.19-14.09 18 18 0 0 0-13.64-6.34h-.28a17.85 17.85 0 0 0-3.29.36 17.4 17.4 0 0 0-9.83 5.49 21.93 21.93 0 0 0-4 21.22 31.69 31.69 0 0 0 5.37 10 40.75 40.75 0 0 0-23.35 3.48c-10.86-2.81-21.95-4.47-33.08-3.5A25.29 25.29 0 0 0 312 43.82c-.39-4.89-2.87-10.38-7.06-13.39a17.91 17.91 0 0 0-14-3.52c-4.72.62-9.2 4.22-10.47 8.43a11.24 11.24 0 0 0 2 11.45 8.46 8.46 0 0 0 7.21 2.48 9.6 9.6 0 0 0 6.79-16.11 11.87 11.87 0 0 1 4.69 2.13c5.64 3.88 6.77 13.72 3.33 20.92a20.83 20.83 0 0 1-8.09 9 29.39 29.39 0 0 1-11.74 3.48c-.84.08-1.6.19-2.29.32a20.16 20.16 0 0 0-1.71-18.17 15 15 0 0 0-9.7-7.17 14.27 14.27 0 0 0-11.2 2.33 10.42 10.42 0 0 0-4.6 9.68 9 9 0 0 0 5.39 7.54 6.75 6.75 0 0 0 6-.71 7.66 7.66 0 0 0-.7-13.92 9.46 9.46 0 0 1 4.1-.1c5.39.83 9.61 7.51 9.63 13.87a16.61 16.61 0 0 1-2.71 9.24 19 19 0 0 1-3.34 3.72 64.61 64.61 0 0 0-11.79 9.19 15.61 15.61 0 0 0-5.87-14.81A11.58 11.58 0 0 0 247 67a11 11 0 0 0-7.55 4.66 8.05 8.05 0 0 0-.77 8.25 6.92 6.92 0 0 0 5.91 4 5.2 5.2 0 0 0 4.15-2.07 5.92 5.92 0 0 0-4.16-10 7.32 7.32 0 0 1 3-1.16c4.14-.82 9 2.9 10.67 7.51a12.83 12.83 0 0 1 .49 7.42 15.42 15.42 0 0 1-1.93 4.39l-.09.11a45.92 45.92 0 0 0-9.15 20.89 24.07 24.07 0 0 0-1.94 6.32c-1.34 8.25-7.43 16.2-16.64 15.6-7.75-.51-13.68-7.41-10.82-15 2-5.41 12.35-9.66 15.28-1.37 1.79-9.6-10.46-13.62-17.63-7.67a14.5 14.5 0 0 0-5.27 10A30.34 30.34 0 0 0 199.28 102a35.75 35.75 0 0 0-17.05-6.88c7-3.19 10.58-10.17 8.29-18-2.49-8.42-14.11-13.22-21.31-6.46-5.45 5.12-3.48 15.26 4.34 14.8-6.3-3.16-1.89-10.94 2.62-12C182.5 72 187.4 77.38 187 83.59s-5.45 10.14-11.08 11.3a38.26 38.26 0 0 0-4.32.47 16.35 16.35 0 0 0-4.11.9 42 42 0 0 0-4.12 1.37 11.8 11.8 0 0 0-1-14.91c-4.75-5.39-15-4.94-18 2.55-2.28 5.73 2.63 12.53 8.31 9.5-5.76-.17-5.17-7.46-2.2-9.82 4.17-3.31 9.67-1 11.54 3.76 1.58 4 .11 7.92-2.64 10.73-11.58 5.92-20.69 17-22.92 29.94-3.27 19.08 4.14 35.42 18.08 45.18a125.51 125.51 0 0 1-11.66-5C130 163 132.18 149 131.8 138.78s-7.73-14.21-15.06-17.93c.61 2.63.91 2.91-.5 7.6s-4.86 10.82.77 20.08 1 7.3-1.42 3.52-8.06-19.73-6.69-28.2 3.56-22.78-2-28.86-8-16.21-6.35-22.35c1.15-4.2 3.78-10.19 4.54-17.38-16.42 20.09-28 42.5-13.85 76.63 9.83 23.79 35.37 38.76 61.2 46.26zm555.72-61.81c-.92-23.9 6.17-6.05 7.93-35.47 5.7 12.59 7 27.75-11.15 65.16 2.15-10.73 4.12-5.78 3.22-29.68zM689 132.19s-2.93 1.43-1.84 8.42-1.28 12.24-5.73 18.31c1.39-16.02 4.13-27.65 7.57-26.73zM445.23 78.5a13.28 13.28 0 0 0-7.43-3.12l-1-.12a21.79 21.79 0 0 0 3.2-1.58 22.85 22.85 0 0 1 11.27 2.14c-2.03.83-4.04 1.74-6.04 2.68zm-75-4.82a21.74 21.74 0 0 0 3.26 1.58l-1 .12A13.29 13.29 0 0 0 365 78.5c-2-.95-4-1.85-6.06-2.69a22.86 22.86 0 0 1 11.32-2.13zm-4.64 110.14a27.66 27.66 0 0 1-1.59 2.38 10.22 10.22 0 0 1-3.92-1.81c-2.34-1.78-4.87-5-3.8-8.23.7-2.1 2.59-4.94 5.22-4.79 6.3.36 6.65 8.24 4.12 12.45zm80.67 2.38a27.65 27.65 0 0 1-1.62-2.38c-2.54-4.21-2.18-12.09 4.13-12.45 2.63-.15 4.51 2.69 5.22 4.79 1.07 3.18-1.46 6.45-3.8 8.23a10.23 10.23 0 0 1-3.9 1.81zm63.11-31.69c-2-2.56-4.92-4.25-7.28-6.45a28.5 28.5 0 0 1-6.08-7.84c-1.37-2.7-2.27-6.1-4.19-8.48a79.76 79.76 0 0 0 8.39 8.91 35.92 35.92 0 0 0 12.11 9.66 19.69 19.69 0 0 1 3.57 3.54c1.66 2.28 3.66 9.17 1.46 12a3.06 3.06 0 0 1-.78.72c-4.43 2.81-10.73-2.64-13.78-5.38-4.14-3.72-7.83-8-9.31-13.48a70.51 70.51 0 0 1-2.58-15.22c2 8.08 5.72 16.75 11.81 22.63a21.18 21.18 0 0 0 5.93 4.21c4.36 1.86 2.2-2.98.76-4.82zm-19.93-4c.25 4.5-1.06 9-1.19 13.52a34.89 34.89 0 0 0 .82 8.85c.51 2.22 1.56 6.73 3.57 8.15 1.81-1.66 2.26-6.28 2.48-8.54a34.89 34.89 0 0 0-.34-8.88c-.71-4.43-2.6-8.75-2.93-13.25h.36a23.15 23.15 0 0 0 4.13 8.71c1.89 2.48 4.79 4 5.35 7.17a23.85 23.85 0 0 1 .26 6.33c-.37 4.17-1.78 7.33-3.84 11.07h-11c-2.28-3.15-4-6-4.87-9.78a23.8 23.8 0 0 1-.56-6.31c.15-3.23 2.82-5.1 4.38-7.8a23.14 23.14 0 0 0 3-9.18zm-23.38 6.65c3-5.57 12.06-10.48 21-25.06-1.6 2.61-2 6.1-3.05 9a28.53 28.53 0 0 1-5 8.56c-2.06 2.49-4.73 4.54-6.38 7.34-1.19 2-2.69 7.1 1.35 4.7a21.16 21.16 0 0 0 5.33-4.94c5.28-6.62 7.8-15.69 8.77-24a70.48 70.48 0 0 1-.58 15.43c-.76 5.59-3.86 10.35-7.48 14.58-2.66 3.11-8.21 9.33-13 7.12a3 3 0 0 1-.87-.61c-2.5-2.6-1.41-9.69-.06-12.17zm-143.9-24.42c1 8.28 3.49 17.35 8.77 24a21.17 21.17 0 0 0 5.33 4.94c4 2.4 2.54-2.68 1.35-4.7-1.65-2.8-4.33-4.85-6.38-7.34a28.53 28.53 0 0 1-5-8.56c-1-2.85-1.46-6.34-3.05-9 8.93 14.58 18 19.49 21 25.06 1.35 2.48 2.43 9.57-.11 12.1a3.06 3.06 0 0 1-.87.61c-4.76 2.21-10.3-4-13-7.12-3.63-4.23-6.72-9-7.48-14.58a70.48 70.48 0 0 1-.53-15.46zM322 164c-.13-4.49-1.44-9-1.19-13.52h.36a23.16 23.16 0 0 0 3 9.18c1.55 2.7 4.23 4.57 4.38 7.8a23.84 23.84 0 0 1-.56 6.31c-.85 3.81-2.59 6.63-4.87 9.78h-11c-2.05-3.74-3.46-6.9-3.84-11.07a23.76 23.76 0 0 1 .26-6.33c.57-3.18 3.46-4.69 5.35-7.17a23.14 23.14 0 0 0 4.13-8.71h.36c-.34 4.5-2.23 8.81-2.94 13.25a34.9 34.9 0 0 0-.34 8.88c.22 2.27.67 6.88 2.48 8.54 2-1.42 3.05-5.93 3.57-8.15A34.89 34.89 0 0 0 322 164zm-27.64-10.12a19.71 19.71 0 0 1 3.57-3.54 35.92 35.92 0 0 0 12.07-9.69 79.75 79.75 0 0 0 8.39-8.91c-1.92 2.38-2.82 5.78-4.19 8.48a28.52 28.52 0 0 1-6.08 7.84c-2.36 2.2-5.28 3.89-7.28 6.45-1.44 1.85-3.59 6.69.73 4.83a21.18 21.18 0 0 0 5.93-4.21c6.09-5.88 9.77-14.54 11.81-22.63a70.51 70.51 0 0 1-2.58 15.22c-1.48 5.44-5.17 9.76-9.31 13.48-3 2.74-9.35 8.19-13.78 5.38a3.07 3.07 0 0 1-.78-.72c-2.16-2.86-.16-9.72 1.5-12zm-145.7-8.43C143.82 126 162.47 111.06 179 113c14.16 1.68 30.44 23.87 12.31 35.8 13.55-.79 20.23-11.19 20.17-22.57a17.07 17.07 0 0 0 9 10c11.88 5.19 23.66-1.83 26.66-15.38 0 .29 0 .59.06.88-3.29 19-18 35.12-37.25 38.86-9.75 1.89-22.52.9-28-8.81a20.21 20.21 0 0 1-1.86-4.6c4.77 1.09 10.28.12 12.21-5.05 1.73-4.65-.46-10.85-6.22-10.93-6.51-.09-10.86 5.58-10.93 11.86-.09 6.93 3.24 13 8.57 17.27 12.2 9.86 31.93 5.65 44-2.12a52.82 52.82 0 0 0 21.53-27.09c.11.3.22.61.33.91a34 34 0 0 0 14.27 16.7 34.47 34.47 0 0 0 20.18 5.19h.22c2.31-.05 4.59-.6 6.9-.62.49 0 .6.28.4.74a43.5 43.5 0 0 0-1.53 4.75c-.1.39-.19.8-.27 1.23-.58 3.07-.3 8.19 3.15 9.66s8.52-1.12 11.81-2.83c.44-.23.68-.08.65.36s0 .7 0 .8c0 .26 0 .52-.05.78v1.68q0 1.15.09 2.29a28.68 28.68 0 0 0 1.49 7.09c.16.47.45 1.22.64 1.67a30.37 30.37 0 0 0 1.42 2.95c.42.75 1.17 2.19 2.18 2.19l13.05-.13a1.59 1.59 0 0 0 1.29-.81c2.64-5.34 5.22-10.9 5.67-16.89 0-.49.38-.66.79-.38 3 2.12 8 5.53 11.6 4.52s4.56-6.06 4.38-9.17c0-.43-.06-.85-.11-1.25a43.28 43.28 0 0 0-.9-4.91c-.14-.47 0-.74.49-.67 1.64.25 4 .86 6.19 1.42a23.1 23.1 0 0 0 4.32 1 8.55 8.55 0 0 0 1 .11 20.78 20.78 0 0 0 9.63-1.47c8-3.25 16.36-13.29 10.85-20.95-.29-.4-.17-.82.32-.92a10.49 10.49 0 0 1 12.08 7.18c.16.47-.16.81-.62 1-1.9.8-1.92 4.71 1 7.75 1 1.05 3 1.58 5.07 1.82.49.06.64.4.29.74a5.19 5.19 0 0 1-1.66 1.13c-5.77 2.3-10.27-3.58-10.5-8.88-.08-1.9-1.15-1.38-2.42.12-5 5.94-4 14.48 2.24 17.12.45.19.81.69.6 1.13a5.1 5.1 0 0 0-.41 3.88c.46 1.65 2.77 2.42 3.92 2.42.81 0 .73-3.13 2.31-5.07 1.82-2.24 4.8-3.16 8-3.48a40.17 40.17 0 0 1 5.53-.08h.08a40.15 40.15 0 0 1 5.53.08c3.24.32 6.22 1.24 8 3.48 1.57 1.94 1.5 5.07 2.31 5.07 1.15 0 3.46-.77 3.92-2.42a5.1 5.1 0 0 0-.42-3.88c-.22-.44.14-.94.6-1.13 6.26-2.64 7.25-11.18 2.24-17.12-1.27-1.5-2.34-2-2.42-.12-.23 5.3-4.73 11.19-10.5 8.88a5.19 5.19 0 0 1-1.66-1.13c-.35-.34-.2-.69.29-.74 2.11-.24 4.07-.77 5.07-1.82 2.88-3 2.86-7 1-7.75-.46-.19-.78-.53-.62-1a10.49 10.49 0 0 1 12.09-7.18c.48.1.61.52.32.92-5.51 7.66 2.88 17.7 10.85 20.95a20.77 20.77 0 0 0 9.63 1.47 8.56 8.56 0 0 0 1-.11 23.08 23.08 0 0 0 4.32-1c2.18-.55 4.55-1.16 6.19-1.42.49-.08.63.19.49.67a43.28 43.28 0 0 0-.9 4.91c0 .4-.08.82-.11 1.25-.18 3.12.77 8.16 4.38 9.17s8.57-2.4 11.6-4.52c.41-.28.75-.11.78.38.45 6 3 11.54 5.67 16.89a1.59 1.59 0 0 0 1.29.81l13.05.13c1 0 1.76-1.44 2.18-2.19a30 30 0 0 0 1.42-2.95c.19-.46.48-1.21.64-1.67a28.69 28.69 0 0 0 1.5-7.09q.09-1.14.09-2.29v-1.68c0-.26 0-.52-.05-.78v-.8c0-.35.22-.59.65-.36 3.29 1.71 8.45 4.27 11.81 2.83s3.73-6.6 3.15-9.66c-.08-.43-.17-.84-.27-1.23a43.2 43.2 0 0 0-1.53-4.75c-.2-.45-.1-.74.4-.74 2.31 0 4.59.57 6.9.62h.22a34.46 34.46 0 0 0 20.18-5.19 33.94 33.94 0 0 0 14.27-16.7c.12-.3.23-.61.34-.91a52.82 52.82 0 0 0 21.53 27.09c12.12 7.77 31.85 12 44 2.12 5.33-4.31 8.66-10.34 8.57-17.27-.08-6.28-4.42-11.95-10.94-11.86-5.76.08-8 6.28-6.22 10.93 1.93 5.18 7.43 6.14 12.21 5.05a20.12 20.12 0 0 1-1.86 4.6c-5.47 9.7-18.24 10.7-28 8.81-19.25-3.73-34-19.85-37.25-38.86 0-.29 0-.58.06-.88 3 13.54 14.78 20.57 26.66 15.38a17.07 17.07 0 0 0 9-10c-.06 11.38 6.62 21.78 20.17 22.57-18.13-11.93-1.85-34.12 12.31-35.8 16.54-1.94 35.2 13 30.36 32.43-6.22 25.18-24.45 34.92-48 33-14-1.15-27.31-6.61-38.73-12-4-1.89-7.26-3.38-9.87-4.55-6.4-4.4-15.34-4.58-22.67-2.18-11.8 3.86-20.13 14.26-28.73 22.57-9.48 9.15-21.38 15.81-34.65 17.05a40.5 40.5 0 0 1-24.3-5.65 29.21 29.21 0 0 1-5.27-4c5.34-2 9.47-6.49 9.25-13-.31-9-11.4-12.67-17.21-6.29-4.46 4.9-3.3 10.85-.23 16a27.42 27.42 0 0 1-7.32-2c-4.35-1.85-7.64-5.39-10.83-8.75-3.68-3.87-7.09-8.3-12.83-8.38h-10.08c-5.73.08-9.15 4.51-12.83 8.38-3.19 3.36-6.48 6.9-10.83 8.75a27.42 27.42 0 0 1-7.32 2c3.06-5.12 4.23-11.07-.23-16-5.81-6.38-16.9-2.74-17.21 6.29-.23 6.46 3.9 10.91 9.25 13a29.17 29.17 0 0 1-5.27 4 40.5 40.5 0 0 1-24.3 5.65c-13.27-1.24-25.17-7.9-34.65-17.05-8.6-8.31-16.94-18.71-28.73-22.57-7.33-2.4-16.27-2.22-22.67 2.18-2.61 1.16-5.87 2.66-9.87 4.55-11.43 5.38-24.72 10.84-38.73 12-23.73 1.91-41.96-7.82-48.18-33.01zm-19.86 13.5c-4.44-6.08-6.82-11.3-5.73-18.31s-1.84-8.42-1.84-8.42c3.49-.95 6.23 10.68 7.57 26.7zm-34.61-78c1.76 29.42 8.85 11.57 7.93 35.47s1.07 19 3.22 29.69c-18.16-37.48-16.85-52.65-11.15-65.23z"/><path class="cls-1" d="M460.64 52.29a17.06 17.06 0 0 1-6.91 9.21c-.5.34.49.7 1.18.47a28.13 28.13 0 0 0 9.88-5.63 30.9 30.9 0 0 0 9.38-14.77c3.56-11.84.35-22-7.84-24.07-5.42-1.36-10.8 2.59-11.77 7.88-1 5.64 2.56 10 5 14.9a15.85 15.85 0 0 1 1.08 12.01zm191.72 79.14a12.84 12.84 0 0 1-4.75 8.51c-3.42 2.79-7.53 4.86-8.64 9.36a8 8 0 0 0 6.09 9.7c6.74 1.17 12.45-5.25 13.74-15.18a25 25 0 0 0-2.05-14 22.67 22.67 0 0 0-5.43-7.43c-.44-.4-1.3-.46-1-.05a13.92 13.92 0 0 1 2.04 9.09z"/><path class="cls-1" d="M636.37 119a8.75 8.75 0 0 1 2.11 6.31c-.16 3-1 6 .76 8.64a5.42 5.42 0 0 0 7.68 1.37c3.68-2.87 3.06-8.69-1.35-13.89a17.07 17.07 0 0 0-8-5.39 15.58 15.58 0 0 0-6.23-.67c-.4 0-.82.45-.49.5a9.49 9.49 0 0 1 5.52 3.13z"/><path class="cls-1" d="M623.87 119.57a13.83 13.83 0 0 0-6.38 4.56 12.48 12.48 0 0 0-2.28 4.55c-.09.32.09.76.24.52a7.65 7.65 0 0 1 3.95-3.32 7.1 7.1 0 0 1 5.4.19c2.23 1 4.3 2.47 6.79 1.88a4.41 4.41 0 0 0 3.24-5.45c-1.14-3.62-5.75-4.81-10.96-2.93zm101.52 38.17a40.49 40.49 0 0 0-14.88 6.79c-.85.62-1.27 2.07-.45 1.78a24.54 24.54 0 0 1 16.57-.33 22.8 22.8 0 0 1 13.11 11.34c3.64 6.95 5.75 14.83 13.19 18.37 7 3.32 16.13.36 19.09-7.11 4.45-11.32-4.68-23.59-21.51-29.39a44.46 44.46 0 0 0-25.12-1.45zm-.52-3.92a13 13 0 0 1 6.83-5.52 12.09 12.09 0 0 1 9.17.49c3.78 1.73 7.22 4.34 11.49 3.41A7.51 7.51 0 0 0 758 143c-1.82-6.18-9.63-8.35-18.55-5.32a23.56 23.56 0 0 0-11 7.55 21.46 21.46 0 0 0-4 7.68c-.13.55.17 1.3.42.91zM631.7 84c5.2 0 5.2-8.06 0-8.06s-5.2 8.06 0 8.06zm23.87 1.48c-5.2 0-5.2 8.06 0 8.06s5.19-8.06 0-8.06zm-229.05-.24a12.53 12.53 0 0 0-1.66-6.24c-1.21-2.05-3-3.41-4.9-3.41h-.19c-.63 0-.77.54-.69 2.08.12 2.61-1.33 3.83-2.18 3.83a.53.53 0 0 1-.58-.54 27.69 27.69 0 0 0-2.11-10.16c-2.17-4.45-4.8-7.82-6.94-9.34a4 4 0 0 0-2.17-.89 4.2 4.2 0 0 0-2.31 1c-2.11 1.56-4.67 4.88-6.79 9.23a27.71 27.71 0 0 0-2.11 10.16.53.53 0 0 1-.58.54c-.85 0-2.31-1.21-2.18-3.83.07-1.54-.07-2-.69-2.08h-.19c-1.91 0-3.66 1.33-4.87 3.36a12.51 12.51 0 0 0-1.68 6.34 13.48 13.48 0 0 0 1.11 5.25c.35.88.07 1.14-.34 1.14a1.9 1.9 0 0 1-.89-.28 1.62 1.62 0 0 0-.82-.3c-.75 0-.9 1.08-.1 2.95a31.23 31.23 0 0 0 1.34 2.8 21.77 21.77 0 0 0 6.4 7.24c8.74 6.55 10.84 21.43 10.58 32.61h8.17c-.1-10.71 1.84-26.05 10.58-32.61A21.76 21.76 0 0 0 426.1 97a31.13 31.13 0 0 0 1.45-3c.8-1.87.64-2.95-.11-2.95a1.62 1.62 0 0 0-.82.3 1.88 1.88 0 0 1-.88.28c-.4 0-.69-.25-.34-1.14a13.46 13.46 0 0 0 1.12-5.25zM107 367.63q0 3.21-3.43 5.08a14.34 14.34 0 0 1-7 1.64 31.08 31.08 0 0 1-16.8-4.71 37.66 37.66 0 0 1-11.72-12 41.45 41.45 0 0 1-4.33-10.39q-.52-1.87-2.54-11.13a66.37 66.37 0 0 0-3-10.46 43.85 43.85 0 0 1-4.68 1.08 26.77 26.77 0 0 1-4.6.41 17.31 17.31 0 0 1-8.16-1.64 6.24 6.24 0 0 1-3.67-5.83q0-3.44 3.59-5.46a14.78 14.78 0 0 1 7.34-1.74 19.09 19.09 0 0 1 7.67 1.61 13.81 13.81 0 0 1 6 4.82 32.3 32.3 0 0 0 12.53-11.73 33.62 33.62 0 0 0 5.67-18.61q0-14.5-9.94-24.21t-25.48-9.71a90.22 90.22 0 0 0-12.7.67 44.85 44.85 0 0 0-13.45 4.41 32.07 32.07 0 0 0-8.22 5.9q-4.19 4.26-4.19 8.15c-.05.6-.07 1-.07 1.2a7 7 0 0 0 .93 3.66 3 3 0 0 0 2.73 1.57 3.51 3.51 0 0 0 2.47-.82 6 6 0 0 0 1.42-3.06q.22-.9.67-.9t.67.6a6.1 6.1 0 0 1 1.2 4 6.69 6.69 0 0 1-2.24 5.08 7.61 7.61 0 0 1-5.38 2.09 7.26 7.26 0 0 1-5.94-2.84A10.63 10.63 0 0 1 0 277.51a18.47 18.47 0 0 1 4.71-12.11 36.24 36.24 0 0 1 10.09-8.07 58 58 0 0 1 17-6.5 88.68 88.68 0 0 1 17.34-1.42q17.64 0 30 10 12.78 10.39 12.78 25.86A38 38 0 0 1 83.56 309a44.74 44.74 0 0 1-18.66 14.39 48.63 48.63 0 0 1 5.1 8.22q2.39 4.78 4.78 11.06 3.66 9.49 5.15 12.63a44.76 44.76 0 0 0 6.94 11.06q4.33 4.71 9.41 4.71a7.74 7.74 0 0 0 3.51-.82 3.14 3.14 0 0 0 1.87-2.47 7.64 7.64 0 0 0-.19-2 3.21 3.21 0 0 0-.67-1.2 1.6 1.6 0 0 1-.49-.86q0-.37.6-.6a5.91 5.91 0 0 1 3.89 1 3.89 3.89 0 0 1 2.2 3.51zM37.44 355a1.08 1.08 0 0 1 .23.49 1.47 1.47 0 0 1 .08.41q0 .86-1.35.86a42.26 42.26 0 0 1-4.46-.19 25.89 25.89 0 0 1-5.14-.71q-2.4 0-7.2.37a16.27 16.27 0 0 1-2.55.08q-1.28 0-1.28-.9a.81.81 0 0 1 .22-.6 39.54 39.54 0 0 1 3.21-2.62q2.32-1.79 2.32-3.21V279.3a4 4 0 0 0-1.35-3.36 20.11 20.11 0 0 0-2.39-1.12c-.5-.2-.75-.45-.75-.75s.3-.65.9-1.2l3.9-2.17q1.28-.67 3.75-2.24t6.75-4.93a26 26 0 0 1 2.55-1.87q.75-.22 1.05.15a1 1 0 0 1 0 1 58.45 58.45 0 0 0-2.93 6 12.69 12.69 0 0 0-1 4.82V349q0 1.42 2.27 3.14 3.01 2.57 3.17 2.86zm18.8-33.7a7.42 7.42 0 0 0-3.36-3.66 10.17 10.17 0 0 0-5.15-1.42 7.65 7.65 0 0 0-3.73.9 2.78 2.78 0 0 0-1.64 2.54 3 3 0 0 0 2.24 2.91 12.45 12.45 0 0 0 4.47.67 15.33 15.33 0 0 0 3.77-.52 11 11 0 0 0 3.4-1.42zm119.97 19.13q-1.94 6.35-9.34 11.88a30.84 30.84 0 0 1-18.91 6.5 43.48 43.48 0 0 1-11.66-1.42 33.18 33.18 0 0 1-11.06-5.6 41.84 41.84 0 0 0-3.81 5.68q-2.17 3.81-2.17 5.53a3.39 3.39 0 0 0 1.12 2.92 4.43 4.43 0 0 0 2.47.52 3.8 3.8 0 0 0 1-.15l.9-.3a.49.49 0 0 1 .52 0q.52.3.22 1.2a7.67 7.67 0 0 1-1.79 3.29 5.53 5.53 0 0 1-4.19 1.94 5.33 5.33 0 0 1-4.19-1.87 7.08 7.08 0 0 1-1.64-4.86 14.08 14.08 0 0 1 1.64-5.83q.45-1 6.43-10.61a42.76 42.76 0 0 1-8.52-12.33A38.73 38.73 0 0 1 110 321a39.39 39.39 0 0 1 10.2-27.13 32.62 32.62 0 0 1 25.37-11.43 29.63 29.63 0 0 1 12.43 2.91q3.51 1.72 7 3.36a7 7 0 0 0 1.94.45 21.51 21.51 0 0 0 2.54.15l2.24-.15q.82 0 .82.67a.91.91 0 0 1-.52.82 19.63 19.63 0 0 0-2.62 2 26.72 26.72 0 0 0-3.36 3.36q-7.25 8.07-16.81 21.15t-18 26.23a39.5 39.5 0 0 0 9 4.86 31.67 31.67 0 0 0 11.21 2q8.07 0 13.3-3.06 3.81-2.24 8.52-8 .45-.67 1-1.46a1.32 1.32 0 0 1 1.35-.63 1.26 1.26 0 0 1 1 1.42 5.2 5.2 0 0 1-.4 1.91zm-20.48-44.09q0-4.41-4.78-6.88a20.89 20.89 0 0 0-9.71-2.09q-10.61 0-17.49 9a32.66 32.66 0 0 0-6.43 20.25 31.67 31.67 0 0 0 3.36 13.9 34.54 34.54 0 0 0 7.1 10q5.08-7.55 7.92-11.73 4.56-6.73 7.77-11.28l8.22-11.66q4.05-6.22 4.05-9.51zm87.44 44.54a14.63 14.63 0 0 1-6.09 12 22.16 22.16 0 0 1-14.08 4.74q-3.74 0-14.2-3.36a29.35 29.35 0 0 0-9-1.57 21.79 21.79 0 0 0-7 1 31.35 31.35 0 0 0-6.46 3.14 1.35 1.35 0 0 1-.67.22.73.73 0 0 1-.67-.37l-.9-1a1.22 1.22 0 0 1-.37-.9 1.28 1.28 0 0 1 .22-.6 25.41 25.41 0 0 0 1.53-2.54q.71-1.35 1.16-2.24 2.32-5.08 4.75-10.35t4.37-8.93q2.39-4.33 5.83-9.72a175.76 175.76 0 0 1 11.88-16.22 155.33 155.33 0 0 1 14.12-14.27 57.65 57.65 0 0 0-17.9 1 53.2 53.2 0 0 0-10.35 3.36 56 56 0 0 0-9.19 5.31l-3.15 2.29a2 2 0 0 1-.9.37.35.35 0 0 1-.37-.3 4 4 0 0 1 .22-1q.52-1.19 1.94-3.74 2.32-4 3.14-5.68 1.27-2.54 3.14-6.58a25.21 25.21 0 0 1 1.49-3 1.19 1.19 0 0 1 .45-.3 1.25 1.25 0 0 1 .37-.07 1.46 1.46 0 0 1 1 .52 7.08 7.08 0 0 0 1.49 2q1.72 1.27 5.38 1.27h36.92q1.57 0 1.57.67 0 .45-.67 1-6.2 5.68-7.25 6.73-4 3.81-8.82 8.89-5.16 5.46-8.59 9.79a201.51 201.51 0 0 0-12.93 18.83 104.85 104.85 0 0 0-8.59 17 18.34 18.34 0 0 1 4.11-2 16.77 16.77 0 0 1 5.46-.82 25.19 25.19 0 0 1 8.29 1.64q10.16 3.59 13.38 3.59 5.45 0 8.56-2.05a6.63 6.63 0 0 0 3.1-5.87 5.74 5.74 0 0 0-1.35-3.74 4.1 4.1 0 0 0-3.29-1.64 4 4 0 0 0-2.5.79 4.87 4.87 0 0 0-1.49 1.87 6.25 6.25 0 0 0-.49 2.58.64.64 0 0 1-.37.67 1 1 0 0 1-.82-.07 5.07 5.07 0 0 1-2.09-2.32 8.11 8.11 0 0 1-.9-3.81 6.51 6.51 0 0 1 2.54-5.23 9.12 9.12 0 0 1 6-2.09 7.91 7.91 0 0 1 6.58 3.33 12.39 12.39 0 0 1 2.46 7.78zm80.26 11.58a5.31 5.31 0 0 1-1.94 4.11 6.57 6.57 0 0 1-4.48 1.72q-5.38 0-9.42-5-2.39-3-6.35-11.21t-6.8-11.58a50.15 50.15 0 0 0-9-8.67 19.46 19.46 0 0 0-11.21-3.59V349a3.84 3.84 0 0 0 1.57 2.62q1.35 1.2 2.77 2.32a2.45 2.45 0 0 1 .9 1.49q0 .9-1.64.9c-.9 0-1.64 0-2.24-.08q-4.63-.45-6.13-.45-2.69 0-4.37.15t-3.85.3q-1.79 0-1.79-.88a2.56 2.56 0 0 1 .75-1.32q1.87-1.47 2.77-2.28a4 4 0 0 0 1.72-2.77v-80a31 31 0 0 0-.15-3.44q-.15-1.27-1.79-1A9.23 9.23 0 0 0 260 266a14.58 14.58 0 0 1-2.62 1.53q-1.12.38-1.12-.82a2.16 2.16 0 0 1 .45-1 49.45 49.45 0 0 1 4.11-4.18q2.91-2.84 4.63-4.56 2.54-2.54 5.53-6.05a26.11 26.11 0 0 1 2.69-2.91 1 1 0 0 1 .45-.22 1.24 1.24 0 0 1 .37-.07q.67 0 .67 1.2-.37 2.4-.64 5.95t-.26 7.52V313a89.89 89.89 0 0 0 9.64-4.26 76 76 0 0 0 11.88-7.26A53.64 53.64 0 0 0 303 295a12.55 12.55 0 0 0 3.06-8.13 5.34 5.34 0 0 0-1.27-3.58 4.2 4.2 0 0 0-3.36-1.49 3.88 3.88 0 0 0-2.54.86 3.07 3.07 0 0 0-1.2 2q0 2-.67 2a1.61 1.61 0 0 1-.82-.37 5.91 5.91 0 0 1-2.09-2.13 6.08 6.08 0 0 1-.9-3.25 8.19 8.19 0 0 1 2.76-6.28 9.49 9.49 0 0 1 6.65-2.54 9.31 9.31 0 0 1 7.36 3.44 12 12 0 0 1 3 8.06 19.71 19.71 0 0 1-3.51 11.2 34.51 34.51 0 0 1-8.44 8.38 102.89 102.89 0 0 1-9 5.76 74.85 74.85 0 0 1-11.28 5.61 55.47 55.47 0 0 1 10.91 3.21q7.77 3.21 11.81 8.15a29.93 29.93 0 0 1 5.16 9 41.8 41.8 0 0 1 2 9.57q.6 5.6.82 6.35.9 3.21 3.06 2.84.52-.07.6-1.76a11.06 11.06 0 0 1 .15-1.83q.67-2.54 3.74-2.54a4 4 0 0 1 3.33 1.42 5.38 5.38 0 0 1 1.1 3.51zm74.88 1.87a2.74 2.74 0 0 1 .52 1.2q0 .75-1.12.75-.3 0-2.47-.22a40 40 0 0 0-4.11-.22 22.28 22.28 0 0 0-3 .22q-1.65.22-1.94.22-1.72 0-1.72-.82a1.62 1.62 0 0 1 .37-.82 9.54 9.54 0 0 0 1.08-2.05 6.83 6.83 0 0 0 .41-2.43l-.45-7.17a27.11 27.11 0 0 1-9.64 10.69 27.66 27.66 0 0 1-15.62 5q-11.51 0-19.43-6.8a23.36 23.36 0 0 1-8.37-18.61q0-11.51 9.12-19.28a31.15 31.15 0 0 1 20.92-7.47 28.52 28.52 0 0 1 11.32 2.32 22.28 22.28 0 0 1 8.26 5.6q0-3.29-3.81-9.79A45.77 45.77 0 0 0 368.12 292q-7.62-6.28-15.69-6.28a16.78 16.78 0 0 0-8.59 2.09q-4.11 2.39-4.11 6.58a6.22 6.22 0 0 0 1.23 4 4.08 4.08 0 0 0 3.4 1.57 3.87 3.87 0 0 0 2.62-1 3 3 0 0 0 1.12-2.32 7.06 7.06 0 0 0-.26-1.91q-.26-.93-.49-1.68-.22-.52.07-.67a3.38 3.38 0 0 1 1-.07 6.28 6.28 0 0 1 3.81 1.94 5.37 5.37 0 0 1 1.72 3.89 7.36 7.36 0 0 1-2.8 5.87 9.76 9.76 0 0 1-6.46 2.35 9.59 9.59 0 0 1-7.17-2.91 10.76 10.76 0 0 1-2.84-7.85q0-6.43 6.8-10a30.68 30.68 0 0 1 14.42-3.14 29.66 29.66 0 0 1 16.37 5.27A39.69 39.69 0 0 1 385.31 302a59.26 59.26 0 0 1 5.6 15.77 163.77 163.77 0 0 1 2.54 16.4q1.19 10.43 2 14.31a11.78 11.78 0 0 0 1.42 3.74zm-12.7-23.91a16.46 16.46 0 0 0-6.24-13.49q-6.24-5-16.33-5a21.06 21.06 0 0 0-14.35 5.38 17 17 0 0 0-6.13 13.3 18.66 18.66 0 0 0 6.24 14.24 21.06 21.06 0 0 0 14.83 5.79q9.94 0 16-5.64a19 19 0 0 0 5.98-14.59zm118.07-29.75a48.66 48.66 0 0 1-11.81 32.51q-10.46 12.33-28.32 19.21a92.58 92.58 0 0 1-33.7 6.28h-3.05c-.77 0-1.16-.26-1.16-.71s.32-.75 1-1.34a22.13 22.13 0 0 0 6.61-9.7q2.2-6 2.21-15.52v-18.2q-12.52-1.35-19.63-8.45-7.94-7.93-7.94-22.07 0-14.44 13.69-24.09a50.46 50.46 0 0 1 29.84-9.13q22.21 0 36.87 13.53 15.39 14.22 15.39 37.68zm-10.61-3.84q0-18-11.36-30.17Q469.9 254 451.37 254q-14.95 0-25.93 7.55-12 8.29-12 21.45 0 11.66 6.28 18.08 5.38 5.46 15.69 7.32v-27.68a3.51 3.51 0 0 0-1.87-3.51q-.9-.3-1.64-.6a1.06 1.06 0 0 1-.75-1 .91.91 0 0 1 .52-.82q.52-.3 3.14-1.35t5.38-2.39q2.09-1 6.2-3.36 1.34-.75 2.17-1.12 1.2-.45 1.2.67a1.23 1.23 0 0 1-.15.67 35.3 35.3 0 0 0-2.77 4.33 7.53 7.53 0 0 0-1 3.44v32.13q4.71 0 10.54-4.71 6.5-5.3 6.5-11.13a7.42 7.42 0 0 0-1-4 2.85 2.85 0 0 0-2.47-1.57 7.88 7.88 0 0 0-2.58.34 1.85 1.85 0 0 0-1.16.86q-.45 1-.9 1c-.25 0-.45-.22-.6-.67a4.88 4.88 0 0 1-.07-1 4.2 4.2 0 0 1 .22-1.35 6.91 6.91 0 0 1 7.17-5.08 7.42 7.42 0 0 1 6.43 3.14 12.21 12.21 0 0 1 1.94 7.17q0 7.4-7.59 14.12a30.29 30.29 0 0 1-16.48 7.85V330a39.13 39.13 0 0 1-2.05 12.68 32.22 32.22 0 0 1-5.42 10.14 55.23 55.23 0 0 0 46.18-25.39 56 56 0 0 0 8.57-30.6zm92.22 43.6q-1.94 6.35-9.34 11.88a30.84 30.84 0 0 1-18.91 6.5 43.47 43.47 0 0 1-11.66-1.42 33.19 33.19 0 0 1-11.06-5.6 41.71 41.71 0 0 0-3.81 5.68q-2.17 3.81-2.17 5.53a3.39 3.39 0 0 0 1.12 2.92 4.43 4.43 0 0 0 2.47.52 3.8 3.8 0 0 0 1-.15l.9-.3a.49.49 0 0 1 .52 0q.52.3.22 1.2a7.66 7.66 0 0 1-1.79 3.29 5.53 5.53 0 0 1-4.19 1.94 5.33 5.33 0 0 1-4.18-1.87 7.08 7.08 0 0 1-1.64-4.86 14.07 14.07 0 0 1 1.64-5.83q.45-1 6.43-10.61a42.76 42.76 0 0 1-8.52-12.33 38.74 38.74 0 0 1-3.24-15.92 39.39 39.39 0 0 1 10.2-27.13 32.62 32.62 0 0 1 25.37-11.43 29.63 29.63 0 0 1 12.41 2.91q3.51 1.72 7 3.36a7 7 0 0 0 1.94.45 21.49 21.49 0 0 0 2.54.15l2.24-.15q.82 0 .82.67a.91.91 0 0 1-.52.82 19.56 19.56 0 0 0-2.62 2 26.79 26.79 0 0 0-3.36 3.36q-7.25 8.07-16.81 21.15t-18 26.23a39.52 39.52 0 0 0 9 4.86 31.67 31.67 0 0 0 11.21 2q8.07 0 13.3-3.06 3.81-2.24 8.52-8 .45-.67 1-1.46a1.32 1.32 0 0 1 1.34-.63 1.26 1.26 0 0 1 1 1.42 5.19 5.19 0 0 1-.37 1.91zm-20.48-44.09q0-4.41-4.78-6.88a20.89 20.89 0 0 0-9.71-2.09q-10.61 0-17.49 9a32.66 32.66 0 0 0-6.43 20.25 31.68 31.68 0 0 0 3.36 13.9 34.54 34.54 0 0 0 7.1 10q5.08-7.55 7.92-11.73 4.56-6.73 7.77-11.28l8.22-11.66q4.04-6.22 4.04-9.51zm93.56 41.85a7.1 7.1 0 0 1-.6 2.54 27.49 27.49 0 0 1-8.52 11.06 30.11 30.11 0 0 1-19.58 6.88q-16.37 0-26-9.86-9.86-10.09-9.86-27.8 0-15.47 11.17-27a36 36 0 0 1 26.79-11.55 26.39 26.39 0 0 1 15.69 4.78q7.32 5.23 7.32 13.3a16.32 16.32 0 0 1-4.3 11.47 13.89 13.89 0 0 1-10.65 4.67 14.29 14.29 0 0 1-9.27-3.14 10.47 10.47 0 0 1-4.18-8.52 10.1 10.1 0 0 1 2.24-6.28 7.62 7.62 0 0 1 4-3.14 1.13 1.13 0 0 1 1.27.15.92.92 0 0 1 .22 1 15 15 0 0 0-.52 1.72 9.48 9.48 0 0 0-.45 2.69 8.09 8.09 0 0 0 .08 1.27 5.16 5.16 0 0 0 2.43 3.55 8.51 8.51 0 0 0 4.6 1.23 7.1 7.1 0 0 0 5.75-2.62 9.85 9.85 0 0 0 2.17-6.5q0-5.68-5.46-9a21.92 21.92 0 0 0-11.58-3 25.08 25.08 0 0 0-20.44 9.6q-7.81 9.6-7.81 24a31 31 0 0 0 8 21.45 26.57 26.57 0 0 0 20.55 9.19 31.55 31.55 0 0 0 12.82-2.28q5.12-2.28 10.5-8.48.07-.15.9-1.27a4.66 4.66 0 0 1 1-1.12 1.25 1.25 0 0 1 1 0 .86.86 0 0 1 .72 1.01zM744 321a36 36 0 0 1-11.51 26.83 38.07 38.07 0 0 1-53.54-.34 37.31 37.31 0 0 1-11-27.24 36.17 36.17 0 0 1 11.25-26.72 37.08 37.08 0 0 1 27-11.1 36 36 0 0 1 26.8 11.29A37.68 37.68 0 0 1 744 321zm-6.43 3.29q0-12.33-11.36-23.47-11.73-11.51-25.71-11.51a25.49 25.49 0 0 0-18.5 7.48 23.9 23.9 0 0 0-7.62 17.64q0 14.72 11.58 26.16 11.36 11.21 25 11.21a26 26 0 0 0 18.38-7q8.25-7.73 8.25-20.51zm72.81-30.94a10.39 10.39 0 0 1-2.32 7 7.77 7.77 0 0 1-6.2 2.69 13.44 13.44 0 0 1-4.75-.75 4.25 4.25 0 0 1-2.58-2.09.65.65 0 0 1-.07-.67.64.64 0 0 1 .67-.37 8.09 8.09 0 0 0 2.5-.37 4.76 4.76 0 0 0 2.05-1.34 5.07 5.07 0 0 0 1.27-3.51 4.75 4.75 0 0 0-1.94-4 10.4 10.4 0 0 0-6.43-1.72q-5.31 0-10.46 4.7a28.3 28.3 0 0 0-7 10.08v45.83a3.86 3.86 0 0 0 1.64 2.76q1.42 1.21 2.84 2.35a2.11 2.11 0 0 1 .75 1.37q0 .91-1.64.91-1.34 0-2.24-.08-4.63-.37-6.13-.37-2.84 0-4.52.15t-3.85.3q-1.65 0-1.64-.84a2.52 2.52 0 0 1 .9-1.6q1.34-1.14 2-1.67 2.31-1.86 2.32-3.28v-44.15a13 13 0 0 0-2.76-8.51q-1.87-2.24-8-4.93a.4.4 0 0 1-.3-.45 1 1 0 0 1 .3-.75l3.44-3.28q1-1 1.72-1.87a13.67 13.67 0 0 0 1-1.27 1.29 1.29 0 0 1 1-.52 1.34 1.34 0 0 1 .67.22 43.32 43.32 0 0 1 6.2 5q4.48 4.56 5.16 9.34a26.51 26.51 0 0 1 8.22-10.39 22.59 22.59 0 0 1 14-4.86q6.65 0 10.42 3.18a9.76 9.76 0 0 1 3.76 7.76z"/></svg>