<?xml version="1.0" encoding="utf-8"?>
<!-- Generator: Adobe Illustrator 22.0.1, SVG Export Plug-In . SVG Version: 6.00 Build 0)  -->
<svg version="1.1" id="Слой_1" xmlns="http://www.w3.org/2000/svg" xmlns:xlink="http://www.w3.org/1999/xlink" x="0px" y="0px"
	 width="20px" height="19px" viewBox="0 0 20 19" style="enable-background:new 0 0 20 19;" xml:space="preserve">
<style type="text/css">
	.st0{fill:none;}
	.st1{fill:#020203;}
</style>
<g>
	<path class="st0" d="M16.8,17.2c0.3,0,0.6-0.1,0.8-0.3c0.2-0.2,0.3-0.5,0.3-0.8c0-0.3-0.1-0.6-0.3-0.8c-0.2-0.2-0.5-0.3-0.8-0.3
		c-0.1,0-0.1,0-0.1,0c-0.3,0-0.6,0.1-0.7,0.3c-0.2,0.2-0.3,0.5-0.3,0.8c0,0.3,0.1,0.6,0.3,0.8C16.2,17.1,16.4,17.2,16.8,17.2z"/>
	<path class="st0" d="M6.4,15.2C6.2,15.4,6,15.7,6,16c0,0.3,0.1,0.6,0.3,0.8c0.2,0.2,0.5,0.3,0.8,0.3c0.3,0,0.6-0.1,0.8-0.3
		c0.2-0.2,0.3-0.5,0.3-0.8c0-0.3-0.1-0.6-0.3-0.8c-0.2-0.2-0.5-0.3-0.8-0.3C6.9,14.9,6.6,15,6.4,15.2z"/>
	<path class="st1" d="M17.4,11.7L19.9,4C20,3.9,20,3.9,20,3.8C20,3.4,19.7,3,19.3,3h-4.7c-0.4,0-0.7,0.3-0.7,0.7
		c0,0.4,0.3,0.7,0.7,0.7h3.7l-0.8,2.4H6L5.2,4.5h3.7c0.4,0,0.7-0.3,0.7-0.7C9.6,3.4,9.3,3,8.9,3H4.8L4,0.9C4,0.6,3.7,0.4,3.4,0.4
		l-2.7,0C0.3,0.4,0,0.7,0,1.1s0.3,0.7,0.7,0.7h2.1c1.3,3.9,2.5,7.8,3.8,11.7c-0.5,0.1-1,0.4-1.3,0.7c-0.5,0.5-0.8,1.1-0.8,1.8
		c0,0.7,0.3,1.4,0.8,1.8c0.5,0.5,1.1,0.8,1.8,0.8c0.7,0,1.4-0.3,1.8-0.8c0.5-0.5,0.8-1.1,0.8-1.8c0-0.4-0.1-0.8-0.3-1.2h4.9
		c-0.2,0.4-0.3,0.7-0.3,1.2c0,0.7,0.3,1.4,0.8,1.8c0.5,0.5,1.1,0.8,1.8,0.8c0.7,0,1.4-0.3,1.8-0.8c0.5-0.5,0.8-1.1,0.8-1.8
		c0-0.7-0.3-1.4-0.8-1.8c-0.5-0.5-1.2-0.8-1.8-0.8H8.2l-0.4-1.3l9,0C17.1,12.2,17.3,12,17.4,11.7z M15.9,15.2
		c0.2-0.2,0.5-0.3,0.7-0.3c0,0,0.1,0,0.1,0c0.3,0,0.6,0.1,0.8,0.3c0.2,0.2,0.3,0.5,0.3,0.8c0,0.3-0.1,0.6-0.3,0.8
		c-0.2,0.2-0.5,0.3-0.8,0.3c-0.3,0-0.6-0.1-0.8-0.3c-0.2-0.2-0.3-0.5-0.3-0.8C15.6,15.7,15.7,15.4,15.9,15.2z M8,15.2
		c0.2,0.2,0.3,0.5,0.3,0.8c0,0.3-0.1,0.6-0.3,0.8c-0.2,0.2-0.5,0.3-0.8,0.3c-0.3,0-0.6-0.1-0.8-0.3C6.2,16.7,6,16.4,6,16
		c0-0.3,0.1-0.6,0.3-0.8c0.2-0.2,0.5-0.3,0.8-0.3C7.5,14.9,7.8,15,8,15.2z M7.3,10.8L6.5,8.3h10.6l-0.8,2.5H7.3z"/>
</g>
</svg>
