<?xml version="1.0" encoding="utf-8"?>
<!-- Generator: Adobe Illustrator 22.0.1, SVG Export Plug-In . SVG Version: 6.00 Build 0)  -->
<svg version="1.1" id="Слой_1" xmlns="http://www.w3.org/2000/svg" xmlns:xlink="http://www.w3.org/1999/xlink" x="0px" y="0px"
	 width="14px" height="19px" viewBox="0 0 14 19" style="enable-background:new 0 0 14 19;" xml:space="preserve">
<path d="M10.1,10.5c1.5-1,2.6-2.8,2.6-4.7C12.7,2.6,10.1,0,7,0S1.3,2.6,1.3,5.7c0,2,1,3.7,2.6,4.7c-2.2,1.1-3.8,3.4-3.8,6.1V19h1.7
	v-2.4c0-2.9,2.3-5.2,5.2-5.2s5.2,2.3,5.2,5.2V19h1.7v-2.4C13.9,13.9,12.3,11.6,10.1,10.5z M3,5.7c0-2.2,1.8-4.1,4-4.1s4,1.9,4,4.1
	c0,2.2-1.8,4-4,4S3,7.9,3,5.7z"/>
</svg>
