<?xml version="1.0" encoding="utf-8"?>
<!-- Generator: Adobe Illustrator 22.0.1, SVG Export Plug-In . SVG Version: 6.00 Build 0)  -->
<svg version="1.1" id="Слой_1" xmlns="http://www.w3.org/2000/svg" xmlns:xlink="http://www.w3.org/1999/xlink" x="0px" y="0px"
	 width="10px" height="13px" viewBox="0 0 10 13" style="enable-background:new 0 0 10 13;" xml:space="preserve">
<path d="M7.7,7.3c0.9-0.8,1.4-1.9,1.4-3.1C9.1,1.9,7.3,0,5,0S0.9,1.9,0.9,4.2c0,1.2,0.6,2.4,1.4,3.1C1,8.2,0.1,9.7,0.1,11.4V13h1.8
	v-1.6c0-1.7,1.4-3.1,3.1-3.1s3.1,1.4,3.1,3.1V13h1.8v-1.6C9.9,9.7,9,8.2,7.7,7.3z M2.7,4.2c0-1.3,1.1-2.4,2.3-2.4
	c1.3,0,2.3,1.1,2.3,2.4c0,1.3-1,2.3-2.3,2.3C3.7,6.5,2.7,5.4,2.7,4.2z"/>
</svg>
