<?xml version="1.0" encoding="utf-8"?>
<!-- Generator: Adobe Illustrator 22.0.1, SVG Export Plug-In . SVG Version: 6.00 Build 0)  -->
<svg version="1.1" id="Слой_1" xmlns="http://www.w3.org/2000/svg" xmlns:xlink="http://www.w3.org/1999/xlink" x="0px" y="0px"
	 width="18px" height="18px" viewBox="0 0 18 18" style="enable-background:new 0 0 18 18;" xml:space="preserve">
<style type="text/css">
	.st0{fill:#0070BA;}
</style>
<path class="st0" d="M0.6,16.4c-0.4,0.4-0.4,1,0,1.3C0.8,17.9,1,18,1.3,18c0.3,0,0.5-0.1,0.7-0.3l4.3-4.5c1.2,0.9,2.7,1.3,4.2,1.3
	c4,0,7.3-3.3,7.3-7.3c0-4-3.3-7.3-7.3-7.3c-4,0-7.3,3.3-7.3,7.3c0,1.7,0.6,3.4,1.7,4.7L0.6,16.4L0.6,16.4z M10.4,1.9
	c3,0,5.4,2.4,5.4,5.4c0,3-2.4,5.4-5.4,5.4c-3,0-5.4-2.4-5.4-5.4C5.1,4.3,7.5,1.9,10.4,1.9L10.4,1.9z M10.4,1.9"/>
</svg>
