<?xml version="1.0" encoding="utf-8"?>
<!-- Generator: Adobe Illustrator 22.0.1, SVG Export Plug-In . SVG Version: 6.00 Build 0)  -->
<svg version="1.1" id="Слой_1" xmlns="http://www.w3.org/2000/svg" xmlns:xlink="http://www.w3.org/1999/xlink" x="0px" y="0px"
	 width="13px" height="13px" viewBox="0 0 13 13" style="enable-background:new 0 0 13 13;" xml:space="preserve">
<style type="text/css">
	.st0{fill:#FFFFFF;}
</style>
<g>
	<g id="shopping-cart">
		<path class="st0" d="M3.9,10.4c-0.7,0-1.3,0.6-1.3,1.3c0,0.7,0.6,1.3,1.3,1.3s1.3-0.6,1.3-1.3C5.2,11,4.6,10.4,3.9,10.4z M0,0v1.3
			h1.3l2.3,4.9L2.7,7.8C2.7,8,2.6,8.3,2.6,8.4c0,0.7,0.6,1.3,1.3,1.3h7.8V8.4H4.2C4.1,8.4,4,8.4,4,8.3V8.3l0.6-1.1h4.8
			c0.5,0,0.9-0.3,1.1-0.7l2.3-4.2C13,2.1,13,2.1,13,2c0-0.4-0.3-0.7-0.6-0.7H2.7L2.1,0H0z M10.4,10.4c-0.7,0-1.3,0.6-1.3,1.3
			c0,0.7,0.6,1.3,1.3,1.3c0.7,0,1.3-0.6,1.3-1.3C11.7,11,11.1,10.4,10.4,10.4z"/>
	</g>
</g>
</svg>
