<?xml version="1.0" encoding="utf-8"?>
<!-- Generator: Adobe Illustrator 24.0.2, SVG Export Plug-In . SVG Version: 6.00 Build 0)  -->
<svg version="1.1" id="Слой_1" xmlns="http://www.w3.org/2000/svg" xmlns:xlink="http://www.w3.org/1999/xlink" x="0px" y="0px"
	 width="90.815px" height="45.638px" viewBox="0 0 90.815 45.638" enable-background="new 0 0 90.815 45.638" xml:space="preserve">
<path fill="#009FE3" d="M89.073,0.855L73.302,6.86L64.435,0l-2.308,0.879c-0.071-0.04-0.145-0.076-0.22-0.11
	c-0.639-0.285-1.347-0.301-1.999-0.052l-25.65,9.843H23.393c-2.858,0-5.222,2.235-5.383,5.086l-0.067,1.175l-9.237,3.544H5.412
	C2.428,20.365,0,22.794,0,25.778v11.335h3.16c0.557,4.791,4.635,8.525,9.573,8.525c4.939,0,9.017-3.733,9.574-8.525H45.89
	c0.557,4.791,4.635,8.525,9.574,8.525c5.318,0,9.644-4.326,9.644-9.643c0-4.594-3.231-8.441-7.539-9.405l0.477-1.608l-7.437-2.929
	l-11.142-1.503l-0.239-0.951l24.342-9.341c0.652-0.25,1.166-0.739,1.45-1.377c0.03-0.067,0.057-0.136,0.081-0.205l0.561-0.213
	L69.9,11.41l0.66,1.739l20.255-7.714L89.073,0.855z M12.733,41.802c-3.202,0-5.808-2.606-5.808-5.808s2.606-5.808,5.808-5.808
	c3.203,0,5.809,2.606,5.809,5.808S15.936,41.802,12.733,41.802z M61.272,35.994c0,3.202-2.606,5.808-5.809,5.808
	c-3.203,0-5.809-2.606-5.809-5.808s2.606-5.808,5.809-5.808C58.666,30.186,61.272,32.792,61.272,35.994z M60.72,6.237l0.334,0.876
	L34.679,17.235l1.704,6.782l13.041,1.69l0.735,0.29c-2.789,1.496-4.909,4.128-5.694,7.28H23.731
	c-1.232-4.953-5.761-8.618-10.999-8.618c-3.568,0-6.806,1.7-8.897,4.35v-3.231c0-0.869,0.707-1.577,1.576-1.577h4.005l12.216-4.688
	l0.207-3.651c0.046-0.823,0.729-1.467,1.554-1.467h10.87l0.598,0.041l25.28-9.701l0.336,0.875l3.312-1.261l0.624,0.483L60.72,6.237z
	"/>
</svg>
