<?xml version="1.0" encoding="utf-8"?>
<!-- Generator: Adobe Illustrator 22.0.1, SVG Export Plug-In . SVG Version: 6.00 Build 0)  -->
<svg version="1.1" id="Слой_1" xmlns="http://www.w3.org/2000/svg" xmlns:xlink="http://www.w3.org/1999/xlink" x="0px" y="0px"
	 width="21.1px" height="15px" viewBox="0 0 21.1 15" style="enable-background:new 0 0 21.1 15;" xml:space="preserve">
<style type="text/css">
	.st0{fill:#0079C0;}
</style>
<path class="st0" d="M21,9.5c0-0.5-0.4-0.9-0.9-0.9l-0.2,0l-0.2-0.4c-0.5-1-1.9-2.2-3.6-2.3c-0.9-0.1-1.8,0.2-2.4,0.6
	c0-0.1,0-0.3-0.1-0.5c-0.2-0.6-0.5-1.3-0.7-1.9L12.5,3c-0.2-0.5-0.3-1-0.5-1.5c0,0,0.1-0.1,0.1-0.1c0.2-0.2,0.2-0.4,0.2-0.6
	C12.3,0.4,12,0,11.6,0c-0.1,0-0.2,0-0.3,0L6.1,0L5.7,0C5.4,0,5.1,0,4.8,0C4.4,0,4.1,0.3,4,0.7C3.9,1.1,4.2,1.5,4.6,1.6
	c0,0,0,0,0.1,0c0,0.1,0,0.3,0,0.4l0,0.3c0,0.9,0,1.7,0,2.6C4.3,5,4,5,3.7,5.1l0,0c0-0.7,0-1.5,0-2.2C3.7,2,3,1.3,2.2,1.3
	c-0.5,0-0.9,0.3-0.9,0.8C1.3,2.5,1.6,2.9,2,3l0,1.2c0,0.5,0,0.9,0,1.4C1.7,5.7,1.5,5.8,1.2,5.9L0.7,6C0.1,6.2,0,6.6,0,6.9
	c0,1.5,0,3.1,0,4.6c0,0.5,0.4,0.8,0.8,0.9c0.1,0,0.2,0,0.3,0c0.1,0,0.2,0,0.4,0c0.2,0,0.4-0.1,0.5-0.2C2.2,13.9,3.7,15,5.1,15
	c0,0,0.1,0,0.1,0c0.9,0,1.6-0.3,2.2-1c0.5-0.5,0.8-1.2,0.9-1.8c0.2,0.1,0.4,0.2,0.6,0.2l2.8,0l0.2,0.4c0.6,1.1,2,2.3,3.9,2.3
	c0,0,0.1,0,0.1,0c1.8-0.1,3.2-1.2,3.7-2.3l0.2-0.4c0.1,0,0.2,0,0.2,0c0.5,0,0.9-0.4,0.9-0.9C21,10.8,21,10.2,21,9.5z M16,7
	c0.9,0.1,1.7,0.5,2.2,1h-4.8C14,7.4,15,7,16,7z M7.7,1.7l0.3,0c0.7,0,1.4,0,2.2,0c0.3,0.7,0.5,1.5,0.8,2.2l0.3,0.7l-0.2,0
	c-1.1,0-2.1,0-3.2,0c-0.3,0-0.5,0-0.8,0c-0.3,0-0.5,0-0.8,0c0-0.8,0-1.6,0-2.3l0-0.1c0-0.2,0-0.3,0-0.5C6.8,1.7,7.3,1.7,7.7,1.7z
	 M6.7,13.3c-0.4,0.4-1,0.7-1.6,0.7l0,0l0,0c-1,0-2-0.8-2.1-2c0-0.6,0.2-1.1,0.5-1.6C3.9,10,4.5,9.7,5.1,9.7h0c1.1-0.1,2.1,0.8,2.2,2
	C7.4,12.2,7.2,12.9,6.7,13.3z M6,5.7C6,5.7,6,5.7,6,5.7c0.4,0,0.7,0,1.1,0c0.3,0,0.5,0,0.8,0c1.1,0,2.1,0,3.2,0l0.6,0
	c0.1,0,0.1,0,0.2,0l0.4,0c0.1,0.3,0.2,0.5,0.3,0.8c0,0,0,0,0,0c0,0,0,0,0,0c-0.8,0.6-1.3,1.4-1.7,2.3c0,0.1-0.1,0.4,0,0.6
	c0.2,0.2,0.5,0.2,0.6,0.2l4.8,0l3.6,0c0,0.5,0,1.1,0,1.6c-0.6,0-1.1,0-1.7,0l-9.3,0C8.8,9.6,7.5,8.3,5.7,8C4.3,7.8,3.1,8.3,2.2,9.5
	c-0.4,0.5-0.7,1.1-0.8,1.9c-0.1,0-0.2,0-0.3,0C1,9.9,1,8.4,1,7l0.4-0.1c0.3-0.1,0.7-0.2,1-0.3L6,5.7z M15.9,14c-1,0-1.9-0.4-2.5-1
	h4.8C17.7,13.5,16.9,14,15.9,14z M20,9.5L20,9.5l0.5,0L20,9.5z"/>
</svg>
