<?xml version="1.0" encoding="utf-8"?>
<!-- Generator: Adobe Illustrator 24.0.2, SVG Export Plug-In . SVG Version: 6.00 Build 0)  -->
<svg version="1.1" id="Слой_1" xmlns="http://www.w3.org/2000/svg" xmlns:xlink="http://www.w3.org/1999/xlink" x="0px" y="0px"
	 width="21.1px" height="15px" viewBox="0 0 21.1 15" enable-background="new 0 0 21.1 15" xml:space="preserve">
<path fill="#009FE3" d="M21,9.5c0-0.5-0.4-0.9-0.9-0.9h-0.2l-0.2-0.4c-0.5-1-1.9-2.2-3.6-2.3c-0.9-0.1-1.8,0.2-2.4,0.6
	c0-0.1,0-0.3-0.1-0.5c-0.2-0.6-0.5-1.3-0.7-1.9L12.5,3c-0.2-0.5-0.3-1-0.5-1.5l0.1-0.1c0.2-0.2,0.2-0.4,0.2-0.6
	C12.3,0.4,12,0,11.6,0c-0.1,0-0.2,0-0.3,0H6.1H5.7C5.4,0,5.1,0,4.8,0C4.4,0,4.1,0.3,4,0.7s0.2,0.8,0.6,0.9c0,0,0,0,0.1,0
	c0,0.1,0,0.3,0,0.4v0.3c0,0.9,0,1.7,0,2.6C4.3,5,4,5,3.7,5.1l0,0c0-0.7,0-1.5,0-2.2C3.7,2,3,1.3,2.2,1.3c-0.5,0-0.9,0.3-0.9,0.8
	C1.3,2.5,1.6,2.9,2,3v1.2c0,0.5,0,0.9,0,1.4C1.7,5.7,1.5,5.8,1.2,5.9L0.7,6C0.1,6.2,0,6.6,0,6.9c0,1.5,0,3.1,0,4.6
	c0,0.5,0.4,0.8,0.8,0.9c0.1,0,0.2,0,0.3,0s0.2,0,0.4,0s0.4-0.1,0.5-0.2C2.2,13.9,3.7,15,5.1,15h0.1c0.9,0,1.6-0.3,2.2-1
	c0.5-0.5,0.8-1.2,0.9-1.8c0.2,0.1,0.4,0.2,0.6,0.2h2.8l0.2,0.4c0.6,1.1,2,2.3,3.9,2.3h0.1c1.8-0.1,3.2-1.2,3.7-2.3l0.2-0.4
	c0.1,0,0.2,0,0.2,0c0.5,0,0.9-0.4,0.9-0.9C21,10.8,21,10.2,21,9.5z M16,7c0.9,0.1,1.7,0.5,2.2,1h-4.8C14,7.4,15,7,16,7z M7.7,1.7H8
	c0.7,0,1.4,0,2.2,0c0.3,0.7,0.5,1.5,0.8,2.2l0.3,0.7h-0.2c-1.1,0-2.1,0-3.2,0c-0.3,0-0.5,0-0.8,0s-0.5,0-0.8,0c0-0.8,0-1.6,0-2.3
	V2.2c0-0.2,0-0.3,0-0.5C6.8,1.7,7.3,1.7,7.7,1.7z M6.7,13.3c-0.4,0.4-1,0.7-1.6,0.7l0,0l0,0c-1,0-2-0.8-2.1-2c0-0.6,0.2-1.1,0.5-1.6
	c0.4-0.4,1-0.7,1.6-0.7l0,0c1.1-0.1,2.1,0.8,2.2,2C7.4,12.2,7.2,12.9,6.7,13.3z M6,5.7L6,5.7c0.4,0,0.7,0,1.1,0c0.3,0,0.5,0,0.8,0
	c1.1,0,2.1,0,3.2,0h0.6c0.1,0,0.1,0,0.2,0h0.4c0.1,0.3,0.2,0.5,0.3,0.8l0,0l0,0c-0.8,0.6-1.3,1.4-1.7,2.3c0,0.1-0.1,0.4,0,0.6
	c0.2,0.2,0.5,0.2,0.6,0.2h4.8h3.6c0,0.5,0,1.1,0,1.6c-0.6,0-1.1,0-1.7,0H8.9C8.8,9.6,7.5,8.3,5.7,8C4.3,7.8,3.1,8.3,2.2,9.5
	c-0.4,0.5-0.7,1.1-0.8,1.9c-0.1,0-0.2,0-0.3,0C1,9.9,1,8.4,1,7l0.4-0.1c0.3-0.1,0.7-0.2,1-0.3L6,5.7z M15.9,14c-1,0-1.9-0.4-2.5-1
	h4.8C17.7,13.5,16.9,14,15.9,14z M20,9.5L20,9.5h0.5H20z"/>
</svg>
