<?xml version="1.0" encoding="utf-8"?>
<!-- Generator: Adobe Illustrator 24.0.2, SVG Export Plug-In . SVG Version: 6.00 Build 0)  -->
<svg version="1.1" id="Слой_1" xmlns="http://www.w3.org/2000/svg" xmlns:xlink="http://www.w3.org/1999/xlink" x="0px" y="0px"
	 width="84.303px" height="59px" viewBox="0 0 84.303 59" enable-background="new 0 0 84.303 59" xml:space="preserve">
<g>
	<path fill="#009FE3" d="M69.536,25.358H30.849v22.338h38.688V25.358z M66.911,45.07H33.474V27.984h33.436V45.07z"/>
	<path fill="#009FE3" d="M74.085,50.409H27.927l-6.364-13.568c-0.31-0.662-0.975-1.084-1.706-1.084h-4.232
		c-1.041,0-1.884,0.844-1.884,1.884v2.262h1.613v2.121h-1.856l-0.673-4.914c-0.056-0.41-0.292-0.742-0.611-0.955V14.728
		c0.672-0.433,1.12-1.184,1.12-2.044V2.272c0-1.344-1.089-2.433-2.433-2.433S8.467,0.928,8.467,2.272v10.413
		c0,0.859,0.448,1.611,1.12,2.044v21.799h0.069c-0.232,0.288-0.356,0.662-0.302,1.058l0.664,4.846
		c-0.455,0.345-0.769,0.865-0.769,1.478v2.441c0,1.182,0.912,2.123,2.062,2.239l2.174,2.174c-1.004,0.877-1.652,2.15-1.652,3.584
		c0,2.636,2.144,4.78,4.779,4.78c2.634,0,4.778-2.144,4.778-4.78c0-1.385-0.602-2.624-1.547-3.497v-2.216h0.004v-4.795
		c0-1.002-0.815-1.815-1.817-1.815h-0.052v-2.121h1.248l6.473,14.007h33.686c-0.388,0.544-0.622,1.205-0.622,1.924
		c0,1.836,1.493,3.328,3.328,3.328c0.974,0,1.844-0.428,2.453-1.098c0.609,0.669,1.479,1.098,2.453,1.098
		c1.836,0,3.329-1.492,3.329-3.328c0-0.718-0.234-1.379-0.622-1.924h4.378c0.967,0,1.751-0.784,1.751-1.751
		C75.836,51.193,75.052,50.409,74.085,50.409z M16.614,56.502c-1.187,0-2.153-0.966-2.153-2.154c0-1.186,0.966-2.152,2.153-2.152
		c1.186,0,2.152,0.966,2.152,2.152C18.766,55.536,17.8,56.502,16.614,56.502z M18.098,43.839v3.045h-6.564
		c-0.294,0-0.533-0.239-0.533-0.533V43.91c0-0.075,0.059-0.135,0.135-0.135L18.098,43.839z M62.093,57.411
		c-0.87,0-1.578-0.708-1.578-1.578s0.708-1.578,1.578-1.578c0.87,0,1.578,0.708,1.578,1.578S62.963,57.411,62.093,57.411z
		 M66.999,57.411c-0.87,0-1.578-0.708-1.578-1.578s0.708-1.578,1.578-1.578c0.87,0,1.579,0.708,1.579,1.578
		S67.87,57.411,66.999,57.411z"/>
</g>
</svg>
