<?xml version="1.0" encoding="utf-8"?>
<!-- Generator: Adobe Illustrator 24.0.2, SVG Export Plug-In . SVG Version: 6.00 Build 0)  -->
<svg version="1.1" id="Слой_1" xmlns="http://www.w3.org/2000/svg" xmlns:xlink="http://www.w3.org/1999/xlink" x="0px" y="0px"
	 width="77.683px" height="36.31px" viewBox="0 0 77.683 36.31" enable-background="new 0 0 77.683 36.31" xml:space="preserve">
<g>
	<path fill="#009FE3" d="M76.284,25.681L68.472,2.499L67.47,2.136c-0.912-0.331-3.956-1.425-4.815-1.613
		c-0.247-0.055-0.511-0.13-0.76-0.2c-0.795-0.222-1.422-0.399-2.109-0.29c-0.436,0.069-0.809,0.231-1.119,0.451L41.298,1.611v0.001
		L11.485,3.401c-0.477-0.127-1.239-0.342-1.663-0.506c-1.75-0.68-3.321,0.238-3.915,1.447l-4.01,10.326L0,19.641l0.055,0.525
		c0.073,0.703,0.22,1.967,0.373,2.526l0.061,0.232c0.265,1.019,0.565,2.075,1.063,2.814l0.139,0.212
		c0.45,0.702,1.289,2.006,2.837,2.771c1.188,0.585,4.734,2.035,5.161,2.209l5.564,2.186v0.572l5.539,2.226
		c0.499,0.314,1.137,0.395,1.785,0.395c0.363,0,0.73-0.026,1.076-0.05c1.761-0.121,6.366-0.623,6.567-0.646l47.462-5.306v-3.543
		L76.284,25.681z M11.336,26.82c-1.048-0.428-3.963-1.633-4.848-2.069c-0.447-0.22-0.78-0.738-1.073-1.195l-0.174-0.265
		c-0.102-0.183-0.259-0.68-0.467-1.48l-0.073-0.274c-0.038-0.163-0.116-0.716-0.186-1.314l1.517-3.976L9.065,8.3l0.36-0.879
		c0.55,0.162,1.032,0.288,1.221,0.336l2.275,0.755l5.704,21.172L11.336,26.82z M41.585,6.029l19.72-1.28
		c0.135,0.036,0.269,0.068,0.401,0.097c0.346,0.079,1.801,0.575,3.253,1.092l6.93,20.562l-42.154,4.714
		c-0.043,0.005-4.026,0.44-5.952,0.596L17.23,7.491l24.345-1.461"/>
	<path fill="#009FE3" d="M58.028,18.017c-0.018-0.004-1.796-0.489-2.094-1.747c-0.473-1.996-0.367-2.177,0.14-3.049l-2.549-1.487
		c-1.034,1.774-1.022,2.858-0.463,5.216c0.561,2.362,2.827,3.549,4.16,3.907c11.025,4.385,11.113,4.401,11.307,4.435l0.292-1.63
		l0.432-1.223c-0.436-0.154-6.833-2.692-11.027-4.359L58.028,18.017z"/>
	
		<rect x="23.847" y="17.678" transform="matrix(0.9968 -0.0796 0.0796 0.9968 -1.4088 2.9545)" fill="#009FE3" width="25.04" height="2.952"/>
</g>
</svg>
