<?xml version="1.0" encoding="utf-8"?>
<!-- Generator: Adobe Illustrator 24.0.2, SVG Export Plug-In . SVG Version: 6.00 Build 0)  -->
<svg version="1.1" id="Слой_1" xmlns="http://www.w3.org/2000/svg" xmlns:xlink="http://www.w3.org/1999/xlink" x="0px" y="0px"
	 width="85.734px" height="51.07px" viewBox="0 0 85.734 51.07" enable-background="new 0 0 85.734 51.07" xml:space="preserve">
<path fill="#009FE3" d="M81.51,36.694V35h-5.734c2.684-3.015,4.332-6.998,4.332-11.407c0-8.559-6.963-15.522-15.522-15.522H16.481
	v-3.71L12.12,0L7.998,4.122l2.653,2.653V8.93C4.486,10.986,0,16.745,0,23.593v1.546c0,3.723,1.349,7.163,3.579,9.86H1.256v5.92
	h10.569c0.859,5.355,5.254,9.659,10.897,10.113c0.326,0.025,0.65,0.037,0.972,0.037c3.842,0,7.324-1.839,9.546-4.727
	c2.003,2.601,5.02,4.406,8.544,4.69c0.326,0.025,0.65,0.037,0.972,0.037c5.893,0,10.904-4.331,11.838-10.15H81.51v-1.696h4.224
	v-2.529H81.51z M23.128,45.989c-3.842-0.309-6.716-3.685-6.407-7.529c0.151-1.86,1.015-3.552,2.437-4.762
	c1.276-1.084,2.862-1.667,4.518-1.667c0.19,0,0.381,0.007,0.572,0.025c3.842,0.309,6.716,3.685,6.408,7.529
	C30.346,43.423,26.981,46.293,23.128,45.989z M42.19,45.989c-3.842-0.309-6.716-3.685-6.407-7.529
	c0.151-1.86,1.015-3.552,2.437-4.762c1.276-1.084,2.862-1.667,4.518-1.667c0.19,0,0.38,0.007,0.572,0.025
	c3.842,0.309,6.716,3.685,6.409,7.529C49.408,43.423,46.045,46.293,42.19,45.989z M66.766,35H54.082
	c-1.545-4.33-5.494-7.596-10.365-7.988c-3.21-0.242-6.325,0.748-8.776,2.836c-0.657,0.558-1.231,1.185-1.745,1.852
	c-2.004-2.6-5.02-4.404-8.541-4.688c-3.204-0.242-6.326,0.748-8.776,2.836c-1.638,1.393-2.801,3.177-3.499,5.152h-0.23
	c-4.123-1.42-7.091-5.32-7.091-9.86v-1.546c0-5.77,4.693-10.463,10.462-10.463h49.066c5.769,0,10.463,4.693,10.463,10.643
	C75.05,29.054,71.55,33.483,66.766,35z"/>
</svg>
