<?xml version="1.0" encoding="utf-8"?>
<!-- Generator: Adobe Illustrator 24.0.2, SVG Export Plug-In . SVG Version: 6.00 Build 0)  -->
<svg version="1.1" id="Слой_1" xmlns="http://www.w3.org/2000/svg" xmlns:xlink="http://www.w3.org/1999/xlink" x="0px" y="0px"
	 width="120.046px" height="67px" viewBox="0 0 120.046 67" enable-background="new 0 0 120.046 67" xml:space="preserve">
<g>
	<g>
		<path fill="#009FE3" d="M87.865,39.518l-0.144-0.347c-1.215-2.943-6.172-5.832-6.219-5.856c-0.826-0.429-1.645-0.791-2.428-1.08
			L61.217,0L39.328,12.492L31.8,27.994l13.37,0.231v-7.842l12.733-9.056l14.358,23.362c-0.067,0.501-0.064,0.993,0.06,1.413
			c0.186,0.634,0.497,1.822,0.617,2.281c0.03,3.682-1.802,7.712-2.503,9.117l-1.778,0.675l-3.019,7.251l20.231-7.685
			c1.694-0.643,2.92-2.273,2.981-3.961C88.912,42.033,88.427,40.867,87.865,39.518z M41.871,18.681v6.186l-4.844-0.083l4.824-9.934
			L59.949,4.522l14.908,26.912c-0.239,0.02-0.458,0.058-0.651,0.117L58.867,6.593L41.871,18.681z M84.696,44.656l-11.294,4.29
			c0.857-1.713,2.943-6.365,2.831-10.828l-0.052-0.371c0,0-0.169-0.655-0.352-1.335h4.444c1.11,0.681,3.866,2.728,4.398,4.017
			l0.148,0.357c0.497,1.192,0.77,1.848,0.733,2.873C85.54,43.975,85.164,44.479,84.696,44.656z"/>
		<path fill="#009FE3" d="M53.704,52.919H6.069C2.722,52.919,0,55.642,0,58.987v1.944C0,64.277,2.722,67,6.069,67h47.635
			c3.346,0,6.069-2.723,6.069-6.069v-1.944C59.773,55.642,57.05,52.919,53.704,52.919z M56.473,60.931
			c0,1.527-1.242,2.769-2.77,2.769H6.069c-1.527,0-2.769-1.242-2.769-2.769v-1.944c0-1.527,1.242-2.769,2.769-2.769h47.635
			c1.527,0,2.77,1.242,2.77,2.769V60.931z"/>
		<path fill="#009FE3" d="M51.032,37.934l-4.762-8.549H30.251v6.8l-4.132,0.262V34.62H12.876v1.57H9.578v15.18h41.454V37.934z
			 M47.733,48.07H12.878V39.49h3.297v-1.57h6.645v2.045l10.731-0.681v-6.598h10.78l3.402,6.106V48.07z"/>
		<path fill="#009FE3" d="M34.648,33.856v9.319h11.684v-5.187l-2.944-4.132H34.648z M43.032,39.875h-5.085v-2.72h3.741l1.344,1.887
			V39.875z"/>
	</g>
	<path fill="#009FE3" d="M58.465,42.385l-1.094-0.961c0.182-0.207,4.441-5.025,7.908-5.702l5.342-3.638l0.819,1.205l-5.769,3.843
		C63.199,37.519,59.63,41.055,58.465,42.385z"/>
	<path fill="#009FE3" d="M102.434,50.869c-1.578-1.1-5.273-3.832-5.486-5.418c-0.06-0.441,0.102-0.745,0.25-0.921
		c0.529-0.816-0.597-6.594-2.575-9.292c-1.487-2.027-9.334-3.365-12.232-3.709l-4.323,0.489l-0.156-1.45l4.487-0.486
		c1.295,0.136,11.272,1.396,13.399,4.298c1.988,2.712,3.715,9.189,2.612,10.952c0.244,0.688,2.444,2.66,4.858,4.343L102.434,50.869z
		"/>
	<path fill="#009FE3" d="M119.127,45.017c-1.136-0.924-2.837-2.831-4.637-4.852c-2.254-2.527-6.02-6.751-7.062-6.751
		c-0.003,0-0.007,0-0.01,0c-2.133,0.054-13.145,1.154-13.256,1.165l-0.145-1.45c0.456-0.045,11.178-1.114,13.362-1.171
		c0.011,0,0.024,0,0.037,0c1.59,0,4.15,2.74,8.159,7.237c1.761,1.975,3.425,3.843,4.47,4.69L119.127,45.017z"/>
	<path fill="#009FE3" d="M64.961,58.43l-1.093-0.932c0.176-0.264,0.546-0.819,7.572-1.995l0.122-0.023l0.122,0.023
		c2.652,0.463,12.785-0.785,12.885-0.799l0.179,1.444c-0.419,0.051-10.159,1.251-13.183,0.807
		C68.737,57.432,65.44,58.126,64.961,58.43z"/>
	<rect x="106.839" y="36.412" fill="#009FE3" width="1.474" height="1.474"/>
	<rect x="102.85" y="39.26" fill="#009FE3" width="1.551" height="1.551"/>
	<rect x="88.525" y="34.576" fill="#009FE3" width="1.47" height="1.47"/>
	<rect x="91.898" y="40.072" fill="#009FE3" width="1.433" height="1.433"/>
	
		<rect x="60.92" y="43.289" transform="matrix(-0.9785 -0.2064 0.2064 -0.9785 113.2306 100.243)" fill="#009FE3" width="1.849" height="1.849"/>
	<rect x="69.621" y="59.004" fill="#009FE3" width="1.455" height="3.638"/>
	<rect x="83.931" y="57.901" fill="#009FE3" width="1.455" height="3.772"/>
	<path fill="#009FE3" d="M114.099,60.687c-2.095-0.088-5.578-0.199-6.019-0.176c-0.54,0.091-2.062-0.611-4.413-1.981
		c-0.111-0.077-2.717-2.103-5.145-2.382l0.165-1.444c2.841,0.324,5.676,2.533,5.796,2.626c1.335,0.767,3.125,1.683,3.529,1.731
		c0.615-0.074,5.582,0.148,6.147,0.171L114.099,60.687z"/>
	<path fill="#009FE3" d="M97.271,62.077L96.06,61.27c0.003-0.003,0.331-0.503,0.6-1.148c0.134-0.318,0.084-1.342-0.045-2.098
		l1.435-0.244c0.057,0.33,0.321,2.024-0.047,2.902C97.677,61.463,97.288,62.051,97.271,62.077z"/>
	<path fill="#009FE3" d="M100.304,65.249l-0.001-1.455c0.02,0,1.973-0.011,3.4-0.742c1.049-0.537,0.713-1.66,0.698-1.708l1.39-0.432
		c0.252,0.807,0.279,2.567-1.425,3.436C102.62,65.238,100.398,65.249,100.304,65.249z"/>
</g>
</svg>
