<?xml version="1.0" encoding="utf-8"?>
<!-- Generator: Adobe Illustrator 24.0.2, SVG Export Plug-In . SVG Version: 6.00 Build 0)  -->
<svg version="1.1" id="Слой_1" xmlns="http://www.w3.org/2000/svg" xmlns:xlink="http://www.w3.org/1999/xlink" x="0px" y="0px"
	 width="65.425px" height="55.038px" viewBox="0 0 65.425 55.038" enable-background="new 0 0 65.425 55.038" xml:space="preserve">
<g>
	<path fill="#009FE3" d="M45.419,39.353c-1.739,0-3.258-1.222-3.604-2.941l-0.236-1.166c-0.524-0.142-1.043-0.31-1.555-0.507
		l-0.827,0.774c-1.349,1.278-3.442,1.334-4.87,0.128l-2.49-2.102c-1.418-1.199-1.714-3.271-0.69-4.819l0.641-0.968
		c-0.255-0.435-0.488-0.879-0.698-1.331l-1.143-0.036c-1.854-0.063-3.373-1.502-3.534-3.35l-0.277-3.258
		c-0.148-1.861,1.112-3.534,2.93-3.9l0.963-0.194c0.142-0.58,0.315-1.153,0.519-1.713l-0.703-0.751
		c-1.275-1.347-1.332-3.442-0.128-4.868l2.1-2.5c1.201-1.42,3.273-1.716,4.822-0.695l0.716,0.474
		c0.596-0.366,1.215-0.692,1.854-0.975l0.028-0.83c0.058-1.851,1.497-3.373,3.35-3.531l3.253-0.277
		c1.868-0.178,3.538,1.113,3.902,2.928l0.166,0.817c0.647,0.165,1.28,0.369,1.894,0.613l0.567-0.53
		c1.344-1.275,3.441-1.334,4.867-0.128l2.492,2.102c1.431,1.209,1.716,3.294,0.662,4.845l-0.471,0.711
		c0.296,0.511,0.565,1.038,0.804,1.581l0.879,0.026c1.851,0.056,3.373,1.495,3.534,3.35l0.277,3.258
		c0.148,1.858-1.112,3.531-2.93,3.897l-0.899,0.184c-0.155,0.586-0.343,1.169-0.563,1.742l0.688,0.731
		c1.278,1.351,1.336,3.445,0.132,4.872l-2.103,2.487c-1.197,1.42-3.266,1.716-4.819,0.692l-0.889-0.586
		c-0.54,0.313-1.1,0.596-1.673,0.847l-0.036,1.077c-0.058,1.851-1.499,3.373-3.352,3.531l-3.253,0.277
		C45.617,39.349,45.518,39.353,45.419,39.353z M39.353,30.742l1.036,0.484c0.957,0.451,1.948,0.774,2.945,0.965l1.112,0.214
		l0.677,3.337c0.028,0.148,0.173,0.234,0.316,0.237l3.241-0.277c0.148-0.013,0.265-0.132,0.268-0.28l0.109-3.333l1.084-0.382
		c1.052-0.376,2.05-0.879,2.965-1.502l0.934-0.632l2.737,1.808c0.127,0.082,0.287,0.059,0.385-0.056l2.103-2.487
		c0.094-0.112,0.091-0.277-0.008-0.379l-2.238-2.375l0.491-1.041c0.474-1.001,0.812-2.049,1.006-3.109l0.204-1.12l3.091-0.636
		c0.15-0.03,0.252-0.168,0.24-0.313l-0.275-3.245c-0.013-0.145-0.132-0.264-0.277-0.267l-3.137-0.099l-0.387-1.084
		c-0.361-1.018-0.853-1.986-1.459-2.882l-0.637-0.935l1.713-2.573c0.092-0.135,0.071-0.293-0.041-0.389l-2.49-2.102
		c-0.115-0.096-0.277-0.089-0.379,0.007l-2.228,2.088l-1.043-0.504c-1.011-0.491-2.098-0.843-3.235-1.047l-1.125-0.204l-0.614-3.017
		c-0.028-0.145-0.128-0.227-0.32-0.237l-3.241,0.277c-0.148,0.013-0.264,0.132-0.267,0.28l-0.104,3.08l-1.079,0.385
		c-1.1,0.395-2.138,0.939-3.086,1.624l-0.945,0.679l-2.617-1.733c-0.122-0.082-0.285-0.059-0.382,0.056l-2.1,2.5
		c-0.097,0.115-0.094,0.28,0.005,0.382l2.21,2.358l-0.455,1.021c-0.441,0.991-0.758,2.039-0.94,3.109l-0.193,1.14l-3.189,0.649
		c-0.147,0.03-0.249,0.168-0.237,0.32l0.275,3.241c0.013,0.145,0.135,0.264,0.283,0.267l3.342,0.105l0.4,1.051
		c0.351,0.919,0.819,1.815,1.393,2.658l0.636,0.935l-1.866,2.82c-0.082,0.122-0.059,0.287,0.054,0.382l2.489,2.102
		c0.115,0.096,0.278,0.089,0.38-0.007L39.353,30.742z M45.832,27.61c-1.899,0-3.722-0.665-5.193-1.907
		c-1.652-1.393-2.658-3.347-2.836-5.494c-0.184-2.141,0.481-4.233,1.874-5.883c1.393-1.654,3.345-2.662,5.494-2.839
		c2.134-0.191,4.234,0.481,5.886,1.874c1.652,1.393,2.66,3.343,2.838,5.494c0.184,2.141-0.481,4.236-1.876,5.886
		c-1.393,1.654-3.345,2.662-5.493,2.839C46.295,27.6,46.063,27.61,45.832,27.61z M45.865,14.829c-0.135,0-0.272,0.007-0.408,0.016
		c-1.255,0.105-2.39,0.692-3.202,1.654c-0.81,0.962-1.199,2.177-1.092,3.426c0.104,1.255,0.692,2.388,1.652,3.202
		c0.963,0.81,2.187,1.186,3.429,1.094h0.003c1.248-0.105,2.383-0.692,3.195-1.654c0.812-0.962,1.201-2.181,1.094-3.429
		c-0.104-1.255-0.692-2.388-1.654-3.202C48.028,15.215,46.969,14.829,45.865,14.829z"/>
	<path fill="#009FE3" d="M17.065,55.038c-0.02,0-0.04,0-0.061,0l-1.993-0.023c-1.863-0.02-3.413-1.433-3.604-3.287l-0.046-0.445
		c-0.301-0.119-0.599-0.25-0.893-0.392l-0.315,0.244c-1.467,1.14-3.561,0.988-4.862-0.333l-1.402-1.436
		c-1.296-1.324-1.393-3.416-0.226-4.862l0.267-0.333c-0.117-0.264-0.226-0.53-0.326-0.8l-0.412-0.053
		C1.349,43.085-0.028,41.504,0,39.636l0.025-1.996c0.015-1.858,1.426-3.409,3.281-3.604l0.285-0.03
		c0.125-0.343,0.265-0.682,0.42-1.015l-0.193-0.25c-1.138-1.469-0.995-3.557,0.334-4.862l1.441-1.407
		c1.323-1.301,3.414-1.397,4.865-0.224l0.137,0.109c0.405-0.188,0.819-0.359,1.24-0.504l0.02-0.158
		c0.232-1.848,1.728-3.149,3.686-3.192l1.993,0.023c1.859,0.013,3.413,1.426,3.604,3.287l0.015,0.155
		c0.392,0.148,0.777,0.316,1.156,0.501l0.086-0.066c1.467-1.133,3.556-0.985,4.859,0.336l1.402,1.436
		c1.296,1.324,1.393,3.416,0.226,4.862l-0.122,0.152c0.143,0.329,0.277,0.669,0.394,1.008l0.201,0.026
		c1.843,0.234,3.22,1.815,3.192,3.683l-0.025,1.996c-0.015,1.861-1.428,3.413-3.287,3.6l-0.231,0.026
		c-0.135,0.352-0.285,0.698-0.451,1.041l0.178,0.227c1.135,1.472,0.991,3.564-0.336,4.865l-1.433,1.4
		c-1.331,1.291-3.422,1.393-4.865,0.224l-0.272-0.217c-0.357,0.155-0.721,0.3-1.089,0.425l-0.044,0.349
		C20.459,53.675,18.906,55.038,17.065,55.038z M10.175,46.859l0.983,0.58c0.713,0.422,1.469,0.751,2.245,0.982l1.084,0.32
		l0.275,2.642c0.016,0.148,0.138,0.26,0.285,0.26l2.004,0.023c0.128-0.082,0.273-0.102,0.292-0.247l0.329-2.589l1.122-0.277
		c0.843-0.208,1.667-0.53,2.447-0.955l0.99-0.537l1.983,1.604c0.117,0.096,0.278,0.089,0.39-0.016l1.428-1.397
		c0.11-0.109,0.12-0.27,0.025-0.392l-1.55-2.009l0.593-0.988c0.448-0.744,0.792-1.538,1.026-2.362l0.311-1.1l2.451-0.25
		c0.147-0.016,0.257-0.135,0.259-0.28l0.025-2.009c0.002-0.148-0.104-0.273-0.249-0.29L26.5,37.254l-0.282-1.11
		c-0.212-0.833-0.525-1.631-0.931-2.375l-0.542-0.995l1.514-1.858c0.091-0.115,0.087-0.277-0.016-0.382l-1.4-1.433
		C24.74,29,24.578,28.99,24.451,29.076l-1.873,1.439l-0.985-0.596c-0.779-0.468-1.607-0.827-2.462-1.067l-1.107-0.31l-0.244-2.385
		c-0.015-0.142-0.137-0.257-0.278-0.257l-2.009-0.023c-0.132-0.053-0.273,0.102-0.292,0.247l-0.308,2.375l-1.107,0.283
		c-0.891,0.227-1.751,0.58-2.554,1.044l-1.01,0.583l-1.891-1.542c-0.114-0.099-0.273-0.092-0.379,0.016l-1.441,1.407
		c-0.107,0.105-0.119,0.267-0.028,0.385l1.533,1.983l-0.55,0.975c-0.435,0.767-0.759,1.561-0.968,2.362l-0.296,1.133l-2.545,0.26
		c-0.148,0.016-0.259,0.138-0.26,0.283l-0.025,2.009c-0.002,0.148,0.107,0.273,0.249,0.29l2.592,0.336l0.296,1.084
		c0.208,0.761,0.506,1.492,0.888,2.174l0.557,0.998l-1.667,2.059c-0.094,0.119-0.091,0.28,0.013,0.385l1.4,1.433
		c0.105,0.109,0.268,0.119,0.392,0.026L10.175,46.859z M16.327,45.548c-0.023,0-0.048,0-0.072,0
		c-3.796-0.043-6.851-3.172-6.81-6.977c0.043-3.768,3.129-6.805,6.894-6.805c0.026,0,0.053,0,0.079,0l0,0
		c1.835,0.02,3.554,0.754,4.84,2.069c1.29,1.318,1.99,3.06,1.968,4.905C23.185,42.508,20.097,45.548,16.327,45.548z M16.338,35.14
		c-1.924,0-3.5,1.548-3.521,3.472c-0.021,1.943,1.538,3.541,3.475,3.564c1.863,0.092,3.539-1.542,3.561-3.475
		c0.012-0.942-0.346-1.831-1.006-2.507c-0.655-0.669-1.532-1.044-2.466-1.054H16.38C16.366,35.14,16.353,35.14,16.338,35.14z"/>
</g>
</svg>
