<?xml version="1.0" encoding="utf-8"?>
<!-- Generator: Adobe Illustrator 24.0.2, SVG Export Plug-In . SVG Version: 6.00 Build 0)  -->
<svg version="1.1" id="Слой_1" xmlns="http://www.w3.org/2000/svg" xmlns:xlink="http://www.w3.org/1999/xlink" x="0px" y="0px"
	 width="61.826px" height="67px" viewBox="0 0 61.826 67" enable-background="new 0 0 61.826 67" xml:space="preserve">
<path fill="#009FE3" d="M61.754,40.751l-0.226-0.122l-0.002-0.085l-0.104,0.028l-0.14-0.075c-0.121-0.065-1.137-0.585-2.606-0.683
	v-1.182v-1.269v-7.452l-0.241,0.039c0.028-2.88,0.128-12.826,0.166-13.823c0.032-0.74-0.269-1.181-0.523-1.418
	c-0.474-0.446-1.088-0.497-1.337-0.476l-1.772-0.125c-0.001-5.826,0-10.639,0.004-11.252c0.016-1.946-0.894-2.264-1.146-2.308
	c-0.062-0.014-1.191-0.267-2.041-0.484c-0.873-0.223-2.422,0.176-3.543,0.488l-0.468,0.128c-0.605,0.154-0.912,0.489-1.062,0.743
	c-0.222,0.375-0.235,0.796-0.186,1.018l-0.24,40.418l-1.896-0.47l-0.26-0.055l-0.239,0.075c-0.701,0.218-1.963,0.616-2.538,0.842
	c-0.962,0.378-1.129,1.332-1.082,1.851l0,1.439l-8.198,1.991c-2.02-0.44-4.398-0.729-7.162-0.729c-1.011,0-2.056,0.039-3.107,0.118
	c-10.622,0.788-18.439,3.292-20.908,6.697c-0.603,0.83-0.903,1.722-0.893,2.655c-0.013,0.426-0.067,3.291,0.724,4.465
	c2.522,3.743,8.281,4.628,13.018,4.982l0.262,0.024c0.135,0.013,1.262,0.108,1.393,0.115l2.507,0.126
	C18.318,66.995,18.737,67,19.168,67c8.618,0,21.586-2.155,23.234-8.297c0.198-0.741,0.156-2.368,0.108-3.33l9.169-2.703
	c0.867,0.277,4.028,1.272,5.571,1.712c0.445,0.127,0.862,0.192,1.24,0.192c0.813,0,1.323-0.291,1.621-0.558
	c1.035-0.187,1.608-0.62,1.705-1.289l0.009-11.401L61.754,40.751z M56.64,29.648l-1.393-0.139l0-1.88h1.413
	C56.653,28.422,56.646,29.123,56.64,29.648z M56.878,32.016v5.117l-0.787,0.143V32.14L56.878,32.016z M54.488,39.194l0.384,0.065
	l-0.28,11.466c-0.1-0.039-0.196-0.077-0.297-0.117L54.488,39.194z M56.666,16.029l0.073,0.002l0.043-0.001
	c0.006,0,0.015,0,0.024,0.001c0,0.007,0,0.014,0,0.023c-0.008,0.211-0.019,0.819-0.031,1.655h-1.53l0-1.778L56.666,16.029z
	 M53.32,32.124l0.7,0.071v5.097l-0.736-0.126L53.32,32.124z M53.127,2.233c0.025,0.113,0.052,0.306,0.05,0.61
	c-0.008,1.165-0.003,17.302,0,26.944v0.251l-1.454,0.226V1.901C52.23,2.026,52.779,2.154,53.127,2.233z M48.326,2.395
	c0.122-0.032,0.264-0.072,0.441-0.121c0.333-0.093,0.747-0.207,1.158-0.302v47.103l-1.872-0.541L48.326,2.395z M44.203,44.195
	l2.075,0.513l-0.02,3.307l-4.187-1.208l0-1.756l-0.006-0.097c-0.001-0.018,0-0.04-0.01-0.047
	C42.427,44.763,43.193,44.51,44.203,44.195z M3.65,57.417L3.7,56.605H3.688c0.075-0.308,0.22-0.61,0.438-0.91
	c1.899-2.618,8.857-4.736,17.728-5.394c0.91-0.068,1.816-0.102,2.691-0.102c5.736,0,9.484,1.435,11.616,2.638
	c0.692,0.39,2.295,1.428,2.252,2.621c-0.04,1.096-1.258,2.803-4.561,4.006c-3.674,1.338-8.504,2.112-13.589,2.179
	c-8.41,0-15.992-1.8-16.558-3.931C3.679,57.613,3.662,57.515,3.65,57.417z M17.987,65.188l-3.47-0.206
	c-0.111-0.007-0.222-0.018-0.334-0.028l-0.303-0.027c-4.302-0.321-9.5-1.082-11.618-4.132c4.085,2.509,12.876,3.247,17.933,3.247
	c5.825-0.077,11.371-0.971,15.615-2.516c2.025-0.737,3.631-1.722,4.704-2.844C38.534,63.463,26.065,65.39,17.987,65.188z
	 M41.632,53.758c-0.677-1.321-2.064-2.279-3.001-2.809c-0.823-0.464-1.845-0.958-3.08-1.412l5.313-1.29l0.339,0.167l9.352,2.714
	L41.632,53.758z M51.695,49.587h0.027V38.725l0.973,0.165l-0.186,11.014c-0.308-0.119-0.588-0.226-0.809-0.304l0.004-0.011
	L51.695,49.587z M51.901,51.798l0.032-0.19c0.008,0.004,0.017,0.007,0.026,0.01L51.901,51.798z M58.784,52.061
	C58.783,52.061,58.783,52.061,58.784,52.061l-0.09,0.002c-0.796,0-1.331-0.201-1.635-0.365l0.133-8.942
	c0.673,0.151,1.59,0.21,2.564,0.064l0.001,9.164C59.556,52.019,59.247,52.053,58.784,52.061z"/>
</svg>
