<?xml version="1.0" encoding="utf-8"?>
<!-- Generator: Adobe Illustrator 24.0.2, SVG Export Plug-In . SVG Version: 6.00 Build 0)  -->
<svg version="1.1" id="Слой_1" xmlns="http://www.w3.org/2000/svg" xmlns:xlink="http://www.w3.org/1999/xlink" x="0px" y="0px"
	 width="67px" height="67px" viewBox="0 0 67 67" enable-background="new 0 0 67 67" xml:space="preserve">
<path fill="#009FE3" d="M46.468,0C35.146,0,25.935,9.21,25.935,20.532v0.293c0,1.519,0.179,3.033,0.513,4.515
	c-2.004,1.737-3.376,4.19-3.686,6.939c-0.079,0.709-0.09,1.428-0.029,2.138c0.089,1.046-0.291,2.036-1.042,2.717L2.321,54.69
	C0.846,56.028,0,57.938,0,59.929C0,63.828,3.173,67,7.071,67c1.993,0,3.901-0.846,5.24-2.322l17.557-19.368
	c0.681-0.751,1.671-1.136,2.717-1.042c0.702,0.059,1.422,0.051,2.135-0.03c0.939-0.106,1.842-0.336,2.696-0.671l2.242,3.165
	c-3.164,1.392-5.078,3.693-5.078,6.22c0,4.242,5.222,7.565,11.887,7.565s11.887-3.323,11.887-7.565c0-2.528-1.913-4.828-5.076-6.219
	l9.944-14.039C65.693,29.204,67,25.1,67,20.825v-0.293C67,9.21,57.79,0,46.468,0L46.468,0z M34.478,42.09
	c-0.572,0.065-1.147,0.072-1.711,0.024c-1.715-0.14-3.363,0.488-4.502,1.744L10.708,63.226c-0.928,1.024-2.254,1.612-3.637,1.612
	c-2.707,0-4.909-2.202-4.909-4.909c0-1.383,0.588-2.708,1.612-3.637l19.369-17.558c1.255-1.138,1.89-2.778,1.742-4.501
	c-0.048-0.568-0.039-1.144,0.025-1.713c0.446-3.963,3.646-7.163,7.61-7.61c0.327-0.037,0.656-0.055,0.982-0.055
	c0.203,0,0.407,0.008,0.609,0.022l-5.027,5.026l1.336,6.676l6.677,1.336l5.026-5.026c0.038,0.53,0.026,1.062-0.033,1.596
	C41.64,38.446,38.439,41.645,34.478,42.09L34.478,42.09z M35.953,26.212l2.796-2.128l-1.625-0.492
	c-0.635-0.193-1.282-0.318-1.934-0.383v-4.344l1.982-0.495l0.544-0.206l0.472-1.161l-1.318-2.193l3.192-3.191l2.195,1.318
	l1.24-0.511l0.621-2.487h4.512l0.621,2.487l1.24,0.511l2.195-1.318l3.192,3.191l-1.318,2.194l0.504,1.24l2.493,0.622v4.512
	l-1.982,0.495l-0.543,0.205l-0.473,1.161l1.318,2.196l-3.192,3.191l-2.195-1.318l-1.24,0.511l-0.621,2.486h-4.344
	c-0.066-0.652-0.19-1.297-0.382-1.933l-0.492-1.626l-2.614,2.614l-0.313,0.314l-3.595,3.594l-3.885-0.778l-0.777-3.886l2.871-3.432
	L35.953,26.212z M54.434,53.042c0,2.399-3.648,4.426-7.966,4.426s-7.966-2.027-7.966-4.426c0-1.403,1.336-2.774,3.44-3.608
	l2.407,3.397c0.485,0.686,1.278,1.096,2.119,1.096c0.841,0,1.634-0.41,2.12-1.096l2.407-3.397
	C53.098,50.268,54.434,51.639,54.434,53.042L54.434,53.042z M63.349,21.326c0,3.515-1.073,6.889-3.106,9.757L47.224,49.463
	c-0.346,0.49-1.168,0.491-1.512,0l-5.783-8.165c2.432-1.584,4.15-4.195,4.49-7.195c0.005-0.045,0.004-0.09,0.009-0.135h5.796
	l0.599-2.399l2.121,1.272l5.309-5.31l-1.271-2.12l2.395-0.599v-7.509l-2.399-0.599l1.272-2.119l-5.308-5.311l-2.121,1.272
	l-0.599-2.398h-7.509l-0.599,2.399l-2.121-1.273l-5.309,5.31l1.272,2.119l-2.398,0.6v5.796c-0.044,0.004-0.086,0.003-0.13,0.008
	c-1.281,0.144-2.488,0.546-3.58,1.141c-0.17-0.964-0.262-1.941-0.262-2.921v-0.269c0-9.308,7.573-16.881,16.881-16.881
	s16.881,7.573,16.881,16.881L63.349,21.326z M7.565,61.565c-1.176,0-2.13-0.956-2.13-2.13c0-1.173,0.954-2.13,2.13-2.13
	s2.13,0.956,2.13,2.13C9.694,60.609,8.74,61.565,7.565,61.565z M46.468,28.097c4.17,0,7.565-3.393,7.565-7.565
	s-3.394-7.565-7.565-7.565s-7.565,3.393-7.565,7.565S42.298,28.097,46.468,28.097z M46.468,15.129c2.979,0,5.403,2.424,5.403,5.403
	s-2.424,5.403-5.403,5.403c-2.979,0-5.403-2.424-5.403-5.403S43.488,15.129,46.468,15.129z"/>
</svg>
