<?xml version="1.0" encoding="utf-8"?>
<!-- Generator: Adobe Illustrator 24.0.2, SVG Export Plug-In . SVG Version: 6.00 Build 0)  -->
<svg version="1.1" id="Слой_1" xmlns="http://www.w3.org/2000/svg" xmlns:xlink="http://www.w3.org/1999/xlink" x="0px" y="0px"
	 width="63.64px" height="44.539px" viewBox="0 0 63.64 44.539" enable-background="new 0 0 63.64 44.539" xml:space="preserve">
<path fill="#009FE3" d="M63.64,37.211H46.322V21.27h-4.594L41.628,0l-3.826,0.009v20.788l-5.18-17.413
	c-0.433-1.456-1.798-2.472-3.317-2.472H12.26c-2.135,0-3.92,1.602-4.15,3.725L6.608,18.542H5.034C2.258,18.542,0,20.8,0,23.576
	v10.375c0,0.865,0.543,1.6,1.317,1.92c-0.033,0.289-0.053,0.581-0.053,0.879c0,4.294,3.495,7.789,7.79,7.789
	c2.711,0,5.101-1.394,6.496-3.501h11.9c1.396,2.107,3.785,3.501,6.496,3.501s5.101-1.394,6.496-3.501H63.64V37.211z M33.333,20.202
	h0.3l2.244,7.543c-1.163-0.249-2.381-0.272-3.591-0.061c-0.6,0.106-1.183,0.273-1.742,0.496L33.333,20.202z M11.914,5.049
	c0.019-0.178,0.168-0.311,0.346-0.311h16.772l3.462,11.638h-1.877l-3.408,9.746h-3.952l-4.288-7.58h-8.514L11.914,5.049z
	 M9.053,40.713c-2.186,0-3.964-1.777-3.964-3.963c0-2.186,1.778-3.964,3.964-3.964s3.964,1.779,3.964,3.964
	C13.017,38.935,11.239,40.713,9.053,40.713z M24.748,37.211h-6.493c0.04-0.78-0.022-1.564-0.187-2.348
	c-0.804-3.824-3.926-6.736-7.768-7.245c-2.343-0.304-4.633,0.285-6.473,1.551v-5.593c0-0.666,0.542-1.208,1.208-1.208h11.704
	l4.288,7.58h6.707c-1.201,1.101-2.117,2.521-2.6,4.126C24.824,35.104,24.696,36.161,24.748,37.211z M33.946,40.713
	c-2.186,0-3.964-1.777-3.964-3.963c0-2.186,1.778-3.964,3.964-3.964s3.964,1.779,3.964,3.964
	C37.91,38.935,36.132,40.713,33.946,40.713z M42.495,33.312c-0.51-1.269-1.303-2.421-2.336-3.364h1.468v-4.851h0.867V33.312z"/>
</svg>
