<?xml version="1.0" encoding="utf-8"?>
<!-- Generator: Adobe Illustrator 24.0.2, SVG Export Plug-In . SVG Version: 6.00 Build 0)  -->
<svg version="1.1" id="Слой_1" xmlns="http://www.w3.org/2000/svg" xmlns:xlink="http://www.w3.org/1999/xlink" x="0px" y="0px"
	 width="140px" height="70px" viewBox="0 0 140 70" style="enable-background:new 0 0 140 70;" xml:space="preserve">
<style type="text/css">
	.st0{fill:#0070BA;}
</style>
<path class="st0" d="M136.8,1.3l-24.1,9.2L99.1,0l-3.5,1.3c-0.1-0.1-0.2-0.1-0.3-0.2c-1-0.4-2.1-0.5-3.1-0.1L52.9,16.2H36.3
	c-4.4,0-8,3.4-8.2,7.8L28,25.7l-14.1,5.4h-5c-4.6,0-8.3,3.7-8.3,8.3v17.3h4.8c0.9,7.3,7.1,13,14.7,13s13.8-5.7,14.7-13h36.1
	c0.9,7.3,7.1,13,14.7,13c8.1,0,14.8-6.6,14.8-14.8c0-7-4.9-12.9-11.5-14.4l0.7-2.5L78,33.8l-17.1-2.3L60.5,30l37.3-14.3
	c1-0.4,1.8-1.1,2.2-2.1c0-0.1,0.1-0.2,0.1-0.3L101,13l6.5,4.5l1,2.7l31-11.8L136.8,1.3z M20,64c-4.9,0-8.9-4-8.9-8.9s4-8.9,8.9-8.9
	s8.9,4,8.9,8.9S24.9,64,20,64z M94.3,55.1c0,4.9-4,8.9-8.9,8.9s-8.9-4-8.9-8.9s4-8.9,8.9-8.9S94.3,50.2,94.3,55.1z M93.4,9.5
	l0.5,1.3L53.6,26.4l2.6,10.4l20,2.6l1.1,0.4c-4.3,2.3-7.5,6.3-8.7,11.1H36.8C34.9,43.4,28,37.7,20,37.7c-5.5,0-10.4,2.6-13.6,6.7
	v-4.9c0-1.3,1.1-2.4,2.4-2.4h6.1l18.7-7.2l0.3-5.6C34,23,35,22,36.3,22h16.6l0.9,0.1L92.6,7.2l0.5,1.3l5.1-1.9l1,0.7L93.4,9.5z"/>
</svg>
