<?xml version="1.0" encoding="utf-8"?>
<!-- Generator: Adobe Illustrator 24.0.2, SVG Export Plug-In . SVG Version: 6.00 Build 0)  -->
<svg version="1.1" id="Слой_1" xmlns="http://www.w3.org/2000/svg" xmlns:xlink="http://www.w3.org/1999/xlink" x="0px" y="0px"
	 width="85.482px" height="40.303px" viewBox="0 0 85.482 40.303" enable-background="new 0 0 85.482 40.303" xml:space="preserve">
<path fill="#009FE3" d="M84.357,7.425c-2.435-4.751-7.274-4.219-7.476-4.187l-0.186,0.034c-0.289,0.071-0.709,0.174-1.187,0.292
	C73.003,0.067,68.93,0,68.684,0c-0.002,0-0.003,0-0.005,0l-0.377,0.047C61.756,1.657,4.289,15.793,2.691,16.306
	c-2.096,0.674-2.575,3.265-2.347,5.279l0.096-0.011c-0.18,0.318-0.334,0.737-0.405,1.325c-0.169,1.402,0.304,3.452,0.674,4.873
	c0.224,0.863,0.752,2.418,1.153,3.271c0.383,0.813,0.864,1.581,1.128,1.897c0.332,0.39,0.666,0.648,0.998,0.801l-0.142,0.088
	c0.084,0.134,0.843,1.346,1.659,2.188c0.895,0.925,1.86,1.075,2.386,1.075c0.086,0,0.16-0.005,0.22-0.009
	c0.193-0.015,0.234-0.024,3.319-0.868c0.315,0.362,0.633,0.608,0.95,0.754l-0.142,0.088c0.084,0.134,0.842,1.344,1.659,2.188
	c0.752,0.778,1.624,1.06,2.376,1.06c0.252,0,0.492-0.033,0.709-0.088l65.066-22.022l0.27-0.092l0.222-0.178
	C84.889,16.027,86.773,12.141,84.357,7.425z M68.849,3.208c0.465,0.033,1.869,0.232,3.11,1.229
	C56.465,8.25,12.477,19.084,11.082,19.531c-2.096,0.674-2.575,3.265-2.347,5.279l0.097-0.011c-0.046,0.082-0.091,0.164-0.133,0.262
	c-0.319-1.187-0.756-2.176-1.515-3.862L6.92,20.611c-0.344-0.767-0.687-1.364-1.02-1.836C15.486,16.347,53.091,7.084,68.849,3.208z
	 M16.198,37.018c-0.18-0.186-0.366-0.419-0.545-0.654c0.097-0.032,0.175-0.059,0.207-0.069l0.183-0.061l0.134-0.138
	c0.029-0.03,0.089-0.1,0.16-0.207c-0.018,0.481-0.059,0.858-0.117,1.15C16.213,37.032,16.207,37.028,16.198,37.018z M7.805,33.791
	c-0.179-0.185-0.366-0.419-0.544-0.654c0.097-0.033,0.176-0.059,0.208-0.07l0.182-0.061l0.134-0.136
	c0.029-0.03,0.089-0.101,0.161-0.208c-0.018,0.482-0.06,0.859-0.117,1.151C7.821,33.805,7.815,33.801,7.805,33.791z M1.975,23.969
	c0.336,0.502,0.846,1.636,1.553,4.176c0.252,0.905,0.327,1.905,0.29,2.688c-0.206-0.325-0.538-1.052-0.71-1.494
	c-0.073-0.194-0.811-2.4-0.942-3.035C2.05,25.741,1.955,24.685,1.975,23.969z M5.036,27.598c-0.655-2.353-1.414-4.621-2.529-5.331
	c-0.055-0.045-0.12-0.086-0.186-0.125L3.9,21.774c0.559,0.348,1.521,2.032,2.257,4.441c0.42,1.38,0.647,2.869,0.674,4.426
	c0.01,0.528-0.082,0.849-0.141,1.002c-0.487,0.162-1.071,0.354-1.498,0.493c0.073-0.148,0.136-0.318,0.168-0.541
	C5.522,30.481,5.406,28.923,5.036,27.598z M3.665,19.355c0.072-0.022,0.274-0.076,0.538-0.145c0.293,0.312,0.657,0.832,1.065,1.666
	c-0.345-0.352-0.715-0.615-1.115-0.714l-0.187-0.047L3.52,20.218C3.551,19.802,3.61,19.445,3.665,19.355z M11.499,32.566
	c-0.073-0.194-0.812-2.402-0.942-3.035c-0.116-0.563-0.211-1.621-0.191-2.336c0.335,0.5,0.845,1.635,1.554,4.177
	c0.251,0.905,0.327,1.905,0.289,2.688C12.003,33.733,11.667,33.002,11.499,32.566z M9.56,32.484c0.098,0.287,0.2,0.566,0.304,0.84
	c-0.117,0.032-0.235,0.064-0.361,0.098C9.533,33.133,9.553,32.823,9.56,32.484z M13.427,30.822
	c-0.655-2.353-1.415-4.619-2.529-5.327c-0.055-0.045-0.12-0.086-0.186-0.125l1.579-0.369c0.559,0.348,1.521,2.032,2.257,4.441
	c0.419,1.375,0.646,2.865,0.674,4.423c0.009,0.53-0.083,0.85-0.143,1.005c-0.486,0.161-1.07,0.353-1.497,0.492
	c0.073-0.148,0.136-0.318,0.169-0.54C13.913,33.707,13.797,32.149,13.427,30.822z M13.66,24.101
	c-0.345-0.352-0.715-0.615-1.115-0.713l-0.187-0.047l-0.447,0.105c0.03-0.418,0.089-0.774,0.144-0.866
	c0.072-0.022,0.275-0.076,0.539-0.145C12.887,22.747,13.251,23.267,13.66,24.101z M80.732,15.26l-62.83,21.271
	c0.108-1.192,0.036-2.763-0.215-4.846c-0.427-3.516-0.784-4.31-2.113-7.264l-0.263-0.583c-0.344-0.767-0.687-1.365-1.02-1.838
	C23.9,19.569,61.645,10.27,77.343,6.409c0.449-0.031,2.867-0.058,4.165,2.475C82.977,11.75,82.103,14.019,80.732,15.26z"/>
</svg>
