<?xml version="1.0" encoding="utf-8"?>
<!-- Generator: Adobe Illustrator 24.0.2, SVG Export Plug-In . SVG Version: 6.00 Build 0)  -->
<svg version="1.1" id="Слой_1" xmlns="http://www.w3.org/2000/svg" xmlns:xlink="http://www.w3.org/1999/xlink" x="0px" y="0px"
	 width="140px" height="70px" viewBox="0 0 140 70" enable-background="new 0 0 140 70" xml:space="preserve">
<path fill="#009FE3" d="M138.158,16.152c-3.988-7.781-11.913-6.91-12.244-6.857l-0.305,0.056c-0.473,0.116-1.162,0.286-1.945,0.478
	c-4.101-5.727-10.772-5.838-11.175-5.838c-0.003,0-0.005,0-0.008,0l-0.617,0.077C101.142,6.706,7.024,29.858,4.407,30.698
	c-3.432,1.103-4.217,5.347-3.844,8.646l0.158-0.018c-0.294,0.521-0.547,1.207-0.663,2.17c-0.276,2.296,0.498,5.654,1.103,7.98
	c0.367,1.413,1.232,3.959,1.889,5.357c0.627,1.331,1.415,2.59,1.848,3.107c0.544,0.639,1.09,1.061,1.635,1.312L6.3,59.396
	c0.137,0.22,1.381,2.204,2.717,3.583c1.467,1.515,3.047,1.761,3.907,1.761c0.141,0,0.262-0.008,0.361-0.015
	c0.316-0.025,0.384-0.039,5.437-1.422c0.517,0.594,1.036,0.996,1.555,1.234l-0.233,0.144c0.137,0.22,1.378,2.201,2.717,3.583
	C23.993,69.539,25.42,70,26.653,70c0.413,0,0.806-0.054,1.162-0.143l106.564-36.067l0.442-0.151l0.363-0.292
	C139.029,30.242,142.115,23.877,138.158,16.152z M112.759,9.247c0.762,0.054,3.06,0.381,5.094,2.013
	C92.477,17.504,20.435,35.247,18.15,35.98c-3.432,1.103-4.217,5.347-3.844,8.646l0.159-0.018c-0.076,0.134-0.149,0.269-0.217,0.429
	c-0.522-1.945-1.238-3.564-2.481-6.326l-0.434-0.962c-0.563-1.256-1.125-2.234-1.67-3.008
	C25.363,30.766,86.951,15.594,112.759,9.247z M26.529,64.62c-0.295-0.305-0.6-0.687-0.892-1.072
	c0.159-0.053,0.287-0.096,0.339-0.113l0.299-0.1l0.22-0.225c0.048-0.048,0.146-0.163,0.263-0.338
	c-0.029,0.788-0.097,1.405-0.191,1.884C26.553,64.643,26.543,64.636,26.529,64.62z M12.783,59.335
	c-0.294-0.304-0.599-0.686-0.891-1.071c0.159-0.053,0.289-0.096,0.341-0.114l0.298-0.1l0.22-0.223
	c0.048-0.049,0.147-0.165,0.264-0.341c-0.029,0.789-0.098,1.406-0.191,1.885C12.809,59.358,12.799,59.351,12.783,59.335z
	 M3.234,43.249c0.55,0.822,1.386,2.68,2.544,6.839c0.412,1.482,0.536,3.12,0.475,4.402c-0.338-0.532-0.882-1.722-1.163-2.447
	c-0.12-0.317-1.328-3.931-1.542-4.97C3.358,46.151,3.202,44.421,3.234,43.249z M8.248,49.192c-1.072-3.854-2.316-7.568-4.142-8.73
	c-0.091-0.074-0.196-0.141-0.305-0.205l2.586-0.604c0.916,0.571,2.492,3.327,3.696,7.274c0.688,2.26,1.06,4.699,1.104,7.248
	c0.017,0.865-0.134,1.39-0.232,1.641c-0.797,0.266-1.755,0.579-2.454,0.807c0.12-0.243,0.223-0.521,0.275-0.886
	C9.044,53.914,8.853,51.362,8.248,49.192z M6.003,35.691c0.119-0.037,0.449-0.125,0.881-0.238c0.48,0.511,1.075,1.363,1.744,2.728
	c-0.565-0.577-1.172-1.007-1.827-1.169l-0.306-0.077l-0.73,0.171C5.816,36.423,5.912,35.84,6.003,35.691z M18.834,57.328
	c-0.12-0.317-1.33-3.934-1.543-4.97c-0.189-0.921-0.346-2.654-0.314-3.826c0.549,0.819,1.385,2.677,2.545,6.841
	c0.411,1.482,0.535,3.12,0.473,4.402C19.659,59.24,19.107,58.042,18.834,57.328z M15.658,57.194c0.16,0.469,0.327,0.927,0.498,1.376
	c-0.192,0.053-0.385,0.105-0.591,0.161C15.613,58.257,15.646,57.75,15.658,57.194z M21.991,54.472
	c-1.072-3.854-2.318-7.566-4.141-8.725c-0.091-0.074-0.197-0.141-0.305-0.205l2.587-0.604c0.915,0.571,2.49,3.327,3.696,7.274
	c0.686,2.252,1.058,4.691,1.104,7.243c0.015,0.868-0.136,1.392-0.234,1.646c-0.796,0.264-1.753,0.578-2.452,0.805
	c0.12-0.242,0.223-0.521,0.276-0.885C22.787,59.197,22.596,56.645,21.991,54.472z M22.372,43.465
	c-0.565-0.576-1.171-1.007-1.826-1.168L20.24,42.22l-0.732,0.171c0.049-0.684,0.146-1.268,0.235-1.418
	c0.118-0.036,0.45-0.125,0.883-0.238C21.106,41.247,21.703,42.099,22.372,43.465z M132.221,28.985L29.32,63.822
	c0.176-1.952,0.059-4.526-0.352-7.937c-0.699-5.759-1.284-7.059-3.46-11.896l-0.43-0.955c-0.563-1.257-1.126-2.235-1.671-3.01
	c15.736-3.982,77.555-19.212,103.265-25.535c0.736-0.051,4.695-0.095,6.821,4.054C135.898,23.237,134.466,26.953,132.221,28.985z"/>
</svg>
