<?xml version="1.0" encoding="utf-8"?>
<!-- Generator: Adobe Illustrator 22.0.1, SVG Export Plug-In . SVG Version: 6.00 Build 0)  -->
<svg version="1.1" id="Слой_1" xmlns="http://www.w3.org/2000/svg" xmlns:xlink="http://www.w3.org/1999/xlink" x="0px" y="0px"
	 width="176.263px" height="149.304px" viewBox="0 0 176.263 149.304" style="enable-background:new 0 0 176.263 149.304;"
	 xml:space="preserve">
<style type="text/css">
	.st0{fill:#1D1D1B;}
	.st1{fill:#AFCA0B;}
</style>
<g>
	<path class="st0" d="M74.311,53.261h5.01v2.163c0,3.006,2.479,5.432,5.431,5.432c3.006,0,5.379-2.426,5.379-5.432v-0.316
		c0-1.424-0.527-2.69-1.53-3.692l-10.283-10.6c-2.426-2.056-3.639-4.64-3.639-7.752c0-2.9,0.949-5.326,2.9-7.382
		c1.951-2.057,4.377-3.059,7.172-3.059c2.795,0,5.168,1.002,7.12,3.059c1.951,2.056,2.953,4.482,2.953,7.382v1.847h-5.01v-2.163
		c0-3.006-2.267-5.432-5.063-5.432c-2.795,0-5.063,2.426-5.063,5.432v0.316c0,1.53,0.527,2.743,1.635,3.745l10.283,10.6
		c2.373,2.003,3.533,4.587,3.533,7.699c0,2.9-1.002,5.326-3.058,7.382c-2.004,2.057-4.43,3.059-7.33,3.059
		c-2.9,0-5.326-1.002-7.383-3.059c-2.056-2.056-3.058-4.482-3.058-7.382V53.261z"/>
	<path class="st0" d="M100.416,33.064c0-2.9,1.001-5.326,3.058-7.382c2.056-2.057,4.482-3.059,7.383-3.059
		c2.9,0,5.326,1.002,7.33,3.059c2.056,2.056,3.058,4.482,3.058,7.382v22.044c0,2.9-1.002,5.326-3.058,7.382
		c-2.004,2.057-4.43,3.059-7.33,3.059c-2.9,0-5.326-1.002-7.383-3.006c-2.057-2.057-3.058-4.534-3.058-7.435V33.064z
		 M105.426,55.424c0,3.006,2.426,5.432,5.431,5.432c2.953,0,5.379-2.426,5.379-5.432V32.748c0-3.006-2.426-5.432-5.379-5.432
		c-3.006,0-5.431,2.426-5.431,5.432V55.424z"/>
	<path class="st0" d="M126.785,65.181V22.992h5.01v32.327c0,0,4.16-5.404,5.607-7.245c0.621-0.789,1.637-0.804,2.267,0.02
		c1.404,1.835,5.573,7.172,5.573,7.172V22.992h5.01v42.189h-5.01l-6.697-11.444l-6.75,11.444H126.785z"/>
	<path class="st0" d="M153.106,113.447V71.258h5.01v32.327c0,0,4.16-5.404,5.607-7.245c0.621-0.789,1.637-0.804,2.267,0.02
		c1.404,1.835,5.573,7.172,5.573,7.172V71.258h5.01v42.189h-5.01l-6.697-11.444l-6.75,11.444H153.106z"/>
	<path class="st0" d="M79.009,103.69c0,3.006,2.426,5.432,5.431,5.432c2.953,0,5.379-2.426,5.379-5.432v-2.426H84.44v-4.64h10.389
		v6.75c0,2.9-1.002,5.326-3.058,7.383c-2.004,2.056-4.43,3.058-7.33,3.058c-2.9,0-5.326-1.002-7.383-3.006
		c-2.057-2.056-3.058-4.534-3.058-7.435V81.332c0-2.9,1.001-5.326,3.058-7.383c2.056-2.057,4.482-3.059,7.383-3.059
		c2.9,0,5.326,1.002,7.33,3.059c2.056,2.057,3.058,4.483,3.058,7.383v1.845h-5.01v-2.163c0-3.006-2.426-5.431-5.379-5.431
		c-3.006,0-5.431,2.425-5.431,5.431V103.69z"/>
	<path class="st0" d="M105.378,113.447h-5.01V71.258h10.441c2.9,0,5.326,1.002,7.33,3.059c2.056,2.004,3.058,4.43,3.058,7.33v9.229
		c0,3.375-1.266,6.064-3.85,8.121c2.584,2.11,3.85,4.799,3.85,8.015v6.434h-5.01v-6.75c0-1.424-0.527-2.637-1.53-3.691
		c-1.002-1.108-2.214-1.688-3.639-1.741h-5.642V113.447z M105.378,75.952v20.672h5.642c2.9-0.159,5.168-2.479,5.168-5.432v-9.861
		c0-2.953-2.426-5.379-5.379-5.379H105.378z"/>
	<path class="st0" d="M126.737,81.332c0-2.9,1.001-5.326,3.058-7.383c2.056-2.057,4.482-3.059,7.383-3.059
		c2.9,0,5.326,1.002,7.33,3.059c2.056,2.057,3.058,4.483,3.058,7.383v22.043c0,2.9-1.002,5.326-3.058,7.383
		c-2.004,2.056-4.43,3.058-7.33,3.058c-2.9,0-5.326-1.002-7.383-3.006c-2.057-2.056-3.058-4.534-3.058-7.435V81.332z
		 M131.746,103.69c0,3.006,2.426,5.432,5.431,5.432c2.953,0,5.379-2.426,5.379-5.432V81.014c0-3.006-2.426-5.431-5.379-5.431
		c-3.006,0-5.431,2.425-5.431,5.431V103.69z"/>
	<g>
		<g>
			<path class="st0" d="M29.744,59.161C21.103,47.67,12.855,36.703,7.88,30.089V30.08c0,0-3.98-5.293-4.384-5.829
				c-0.404-0.537-1.12-1.874-2.122-1.517c-0.907,0.323-0.816,0.998-0.783,1.712c0,0.921,0,8.088,0,8.088s0.007,0.009,0.009,0.011
				c0.002,21.337,0.006,79.013,0,79.594c-0.009,0.808,0.059,1.068,0.64,1.346c0.7,0.335,1.17,0.353,2.144-0.99
				c0.81-1.118,4.525-6.041,4.525-6.041L7.885,42.231c4.533,6.026,10.732,14.268,17.297,22.996L29.744,59.161z"/>
			<path class="st0" d="M63.346,112.444c0.005-0.259,0.008-8.548,0.008-8.548S51.918,88.645,38.904,71.34l-4.562,6.067
				c13.692,18.206,26.373,35.073,26.518,35.282c0.316,0.455,0.805,1.125,1.752,0.866C63.56,113.296,63.339,112.85,63.346,112.444z"
				/>
		</g>
		<path class="st1" d="M63.496,23.998c0.007-0.537-0.086-1.01-0.799-1.264c-1.002-0.357-1.718,0.98-2.122,1.517
			c-0.404,0.537-4.384,5.829-4.384,5.829v0.033c-14.307,19.024-55.592,73.92-55.592,73.92s-0.012,8.153-0.008,8.412
			c0.008,0.405-0.059,0.984,0.882,1.265c0.866,0.258,1.44-0.565,1.756-1.02c0.247-0.356,36.959-49.166,52.957-70.434l-0.023,64.2
			c0,0,3.715,4.923,4.525,6.041c0.973,1.343,1.489,1.448,2.19,1.113c0.581-0.278,0.603-0.661,0.594-1.469
			c-0.006-0.581-0.002-58.215-0.001-79.571c0.011-0.014,0.026-0.035,0.026-0.035s0-7.489,0-8.154
			C63.498,24.248,63.499,24.121,63.496,23.998z"/>
		<path class="st1" d="M33.023,0.49C10.085,20.778,17.242,31.623,30.97,41.168c0.743-5.623,2.781-22.551,1.152-27.934
			c0.511-0.24,1.386,1.062,1.613,1.579c2.737,6.23,0.123,22.818-0.626,27.147C48.099,34.614,52.164,24.154,33.023,0.49z"/>
	</g>
</g>
<g>
	<path d="M9.147,133.056l-0.325,2.231H3.593v4.554h4.578v2.208H3.593v4.81h5.6v2.254H0.572v-16.057H9.147z"/>
	<path d="M27.132,149.113h-3.857l-4.694-13.082l0.069,0.627c0.217,2.169,0.326,4.098,0.326,5.787v6.668H16.28v-16.057h3.811
		l4.74,13.082c-0.093-0.604-0.182-1.413-0.267-2.428c-0.085-1.015-0.128-2.025-0.128-3.032v-7.622h2.696V149.113z"/>
	<path d="M43.56,133.056l-0.325,2.231h-5.228v4.554h4.578v2.208h-4.578v4.81h5.6v2.254h-8.621v-16.057H43.56z"/>
	<path d="M55.364,142.654h-1.65v6.459h-3.021v-16.057h4.229c4.043,0,6.065,1.573,6.065,4.718c0,1.023-0.24,1.901-0.72,2.637
		c-0.48,0.737-1.201,1.298-2.161,1.685l3.741,7.017h-3.323L55.364,142.654z M55.085,140.493c0.961,0,1.665-0.217,2.115-0.651
		c0.449-0.433,0.674-1.123,0.674-2.068c0-0.867-0.236-1.503-0.709-1.905c-0.473-0.403-1.228-0.605-2.265-0.605h-1.185v5.229H55.085z
		"/>
	<path d="M76.591,133.184c0.751,0.318,1.46,0.786,2.126,1.406l-1.557,1.603c-0.527-0.433-1.019-0.744-1.476-0.929
		c-0.457-0.186-0.98-0.279-1.568-0.279c-1.115,0-2.01,0.477-2.684,1.429c-0.674,0.953-1.01,2.506-1.01,4.659
		c0,1.519,0.12,2.723,0.36,3.614c0.24,0.891,0.6,1.526,1.08,1.905c0.48,0.379,1.092,0.569,1.836,0.569
		c0.805,0,1.541-0.201,2.207-0.604v-4.276h-2.091l-0.302-2.231h5.298v7.831c-0.744,0.496-1.549,0.883-2.417,1.162
		c-0.867,0.279-1.751,0.419-2.649,0.419c-4.307,0-6.459-2.796-6.459-8.389c0-1.812,0.298-3.346,0.894-4.601
		c0.596-1.255,1.402-2.195,2.417-2.823c1.015-0.627,2.157-0.94,3.428-0.94C74.983,132.708,75.839,132.867,76.591,133.184z"/>
	<path d="M96.168,133.056l-4.648,9.969v6.088h-3.021v-6.065l-4.624-9.992h3.23l2.974,7.505l2.974-7.505H96.168z"/>
	<path d="M112.13,149.113v-16.057h8.342l-0.302,2.231h-5.019v4.88h4.369v2.231h-4.369v6.715H112.13z"/>
	<path d="M137.017,134.834c1.131,1.418,1.696,3.498,1.696,6.239c0,2.711-0.565,4.786-1.696,6.227
		c-1.13,1.442-2.703,2.162-4.717,2.162c-1.999,0-3.563-0.713-4.694-2.139c-1.131-1.424-1.696-3.5-1.696-6.227
		c0-2.696,0.565-4.767,1.696-6.216c1.131-1.448,2.696-2.172,4.694-2.172C134.314,132.708,135.886,133.417,137.017,134.834z
		 M129.883,136.426c-0.543,0.946-0.814,2.503-0.814,4.671c0,2.154,0.275,3.703,0.825,4.648c0.55,0.945,1.351,1.417,2.405,1.417
		c1.1,0,1.916-0.469,2.451-1.406c0.535-0.936,0.801-2.498,0.801-4.682c0-2.153-0.267-3.702-0.801-4.648
		c-0.535-0.945-1.351-1.417-2.451-1.417C131.231,135.008,130.425,135.481,129.883,136.426z"/>
	<path d="M156.257,134.834c1.131,1.418,1.696,3.498,1.696,6.239c0,2.711-0.565,4.786-1.696,6.227
		c-1.13,1.442-2.703,2.162-4.716,2.162c-1.999,0-3.563-0.713-4.694-2.139c-1.131-1.424-1.696-3.5-1.696-6.227
		c0-2.696,0.565-4.767,1.696-6.216c1.131-1.448,2.696-2.172,4.694-2.172C153.554,132.708,155.127,133.417,156.257,134.834z
		 M149.124,136.426c-0.543,0.946-0.814,2.503-0.814,4.671c0,2.154,0.275,3.703,0.825,4.648c0.55,0.945,1.351,1.417,2.405,1.417
		c1.1,0,1.916-0.469,2.451-1.406c0.535-0.936,0.801-2.498,0.801-4.682c0-2.153-0.267-3.702-0.801-4.648
		c-0.535-0.945-1.351-1.417-2.451-1.417C150.471,135.008,149.666,135.481,149.124,136.426z"/>
	<path d="M172.627,133.684c1.076,0.418,1.952,1.212,2.626,2.381c0.674,1.17,1.01,2.816,1.01,4.938c0,3.006-0.662,5.109-1.986,6.309
		c-1.325,1.2-3.025,1.801-5.101,1.801h-4.09v-16.057h3.742C170.284,133.056,171.55,133.265,172.627,133.684z M168.107,135.311
		v11.548h1.278c1.192,0,2.117-0.418,2.777-1.255c0.657-0.836,0.987-2.37,0.987-4.601c0-1.548-0.166-2.741-0.499-3.578
		c-0.334-0.836-0.775-1.398-1.325-1.684c-0.55-0.287-1.219-0.43-2.01-0.43H168.107z"/>
</g>
</svg>
