<?xml version="1.0" encoding="utf-8"?>
<!-- Generator: Adobe Illustrator 22.0.1, SVG Export Plug-In . SVG Version: 6.00 Build 0)  -->
<svg version="1.1" id="Слой_1" xmlns="http://www.w3.org/2000/svg" xmlns:xlink="http://www.w3.org/1999/xlink" x="0px" y="0px"
	 width="1024px" height="768px" viewBox="0 0 1024 768" style="enable-background:new 0 0 1024 768;" xml:space="preserve">
<style type="text/css">
	.st0{fill:#AFCA0B;}
	.st1{fill:#666666;}
</style>
<g>
	<rect x="8" class="st0" width="6" height="2"/>
	<rect x="4" y="4" class="st0" width="10" height="2"/>
	<rect y="8" class="st0" width="14" height="2"/>
</g>
<g>
	<path class="st0" d="M109,28h-8.2v-8.8l-2.7,0.1V28H90c-1.7,0-3-1.2-3-2.9V10.4c0-0.9,0.3-1.6,0.8-2.1l0.1-0.1l9.5-7.5
		C97.9,0.3,98.6,0,99.3,0c0.8,0,1.6,0.3,2.1,0.7l10.4,8.7l0,0c0.1,0.3,0.2,0.7,0.2,1.1v14.6C112,26.8,110.8,28,109,28z M103.8,25
		h5.1V10.6l-1.2-0.9V9.6L99.5,3c0,0,0,0-0.1,0L90,10.4c0,0,0,0,0,0.1V25h5.2v-5.8c0-1.6,1.3-2.9,3-2.9h2.8c1.6,0,3,1.3,3,2.9V25
		H103.8z M99.5,3L99.5,3L99.5,3z"/>
</g>
<path class="st0" d="M53.9,5.8l-6.2-5.3c-0.6-0.5-1.8-0.6-2.5,0L39.6,5h-0.1C39.2,5.3,39,5.8,39,6.3v8.8c0,1.1,0.8,1.9,1.9,1.9h5
	v-5.2h1.4V17h5c1.1,0,1.9-0.8,1.9-1.9V6.4C54,6.2,54,6,53.9,5.8L53.9,5.8z M52,15h-2.8v-3.4c0-1-0.8-1.9-1.9-1.9h-1.6
	c-1,0-1.9,0.8-1.9,1.9V15H41V6.4L46.4,2l4.8,3.9l0,0L52,6.5V15z"/>
<path class="st0" d="M78.9,0H62.1C59.3,0,57,2.3,57,5.1v11.8c0,2.8,2.3,5.1,5.1,5.1h16.8c2.8,0,5.1-2.3,5.1-5.1V5.1
	C84,2.3,81.7,0,78.9,0z M74.1,10.7l7.5-7C81.9,4.1,82,4.6,82,5.1v11.8c0,0.5-0.1,0.9-0.3,1.4L74.1,10.7z M78.9,2
	c0.5,0,0.9,0.1,1.3,0.3L71,10.8c-0.3,0.3-0.7,0.3-1,0l-9.2-8.5C61.2,2.1,61.7,2,62.1,2H78.9z M59.3,18.3c-0.2-0.4-0.3-0.9-0.3-1.4
	V5.1c0-0.5,0.1-1,0.4-1.5l7.6,7.1L59.3,18.3z M62.1,20c-0.5,0-0.9-0.1-1.4-0.3l7.6-7.6l0.2,0.2c0.5,0.5,1.2,0.7,1.9,0.7
	s1.3-0.3,1.9-0.7l0.3-0.3l7.6,7.6c-0.4,0.2-0.9,0.3-1.4,0.3H62.1V20z"/>
<path class="st0" d="M33.3,0H19.7C18.2,0,17,1.2,17,2.7v9.6c0,1.5,1.2,2.7,2.7,2.7h13.6c1.5,0,2.7-1.2,2.7-2.7V2.7
	C36,1.2,34.8,0,33.3,0z M26.6,7.1c-0.1,0.1-0.2,0.1-0.3,0L20.6,2h11.8L26.6,7.1z M23.6,7.3L19,11.7V3.2L23.6,7.3z M25.1,8.7
	C25.5,9,26,9.2,26.5,9.2s1-0.2,1.5-0.6l4.6,4.4h-12L25.1,8.7z M29.5,7.3L34,3.2v8.4L29.5,7.3z"/>
<g>
	<path class="st0" d="M65,53c-1.4,0-2.8-0.3-4.3-0.8c-3.1-1.2-6.5-3.5-9.4-6.4c-3.1-3.2-5.3-6.3-6.4-9.5c-1.3-3.7-1.1-6.4,0.5-8.1
		c0.2-0.3,0.4-0.5,0.6-0.6c1.1-1.1,2.7-2.6,4.9-2.6c1.7,0,3.2,0.9,4.6,2.7c3.2,4,2.2,6.4,0.6,8.3c0.4,0.5,1,1.4,2.3,2.6
		c1.2,1.2,2.1,2,2.7,2.4c1.9-1.6,4.3-2.5,8.2,0.7c2.3,1.5,2.8,3.2,2.8,4.4c0,2.4-1.6,4-2.6,5l-0.4,0.4C68.1,52.5,66.7,53,65,53z
		 M47.6,30.2C47.5,30.2,47.5,30.2,47.6,30.2c-0.8,0.8-0.7,2.6,0.1,5.1c1,2.7,2.9,5.5,5.7,8.4c2.6,2.6,5.7,4.7,8.4,5.7
		C62.9,49.8,64,50,65,50c0.9,0,1.6-0.2,2-0.6l0.4-0.4c0.8-0.8,1.7-1.7,1.7-2.9c0-0.3,0-1-1.4-1.9l-0.1-0.1c-2.9-2.3-3.6-1.6-5.1-0.1
		l-1.3,1l-0.9-0.9c-0.3-0.1-0.6-0.3-0.9-0.6c-0.6-0.4-1.7-1.4-3.1-2.8c-2.5-2.5-3-3.7-3.3-4.2l-0.5-1l0.7-0.8
		c1.5-1.5,2.2-2.2-0.1-5.1C52,28.2,51.4,28,50.9,28c-1.2,0-2.1,0.9-3,1.9L47.6,30.2z"/>
</g>
<path class="st0" d="M41,35.1c-6.3,0.4-11.1,1.3-14.6,2.7C24.9,32.9,22.1,27,17.6,20C-7.7,37.6-1.8,49.3,10.9,60.4
	c1.4-5.5,5.4-22.2,4.4-27.8c0.5-0.2,1.3,1.2,1.4,1.8c2,6.5-2.5,22.8-3.7,27.1c2.2-0.8,4.2-1.6,5.9-2.6c0.1,0.4,0.2,0.8,0.3,1.2
	c3.3-3.2,13.1-13,14.8-17.2c0.4,0.1,0.3,1.4,0.2,1.8c-1.4,5.4-11.4,14.6-14.1,17C33.4,64.5,41.3,59.9,41,35.1z"/>
<g>
	<path class="st1" d="M141.8,22.5c0,2.4-1.9,4.3-4.3,4.3s-4.3-1.9-4.3-4.3s1.9-4.3,4.3-4.3S141.8,20.1,141.8,22.5z"/>
	<path class="st1" d="M147.6,14.9c-0.2-0.6-0.5-1.1-1-1.5c-0.4-0.4-0.9-0.8-1.5-1c-0.5-0.2-1.1-0.4-2.4-0.4
		c-1.4-0.1-1.8-0.1-5.2-0.1c-3.5,0-3.9,0-5.2,0.1s-1.9,0.3-2.4,0.4c-0.6,0.2-1.1,0.5-1.5,1c-0.4,0.4-0.8,0.9-1,1.5
		c-0.2,0.5-0.4,1.1-0.4,2.4c-0.1,1.4-0.1,1.8-0.1,5.2s0,3.9,0.1,5.2c0.1,1.3,0.3,1.9,0.4,2.4c0.2,0.6,0.5,1.1,1,1.5
		c0.4,0.4,0.9,0.8,1.5,1c0.5,0.2,1.1,0.4,2.4,0.4c1.4,0.1,1.8,0.1,5.2,0.1c3.5,0,3.9,0,5.2-0.1s1.9-0.3,2.4-0.4
		c1.1-0.4,2-1.3,2.5-2.5c0.2-0.5,0.4-1.1,0.4-2.4c0.1-1.4,0.1-1.8,0.1-5.2c0-3.5,0-3.9-0.1-5.2C148,16,147.7,15.3,147.6,14.9z
		 M137.5,29.1c-3.7,0-6.6-3-6.6-6.6s3-6.6,6.6-6.6c3.7,0,6.6,3,6.6,6.6S141.2,29.1,137.5,29.1z M144.4,17.2c-0.9,0-1.6-0.7-1.6-1.6
		s0.7-1.6,1.6-1.6s1.6,0.7,1.6,1.6C145.9,16.5,145.3,17.2,144.4,17.2z"/>
	<path class="st1" d="M137.5,0C125.1,0,115,10.1,115,22.5S125.1,45,137.5,45S160,34.9,160,22.5S149.9,0,137.5,0z M150.3,27.8
		c-0.1,1.4-0.3,2.3-0.6,3.1c-0.7,1.7-2,3.1-3.8,3.8c-0.8,0.3-1.8,0.5-3.1,0.6c-1.4,0.1-1.8,0.1-5.3,0.1s-3.9,0-5.3-0.1
		c-1.4-0.1-2.3-0.3-3.1-0.6c-0.9-0.3-1.6-0.8-2.3-1.5c-0.7-0.6-1.2-1.4-1.5-2.3c-0.3-0.8-0.5-1.8-0.6-3.1c-0.1-1.4-0.1-1.8-0.1-5.3
		s0-3.9,0.1-5.3s0.3-2.3,0.6-3.1c0.3-0.9,0.8-1.6,1.5-2.3c0.6-0.7,1.4-1.2,2.3-1.5c0.8-0.3,1.8-0.5,3.1-0.6c1.4-0.1,1.8-0.1,5.3-0.1
		s3.9,0,5.3,0.1c1.4,0.1,2.3,0.3,3.1,0.6c0.9,0.3,1.6,0.8,2.3,1.5c0.7,0.6,1.2,1.4,1.5,2.3c0.3,0.8,0.5,1.8,0.6,3.1
		c0.1,1.4,0.1,1.8,0.1,5.3S150.4,26.4,150.3,27.8z"/>
</g>
<polygon points="95.1,33.5 92.6,31 85.1,38.5 77.6,31 75.1,33.5 82.6,41 75.1,48.5 77.6,51 85.1,43.5 92.6,51 95.1,48.5 87.6,41 "/>
</svg>
