<?xml version="1.0" encoding="utf-8"?>
<!-- Generator: Adobe Illustrator 24.0.2, SVG Export Plug-In . SVG Version: 6.00 Build 0)  -->
<svg version="1.1" id="Слой_1" xmlns="http://www.w3.org/2000/svg" xmlns:xlink="http://www.w3.org/1999/xlink" x="0px" y="0px"
	 width="434.779px" height="99.2px" viewBox="0 0 434.779 99.2" enable-background="new 0 0 434.779 99.2" xml:space="preserve">
<path fill="#333333" d="M14.8,13.6l-3.7-3.7C12,8.8,12.6,7.4,12.6,6c0-3.3-2.9-6-6.3-6S0,2.7,0,6.1s2.8,6.1,6.3,6.1
	c1.3,0,2.5-0.4,3.6-1.1l3.7,3.7c0.1,0.1,0.4,0.2,0.6,0.2c0.2,0,0.4-0.1,0.5-0.2C15.1,14.5,15.1,13.9,14.8,13.6L14.8,13.6z M6.3,1.6
	c2.6,0,4.6,2,4.6,4.5s-2.1,4.5-4.6,4.5s-4.6-2-4.6-4.5S3.7,1.6,6.3,1.6L6.3,1.6z"/>
<path fill="#009FE3" d="M32.8,13.7L29.1,10c0.9-1.1,1.5-2.5,1.5-3.9c0-3.3-2.8-6.1-6.3-6.1S18,2.8,18,6.2s2.8,6.1,6.3,6.1
	c1.3,0,2.5-0.4,3.6-1.1l3.7,3.7c0.1,0.1,0.4,0.2,0.6,0.2s0.4-0.1,0.5-0.2C33.1,14.6,33.1,14,32.8,13.7L32.8,13.7z M24.3,1.7
	c2.6,0,4.6,2,4.6,4.5s-2.1,4.5-4.6,4.5s-4.6-2-4.6-4.5S21.7,1.7,24.3,1.7L24.3,1.7z"/>
<g>
	<path fill="#333333" d="M36,2.5c0-0.7,0.2-1.3,0.7-1.8S37.8,0,38.6,0s1.4,0.2,1.9,0.7s0.7,1.1,0.7,1.9v0.6c0,0.7-0.2,1.3-0.7,1.8
		s-1.1,0.7-1.9,0.7c-0.8,0-1.4-0.2-1.9-0.7C36.3,4.5,36,3.9,36,3.1V2.5z M37.6,3.1c0,0.3,0.1,0.6,0.3,0.8c0.2,0.2,0.4,0.3,0.8,0.3
		s0.6-0.1,0.7-0.3c0.1-0.2,0.3-0.5,0.3-0.8V2.5c0-0.3-0.1-0.6-0.3-0.8S39,1.4,38.6,1.4c-0.3,0-0.6,0.1-0.7,0.3
		c-0.2,0.2-0.3,0.5-0.3,0.8V3.1z M39.1,11.4l-1.2-0.6l5.9-9.4L45,1.9L39.1,11.4z M41.8,9.3c0-0.7,0.2-1.3,0.7-1.8s1.1-0.7,1.9-0.7
		c0.8,0,1.4,0.2,1.9,0.7C46.8,7.9,47,8.6,47,9.3v0.6c0,0.7-0.2,1.3-0.7,1.8s-1.1,0.7-1.9,0.7c-0.8,0-1.4-0.2-1.9-0.7
		s-0.7-1.1-0.7-1.8C41.8,9.9,41.8,9.3,41.8,9.3z M43.4,9.9c0,0.3,0.1,0.6,0.3,0.8s0.4,0.3,0.7,0.3c0.7,0,1-0.4,1-1.1V9.3
		c0-0.3-0.1-0.6-0.3-0.8s-0.4-0.3-0.7-0.3s-0.6,0.1-0.7,0.3c-0.2,0.2-0.3,0.5-0.3,0.8V9.9z"/>
</g>
<rect x="50" y="0" fill="#FFFFFF" width="16" height="2"/>
<rect x="50" y="5" fill="#FFFFFF" width="16" height="2"/>
<rect x="50" y="10" fill="#FFFFFF" width="16" height="2"/>
<g>
	<rect x="153.6" y="75.2" fill="#009FE3" width="20" height="3"/>
	<rect x="153.6" y="68.2" fill="#009FE3" width="20" height="3"/>
	<rect x="153.6" y="61.2" fill="#009FE3" width="20" height="3"/>
</g>
<g>
	<rect x="153.6" y="95.2" fill="#FFFFFF" width="20" height="3"/>
	<rect x="153.6" y="88.2" fill="#FFFFFF" width="20" height="3"/>
	<rect x="153.6" y="81.2" fill="#FFFFFF" width="20" height="3"/>
</g>
<g>
	<path fill="#009FE3" d="M69,2.5c0-0.7,0.2-1.3,0.7-1.8s1.2-0.7,2-0.7s1.4,0.2,1.9,0.7s0.7,1.1,0.7,1.9v0.6c0,0.7-0.2,1.3-0.7,1.8
		s-1.1,0.7-1.9,0.7S70.3,5.5,69.8,5S69,3.9,69,3.1V2.5z M70.6,3.1c0,0.3,0.1,0.6,0.3,0.8c0.2,0.2,0.4,0.3,0.8,0.3s0.6-0.1,0.7-0.3
		c0.1-0.2,0.3-0.5,0.3-0.8V2.5c0-0.3-0.1-0.6-0.3-0.8S72,1.4,71.7,1.4S71.1,1.5,71,1.7c-0.2,0.2-0.3,0.5-0.3,0.8L70.6,3.1L70.6,3.1z
		 M72.2,11.4L71,10.7l5.9-9.4l1.2,0.6L72.2,11.4z M74.8,9.3c0-0.7,0.2-1.3,0.7-1.8s1.2-0.7,1.9-0.7c0.8,0,1.4,0.2,1.9,0.7
		S80,8.6,80,9.4V10c0,0.7-0.2,1.3-0.7,1.8s-1.1,0.7-1.9,0.7s-1.4-0.2-1.9-0.7s-0.7-1.1-0.7-1.8V9.3z M76.4,9.9
		c0,0.3,0.1,0.6,0.3,0.8s0.4,0.3,0.7,0.3c0.7,0,1-0.4,1-1.1V9.3c0-0.3-0.1-0.6-0.3-0.8c-0.2-0.2-0.4-0.3-0.7-0.3s-0.6,0.1-0.7,0.3
		c-0.2,0.2-0.3,0.5-0.3,0.8V9.9z"/>
</g>
<polygon fill="#FFFFFF" points="95.1,1.3 93.8,0 89.1,4.7 84.4,0 83.1,1.3 87.8,6 83.1,10.7 84.4,12 89.1,7.3 93.8,12 95.1,10.7 
	90.4,6 "/>
<g>
	<path fill="#009FE3" d="M40,38.2c0-11-9-20-20-20s-20,9-20,20s9,20,20,20S40,49.2,40,38.2z M1.8,38.2C1.8,28.2,10,20,20,20
		s18.2,8.1,18.2,18.2S30,56.4,20,56.4S1.8,48.2,1.8,38.2z"/>
	<path fill="#009FE3" d="M21,50.5h-3.7c-0.6,0-1.1-0.5-1.1-1.1V41H14c-0.6,0-1.1-0.5-1.1-1.1v-3.6c0-0.6,0.5-1.1,1.1-1.1h2.2v-1.8
		c0-1.8,0.6-3.3,1.6-4.4c1.1-1.1,2.5-1.7,4.3-1.7h2.8c0.6,0,1.1,0.5,1.1,1.1v3.3c0,0.6-0.5,1.1-1.1,1.1L23,33
		c-0.6,0-0.7,0.1-0.8,0.2c-0.1,0.1-0.1,0.2-0.1,0.7v1.4h2.6c0.2,0,0.4,0,0.6,0.1c0.4,0.2,0.6,0.6,0.6,1V40c0,0.6-0.5,1.1-1.1,1.1
		h-2.6v8.3C22.1,50,21.6,50.5,21,50.5z M17.5,49.2h3.2v-8.7c0-0.4,0.3-0.7,0.7-0.7h3v-3.1h-3c-0.4,0-0.7-0.3-0.7-0.7v-2
		c0-0.5,0.1-1.1,0.5-1.6c0.5-0.5,1.2-0.6,1.8-0.6h1.7v-2.9h-2.6c-2.8,0-4.5,1.8-4.5,4.7V36c0,0.4-0.3,0.7-0.7,0.7h-2.5v3.1h2.5
		c0.4,0,0.7,0.3,0.7,0.7v8.7H17.5z M24.9,28.8L24.9,28.8L24.9,28.8z"/>
</g>
<g>
	<path fill="#009FE3" d="M83,38.2c0-11-9-20-20-20s-20,9-20,20s9,20,20,20S83,49.2,83,38.2z M44.8,38.2C44.8,28.2,53,20,63,20
		s18.2,8.1,18.2,18.2S73,56.4,63,56.4S44.8,48.2,44.8,38.2z"/>
	<g>
		<path fill="#009FE3" d="M70.5,43.3c0-0.2,0-0.3-0.1-0.4c-0.1-0.1-0.2-0.1-0.4-0.1c-0.2,0-0.3,0-0.4,0.1s-0.1,0.2-0.1,0.4v0.5h1.1
			L70.5,43.3L70.5,43.3z"/>
		<path fill="#009FE3" d="M64.9,43h-0.3l-0.3,0.1V46c0.1,0.1,0.2,0.1,0.3,0.2h0.3c0.2,0,0.3,0,0.4-0.1s0.1-0.2,0.1-0.3v-2.4
			c0-0.2,0-0.3-0.1-0.4C65.2,43,65,43,64.9,43z"/>
		<polygon fill="#009FE3" points="57.3,35.7 58.8,35.7 58.8,32.1 60.5,27 59,27 58.1,30.5 58,30.5 57,27 55.5,27 57.3,32.2 		"/>
		<path fill="#009FE3" d="M62.5,35.7c0.6,0,1.1-0.2,1.5-0.5s0.5-0.7,0.5-1.2v-3c0-0.4-0.2-0.8-0.5-1.1c-0.4-0.3-0.8-0.4-1.4-0.4
			c-0.6,0-1.1,0.1-1.5,0.4s-0.6,0.6-0.6,1.1v3c0,0.5,0.2,0.9,0.5,1.2C61.4,35.5,61.9,35.7,62.5,35.7z M61.9,31.1
			c0-0.1,0.1-0.2,0.2-0.3c0.1-0.1,0.3-0.1,0.5-0.1s0.4,0,0.5,0.1s0.2,0.2,0.2,0.3V34c0,0.1-0.1,0.3-0.2,0.3
			c-0.1,0.1-0.3,0.1-0.5,0.1s-0.4,0-0.5-0.1s-0.2-0.2-0.2-0.3V31.1z"/>
		<path fill="#009FE3" d="M66.7,35.7c0.2,0,0.4-0.1,0.7-0.3c0.2-0.1,0.5-0.3,0.7-0.6v0.7h1.2v-6.1h-1.2V34c-0.1,0.1-0.2,0.2-0.4,0.3
			c-0.1,0.1-0.2,0.1-0.3,0.1c-0.1,0-0.2,0-0.2-0.1s-0.1-0.2-0.1-0.3v-4.7h-1.2v5.1c0,0.4,0.1,0.6,0.2,0.8
			C66.2,35.5,66.4,35.7,66.7,35.7z"/>
		<path fill="#009FE3" d="M70.1,38.2H55.9c-2.3,0-4.1,1.8-4.1,3.9v3.3c0,2.2,1.8,3.9,4.1,3.9h14.3c2.3,0,4.1-1.8,4.1-3.9v-3.3
			C74.2,40,72.4,38.2,70.1,38.2z M58,41.6h-1.3v5.2h-1.2v-5.2h-1.3v-0.9H58V41.6z M61.8,46.9h-1.3v-0.5c-0.2,0.2-0.5,0.4-0.8,0.5
			s-0.5,0.2-0.8,0.2s-0.5-0.1-0.7-0.2S58,46.5,58,46.2V42h1.3v3.8c0,0.1,0,0.2,0.1,0.3s0.1,0.1,0.3,0.1c0.1,0,0.2,0,0.4-0.1
			c0.1-0.1,0.3-0.2,0.4-0.3V42h1.3V46.9z M66.7,46c0,0.3-0.1,0.6-0.3,0.7c-0.2,0.2-0.5,0.3-0.9,0.3c-0.3,0-0.5,0-0.7-0.1
			s-0.4-0.2-0.6-0.3v0.3H63v-6.2h1.3v2c0.2-0.1,0.4-0.2,0.6-0.3s0.4-0.1,0.6-0.1c0.4,0,0.7,0.1,0.9,0.3c0.2,0.2,0.3,0.5,0.3,0.9
			C66.7,43.5,66.7,46,66.7,46z M71.7,45.5c0,0.5-0.2,0.9-0.5,1.1c-0.3,0.2-0.8,0.4-1.4,0.4s-1-0.1-1.3-0.4C68.2,46.3,68,46,68,45.5
			v-2.1c0-0.4,0.2-0.7,0.5-1c0.4-0.3,0.8-0.4,1.4-0.4s1,0.1,1.3,0.4c0.3,0.2,0.5,0.6,0.5,1v1.2h-2.4v0.9c0,0.2,0,0.4,0.1,0.5
			s0.2,0.1,0.4,0.1c0.2,0,0.4,0,0.4-0.1c0.1-0.1,0.1-0.3,0.1-0.5v-0.2h1.3L71.7,45.5L71.7,45.5z"/>
	</g>
</g>
<path fill="#009FE3" d="M106,18.2c-11,0-20,9-20,20s9,20,20,20s20-9,20-20S117,18.2,106,18.2z M110.7,31.8H109
	c-0.6,0-1.3,0.1-1.8,0.6c-0.4,0.5-0.5,1.1-0.5,1.6v2c0,0.4,0.3,0.7,0.7,0.7h3v3.1h-3c-0.4,0-0.7,0.3-0.7,0.7v8.7h-3.1v-8.7
	c0-0.4-0.3-0.7-0.7-0.7h-2.5v-3.1h2.5c0.4,0,0.7-0.3,0.7-0.7v-2.4c0-2.9,1.7-4.7,4.5-4.7h2.6V31.8z"/>
<polygon fill="#009FE3" points="144,40.7 140.2,40.7 140.2,41.6 141.5,41.6 141.5,46.8 142.7,46.8 142.7,41.6 144,41.6 "/>
<path fill="#009FE3" d="M146.5,45.8c-0.1,0.1-0.3,0.2-0.4,0.3c-0.2,0.1-0.3,0.1-0.4,0.1c-0.2,0-0.2,0-0.3-0.1s-0.1-0.2-0.1-0.3V42
	H144v4.2c0,0.3,0,0.6,0.2,0.7s0.4,0.2,0.7,0.2s0.5-0.1,0.8-0.2s0.6-0.3,0.8-0.5v0.5h1.3V42h-1.3V45.8z"/>
<path fill="#009FE3" d="M151.5,42.3c-0.2,0-0.4,0-0.6,0.1c-0.2,0.1-0.4,0.2-0.6,0.3v-2H149v6.2h1.2v-0.3c0.2,0.1,0.4,0.2,0.6,0.3
	s0.4,0.1,0.7,0.1c0.4,0,0.7-0.1,0.9-0.3c0.2-0.1,0.3-0.4,0.3-0.7v-2.5c0-0.4-0.1-0.7-0.3-0.9C152.2,42.4,151.9,42.3,151.5,42.3z
	 M151.4,45.8c0,0.1,0,0.2-0.1,0.3s-0.2,0.1-0.4,0.1h-0.3c-0.1-0.1-0.2-0.1-0.3-0.2v-2.9l0.3-0.1h0.3c0.1,0,0.3,0,0.4,0
	c0.1,0.1,0.1,0.2,0.1,0.4V45.8z"/>
<path fill="#009FE3" d="M149,18.2c-11,0-20,9-20,20s9,20,20,20s20-9,20-20S160,18.2,149,18.2z M151.9,29.3h1.2V34
	c0,0.1,0.1,0.2,0.1,0.3s0.1,0.1,0.2,0.1c0.1,0,0.2,0,0.3-0.1c0.2-0.1,0.3-0.2,0.4-0.3v-4.6h1.2v6.1h-1.2v-0.7
	c-0.2,0.3-0.5,0.5-0.7,0.6c-0.3,0.2-0.5,0.3-0.7,0.3c-0.3,0-0.5-0.2-0.6-0.5c-0.1-0.2-0.2-0.4-0.2-0.8V29.3z M147.1,29.9
	c0.4-0.3,0.9-0.4,1.5-0.4s1,0.1,1.4,0.4c0.3,0.3,0.5,0.7,0.5,1.1v3c0,0.5-0.1,0.9-0.5,1.2s-0.9,0.5-1.5,0.5s-1.1-0.2-1.5-0.5
	c-0.3-0.3-0.5-0.7-0.5-1.2v-3C146.5,30.5,146.7,30.2,147.1,29.9z M143,27l1,3.5h0.1L145,27h1.5l-1.7,5.1v3.6h-1.5v-3.5l-1.8-5.2
	C141.5,27,143,27,143,27z M160.3,45.4c0,2.1-1.8,3.9-4.1,3.9h-14.3c-2.3,0-4.1-1.7-4.1-3.9v-3.3c0-2.1,1.8-3.9,4.1-3.9h14.2
	c2.3,0,4.1,1.8,4.2,3.9L160.3,45.4L160.3,45.4z"/>
<path fill="#009FE3" d="M157.2,42.4c-0.3-0.3-0.7-0.4-1.3-0.4s-1,0.1-1.4,0.4c-0.3,0.3-0.5,0.6-0.5,1v2.1c0,0.5,0.2,0.8,0.5,1.1
	s0.7,0.4,1.3,0.4s1.1-0.2,1.4-0.4s0.5-0.6,0.5-1.1h-0.1v-0.2h-1.3v0.2c0,0.2,0,0.4-0.1,0.5c0,0.1-0.2,0.1-0.4,0.1s-0.3,0-0.4-0.1
	c-0.1-0.1-0.1-0.3-0.1-0.5v-0.9h2.4v-1.2C157.7,43,157.5,42.6,157.2,42.4z M156.6,43.8h-1.1v-0.5c0-0.2,0-0.3,0.1-0.4
	c0.1-0.1,0.2-0.1,0.4-0.1s0.3,0,0.4,0.1c0.1,0.1,0.1,0.2,0.1,0.4h0.1V43.8z"/>
<path fill="#009FE3" d="M148.6,34.4c0.2,0,0.4,0,0.5-0.1c0.1,0,0.2-0.2,0.2-0.3v-2.9c0-0.1-0.1-0.2-0.2-0.3
	c-0.1-0.1-0.3-0.1-0.5-0.1s-0.4,0-0.5,0.1s-0.2,0.2-0.2,0.3V34c0,0.1,0.1,0.2,0.2,0.3C148.2,34.4,148.4,34.4,148.6,34.4z"/>
<g>
	<path fill="#009FE3" d="M114.1,5.7c0-3.2-2.7-5.7-6-5.7s-6,2.6-6,5.7c0,1.3,0.6,2.3,1.1,3.4c0.9,1.8,2.7,4.7,3.6,6.2
		c0.2,0.4,0.8,0.7,1.4,0.7s1.1-0.3,1.4-0.7c0.9-1.5,2.4-4,3.5-6.2C113.5,8,114.1,7,114.1,5.7L114.1,5.7z M108.1,3.9
		c1.1,0,2,0.8,2,1.9c0,1-0.9,1.9-2,1.9s-2-0.8-2-1.9S107,3.9,108.1,3.9L108.1,3.9z"/>
</g>
<g>
	<path fill="#009FE3" d="M138.1,0c-3.3,0-6,2.7-6,6s2.7,6,6,6s6-2.7,6-6S141.4,0,138.1,0L138.1,0z M138.1,10.2
		c-2.3,0-4.2-1.9-4.2-4.2s1.9-4.2,4.2-4.2s4.2,1.9,4.2,4.2S140.4,10.2,138.1,10.2L138.1,10.2z"/>
	<path fill="#009FE3" d="M141,6h-2.4V3c0-0.2-0.2-0.4-0.4-0.4s-0.4,0.2-0.4,0.4v3.4c0,0.2,0.2,0.4,0.4,0.4h2.9
		c0.2,0,0.4-0.2,0.4-0.4C141.4,6.2,141.2,6,141,6L141,6z"/>
</g>
<path fill="#009FE3" d="M129.1,9.7c0,0.2,0,0.4-0.2,0.5l-1.7,1.7c-0.1,0.1-0.2,0.2-0.3,0.2c-0.1,0.1-0.2,0.1-0.4,0.1c0,0,0,0-0.1,0
	c0,0-0.1,0-0.2,0c-0.2,0-0.4,0-0.8-0.1s-0.8-0.2-1.3-0.4s-1.1-0.5-1.8-1c-0.7-0.4-1.4-1-2.1-1.8c-0.6-0.6-1.1-1.1-1.5-1.7
	c-0.4-0.5-0.7-1-0.9-1.5c-0.2-0.5-0.4-0.9-0.5-1.2c-0.1-0.4-0.2-0.7-0.2-1S117,3,117,2.9c0-0.2,0-0.2,0-0.3s0.1-0.2,0.1-0.4
	c0.1-0.1,0.1-0.2,0.2-0.3l1.7-1.7c0.1-0.1,0.3-0.2,0.4-0.2s0.2,0,0.3,0.1c0.1,0.1,0.2,0.1,0.2,0.2l1.4,2.6c0.1,0.1,0.1,0.3,0.1,0.4
	c0,0.2-0.1,0.3-0.2,0.4l-0.6,0.6c0,0,0,0,0,0.1v0.1c0,0.2,0.1,0.4,0.2,0.6s0.3,0.5,0.5,0.7c0.2,0.3,0.5,0.6,0.9,1s0.7,0.7,1,0.9
	c0.3,0.2,0.5,0.4,0.7,0.5s0.4,0.2,0.5,0.2h0.2c0,0,0,0,0.1,0h0.1l0.7-0.7c0.2-0.1,0.3-0.2,0.5-0.2c0.1,0,0.3,0,0.3,0.1l0,0l2.5,1.4
	C129,9.4,129.1,9.5,129.1,9.7L129.1,9.7z"/>
<path fill="#333333" d="M21.2,61.5c-0.4-0.4-1.1-0.4-1.6,0c-0.4,0.4-0.4,1.1,0,1.6l8,8H1.1c-0.6,0-1.1,0.5-1.1,1.1s0.5,1.1,1.1,1.1
	h26.6l-8,8c-0.4,0.4-0.4,1.2,0,1.6s1.2,0.4,1.6,0l10-10c0.4-0.4,0.4-1.1,0-1.6L21.2,61.5z"/>
<path fill="#FFFFFF" d="M88.9,78.4c0.3,0.3,0.9,0.3,1.3,0c0.3-0.3,0.3-0.9,0-1.3l-6.3-6.3h20.8c0.5,0,0.9-0.4,0.9-0.9
	s-0.4-0.9-0.9-0.9H83.8l6.3-6.3c0.3-0.3,0.3-0.9,0-1.3c-0.3-0.3-0.9-0.3-1.3,0l-7.9,7.9c-0.3,0.3-0.3,0.9,0,1.3L88.9,78.4z"/>
<polygon fill="#333333" points="170.4,1.5 168.9,0 166.4,2.5 163.8,0 162.4,1.5 164.9,4 162.4,6.5 163.8,8 166.4,5.5 168.9,8 
	170.4,6.5 167.8,4 "/>
<g>
	<polygon fill="#333333" points="176.9,12 173.4,8.5 174.1,7.7 176.9,10.6 179.7,7.7 180.4,8.5 	"/>
	<polygon fill="#333333" points="179.7,4.3 176.9,1.4 174.1,4.3 173.4,3.5 176.9,0 180.4,3.5 	"/>
</g>
<g>
	<g id="filter">
		<path d="M36.3,69.2H39v-1.6h-2.7V69.2z M31.6,61.2v1.6h12v-1.6H31.6z M33.6,66h8v-1.6h-8V66z"/>
	</g>
</g>
<g>
	<path fill="#009FE3" d="M57.8,72.4c-0.8,0-1.4,0.6-1.4,1.4s0.6,1.4,1.4,1.4s1.4-0.6,1.4-1.4S58.6,72.4,57.8,72.4z"/>
	<path fill="#009FE3" d="M50.8,72.4c-0.8,0-1.4,0.6-1.4,1.4s0.6,1.4,1.4,1.4c0.8,0,1.4-0.6,1.4-1.4S51.6,72.4,50.8,72.4z"/>
	<path fill="#009FE3" d="M51.6,68.9h5.2c0.6,0,1-0.3,1.2-0.7l2.5-4.5c0.1-0.1,0.1-0.2,0.1-0.4c0-0.4-0.3-0.7-0.7-0.7H49.5l-0.6-1.4
		h-2.3v1.4H48l2.5,5.3l-1,1.7c-0.1,0.2-0.1,0.5-0.1,0.7c0,0.8,0.6,1.4,1.4,1.4h8.4v-1.4h-8.1c-0.1,0-0.1-0.1-0.1-0.1v-0.1L51.6,68.9
		z M50.3,64.2c-0.1-0.2,0.1-0.5,0.3-0.5h7.7c0.3,0,0.4,0.3,0.3,0.5l-1.8,3c-0.1,0.1-0.2,0.2-0.3,0.2H52c-0.1,0-0.3-0.1-0.3-0.2
		L50.3,64.2z"/>
</g>
<g>
	<path fill="#009FE3" d="M146.8,76.4c-1.1,0-1.9,0.8-1.9,1.9s0.8,1.9,1.9,1.9s1.9-0.8,1.9-1.9C148.7,77.2,147.9,76.4,146.8,76.4z"/>
	<path fill="#009FE3" d="M137.2,76.4c-1.1,0-1.9,0.8-1.9,1.9s0.8,1.9,1.9,1.9c1.1,0,1.9-0.8,1.9-1.9
		C139.2,77.2,138.3,76.4,137.2,76.4z"/>
	<path fill="#009FE3" d="M138.3,71.6h7c0.8,0,1.4-0.4,1.6-0.9l3.4-6.2c0.2-0.2,0.2-0.3,0.2-0.5c0-0.5-0.4-0.9-0.9-0.9h-14.1
		l-0.8-1.9h-3.1v1.9h1.9l3.4,7.2l-1.4,2.3c-0.1,0.3-0.2,0.7-0.2,0.9c0,1.1,0.8,1.9,1.9,1.9h11.4v-1.9h-11.1c-0.1,0-0.2-0.1-0.2-0.2
		v-0.1L138.3,71.6z M136.5,65.2c-0.2-0.3,0.1-0.7,0.5-0.7h10.5c0.4,0,0.6,0.4,0.4,0.7l-2.4,4.1c-0.1,0.2-0.2,0.2-0.4,0.2h-6.2
		c-0.2,0-0.4-0.1-0.5-0.2L136.5,65.2z"/>
</g>
<g>
	<path fill="#FFFFFF" d="M74.8,72.4c-0.8,0-1.4,0.6-1.4,1.4s0.6,1.4,1.4,1.4s1.4-0.6,1.4-1.4C76.2,73,75.6,72.4,74.8,72.4z"/>
	<path fill="#FFFFFF" d="M67.8,72.4c-0.8,0-1.4,0.6-1.4,1.4s0.6,1.4,1.4,1.4s1.4-0.6,1.4-1.4C69.2,73,68.6,72.4,67.8,72.4z"/>
	<path fill="#FFFFFF" d="M68.6,68.9h5.2c0.6,0,1-0.3,1.2-0.7l2.5-4.5c0.1-0.1,0.1-0.2,0.1-0.4c0-0.4-0.3-0.7-0.7-0.7H66.5l-0.6-1.4
		h-2.3v1.4H65l2.5,5.3l-1,1.7c-0.1,0.2-0.1,0.5-0.1,0.7c0,0.8,0.6,1.4,1.4,1.4h8.4v-1.4h-8.1c-0.1,0-0.1-0.1-0.1-0.1v-0.1L68.6,68.9
		z M67.3,64.2c-0.1-0.2,0.1-0.5,0.3-0.5h7.7c0.3,0,0.4,0.3,0.3,0.5l-1.8,3c-0.1,0.1-0.2,0.2-0.3,0.2H69c-0.1,0-0.3-0.1-0.3-0.2
		L67.3,64.2z"/>
</g>
<g>
	<g>
		<g>
			<path fill="#FFFFFF" d="M118,71.6l-2.9-2.9l-1.9,1.9l4.9,4.9l10.5-10.6l-2-2L118,71.6z"/>
		</g>
	</g>
	<path fill="#FFFFFF" d="M118.3,79.3c-4.4-0.1-7.9-3.7-7.9-8.1c0-4.5,3.6-8.1,8-8.1v-1.9c-5.4,0-9.9,4.5-9.9,10
		c0,5.4,4.4,9.9,9.7,10l0,0h0.2c4.1,0,7.7-2.5,9.2-6.3l-1.7-0.7C124.7,77.3,121.7,79.3,118.3,79.3L118.3,79.3"/>
</g>
<g>
	<path fill="#FFFFFF" d="M199,18.6c-0.8,0-1.9-0.2-3-0.5c-2.2-0.8-4.9-2.4-7.1-4.6s-4-4.4-4.9-6.6s-0.8-4,0.2-4.9
		c0-0.2,0-0.3,0.2-0.3c0.8-0.8,1.9-1.7,3.4-1.7c1,0,1.9,0.5,2.7,1.5c2.5,2.7,1.5,4,0,5.2l0,0c0.2,0.3,0.5,1,2.5,2.9
		c1,1.2,1.9,1.9,2.4,2.2c0.3,0.3,0.5,0.3,0.7,0.3l0,0c1.5-1.3,2.7-2.2,5.7,0c1.2,0.7,1.7,1.5,1.7,2.4c0,1.3-1,2.2-1.7,2.9l-0.3,0.3
		C200.9,18.3,200,18.6,199,18.6z"/>
</g>
<g>
	<polygon fill="#74C253" points="187,29.9 185,29.9 185,34.6 180.3,34.6 180.3,36.6 185,36.6 185,41.3 187,41.3 187,36.6 
		191.7,36.6 191.7,34.6 187,34.6 	"/>
	<path fill="#74C253" d="M186,21.6c-7.7,0-14,6.3-14,14s6.3,14,14,14s14-6.3,14-14S193.7,21.6,186,21.6z M186,47.5
		c-6.6,0-11.9-5.3-11.9-11.9s5.4-11.9,11.9-11.9c6.6,0,11.9,5.4,11.9,11.9C197.9,42.2,192.6,47.5,186,47.5z"/>
</g>
<g>
	<path fill="#009FE3" d="M194.1,87.6c-9.6,0-17.5-7.8-17.5-17.5c0-9.6,7.9-17.5,17.5-17.5s17.5,7.8,17.5,17.5
		C211.6,79.7,203.7,87.6,194.1,87.6z M194.1,55.2c-8.2,0-14.9,6.7-14.9,14.9S185.9,85,194.1,85S209,78.3,209,70.1
		S202.3,55.2,194.1,55.2z"/>
	<g>
		<path fill="#009FE3" d="M192.1,72.7c0-0.8,0.1-1.4,0.4-1.8c0.3-0.4,0.7-0.6,1.3-0.8l1-0.3c0.5-0.2,0.9-0.3,1.1-0.5
			s0.4-0.3,0.5-0.6c0.1-0.3,0.1-0.7,0.1-1.3c0-0.6-0.1-1.1-0.3-1.3c-0.2-0.3-0.5-0.4-0.9-0.5s-1.1-0.1-2-0.1c-0.5,0-1.1,0-1.8,0.1
			c-0.7,0-1.4,0.1-2,0.2v-2.3c0.7-0.1,1.5-0.2,2.4-0.3s1.7-0.1,2.4-0.1c1.8,0,3,0.3,3.8,1c0.7,0.7,1.1,1.8,1.1,3.4
			c0,1-0.2,1.8-0.5,2.4s-0.8,1-1.5,1.2l-1,0.4c-0.6,0.2-1,0.4-1.2,0.5s-0.3,0.3-0.4,0.4c-0.1,0.2-0.1,0.5-0.1,1v1.1h-2.4L192.1,72.7
			L192.1,72.7z M191.8,79.5v-2.9h2.9v2.9H191.8z"/>
	</g>
</g>
<g>
	<polygon fill="#009FE3" points="225.2,10.4 222.8,10.4 222.8,16.3 216.9,16.3 216.9,18.7 222.8,18.7 222.8,24.6 225.2,24.6 
		225.2,18.7 231.1,18.7 231.1,16.3 225.2,16.3 	"/>
	<path fill="#009FE3" d="M224,0c-9.6,0-17.5,7.8-17.5,17.5c0,9.6,7.9,17.5,17.5,17.5s17.5-7.9,17.5-17.5C241.5,7.8,233.6,0,224,0z
		 M224,32.4c-8.2,0-14.9-6.7-14.9-14.9S215.8,2.6,224,2.6s14.9,6.7,14.9,14.9S232.2,32.4,224,32.4z"/>
</g>
<g>
	<g>
		<path fill="#009FE3" d="M232.1,38.2c-9.6,0-17.5,7.8-17.5,17.5c0,9.6,7.9,17.5,17.5,17.5s17.5-7.8,17.5-17.5
			S241.7,38.2,232.1,38.2z M232.1,70.6c-8.2,0-14.9-6.7-14.9-14.9s6.7-14.9,14.9-14.9S247,47.5,247,55.7S240.3,70.6,232.1,70.6z"/>
	</g>
	<path fill="#009FE3" d="M228.4,64.7c-0.3,0-0.6-0.1-0.9-0.2c-0.7-0.3-1.1-0.9-1.1-1.6V48.4c0-0.7,0.4-1.3,1.1-1.6
		c0.7-0.3,1.5-0.2,2.1,0.2l10.6,7.3c0.5,0.3,0.8,0.8,0.8,1.4c0,0.6-0.3,1.1-0.8,1.4l-10.6,7.3C229.2,64.6,228.8,64.7,228.4,64.7z
		 M229.1,49.3C229.1,49.3,229,49.3,229.1,49.3c-0.1,0-0.1,0.1-0.1,0.1V62c0,0,0,0.1,0.1,0.1s0.1,0,0.1,0l8.7-6.3l0.1-0.1
		c0,0,0-0.1-0.1-0.1L229.1,49.3L229.1,49.3z"/>
</g>
<g>
	<path fill="#009FE3" d="M148.2,2.9c0.2,0.1,0.6,0.4,1.4,1c0.8,0.5,1.4,0.9,1.8,1.2c0,0,0.1,0.1,0.3,0.2s0.3,0.2,0.4,0.3
		c0.1,0.1,0.2,0.1,0.4,0.2c0.1,0.1,0.3,0.1,0.4,0.2c0.1,0,0.2,0.1,0.3,0.1l0,0c0.1,0,0.2,0,0.3-0.1c0.1,0,0.3-0.1,0.4-0.2
		c0.1-0.1,0.3-0.2,0.4-0.2c0.1-0.1,0.2-0.2,0.4-0.3c0.1-0.1,0.2-0.2,0.3-0.2c0.4-0.3,1.5-1,3.2-2.2c0.3-0.2,0.6-0.5,0.8-0.8
		s0.3-0.7,0.3-1s-0.1-0.6-0.3-0.8c-0.4-0.2-0.7-0.3-1-0.3h-9.9c-0.3,0-0.6,0.1-0.8,0.4S147,0.9,147,1.2s0.1,0.6,0.4,0.9
		C147.6,2.5,147.9,2.7,148.2,2.9L148.2,2.9z"/>
	<path fill="#009FE3" d="M158.4,3.7c-1.5,1-2.6,1.8-3.4,2.3c-0.3,0.2-0.5,0.3-0.6,0.4c-0.2,0.1-0.4,0.2-0.6,0.3
		c-0.3,0.1-0.5,0.2-0.7,0.2l0,0c-0.2,0-0.5-0.1-0.7-0.2c-0.3-0.1-0.5-0.2-0.6-0.3c-0.2-0.1-0.4-0.3-0.6-0.4
		c-0.6-0.4-1.7-1.2-3.4-2.3c-0.3-0.2-0.5-0.4-0.7-0.6v5.4c0,0.3,0.1,0.6,0.3,0.8s0.5,0.3,0.8,0.3h9.9c0.3,0,0.6-0.1,0.8-0.3
		s0.3-0.5,0.3-0.8V3.1C158.9,3.3,158.7,3.5,158.4,3.7L158.4,3.7z"/>
</g>
<path fill="#009FE3" d="M253.16,8.376c1.031-0.866,1.702-2.148,1.702-3.597c0-2.635-2.116-4.779-4.717-4.779
	s-4.717,2.144-4.717,4.779c0,1.449,0.671,2.731,1.702,3.597c-1.578,1.002-2.631,2.761-2.631,4.766V15h2v-1.858
	c0-2.01,1.636-3.646,3.646-3.646c2.011,0,3.646,1.636,3.646,3.646V15h2v-1.858C255.792,11.137,254.739,9.378,253.16,8.376z
	 M247.429,4.779c0-1.506,1.244-2.779,2.717-2.779s2.717,1.272,2.717,2.779c0,1.498-1.219,2.717-2.717,2.717
	S247.429,6.277,247.429,4.779z"/>
<g>
	<g>
		<g>
			<path fill="#333333" d="M265.046,2.009l-4.462,3.679c0,0.005-0.001,0.013-0.004,0.023c-0.002,0.01-0.004,0.017-0.004,0.023v3.724
				c0,0.135,0.048,0.251,0.147,0.349c0.098,0.099,0.214,0.148,0.349,0.148h2.98V6.976h1.987v2.98h2.98
				c0.135,0,0.251-0.049,0.349-0.147c0.099-0.098,0.148-0.215,0.148-0.349V5.735c0-0.021-0.003-0.036-0.008-0.047L265.046,2.009z"/>
		</g>
		<g>
			<path fill="#333333" d="M271.215,4.85l-1.699-1.412V0.271c0-0.073-0.023-0.132-0.07-0.178c-0.047-0.047-0.106-0.07-0.178-0.07
				h-1.491c-0.073,0-0.132,0.023-0.178,0.07c-0.047,0.047-0.07,0.107-0.07,0.178v1.513l-1.893-1.582
				C265.47,0.068,265.273,0,265.047,0c-0.228,0-0.425,0.068-0.589,0.202l-5.58,4.649c-0.051,0.042-0.08,0.097-0.085,0.167
				c-0.005,0.07,0.013,0.131,0.054,0.183l0.481,0.574c0.042,0.047,0.096,0.076,0.163,0.085c0.062,0.005,0.125-0.014,0.187-0.054
				l5.37-4.477l5.37,4.477c0.042,0.036,0.096,0.054,0.163,0.054h0.023c0.067-0.011,0.121-0.039,0.163-0.085l0.482-0.575
				c0.041-0.051,0.059-0.112,0.054-0.182C271.295,4.947,271.266,4.892,271.215,4.85L271.215,4.85z"/>
		</g>
	</g>
</g>
<g>
	<g>
		<path fill="#30A041" d="M253.04,30.094l-1.947-1.947l-1.26,1.257l3.288,3.289l7.045-7.045l-1.338-1.341L253.04,30.094z
			 M253.121,31.049"/>
	</g>
	<g>
		<path fill="#30A041" d="M254.999,39c-5.79,0-10.5-4.71-10.5-10.5c0-5.79,4.71-10.5,10.5-10.5c5.789,0,10.5,4.71,10.5,10.5
			C265.499,34.29,260.789,39,254.999,39z M254.999,20.278c-4.534,0-8.222,3.688-8.222,8.222c0,4.534,3.688,8.222,8.222,8.222
			c4.533,0,8.221-3.688,8.221-8.222C263.221,23.966,259.533,20.278,254.999,20.278z"/>
	</g>
</g>
<g>
	<g>
		<path fill="#808080" d="M278.998,39c-5.79,0-10.5-4.71-10.5-10.5c0-5.79,4.71-10.5,10.5-10.5c5.789,0,10.5,4.71,10.5,10.5
			C289.498,34.29,284.788,39,278.998,39z M278.998,20.278c-4.534,0-8.222,3.688-8.222,8.222c0,4.534,3.688,8.222,8.222,8.222
			c4.533,0,8.222-3.688,8.222-8.222C287.22,23.966,283.532,20.278,278.998,20.278z"/>
	</g>
	<rect x="274.342" y="27.397" fill="#808080" width="9.312" height="2.206"/>
</g>
<g>
	<g>
		<path fill="#E83841" d="M302.996,39c-5.79,0-10.5-4.71-10.5-10.5c0-5.79,4.71-10.5,10.5-10.5c5.789,0,10.5,4.71,10.5,10.5
			C313.496,34.29,308.786,39,302.996,39z M302.996,20.278c-4.534,0-8.222,3.688-8.222,8.222c0,4.534,3.688,8.222,8.222,8.222
			c4.533,0,8.222-3.688,8.222-8.222C311.218,23.966,307.53,20.278,302.996,20.278z"/>
	</g>
	<g>
		<path fill="#E83841" d="M302.101,26.92c0,0.723-0.163,1.284-0.489,1.68c-0.325,0.396-0.789,0.595-1.391,0.595
			c-0.566,0-1.014-0.205-1.344-0.614c-0.33-0.41-0.496-0.963-0.496-1.66c0-0.724,0.161-1.28,0.484-1.67
			c0.322-0.39,0.775-0.585,1.356-0.585c0.576,0,1.033,0.202,1.372,0.607C301.932,25.677,302.101,26.226,302.101,26.92z
			 M299.866,26.94c0,0.378,0.031,0.651,0.094,0.819c0.063,0.168,0.156,0.252,0.281,0.252c0.125,0,0.218-0.082,0.279-0.247
			c0.06-0.164,0.091-0.439,0.091-0.824c0-0.378-0.031-0.651-0.091-0.819c-0.061-0.168-0.154-0.252-0.279-0.252
			c-0.128,0-0.223,0.085-0.284,0.256S299.866,26.568,299.866,26.94z M305.698,24.769l-4.001,7.213h-1.465l4.001-7.213H305.698z
			 M307.587,29.791c0,0.72-0.164,1.279-0.491,1.675c-0.327,0.396-0.79,0.594-1.389,0.594c-0.566,0-1.014-0.205-1.344-0.614
			c-0.331-0.409-0.496-0.961-0.496-1.655c0-0.723,0.161-1.28,0.484-1.67c0.322-0.39,0.775-0.585,1.357-0.585
			c0.575,0,1.033,0.203,1.371,0.607C307.417,28.548,307.587,29.097,307.587,29.791z M305.352,29.811
			c0,0.378,0.031,0.651,0.094,0.819c0.062,0.168,0.156,0.252,0.282,0.252c0.141,0,0.239-0.096,0.293-0.289
			c0.054-0.192,0.082-0.453,0.082-0.782c0-0.329-0.027-0.59-0.082-0.782c-0.054-0.192-0.152-0.289-0.293-0.289
			c-0.129,0-0.223,0.086-0.284,0.257S305.352,29.439,305.352,29.811z"/>
	</g>
</g>
<g>
	<g>
		<g>
			<path fill="#FFC107" d="M350.996,39c-5.79,0-10.5-4.71-10.5-10.5c0-5.79,4.71-10.5,10.5-10.5c5.789,0,10.5,4.71,10.5,10.5
				C361.496,34.29,356.786,39,350.996,39z M350.996,20.278c-4.534,0-8.222,3.688-8.222,8.222c0,4.534,3.688,8.222,8.222,8.222
				c4.533,0,8.222-3.688,8.222-8.222C359.218,23.966,355.53,20.278,350.996,20.278z"/>
		</g>
	</g>
	<g>
		<path fill="#FFC107" d="M355.349,25.888c-0.481,0-0.871,0.39-0.871,0.87c0,0.091,0.015,0.182,0.044,0.269l-0.706,0.449
			c-0.465,0.296-1.078,0.198-1.427-0.229l-0.692-0.847c0.11-0.148,0.17-0.328,0.17-0.513c0-0.481-0.39-0.87-0.871-0.87
			s-0.871,0.39-0.871,0.87c0,0.185,0.06,0.364,0.17,0.513l-0.692,0.847c-0.349,0.426-0.962,0.524-1.426,0.229l-0.706-0.449
			c0.029-0.087,0.043-0.177,0.044-0.269c0-0.481-0.39-0.871-0.87-0.871c-0.481,0-0.871,0.39-0.871,0.87
			c0,0.451,0.345,0.828,0.794,0.867l0.514,3.086c0.017,0.105,0.108,0.182,0.215,0.182h7.399c0.106,0,0.197-0.077,0.215-0.182
			l0.514-3.086c0.479-0.043,0.832-0.466,0.789-0.945C356.174,26.233,355.799,25.889,355.349,25.888z"/>
		<ellipse fill="#FFA000" cx="350.997" cy="30.676" rx="3.7" ry="1.088"/>
		<path fill="#FFD54F" d="M350.997,31.982c-1.947,0-3.917-0.448-3.917-1.306c0-0.857,1.97-1.306,3.917-1.306
			c1.947,0,3.917,0.448,3.917,1.306C354.914,31.533,352.944,31.982,350.997,31.982z M350.997,29.806
			c-2.286,0-3.482,0.566-3.482,0.87s1.196,0.871,3.482,0.871s3.482-0.566,3.482-0.871S353.283,29.806,350.997,29.806z"/>
	</g>
</g>
<g>
	<g>
		<path fill="#009FE3" d="M326.971,38.988c-0.35,0-0.7-0.14-0.979-0.35l-2.029-1.889c-0.07-0.07-0.07-0.07-0.14-0.07l-2.729,0.14
			c-0.7,0-1.399-0.49-1.469-1.259l-0.35-2.729c0-0.07-0.07-0.14-0.07-0.14l-2.169-1.679c-0.56-0.49-0.7-1.259-0.35-1.889
			l1.469-2.309c0-0.07,0.07-0.14,0-0.14l-0.56-2.729c-0.14-0.84,0.28-1.539,0.979-1.749l2.589-0.84c0.07,0,0.07-0.07,0.14-0.14
			l1.259-2.449c0.35-0.63,1.119-0.979,1.819-0.63l2.519,1.049c0.07,0,0.14,0,0.14,0l2.519-1.049c0.7-0.28,1.469,0,1.819,0.7
			l1.259,2.449c0,0.07,0.07,0.07,0.14,0.14l2.589,0.77c0.7,0.21,1.119,0.979,0.979,1.679l-0.56,2.729c0,0.07,0,0.14,0,0.14
			l1.469,2.309c0.42,0.63,0.28,1.469-0.35,1.889l-2.169,1.749c0,0-0.07,0.07-0.07,0.14l-0.35,2.729
			c-0.07,0.77-0.77,1.259-1.469,1.259l-2.729-0.14c-0.07,0-0.14,0-0.14,0.07l-2.029,1.889
			C327.671,38.848,327.321,38.988,326.971,38.988z M324.011,35.079c0.329,0,0.658,0.132,0.922,0.329l1.909,1.777
			c0.066,0.066,0.198,0.066,0.263,0l1.909-1.777c0.263-0.263,0.592-0.395,0.987-0.329l2.567,0.132c0.066,0,0.198-0.066,0.198-0.197
			l0.329-2.567c0.066-0.329,0.197-0.658,0.527-0.922l2.041-1.58c0.066-0.066,0.132-0.197,0.066-0.263l0,0l-1.382-2.172
			c-0.198-0.329-0.263-0.658-0.198-0.987l0.527-2.567c0-0.132-0.066-0.197-0.132-0.263l-2.436-0.79
			c-0.329-0.132-0.592-0.329-0.79-0.658l-1.185-2.304c-0.066-0.066-0.198-0.132-0.263-0.066l-2.37,0.987
			c-0.329,0.132-0.658,0.132-0.987,0l-2.37-0.987c-0.132-0.066-0.198,0-0.263,0.066l-1.185,2.304
			c-0.132,0.329-0.461,0.527-0.79,0.658l-2.436,0.79c-0.132,0.066-0.132,0.132-0.132,0.263l0.527,2.567
			c0.066,0.329,0,0.724-0.197,0.987l-1.382,2.172c-0.066,0.066-0.066,0.198,0.066,0.263l2.041,1.58
			c0.263,0.198,0.461,0.527,0.527,0.922l0.329,2.567c0,0.132,0.132,0.197,0.198,0.197L324.011,35.079L324.011,35.079z"/>
	</g>
	<g>
		<polygon fill="#009FE3" points="324.942,31.432 322.844,29.893 323.683,31.921 323.123,32.201 321.794,29.053 322.424,28.773 
			324.593,30.312 323.683,28.213 324.243,28.004 325.572,31.152 		"/>
		<polygon fill="#009FE3" points="326.272,30.802 324.942,27.724 327.181,26.674 327.461,27.234 325.782,27.934 326.062,28.633 
			327.601,28.004 327.811,28.493 326.272,29.193 326.622,30.032 328.371,29.263 328.581,29.823 		"/>
		<polygon fill="#009FE3" points="331.519,28.563 329.84,26.464 330.26,29.053 329.56,29.403 327.531,26.534 328.161,26.254 
			329.49,28.213 329.14,25.835 329.91,25.485 331.379,27.444 330.959,25.065 331.589,24.785 332.149,28.283 		"/>
	</g>
</g>
<g>
	<g id="Printer_2_">
		<g>
			<path fill="#009FE3" d="M272.323,46.62h-2.637V42h-13.184v4.62h-2.637c-0.633,0-1.266,0.525-1.266,1.26v10.5
				c0,0.735,0.633,1.26,1.266,1.26h2.637V63h13.184v-3.255h2.637c0.738,0,1.266-0.63,1.266-1.26v-10.5
				C273.694,47.145,273.061,46.62,272.323,46.62z M258.506,43.995h9.176v2.625h-9.176V43.995z M267.788,61.005h-9.281v-4.62h9.176
				v4.62H267.788z M271.69,57.75h-2.004v-3.255h-13.184v3.255h-1.898v-9.24h17.086V57.75z M269.686,49.875h-2.004v1.995h2.004
				V49.875z"/>
		</g>
	</g>
</g>
<g>
	<rect x="282.957" y="42" fill="#009EE3" width="15.643" height="3.281"/>
	<rect x="282.957" y="49.859" fill="#009EE3" width="15.643" height="3.281"/>
	<rect x="282.957" y="57.718" fill="#009EE3" width="15.643" height="3.281"/>
	<rect x="276.6" y="42" fill="#009EE3" width="3.169" height="3.281"/>
	<rect x="276.6" y="49.859" fill="#009EE3" width="3.169" height="3.281"/>
	<rect x="276.6" y="57.718" fill="#009EE3" width="3.169" height="3.281"/>
</g>
<path fill="#30A041" d="M323.418,65.771h-12.635v-1.622h5.506V49.347c-1.123-0.249-2.057-1.009-2.545-2.021l-3.976,0.67l4.348,8.359
	c0.023,0.069,0.036,0.127,0.043,0.164l0.038,0.269c0,3.472-2.827,6.297-6.301,6.297c-3.472,0-6.297-2.825-6.297-6.297l0.038-0.269
	c0.007-0.035,0.019-0.09,0.04-0.154l0.09-0.203l3.901-7.475l-0.719,0.121l-0.27-1.599l8.699-1.466c0-0.008,0-0.017,0-0.025
	c0-2.05,1.668-3.718,3.717-3.718c1.648,0,3.048,1.077,3.535,2.565l8.768-1.48l0.27,1.599l-1.583,0.267l4.446,8.568
	c0.02,0.062,0.03,0.115,0.037,0.15l0.032,0.239c0,3.474-2.826,6.301-6.3,6.301c-3.472,0-6.298-2.827-6.298-6.301l0.036-0.252
	c0.005-0.032,0.019-0.105,0.052-0.195l0.051-0.119l4.029-7.728l-3.385,0.571c-0.196,1.559-1.363,2.821-2.873,3.161v14.804h5.506
	V65.771z M303.291,57.593c0.382,2.195,2.302,3.87,4.605,3.87c2.333,0,4.273-1.715,4.622-3.949L303.291,57.593z M321.695,54.716
	c0.384,2.196,2.304,3.869,4.605,3.869c2.31,0,4.234-1.683,4.611-3.887L321.695,54.716z M307.675,48.349l-3.976,7.618l8.364-0.072
	l-3.977-7.615L307.675,48.349z M326.176,45.273l-4.076,7.821l8.396-0.018l-4.092-7.841L326.176,45.273z M317.095,43.622
	c-1.155,0-2.095,0.94-2.095,2.096c0,1.155,0.94,2.095,2.095,2.095c1.156,0,2.096-0.94,2.096-2.095
	C319.19,44.562,318.25,43.622,317.095,43.622z"/>
<polygon fill="#30A041" points="280.75,0 278.858,0 278.858,4.554 274.304,4.554 274.304,6.446 278.858,6.446 278.858,11 280.75,11 
	280.75,6.446 285.304,6.446 285.304,4.554 280.75,4.554 "/>
</svg>
