<?xml version="1.0" encoding="utf-8"?>
<!-- Generator: Adobe Illustrator 24.0.2, SVG Export Plug-In . SVG Version: 6.00 Build 0)  -->
<svg version="1.1" id="Слой_1" xmlns="http://www.w3.org/2000/svg" xmlns:xlink="http://www.w3.org/1999/xlink" x="0px" y="0px"
	 width="488.83px" height="99.2px" viewBox="0 0 488.83 99.2" enable-background="new 0 0 488.83 99.2" xml:space="preserve">
<g>
	<g>
		<path fill="#009FE3" d="M451.5,20c0-11.045-8.955-20-20-20c-11.046,0-20,8.955-20,20s8.954,20,20,20
			C442.545,40,451.5,31.045,451.5,20z"/>
	</g>
</g>
<path fill="#333333" d="M14.8,13.6l-3.7-3.7C12,8.8,12.6,7.4,12.6,6c0-3.3-2.9-6-6.3-6S0,2.7,0,6.1s2.8,6.1,6.3,6.1
	c1.3,0,2.5-0.4,3.6-1.1l3.7,3.7c0.1,0.1,0.4,0.2,0.6,0.2c0.2,0,0.4-0.1,0.5-0.2C15.1,14.5,15.1,13.9,14.8,13.6L14.8,13.6z M6.3,1.6
	c2.6,0,4.6,2,4.6,4.5s-2.1,4.5-4.6,4.5s-4.6-2-4.6-4.5S3.7,1.6,6.3,1.6L6.3,1.6z"/>
<path fill="#009FE3" d="M32.8,13.7L29.1,10c0.9-1.1,1.5-2.5,1.5-3.9c0-3.3-2.8-6.1-6.3-6.1S18,2.8,18,6.2s2.8,6.1,6.3,6.1
	c1.3,0,2.5-0.4,3.6-1.1l3.7,3.7c0.1,0.1,0.4,0.2,0.6,0.2s0.4-0.1,0.5-0.2C33.1,14.6,33.1,14,32.8,13.7L32.8,13.7z M24.3,1.7
	c2.6,0,4.6,2,4.6,4.5s-2.1,4.5-4.6,4.5s-4.6-2-4.6-4.5S21.7,1.7,24.3,1.7L24.3,1.7z"/>
<g>
	<path fill="#333333" d="M36,2.5c0-0.7,0.2-1.3,0.7-1.8S37.8,0,38.6,0s1.4,0.2,1.9,0.7s0.7,1.1,0.7,1.9v0.6c0,0.7-0.2,1.3-0.7,1.8
		s-1.1,0.7-1.9,0.7c-0.8,0-1.4-0.2-1.9-0.7C36.3,4.5,36,3.9,36,3.1V2.5z M37.6,3.1c0,0.3,0.1,0.6,0.3,0.8c0.2,0.2,0.4,0.3,0.8,0.3
		s0.6-0.1,0.7-0.3c0.1-0.2,0.3-0.5,0.3-0.8V2.5c0-0.3-0.1-0.6-0.3-0.8S39,1.4,38.6,1.4c-0.3,0-0.6,0.1-0.7,0.3
		c-0.2,0.2-0.3,0.5-0.3,0.8V3.1z M39.1,11.4l-1.2-0.6l5.9-9.4L45,1.9L39.1,11.4z M41.8,9.3c0-0.7,0.2-1.3,0.7-1.8s1.1-0.7,1.9-0.7
		c0.8,0,1.4,0.2,1.9,0.7C46.8,7.9,47,8.6,47,9.3v0.6c0,0.7-0.2,1.3-0.7,1.8s-1.1,0.7-1.9,0.7c-0.8,0-1.4-0.2-1.9-0.7
		s-0.7-1.1-0.7-1.8C41.8,9.9,41.8,9.3,41.8,9.3z M43.4,9.9c0,0.3,0.1,0.6,0.3,0.8s0.4,0.3,0.7,0.3c0.7,0,1-0.4,1-1.1V9.3
		c0-0.3-0.1-0.6-0.3-0.8s-0.4-0.3-0.7-0.3s-0.6,0.1-0.7,0.3c-0.2,0.2-0.3,0.5-0.3,0.8V9.9z"/>
</g>
<rect x="50" y="0" fill="#FFFFFF" width="16" height="2"/>
<rect x="50" y="5" fill="#FFFFFF" width="16" height="2"/>
<rect x="50" y="10" fill="#FFFFFF" width="16" height="2"/>
<g>
	<rect x="153.6" y="75.2" fill="#009FE3" width="20" height="3"/>
	<rect x="153.6" y="68.2" fill="#009FE3" width="20" height="3"/>
	<rect x="153.6" y="61.2" fill="#009FE3" width="20" height="3"/>
</g>
<g>
	<rect x="153.6" y="95.2" fill="#FFFFFF" width="20" height="3"/>
	<rect x="153.6" y="88.2" fill="#FFFFFF" width="20" height="3"/>
	<rect x="153.6" y="81.2" fill="#FFFFFF" width="20" height="3"/>
</g>
<g>
	<path fill="#009FE3" d="M69,2.5c0-0.7,0.2-1.3,0.7-1.8s1.2-0.7,2-0.7s1.4,0.2,1.9,0.7s0.7,1.1,0.7,1.9v0.6c0,0.7-0.2,1.3-0.7,1.8
		s-1.1,0.7-1.9,0.7S70.3,5.5,69.8,5S69,3.9,69,3.1V2.5z M70.6,3.1c0,0.3,0.1,0.6,0.3,0.8c0.2,0.2,0.4,0.3,0.8,0.3s0.6-0.1,0.7-0.3
		c0.1-0.2,0.3-0.5,0.3-0.8V2.5c0-0.3-0.1-0.6-0.3-0.8S72,1.4,71.7,1.4S71.1,1.5,71,1.7c-0.2,0.2-0.3,0.5-0.3,0.8L70.6,3.1L70.6,3.1z
		 M72.2,11.4L71,10.7l5.9-9.4l1.2,0.6L72.2,11.4z M74.8,9.3c0-0.7,0.2-1.3,0.7-1.8s1.2-0.7,1.9-0.7c0.8,0,1.4,0.2,1.9,0.7
		S80,8.6,80,9.4V10c0,0.7-0.2,1.3-0.7,1.8s-1.1,0.7-1.9,0.7s-1.4-0.2-1.9-0.7s-0.7-1.1-0.7-1.8V9.3z M76.4,9.9
		c0,0.3,0.1,0.6,0.3,0.8s0.4,0.3,0.7,0.3c0.7,0,1-0.4,1-1.1V9.3c0-0.3-0.1-0.6-0.3-0.8c-0.2-0.2-0.4-0.3-0.7-0.3s-0.6,0.1-0.7,0.3
		c-0.2,0.2-0.3,0.5-0.3,0.8V9.9z"/>
</g>
<polygon fill="#FFFFFF" points="95.1,1.3 93.8,0 89.1,4.7 84.4,0 83.1,1.3 87.8,6 83.1,10.7 84.4,12 89.1,7.3 93.8,12 95.1,10.7 
	90.4,6 "/>
<g>
	<path fill="#009FE3" d="M40,38.2c0-11-9-20-20-20s-20,9-20,20s9,20,20,20S40,49.2,40,38.2z M1.8,38.2C1.8,28.2,10,20,20,20
		s18.2,8.1,18.2,18.2S30,56.4,20,56.4S1.8,48.2,1.8,38.2z"/>
	<path fill="#009FE3" d="M21,50.5h-3.7c-0.6,0-1.1-0.5-1.1-1.1V41H14c-0.6,0-1.1-0.5-1.1-1.1v-3.6c0-0.6,0.5-1.1,1.1-1.1h2.2v-1.8
		c0-1.8,0.6-3.3,1.6-4.4c1.1-1.1,2.5-1.7,4.3-1.7h2.8c0.6,0,1.1,0.5,1.1,1.1v3.3c0,0.6-0.5,1.1-1.1,1.1L23,33
		c-0.6,0-0.7,0.1-0.8,0.2c-0.1,0.1-0.1,0.2-0.1,0.7v1.4h2.6c0.2,0,0.4,0,0.6,0.1c0.4,0.2,0.6,0.6,0.6,1V40c0,0.6-0.5,1.1-1.1,1.1
		h-2.6v8.3C22.1,50,21.6,50.5,21,50.5z M17.5,49.2h3.2v-8.7c0-0.4,0.3-0.7,0.7-0.7h3v-3.1h-3c-0.4,0-0.7-0.3-0.7-0.7v-2
		c0-0.5,0.1-1.1,0.5-1.6c0.5-0.5,1.2-0.6,1.8-0.6h1.7v-2.9h-2.6c-2.8,0-4.5,1.8-4.5,4.7V36c0,0.4-0.3,0.7-0.7,0.7h-2.5v3.1h2.5
		c0.4,0,0.7,0.3,0.7,0.7v8.7H17.5z M24.9,28.8L24.9,28.8L24.9,28.8z"/>
</g>
<g>
	<path fill="#009FE3" d="M83,38.2c0-11-9-20-20-20s-20,9-20,20s9,20,20,20S83,49.2,83,38.2z M44.8,38.2C44.8,28.2,53,20,63,20
		s18.2,8.1,18.2,18.2S73,56.4,63,56.4S44.8,48.2,44.8,38.2z"/>
	<g>
		<path fill="#009FE3" d="M70.5,43.3c0-0.2,0-0.3-0.1-0.4c-0.1-0.1-0.2-0.1-0.4-0.1c-0.2,0-0.3,0-0.4,0.1s-0.1,0.2-0.1,0.4v0.5h1.1
			L70.5,43.3L70.5,43.3z"/>
		<path fill="#009FE3" d="M64.9,43h-0.3l-0.3,0.1V46c0.1,0.1,0.2,0.1,0.3,0.2h0.3c0.2,0,0.3,0,0.4-0.1s0.1-0.2,0.1-0.3v-2.4
			c0-0.2,0-0.3-0.1-0.4C65.2,43,65,43,64.9,43z"/>
		<polygon fill="#009FE3" points="57.3,35.7 58.8,35.7 58.8,32.1 60.5,27 59,27 58.1,30.5 58,30.5 57,27 55.5,27 57.3,32.2 		"/>
		<path fill="#009FE3" d="M62.5,35.7c0.6,0,1.1-0.2,1.5-0.5s0.5-0.7,0.5-1.2v-3c0-0.4-0.2-0.8-0.5-1.1c-0.4-0.3-0.8-0.4-1.4-0.4
			c-0.6,0-1.1,0.1-1.5,0.4s-0.6,0.6-0.6,1.1v3c0,0.5,0.2,0.9,0.5,1.2C61.4,35.5,61.9,35.7,62.5,35.7z M61.9,31.1
			c0-0.1,0.1-0.2,0.2-0.3c0.1-0.1,0.3-0.1,0.5-0.1s0.4,0,0.5,0.1s0.2,0.2,0.2,0.3V34c0,0.1-0.1,0.3-0.2,0.3
			c-0.1,0.1-0.3,0.1-0.5,0.1s-0.4,0-0.5-0.1s-0.2-0.2-0.2-0.3V31.1z"/>
		<path fill="#009FE3" d="M66.7,35.7c0.2,0,0.4-0.1,0.7-0.3c0.2-0.1,0.5-0.3,0.7-0.6v0.7h1.2v-6.1h-1.2V34c-0.1,0.1-0.2,0.2-0.4,0.3
			c-0.1,0.1-0.2,0.1-0.3,0.1c-0.1,0-0.2,0-0.2-0.1s-0.1-0.2-0.1-0.3v-4.7h-1.2v5.1c0,0.4,0.1,0.6,0.2,0.8
			C66.2,35.5,66.4,35.7,66.7,35.7z"/>
		<path fill="#009FE3" d="M70.1,38.2H55.9c-2.3,0-4.1,1.8-4.1,3.9v3.3c0,2.2,1.8,3.9,4.1,3.9h14.3c2.3,0,4.1-1.8,4.1-3.9v-3.3
			C74.2,40,72.4,38.2,70.1,38.2z M58,41.6h-1.3v5.2h-1.2v-5.2h-1.3v-0.9H58V41.6z M61.8,46.9h-1.3v-0.5c-0.2,0.2-0.5,0.4-0.8,0.5
			s-0.5,0.2-0.8,0.2s-0.5-0.1-0.7-0.2S58,46.5,58,46.2V42h1.3v3.8c0,0.1,0,0.2,0.1,0.3s0.1,0.1,0.3,0.1c0.1,0,0.2,0,0.4-0.1
			c0.1-0.1,0.3-0.2,0.4-0.3V42h1.3V46.9z M66.7,46c0,0.3-0.1,0.6-0.3,0.7c-0.2,0.2-0.5,0.3-0.9,0.3c-0.3,0-0.5,0-0.7-0.1
			s-0.4-0.2-0.6-0.3v0.3H63v-6.2h1.3v2c0.2-0.1,0.4-0.2,0.6-0.3s0.4-0.1,0.6-0.1c0.4,0,0.7,0.1,0.9,0.3c0.2,0.2,0.3,0.5,0.3,0.9
			C66.7,43.5,66.7,46,66.7,46z M71.7,45.5c0,0.5-0.2,0.9-0.5,1.1c-0.3,0.2-0.8,0.4-1.4,0.4s-1-0.1-1.3-0.4C68.2,46.3,68,46,68,45.5
			v-2.1c0-0.4,0.2-0.7,0.5-1c0.4-0.3,0.8-0.4,1.4-0.4s1,0.1,1.3,0.4c0.3,0.2,0.5,0.6,0.5,1v1.2h-2.4v0.9c0,0.2,0,0.4,0.1,0.5
			s0.2,0.1,0.4,0.1c0.2,0,0.4,0,0.4-0.1c0.1-0.1,0.1-0.3,0.1-0.5v-0.2h1.3L71.7,45.5L71.7,45.5z"/>
	</g>
</g>
<path fill="#009FE3" d="M106,18.2c-11,0-20,9-20,20s9,20,20,20s20-9,20-20S117,18.2,106,18.2z M110.7,31.8H109
	c-0.6,0-1.3,0.1-1.8,0.6c-0.4,0.5-0.5,1.1-0.5,1.6v2c0,0.4,0.3,0.7,0.7,0.7h3v3.1h-3c-0.4,0-0.7,0.3-0.7,0.7v8.7h-3.1v-8.7
	c0-0.4-0.3-0.7-0.7-0.7h-2.5v-3.1h2.5c0.4,0,0.7-0.3,0.7-0.7v-2.4c0-2.9,1.7-4.7,4.5-4.7h2.6V31.8z"/>
<polygon fill="#009FE3" points="144,40.7 140.2,40.7 140.2,41.6 141.5,41.6 141.5,46.8 142.7,46.8 142.7,41.6 144,41.6 "/>
<path fill="#009FE3" d="M146.5,45.8c-0.1,0.1-0.3,0.2-0.4,0.3c-0.2,0.1-0.3,0.1-0.4,0.1c-0.2,0-0.2,0-0.3-0.1s-0.1-0.2-0.1-0.3V42
	H144v4.2c0,0.3,0,0.6,0.2,0.7s0.4,0.2,0.7,0.2s0.5-0.1,0.8-0.2s0.6-0.3,0.8-0.5v0.5h1.3V42h-1.3V45.8z"/>
<path fill="#009FE3" d="M151.5,42.3c-0.2,0-0.4,0-0.6,0.1c-0.2,0.1-0.4,0.2-0.6,0.3v-2H149v6.2h1.2v-0.3c0.2,0.1,0.4,0.2,0.6,0.3
	s0.4,0.1,0.7,0.1c0.4,0,0.7-0.1,0.9-0.3c0.2-0.1,0.3-0.4,0.3-0.7v-2.5c0-0.4-0.1-0.7-0.3-0.9C152.2,42.4,151.9,42.3,151.5,42.3z
	 M151.4,45.8c0,0.1,0,0.2-0.1,0.3s-0.2,0.1-0.4,0.1h-0.3c-0.1-0.1-0.2-0.1-0.3-0.2v-2.9l0.3-0.1h0.3c0.1,0,0.3,0,0.4,0
	c0.1,0.1,0.1,0.2,0.1,0.4V45.8z"/>
<path fill="#009FE3" d="M149,18.2c-11,0-20,9-20,20s9,20,20,20s20-9,20-20S160,18.2,149,18.2z M151.9,29.3h1.2V34
	c0,0.1,0.1,0.2,0.1,0.3s0.1,0.1,0.2,0.1c0.1,0,0.2,0,0.3-0.1c0.2-0.1,0.3-0.2,0.4-0.3v-4.6h1.2v6.1h-1.2v-0.7
	c-0.2,0.3-0.5,0.5-0.7,0.6c-0.3,0.2-0.5,0.3-0.7,0.3c-0.3,0-0.5-0.2-0.6-0.5c-0.1-0.2-0.2-0.4-0.2-0.8V29.3z M147.1,29.9
	c0.4-0.3,0.9-0.4,1.5-0.4s1,0.1,1.4,0.4c0.3,0.3,0.5,0.7,0.5,1.1v3c0,0.5-0.1,0.9-0.5,1.2s-0.9,0.5-1.5,0.5s-1.1-0.2-1.5-0.5
	c-0.3-0.3-0.5-0.7-0.5-1.2v-3C146.5,30.5,146.7,30.2,147.1,29.9z M143,27l1,3.5h0.1L145,27h1.5l-1.7,5.1v3.6h-1.5v-3.5l-1.8-5.2
	C141.5,27,143,27,143,27z M160.3,45.4c0,2.1-1.8,3.9-4.1,3.9h-14.3c-2.3,0-4.1-1.7-4.1-3.9v-3.3c0-2.1,1.8-3.9,4.1-3.9h14.2
	c2.3,0,4.1,1.8,4.2,3.9L160.3,45.4L160.3,45.4z"/>
<path fill="#009FE3" d="M157.2,42.4c-0.3-0.3-0.7-0.4-1.3-0.4s-1,0.1-1.4,0.4c-0.3,0.3-0.5,0.6-0.5,1v2.1c0,0.5,0.2,0.8,0.5,1.1
	s0.7,0.4,1.3,0.4s1.1-0.2,1.4-0.4s0.5-0.6,0.5-1.1h-0.1v-0.2h-1.3v0.2c0,0.2,0,0.4-0.1,0.5c0,0.1-0.2,0.1-0.4,0.1s-0.3,0-0.4-0.1
	c-0.1-0.1-0.1-0.3-0.1-0.5v-0.9h2.4v-1.2C157.7,43,157.5,42.6,157.2,42.4z M156.6,43.8h-1.1v-0.5c0-0.2,0-0.3,0.1-0.4
	c0.1-0.1,0.2-0.1,0.4-0.1s0.3,0,0.4,0.1c0.1,0.1,0.1,0.2,0.1,0.4h0.1V43.8z"/>
<path fill="#009FE3" d="M148.6,34.4c0.2,0,0.4,0,0.5-0.1c0.1,0,0.2-0.2,0.2-0.3v-2.9c0-0.1-0.1-0.2-0.2-0.3
	c-0.1-0.1-0.3-0.1-0.5-0.1s-0.4,0-0.5,0.1s-0.2,0.2-0.2,0.3V34c0,0.1,0.1,0.2,0.2,0.3C148.2,34.4,148.4,34.4,148.6,34.4z"/>
<g>
	<path fill="#009FE3" d="M114.1,5.7c0-3.2-2.7-5.7-6-5.7s-6,2.6-6,5.7c0,1.3,0.6,2.3,1.1,3.4c0.9,1.8,2.7,4.7,3.6,6.2
		c0.2,0.4,0.8,0.7,1.4,0.7s1.1-0.3,1.4-0.7c0.9-1.5,2.4-4,3.5-6.2C113.5,8,114.1,7,114.1,5.7L114.1,5.7z M108.1,3.9
		c1.1,0,2,0.8,2,1.9c0,1-0.9,1.9-2,1.9s-2-0.8-2-1.9S107,3.9,108.1,3.9L108.1,3.9z"/>
</g>
<g>
	<path fill="#009FE3" d="M138.1,0c-3.3,0-6,2.7-6,6s2.7,6,6,6s6-2.7,6-6S141.4,0,138.1,0L138.1,0z M138.1,10.2
		c-2.3,0-4.2-1.9-4.2-4.2s1.9-4.2,4.2-4.2s4.2,1.9,4.2,4.2S140.4,10.2,138.1,10.2L138.1,10.2z"/>
	<path fill="#009FE3" d="M141,6h-2.4V3c0-0.2-0.2-0.4-0.4-0.4s-0.4,0.2-0.4,0.4v3.4c0,0.2,0.2,0.4,0.4,0.4h2.9
		c0.2,0,0.4-0.2,0.4-0.4C141.4,6.2,141.2,6,141,6L141,6z"/>
</g>
<path fill="#009FE3" d="M129.1,9.7c0,0.2,0,0.4-0.2,0.5l-1.7,1.7c-0.1,0.1-0.2,0.2-0.3,0.2c-0.1,0.1-0.2,0.1-0.4,0.1c0,0,0,0-0.1,0
	c0,0-0.1,0-0.2,0c-0.2,0-0.4,0-0.8-0.1s-0.8-0.2-1.3-0.4s-1.1-0.5-1.8-1c-0.7-0.4-1.4-1-2.1-1.8c-0.6-0.6-1.1-1.1-1.5-1.7
	c-0.4-0.5-0.7-1-0.9-1.5c-0.2-0.5-0.4-0.9-0.5-1.2c-0.1-0.4-0.2-0.7-0.2-1S117,3,117,2.9c0-0.2,0-0.2,0-0.3s0.1-0.2,0.1-0.4
	c0.1-0.1,0.1-0.2,0.2-0.3l1.7-1.7c0.1-0.1,0.3-0.2,0.4-0.2s0.2,0,0.3,0.1c0.1,0.1,0.2,0.1,0.2,0.2l1.4,2.6c0.1,0.1,0.1,0.3,0.1,0.4
	c0,0.2-0.1,0.3-0.2,0.4l-0.6,0.6c0,0,0,0,0,0.1v0.1c0,0.2,0.1,0.4,0.2,0.6s0.3,0.5,0.5,0.7c0.2,0.3,0.5,0.6,0.9,1s0.7,0.7,1,0.9
	c0.3,0.2,0.5,0.4,0.7,0.5s0.4,0.2,0.5,0.2h0.2c0,0,0,0,0.1,0h0.1l0.7-0.7c0.2-0.1,0.3-0.2,0.5-0.2c0.1,0,0.3,0,0.3,0.1l0,0l2.5,1.4
	C129,9.4,129.1,9.5,129.1,9.7L129.1,9.7z"/>
<path fill="#333333" d="M329.4,9.7c0,0.2,0,0.4-0.2,0.5l-1.7,1.7c-0.1,0.1-0.2,0.2-0.3,0.2c-0.1,0.1-0.2,0.1-0.4,0.1c0,0,0,0-0.1,0
	c0,0-0.1,0-0.2,0c-0.2,0-0.4,0-0.8-0.1s-0.8-0.2-1.3-0.4s-1.1-0.5-1.8-1c-0.7-0.4-1.4-1-2.1-1.8c-0.6-0.6-1.1-1.1-1.5-1.7
	c-0.4-0.5-0.7-1-0.9-1.5c-0.2-0.5-0.4-0.9-0.5-1.2c-0.1-0.4-0.2-0.7-0.2-1s-0.1-0.5-0.1-0.6c0-0.2,0-0.2,0-0.3s0.1-0.2,0.1-0.4
	c0.1-0.1,0.1-0.2,0.2-0.3l1.7-1.7c0.1-0.1,0.3-0.2,0.4-0.2s0.2,0,0.3,0.1c0.1,0.1,0.2,0.1,0.2,0.2l1.4,2.6c0.1,0.1,0.1,0.3,0.1,0.4
	c0,0.2-0.1,0.3-0.2,0.4l-0.6,0.6c0,0,0,0,0,0.1v0.1c0,0.2,0.1,0.4,0.2,0.6s0.3,0.5,0.5,0.7c0.2,0.3,0.5,0.6,0.9,1s0.7,0.7,1,0.9
	c0.3,0.2,0.5,0.4,0.7,0.5s0.4,0.2,0.5,0.2h0.2c0,0,0,0,0.1,0h0.1l0.7-0.7c0.2-0.1,0.3-0.2,0.5-0.2c0.1,0,0.3,0,0.3,0.1l0,0l2.5,1.4
	C329.3,9.4,329.4,9.5,329.4,9.7L329.4,9.7z"/>
<path fill="#333333" d="M20.74,61.732c-0.391-0.391-1.076-0.391-1.565,0c-0.391,0.391-0.391,1.076,0,1.565l7.827,7.827H1.076
	C0.489,71.124,0,71.613,0,72.2s0.489,1.076,1.076,1.076h26.023l-7.827,7.827c-0.391,0.391-0.391,1.174,0,1.565s1.174,0.391,1.565,0
	l9.783-9.783c0.391-0.391,0.391-1.076,0-1.565L20.74,61.732z"/>
<path fill="#333333" d="M8.7,86.3c-0.2-0.2-0.5-0.2-0.7,0S7.8,86.8,8,87l3.3,3.3H0.5c-0.2,0-0.5,0.2-0.5,0.5s0.2,0.5,0.5,0.5h10.9
	l-3.3,3.3c-0.2,0.2-0.2,0.5,0,0.7s0.5,0.2,0.7,0l4.1-4.1c0.2-0.2,0.2-0.5,0-0.7L8.7,86.3z"/>
<path fill="#FFFFFF" d="M88.9,78.4c0.3,0.3,0.9,0.3,1.3,0c0.3-0.3,0.3-0.9,0-1.3l-6.3-6.3h20.8c0.5,0,0.9-0.4,0.9-0.9
	s-0.4-0.9-0.9-0.9H83.8l6.3-6.3c0.3-0.3,0.3-0.9,0-1.3c-0.3-0.3-0.9-0.3-1.3,0l-7.9,7.9c-0.3,0.3-0.3,0.9,0,1.3L88.9,78.4z"/>
<polygon fill="#333333" points="170.4,1.5 168.9,0 166.4,2.5 163.8,0 162.4,1.5 164.9,4 162.4,6.5 163.8,8 166.4,5.5 168.9,8 
	170.4,6.5 167.8,4 "/>
<g>
	<polygon fill="#333333" points="176.9,12 173.4,8.5 174.1,7.7 176.9,10.6 179.7,7.7 180.4,8.5 	"/>
	<polygon fill="#333333" points="179.7,4.3 176.9,1.4 174.1,4.3 173.4,3.5 176.9,0 180.4,3.5 	"/>
</g>
<g>
	<g id="filter">
		<path fill="#333333" d="M36.3,69.2H39v-1.6h-2.7V69.2z M31.6,61.2v1.6h12v-1.6H31.6z M33.6,66h8v-1.6h-8V66z"/>
	</g>
</g>
<g>
	<path fill="#009FE3" d="M57.8,72.4c-0.8,0-1.4,0.6-1.4,1.4s0.6,1.4,1.4,1.4s1.4-0.6,1.4-1.4S58.6,72.4,57.8,72.4z"/>
	<path fill="#009FE3" d="M50.8,72.4c-0.8,0-1.4,0.6-1.4,1.4s0.6,1.4,1.4,1.4c0.8,0,1.4-0.6,1.4-1.4S51.6,72.4,50.8,72.4z"/>
	<path fill="#009FE3" d="M51.6,68.9h5.2c0.6,0,1-0.3,1.2-0.7l2.5-4.5c0.1-0.1,0.1-0.2,0.1-0.4c0-0.4-0.3-0.7-0.7-0.7H49.5l-0.6-1.4
		h-2.3v1.4H48l2.5,5.3l-1,1.7c-0.1,0.2-0.1,0.5-0.1,0.7c0,0.8,0.6,1.4,1.4,1.4h8.4v-1.4h-8.1c-0.1,0-0.1-0.1-0.1-0.1v-0.1L51.6,68.9
		z M50.3,64.2c-0.1-0.2,0.1-0.5,0.3-0.5h7.7c0.3,0,0.4,0.3,0.3,0.5l-1.8,3c-0.1,0.1-0.2,0.2-0.3,0.2H52c-0.1,0-0.3-0.1-0.3-0.2
		L50.3,64.2z"/>
</g>
<g>
	<path fill="#009FE3" d="M146.8,76.4c-1.1,0-1.9,0.8-1.9,1.9s0.8,1.9,1.9,1.9s1.9-0.8,1.9-1.9C148.7,77.2,147.9,76.4,146.8,76.4z"/>
	<path fill="#009FE3" d="M137.2,76.4c-1.1,0-1.9,0.8-1.9,1.9s0.8,1.9,1.9,1.9c1.1,0,1.9-0.8,1.9-1.9
		C139.2,77.2,138.3,76.4,137.2,76.4z"/>
	<path fill="#009FE3" d="M138.3,71.6h7c0.8,0,1.4-0.4,1.6-0.9l3.4-6.2c0.2-0.2,0.2-0.3,0.2-0.5c0-0.5-0.4-0.9-0.9-0.9h-14.1
		l-0.8-1.9h-3.1v1.9h1.9l3.4,7.2l-1.4,2.3c-0.1,0.3-0.2,0.7-0.2,0.9c0,1.1,0.8,1.9,1.9,1.9h11.4v-1.9h-11.1c-0.1,0-0.2-0.1-0.2-0.2
		v-0.1L138.3,71.6z M136.5,65.2c-0.2-0.3,0.1-0.7,0.5-0.7h10.5c0.4,0,0.6,0.4,0.4,0.7l-2.4,4.1c-0.1,0.2-0.2,0.2-0.4,0.2h-6.2
		c-0.2,0-0.4-0.1-0.5-0.2L136.5,65.2z"/>
</g>
<g>
	<path fill="#FFFFFF" d="M74.8,72.4c-0.8,0-1.4,0.6-1.4,1.4s0.6,1.4,1.4,1.4s1.4-0.6,1.4-1.4C76.2,73,75.6,72.4,74.8,72.4z"/>
	<path fill="#FFFFFF" d="M67.8,72.4c-0.8,0-1.4,0.6-1.4,1.4s0.6,1.4,1.4,1.4s1.4-0.6,1.4-1.4C69.2,73,68.6,72.4,67.8,72.4z"/>
	<path fill="#FFFFFF" d="M68.6,68.9h5.2c0.6,0,1-0.3,1.2-0.7l2.5-4.5c0.1-0.1,0.1-0.2,0.1-0.4c0-0.4-0.3-0.7-0.7-0.7H66.5l-0.6-1.4
		h-2.3v1.4H65l2.5,5.3l-1,1.7c-0.1,0.2-0.1,0.5-0.1,0.7c0,0.8,0.6,1.4,1.4,1.4h8.4v-1.4h-8.1c-0.1,0-0.1-0.1-0.1-0.1v-0.1L68.6,68.9
		z M67.3,64.2c-0.1-0.2,0.1-0.5,0.3-0.5h7.7c0.3,0,0.4,0.3,0.3,0.5l-1.8,3c-0.1,0.1-0.2,0.2-0.3,0.2H69c-0.1,0-0.3-0.1-0.3-0.2
		L67.3,64.2z"/>
</g>
<g>
	<g>
		<g>
			<path fill="#FFFFFF" d="M118,71.6l-2.9-2.9l-1.9,1.9l4.9,4.9l10.5-10.6l-2-2L118,71.6z"/>
		</g>
	</g>
	<path fill="#FFFFFF" d="M118.3,79.3c-4.4-0.1-7.9-3.7-7.9-8.1c0-4.5,3.6-8.1,8-8.1v-1.9c-5.4,0-9.9,4.5-9.9,10
		c0,5.4,4.4,9.9,9.7,10l0,0h0.2c4.1,0,7.7-2.5,9.2-6.3l-1.7-0.7C124.7,77.3,121.7,79.3,118.3,79.3L118.3,79.3"/>
</g>
<g>
	<path fill="#FFFFFF" d="M199,18.6c-0.8,0-1.9-0.2-3-0.5c-2.2-0.8-4.9-2.4-7.1-4.6s-4-4.4-4.9-6.6s-0.8-4,0.2-4.9
		c0-0.2,0-0.3,0.2-0.3c0.8-0.8,1.9-1.7,3.4-1.7c1,0,1.9,0.5,2.7,1.5c2.5,2.7,1.5,4,0,5.2l0,0c0.2,0.3,0.5,1,2.5,2.9
		c1,1.2,1.9,1.9,2.4,2.2c0.3,0.3,0.5,0.3,0.7,0.3l0,0c1.5-1.3,2.7-2.2,5.7,0c1.2,0.7,1.7,1.5,1.7,2.4c0,1.3-1,2.2-1.7,2.9l-0.3,0.3
		C200.9,18.3,200,18.6,199,18.6z"/>
</g>
<g>
	<polygon fill="#74C253" points="187,29.9 185,29.9 185,34.6 180.3,34.6 180.3,36.6 185,36.6 185,41.3 187,41.3 187,36.6 
		191.7,36.6 191.7,34.6 187,34.6 	"/>
	<path fill="#74C253" d="M186,21.6c-7.7,0-14,6.3-14,14s6.3,14,14,14s14-6.3,14-14S193.7,21.6,186,21.6z M186,47.5
		c-6.6,0-11.9-5.3-11.9-11.9s5.4-11.9,11.9-11.9c6.6,0,11.9,5.4,11.9,11.9C197.9,42.2,192.6,47.5,186,47.5z"/>
</g>
<g>
	<path fill="#009FE3" d="M194.1,87.6c-9.6,0-17.5-7.8-17.5-17.5c0-9.6,7.9-17.5,17.5-17.5s17.5,7.8,17.5,17.5
		C211.6,79.7,203.7,87.6,194.1,87.6z M194.1,55.2c-8.2,0-14.9,6.7-14.9,14.9S185.9,85,194.1,85S209,78.3,209,70.1
		S202.3,55.2,194.1,55.2z"/>
	<g>
		<path fill="#009FE3" d="M192.1,72.7c0-0.8,0.1-1.4,0.4-1.8c0.3-0.4,0.7-0.6,1.3-0.8l1-0.3c0.5-0.2,0.9-0.3,1.1-0.5
			s0.4-0.3,0.5-0.6c0.1-0.3,0.1-0.7,0.1-1.3c0-0.6-0.1-1.1-0.3-1.3c-0.2-0.3-0.5-0.4-0.9-0.5s-1.1-0.1-2-0.1c-0.5,0-1.1,0-1.8,0.1
			c-0.7,0-1.4,0.1-2,0.2v-2.3c0.7-0.1,1.5-0.2,2.4-0.3s1.7-0.1,2.4-0.1c1.8,0,3,0.3,3.8,1c0.7,0.7,1.1,1.8,1.1,3.4
			c0,1-0.2,1.8-0.5,2.4s-0.8,1-1.5,1.2l-1,0.4c-0.6,0.2-1,0.4-1.2,0.5s-0.3,0.3-0.4,0.4c-0.1,0.2-0.1,0.5-0.1,1v1.1h-2.4L192.1,72.7
			L192.1,72.7z M191.8,79.5v-2.9h2.9v2.9H191.8z"/>
	</g>
</g>
<g>
	<polygon fill="#009FE3" points="225.2,10.4 222.8,10.4 222.8,16.3 216.9,16.3 216.9,18.7 222.8,18.7 222.8,24.6 225.2,24.6 
		225.2,18.7 231.1,18.7 231.1,16.3 225.2,16.3 	"/>
	<path fill="#009FE3" d="M224,0c-9.6,0-17.5,7.8-17.5,17.5c0,9.6,7.9,17.5,17.5,17.5s17.5-7.9,17.5-17.5C241.5,7.8,233.6,0,224,0z
		 M224,32.4c-8.2,0-14.9-6.7-14.9-14.9S215.8,2.6,224,2.6s14.9,6.7,14.9,14.9S232.2,32.4,224,32.4z"/>
</g>
<g>
	<g>
		<path fill="#009FE3" d="M232.1,38.2c-9.6,0-17.5,7.8-17.5,17.5c0,9.6,7.9,17.5,17.5,17.5s17.5-7.8,17.5-17.5
			S241.7,38.2,232.1,38.2z M232.1,70.6c-8.2,0-14.9-6.7-14.9-14.9s6.7-14.9,14.9-14.9S247,47.5,247,55.7S240.3,70.6,232.1,70.6z"/>
	</g>
	<path fill="#009FE3" d="M228.4,64.7c-0.3,0-0.6-0.1-0.9-0.2c-0.7-0.3-1.1-0.9-1.1-1.6V48.4c0-0.7,0.4-1.3,1.1-1.6
		c0.7-0.3,1.5-0.2,2.1,0.2l10.6,7.3c0.5,0.3,0.8,0.8,0.8,1.4c0,0.6-0.3,1.1-0.8,1.4l-10.6,7.3C229.2,64.6,228.8,64.7,228.4,64.7z
		 M229.1,49.3C229.1,49.3,229,49.3,229.1,49.3c-0.1,0-0.1,0.1-0.1,0.1V62c0,0,0,0.1,0.1,0.1s0.1,0,0.1,0l8.7-6.3l0.1-0.1
		c0,0,0-0.1-0.1-0.1L229.1,49.3L229.1,49.3z"/>
</g>
<g>
	<g>
		<path fill="#009FE3" d="M423.8,43c-6.857,0-12.5,5.571-12.5,12.5c0,6.857,5.643,12.5,12.5,12.5s12.5-5.571,12.5-12.5
			S430.657,43,423.8,43z M423.8,66.143c-5.857,0-10.643-4.786-10.643-10.643s4.786-10.643,10.643-10.643s10.643,4.786,10.643,10.643
			S429.657,66.143,423.8,66.143z"/>
	</g>
	<path fill="#009FE3" d="M421.157,61.929c-0.214,0-0.429-0.071-0.643-0.143c-0.5-0.214-0.786-0.643-0.786-1.143V50.286
		c0-0.5,0.286-0.929,0.786-1.143c0.5-0.214,1.071-0.143,1.5,0.143l7.571,5.214c0.357,0.214,0.571,0.571,0.571,1
		c0,0.429-0.214,0.786-0.571,1l-7.571,5.214C421.729,61.857,421.443,61.929,421.157,61.929z M421.657,50.929
		C421.657,50.929,421.586,50.929,421.657,50.929c-0.071,0-0.071,0.071-0.071,0.071v9c0,0,0,0.071,0.071,0.071s0.071,0,0.071,0
		l6.214-4.5l0.071-0.071c0,0,0-0.071-0.071-0.071L421.657,50.929L421.657,50.929z"/>
</g>
<g>
	<g>
		<path fill="#30A041" d="M465,0c-5.76,0-10.5,4.68-10.5,10.5c0,5.76,4.74,10.5,10.5,10.5s10.5-4.68,10.5-10.5S470.759,0,465,0z
			 M465,19.439c-4.92,0-8.94-4.02-8.94-8.94s4.02-8.94,8.94-8.94s8.94,4.02,8.94,8.94S469.919,19.439,465,19.439z"/>
	</g>
	<path fill="#30A041" d="M462.78,15.899c-0.18,0-0.36-0.06-0.54-0.12c-0.42-0.18-0.66-0.54-0.66-0.96v-8.7
		c0-0.42,0.24-0.78,0.66-0.96c0.42-0.18,0.9-0.12,1.26,0.12l6.36,4.38c0.3,0.18,0.48,0.48,0.48,0.84c0,0.36-0.18,0.66-0.48,0.84
		l-6.36,4.38C463.26,15.839,463.02,15.899,462.78,15.899z M463.2,6.66C463.2,6.66,463.14,6.66,463.2,6.66
		c-0.06,0-0.06,0.06-0.06,0.06v7.56c0,0,0,0.06,0.06,0.06s0.06,0,0.06,0l5.22-3.78l0.06-0.06c0,0,0-0.06-0.06-0.06L463.2,6.66
		L463.2,6.66z"/>
</g>
<g>
	<path fill="#009FE3" d="M148.2,2.9c0.2,0.1,0.6,0.4,1.4,1c0.8,0.5,1.4,0.9,1.8,1.2c0,0,0.1,0.1,0.3,0.2s0.3,0.2,0.4,0.3
		c0.1,0.1,0.2,0.1,0.4,0.2c0.1,0.1,0.3,0.1,0.4,0.2c0.1,0,0.2,0.1,0.3,0.1l0,0c0.1,0,0.2,0,0.3-0.1c0.1,0,0.3-0.1,0.4-0.2
		c0.1-0.1,0.3-0.2,0.4-0.2c0.1-0.1,0.2-0.2,0.4-0.3c0.1-0.1,0.2-0.2,0.3-0.2c0.4-0.3,1.5-1,3.2-2.2c0.3-0.2,0.6-0.5,0.8-0.8
		s0.3-0.7,0.3-1s-0.1-0.6-0.3-0.8c-0.4-0.2-0.7-0.3-1-0.3h-9.9c-0.3,0-0.6,0.1-0.8,0.4S147,0.9,147,1.2s0.1,0.6,0.4,0.9
		C147.6,2.5,147.9,2.7,148.2,2.9L148.2,2.9z"/>
	<path fill="#009FE3" d="M158.4,3.7c-1.5,1-2.6,1.8-3.4,2.3c-0.3,0.2-0.5,0.3-0.6,0.4c-0.2,0.1-0.4,0.2-0.6,0.3
		c-0.3,0.1-0.5,0.2-0.7,0.2l0,0c-0.2,0-0.5-0.1-0.7-0.2c-0.3-0.1-0.5-0.2-0.6-0.3c-0.2-0.1-0.4-0.3-0.6-0.4
		c-0.6-0.4-1.7-1.2-3.4-2.3c-0.3-0.2-0.5-0.4-0.7-0.6v5.4c0,0.3,0.1,0.6,0.3,0.8s0.5,0.3,0.8,0.3h9.9c0.3,0,0.6-0.1,0.8-0.3
		s0.3-0.5,0.3-0.8V3.1C158.9,3.3,158.7,3.5,158.4,3.7L158.4,3.7z"/>
</g>
<path fill="#009FE3" d="M253.2,8.4c1-0.9,1.7-2.1,1.7-3.6c0-2.6-2.1-4.8-4.7-4.8s-4.7,2.1-4.7,4.8c0,1.4,0.7,2.7,1.7,3.6
	c-1.6,1-2.6,2.8-2.6,4.8V15h2v-1.9c0-2,1.6-3.6,3.6-3.6s3.6,1.6,3.6,3.6V15h2v-1.9C255.8,11.1,254.7,9.4,253.2,8.4z M247.4,4.8
	c0-1.5,1.2-2.8,2.7-2.8s2.7,1.3,2.7,2.8s-1.2,2.7-2.7,2.7S247.4,6.3,247.4,4.8z"/>
<g>
	<g>
		<g>
			<path fill="#333333" d="M265,2l-4.5,3.7l0,0l0,0v3.7c0,0.1,0,0.3,0.1,0.3c0.1,0.1,0.2,0.1,0.3,0.1h3V7h2v3h3c0.1,0,0.3,0,0.3-0.1
				c0.1-0.1,0.1-0.2,0.1-0.3V5.7l0,0L265,2z"/>
		</g>
		<g>
			<path fill="#333333" d="M271.2,4.8l-1.7-1.4V0.3c0-0.1,0-0.1-0.1-0.2c0,0-0.1-0.1-0.2-0.1h-1.5c-0.1,0-0.1,0-0.2,0.1
				c0,0-0.1,0.1-0.1,0.2v1.5l-1.9-1.6c0-0.1-0.2-0.2-0.5-0.2c-0.2,0-0.4,0.1-0.6,0.2l-5.6,4.6c-0.1,0-0.1,0.1-0.1,0.2s0,0.1,0.1,0.2
				l0.5,0.6c0,0,0.1,0.1,0.2,0.1s0.1,0,0.2-0.1l5.4-4.5l5.4,4.5c0,0,0.1,0.1,0.2,0.1l0,0c0.1,0,0.1,0,0.2-0.1l0.5-0.6
				c0-0.1,0.1-0.1,0.1-0.2C271.3,4.9,271.3,4.9,271.2,4.8L271.2,4.8z"/>
		</g>
	</g>
</g>
<g>
	<g>
		<path fill="#30A041" d="M253,30.1l-1.9-1.9l-1.3,1.3l3.3,3.3l7-7l-1.3-1.3L253,30.1z"/>
	</g>
	<g>
		<path fill="#30A041" d="M255,39c-5.8,0-10.5-4.7-10.5-10.5S249.2,18,255,18c5.8,0,10.5,4.7,10.5,10.5S260.8,39,255,39z M255,20.3
			c-4.5,0-8.2,3.7-8.2,8.2s3.7,8.2,8.2,8.2s8.2-3.7,8.2-8.2S259.5,20.3,255,20.3z"/>
	</g>
</g>
<g>
	<g>
		<path fill="#808080" d="M279,39c-5.8,0-10.5-4.7-10.5-10.5S273.2,18,279,18s10.5,4.7,10.5,10.5S284.8,39,279,39z M279,20.3
			c-4.5,0-8.2,3.7-8.2,8.2s3.7,8.2,8.2,8.2s8.2-3.7,8.2-8.2S283.5,20.3,279,20.3z"/>
	</g>
	<rect x="274.3" y="27.4" fill="#808080" width="9.3" height="2.2"/>
</g>
<g>
	<g>
		<path fill="#E83841" d="M303,39c-5.8,0-10.5-4.7-10.5-10.5S297.2,18,303,18s10.5,4.7,10.5,10.5S308.8,39,303,39z M303,20.3
			c-4.5,0-8.2,3.7-8.2,8.2s3.7,8.2,8.2,8.2s8.2-3.7,8.2-8.2S307.5,20.3,303,20.3z"/>
	</g>
	<g>
		<path fill="#E83841" d="M302.1,26.9c0,0.7-0.2,1.3-0.5,1.7c-0.3,0.4-0.8,0.6-1.4,0.6s-1-0.2-1.3-0.6s-0.5-1-0.5-1.7
			s0.2-1.3,0.5-1.7c0.3-0.4,0.8-0.6,1.4-0.6s1,0.2,1.4,0.6C301.9,25.7,302.1,26.2,302.1,26.9z M299.9,26.9c0,0.4,0,0.7,0.1,0.8
			c0.1,0.2,0.2,0.3,0.3,0.3s0.2-0.1,0.3-0.2c0.1-0.2,0.1-0.4,0.1-0.8s0-0.7-0.1-0.8c-0.1-0.2-0.2-0.3-0.3-0.3
			c-0.1,0-0.2,0.1-0.3,0.3S299.9,26.6,299.9,26.9z M305.7,24.8l-4,7.2h-1.5l4-7.2H305.7z M307.6,29.8c0,0.7-0.2,1.3-0.5,1.7
			s-0.8,0.6-1.4,0.6s-1-0.2-1.3-0.6s-0.5-1-0.5-1.7s0.2-1.3,0.5-1.7c0.3-0.4,0.8-0.6,1.4-0.6s1,0.2,1.4,0.6
			C307.4,28.5,307.6,29.1,307.6,29.8z M305.4,29.8c0,0.4,0,0.7,0.1,0.8c0.1,0.2,0.2,0.3,0.3,0.3c0.1,0,0.2-0.1,0.3-0.3
			c0.1-0.2,0.1-0.5,0.1-0.8s0-0.6-0.1-0.8c-0.1-0.2-0.2-0.3-0.3-0.3c-0.1,0-0.2,0.1-0.3,0.3S305.4,29.4,305.4,29.8z"/>
	</g>
</g>
<g>
	<g>
		<g>
			<path fill="#FFC107" d="M351,39c-5.8,0-10.5-4.7-10.5-10.5S345.2,18,351,18s10.5,4.7,10.5,10.5S356.8,39,351,39z M351,20.3
				c-4.5,0-8.2,3.7-8.2,8.2s3.7,8.2,8.2,8.2s8.2-3.7,8.2-8.2S355.5,20.3,351,20.3z"/>
		</g>
	</g>
	<g>
		<path fill="#FFC107" d="M355.3,25.9c-0.5,0-0.9,0.4-0.9,0.9c0,0.1,0,0.2,0,0.3l-0.7,0.4c-0.5,0.3-1.1,0.2-1.4-0.2l-0.7-0.8
			c0.1-0.1,0.2-0.3,0.2-0.5c0-0.5-0.4-0.9-0.9-0.9S350,25.5,350,26c0,0.2,0.1,0.4,0.2,0.5l-0.7,0.8c-0.3,0.4-1,0.5-1.4,0.2l-0.7-0.4
			c0-0.1,0-0.2,0-0.3c0-0.5-0.4-0.9-0.9-0.9s-0.9,0.4-0.9,0.9s0.3,0.8,0.8,0.9l0.5,3.1c0,0.1,0.1,0.2,0.2,0.2h7.4
			c0.1,0,0.2-0.1,0.2-0.2l0.5-3.1c0.5,0,0.8-0.5,0.8-0.9C356.2,26.2,355.8,25.9,355.3,25.9z"/>
		<ellipse fill="#FFA000" cx="351" cy="30.7" rx="3.7" ry="1.1"/>
		<path fill="#FFD54F" d="M351,32c-1.9,0-3.9-0.4-3.9-1.3s2-1.3,3.9-1.3s3.9,0.4,3.9,1.3C354.9,31.5,352.9,32,351,32z M351,29.8
			c-2.3,0-3.5,0.6-3.5,0.9s1.2,0.9,3.5,0.9s3.5-0.6,3.5-0.9S353.3,29.8,351,29.8z"/>
	</g>
</g>
<g>
	<g>
		<path fill="#009FE3" d="M327,39c-0.4,0-0.7-0.1-1-0.3l-2-1.9c-0.1-0.1-0.1-0.1-0.1-0.1l-2.7,0.1c-0.7,0-1.4-0.5-1.5-1.3l-0.4-2.7
			c0-0.1-0.1-0.1-0.1-0.1L317,31c-0.6-0.5-0.7-1.3-0.4-1.9l1.5-2.3c0-0.1,0.1-0.1,0-0.1l-0.6-2.7c-0.1-0.8,0.3-1.5,1-1.7l2.6-0.8
			c0.1,0,0.1-0.1,0.1-0.1l1.3-2.4c0.4-0.6,1.1-1,1.8-0.6l2.5,1c0.1,0,0.1,0,0.1,0l2.5-1c0.7-0.3,1.5,0,1.8,0.7l1.3,2.4
			c0,0.1,0.1,0.1,0.1,0.1l2.6,0.8c0.7,0.2,1.1,1,1,1.7l-0.6,2.7c0,0.1,0,0.1,0,0.1l1.5,2.3c0.4,0.6,0.3,1.5-0.4,1.9l-2.2,1.7
			l-0.1,0.1l-0.4,2.7c-0.1,0.8-0.8,1.3-1.5,1.3l-2.7-0.1c-0.1,0-0.1,0-0.1,0.1l-2,1.9C327.7,38.8,327.3,39,327,39z M324,35.1
			c0.3,0,0.7,0.1,0.9,0.3l1.9,1.8c0.1,0.1,0.2,0.1,0.3,0l1.9-1.8c0.3-0.3,0.6-0.4,1-0.3l2.6,0.1c0.1,0,0.2-0.1,0.2-0.2l0.3-2.6
			c0.1-0.3,0.2-0.7,0.5-0.9l2-1.6c0.1-0.1,0.1-0.2,0.1-0.3l0,0l-1.4-2.2c-0.2-0.3-0.3-0.7-0.2-1l0.5-2.6c0-0.1-0.1-0.2-0.1-0.3
			l-2.4-0.8c-0.3-0.1-0.6-0.3-0.8-0.7l-1.2-2.3c-0.1-0.1-0.2-0.1-0.3-0.1l-2.4,1c-0.3,0.1-0.7,0.1-1,0l-2.4-1
			c-0.1-0.1-0.2,0-0.3,0.1l-1.2,2.3c-0.1,0.3-0.5,0.5-0.8,0.7l-2.4,0.8c-0.1,0.1-0.1,0.1-0.1,0.3l0.5,2.6c0.1,0.3,0,0.7-0.2,1
			l-1.4,2.2c-0.1,0.1-0.1,0.2,0.1,0.3l2,1.6c0.3,0.2,0.5,0.5,0.5,0.9L321,35c0,0.1,0.1,0.2,0.2,0.2L324,35.1L324,35.1z"/>
	</g>
	<g>
		<polygon fill="#009FE3" points="324.9,31.4 322.8,29.9 323.7,31.9 323.1,32.2 321.8,29.1 322.4,28.8 324.6,30.3 323.7,28.2 
			324.2,28 325.6,31.2 		"/>
		<polygon fill="#009FE3" points="326.3,30.8 324.9,27.7 327.2,26.7 327.5,27.2 325.8,27.9 326.1,28.6 327.6,28 327.8,28.5 
			326.3,29.2 326.6,30 328.4,29.3 328.6,29.8 		"/>
		<polygon fill="#009FE3" points="331.5,28.6 329.8,26.5 330.3,29.1 329.6,29.4 327.5,26.5 328.2,26.3 329.5,28.2 329.1,25.8 
			329.9,25.5 331.4,27.4 331,25.1 331.6,24.8 332.1,28.3 		"/>
	</g>
</g>
<g>
	<g id="Printer_2_">
		<g>
			<path fill="#009FE3" d="M272.3,46.6h-2.6V42h-13.2v4.6h-2.6c-0.6,0-1.3,0.5-1.3,1.3v10.5c0,0.7,0.6,1.3,1.3,1.3h2.6V63h13.2v-3.3
				h2.6c0.7,0,1.3-0.6,1.3-1.3V48C273.7,47.1,273.1,46.6,272.3,46.6z M258.5,44h9.2v2.6h-9.2V44z M267.8,61h-9.3v-4.6h9.2V61H267.8z
				 M271.7,57.8h-2v-3.3h-13.2v3.3h-1.9v-9.2h17.1V57.8L271.7,57.8z M269.7,49.9h-2v2h2V49.9z"/>
		</g>
	</g>
</g>
<g>
	<rect x="283" y="42" fill="#009EE3" width="15.6" height="3.3"/>
	<rect x="283" y="49.9" fill="#009EE3" width="15.6" height="3.3"/>
	<rect x="283" y="57.7" fill="#009EE3" width="15.6" height="3.3"/>
	<rect x="276.6" y="42" fill="#009EE3" width="3.2" height="3.3"/>
	<rect x="276.6" y="49.9" fill="#009EE3" width="3.2" height="3.3"/>
	<rect x="276.6" y="57.7" fill="#009EE3" width="3.2" height="3.3"/>
</g>
<path fill="#30A041" d="M323.4,65.8h-12.6v-1.6h5.5V49.3c-1.1-0.2-2.1-1-2.5-2l-4,0.7l4.3,8.4c0,0.1,0,0.1,0,0.2v0.3
	c0,3.5-2.8,6.3-6.3,6.3s-6.3-2.8-6.3-6.3v-0.3c0,0,0-0.1,0-0.2l0.1-0.2l3.9-7.5l-0.7,0.1l-0.3-1.6l8.7-1.5l0,0c0-2,1.7-3.7,3.7-3.7
	c1.6,0,3,1.1,3.5,2.6l8.8-1.5l0.3,1.6l-1.6,0.3l4.4,8.6c0,0.1,0,0.1,0,0.2V54c0,3.5-2.8,6.3-6.3,6.3s-6.3-2.8-6.3-6.3v-0.3
	c0,0,0-0.1,0.1-0.2l0.1-0.1l4-7.7l-3.4,0.6c-0.2,1.6-1.4,2.8-2.9,3.2v14.8h5.5L323.4,65.8L323.4,65.8z M303.3,57.6
	c0.4,2.2,2.3,3.9,4.6,3.9c2.3,0,4.3-1.7,4.6-3.9H303.3z M321.7,54.7c0.4,2.2,2.3,3.9,4.6,3.9c2.3,0,4.2-1.7,4.6-3.9H321.7z
	 M307.7,48.3l-4,7.6l8.4-0.1l-4-7.6L307.7,48.3z M326.2,45.3l-4.1,7.8h8.4l-4.1-7.8H326.2z M317.1,43.6c-1.2,0-2.1,0.9-2.1,2.1
	c0,1.2,0.9,2.1,2.1,2.1s2.1-0.9,2.1-2.1C319.2,44.6,318.3,43.6,317.1,43.6z"/>
<polygon fill="#30A041" points="280.8,0 278.9,0 278.9,4.6 274.3,4.6 274.3,6.4 278.9,6.4 278.9,11 280.8,11 280.8,6.4 285.3,6.4 
	285.3,4.6 280.8,4.6 "/>
<g>
	<path fill="#FFFFFF" d="M380.6,34c-1.2,0-2,0.8-2,2s0.8,2,2,2s2-0.8,2-2S381.7,34,380.6,34z"/>
	<path fill="#FFFFFF" d="M370.4,34c-1.2,0-2,0.8-2,2s0.8,2,2,2s2-0.8,2-2C372.5,34.8,371.6,34,370.4,34z"/>
	<path fill="#FFFFFF" d="M371.6,28.9h7.4c0.8,0,1.5-0.4,1.7-0.9l3.6-6.5c0.2-0.2,0.2-0.3,0.2-0.5c0-0.5-0.4-0.9-1-0.9h-14.9l-0.8-2
		h-3.3v2h2l3.6,7.6l-1.5,2.4c-0.1,0.3-0.2,0.7-0.2,0.9c0,1.2,0.8,2,2,2h12.1v-2h-11.7c-0.1,0-0.2-0.1-0.2-0.2v-0.1L371.6,28.9z"/>
</g>
<polygon fill="#333333" points="296.3,1.5 294.8,0 292.3,2.5 289.7,0 288.3,1.5 290.8,4 288.3,6.5 289.7,8 292.3,5.5 294.8,8 
	296.3,6.5 293.7,4 "/>
<polygon fill="#333333" points="314.3,1 313.3,0 306.8,6.5 300.3,0 299.3,1 306.8,8.5 306.8,8.5 306.8,8.5 "/>
<g>
	<path fill="#30A041" d="M353.136,50.926c-0.173-0.175-0.461-0.175-0.634,0l-0.49,0.494c-0.173,0.175-0.173,0.464,0,0.638
		c0.09,0.09,0.203,0.132,0.317,0.132s0.227-0.042,0.317-0.132l0.49-0.494C353.315,51.39,353.315,51.101,353.136,50.926z"/>
	<path fill="#30A041" d="M353.548,53.426c0.114,0,0.227-0.042,0.317-0.132l0.49-0.494c0.173-0.175,0.173-0.464,0-0.638
		c-0.173-0.175-0.46-0.175-0.634,0l-0.49,0.494c-0.173,0.175-0.173,0.464,0,0.638C353.321,53.383,353.435,53.426,353.548,53.426z"/>
	<path fill="#30A041" d="M354.948,53.389l-0.49,0.494c-0.173,0.175-0.173,0.464,0,0.638c0.09,0.09,0.203,0.132,0.317,0.132
		c0.114,0,0.227-0.042,0.317-0.132l0.49-0.494c0.173-0.175,0.173-0.464,0-0.638S355.127,53.215,354.948,53.389z"/>
	<path fill="#30A041" d="M355.677,55.756c0.09,0.09,0.203,0.132,0.317,0.132c0.114,0,0.227-0.042,0.317-0.132l0.49-0.494
		c0.173-0.175,0.173-0.464,0-0.638s-0.461-0.175-0.634,0l-0.49,0.494C355.504,55.293,355.504,55.582,355.677,55.756L355.677,55.756z
		"/>
	<path fill="#30A041" d="M340.044,66.621l-0.825,0.831c-0.173,0.175-0.173,0.464,0,0.638s0.461,0.175,0.634,0l0.825-0.831
		c0.173-0.175,0.173-0.464,0-0.638C340.505,66.446,340.218,66.44,340.044,66.621z"/>
	<path fill="#30A041" d="M339.794,71.996c-0.192,0-0.312-0.013-0.331-0.015c-0.469-0.055-1.802-0.443-2.71-1.232
		c-0.935-0.82-1.343-2.327-1.386-2.496l-0.01-0.041l-0.007-0.042c-0.365-2.237,1.387-4.06,1.462-4.137l0.054-0.051
		c0.091-0.079,9.131-7.958,10.772-9.409l0.005-0.004c0.828-0.722,0.904-1.7,0.822-2.394c-0.174-1.509-0.129-2.711,0.142-3.785
		c0.617-2.425,1.861-4.196,3.697-5.266c3.267-1.902,7.194-0.834,7.359-0.788l1.512,0.424l-4.574,4.699l0.684,2.568l2.564,0.646
		l4.628-4.733l0.415,1.586c1.141,4.362-0.328,7.114-1.761,8.655c-2.159,2.321-5.445,3.158-7.44,2.768
		c-1.949-0.383-2.824,0.649-2.906,0.752l-0.034,0.051l-0.028,0.025l-9.767,10.94l-0.02,0.02
		C341.807,71.855,340.42,71.996,339.794,71.996z M337.173,67.825c0.12,0.432,0.429,1.192,0.795,1.513
		c0.56,0.487,1.519,0.763,1.714,0.789c0.01,0.001,1.117,0.091,1.937-0.702l9.706-10.872c0.272-0.344,1.768-2.016,4.721-1.436
		c1.29,0.253,3.922-0.266,5.732-2.211c1.263-1.357,1.813-3.135,1.625-5.204l-2.976,3.043l-4.649-1.172l-1.241-4.658l2.947-3.028
		c-1.199-0.075-2.843,0.03-4.262,0.86c-1.383,0.81-2.332,2.191-2.818,4.105c-0.213,0.845-0.244,1.832-0.097,3.105
		c0.19,1.612-0.324,3.041-1.448,4.022c-1.6,1.414-10.118,8.839-10.743,9.384C337.969,65.524,337.006,66.639,337.173,67.825z"/>
</g>
<g>
	<g>
		<path fill="#E83841" d="M398,21c-5.79,0-10.5-4.71-10.5-10.5S392.21,0,398,0c5.789,0,10.5,4.71,10.5,10.5S403.79,21,398,21z
			 M398,2.278c-4.534,0-8.222,3.688-8.222,8.222s3.688,8.222,8.222,8.222c4.533,0,8.222-3.688,8.222-8.222S402.534,2.278,398,2.278z
			"/>
	</g>
	<polygon fill="#E83841" points="402.072,7.987 400.512,6.428 398,8.94 395.488,6.428 393.928,7.987 396.44,10.5 393.928,13.012 
		395.488,14.572 398,12.06 400.512,14.572 402.072,13.012 399.56,10.5 	"/>
</g>
<g>
	<g>
		<g>
			<g>
				<path fill="#009FE3" d="M391.811,51.638h-7.022c-3.231,0-5.851,2.62-5.851,5.851v7.022c0,3.231,2.62,5.851,5.851,5.851h7.022
					c3.231,0,5.851-2.62,5.851-5.851v-7.022C397.662,54.258,395.042,51.638,391.811,51.638z M395.907,64.511
					c0,2.259-1.837,4.096-4.096,4.096h-7.022c-2.259,0-4.096-1.837-4.096-4.096v-7.022c0-2.259,1.837-4.096,4.096-4.096h7.022
					c2.259,0,4.096,1.837,4.096,4.096V64.511z"/>
			</g>
		</g>
		<g>
			<g>
				<path fill="#009FE3" d="M388.3,56.319c-2.585,0-4.681,2.096-4.681,4.681s2.096,4.681,4.681,4.681s4.681-2.096,4.681-4.681
					S390.885,56.319,388.3,56.319z M388.3,63.926c-1.613,0-2.926-1.313-2.926-2.926c0-1.614,1.313-2.926,2.926-2.926
					s2.926,1.312,2.926,2.926C391.225,62.613,389.912,63.926,388.3,63.926z"/>
			</g>
		</g>
		<g>
			<g>
				<circle fill="#009FE3" cx="393.332" cy="55.968" r="0.624"/>
			</g>
		</g>
	</g>
	<g>
		<g>
			<path fill="#009FE3" d="M408.3,61c0-11.045-8.955-20-20-20c-11.046,0-20,8.955-20,20s8.954,20,20,20
				C399.345,81,408.3,72.045,408.3,61z M370.118,61c0-10.042,8.14-18.182,18.182-18.182s18.182,8.14,18.182,18.182
				s-8.14,18.182-18.182,18.182S370.118,71.042,370.118,61z"/>
		</g>
	</g>
</g>
<g>
	<g>
		<g>
			<path fill="#FFFFFF" d="M435.011,10.638h-7.022c-3.231,0-5.851,2.62-5.851,5.851v7.022c0,3.231,2.62,5.851,5.851,5.851h7.022
				c3.231,0,5.851-2.62,5.851-5.851v-7.022C440.862,13.258,438.242,10.638,435.011,10.638z M439.107,23.511
				c0,2.259-1.837,4.096-4.096,4.096h-7.022c-2.259,0-4.096-1.837-4.096-4.096v-7.022c0-2.259,1.837-4.096,4.096-4.096h7.022
				c2.259,0,4.096,1.837,4.096,4.096V23.511z"/>
		</g>
	</g>
	<g>
		<g>
			<path fill="#FFFFFF" d="M431.5,15.319c-2.585,0-4.681,2.096-4.681,4.681s2.096,4.681,4.681,4.681s4.681-2.096,4.681-4.681
				S434.085,15.319,431.5,15.319z M431.5,22.926c-1.613,0-2.926-1.313-2.926-2.926c0-1.614,1.313-2.926,2.926-2.926
				s2.926,1.312,2.926,2.926C434.426,21.613,433.113,22.926,431.5,22.926z"/>
		</g>
	</g>
	<g>
		<g>
			<circle fill="#FFFFFF" cx="436.532" cy="14.968" r="0.624"/>
		</g>
	</g>
</g>
</svg>
