<?xml version="1.0" encoding="utf-8"?>
<!-- Generator: Adobe Illustrator 24.0.2, SVG Export Plug-In . SVG Version: 6.00 Build 0)  -->
<svg version="1.1" id="Слой_1" xmlns="http://www.w3.org/2000/svg" xmlns:xlink="http://www.w3.org/1999/xlink" x="0px" y="0px"
	 width="270px" height="45px" viewBox="0 0 270 45" enable-background="new 0 0 270 45" xml:space="preserve">
<path fill="#1D1D1B" d="M259.241,9.539l0.001-0.385c0-0.314-0.067-0.578-0.202-0.792c-0.135-0.214-0.357-0.366-0.667-0.458
	c0.274-0.119,0.482-0.276,0.623-0.471c0.142-0.194,0.213-0.427,0.213-0.698c0.001-0.487-0.167-0.867-0.504-1.14
	c-0.337-0.273-0.804-0.409-1.401-0.41l-1.976-0.003l-0.007,5.239l1.051,0.001l0.003-2.094l1.001,0.001
	c0.259,0,0.46,0.073,0.602,0.219c0.143,0.145,0.214,0.348,0.213,0.61l0,0.37c0,0.161,0.014,0.331,0.043,0.511
	c0.028,0.18,0.091,0.308,0.187,0.385l1.083,0.001l0-0.075c-0.096-0.077-0.164-0.195-0.203-0.355
	C259.261,9.838,259.241,9.685,259.241,9.539z M257.943,7.335c-0.146,0.125-0.365,0.186-0.66,0.186l-0.907-0.001l0.002-1.525
	l0.925,0.001c0.283,0,0.497,0.071,0.642,0.213c0.145,0.142,0.217,0.332,0.217,0.572C258.161,7.025,258.089,7.21,257.943,7.335z"/>
<path fill="#1D1D1B" d="M257.158,3.182c-2.644-0.003-4.79,2.137-4.793,4.781s2.137,4.79,4.781,4.794
	c2.644,0.003,4.79-2.137,4.793-4.781S259.802,3.186,257.158,3.182z M257.147,11.977c-2.214-0.003-4.006-1.8-4.003-4.013
	c0.003-2.214,1.799-4.006,4.013-4.003c2.213,0.003,4.005,1.8,4.003,4.013C261.157,10.188,259.36,11.98,257.147,11.977z"/>
<path fill="#1D1D1B" d="M-0.031,41.901L19.184,2.894l9.614,0.013l19.177,39.056l-10.895-0.014l-4.985-10.39l-10.576-0.014
	l-3.71-4.875l-6.942,15.245L-0.031,41.901z M23.914,13.283l-4.691,9.928l9.485,0.012L23.914,13.283z"/>
<rect x="53.136" y="32.576" transform="matrix(0.0013 -1 1 0.0013 19.9484 95.0613)" fill="#1D1D1B" width="8.862" height="9.934"/>
<polygon fill="#1D1D1B" points="56.921,2.943 90.249,2.986 90.238,11.19 78.51,11.175 78.47,42.002 68.535,41.989 68.575,11.162 
	56.911,11.147 "/>
<path fill="#1D1D1B" d="M93.919,14.335c1.094-2.604,2.602-4.877,4.528-6.819c1.925-1.941,4.18-3.466,6.768-4.574
	c2.586-1.108,5.354-1.66,8.302-1.656c3.032,0.004,5.841,0.563,8.425,1.678c2.583,1.115,4.825,2.634,6.723,4.559
	c1.899,1.926,3.381,4.192,4.446,6.8c1.065,2.608,1.595,5.407,1.591,8.398s-0.551,5.767-1.645,8.329
	c-1.092,2.562-2.592,4.783-4.495,6.66c-1.904,1.878-4.149,3.35-6.735,4.414c-2.587,1.064-5.376,1.595-8.366,1.591
	c-2.948-0.004-5.715-0.542-8.298-1.613c-2.584-1.07-4.836-2.548-6.756-4.431c-1.92-1.882-3.423-4.107-4.51-6.672
	c-1.086-2.565-1.628-5.343-1.624-8.333C92.278,19.717,92.826,16.94,93.919,14.335 M102.395,27.228
	c0.639,1.411,1.502,2.662,2.591,3.754c1.088,1.09,2.346,1.947,3.778,2.569c1.43,0.621,2.957,0.932,4.581,0.934
	c1.665,0.002,3.238-0.284,4.712-0.858c1.474-0.576,2.768-1.384,3.88-2.43c1.113-1.046,1.989-2.283,2.633-3.714
	c0.642-1.43,0.965-3.021,0.967-4.773c0.002-1.624-0.306-3.173-0.924-4.648c-0.618-1.474-1.461-2.779-2.526-3.913
	c-1.067-1.132-2.337-2.031-3.81-2.696c-1.473-0.664-3.065-0.998-4.773-1.001c-1.667-0.002-3.228,0.328-4.681,0.988
	c-1.453,0.662-2.725,1.557-3.816,2.686c-1.092,1.132-1.958,2.434-2.601,3.907c-0.642,1.474-0.965,3.022-0.967,4.646
	C101.438,24.301,101.756,25.817,102.395,27.228"/>
<path fill="#1D1D1B" d="M139.599,3.05l10.126,0.013l-0.005,4.102l3.339-4.098l11.343,0.015c2.692,0.004,4.913,0.487,6.665,1.451
	c1.75,0.963,3.05,2.257,3.903,3.882l4.109-5.314l11.28,0.015c2.007,0.003,3.726,0.303,5.157,0.904s2.605,1.413,3.522,2.44
	c0.917,1.027,1.589,2.214,2.014,3.561c0.425,1.345,0.638,2.746,0.636,4.199l-0.036,27.943l-10.19-0.013l0.034-26.406
	c0.001-0.854-0.33-1.698-0.991-2.533c-0.661-0.834-1.504-1.252-2.53-1.253l-12.305-0.016l-0.039,30.187l-10.128-0.013l0.034-26.406
	c0.002-1.196-0.307-2.125-0.924-2.788c-0.62-0.663-1.485-0.996-2.595-0.998l-12.306-0.016l-0.039,30.187l-10.126-0.013L139.599,3.05
	z"/>
<polygon fill="#FFED00" points="212.62,3.165 212.6,18.516 225.069,18.532 "/>
<polygon fill="#FFED00" points="231.697,26.715 212.59,26.69 212.57,42.133 244.22,42.175 "/>
<polygon fill="#009FE3" points="257.121,26.748 270.031,26.765 263.403,18.583 250.493,18.566 250.481,18.566 238,3.157 
	225.09,3.141 256.722,42.191 269.631,42.208 257.108,26.748 "/>
</svg>
