<?xml version="1.0" encoding="utf-8"?>
<!-- Generator: Adobe Illustrator 24.0.2, SVG Export Plug-In . SVG Version: 6.00 Build 0)  -->
<svg version="1.1" id="Слой_1" xmlns="http://www.w3.org/2000/svg" xmlns:xlink="http://www.w3.org/1999/xlink" x="0px" y="0px"
	 width="211px" height="211px" viewBox="0 0 211 211" enable-background="new 0 0 211 211" xml:space="preserve">
<circle fill="#FFFFFF" cx="105.5" cy="105.5" r="105.5"/>
<g>
	<g>
		<line fill="#FFFFFF" x1="43.219" y1="90.904" x2="28.412" y2="81.835"/>
		<polygon fill="#009FE3" points="42.211,92.555 27.403,83.486 29.419,80.186 44.227,89.255 		"/>
	</g>
	<g>
		<line fill="#FFFFFF" x1="39.887" y1="101.824" x2="21.564" y2="101.824"/>
		<rect x="21.562" y="99.891" fill="#009FE3" width="18.327" height="3.866"/>
	</g>
	<g>
		<line fill="#FFFFFF" x1="43.219" y1="112.93" x2="28.412" y2="121.814"/>
		
			<rect x="27.181" y="115.438" transform="matrix(0.8578 -0.5139 0.5139 0.8578 -55.2274 35.0917)" fill="#009FE3" width="17.269" height="3.864"/>
	</g>
	<g>
		<line fill="#FFFFFF" x1="167.597" y1="90.904" x2="182.404" y2="81.835"/>
		<polygon fill="#009FE3" points="168.604,92.555 166.588,89.255 181.396,80.186 183.412,83.486 		"/>
	</g>
	<g>
		<line fill="#FFFFFF" x1="171.113" y1="101.824" x2="189.437" y2="101.824"/>
		<rect x="171.115" y="99.891" fill="#009FE3" width="18.323" height="3.866"/>
	</g>
	<g>
		<line fill="#FFFFFF" x1="182.404" y1="122.554" x2="167.597" y2="112.93"/>
		
			<rect x="173.068" y="108.911" transform="matrix(0.5451 -0.8384 0.8384 0.5451 -19.1034 200.2773)" fill="#009FE3" width="3.864" height="17.663"/>
	</g>
	<circle fill="#009FE3" cx="105.315" cy="90.442" r="16.38"/>
	<path fill="#333333" d="M149.911,109.228h-3.866v-45.78c0-1.246-1.016-2.262-2.262-2.262H66.847c-1.246,0-2.262,1.016-2.262,2.262
		v45.78h-3.866v-45.78c0-3.379,2.749-6.128,6.128-6.128h76.936c3.379,0,6.128,2.749,6.128,6.128V109.228z"/>
	<path fill="#333333" d="M151.802,161.505h-93.16c-3.345,0-6.067-2.722-6.067-6.067v-52.096c0-2.08,0.804-4.047,2.262-5.543
		l6.434-6.581l2.764,2.703l-6.434,6.581c-0.748,0.766-1.159,1.775-1.159,2.839v52.096c0,1.212,0.989,2.201,2.201,2.201h93.16
		c1.212,0,2.201-0.989,2.201-2.201v-51.519c0-0.914-0.313-1.812-0.883-2.53l-6.656-8.355l3.028-2.409l6.653,8.355
		c1.11,1.397,1.725,3.153,1.725,4.939v51.519C157.87,158.783,155.148,161.505,151.802,161.505z"/>
	
		<rect x="72.104" y="92.758" transform="matrix(0.5361 -0.8442 0.8442 0.5361 -63.4839 116.2609)" fill="#333333" width="3.863" height="46.265"/>
	<path fill="#333333" d="M55.509,154.932l-2.001-3.307l48.173-29.182c2.19-1.321,4.912-1.318,7.087,0l48.17,29.182l-2.001,3.307
		l-48.17-29.182c-0.951-0.574-2.133-0.578-3.085,0L55.509,154.932z"/>
	
		<rect x="112.702" y="114.536" transform="matrix(0.8344 -0.5511 0.5511 0.8344 -41.6245 94.3769)" fill="#333333" width="47.131" height="3.864"/>
	<polygon fill="#FFFFFF" points="102.308,98.773 95.342,91.807 98.075,89.074 102.308,93.306 113.019,82.598 115.753,85.332 	"/>
	<path fill="#333333" d="M96.886,60.696l-2.575-2.885l7.914-7.049c1.914-1.699,4.787-1.688,6.687,0.019l7.785,7.038l-2.59,2.869
		l-7.782-7.034c-0.438-0.393-1.091-0.393-1.529-0.008L96.886,60.696z"/>
</g>
</svg>
