<?xml version="1.0" encoding="utf-8"?>
<!-- Generator: Adobe Illustrator 24.0.2, SVG Export Plug-In . SVG Version: 6.00 Build 0)  -->
<svg version="1.1" id="Слой_1" xmlns="http://www.w3.org/2000/svg" xmlns:xlink="http://www.w3.org/1999/xlink" x="0px" y="0px"
	 width="35px" height="35px" viewBox="0 0 35 35" enable-background="new 0 0 35 35" xml:space="preserve">
<g>
	<g>
		<path fill="#333333" d="M17.5,35C7.85,35,0,27.15,0,17.5C0,7.85,7.85,0,17.5,0C27.15,0,35,7.85,35,17.5C35,27.15,27.15,35,17.5,35
			z M17.5,2.094C9.005,2.094,2.094,9.005,2.094,17.5c0,8.495,6.911,15.406,15.406,15.406c8.495,0,15.406-6.911,15.406-15.406
			C32.906,9.005,25.995,2.094,17.5,2.094z"/>
	</g>
</g>
<polygon fill="#333333" points="17.415,23.547 8.414,12.949 9.938,11.654 17.415,20.457 25.062,11.453 26.586,12.748 "/>
</svg>
