<?xml version="1.0" encoding="utf-8"?>
<!-- Generator: Adobe Illustrator 24.0.2, SVG Export Plug-In . SVG Version: 6.00 Build 0)  -->
<svg version="1.1" id="Слой_1" xmlns="http://www.w3.org/2000/svg" xmlns:xlink="http://www.w3.org/1999/xlink" x="0px" y="0px"
	 width="35.5px" height="50px" viewBox="0 0 35.5 50" enable-background="new 0 0 35.5 50" xml:space="preserve">
<path fill="#009FE3" d="M35.5,19.8c0-9.775-7.925-17.7-17.7-17.7S0.1,10.025,0.1,19.8c0,7.714,4.944,14.258,11.829,16.682L17.8,47.9
	l5.821-11.4C30.533,34.09,35.5,27.533,35.5,19.8z"/>
<g>
	<path fill="#FFFFFF" d="M29.098,12.483h-11.34c-0.403,0-0.662,0.428-0.474,0.785l1.058,2.011c0.093,0.176,0.275,0.286,0.474,0.286
		h2.765v5.737c0,0.087,0.021,0.172,0.062,0.249l2.273,4.32c0.26,0.495,1.01,0.31,1.01-0.249V15.566h4.174
		c0.296,0,0.536-0.24,0.536-0.536v-2.011C29.634,12.723,29.394,12.483,29.098,12.483z"/>
	<path fill="#FFFFFF" d="M13.731,12.769c-0.201-0.381-0.746-0.382-0.947-0.001l-4.347,8.218c-0.189,0.357,0.07,0.786,0.473,0.786
		h2.208c0.196,0,0.376-0.107,0.47-0.279l1.67-3.058l4.301,8.45c0.091,0.18,0.276,0.293,0.477,0.293h2.389
		c0.403,0,0.662-0.428,0.474-0.785L13.731,12.769z"/>
	<circle fill="#FFFFFF" cx="7.768" cy="25.376" r="1.802"/>
</g>
</svg>
