<?xml version="1.0" encoding="utf-8"?>
<!-- Generator: Adobe Illustrator 24.0.2, SVG Export Plug-In . SVG Version: 6.00 Build 0)  -->
<svg version="1.1" id="Слой_1" xmlns="http://www.w3.org/2000/svg" xmlns:xlink="http://www.w3.org/1999/xlink" x="0px" y="0px"
	 width="299px" height="70px" viewBox="0 0 299 70" style="enable-background:new 0 0 299 70;" xml:space="preserve">
<style type="text/css">
	.st0{fill:#0070BA;}
</style>
<g>
	<path class="st0" d="M260-67.4c2.6-3.8,6.6-6.4,11.1-7.7c-6.5,0.1-12.7,3.2-16.3,8.5c-0.8,2.8-1.1,5.7-1,8.4
		c0.4,6.8,2.6,12.1,6.9,16.2c-1-1.4-1.8-2.9-2.4-4.6C255.5-54.4,256.1-61.8,260-67.4z"/>
	<path class="st0" d="M246.8-84.6c7.9-9.3,20.2-12.6,28.4-12.6c1.4,0,2.7,0.1,3.9,0.3c-0.8-0.3-1.7-0.6-2.6-0.8
		c-20.4-5.3-42.6,10.5-40.9,33.6c0.9,12.9,6.8,20.9,12.6,25.7c-3.9-4.4-6.7-10.5-8.1-18.9C238.5-68.1,240.7-77.5,246.8-84.6z"/>
	<path class="st0" d="M282.3-94.8c-1.9-0.7-4.4-1-7.1-1c-7.8,0-19.7,3.2-27.3,12.1c-5.8,6.9-8,15.7-6.3,26.2
		c4,25.2,22.3,28.7,41.4,28.7l0,0c1.9,0,5.4-0.3,9-0.7c-1.8-0.2-5.2-0.5-10.2-1c-5-0.6-10.7-2.3-15.3-5.6
		C257.6-40.8,253-48,252.4-58c-0.6-10.3,4.9-23.3,22-26.1c1.2-0.2,2.3-0.3,3.5-0.3c10.8,0,18,8.4,21.1,13.1
		C297.9-77.6,294.2-90.7,282.3-94.8z"/>
	<path class="st0" d="M269.1-66.1c3-2.1,6.6-3.2,10.4-3.2c4.3,0,7.8,1.4,9.4,2.6c1.8,1.2,3.3,3.6,4.3,5.5
		c-0.3-4.1-2.3-11.2-12.8-12.9c-1.1-0.2-2.2-0.3-3.4-0.3c-6.5,0-12.5,3-15.9,7.9c-3.6,5.2-4.1,12.1-1.5,19.4
		c3.5,9.7,13.8,14.1,22.3,15.1c0.1,0,0.3,0,0.4,0.1c-5.2-1.8-10.9-4.7-14.2-9.5C260.9-52,263.2-62.1,269.1-66.1z"/>
	<polygon class="st0" points="6.7,-83.5 17,-83.5 17,-58.2 23.7,-58.2 23.7,-89.3 0,-89.3 0,-58.2 6.7,-58.2 	"/>
	<path class="st0" d="M36.2-66.2h8.4l2.3,8H54l-9.1-31.1h-8.7l-9,31.1h6.9L36.2-66.2z M38.9-78.1c0.5-1.8,0.9-4.1,1.4-6h0.1
		c0.4,1.9,1,4.2,1.5,6l1.8,6.6h-6.5L38.9-78.1z"/>
	<rect x="82.7" y="-76.2" class="st0" width="11.4" height="4.7"/>
	<polygon class="st0" points="103.9,-58.2 110.5,-58.2 110.5,-83.4 118.5,-83.4 118.5,-89.3 96,-89.3 96,-83.4 103.9,-83.4 	"/>
	<path class="st0" d="M128.6-69.3c0.6,0.1,1.4,0.1,2.3,0.1c3.9,0,7.3-1,9.5-3.3c1.7-1.7,2.7-4.3,2.7-7.4c0-3-1.3-5.6-3.1-7.2
		c-1.9-1.7-4.9-2.5-8.9-2.5s-6.9,0.3-9,0.6v30.7h6.6v-11C128.7-69.3,128.6-69.3,128.6-69.3z M128.6-84c0.5-0.1,1.4-0.3,2.7-0.3
		c3.3,0,5.2,1.7,5.2,4.6c0,3.2-2.2,5.1-5.7,5.1c-1,0-1.6,0-2.2-0.2V-84z"/>
	<polygon class="st0" points="166,-64 153.9,-64 153.9,-71.4 164.7,-71.4 164.7,-77.1 153.9,-77.1 153.9,-83.5 165.4,-83.5 
		165.4,-89.3 147.3,-89.3 147.3,-58.2 166,-58.2 	"/>
	<path class="st0" d="M182.5-90.7c3.9,0,6.3-1.8,6.6-5.7h-4.4c-0.2,1.8-0.7,2.9-2,2.9c-1.4,0-1.9-1.1-1.9-2.9h-4.5
		C176.5-92.6,178.7-90.7,182.5-90.7z"/>
	<path class="st0" d="M184-69.4c1.7-3.3,3.6-7.4,5-11.1h0.1c-0.4,4.1-0.5,8.3-0.5,13.1v9.2h6.1v-31.1h-6.8l-6.3,12.2
		c-1.7,3.3-3.7,7.4-5.2,11.1h-0.2c0.3-4.2,0.3-9.1,0.3-14.1v-9.2h-6.1v31.1h7.6L184-69.4z"/>
	<path class="st0" d="M203.6-52.7l0.2-5.5H221l0.2,5.5h5.2l0.3-10.8l-2.9-0.2v-25.6h-19.2v8.3c0,3.8-0.3,7.2-1.2,10.3
		c-0.7,2.5-1.6,4.7-2.8,6.9l-2.4,0.2l0.2,10.8L203.6-52.7L203.6-52.7z M209.4-69.2c0.9-3.1,1.3-6.6,1.3-10.2v-4.2h6.4v19.7h-9.7
		C208.1-65.4,208.9-67.3,209.4-69.2z"/>
	<path class="st0" d="M64.4-68.3l2.4-3.3L74-58.2h7.6L71.6-76l9.6-13.2h-8.1l-6.5,10.3c-0.7,1.1-1.4,2.2-2,3.4h-0.1v-13.7H58v31h6.5
		L64.4-68.3L64.4-68.3z"/>
	<rect x="0.6" y="-49.7" class="st0" width="226.2" height="17.3"/>
</g>
<g>
	<path class="st0" d="M17.7,20c1.6,0,2.9,0.3,4.1,1c1.2,0.6,2.1,1.5,2.9,2.5c0.7,1,1.3,2.2,1.7,3.4c0.4,1.2,0.5,2.5,0.5,3.7
		c0,1.1-0.2,2.2-0.6,3.4c-0.4,1.2-1,2.3-1.7,3.3c-0.7,1-1.6,1.8-2.6,2.5c-1,0.7-2.2,1-3.4,1h-8.4l-2.5-3.1V50H0V20H17.7z M7.6,34.4
		h9.8c0.4,0,0.7-0.1,1-0.4c0.3-0.3,0.5-0.6,0.8-1c0.2-0.4,0.4-0.8,0.5-1.3c0.1-0.4,0.2-0.8,0.2-1.2c0-0.3,0-0.7-0.1-1.1
		c-0.1-0.4-0.2-0.8-0.4-1.2c-0.2-0.4-0.4-0.7-0.7-1c-0.3-0.3-0.6-0.4-0.9-0.4H7.6V34.4z"/>
	<path class="st0" d="M22.9,50l14.7-30H45l14.8,30h-8.4l-3.8-8h-8.1l-2.9-3.7L31.3,50H22.9z M41.3,28l-3.6,7.6H45L41.3,28z"/>
	<path class="st0" d="M60.4,29.4c0.6-1.8,1.6-3.4,2.8-4.8c1.2-1.4,2.6-2.5,4.3-3.3S71,20,73.1,20h14.8v6.3H73.2
		c-0.8,0-1.5,0.2-2.3,0.7c-0.8,0.5-1.5,1.1-2.2,1.9s-1.2,1.7-1.7,2.8c-0.4,1.1-0.7,2.1-0.7,3.2c0,1.1,0.2,2.2,0.6,3.2
		c0.4,1.1,1,2,1.7,2.8c0.7,0.8,1.5,1.5,2.3,2s1.7,0.7,2.6,0.7h14.3V50H72.9c-2.2,0-4.1-0.5-5.8-1.4c-1.7-0.9-3.1-2.1-4.2-3.5
		c-1.1-1.4-2-3.1-2.6-4.8c-0.6-1.8-0.9-3.5-0.9-5.3C59.4,33.1,59.7,31.2,60.4,29.4z"/>
	<path class="st0" d="M99.9,20v12.6L110.5,20h9.3l-12.5,14.9L119.8,50h-9.3L99.9,37.5V50h-7.6V20H99.9z"/>
	<path class="st0" d="M136.9,33.7v5.7h-14.6v-5.7H136.9z"/>
	<path class="st0" d="M141.3,20h25.6v6.3h-9V50h-7.6V26.3h-9V20z"/>
	<path class="st0" d="M189.2,20c1.6,0,2.9,0.3,4.1,0.8c1.1,0.6,2.1,1.3,2.9,2.2c0.8,0.9,1.3,1.9,1.7,3.1c0.4,1.2,0.5,2.4,0.5,3.6
		c0,2.3-0.4,4.2-1.2,5.8c-0.8,1.6-2.1,2.8-4,3.5l8.6,10.8h-9.4l-13.3-16.1h9.5c0.4,0,0.8-0.1,1.1-0.4c0.3-0.3,0.6-0.6,0.9-1
		c0.2-0.4,0.4-0.8,0.6-1.3c0.1-0.5,0.2-0.9,0.2-1.2c0-0.3,0-0.6-0.1-1c-0.1-0.4-0.2-0.7-0.4-1.1c-0.2-0.3-0.4-0.6-0.7-0.9
		c-0.3-0.2-0.6-0.3-0.9-0.3h-17.8V20H189.2z"/>
	<path class="st0" d="M200.8,50l14.7-30h7.4l14.8,30h-8.4l-3.8-8h-8.1l-2.9-3.7L209.2,50H200.8z M219.2,28l-3.6,7.6h7.3L219.2,28z"
		/>
	<path class="st0" d="M257.2,26.3h-16.6V20h15.7c2.3,0,4.3,0.4,6.1,1.2c1.8,0.8,3.3,1.9,4.6,3.2c1.3,1.3,2.3,2.9,2.9,4.8
		c0.7,1.8,1,3.8,1,5.9c0,1.7-0.3,3.5-0.9,5.3c-0.6,1.8-1.5,3.4-2.6,4.8c-1.2,1.4-2.6,2.6-4.2,3.5c-1.7,0.9-3.6,1.4-5.8,1.4h-16.8
		V30.1h7.4v13.6h8.8c0.9,0,1.7-0.2,2.6-0.7c0.9-0.5,1.6-1.1,2.3-2c0.7-0.8,1.2-1.8,1.7-2.8c0.4-1.1,0.6-2.1,0.6-3.2
		c0-1.1-0.2-2.1-0.7-3.1c-0.5-1-1.1-2-1.8-2.8c-0.7-0.8-1.5-1.5-2.2-2S257.8,26.3,257.2,26.3z"/>
	<path class="st0" d="M299,20v6.3h-16.7V31h14.6v6.4h-14.6v6.3H299V50h-24.2V20H299z"/>
</g>
</svg>
