<?xml version="1.0" encoding="utf-8"?>
<!-- Generator: Adobe Illustrator 24.0.2, SVG Export Plug-In . SVG Version: 6.00 Build 0)  -->
<svg version="1.1" id="Слой_1" xmlns="http://www.w3.org/2000/svg" xmlns:xlink="http://www.w3.org/1999/xlink" x="0px" y="0px"
	 width="299px" height="45.215px" viewBox="0 0 299 45.215" enable-background="new 0 0 299 45.215" xml:space="preserve">
<g>
	<path fill="#009FE3" d="M107.233,12.51c0.359-1.135,0.539-2.56,0.539-4.274c0-1.784-0.186-3.243-0.556-4.378
		c-0.371-1.135-1.089-2.016-2.155-2.641c-1.066-0.625-2.595-0.938-4.587-0.938H89.459v23.908h4.934v-7.958h5.977
		c2.038,0,3.602-0.335,4.691-1.008C106.15,14.549,106.874,13.646,107.233,12.51z M102.525,10.651
		c-0.186,0.498-0.579,0.84-1.181,1.025c-0.603,0.186-1.599,0.278-2.989,0.278h-3.962V4.552h4.031c1.39,0,2.38,0.093,2.971,0.278
		c0.591,0.186,0.973,0.521,1.147,1.008c0.174,0.486,0.26,1.286,0.26,2.398S102.71,10.153,102.525,10.651z"/>
	<path fill="#009FE3" d="M123.236,0.278h-6.637l-8.097,23.908h4.969l1.703-5.143h9.313l1.737,5.143h5.108L123.236,0.278z
		 M116.494,14.734l3.232-9.8h0.174l3.267,9.8H116.494z"/>
	<path fill="#009FE3" d="M147.196,24.308c1.147-0.104,2.114-0.237,2.902-0.399v-4.066c-1.46,0.232-3.071,0.348-4.831,0.348
		c-2.108,0-3.568-0.157-4.378-0.469c-0.811-0.313-1.332-0.979-1.564-1.998c-0.232-1.019-0.348-2.849-0.348-5.49
		c0-2.641,0.116-4.471,0.348-5.49c0.231-1.019,0.753-1.685,1.564-1.998c0.811-0.313,2.27-0.469,4.378-0.469
		c1.112,0,2.676,0.117,4.691,0.348V0.625c-0.742-0.185-1.668-0.335-2.78-0.452C146.067,0.058,145.012,0,144.016,0
		c-2.942,0-5.114,0.365-6.516,1.095c-1.402,0.73-2.334,1.935-2.797,3.614c-0.464,1.68-0.695,4.188-0.695,7.524
		c0,3.383,0.231,5.908,0.695,7.576c0.463,1.668,1.395,2.861,2.797,3.579c1.402,0.718,3.573,1.078,6.516,1.078
		C144.989,24.465,146.049,24.412,147.196,24.308z"/>
	<polygon fill="#009FE3" points="174.84,0.278 169.384,0.278 161.982,9.869 159.584,9.869 159.584,0.278 154.65,0.278 
		154.65,24.186 159.584,24.186 159.584,14.144 161.982,14.144 169.245,24.186 174.944,24.186 165.944,11.676 	"/>
	<rect x="177.202" y="12.267" fill="#009FE3" width="9.139" height="4.066"/>
	<polygon fill="#009FE3" points="188.843,4.761 195.794,4.761 195.794,24.186 200.728,24.186 200.728,4.761 207.678,4.761 
		207.678,0.278 188.843,0.278 	"/>
	<path fill="#009FE3" d="M229.917,7.889c0-1.691-0.18-3.075-0.539-4.153c-0.359-1.077-1.077-1.922-2.155-2.537
		c-1.077-0.614-2.647-0.921-4.709-0.921h-11.259v23.908h4.935v-8.653h5.386l3.51,8.653h5.247l-3.823-9.313
		C228.782,13.993,229.917,11.665,229.917,7.889z M224.653,10.026c-0.174,0.452-0.568,0.771-1.182,0.956
		c-0.614,0.186-1.593,0.278-2.936,0.278h-4.344V4.552h4.379c1.367,0,2.346,0.087,2.936,0.261c0.591,0.173,0.973,0.481,1.147,0.921
		c0.173,0.44,0.26,1.159,0.26,2.155C224.913,8.862,224.826,9.574,224.653,10.026z"/>
	<path fill="#009FE3" d="M240.585,0.278l-8.097,23.908h4.969l1.703-5.143h9.313l1.738,5.143h5.108l-8.097-23.908H240.585z
		 M240.481,14.734l3.232-9.8h0.174l3.267,9.8H240.481z"/>
	<path fill="#009FE3" d="M274.206,1.304c-1.471-0.683-3.921-1.025-7.35-1.025h-8.131v23.908h8.131c3.429,0,5.878-0.342,7.35-1.025
		c1.471-0.683,2.392-1.79,2.763-3.319c0.37-1.529,0.556-4.066,0.556-7.61c0-3.545-0.185-6.081-0.556-7.61
		C276.598,3.093,275.677,1.987,274.206,1.304z M272.225,17.792c-0.197,0.95-0.655,1.541-1.373,1.772
		c-0.718,0.232-2.132,0.347-4.239,0.347h-2.954V4.552h2.954c2.108,0,3.515,0.116,4.222,0.347c0.706,0.232,1.164,0.829,1.373,1.79
		c0.208,0.961,0.313,2.809,0.313,5.543C272.521,14.989,272.422,16.843,272.225,17.792z"/>
	<polygon fill="#009FE3" points="299,4.552 299,0.278 282.563,0.278 282.563,24.186 299,24.186 299,19.912 287.498,19.912 
		287.498,14.248 297.367,14.248 297.367,9.974 287.498,9.974 287.498,4.552 	"/>
	<path fill="#009FE3" d="M92.898,39.701c-0.608-0.217-1.059-0.416-1.354-0.595c-0.295-0.18-0.505-0.377-0.629-0.592
		c-0.124-0.215-0.186-0.491-0.186-0.828c0-0.457,0.169-0.814,0.506-1.071c0.337-0.257,0.805-0.386,1.404-0.386
		c0.758,0,1.539,0.169,2.342,0.506l0.353-0.985c-0.812-0.354-1.701-0.532-2.668-0.532c-0.927,0-1.672,0.222-2.235,0.665
		c-0.563,0.444-0.845,1.04-0.845,1.79c0,0.714,0.194,1.292,0.582,1.736c0.388,0.443,1.034,0.827,1.939,1.151
		c0.647,0.23,1.13,0.437,1.447,0.618c0.317,0.182,0.543,0.381,0.679,0.595c0.135,0.215,0.203,0.491,0.203,0.828
		c0,0.51-0.191,0.908-0.572,1.194c-0.381,0.286-0.949,0.429-1.703,0.429c-0.461,0-0.927-0.049-1.397-0.147
		c-0.47-0.097-0.905-0.23-1.304-0.399v1.091c0.621,0.297,1.508,0.445,2.661,0.445c1.064,0,1.907-0.239,2.528-0.718
		c0.621-0.479,0.931-1.146,0.931-2.002c0-0.665-0.192-1.206-0.575-1.623C94.62,40.455,93.918,40.065,92.898,39.701z"/>
	<rect x="97.567" y="35.357" fill="#009FE3" width="1.131" height="9.725"/>
	<path fill="#009FE3" d="M107.905,40.938c-0.009,0.279,0.002,0.744,0.033,1.394c0.031,0.65,0.051,1.034,0.06,1.154h-0.053
		l-5.302-8.129h-1.277v9.725h1.044v-5.528c0-0.798-0.036-1.676-0.106-2.634h0.053l5.315,8.162h1.291v-9.725h-1.058V40.938z"/>
	<path fill="#009FE3" d="M115.801,36.228c0.736,0,1.472,0.173,2.208,0.519l0.479-0.971c-0.763-0.373-1.654-0.559-2.674-0.559
		c-0.958,0-1.79,0.204-2.498,0.612c-0.707,0.408-1.248,0.989-1.623,1.743c-0.375,0.754-0.562,1.632-0.562,2.634
		c0,1.601,0.389,2.836,1.168,3.705c0.778,0.869,1.884,1.304,3.316,1.304c0.989,0,1.82-0.126,2.494-0.379v-0.991
		c-0.869,0.244-1.643,0.366-2.321,0.366c-1.104,0-1.955-0.347-2.551-1.041c-0.596-0.694-0.895-1.677-0.895-2.95
		c0-1.237,0.309-2.212,0.928-2.924C113.888,36.585,114.732,36.228,115.801,36.228z"/>
	<polygon fill="#009FE3" points="120.231,45.083 125.652,45.083 125.652,44.071 121.362,44.071 121.362,40.493 125.393,40.493 
		125.393,39.495 121.362,39.495 121.362,36.362 125.652,36.362 125.652,35.357 120.231,35.357 	"/>
	<path fill="#009FE3" d="M132.065,44.005l2.129-2.082c0.949-0.923,1.597-1.685,1.942-2.288s0.519-1.213,0.519-1.829
		c0-0.789-0.259-1.418-0.778-1.886c-0.519-0.468-1.235-0.702-2.149-0.702c-1.055,0-2.031,0.373-2.927,1.118l0.585,0.751
		c0.443-0.35,0.846-0.592,1.207-0.725c0.361-0.133,0.744-0.2,1.147-0.2c0.559,0,0.996,0.152,1.31,0.456
		c0.315,0.304,0.472,0.715,0.472,1.234c0,0.368-0.062,0.712-0.186,1.031c-0.124,0.32-0.31,0.648-0.559,0.984
		c-0.249,0.337-0.763,0.9-1.543,1.69l-2.561,2.574v0.951h6.393v-1.025h-5.002V44.005z"/>
	<path fill="#009FE3" d="M141.684,35.204c-1.082,0-1.887,0.41-2.415,1.231c-0.528,0.82-0.792,2.077-0.792,3.772
		c0,1.641,0.273,2.886,0.818,3.735c0.546,0.849,1.341,1.273,2.388,1.273c1.091,0,1.901-0.414,2.431-1.244
		c0.53-0.829,0.795-2.084,0.795-3.765c0-1.623-0.274-2.863-0.821-3.719C143.541,35.632,142.739,35.204,141.684,35.204z
		 M143.284,43.283c-0.33,0.654-0.864,0.981-1.6,0.981c-0.727,0-1.257-0.322-1.59-0.968c-0.333-0.645-0.499-1.675-0.499-3.09
		c0-1.415,0.166-2.442,0.499-3.083c0.333-0.64,0.863-0.961,1.59-0.961c0.736,0,1.27,0.325,1.6,0.974
		c0.33,0.65,0.496,1.673,0.496,3.07C143.779,41.604,143.614,42.629,143.284,43.283z"/>
	<path fill="#009FE3" d="M149.473,35.204c-1.082,0-1.887,0.41-2.415,1.231c-0.527,0.82-0.791,2.077-0.791,3.772
		c0,1.641,0.273,2.886,0.818,3.735c0.545,0.849,1.341,1.273,2.388,1.273c1.091,0,1.901-0.414,2.431-1.244
		c0.53-0.829,0.795-2.084,0.795-3.765c0-1.623-0.274-2.863-0.821-3.719C151.33,35.632,150.528,35.204,149.473,35.204z
		 M151.073,43.283c-0.331,0.654-0.864,0.981-1.6,0.981c-0.727,0-1.258-0.322-1.59-0.968c-0.332-0.645-0.499-1.675-0.499-3.09
		c0-1.415,0.166-2.442,0.499-3.083c0.332-0.64,0.863-0.961,1.59-0.961c0.736,0,1.269,0.325,1.6,0.974
		c0.33,0.65,0.496,1.673,0.496,3.07C151.569,41.604,151.403,42.629,151.073,43.283z"/>
	<path fill="#009FE3" d="M159.451,35.304h-1.171l-4.616,6.579v0.965h4.729v2.235h1.058v-2.235h1.444v-1.005h-1.444V35.304z
		 M158.394,38.61v3.233h-3.625l3.04-4.324c0.186-0.279,0.386-0.632,0.599-1.058h0.053C158.416,37.26,158.394,37.976,158.394,38.61z"
		/>
	<path fill="#009FE3" d="M71.177,0H36.283c-1.24,0-2.036,1.318-1.458,2.415l3.256,6.188c0.285,0.542,0.847,0.881,1.458,0.881h8.507
		v17.653c0,0.267,0.065,0.531,0.19,0.767l6.993,13.291c0.801,1.523,3.107,0.953,3.107-0.767V9.484h12.843
		c0.91,0,1.648-0.738,1.648-1.648V1.648C72.825,0.738,72.087,0,71.177,0z"/>
	<path fill="#009FE3" d="M23.892,0.881c-0.617-1.173-2.296-1.175-2.915-0.003L7.602,26.163c-0.581,1.098,0.215,2.419,1.457,2.419
		h6.793c0.603,0,1.157-0.329,1.446-0.858l5.139-9.408l13.233,26c0.281,0.553,0.849,0.9,1.469,0.9h7.35
		c1.24,0,2.036-1.318,1.458-2.415L23.892,0.881z"/>
	<circle fill="#009FE3" cx="5.545" cy="39.671" r="5.545"/>
</g>
</svg>
