<?xml version="1.0" encoding="utf-8"?>
<!-- Generator: Adobe Illustrator 24.0.2, SVG Export Plug-In . SVG Version: 6.00 Build 0)  -->
<svg version="1.1" id="Слой_1" xmlns="http://www.w3.org/2000/svg" xmlns:xlink="http://www.w3.org/1999/xlink" x="0px" y="0px"
	 width="299px" height="45.2px" viewBox="0 0 299 45.2" enable-background="new 0 0 299 45.2" xml:space="preserve">
<g>
	<path fill="#FFFFFF" d="M107.2,12.5c0.4-1.1,0.5-2.6,0.5-4.3c0-1.8-0.2-3.2-0.6-4.4c-0.4-1.1-1.1-2-2.2-2.6s-2.6-0.9-4.6-0.9h-11
		v23.9h4.9v-8h6c2,0,3.6-0.3,4.7-1C106.2,14.5,106.9,13.6,107.2,12.5z M102.5,10.7c-0.2,0.5-0.6,0.8-1.2,1s-1.6,0.3-3,0.3h-4V4.6h4
		c1.4,0,2.4,0.1,3,0.3c0.6,0.2,1,0.5,1.1,1c0.2,0.5,0.3,1.3,0.3,2.4S102.7,10.2,102.5,10.7z"/>
	<path fill="#FFFFFF" d="M123.2,0.3h-6.6l-8.1,23.9h5l1.7-5.1h9.3l1.7,5.1h5.1L123.2,0.3z M116.5,14.7l3.2-9.8h0.2l3.3,9.8H116.5z"
		/>
	<path fill="#FFFFFF" d="M147.2,24.3c1.1-0.1,2.1-0.2,2.9-0.4v-4.1c-1.5,0.2-3.1,0.3-4.8,0.3c-2.1,0-3.6-0.2-4.4-0.5
		c-0.8-0.3-1.3-1-1.6-2c-0.2-1-0.3-2.8-0.3-5.5c0-2.6,0.1-4.5,0.3-5.5s0.8-1.7,1.6-2s2.3-0.5,4.4-0.5c1.1,0,2.7,0.1,4.7,0.3v-4
		c-0.7-0.2-1.7-0.3-2.8-0.5C146.1,0.1,145,0,144,0c-2.9,0-5.1,0.4-6.5,1.1s-2.3,1.9-2.8,3.6s-0.7,4.2-0.7,7.5c0,3.4,0.2,5.9,0.7,7.6
		c0.5,1.7,1.4,2.9,2.8,3.6c1.4,0.7,3.6,1.1,6.5,1.1C145,24.5,146,24.4,147.2,24.3z"/>
	<polygon fill="#FFFFFF" points="174.8,0.3 169.4,0.3 162,9.9 159.6,9.9 159.6,0.3 154.6,0.3 154.6,24.2 159.6,24.2 159.6,14.1 
		162,14.1 169.2,24.2 174.9,24.2 165.9,11.7 	"/>
	<rect x="177.2" y="12.3" fill="#FFFFFF" width="9.1" height="4.1"/>
	<polygon fill="#FFFFFF" points="188.8,4.8 195.8,4.8 195.8,24.2 200.7,24.2 200.7,4.8 207.7,4.8 207.7,0.3 188.8,0.3 	"/>
	<path fill="#FFFFFF" d="M229.9,7.9c0-1.7-0.2-3.1-0.5-4.2c-0.4-1.1-1.1-1.9-2.2-2.5c-1.1-0.6-2.6-0.9-4.7-0.9h-11.3v23.9h4.9v-8.7
		h5.4l3.5,8.7h5.2l-3.8-9.3C228.8,14,229.9,11.7,229.9,7.9z M224.7,10c-0.2,0.5-0.6,0.8-1.2,1c-0.6,0.2-1.6,0.3-2.9,0.3h-4.3V4.6
		h4.4c1.4,0,2.3,0.1,2.9,0.3c0.6,0.2,1,0.5,1.1,0.9C224.9,6.2,225,7,225,8C224.9,8.9,224.8,9.6,224.7,10z"/>
	<path fill="#FFFFFF" d="M240.6,0.3l-8.1,23.9h5l1.7-5.1h9.3l1.7,5.1h5.1l-8.1-23.9C247.2,0.3,240.6,0.3,240.6,0.3z M240.5,14.7
		l3.2-9.8h0.2l3.3,9.8H240.5z"/>
	<path fill="#FFFFFF" d="M274.2,1.3c-1.5-0.7-3.9-1-7.3-1h-8.1v23.9h8.1c3.4,0,5.9-0.3,7.3-1c1.5-0.7,2.4-1.8,2.8-3.3
		s0.6-4.1,0.6-7.6s-0.2-6.1-0.6-7.6C276.6,3.1,275.7,2,274.2,1.3z M272.2,17.8c-0.2,0.9-0.7,1.5-1.4,1.8c-0.7,0.2-2.1,0.3-4.2,0.3
		h-3V4.6h3c2.1,0,3.5,0.1,4.2,0.3c0.7,0.2,1.2,0.8,1.4,1.8c0.2,1,0.3,2.8,0.3,5.5C272.5,15,272.4,16.8,272.2,17.8z"/>
	<polygon fill="#FFFFFF" points="299,4.6 299,0.3 282.6,0.3 282.6,24.2 299,24.2 299,19.9 287.5,19.9 287.5,14.2 297.4,14.2 
		297.4,10 287.5,10 287.5,4.6 	"/>
	<path fill="#FFFFFF" d="M92.9,39.7c-0.6-0.2-1.1-0.4-1.4-0.6c-0.3-0.2-0.5-0.4-0.6-0.6c-0.1-0.2-0.2-0.5-0.2-0.8
		c0-0.5,0.2-0.8,0.5-1.1s0.8-0.4,1.4-0.4c0.8,0,1.5,0.2,2.3,0.5l0.4-1c-0.8-0.4-1.7-0.5-2.7-0.5c-0.9,0-1.7,0.2-2.2,0.7
		c-0.6,0.4-0.8,1-0.8,1.8c0,0.7,0.2,1.3,0.6,1.7s1,0.8,1.9,1.2c0.6,0.2,1.1,0.4,1.4,0.6c0.3,0.2,0.5,0.4,0.7,0.6
		c0.1,0.2,0.2,0.5,0.2,0.8c0,0.5-0.2,0.9-0.6,1.2s-0.9,0.4-1.7,0.4c-0.5,0-0.9,0-1.4-0.1s-0.9-0.2-1.3-0.4v1.1
		c0.6,0.3,1.5,0.4,2.7,0.4c1.1,0,1.9-0.2,2.5-0.7s0.9-1.1,0.9-2c0-0.7-0.2-1.2-0.6-1.6C94.6,40.5,93.9,40.1,92.9,39.7z"/>
	<rect x="97.6" y="35.4" fill="#FFFFFF" width="1.1" height="9.7"/>
	<path fill="#FFFFFF" d="M107.9,40.9c0,0.3,0,0.7,0,1.4c0,0.6,0.1,1,0.1,1.2h-0.1l-5.3-8.1h-1.3v9.7h1v-5.5c0-0.8,0-1.7-0.1-2.6h0.1
		l5.3,8.2h1.3v-9.7h-1.1v5.4H107.9z"/>
	<path fill="#FFFFFF" d="M115.8,36.2c0.7,0,1.5,0.2,2.2,0.5l0.5-1c-0.8-0.4-1.7-0.6-2.7-0.6s-1.8,0.2-2.5,0.6
		c-0.7,0.4-1.2,1-1.6,1.7c-0.4,0.8-0.6,1.6-0.6,2.6c0,1.6,0.4,2.8,1.2,3.7c0.8,0.9,1.9,1.3,3.3,1.3c1,0,1.8-0.1,2.5-0.4v-1
		c-0.9,0.2-1.6,0.4-2.3,0.4c-1.1,0-2-0.3-2.6-1s-0.9-1.7-0.9-3c0-1.2,0.3-2.2,0.9-2.9C113.9,36.6,114.7,36.2,115.8,36.2z"/>
	<polygon fill="#FFFFFF" points="120.2,45.1 125.7,45.1 125.7,44.1 121.4,44.1 121.4,40.5 125.4,40.5 125.4,39.5 121.4,39.5 
		121.4,36.4 125.7,36.4 125.7,35.4 120.2,35.4 	"/>
	<path fill="#FFFFFF" d="M132.1,44l2.1-2.1c0.9-0.9,1.6-1.7,1.9-2.3s0.5-1.2,0.5-1.8c0-0.8-0.3-1.4-0.8-1.9s-1.2-0.7-2.1-0.7
		c-1.1,0-2,0.4-2.9,1.1l0.6,0.8c0.4-0.4,0.8-0.6,1.2-0.7c0.4-0.1,0.7-0.2,1.1-0.2c0.6,0,1,0.2,1.3,0.5s0.5,0.7,0.5,1.2
		c0,0.4-0.1,0.7-0.2,1c-0.1,0.3-0.3,0.6-0.6,1c-0.2,0.3-0.8,0.9-1.5,1.7l-2.6,2.6v1h6.4v-1L132.1,44L132.1,44z"/>
	<path fill="#FFFFFF" d="M141.7,35.2c-1.1,0-1.9,0.4-2.4,1.2s-0.8,2.1-0.8,3.8c0,1.6,0.3,2.9,0.8,3.7s1.3,1.3,2.4,1.3
		c1.1,0,1.9-0.4,2.4-1.2s0.8-2.1,0.8-3.8c0-1.6-0.3-2.9-0.8-3.7C143.5,35.6,142.7,35.2,141.7,35.2z M143.3,43.3
		c-0.3,0.7-0.9,1-1.6,1c-0.7,0-1.3-0.3-1.6-1c-0.3-0.6-0.5-1.7-0.5-3.1c0-1.4,0.2-2.4,0.5-3.1c0.3-0.6,0.9-1,1.6-1
		c0.7,0,1.3,0.3,1.6,1c0.3,0.6,0.5,1.7,0.5,3.1S143.6,42.6,143.3,43.3z"/>
	<path fill="#FFFFFF" d="M149.5,35.2c-1.1,0-1.9,0.4-2.4,1.2s-0.8,2.1-0.8,3.8c0,1.6,0.3,2.9,0.8,3.7s1.3,1.3,2.4,1.3
		c1.1,0,1.9-0.4,2.4-1.2s0.8-2.1,0.8-3.8c0-1.6-0.3-2.9-0.8-3.7C151.3,35.6,150.5,35.2,149.5,35.2z M151.1,43.3
		c-0.3,0.7-0.9,1-1.6,1c-0.7,0-1.3-0.3-1.6-1c-0.3-0.6-0.5-1.7-0.5-3.1c0-1.4,0.2-2.4,0.5-3.1c0.3-0.6,0.9-1,1.6-1
		c0.7,0,1.3,0.3,1.6,1c0.3,0.6,0.5,1.7,0.5,3.1S151.4,42.6,151.1,43.3z"/>
	<path fill="#FFFFFF" d="M159.5,35.3h-1.2l-4.6,6.6v1h4.7v2.2h1.1v-2.2h1.4v-1h-1.4V35.3z M158.4,38.6v3.2h-3.6l3-4.3
		c0.2-0.3,0.4-0.6,0.6-1.1h0.1C158.4,37.3,158.4,38,158.4,38.6z"/>
	<path fill="#FFFFFF" d="M71.2,0H36.3c-1.2,0-2,1.3-1.5,2.4l3.3,6.2c0.3,0.5,0.8,0.9,1.5,0.9H48v17.7c0,0.3,0.1,0.5,0.2,0.8l7,13.3
		c0.8,1.5,3.1,1,3.1-0.8v-31h12.8c0.9,0,1.6-0.7,1.6-1.6V1.6C72.8,0.7,72.1,0,71.2,0z"/>
	<path fill="#FFFFFF" d="M23.9,0.9c-0.6-1.2-2.3-1.2-2.9,0L7.6,26.2c-0.6,1.1,0.2,2.4,1.5,2.4h6.8c0.6,0,1.2-0.3,1.4-0.9l5.1-9.4
		l13.2,26c0.3,0.6,0.8,0.9,1.5,0.9h7.3c1.2,0,2-1.3,1.5-2.4L23.9,0.9z"/>
	<circle fill="#FFFFFF" cx="5.5" cy="39.7" r="5.5"/>
</g>
</svg>
