<?xml version="1.0" encoding="utf-8"?>
<!-- Generator: Adobe Illustrator 24.0.2, SVG Export Plug-In . SVG Version: 6.00 Build 0)  -->
<svg version="1.1" id="Слой_1" xmlns="http://www.w3.org/2000/svg" xmlns:xlink="http://www.w3.org/1999/xlink" x="0px" y="0px"
	 width="39.685px" height="39.685px" viewBox="0 0 39.685 39.685" enable-background="new 0 0 39.685 39.685" xml:space="preserve">
<g transform="translate(80,80)">
	<g transform="translate(320,0) scale(0.4,0.4)">
		<g transform="">
			<rect x="-968.252" y="-200" fill="#020203" width="3.969" height="3.969"/>
		</g>
	</g>
	<g transform="translate(400,0) scale(0.4,0.4)">
		<g transform="">
			<rect x="-1160.315" y="-200" fill="#020203" width="3.969" height="3.969"/>
		</g>
	</g>
	<g transform="translate(440,0) scale(0.4,0.4)">
		<g transform="">
			<rect x="-1256.346" y="-200" fill="#020203" width="3.969" height="3.969"/>
		</g>
	</g>
	<g transform="translate(480,0) scale(0.4,0.4)">
		<g transform="">
			<rect x="-1352.378" y="-200" fill="#020203" width="3.969" height="3.969"/>
		</g>
	</g>
	<g transform="translate(520,0) scale(0.4,0.4)">
		<g transform="">
			<rect x="-1448.409" y="-200" fill="#020203" width="3.969" height="3.969"/>
		</g>
	</g>
	<g transform="translate(560,0) scale(0.4,0.4)">
		<g transform="">
			<rect x="-1544.441" y="-200" fill="#020203" width="3.969" height="3.969"/>
		</g>
	</g>
	<g transform="translate(440,40) scale(0.4,0.4)">
		<g transform="">
			<rect x="-1256.346" y="-296.031" fill="#020203" width="3.969" height="3.969"/>
		</g>
	</g>
	<g transform="translate(480,40) scale(0.4,0.4)">
		<g transform="">
			<rect x="-1352.378" y="-296.031" fill="#020203" width="3.969" height="3.969"/>
		</g>
	</g>
	<g transform="translate(560,40) scale(0.4,0.4)">
		<g transform="">
			<rect x="-1544.441" y="-296.031" fill="#020203" width="3.969" height="3.969"/>
		</g>
	</g>
	<g transform="translate(320,80) scale(0.4,0.4)">
		<g transform="">
			<rect x="-968.252" y="-392.063" fill="#020203" width="3.969" height="3.969"/>
		</g>
	</g>
	<g transform="translate(360,80) scale(0.4,0.4)">
		<g transform="">
			<rect x="-1064.283" y="-392.063" fill="#020203" width="3.969" height="3.969"/>
		</g>
	</g>
	<g transform="translate(400,80) scale(0.4,0.4)">
		<g transform="">
			<rect x="-1160.315" y="-392.063" fill="#020203" width="3.969" height="3.969"/>
		</g>
	</g>
	<g transform="translate(440,80) scale(0.4,0.4)">
		<g transform="">
			<rect x="-1256.346" y="-392.063" fill="#020203" width="3.969" height="3.969"/>
		</g>
	</g>
	<g transform="translate(480,80) scale(0.4,0.4)">
		<g transform="">
			<rect x="-1352.378" y="-392.063" fill="#020203" width="3.969" height="3.969"/>
		</g>
	</g>
	<g transform="translate(520,80) scale(0.4,0.4)">
		<g transform="">
			<rect x="-1448.409" y="-392.063" fill="#020203" width="3.969" height="3.969"/>
		</g>
	</g>
	<g transform="translate(600,80) scale(0.4,0.4)">
		<g transform="">
			<rect x="-1640.472" y="-392.063" fill="#020203" width="3.969" height="3.969"/>
		</g>
	</g>
	<g transform="translate(440,120) scale(0.4,0.4)">
		<g transform="">
			<rect x="-1256.346" y="-488.094" fill="#020203" width="3.969" height="3.969"/>
		</g>
	</g>
	<g transform="translate(520,120) scale(0.4,0.4)">
		<g transform="">
			<rect x="-1448.409" y="-488.094" fill="#020203" width="3.969" height="3.969"/>
		</g>
	</g>
	<g transform="translate(360,160) scale(0.4,0.4)">
		<g transform="">
			<rect x="-1064.283" y="-584.126" fill="#020203" width="3.969" height="3.969"/>
		</g>
	</g>
	<g transform="translate(400,160) scale(0.4,0.4)">
		<g transform="">
			<rect x="-1160.315" y="-584.126" fill="#020203" width="3.969" height="3.969"/>
		</g>
	</g>
	<g transform="translate(480,160) scale(0.4,0.4)">
		<g transform="">
			<rect x="-1352.378" y="-584.126" fill="#020203" width="3.969" height="3.969"/>
		</g>
	</g>
	<g transform="translate(560,160) scale(0.4,0.4)">
		<g transform="">
			<rect x="-1544.441" y="-584.126" fill="#020203" width="3.969" height="3.969"/>
		</g>
	</g>
	<g transform="translate(320,200) scale(0.4,0.4)">
		<g transform="">
			<rect x="-968.252" y="-680.157" fill="#020203" width="3.969" height="3.969"/>
		</g>
	</g>
	<g transform="translate(360,200) scale(0.4,0.4)">
		<g transform="">
			<rect x="-1064.283" y="-680.157" fill="#020203" width="3.969" height="3.969"/>
		</g>
	</g>
	<g transform="translate(480,200) scale(0.4,0.4)">
		<g transform="">
			<rect x="-1352.378" y="-680.157" fill="#020203" width="3.969" height="3.969"/>
		</g>
	</g>
	<g transform="translate(520,200) scale(0.4,0.4)">
		<g transform="">
			<rect x="-1448.409" y="-680.157" fill="#020203" width="3.969" height="3.969"/>
		</g>
	</g>
	<g transform="translate(560,200) scale(0.4,0.4)">
		<g transform="">
			<rect x="-1544.441" y="-680.157" fill="#020203" width="3.969" height="3.969"/>
		</g>
	</g>
	<g transform="translate(640,200) scale(0.4,0.4)">
		<g transform="">
			<rect x="-1736.504" y="-680.157" fill="#020203" width="3.969" height="3.969"/>
		</g>
	</g>
	<g transform="translate(320,240) scale(0.4,0.4)">
		<g transform="">
			<rect x="-968.252" y="-776.189" fill="#020203" width="3.969" height="3.969"/>
		</g>
	</g>
	<g transform="translate(400,240) scale(0.4,0.4)">
		<g transform="">
			<rect x="-1160.315" y="-776.189" fill="#020203" width="3.969" height="3.969"/>
		</g>
	</g>
	<g transform="translate(480,240) scale(0.4,0.4)">
		<g transform="">
			<rect x="-1352.378" y="-776.189" fill="#020203" width="3.969" height="3.969"/>
		</g>
	</g>
	<g transform="translate(560,240) scale(0.4,0.4)">
		<g transform="">
			<rect x="-1544.441" y="-776.189" fill="#020203" width="3.969" height="3.969"/>
		</g>
	</g>
	<g transform="translate(640,240) scale(0.4,0.4)">
		<g transform="">
			<rect x="-1736.504" y="-776.189" fill="#020203" width="3.969" height="3.969"/>
		</g>
	</g>
	<g transform="translate(360,280) scale(0.4,0.4)">
		<g transform="">
			<rect x="-1064.283" y="-872.22" fill="#020203" width="3.969" height="3.969"/>
		</g>
	</g>
	<g transform="translate(400,280) scale(0.4,0.4)">
		<g transform="">
			<rect x="-1160.315" y="-872.22" fill="#020203" width="3.969" height="3.969"/>
		</g>
	</g>
	<g transform="translate(480,280) scale(0.4,0.4)">
		<g transform="">
			<rect x="-1352.378" y="-872.22" fill="#020203" width="3.969" height="3.969"/>
		</g>
	</g>
	<g transform="translate(0,320) scale(0.4,0.4)">
		<g transform="">
			<rect x="-200" y="-968.252" fill="#020203" width="3.969" height="3.969"/>
		</g>
	</g>
	<g transform="translate(80,320) scale(0.4,0.4)">
		<g transform="">
			<rect x="-392.063" y="-968.252" fill="#020203" width="3.969" height="3.969"/>
		</g>
	</g>
	<g transform="translate(240,320) scale(0.4,0.4)">
		<g transform="">
			<rect x="-776.189" y="-968.252" fill="#020203" width="3.969" height="3.969"/>
		</g>
	</g>
	<g transform="translate(280,320) scale(0.4,0.4)">
		<g transform="">
			<rect x="-872.22" y="-968.252" fill="#020203" width="3.969" height="3.969"/>
		</g>
	</g>
	<g transform="translate(400,320) scale(0.4,0.4)">
		<g transform="">
			<rect x="-1160.315" y="-968.252" fill="#020203" width="3.969" height="3.969"/>
		</g>
	</g>
	<g transform="translate(440,320) scale(0.4,0.4)">
		<g transform="">
			<rect x="-1256.346" y="-968.252" fill="#020203" width="3.969" height="3.969"/>
		</g>
	</g>
	<g transform="translate(480,320) scale(0.4,0.4)">
		<g transform="">
			<rect x="-1352.378" y="-968.252" fill="#020203" width="3.969" height="3.969"/>
		</g>
	</g>
	<g transform="translate(600,320) scale(0.4,0.4)">
		<g transform="">
			<rect x="-1640.472" y="-968.252" fill="#020203" width="3.969" height="3.969"/>
		</g>
	</g>
	<g transform="translate(640,320) scale(0.4,0.4)">
		<g transform="">
			<rect x="-1736.504" y="-968.252" fill="#020203" width="3.969" height="3.969"/>
		</g>
	</g>
	<g transform="translate(760,320) scale(0.4,0.4)">
		<g transform="">
			<rect x="-2024.598" y="-968.252" fill="#020203" width="3.969" height="3.969"/>
		</g>
	</g>
	<g transform="translate(880,320) scale(0.4,0.4)">
		<g transform="">
			<rect x="-2312.693" y="-968.252" fill="#020203" width="3.969" height="3.969"/>
		</g>
	</g>
	<g transform="translate(960,320) scale(0.4,0.4)">
		<g transform="">
			<rect x="-2504.756" y="-968.252" fill="#020203" width="3.969" height="3.969"/>
		</g>
	</g>
	<g transform="translate(0,360) scale(0.4,0.4)">
		<g transform="">
			<rect x="-200" y="-1064.283" fill="#020203" width="3.969" height="3.969"/>
		</g>
	</g>
	<g transform="translate(40,360) scale(0.4,0.4)">
		<g transform="">
			<rect x="-296.031" y="-1064.283" fill="#020203" width="3.969" height="3.969"/>
		</g>
	</g>
	<g transform="translate(120,360) scale(0.4,0.4)">
		<g transform="">
			<rect x="-488.094" y="-1064.283" fill="#020203" width="3.969" height="3.969"/>
		</g>
	</g>
	<g transform="translate(280,360) scale(0.4,0.4)">
		<g transform="">
			<rect x="-872.22" y="-1064.283" fill="#020203" width="3.969" height="3.969"/>
		</g>
	</g>
	<g transform="translate(320,360) scale(0.4,0.4)">
		<g transform="">
			<rect x="-968.252" y="-1064.283" fill="#020203" width="3.969" height="3.969"/>
		</g>
	</g>
	<g transform="translate(360,360) scale(0.4,0.4)">
		<g transform="">
			<rect x="-1064.283" y="-1064.283" fill="#020203" width="3.969" height="3.969"/>
		</g>
	</g>
	<g transform="translate(600,360) scale(0.4,0.4)">
		<g transform="">
			<rect x="-1640.472" y="-1064.283" fill="#020203" width="3.969" height="3.969"/>
		</g>
	</g>
	<g transform="translate(640,360) scale(0.4,0.4)">
		<g transform="">
			<rect x="-1736.504" y="-1064.283" fill="#020203" width="3.969" height="3.969"/>
		</g>
	</g>
	<g transform="translate(720,360) scale(0.4,0.4)">
		<g transform="">
			<rect x="-1928.567" y="-1064.283" fill="#020203" width="3.969" height="3.969"/>
		</g>
	</g>
	<g transform="translate(760,360) scale(0.4,0.4)">
		<g transform="">
			<rect x="-2024.598" y="-1064.283" fill="#020203" width="3.969" height="3.969"/>
		</g>
	</g>
	<g transform="translate(840,360) scale(0.4,0.4)">
		<g transform="">
			<rect x="-2216.661" y="-1064.283" fill="#020203" width="3.969" height="3.969"/>
		</g>
	</g>
	<g transform="translate(920,360) scale(0.4,0.4)">
		<g transform="">
			<rect x="-2408.724" y="-1064.283" fill="#020203" width="3.969" height="3.969"/>
		</g>
	</g>
	<g transform="translate(960,360) scale(0.4,0.4)">
		<g transform="">
			<rect x="-2504.756" y="-1064.283" fill="#020203" width="3.969" height="3.969"/>
		</g>
	</g>
	<g transform="translate(40,400) scale(0.4,0.4)">
		<g transform="">
			<rect x="-296.031" y="-1160.315" fill="#020203" width="3.969" height="3.969"/>
		</g>
	</g>
	<g transform="translate(80,400) scale(0.4,0.4)">
		<g transform="">
			<rect x="-392.063" y="-1160.315" fill="#020203" width="3.969" height="3.969"/>
		</g>
	</g>
	<g transform="translate(120,400) scale(0.4,0.4)">
		<g transform="">
			<rect x="-488.094" y="-1160.315" fill="#020203" width="3.969" height="3.969"/>
		</g>
	</g>
	<g transform="translate(160,400) scale(0.4,0.4)">
		<g transform="">
			<rect x="-584.126" y="-1160.315" fill="#020203" width="3.969" height="3.969"/>
		</g>
	</g>
	<g transform="translate(240,400) scale(0.4,0.4)">
		<g transform="">
			<rect x="-776.189" y="-1160.315" fill="#020203" width="3.969" height="3.969"/>
		</g>
	</g>
	<g transform="translate(320,400) scale(0.4,0.4)">
		<g transform="">
			<rect x="-968.252" y="-1160.315" fill="#020203" width="3.969" height="3.969"/>
		</g>
	</g>
	<g transform="translate(360,400) scale(0.4,0.4)">
		<g transform="">
			<rect x="-1064.283" y="-1160.315" fill="#020203" width="3.969" height="3.969"/>
		</g>
	</g>
	<g transform="translate(440,400) scale(0.4,0.4)">
		<g transform="">
			<rect x="-1256.346" y="-1160.315" fill="#020203" width="3.969" height="3.969"/>
		</g>
	</g>
	<g transform="translate(480,400) scale(0.4,0.4)">
		<g transform="">
			<rect x="-1352.378" y="-1160.315" fill="#020203" width="3.969" height="3.969"/>
		</g>
	</g>
	<g transform="translate(560,400) scale(0.4,0.4)">
		<g transform="">
			<rect x="-1544.441" y="-1160.315" fill="#020203" width="3.969" height="3.969"/>
		</g>
	</g>
	<g transform="translate(600,400) scale(0.4,0.4)">
		<g transform="">
			<rect x="-1640.472" y="-1160.315" fill="#020203" width="3.969" height="3.969"/>
		</g>
	</g>
	<g transform="translate(640,400) scale(0.4,0.4)">
		<g transform="">
			<rect x="-1736.504" y="-1160.315" fill="#020203" width="3.969" height="3.969"/>
		</g>
	</g>
	<g transform="translate(680,400) scale(0.4,0.4)">
		<g transform="">
			<rect x="-1832.535" y="-1160.315" fill="#020203" width="3.969" height="3.969"/>
		</g>
	</g>
	<g transform="translate(720,400) scale(0.4,0.4)">
		<g transform="">
			<rect x="-1928.567" y="-1160.315" fill="#020203" width="3.969" height="3.969"/>
		</g>
	</g>
	<g transform="translate(760,400) scale(0.4,0.4)">
		<g transform="">
			<rect x="-2024.598" y="-1160.315" fill="#020203" width="3.969" height="3.969"/>
		</g>
	</g>
	<g transform="translate(800,400) scale(0.4,0.4)">
		<g transform="">
			<rect x="-2120.63" y="-1160.315" fill="#020203" width="3.969" height="3.969"/>
		</g>
	</g>
	<g transform="translate(840,400) scale(0.4,0.4)">
		<g transform="">
			<rect x="-2216.661" y="-1160.315" fill="#020203" width="3.969" height="3.969"/>
		</g>
	</g>
	<g transform="translate(880,400) scale(0.4,0.4)">
		<g transform="">
			<rect x="-2312.693" y="-1160.315" fill="#020203" width="3.969" height="3.969"/>
		</g>
	</g>
	<g transform="translate(960,400) scale(0.4,0.4)">
		<g transform="">
			<rect x="-2504.756" y="-1160.315" fill="#020203" width="3.969" height="3.969"/>
		</g>
	</g>
	<g transform="translate(160,440) scale(0.4,0.4)">
		<g transform="">
			<rect x="-584.126" y="-1256.346" fill="#020203" width="3.969" height="3.969"/>
		</g>
	</g>
	<g transform="translate(280,440) scale(0.4,0.4)">
		<g transform="">
			<rect x="-872.22" y="-1256.346" fill="#020203" width="3.969" height="3.969"/>
		</g>
	</g>
	<g transform="translate(360,440) scale(0.4,0.4)">
		<g transform="">
			<rect x="-1064.283" y="-1256.346" fill="#020203" width="3.969" height="3.969"/>
		</g>
	</g>
	<g transform="translate(400,440) scale(0.4,0.4)">
		<g transform="">
			<rect x="-1160.315" y="-1256.346" fill="#020203" width="3.969" height="3.969"/>
		</g>
	</g>
	<g transform="translate(560,440) scale(0.4,0.4)">
		<g transform="">
			<rect x="-1544.441" y="-1256.346" fill="#020203" width="3.969" height="3.969"/>
		</g>
	</g>
	<g transform="translate(600,440) scale(0.4,0.4)">
		<g transform="">
			<rect x="-1640.472" y="-1256.346" fill="#020203" width="3.969" height="3.969"/>
		</g>
	</g>
	<g transform="translate(680,440) scale(0.4,0.4)">
		<g transform="">
			<rect x="-1832.535" y="-1256.346" fill="#020203" width="3.969" height="3.969"/>
		</g>
	</g>
	<g transform="translate(840,440) scale(0.4,0.4)">
		<g transform="">
			<rect x="-2216.661" y="-1256.346" fill="#020203" width="3.969" height="3.969"/>
		</g>
	</g>
	<g transform="translate(0,480) scale(0.4,0.4)">
		<g transform="">
			<rect x="-200" y="-1352.378" fill="#020203" width="3.969" height="3.969"/>
		</g>
	</g>
	<g transform="translate(80,480) scale(0.4,0.4)">
		<g transform="">
			<rect x="-392.063" y="-1352.378" fill="#020203" width="3.969" height="3.969"/>
		</g>
	</g>
	<g transform="translate(120,480) scale(0.4,0.4)">
		<g transform="">
			<rect x="-488.094" y="-1352.378" fill="#020203" width="3.969" height="3.969"/>
		</g>
	</g>
	<g transform="translate(240,480) scale(0.4,0.4)">
		<g transform="">
			<rect x="-776.189" y="-1352.378" fill="#020203" width="3.969" height="3.969"/>
		</g>
	</g>
	<g transform="translate(400,480) scale(0.4,0.4)">
		<g transform="">
			<rect x="-1160.315" y="-1352.378" fill="#020203" width="3.969" height="3.969"/>
		</g>
	</g>
	<g transform="translate(480,480) scale(0.4,0.4)">
		<g transform="">
			<rect x="-1352.378" y="-1352.378" fill="#020203" width="3.969" height="3.969"/>
		</g>
	</g>
	<g transform="translate(600,480) scale(0.4,0.4)">
		<g transform="">
			<rect x="-1640.472" y="-1352.378" fill="#020203" width="3.969" height="3.969"/>
		</g>
	</g>
	<g transform="translate(720,480) scale(0.4,0.4)">
		<g transform="">
			<rect x="-1928.567" y="-1352.378" fill="#020203" width="3.969" height="3.969"/>
		</g>
	</g>
	<g transform="translate(960,480) scale(0.4,0.4)">
		<g transform="">
			<rect x="-2504.756" y="-1352.378" fill="#020203" width="3.969" height="3.969"/>
		</g>
	</g>
	<g transform="translate(160,520) scale(0.4,0.4)">
		<g transform="">
			<rect x="-584.126" y="-1448.409" fill="#020203" width="3.969" height="3.969"/>
		</g>
	</g>
	<g transform="translate(280,520) scale(0.4,0.4)">
		<g transform="">
			<rect x="-872.22" y="-1448.409" fill="#020203" width="3.969" height="3.969"/>
		</g>
	</g>
	<g transform="translate(360,520) scale(0.4,0.4)">
		<g transform="">
			<rect x="-1064.283" y="-1448.409" fill="#020203" width="3.969" height="3.969"/>
		</g>
	</g>
	<g transform="translate(480,520) scale(0.4,0.4)">
		<g transform="">
			<rect x="-1352.378" y="-1448.409" fill="#020203" width="3.969" height="3.969"/>
		</g>
	</g>
	<g transform="translate(520,520) scale(0.4,0.4)">
		<g transform="">
			<rect x="-1448.409" y="-1448.409" fill="#020203" width="3.969" height="3.969"/>
		</g>
	</g>
	<g transform="translate(600,520) scale(0.4,0.4)">
		<g transform="">
			<rect x="-1640.472" y="-1448.409" fill="#020203" width="3.969" height="3.969"/>
		</g>
	</g>
	<g transform="translate(640,520) scale(0.4,0.4)">
		<g transform="">
			<rect x="-1736.504" y="-1448.409" fill="#020203" width="3.969" height="3.969"/>
		</g>
	</g>
	<g transform="translate(720,520) scale(0.4,0.4)">
		<g transform="">
			<rect x="-1928.567" y="-1448.409" fill="#020203" width="3.969" height="3.969"/>
		</g>
	</g>
	<g transform="translate(760,520) scale(0.4,0.4)">
		<g transform="">
			<rect x="-2024.598" y="-1448.409" fill="#020203" width="3.969" height="3.969"/>
		</g>
	</g>
	<g transform="translate(920,520) scale(0.4,0.4)">
		<g transform="">
			<rect x="-2408.724" y="-1448.409" fill="#020203" width="3.969" height="3.969"/>
		</g>
	</g>
	<g transform="translate(960,520) scale(0.4,0.4)">
		<g transform="">
			<rect x="-2504.756" y="-1448.409" fill="#020203" width="3.969" height="3.969"/>
		</g>
	</g>
	<g transform="translate(0,560) scale(0.4,0.4)">
		<g transform="">
			<rect x="-200" y="-1544.441" fill="#020203" width="3.969" height="3.969"/>
		</g>
	</g>
	<g transform="translate(40,560) scale(0.4,0.4)">
		<g transform="">
			<rect x="-296.031" y="-1544.441" fill="#020203" width="3.969" height="3.969"/>
		</g>
	</g>
	<g transform="translate(160,560) scale(0.4,0.4)">
		<g transform="">
			<rect x="-584.126" y="-1544.441" fill="#020203" width="3.969" height="3.969"/>
		</g>
	</g>
	<g transform="translate(240,560) scale(0.4,0.4)">
		<g transform="">
			<rect x="-776.189" y="-1544.441" fill="#020203" width="3.969" height="3.969"/>
		</g>
	</g>
	<g transform="translate(360,560) scale(0.4,0.4)">
		<g transform="">
			<rect x="-1064.283" y="-1544.441" fill="#020203" width="3.969" height="3.969"/>
		</g>
	</g>
	<g transform="translate(480,560) scale(0.4,0.4)">
		<g transform="">
			<rect x="-1352.378" y="-1544.441" fill="#020203" width="3.969" height="3.969"/>
		</g>
	</g>
	<g transform="translate(600,560) scale(0.4,0.4)">
		<g transform="">
			<rect x="-1640.472" y="-1544.441" fill="#020203" width="3.969" height="3.969"/>
		</g>
	</g>
	<g transform="translate(640,560) scale(0.4,0.4)">
		<g transform="">
			<rect x="-1736.504" y="-1544.441" fill="#020203" width="3.969" height="3.969"/>
		</g>
	</g>
	<g transform="translate(680,560) scale(0.4,0.4)">
		<g transform="">
			<rect x="-1832.535" y="-1544.441" fill="#020203" width="3.969" height="3.969"/>
		</g>
	</g>
	<g transform="translate(720,560) scale(0.4,0.4)">
		<g transform="">
			<rect x="-1928.567" y="-1544.441" fill="#020203" width="3.969" height="3.969"/>
		</g>
	</g>
	<g transform="translate(840,560) scale(0.4,0.4)">
		<g transform="">
			<rect x="-2216.661" y="-1544.441" fill="#020203" width="3.969" height="3.969"/>
		</g>
	</g>
	<g transform="translate(880,560) scale(0.4,0.4)">
		<g transform="">
			<rect x="-2312.693" y="-1544.441" fill="#020203" width="3.969" height="3.969"/>
		</g>
	</g>
	<g transform="translate(960,560) scale(0.4,0.4)">
		<g transform="">
			<rect x="-2504.756" y="-1544.441" fill="#020203" width="3.969" height="3.969"/>
		</g>
	</g>
	<g transform="translate(120,600) scale(0.4,0.4)">
		<g transform="">
			<rect x="-488.094" y="-1640.472" fill="#020203" width="3.969" height="3.969"/>
		</g>
	</g>
	<g transform="translate(200,600) scale(0.4,0.4)">
		<g transform="">
			<rect x="-680.157" y="-1640.472" fill="#020203" width="3.969" height="3.969"/>
		</g>
	</g>
	<g transform="translate(280,600) scale(0.4,0.4)">
		<g transform="">
			<rect x="-872.22" y="-1640.472" fill="#020203" width="3.969" height="3.969"/>
		</g>
	</g>
	<g transform="translate(320,600) scale(0.4,0.4)">
		<g transform="">
			<rect x="-968.252" y="-1640.472" fill="#020203" width="3.969" height="3.969"/>
		</g>
	</g>
	<g transform="translate(440,600) scale(0.4,0.4)">
		<g transform="">
			<rect x="-1256.346" y="-1640.472" fill="#020203" width="3.969" height="3.969"/>
		</g>
	</g>
	<g transform="translate(480,600) scale(0.4,0.4)">
		<g transform="">
			<rect x="-1352.378" y="-1640.472" fill="#020203" width="3.969" height="3.969"/>
		</g>
	</g>
	<g transform="translate(560,600) scale(0.4,0.4)">
		<g transform="">
			<rect x="-1544.441" y="-1640.472" fill="#020203" width="3.969" height="3.969"/>
		</g>
	</g>
	<g transform="translate(640,600) scale(0.4,0.4)">
		<g transform="">
			<rect x="-1736.504" y="-1640.472" fill="#020203" width="3.969" height="3.969"/>
		</g>
	</g>
	<g transform="translate(680,600) scale(0.4,0.4)">
		<g transform="">
			<rect x="-1832.535" y="-1640.472" fill="#020203" width="3.969" height="3.969"/>
		</g>
	</g>
	<g transform="translate(720,600) scale(0.4,0.4)">
		<g transform="">
			<rect x="-1928.567" y="-1640.472" fill="#020203" width="3.969" height="3.969"/>
		</g>
	</g>
	<g transform="translate(760,600) scale(0.4,0.4)">
		<g transform="">
			<rect x="-2024.598" y="-1640.472" fill="#020203" width="3.969" height="3.969"/>
		</g>
	</g>
	<g transform="translate(800,600) scale(0.4,0.4)">
		<g transform="">
			<rect x="-2120.63" y="-1640.472" fill="#020203" width="3.969" height="3.969"/>
		</g>
	</g>
	<g transform="translate(840,600) scale(0.4,0.4)">
		<g transform="">
			<rect x="-2216.661" y="-1640.472" fill="#020203" width="3.969" height="3.969"/>
		</g>
	</g>
	<g transform="translate(0,640) scale(0.4,0.4)">
		<g transform="">
			<rect x="-200" y="-1736.504" fill="#020203" width="3.969" height="3.969"/>
		</g>
	</g>
	<g transform="translate(40,640) scale(0.4,0.4)">
		<g transform="">
			<rect x="-296.031" y="-1736.504" fill="#020203" width="3.969" height="3.969"/>
		</g>
	</g>
	<g transform="translate(120,640) scale(0.4,0.4)">
		<g transform="">
			<rect x="-488.094" y="-1736.504" fill="#020203" width="3.969" height="3.969"/>
		</g>
	</g>
	<g transform="translate(240,640) scale(0.4,0.4)">
		<g transform="">
			<rect x="-776.189" y="-1736.504" fill="#020203" width="3.969" height="3.969"/>
		</g>
	</g>
	<g transform="translate(280,640) scale(0.4,0.4)">
		<g transform="">
			<rect x="-872.22" y="-1736.504" fill="#020203" width="3.969" height="3.969"/>
		</g>
	</g>
	<g transform="translate(320,640) scale(0.4,0.4)">
		<g transform="">
			<rect x="-968.252" y="-1736.504" fill="#020203" width="3.969" height="3.969"/>
		</g>
	</g>
	<g transform="translate(360,640) scale(0.4,0.4)">
		<g transform="">
			<rect x="-1064.283" y="-1736.504" fill="#020203" width="3.969" height="3.969"/>
		</g>
	</g>
	<g transform="translate(600,640) scale(0.4,0.4)">
		<g transform="">
			<rect x="-1640.472" y="-1736.504" fill="#020203" width="3.969" height="3.969"/>
		</g>
	</g>
	<g transform="translate(640,640) scale(0.4,0.4)">
		<g transform="">
			<rect x="-1736.504" y="-1736.504" fill="#020203" width="3.969" height="3.969"/>
		</g>
	</g>
	<g transform="translate(680,640) scale(0.4,0.4)">
		<g transform="">
			<rect x="-1832.535" y="-1736.504" fill="#020203" width="3.969" height="3.969"/>
		</g>
	</g>
	<g transform="translate(720,640) scale(0.4,0.4)">
		<g transform="">
			<rect x="-1928.567" y="-1736.504" fill="#020203" width="3.969" height="3.969"/>
		</g>
	</g>
	<g transform="translate(760,640) scale(0.4,0.4)">
		<g transform="">
			<rect x="-2024.598" y="-1736.504" fill="#020203" width="3.969" height="3.969"/>
		</g>
	</g>
	<g transform="translate(800,640) scale(0.4,0.4)">
		<g transform="">
			<rect x="-2120.63" y="-1736.504" fill="#020203" width="3.969" height="3.969"/>
		</g>
	</g>
	<g transform="translate(920,640) scale(0.4,0.4)">
		<g transform="">
			<rect x="-2408.724" y="-1736.504" fill="#020203" width="3.969" height="3.969"/>
		</g>
	</g>
	<g transform="translate(320,680) scale(0.4,0.4)">
		<g transform="">
			<rect x="-968.252" y="-1832.535" fill="#020203" width="3.969" height="3.969"/>
		</g>
	</g>
	<g transform="translate(360,680) scale(0.4,0.4)">
		<g transform="">
			<rect x="-1064.283" y="-1832.535" fill="#020203" width="3.969" height="3.969"/>
		</g>
	</g>
	<g transform="translate(520,680) scale(0.4,0.4)">
		<g transform="">
			<rect x="-1448.409" y="-1832.535" fill="#020203" width="3.969" height="3.969"/>
		</g>
	</g>
	<g transform="translate(600,680) scale(0.4,0.4)">
		<g transform="">
			<rect x="-1640.472" y="-1832.535" fill="#020203" width="3.969" height="3.969"/>
		</g>
	</g>
	<g transform="translate(640,680) scale(0.4,0.4)">
		<g transform="">
			<rect x="-1736.504" y="-1832.535" fill="#020203" width="3.969" height="3.969"/>
		</g>
	</g>
	<g transform="translate(800,680) scale(0.4,0.4)">
		<g transform="">
			<rect x="-2120.63" y="-1832.535" fill="#020203" width="3.969" height="3.969"/>
		</g>
	</g>
	<g transform="translate(960,680) scale(0.4,0.4)">
		<g transform="">
			<rect x="-2504.756" y="-1832.535" fill="#020203" width="3.969" height="3.969"/>
		</g>
	</g>
	<g transform="translate(320,720) scale(0.4,0.4)">
		<g transform="">
			<rect x="-968.252" y="-1928.567" fill="#020203" width="3.969" height="3.969"/>
		</g>
	</g>
	<g transform="translate(400,720) scale(0.4,0.4)">
		<g transform="">
			<rect x="-1160.315" y="-1928.567" fill="#020203" width="3.969" height="3.969"/>
		</g>
	</g>
	<g transform="translate(440,720) scale(0.4,0.4)">
		<g transform="">
			<rect x="-1256.346" y="-1928.567" fill="#020203" width="3.969" height="3.969"/>
		</g>
	</g>
	<g transform="translate(520,720) scale(0.4,0.4)">
		<g transform="">
			<rect x="-1448.409" y="-1928.567" fill="#020203" width="3.969" height="3.969"/>
		</g>
	</g>
	<g transform="translate(640,720) scale(0.4,0.4)">
		<g transform="">
			<rect x="-1736.504" y="-1928.567" fill="#020203" width="3.969" height="3.969"/>
		</g>
	</g>
	<g transform="translate(720,720) scale(0.4,0.4)">
		<g transform="">
			<rect x="-1928.567" y="-1928.567" fill="#020203" width="3.969" height="3.969"/>
		</g>
	</g>
	<g transform="translate(800,720) scale(0.4,0.4)">
		<g transform="">
			<rect x="-2120.63" y="-1928.567" fill="#020203" width="3.969" height="3.969"/>
		</g>
	</g>
	<g transform="translate(960,720) scale(0.4,0.4)">
		<g transform="">
			<rect x="-2504.756" y="-1928.567" fill="#020203" width="3.969" height="3.969"/>
		</g>
	</g>
	<g transform="translate(360,760) scale(0.4,0.4)">
		<g transform="">
			<rect x="-1064.283" y="-2024.598" fill="#020203" width="3.969" height="3.969"/>
		</g>
	</g>
	<g transform="translate(560,760) scale(0.4,0.4)">
		<g transform="">
			<rect x="-1544.441" y="-2024.598" fill="#020203" width="3.969" height="3.969"/>
		</g>
	</g>
	<g transform="translate(600,760) scale(0.4,0.4)">
		<g transform="">
			<rect x="-1640.472" y="-2024.598" fill="#020203" width="3.969" height="3.969"/>
		</g>
	</g>
	<g transform="translate(640,760) scale(0.4,0.4)">
		<g transform="">
			<rect x="-1736.504" y="-2024.598" fill="#020203" width="3.969" height="3.969"/>
		</g>
	</g>
	<g transform="translate(800,760) scale(0.4,0.4)">
		<g transform="">
			<rect x="-2120.63" y="-2024.598" fill="#020203" width="3.969" height="3.969"/>
		</g>
	</g>
	<g transform="translate(920,760) scale(0.4,0.4)">
		<g transform="">
			<rect x="-2408.724" y="-2024.598" fill="#020203" width="3.969" height="3.969"/>
		</g>
	</g>
	<g transform="translate(960,760) scale(0.4,0.4)">
		<g transform="">
			<rect x="-2504.756" y="-2024.598" fill="#020203" width="3.969" height="3.969"/>
		</g>
	</g>
	<g transform="translate(360,800) scale(0.4,0.4)">
		<g transform="">
			<rect x="-1064.283" y="-2120.63" fill="#020203" width="3.969" height="3.969"/>
		</g>
	</g>
	<g transform="translate(400,800) scale(0.4,0.4)">
		<g transform="">
			<rect x="-1160.315" y="-2120.63" fill="#020203" width="3.969" height="3.969"/>
		</g>
	</g>
	<g transform="translate(440,800) scale(0.4,0.4)">
		<g transform="">
			<rect x="-1256.346" y="-2120.63" fill="#020203" width="3.969" height="3.969"/>
		</g>
	</g>
	<g transform="translate(480,800) scale(0.4,0.4)">
		<g transform="">
			<rect x="-1352.378" y="-2120.63" fill="#020203" width="3.969" height="3.969"/>
		</g>
	</g>
	<g transform="translate(560,800) scale(0.4,0.4)">
		<g transform="">
			<rect x="-1544.441" y="-2120.63" fill="#020203" width="3.969" height="3.969"/>
		</g>
	</g>
	<g transform="translate(600,800) scale(0.4,0.4)">
		<g transform="">
			<rect x="-1640.472" y="-2120.63" fill="#020203" width="3.969" height="3.969"/>
		</g>
	</g>
	<g transform="translate(640,800) scale(0.4,0.4)">
		<g transform="">
			<rect x="-1736.504" y="-2120.63" fill="#020203" width="3.969" height="3.969"/>
		</g>
	</g>
	<g transform="translate(680,800) scale(0.4,0.4)">
		<g transform="">
			<rect x="-1832.535" y="-2120.63" fill="#020203" width="3.969" height="3.969"/>
		</g>
	</g>
	<g transform="translate(720,800) scale(0.4,0.4)">
		<g transform="">
			<rect x="-1928.567" y="-2120.63" fill="#020203" width="3.969" height="3.969"/>
		</g>
	</g>
	<g transform="translate(760,800) scale(0.4,0.4)">
		<g transform="">
			<rect x="-2024.598" y="-2120.63" fill="#020203" width="3.969" height="3.969"/>
		</g>
	</g>
	<g transform="translate(800,800) scale(0.4,0.4)">
		<g transform="">
			<rect x="-2120.63" y="-2120.63" fill="#020203" width="3.969" height="3.969"/>
		</g>
	</g>
	<g transform="translate(960,800) scale(0.4,0.4)">
		<g transform="">
			<rect x="-2504.756" y="-2120.63" fill="#020203" width="3.969" height="3.969"/>
		</g>
	</g>
	<g transform="translate(480,840) scale(0.4,0.4)">
		<g transform="">
			<rect x="-1352.378" y="-2216.661" fill="#020203" width="3.969" height="3.969"/>
		</g>
	</g>
	<g transform="translate(520,840) scale(0.4,0.4)">
		<g transform="">
			<rect x="-1448.409" y="-2216.661" fill="#020203" width="3.969" height="3.969"/>
		</g>
	</g>
	<g transform="translate(600,840) scale(0.4,0.4)">
		<g transform="">
			<rect x="-1640.472" y="-2216.661" fill="#020203" width="3.969" height="3.969"/>
		</g>
	</g>
	<g transform="translate(680,840) scale(0.4,0.4)">
		<g transform="">
			<rect x="-1832.535" y="-2216.661" fill="#020203" width="3.969" height="3.969"/>
		</g>
	</g>
	<g transform="translate(800,840) scale(0.4,0.4)">
		<g transform="">
			<rect x="-2120.63" y="-2216.661" fill="#020203" width="3.969" height="3.969"/>
		</g>
	</g>
	<g transform="translate(880,840) scale(0.4,0.4)">
		<g transform="">
			<rect x="-2312.693" y="-2216.661" fill="#020203" width="3.969" height="3.969"/>
		</g>
	</g>
	<g transform="translate(920,840) scale(0.4,0.4)">
		<g transform="">
			<rect x="-2408.724" y="-2216.661" fill="#020203" width="3.969" height="3.969"/>
		</g>
	</g>
	<g transform="translate(320,880) scale(0.4,0.4)">
		<g transform="">
			<rect x="-968.252" y="-2312.693" fill="#020203" width="3.969" height="3.969"/>
		</g>
	</g>
	<g transform="translate(480,880) scale(0.4,0.4)">
		<g transform="">
			<rect x="-1352.378" y="-2312.693" fill="#020203" width="3.969" height="3.969"/>
		</g>
	</g>
	<g transform="translate(680,880) scale(0.4,0.4)">
		<g transform="">
			<rect x="-1832.535" y="-2312.693" fill="#020203" width="3.969" height="3.969"/>
		</g>
	</g>
	<g transform="translate(760,880) scale(0.4,0.4)">
		<g transform="">
			<rect x="-2024.598" y="-2312.693" fill="#020203" width="3.969" height="3.969"/>
		</g>
	</g>
	<g transform="translate(800,880) scale(0.4,0.4)">
		<g transform="">
			<rect x="-2120.63" y="-2312.693" fill="#020203" width="3.969" height="3.969"/>
		</g>
	</g>
	<g transform="translate(840,880) scale(0.4,0.4)">
		<g transform="">
			<rect x="-2216.661" y="-2312.693" fill="#020203" width="3.969" height="3.969"/>
		</g>
	</g>
	<g transform="translate(920,880) scale(0.4,0.4)">
		<g transform="">
			<rect x="-2408.724" y="-2312.693" fill="#020203" width="3.969" height="3.969"/>
		</g>
	</g>
	<g transform="translate(960,880) scale(0.4,0.4)">
		<g transform="">
			<rect x="-2504.756" y="-2312.693" fill="#020203" width="3.969" height="3.969"/>
		</g>
	</g>
	<g transform="translate(440,920) scale(0.4,0.4)">
		<g transform="">
			<rect x="-1256.346" y="-2408.724" fill="#020203" width="3.969" height="3.969"/>
		</g>
	</g>
	<g transform="translate(480,920) scale(0.4,0.4)">
		<g transform="">
			<rect x="-1352.378" y="-2408.724" fill="#020203" width="3.969" height="3.969"/>
		</g>
	</g>
	<g transform="translate(560,920) scale(0.4,0.4)">
		<g transform="">
			<rect x="-1544.441" y="-2408.724" fill="#020203" width="3.969" height="3.969"/>
		</g>
	</g>
	<g transform="translate(640,920) scale(0.4,0.4)">
		<g transform="">
			<rect x="-1736.504" y="-2408.724" fill="#020203" width="3.969" height="3.969"/>
		</g>
	</g>
	<g transform="translate(720,920) scale(0.4,0.4)">
		<g transform="">
			<rect x="-1928.567" y="-2408.724" fill="#020203" width="3.969" height="3.969"/>
		</g>
	</g>
	<g transform="translate(760,920) scale(0.4,0.4)">
		<g transform="">
			<rect x="-2024.598" y="-2408.724" fill="#020203" width="3.969" height="3.969"/>
		</g>
	</g>
	<g transform="translate(800,920) scale(0.4,0.4)">
		<g transform="">
			<rect x="-2120.63" y="-2408.724" fill="#020203" width="3.969" height="3.969"/>
		</g>
	</g>
	<g transform="translate(320,960) scale(0.4,0.4)">
		<g transform="">
			<rect x="-968.252" y="-2504.756" fill="#020203" width="3.969" height="3.969"/>
		</g>
	</g>
	<g transform="translate(360,960) scale(0.4,0.4)">
		<g transform="">
			<rect x="-1064.283" y="-2504.756" fill="#020203" width="3.969" height="3.969"/>
		</g>
	</g>
	<g transform="translate(480,960) scale(0.4,0.4)">
		<g transform="">
			<rect x="-1352.378" y="-2504.756" fill="#020203" width="3.969" height="3.969"/>
		</g>
	</g>
	<g transform="translate(520,960) scale(0.4,0.4)">
		<g transform="">
			<rect x="-1448.409" y="-2504.756" fill="#020203" width="3.969" height="3.969"/>
		</g>
	</g>
	<g transform="translate(560,960) scale(0.4,0.4)">
		<g transform="">
			<rect x="-1544.441" y="-2504.756" fill="#020203" width="3.969" height="3.969"/>
		</g>
	</g>
	<g transform="translate(600,960) scale(0.4,0.4)">
		<g transform="">
			<rect x="-1640.472" y="-2504.756" fill="#020203" width="3.969" height="3.969"/>
		</g>
	</g>
	<g transform="translate(640,960) scale(0.4,0.4)">
		<g transform="">
			<rect x="-1736.504" y="-2504.756" fill="#020203" width="3.969" height="3.969"/>
		</g>
	</g>
	<g transform="translate(840,960) scale(0.4,0.4)">
		<g transform="">
			<rect x="-2216.661" y="-2504.756" fill="#020203" width="3.969" height="3.969"/>
		</g>
	</g>
	<g transform="translate(960,960) scale(0.4,0.4)">
		<g transform="">
			<rect x="-2504.756" y="-2504.756" fill="#020203" width="3.969" height="3.969"/>
		</g>
	</g>
	<g transform="translate(0,0) scale(2.8, 2.8)">
		<g transform="">
			<g>
				<rect x="-27.976" y="-27.976" fill="none" width="2.778" height="2.778"/>
				<path fill="#020203" d="M-25.198-28.571h-2.778h-0.595v0.595v2.778v0.595h0.595h2.778h0.595v-0.595v-2.778v-0.595H-25.198z
					 M-25.198-25.198h-2.778v-2.778h2.778V-25.198z"/>
			</g>
		</g>
	</g>
	<g transform="translate(720,0) scale(2.8, 2.8)">
		<g transform="">
			<g>
				<rect x="-274.914" y="-27.976" fill="none" width="2.778" height="2.778"/>
				<path fill="#020203" d="M-272.136-28.571h-2.778h-0.595v0.595v2.778v0.595h0.595h2.778h0.595v-0.595v-2.778v-0.595H-272.136z
					 M-272.136-25.198h-2.778v-2.778h2.778V-25.198z"/>
			</g>
		</g>
	</g>
	<g transform="translate(0,720) scale(2.8, 2.8)">
		<g transform="">
			<g>
				<rect x="-27.976" y="-274.914" fill="none" width="2.778" height="2.778"/>
				<path fill="#020203" d="M-25.198-275.51h-2.778h-0.595v0.595v2.778v0.595h0.595h2.778h0.595v-0.595v-2.778v-0.595H-25.198z
					 M-25.198-272.136h-2.778v-2.778h2.778V-272.136z"/>
			</g>
		</g>
	</g>
	<g transform="translate(80,80) scale(1.2, 1.2)">
		<g transform="">
			<rect x="-130.688" y="-130.688" fill="#020203" width="3.969" height="3.969"/>
		</g>
	</g>
	<g transform="translate(800,80) scale(1.2, 1.2)">
		<g transform="">
			<rect x="-706.877" y="-130.688" fill="#020203" width="3.969" height="3.969"/>
		</g>
	</g>
	<g transform="translate(80,800) scale(1.2, 1.2)">
		<g transform="">
			<rect x="-130.688" y="-706.877" fill="#020203" width="3.969" height="3.969"/>
		</g>
	</g>
</g>
</svg>
