<?xml version="1.0" encoding="utf-8"?>
<!-- Generator: Adobe Illustrator 24.0.2, SVG Export Plug-In . SVG Version: 6.00 Build 0)  -->
<svg version="1.1" id="Слой_1" xmlns="http://www.w3.org/2000/svg" xmlns:xlink="http://www.w3.org/1999/xlink" x="0px" y="0px"
	 width="368.504px" height="104.882px" viewBox="0 0 368.504 104.882" enable-background="new 0 0 368.504 104.882"
	 xml:space="preserve">
<g>
	<path fill="#E52629" d="M97.145,40.6c0,8.617,0,8.617,0,8.617c-11.72,0-11.72,0-11.72,0c0-8.617,0-8.617,0-8.617
		c0-2.432-1.098-3.509-3.278-3.509c-5.983,0-5.983,0-5.983,0c0,5.663,0,5.663,0,5.663c2.442,0,2.442,0,2.442,0
		c0.279,0,0.279,0.277,0.279,0.277c0,24.252,0,24.252,0,24.252c6.54,0,6.54,0,6.54,0c0-12.126,0-12.126,0-12.126
		c11.72,0,11.72,0,11.72,0c0,12.126,0,12.126,0,12.126c6.54,0,6.54,0,6.54,0c0-24.252,0-24.252,0-24.252l0.279-0.277
		c2.442,0,2.442,0,2.442,0c0-5.663,0-5.663,0-5.663c-5.721,0-5.721,0-5.721,0C98.227,37.091,97.145,38.168,97.145,40.6z"/>
	<path fill="#E52629" d="M126.749,36.863l-3.032-0.294l-0.148-0.016c-8.72,0-15.802,6.74-15.802,15.373
		c0,8.894,7.081,15.896,15.802,15.896l0.148-0.016v0l3.032-0.31c7.196-1.453,12.622-7.801,12.622-15.569
		C139.371,44.37,133.945,38.266,126.749,36.863z M127.044,60.869l-3.328,0.718l-0.148,0.033c-4.901,0-8.72-4.308-8.72-9.694
		c0-5.124,3.819-9.172,8.72-9.172l0.148,0.033l3.328,0.685c3.213,1.371,5.524,4.602,5.524,8.454
		C132.568,55.957,130.257,59.401,127.044,60.869z"/>
	<path fill="#E52629" d="M143.469,63.774c0,2.432,1.082,3.509,3.262,3.509c3.95,0,5.934,0,6.917,0h0.574h0.295
		c0.115,0,0.115,0,0.115,0c6.262,0,10.622-3.509,10.622-9.172c0-2.954-1.623-5.647-4.082-6.724c1.361-1.355,2.721-3.248,2.721-6.202
		c0-4.863-3.541-8.095-9.54-8.095h-0.131h-4.36c-9.13,0-9.13,0-9.13,0c0,5.663,0,5.663,0,5.663c2.737,0,2.737,0,2.737,0V63.774z
		 M149.993,42.754c2.18,0,3.278,0,3.819,0h0.41h0.066c0.066,0,0.066,0,0.066,0c1.918,0,3,1.077,3,2.97c0,1.877-1.082,3.231-3,3.231
		h-0.131h-2.377c-1.852,0-1.852,0-1.852,0C149.993,42.754,149.993,42.754,149.993,42.754z M149.993,54.341c1.229,0,2.147,0,2.836,0
		h1.393h0.066c0.607,0,0.607,0,0.607,0c2.18,0,3.557,1.354,3.557,3.509c0,2.154-1.377,3.509-3.557,3.509h-0.672h-2
		c-1.951,0-1.951,0-1.951,0c-0.279,0-0.279,0-0.279-0.277C149.993,54.341,149.993,54.341,149.993,54.341z"/>
	<path fill="#E52629" d="M187.317,64.313c0.557,2.154,1.639,2.97,3.819,2.97c3.819,0,3.819,0,3.819,0c0-5.924,0-5.924,0-5.924
		c-1.098,0-1.098,0-1.098,0c-0.541,0-0.541,0-0.803-0.277c-8.72-23.99-8.72-23.99-8.72-23.99h-3.278h-0.508
		c-2.754,0-2.754,0-2.754,0c-8.72,23.99-8.72,23.99-8.72,23.99c-0.262,0.277-0.262,0.277-0.82,0.277c-1.361,0-1.361,0-1.361,0
		c0,5.924,0,5.924,0,5.924c4.098,0,4.098,0,4.098,0c2.18,0,3.262-0.816,3.803-2.693c1.918-4.863,1.918-4.863,1.918-4.863
		c1.082,0,2.033,0,2.869,0h1.475h0.689c3.672,0,3.672,0,3.672,0C187.317,64.313,187.317,64.313,187.317,64.313z M181.056,54.08
		h-0.41c-2.311,0-2.311,0-2.311,0c2.18-6.202,2.18-6.202,2.18-6.202c0-0.816,0.279-1.616,0.541-2.154
		c0.279,0.539,0.557,1.338,0.557,2.154c2.164,6.202,2.164,6.202,2.164,6.202H181.056z"/>
	<path fill="#E52629" d="M235.811,61.082c0-20.482,0-20.482,0-20.482c0-2.432-1.361-3.509-3.541-3.509c-23.703,0-23.703,0-23.703,0
		c0,5.663,0,5.663,0,5.663c2.721,0,2.721,0,2.721,0c0,24.529,0,24.529,0,24.529c6.54,0,6.54,0,6.54,0c0-24.529,0-24.529,0-24.529
		c10.901,0,10.901,0,10.901,0c0.279,0,0.279,0.277,0.279,0.277c0,20.743,0,20.743,0,20.743c0,2.432,1.082,3.509,3.541,3.509
		c5.721,0,5.721,0,5.721,0c0-5.94,0-5.94,0-5.94c-2.18,0-2.18,0-2.18,0C235.811,61.343,235.811,61.343,235.811,61.082z"/>
	<path fill="#E52629" d="M258.694,36.863l-3.131-0.294l-0.131-0.016c-8.72,0-15.54,6.74-15.54,15.373
		c0,8.878,6.819,15.896,15.54,15.896l0.131-0.016l3.131-0.31c7.327-1.452,12.54-7.801,12.54-15.569
		C271.234,44.37,266.021,38.266,258.694,36.863z M259.022,60.869l-3.459,0.718l-0.131,0.033c-4.918,0-8.72-4.308-8.72-9.694
		c0-5.124,3.803-9.172,8.72-9.172l0.131,0.033l3.459,0.685c3.262,1.371,5.409,4.602,5.409,8.454
		C264.431,55.957,262.284,59.401,259.022,60.869z"/>
	<path fill="#E52629" d="M304.756,40.6c0,20.482,0,20.482,0,20.482c0,0.261,0,0.261-0.279,0.261c-7.901,0-7.901,0-7.901,0
		c0-24.252,0-24.252,0-24.252c-6.54,0-6.54,0-6.54,0c0,24.252,0,24.252,0,24.252c-7.901,0-7.901,0-7.901,0
		c-0.279,0-0.279,0-0.279-0.261c0-20.482,0-20.482,0-20.482c0-2.432-1.082-3.509-3.262-3.509c-5.999,0-5.999,0-5.999,0
		c0,5.663,0,5.663,0,5.663c2.459,0,2.459,0,2.459,0c0.262,0,0.262,0.277,0.262,0.277c0,20.743,0,20.743,0,20.743
		c0,2.432,1.098,3.509,3.541,3.509c29.161,0,29.161,0,29.161,0c2.18,0,3.262-1.077,3.262-3.509c0-20.743,0-20.743,0-20.743
		s0-0.277,0.279-0.277c2.459,0,2.459,0,2.459,0c0-5.663,0-5.663,0-5.663c-5.999,0-5.999,0-5.999,0
		C305.837,37.091,304.756,38.168,304.756,40.6z"/>
	<path fill="#E52629" d="M342.9,45.447c0-5.124,0-5.124,0-5.124c0-2.154-0.82-3.231-3.278-3.231c-20.441,0-20.441,0-20.441,0
		c-2.18,0-3,1.077-3,3.231c0,5.124,0,5.124,0,5.124c5.999,0,5.999,0,5.999,0c0-2.415,0-2.415,0-2.415c0-0.277,0-0.277,0.279-0.277
		c3.803,0,3.803,0,3.803,0c0,24.529,0,24.529,0,24.529c6.557,0,6.557,0,6.557,0c0-24.529,0-24.529,0-24.529c3.803,0,3.803,0,3.803,0
		c0.279,0,0.279,0,0.279,0.277c0,2.415,0,2.415,0,2.415H342.9z"/>
	<path fill="#E52629" d="M367.422,61.343c-0.557,0-0.557,0-0.82-0.261c-8.737-23.99-8.737-23.99-8.737-23.99h-3.262h-0.508
		c-2.754,0-2.754,0-2.754,0c-8.72,23.99-8.72,23.99-8.72,23.99c-0.262,0.261-0.262,0.261-0.82,0.261c-1.361,0-1.361,0-1.361,0
		c0,5.94,0,5.94,0,5.94c4.082,0,4.082,0,4.082,0c2.18,0,3.278-0.816,3.819-2.97c1.901-4.586,1.901-4.586,1.901-4.586
		c1.098,0,2.049,0,2.885,0h1.475h0.689c3.672,0,3.672,0,3.672,0c1.901,4.586,1.901,4.586,1.901,4.586
		c0.557,2.154,1.639,2.97,3.819,2.97c3.819,0,3.819,0,3.819,0c0-5.94,0-5.94,0-5.94H367.422z M354.603,54.08h-0.426
		c-2.295,0-2.295,0-2.295,0c2.18-6.202,2.18-6.202,2.18-6.202c0-0.816,0.262-1.616,0.541-2.154c0.279,0.539,0.541,1.338,0.541,2.154
		c2.18,6.202,2.18,6.202,2.18,6.202H354.603z"/>
	<g>
		<path fill="#E52629" d="M51.27,39.954c-0.25-0.328-0.499-0.447-0.689-0.388c-0.19,0.06-0.31,0.308-0.31,0.716v23.472
			c0,0.418,0.12,0.706,0.31,0.805c0.19,0.099,0.439,0.02,0.689-0.308c11.283-11.164,11.283-11.164,11.283-11.164
			c0.659-0.487,0.659-1.481,0-2.137C51.27,39.954,51.27,39.954,51.27,39.954z"/>
		<path fill="#E52629" d="M32.847,21.563l-0.769-0.318h-0.799l-0.759,0.318C18.897,33.055,18.897,33.055,18.897,33.055
			c-0.499,0.656-0.33,1.153,0.499,1.153h5.142c0.839,0,1.498,0.656,1.498,1.481c0,8.53,0,8.53,0,8.53
			c0,0.825,0.669,1.481,1.498,1.481c8.458,0,8.458,0,8.458,0c0.998,0,1.668-0.656,1.668-1.481c0-8.53,0-8.53,0-8.53
			c0-0.825,0.659-1.481,1.488-1.481c4.813,0,4.813,0,4.813,0c0.829,0,0.999-0.497,0.499-1.153
			C32.847,21.563,32.847,21.563,32.847,21.563z"/>
		<path fill="#E52629" d="M13.086,39.318c-0.2-0.099-0.489-0.02-0.829,0.308C0.804,50.949,0.804,50.949,0.804,50.949
			c-0.659,0.656-0.659,1.65,0,2.137c11.453,11.492,11.453,11.492,11.453,11.492c0.339,0.249,0.629,0.328,0.829,0.249
			c0.21-0.08,0.339-0.328,0.339-0.746V40.123C13.425,39.706,13.296,39.417,13.086,39.318z"/>
		<path fill="#E52629" d="M43.631,70.325h-4.483c-0.829,0-1.488-0.656-1.488-1.64c0-9.027,0-9.027,0-9.027
			c0-0.825-0.669-1.481-1.668-1.481c-8.457,0-8.457,0-8.457,0c-0.829,0-1.498,0.656-1.498,1.481c0,9.027,0,9.027,0,9.027
			c0,0.984-0.659,1.64-1.498,1.64c-4.813,0-4.813,0-4.813,0c-0.829,0-1.158,0.487-0.489,0.984
			C30.52,82.633,30.52,82.633,30.52,82.633c0.33,0.328,0.749,0.497,1.158,0.497c0.419,0,0.829-0.169,1.168-0.497
			C44.13,71.31,44.13,71.31,44.13,71.31C44.789,70.813,44.46,70.325,43.631,70.325z"/>
	</g>
</g>
</svg>
