<?xml version="1.0" encoding="utf-8"?>
<!-- Generator: Adobe Illustrator 24.0.2, SVG Export Plug-In . SVG Version: 6.00 Build 0)  -->
<svg version="1.1" id="Слой_1" xmlns="http://www.w3.org/2000/svg" xmlns:xlink="http://www.w3.org/1999/xlink" x="0px" y="0px"
	 width="54px" height="69px" viewBox="0 0 54 69" enable-background="new 0 0 54 69" xml:space="preserve">
<g>
	<path fill="#1B9DD9" d="M34.864,26.881H8.376c-0.361,0-0.602-0.241-0.602-0.602s0.241-0.602,0.602-0.602h26.488
		c0.361,0,0.602,0.241,0.602,0.602S35.226,26.881,34.864,26.881z"/>
	<path fill="#1B9DD9" d="M34.864,31.697H8.376c-0.361,0-0.602-0.241-0.602-0.602s0.241-0.602,0.602-0.602h26.488
		c0.361,0,0.602,0.241,0.602,0.602S35.226,31.697,34.864,31.697z"/>
	<path fill="#1B9DD9" d="M34.864,36.513H8.376c-0.361,0-0.602-0.241-0.602-0.602c0-0.361,0.241-0.602,0.602-0.602h26.488
		c0.361,0,0.602,0.241,0.602,0.602C35.466,36.272,35.226,36.513,34.864,36.513z"/>
	<path fill="#1B9DD9" d="M34.864,41.329H8.376c-0.361,0-0.602-0.241-0.602-0.602c0-0.361,0.241-0.602,0.602-0.602h26.488
		c0.361,0,0.602,0.241,0.602,0.602C35.466,41.088,35.226,41.329,34.864,41.329z"/>
	<path fill="#1B9DD9" d="M46.904,46.145h-18.06c-0.361,0-0.602-0.241-0.602-0.602c0-0.361,0.241-0.602,0.602-0.602h18.06
		c0.361,0,0.602,0.241,0.602,0.602C47.506,45.904,47.266,46.145,46.904,46.145z"/>
	<path fill="#1B9DD9" d="M46.904,50.961h-18.06c-0.361,0-0.602-0.241-0.602-0.602c0-0.361,0.241-0.602,0.602-0.602h18.06
		c0.361,0,0.602,0.241,0.602,0.602C47.506,50.72,47.266,50.961,46.904,50.961z"/>
	<path fill="#1B9DD9" d="M46.904,26.881h-7.826c-0.361,0-0.602-0.241-0.602-0.602s0.241-0.602,0.602-0.602h7.826
		c0.361,0,0.602,0.241,0.602,0.602S47.266,26.881,46.904,26.881z"/>
	<path fill="#1B9DD9" d="M46.904,31.697h-7.826c-0.361,0-0.602-0.241-0.602-0.602s0.241-0.602,0.602-0.602h7.826
		c0.361,0,0.602,0.241,0.602,0.602S47.266,31.697,46.904,31.697z"/>
	<path fill="#1B9DD9" d="M46.904,36.513h-7.826c-0.361,0-0.602-0.241-0.602-0.602c0-0.361,0.241-0.602,0.602-0.602h7.826
		c0.361,0,0.602,0.241,0.602,0.602C47.506,36.272,47.266,36.513,46.904,36.513z"/>
	<path fill="#1B9DD9" d="M46.904,41.329h-7.826c-0.361,0-0.602-0.241-0.602-0.602c0-0.361,0.241-0.602,0.602-0.602h7.826
		c0.361,0,0.602,0.241,0.602,0.602C47.506,41.088,47.266,41.329,46.904,41.329z"/>
	<path fill="#1B9DD9" d="M52.323,69.207H2.396c-0.976,0-1.692-0.781-1.692-1.692V1.899c0-0.976,0.781-1.692,1.692-1.692h49.927
		c0.976,0,1.692,0.781,1.692,1.692v65.55C54.016,68.425,53.235,69.207,52.323,69.207z M3.519,3.087
		c-0.186,0-0.372,0.186-0.372,0.372v62.429c0,0.186,0.186,0.372,0.372,0.372h47.55c0.186,0,0.372-0.186,0.372-0.372V3.459
		c0-0.186-0.186-0.372-0.372-0.372H3.519z"/>
	<path fill="#1B9DD9" d="M46.603,22.065H8.075c-0.361,0-0.602-0.241-0.602-0.602V9.423c0-0.361,0.241-0.602,0.602-0.602h38.528
		c0.361,0,0.602,0.241,0.602,0.602v12.04C47.205,21.824,46.965,22.065,46.603,22.065z M8.677,20.861h37.324V10.025H8.677V20.861z"/>
	<path fill="#1B9DD9" d="M23.125,60.593H8.677c-0.361,0-0.602-0.241-0.602-0.602V45.543c0-0.361,0.241-0.602,0.602-0.602h14.448
		c0.361,0,0.602,0.241,0.602,0.602v14.448C23.727,60.352,23.487,60.593,23.125,60.593z M9.279,59.389h13.244V46.145H9.279V59.389z"
		/>
</g>
</svg>
