<?xml version="1.0" encoding="utf-8"?>
<!-- Generator: Adobe Illustrator 24.0.2, SVG Export Plug-In . SVG Version: 6.00 Build 0)  -->
<svg version="1.1" id="Слой_1" xmlns="http://www.w3.org/2000/svg" xmlns:xlink="http://www.w3.org/1999/xlink" x="0px" y="0px"
	 width="580.7px" height="219.3px" viewBox="0 0 580.7 219.3" style="enable-background:new 0 0 580.7 219.3;" xml:space="preserve"
	>
<style type="text/css">
	.st0{fill:#ED1C24;}
	.st1{fill:#FFFFFF;}
</style>
<rect y="0" class="st0" width="580.7" height="219.3"/>
<g>
	<path class="st1" d="M326.6,153.4c29.8,0,59.2,0,88.8,0c0-10.2,0-20,0-30.1c-1.7,0-3.3,0.1-4.8,0c-0.4,0-0.9-0.5-1-0.8
		c-0.1-0.4,0.3-1,0.6-1.2c0.7-0.4,1.6-0.6,2.3-1c2.5-1.4,4-3.5,3.9-6.5c-0.1-2.9-1.6-4.8-4-6.1c-4.1-2.2-9.1-1.2-12.1,2.4
		c-0.3,0.4-0.8,0.8-1.2,1.2c1-4.2,3.8-6.4,7.7-7c0-7.1,0-13.9,0-21.1c-6.9,0-13.6,0-20.6,0c0-10.8,0-21.3,0-31.9
		c-1-0.2-1.7-0.3-2.4-0.4c-0.1-1.1-0.2-2-0.2-3c-6.2,0-12.2,0-18.3,0c-0.1,1.1-0.2,2-0.3,2.9c-0.9,0.2-1.7,0.4-2.6,0.6
		c0,0.9,0,1.7,0,2.4c0,21.7,0,43.5,0,65.2c0,4,0,4-3.7,5.2c-11.1,3.6-21.6,8.4-30.4,16.3c-0.7,0.6-1.6,1.6-1.7,2.4
		C326.5,146.3,326.6,149.8,326.6,153.4z M402.2,85.9c0.8,0,1.5,0,2.4,0c0,2.1,0,4.2,0,6.4c-0.8,0-1.5,0-2.4,0
		C402.2,90.3,402.2,88.3,402.2,85.9z M397,86C397,86,397,86,397,86L397,86l2.4,0v6.4H397v0c0,0,0,0,0,0C397,90.3,397,88.3,397,86z
		 M391.8,86c0.7,0,1.4,0,2.2,0c0,2.1,0,4.1,0,6.3c-0.7,0-1.4,0-2.2,0C391.8,90.2,391.8,88.2,391.8,86z M386.5,85.9c0,0,1.3,0,1.8,0
		h0.5v0c0,0,0,0,0,0c0,2.2,0,4.2,0,6.2c0,0,0,0,0,0v0.2h-2.4V85.9z M383.6,54.5c0,2.2,0,4.2,0,6.4c-0.7,0-1.5,0-2.4,0
		c0-2.2,0-4.1,0-6.4C381.9,54.5,383.6,54.5,383.6,54.5z M383.6,65.1c0,2.4,0,4.1,0,6.3c0,0,0,0,0,0v0.1h-2c-0.1,0-0.2,0-0.4,0
		c0-2.3,0-4.2,0-6.4C381.9,65,382.6,65.1,383.6,65.1z M378.3,54.5c0,2.3,0,4.2,0,6.4c-0.8,0-1.6,0-2.5,0c0-2.2,0-4.2,0-6.4
		C375.8,54.5,377.7,54.5,378.3,54.5z M378.3,65.1c0,2.2,0,4,0,6.3c0,0,0,0,0,0v0.1H376c-0.1,0-0.1,0-0.1,0c0-2.3,0-4.1,0-6.4
		C376.8,65.1,377.5,65.1,378.3,65.1z M370.7,54.5h2.4v6.4h-2.4V54.5z M370.7,65.1c0,0,1.4,0,2.4,0c0,2.2,0,4,0,6.3c0,0,0,0,0,0v0.1
		h-2.4V65.1z M365.5,54.5c0,0,2.4,0,2.4,0v6.4c0,0-1.7,0-2.4,0C365.5,58.7,365.5,56.8,365.5,54.5z M365.5,71.4c0-2.2,0-4,0-6.3
		c0.8,0,2.4,0,2.4,0v6.4L365.5,71.4L365.5,71.4C365.5,71.4,365.5,71.4,365.5,71.4z M347.2,134c0.1-0.7,1.3-1.6,2.1-2
		c7.3-3.7,15.1-6,23.1-7.7c10.7-2.2,21.6-3.1,32.5-3.2c2.7,0,1.5,2,1.3,2c-9.6,0.1-19,0.7-28.2,2.2c-10.1,1.7-20,4.5-29.7,9.1
		C347.3,134.8,347.1,134.3,347.2,134z"/>
	<path class="st1" d="M332.4,126.2c-1.8,0-3.7,0-5.6,0c0,4.2,0,8.3,0,12.6C332.9,134.7,333.8,132.9,332.4,126.2z"/>
	<path class="st1" d="M96.7,82.9c3.2,0,6.3,0,9.8,0c0,23.7,0,47,0,70.4c4,0,7.7,0,11.7,0c0-23.5,0-46.9,0-70.6c3.6,0,6.9,0,10.2,0
		c0-3.8,0-7.2,0-10.7c-10.7,0-21.2,0-31.7,0C96.7,75.7,96.7,79.2,96.7,82.9z"/>
	<path class="st1" d="M399.9,64.4c-0.1-1-0.1-1.8-0.2-2.7c-0.9-0.2-1.7-0.4-2.5-0.6c-0.1-1-0.1-2-0.2-3c-0.9,0-1.7,0-2.6,0
		c-0.1,1.1-0.2,2.1-0.3,3.2c-0.8,0.1-1.6,0.2-2.3,0.4c-0.1,1-0.2,1.9-0.3,2.9c-0.9,0.1-1.6,0.2-2.4,0.3c0,5.3,0,10.4,0,15.8
		c4.5,0,8.9,0,13.2,0c0-5.4,0-10.6,0-15.8C401.3,64.7,400.6,64.6,399.9,64.4z"/>
	<path class="st1" d="M353.8,75.9c-1.2,0.1-2,0.1-2.7,0.2c-0.2,1.2-0.3,2.1-0.5,3.1c-0.2,0-0.5,0.1-0.7,0.1c-1.5-3.1-3-6.2-4.6-9.7
		c-1.6,3.4-3.1,6.6-4.5,9.8c-0.2-0.1-0.5-0.2-0.7-0.3c-0.2-0.9-0.4-1.9-0.6-3c-0.8,0.1-1.6,0.1-2.4,0.2c0,11.8,0,23.3,0,35
		c-0.9,0.2-1.6,0.3-2.3,0.4c0,7,0,13.9,0,20.3c6.8-3,13.6-6,20.4-9.1c0.5-0.2,1.1-1.1,1.2-1.6c0.1-3.2,0.1-6.3,0.1-9.7
		c-2.6,0.2-2.8-1.1-2.8-3.1c0.2-7.5,0.2-14.9,0.2-22.4C353.8,82.8,353.8,79.5,353.8,75.9z M346.6,111.9h-2.6V105h2.6V111.9z
		 M346.6,101.5h-2.6v-6.9h2.6V101.5z M346.6,84.3c0,2.3,0,4.3,0,6.2v0.5h-2.6v-6.9h2.6V84.3z"/>
	<path class="st1" d="M358.5,121.6c0.2,0.1,0.5,0.3,0.7,0.4c0.4-0.6,1.2-1.1,1.2-1.7c0.1-6.3,0.1-12.6,0.1-19.1c-1.7,0-3.1,0-4.6,0
		c0,2.8,0,5.4,0,8.1c0.9,0.1,1.7,0.2,2.6,0.4c0,2.1,0,4.1,0,6C358.5,117.7,358.5,119.7,358.5,121.6z"/>
	<path class="st1" d="M199.3,81.5c-2.1-5.7-6.3-9.1-12.3-9.5c-5.9-0.4-11.8-0.1-17.9-0.1c0,27.3,0,54.3,0,81.3c3.9,0,7.6,0,11.7,0
		c0-10.8,0-21.5,0-32.3c2,0,3.6,0.1,5.2,0c6.5-0.3,11.3-3.2,13.5-9.4C202.9,101.6,202.9,91.5,199.3,81.5z M188.8,103.8
		c-0.3,5.1-2.2,6.3-8,5.6c0-8.9,0-17.9,0-27.1c5.6-0.5,7.6,0.9,8,6.3C189.1,93.7,189.1,98.8,188.8,103.8z"/>
	<path class="st1" d="M218.3,82.7C218.3,82.7,218.3,82.7,218.3,82.7L218.3,82.7C218.3,82.7,218.3,82.7,218.3,82.7
		C218.3,82.7,218.3,82.7,218.3,82.7C218.3,82.7,218.3,82.7,218.3,82.7z"/>
	<path class="st1" d="M241.7,72.1c-4.2,27.2-8.4,54.2-12.5,81.2c3.8,0,7.3,0,10.9,0c0.9-7.4,1.7-14.7,2.5-22.1c3.4,0,6.6,0,9.8,0
		c1,7.4,1.9,14.7,2.8,22.1c3.9,0,7.6,0,11.4,0c-4.3-27.2-8.6-54.3-12.9-81.2C249.5,72.1,245.6,72.1,241.7,72.1z M243.6,120.8
		c1.1-11.7,2.3-23.3,3.5-35.5c1.4,12.1,2.7,23.6,4.1,35.5C248.6,120.8,246.2,120.8,243.6,120.8z"/>
	<path class="st1" d="M278.6,133.4c-0.4,7-1.8,8.4-8.3,10c0,2.9-0.1,5.9,0.1,8.9c0,0.6,1.1,1.4,1.8,1.6c6.1,1.4,12.2-1.9,14.3-8.5
		c1.3-4,2.1-8.3,2.4-12.6c0.6-11.9,0.9-23.9,1.2-35.8c0.1-4.7,0-9.4,0-14.1c2.9,0,5.1,0,7.7,0c0,23.6,0,47,0,70.3
		c3.9,0,7.5,0,11.3,0c0-27.2,0-54.2,0-81.2c-9.5,0-18.8,0-28.8,0c0,7.5,0.2,14.9,0,22.3C279.9,107.4,279.3,120.4,278.6,133.4z"/>
	<path class="st1" d="M235.5,72.1c-5.8,0-11.4,0-17.2,0c0,3.7,0,7.1,0,10.6c5.7,0,11.5,0,17.2,0C235.5,78.9,235.5,75.5,235.5,72.1z"
		/>
	<path class="st1" d="M409.5,93.4c0,3.6,0,7.2,0,10.6c2,0.9,3.9,1.8,5.8,2.7C416.6,99,415.6,96.5,409.5,93.4z"/>
	<path class="st1" d="M206.8,153.2c3.9,0,7.7,0,11.6,0c0-15.7,0-31.1,0-46.6c0-8-0.1-15.9-0.1-23.9c-3.8,0-7.6,0-11.5,0
		C206.8,106.5,206.8,129.9,206.8,153.2z"/>
	<path class="st1" d="M207,72.1c0,3,0,5.8,0,8.6c3.1,0,6.1,0,9.1,0c0-3,0-5.8,0-8.6C212.8,72.1,209.9,72.1,207,72.1z"/>
	<path class="st1" d="M433.8,80.6c3.2,0,6.2,0,9.2,0c0-2.9,0-5.6,0-8.5c-3.3,0-6.2,0-9.2,0C433.8,75,433.8,77.8,433.8,80.6z"/>
	<path class="st1" d="M36.1,80.5c3.2,0,6.2,0,9.3,0c0-3,0-5.8,0-8.7c-3.3,0-6.2,0-9.3,0C36.1,74.8,36.1,77.7,36.1,80.5z"/>
	<path class="st1" d="M511.1,72c-0.1,1.2-0.2,2.2-0.3,3.3c-0.4,9.6-0.7,19.2-1.2,28.8c-0.6,11.4-2.3,22.7-5.7,33.7
		c-0.8,2.7-1.2,6-5.5,4.7c0,3.8,0,7.3,0,10.7c15.5,0,30.8,0,46.1,0c0-3.7,0-7.1,0-10.8c-2.1,0-3.9,0-6.1,0c0-23.6,0-47,0-70.5
		C529.2,72,520.3,72,511.1,72z M526.9,142.4c-4.4,0-8.6,0-13,0c5.8-19.4,5.8-39.4,6.7-59.4c2.2,0,4.2,0,6.4,0
		C526.9,102.8,526.9,122.5,526.9,142.4z"/>
	<path class="st1" d="M57,72c0,27.2,0,54.2,0,81.2c3.9,0,7.6,0,11.6,0c0-12.5,0-24.9,0-37.2c3.6,0,7,0,10.6,0c0,12.5,0,24.8,0,37.3
		c4,0,7.7,0,11.6,0c0-27.2,0-54.2,0-81.3c-3.9,0-7.7,0-11.6,0c0,11.1,0,22,0,33c-3.7,0-7.2,0-10.8,0c0-11.1,0-22,0-33
		C64.4,72,60.7,72,57,72z"/>
	<path class="st1" d="M36.1,153.3c4,0,7.7,0,11.6,0c0-23.5,0-46.9,0-70.3c-4,0-7.8,0-11.6,0C36.1,106.6,36.1,129.9,36.1,153.3z"/>
	<path class="st1" d="M487.6,109.4c-0.5-0.4-0.6-0.7-0.7-1.1c-2.1-11.5-4.1-23-6.2-34.4c-0.1-0.7-0.9-1.9-1.4-1.9
		c-3.8-0.2-7.7-0.1-11.7-0.1c0.2,1,0.3,1.7,0.4,2.4c4.6,18.5,9.3,37.1,14,55.6c1,4-0.2,7.7-2.1,11c-0.7,1.1-2.4,1.9-3.8,2.2
		c-1.7,0.4-3.5,0.1-5.6,0.1c0,1.5,0,2.9,0,4.4c0,6.6,0,6.5,6.7,6.5c5.9,0,10-2.7,12.2-8.1c1.1-2.7,2.1-5.5,2.6-8.3
		c3.4-16.7,6.6-33.5,9.8-50.2c1-5.1,2-10.2,3-15.3c-3.9,0-7.5,0-11.2,0C491.7,84.6,489.7,97,487.6,109.4z"/>
	<path class="st1" d="M445.2,82.7C445.2,82.7,445.2,82.7,445.2,82.7L445.2,82.7C445.2,82.7,445.2,82.7,445.2,82.7z"/>
	<path class="st1" d="M433.9,153.3c6.1,0,12,0.3,17.9-0.1c6.1-0.4,10.8-3.5,12.8-9.5c3.1-9.4,3.3-19,0.7-28.6
		c-1.7-6.2-6.1-9.5-12.4-10.3c-2.5-0.3-5-0.4-7.8-0.6c0-7.3,0-14.4,0-21.5c-3.7,0-7.5,0-11.2,0C433.9,106.5,433.9,129.9,433.9,153.3
		z M445.4,114.7c5.2-1,8.1,0.5,8.5,5.4c0.6,5.7,0.7,11.5,0.3,17.2c-0.4,5.2-3.1,6.8-8.8,6C445.4,133.7,445.4,124.2,445.4,114.7z"/>
	<path class="st1" d="M161.2,82.8c0-3.8,0-7.3,0-10.8c-9.1,0-18,0-27,0c0,27.2,0,54.2,0,81.2c9.5,0,18.8,0,28.1,0
		c0-3.7,0-7.1,0-10.8c-5.6,0-11,0-16.5,0c0-8.9,0-17.6,0-26.7c3.8,0,7.4,0,10.9,0c0-3.7,0-7,0-10.5c-3.8,0-7.3,0-10.9,0
		c0-7.6,0-14.9,0-22.5C151,82.8,156,82.8,161.2,82.8z"/>
	<path class="st1" d="M464.2,72.1c-6.4,0-12.6,0-19,0c0,3.7,0,7.1,0,10.6c6.4,0,12.7,0,19,0C464.2,79,464.2,75.5,464.2,72.1z"/>
	<path class="st1" d="M445.2,82.7L445.2,82.7C445.2,82.7,445.2,82.7,445.2,82.7C445.2,82.7,445.2,82.7,445.2,82.7z"/>
</g>
</svg>
