<?xml version="1.0" encoding="utf-8"?>
<!-- Generator: Adobe Illustrator 24.0.2, SVG Export Plug-In . SVG Version: 6.00 Build 0)  -->
<svg version="1.1" id="Слой_1" xmlns="http://www.w3.org/2000/svg" xmlns:xlink="http://www.w3.org/1999/xlink" x="0px" y="0px"
	 width="138.345px" height="46.362px" viewBox="0 0 138.345 46.362" enable-background="new 0 0 138.345 46.362"
	 xml:space="preserve">
<path fill="#DBBD66" d="M128.979,2.041c-8.016,0-12.462,2.052-12.648,2.138c-0.265,0.124-0.464,0.355-0.545,0.635
	c-0.073,0.249-0.034,0.509,0.081,0.74C114.321,4.969,112.17,4.121,110,3.15c-3.67-1.641-6.046-1.125-8.666,0.933h-8.195
	c0.043-0.324,0.081-0.64,0.107-0.933c0.027-0.31-0.088-0.617-0.314-0.829c-1.75-1.658-8.747-2.195-10.849-2.319
	c-0.29-0.014-0.557,0.082-0.762,0.276C81.116,0.469,81,0.738,81,1.02v18.375c0,0.564,0.457,1.021,1.021,1.021h6.125
	c0.441,0,0.833-0.284,0.97-0.704c0.02-0.063,0.109-0.334,0.239-0.745c0.234,0.242,0.486,0.505,0.755,0.785
	c0.911,0.951,1.852,1.935,2.485,2.466c3.802,3.183,8.371,6.619,9.281,7.217c0.751,0.494,2.37,1.188,3.624,1.188
	c1.007,0,1.78-0.231,2.317-0.682c0.719,0.28,1.535,0.282,2.321-0.025c0.929-0.359,1.693-1.084,2.125-1.962
	c0.804,0.172,1.725,0.051,2.562-0.369c0.819-0.412,1.411-1.043,1.705-1.78c0.813,0.043,1.65-0.245,2.342-0.839
	c0.93-0.795,1.299-1.94,1.084-3.081l1.638-1.1c0.111,0.358,0.209,0.683,0.275,0.923c0.123,0.443,0.525,0.749,0.984,0.749h6.125
	c0.564,0,1.021-0.457,1.021-1.021V3.062C130,2.496,129.543,2.041,128.979,2.041z M87.401,18.374h-4.359V2.114
	c3.281,0.259,6.821,0.823,8.107,1.448C90.608,8.033,88.16,15.977,87.401,18.374z M117.546,23.413
	c-0.396,0.34-0.931,0.448-1.235,0.255c-0.776-0.627-3.988-3.916-5.989-6.001c-0.39-0.408-1.037-0.423-1.443-0.031
	c-0.408,0.39-0.421,1.037-0.031,1.444c0.473,0.493,4.267,4.447,5.804,5.85c-0.115,0.447-0.53,0.723-0.74,0.828
	c-0.653,0.331-1.335,0.274-1.59,0.037c-0.007-0.007-0.018-0.006-0.025-0.013c-0.013-0.011-0.018-0.027-0.032-0.038
	c-1.223-0.978-4.296-4.243-4.99-4.998c-0.384-0.417-1.027-0.441-1.444-0.061c-0.414,0.382-0.443,1.029-0.061,1.443
	c0.033,0.035,3.03,3.267,4.723,4.781c-0.191,0.487-0.594,0.909-1.089,1.101c-0.312,0.118-0.766,0.19-1.172-0.182
	c-0.004-0.004-0.01-0.004-0.014-0.007c-0.007-0.006-0.01-0.015-0.017-0.021c-1.456-1.227-4.435-4.398-5.016-5.021
	c-0.386-0.412-1.033-0.435-1.444-0.049c-0.412,0.386-0.433,1.031-0.049,1.444c0.691,0.74,2.747,2.918,4.293,4.374
	c-0.133,0.019-0.281,0.034-0.485,0.034c-0.68,0-1.903-0.459-2.501-0.856c-0.717-0.472-5.21-3.824-9.092-7.074
	c-0.545-0.459-1.488-1.444-2.321-2.313c-0.616-0.643-1.175-1.221-1.549-1.571c0.854-2.817,2.082-7.128,2.761-10.644h6.266
	c-1.395,1.402-3.274,4.212-2.786,6.276c0.21,0.882,0.831,1.535,1.754,1.84c2.313,0.764,4.424,0.033,5.996-2.054
	c0.649-0.1,1.002-0.247,1.533-0.486c0.192-0.086,0.416-0.186,0.715-0.306c1.168,1.096,2.744,2.372,4.404,3.714
	c3.001,2.428,6.405,5.18,7.17,6.772C118.228,22.666,117.821,23.178,117.546,23.413z M119.068,20.023
	c-1.405-1.883-4.288-4.223-7.104-6.501c-1.854-1.499-3.606-2.915-4.722-4.032c-0.28-0.282-0.698-0.372-1.068-0.239
	c-0.688,0.249-1.113,0.441-1.448,0.59c-0.51,0.229-0.682,0.306-1.37,0.376c-0.304,0.031-0.578,0.194-0.747,0.447
	c-1.444,2.158-2.938,1.974-3.936,1.639c-0.318-0.106-0.376-0.243-0.406-0.374c-0.214-0.896,0.862-2.983,2.256-4.377
	c3.318-3.32,5.029-4.151,8.642-2.536c3.45,1.543,6.875,2.792,7.908,3.162c1.201,2.916,2.818,7.437,3.868,10.587L119.068,20.023z
	 M127.958,20.416h-4.341c-0.968-3.152-3.826-11.372-5.421-14.769c1.558-0.529,4.904-1.437,9.761-1.552V20.416z"/>
<g>
	<path fill="#DBBD66" d="M70.727,0c-1.488,0-2.759,0.932-3.804,2.482l-11.94,8.428h-9.711c-4.011,0-7.273,3.262-7.273,7.273
		c0,3.521,2.515,6.462,5.843,7.128l3.248,3.248v6.769c0,1.524,0.756,2.936,2.024,3.782l3.836,2.556
		c0.155,0.104,0.329,0.153,0.504,0.153c0.235,0,0.467-0.091,0.644-0.265l0.753-0.753c0.858-0.858,1.331-2,1.331-3.214v-0.624
		c0-1.215-0.473-2.356-1.333-3.218c-0.256-0.255-0.365-0.618-0.295-0.969l1.337-6.68l11.032,7.787
		c1.045,1.549,2.316,2.481,3.804,2.481c4.724,0,7.273-9.367,7.273-18.182S75.451,0,70.727,0z M39.818,18.182
		c0-3.007,2.447-5.455,5.455-5.455h5.593c-1.231,1.281-1.957,3.16-1.957,5.455c0,2.295,0.727,4.174,1.958,5.455h-5.594
		C42.265,23.636,39.818,21.189,39.818,18.182z M54.364,37.584c0,0.729-0.284,1.415-0.798,1.931L53.34,39.74l-3.216-2.144
		c-0.76-0.507-1.215-1.356-1.215-2.269v-7.146c0-0.242-0.096-0.473-0.267-0.644l-2.084-2.084h7.605l-1.392,6.962
		c-0.189,0.949,0.105,1.925,0.795,2.615c0.514,0.516,0.798,1.2,0.798,1.929V37.584z M55.796,23.802
		c-0.029-0.021-0.064-0.03-0.095-0.047c-0.027-0.015-0.052-0.028-0.081-0.04c-0.11-0.046-0.225-0.078-0.347-0.078h-0.001
		c-3.356-0.001-4.545-2.938-4.545-5.455c0-2.516,1.189-5.455,4.545-5.455c0.111,0,0.217-0.026,0.319-0.064
		c0.034-0.013,0.064-0.031,0.096-0.048c0.036-0.019,0.076-0.031,0.109-0.055l9.501-6.706c-0.531,1.505-0.944,3.221-1.248,5.038
		c-0.039,0.23-0.081,0.456-0.116,0.691c-0.022,0.146-0.038,0.296-0.058,0.443c-0.055,0.394-0.108,0.789-0.153,1.194
		c-0.006,0.057-0.01,0.116-0.016,0.173c-0.051,0.484-0.097,0.972-0.132,1.468c-0.006,0.078-0.008,0.156-0.013,0.234
		c-0.031,0.468-0.059,0.939-0.076,1.415c-0.02,0.558-0.031,1.116-0.031,1.672s0.01,1.114,0.031,1.672
		c0.017,0.477,0.045,0.947,0.076,1.415c0.005,0.078,0.007,0.156,0.013,0.234c0.035,0.495,0.081,0.983,0.132,1.466
		c0.006,0.058,0.01,0.118,0.016,0.176c0.044,0.402,0.098,0.794,0.152,1.186c0.021,0.15,0.037,0.302,0.059,0.451
		c0.035,0.23,0.076,0.452,0.114,0.678c0.303,1.82,0.717,3.54,1.249,5.047L55.796,23.802z M70.727,34.546
		c-0.772,0-1.568-0.612-2.308-1.713c-0.011-0.02-0.014-0.042-0.027-0.062c-1.431-2.167-2.456-5.814-2.889-10.042
		c-0.009-0.091-0.017-0.183-0.026-0.275c-0.055-0.571-0.096-1.153-0.129-1.741c-0.008-0.144-0.018-0.285-0.024-0.431
		c-0.032-0.692-0.051-1.392-0.051-2.1s0.02-1.408,0.051-2.1c0.007-0.146,0.016-0.287,0.024-0.431
		c0.033-0.589,0.074-1.171,0.129-1.741c0.009-0.092,0.017-0.184,0.026-0.275c0.433-4.228,1.458-7.875,2.889-10.042
		c0.013-0.02,0.016-0.042,0.027-0.063c0.739-1.1,1.536-1.712,2.307-1.712c2.58,0,5.455,6.72,5.455,16.364
		S73.307,34.546,70.727,34.546z"/>
	<path fill="#DBBD66" d="M69.818,12.727c-0.502,0-0.909,0.407-0.909,0.909c0,0.502,0.407,0.909,0.909,0.909
		c1.504,0,2.727,1.631,2.727,3.636s-1.224,3.636-2.727,3.636c-0.502,0-0.909,0.407-0.909,0.909c0,0.502,0.407,0.909,0.909,0.909
		c2.507,0,4.545-2.447,4.545-5.455S72.326,12.727,69.818,12.727z"/>
</g>
<g>
	<circle fill="#3F3F3F" cx="17.5" cy="17.5" r="17.5"/>
	<g id="surface1">
		<path fill="#FFAA5F" d="M17.758,5.37c1.718,1.361,5.966,5.583,4.975,13.454c0,0,1.107-0.661,2.091-1.883
			c0.227-0.282,0.684-0.174,0.761,0.18c0.171,0.787,0.378,2.048,0.413,3.642c0.104,4.817-3.694,8.951-8.512,8.96
			C12.813,29.732,9,25.912,9,21.222c0-4.064,1.967-6.185,2.725-9.681c0.062-0.288,0.393-0.426,0.646-0.275
			c0.575,0.342,1.484,0.982,2.078,1.891c0,0,2.418-3.063,2.607-7.458C17.072,5.344,17.479,5.149,17.758,5.37z"/>
		<path fill="#FFE17D" d="M22.092,21.181c-0.678,1.018-1.538,1.25-1.538,1.25c0.348-4.178-1.25-7.243-1.908-8.309
			c-0.093-0.151-0.324-0.111-0.362,0.062c-0.602,2.791-2.217,4.341-2.217,4.341c-0.526-0.613-1.025-0.864-1.285-0.961
			c-0.102-0.038-0.211,0.018-0.249,0.12c-0.664,1.78-1.918,3.153-2.203,5.199c-0.42,3.01,1.767,5.863,4.799,6.074
			c3.058,0.212,5.605-2.206,5.605-5.219c0-1.212-0.161-2.044-0.284-2.504C22.404,21.07,22.187,21.039,22.092,21.181z"/>
		<path fill="#FFFFFF" d="M17.627,20.717c-0.063-0.158-0.264-0.202-0.379-0.076c-0.686,0.753-2.528,2.957-2.528,4.898
			c0,1.536,1.245,2.782,2.782,2.782c1.536,0,2.782-1.245,2.782-2.782C20.283,24.078,18.487,22.881,17.627,20.717z"/>
		<path fill="#FF8C5A" d="M17.413,29.72c-0.907-0.068-8.704-1.522-6.015-11.331c1.003-3.66,1.179-6.996,1.179-6.996
			c-0.072-0.045-0.141-0.089-0.205-0.127c-0.253-0.151-0.584-0.013-0.646,0.275C10.967,15.036,9,17.158,9,21.222
			C9,25.887,12.759,29.672,17.413,29.72z"/>
	</g>
</g>
</svg>
