<?xml version="1.0" encoding="utf-8"?>
<!-- Generator: Adobe Illustrator 24.0.2, SVG Export Plug-In . SVG Version: 6.00 Build 0)  -->
<svg version="1.1" id="Слой_1" xmlns="http://www.w3.org/2000/svg" xmlns:xlink="http://www.w3.org/1999/xlink" x="0px" y="0px"
	 width="300px" height="300px" viewBox="0 0 300 300" enable-background="new 0 0 300 300" xml:space="preserve">
<path fill="#2B2B2B" d="M25.556,300.007c-6.829,0-13.249-2.66-18.078-7.488c-9.97-9.97-9.97-26.191-0.002-36.16l52.022-52.023
	c-14.374-21.466-22.152-46.854-22.152-73.016c0-35.078,13.661-68.057,38.465-92.861c24.804-24.804,57.783-38.465,92.862-38.465
	c35.078,0,68.058,13.66,92.862,38.465v0c0,0,0,0,0,0C286.34,63.262,300,96.241,300,131.32c0,35.079-13.66,68.058-38.465,92.862
	c-24.804,24.805-57.783,38.465-92.862,38.465c-26.161,0-51.55-7.778-73.016-22.152l-52.022,52.022
	C38.811,297.345,32.389,300.007,25.556,300.007z M100.854,199.139l4.952,4.33c17.367,15.186,39.694,23.549,62.868,23.549
	c25.561,0,49.593-9.954,67.667-28.03c18.075-18.074,28.029-42.106,28.029-67.667c0-25.562-9.954-49.594-28.028-67.667v0
	c-18.075-18.075-42.107-28.029-67.668-28.029c-25.562,0-49.593,9.954-67.667,28.029c-18.075,18.075-28.03,42.107-28.03,67.667
	c0,23.174,8.363,45.501,23.548,62.868L100.854,199.139z"/>
</svg>
