<?xml version="1.0" encoding="utf-8"?>
<!-- Generator: Adobe Illustrator 24.0.2, SVG Export Plug-In . SVG Version: 6.00 Build 0)  -->
<svg version="1.1" id="Слой_1" xmlns="http://www.w3.org/2000/svg" xmlns:xlink="http://www.w3.org/1999/xlink" x="0px" y="0px"
	 width="57px" height="57px" viewBox="0 0 57 57" enable-background="new 0 0 57 57" xml:space="preserve">
<g>
	<path fill="#1F9CD8" d="M31.336,22.43c-0.173-0.175-0.461-0.175-0.634,0l-0.49,0.494c-0.173,0.175-0.173,0.464,0,0.638
		c0.09,0.09,0.203,0.132,0.317,0.132s0.227-0.042,0.317-0.132l0.49-0.494C31.515,22.894,31.515,22.605,31.336,22.43z"/>
	<path fill="#1F9CD8" d="M31.748,24.93c0.114,0,0.227-0.042,0.317-0.132l0.49-0.494c0.173-0.175,0.173-0.464,0-0.638
		c-0.173-0.175-0.46-0.175-0.634,0l-0.49,0.494c-0.173,0.175-0.173,0.464,0,0.638C31.521,24.887,31.635,24.93,31.748,24.93z"/>
	<path fill="#1F9CD8" d="M33.148,24.893l-0.49,0.494c-0.173,0.175-0.173,0.464,0,0.638c0.09,0.09,0.203,0.132,0.317,0.132
		c0.114,0,0.227-0.042,0.317-0.132l0.49-0.494c0.173-0.175,0.173-0.464,0-0.638S33.327,24.719,33.148,24.893z"/>
	<path fill="#1F9CD8" d="M33.877,27.26c0.09,0.09,0.203,0.132,0.317,0.132c0.114,0,0.227-0.042,0.317-0.132l0.49-0.494
		c0.173-0.175,0.173-0.464,0-0.638s-0.461-0.175-0.634,0l-0.49,0.494C33.704,26.797,33.704,27.086,33.877,27.26L33.877,27.26z"/>
	<path fill="#1F9CD8" d="M18.244,38.125l-0.825,0.831c-0.173,0.175-0.173,0.464,0,0.638s0.461,0.175,0.634,0l0.825-0.831
		c0.173-0.175,0.173-0.464,0-0.638C18.705,37.95,18.418,37.944,18.244,38.125z"/>
	<path fill="#1F9CD8" d="M17.994,43.5c-0.192,0-0.312-0.013-0.331-0.015c-0.469-0.055-1.802-0.443-2.71-1.232
		c-0.935-0.82-1.343-2.327-1.386-2.496l-0.01-0.041l-0.007-0.042c-0.365-2.237,1.387-4.06,1.462-4.137l0.054-0.051
		c0.091-0.079,9.131-7.958,10.772-9.409l0.005-0.004c0.828-0.722,0.904-1.7,0.822-2.394c-0.174-1.509-0.129-2.711,0.142-3.785
		c0.617-2.425,1.861-4.196,3.697-5.266c3.267-1.902,7.194-0.834,7.359-0.788l1.512,0.424l-4.574,4.699l0.684,2.568l2.564,0.646
		l4.628-4.733l0.415,1.586c1.141,4.362-0.328,7.114-1.761,8.655c-2.159,2.321-5.445,3.158-7.44,2.768
		c-1.949-0.383-2.824,0.649-2.906,0.752l-0.034,0.051l-0.028,0.025l-9.767,10.94l-0.02,0.02C20.007,43.359,18.62,43.5,17.994,43.5z
		 M15.373,39.329c0.12,0.432,0.429,1.192,0.795,1.513c0.56,0.487,1.519,0.763,1.714,0.789c0.01,0.001,1.117,0.091,1.937-0.702
		l9.706-10.872c0.272-0.344,1.768-2.016,4.721-1.436c1.29,0.253,3.922-0.266,5.732-2.211c1.263-1.357,1.813-3.135,1.625-5.204
		l-2.976,3.043l-4.649-1.172l-1.241-4.658l2.947-3.028c-1.199-0.075-2.843,0.03-4.262,0.86c-1.383,0.81-2.332,2.191-2.818,4.105
		c-0.213,0.845-0.244,1.832-0.097,3.105c0.19,1.612-0.324,3.041-1.448,4.022c-1.6,1.414-10.118,8.839-10.743,9.384
		C16.169,37.028,15.206,38.143,15.373,39.329z"/>
</g>
<path fill="#1F9CD8" d="M28.5,56.748c-15.576,0-28.248-12.672-28.248-28.248c0-15.576,12.672-28.248,28.248-28.248
	c15.576,0,28.248,12.672,28.248,28.248C56.748,44.076,44.076,56.748,28.5,56.748z M28.5,1.002C13.338,1.002,1.002,13.338,1.002,28.5
	c0,15.162,12.335,27.498,27.498,27.498c15.162,0,27.498-12.335,27.498-27.498C55.998,13.338,43.662,1.002,28.5,1.002z"/>
</svg>
