<?xml version="1.0" encoding="utf-8"?>
<!-- Generator: Adobe Illustrator 22.0.1, SVG Export Plug-In . SVG Version: 6.00 Build 0)  -->
<svg version="1.1" id="Слой_1" xmlns="http://www.w3.org/2000/svg" xmlns:xlink="http://www.w3.org/1999/xlink" x="0px" y="0px"
	 width="160px" height="79px" viewBox="0 0 160 79" style="enable-background:new 0 0 160 79;" xml:space="preserve">
<style type="text/css">
	.st0{fill-rule:evenodd;clip-rule:evenodd;}
</style>
<g>
	<rect x="0.3" y="68" class="st0" width="56.3" height="3.5"/>
	<rect x="104.3" y="68" class="st0" width="55.5" height="3.5"/>
	<path class="st0" d="M90.1,78.3c1.3,0.1,2.5-0.4,3.5-1.3c2-1.6,3.3-3.8,4.1-6.2c0.1-0.2,0.1-0.5,0.1-0.8c0-0.8-0.7-1.2-1.4-0.7
		c-0.2,0.1-0.3,0.3-0.5,0.5c-0.2,0.3-0.3,0.5-0.4,0.8c-0.8,1.7-1.7,3.2-3.1,4.5c-0.5,0.4-0.9,0.7-1.6,0.8c-0.5,0.1-0.7-0.1-0.6-0.6
		c0.1-0.3,0.2-0.6,0.3-0.9c0.7-1.3,1.5-2.5,2.2-3.8c0.4-0.7,0.8-1.5,1.1-2.2c0.3-0.7,0.1-1.3-0.4-1.9c-0.5-0.5-1.1-0.8-1.8-0.9
		c-1.3-0.2-1.8,0.1-2.2,1.2c-0.3,0.7-0.5,1.5-0.8,2.2c-0.6,1.9-1.5,3.7-2.7,5.4c-0.4,0.6-0.9,1.1-1.6,1.4c-0.9,0.3-1.6-0.1-1.6-1
		c0-0.6,0-1.2,0.1-1.8c0.8-3.1,2.6-5.6,5.2-7.5c1.8-1.2,3.7-1.7,5.9-1.3c0.4,0.1,0.8,0.2,1.3,0.1c0.8,0,1.1-0.7,0.8-1.4
		c-0.3-0.5-0.7-0.7-1.2-0.9c-0.6-0.2-1.2-0.3-1.8-0.4c-2.3-0.5-4.5-0.3-6.6,0.6c-3.5,1.3-5.7,3.8-7.2,7.2c-0.5,1.2-1.1,2.4-1.7,3.5
		c-0.5,0.9-1.2,1.7-2,2.4c-0.4,0.4-0.9,0.6-1.5,0.7c-0.3,0-0.5-0.1-0.4-0.5c0.1-0.5,0.2-1,0.4-1.4c0.8-1.5,1.7-3,2.5-4.5
		c0.8-1.4,1.6-2.8,2.4-4.3c0.3-0.5,0.3-1.1,0.1-1.6c-0.4-1.3-2.2-2.4-3.5-2.3c-0.6,0.1-1.1,0.4-1.3,1c-0.2,0.4-0.4,0.9-0.5,1.3
		c-0.6,1.6-1.2,3.3-1.8,4.9c-0.9,2.1-2,4.2-3.4,6c-0.5,0.6-1,1.2-1.8,1.4c-0.9,0.3-1.4-0.2-1.2-1c0.2-0.8,0.5-1.6,0.9-2.3
		c1.4-2.5,2.8-5,4.2-7.5c0.4-0.7,0.4-1.4,0-2.1c-0.6-1.1-1.4-1.7-2.6-2.1c-0.2,0-0.4,0-0.5,0c-0.6,0.2-0.9,0.6-1.2,1.1
		c-0.3,0.7-0.7,1.4-1,2c-1.1,2.3-2,4.6-2.6,7c-0.4,1.5-0.6,3-0.4,4.5c0.1,0.8,0.4,1.6,1.1,2c1.2,0.8,2.4,0.9,3.7,0.2
		c1.2-0.6,2-1.5,2.8-2.5c0.4-0.5,0.7-1.1,1.1-1.7c0,0.3,0,0.5,0,0.7c0,0.8,0,1.6,0.3,2.4c0.3,0.8,0.9,1.3,1.7,1.4
		c0.7,0.1,1.4,0,2-0.2c1.4-0.5,2.4-1.5,3.3-2.6c0.1-0.1,0.2-0.3,0.3-0.4c0,0.1,0.1,0.2,0.1,0.3c1,2.9,4.5,3.5,6.4,2.2
		c0.7-0.5,1.2-1.1,1.8-1.7c0.3-0.3,0.5-0.6,0.7-0.9c0,0.2,0,0.3,0,0.4c0.1,0.5,0.1,1,0.3,1.5C88.3,77.8,89,78.2,90.1,78.3z"/>
	<path class="st0" d="M64.8,31.7c1.6-5,2.2-6,3.4-8.1c0.5-0.8,0.5-1.3-0.2-1.6c-1.2-0.5-2.4-1-3.6-1.5c0,0-2.2-0.4-6.4,12.8
		c-0.7,2.1-1.5,4.1-3.3,5.7c-0.7,0.6-1.5,1.7-2.4,1.3c-0.4-0.2-0.3-1.5-0.1-2.3C53,36,54,33.9,55,31.8c0.8-1.6,0.8-2-0.4-3
		c-0.3-0.3-0.6-0.5-1-0.7c1-1.1,0.7-2.1,0-2.8c-1-0.9-2.2-1.8-3.5-2.4c-3-1.5-5.5-1-8.2,1.6c-4.5,4.4-6.6,9.4-7.3,14.8
		c-0.2,1.6,0.3,3,1.3,4.1c1.9,2.2,5,2,7.3-0.7c1.1-1.2,2-2.6,3-4c-0.1,2.6,0.8,4.5,3.6,5c3,0.5,4.9-1.8,6.8-3.6
		c1.1,1.6,2.3,3.1,4.6,3.2c0.1-0.3,0.3-0.4,0.5-1.8c0.7-2.5,1.3-4.6,1.8-6.3c0.3-0.6,0.6-0.7,0.8-0.7c1.3-0.1,3.2-0.1,4.7-0.1
		c0,0.1,0,0.2,0,0.3c-0.5,1.5-0.9,3.1-1.2,4.9c-0.4,2.4,0.8,4.4,3.2,5.1c2.3,0.7,3.9,0.2,6.2-2.1c0.6-0.6,1.1-1.2,1.6-1.8
		c0,0,0,0,0,0c0.1-0.1,0.2-0.2,0.2-0.3c0.1-0.2,0.3-0.4,0.4-0.5c0,0,0,0,0.1-0.1c0,0,0,0,0,0c0.1-0.2,0.2-0.3,0.3-0.5
		c2-3,3.9-6.1,5.5-9.2c0.9-1.8,1.9-2.9,4-2.6c0.3,0,0.7-0.1,1-0.1c-0.7,1.3-1.5,2.5-2.1,3.7c-1.3,2.8-2.7,5.6-3,8.5
		c-0.2,2,0.9,3.3,2.7,4c1.9,0.7,3.7,0.4,5.5-1.2c0.9-0.7,1.7-1.5,2.5-2.3c0,0.2,0.1,0.5,0.1,0.7c1,3.7,4.3,5.3,8.4,4
		c2.4-0.8,4.2-2.4,5.6-4.3c0.7-1,1.5-1.7,2.9-2.1c2.5-0.7,4.5-2.4,6-4.5c0.4,1.2,0.6,2.4,1.1,3.5c0.2,0.6,0,0.9-0.4,1.4
		c-1.5,1.5-3,3-4.5,4.6c-1,1.1-0.7,2.9,0.4,3.6c2-2,3.9-4.1,6-6.2c0.2,0.3,0.3,0.5,0.4,0.6c1,1.3,2.1,2.5,3.7,3.1
		c1.7,0.6,3.4,0.3,5-1c0.8-0.7,1.6-1.5,2.3-2.2c0.2,0.4,0.3,0.8,0.5,1.1c1.3,2.7,5,4.1,8.4-0.1c0.9-1.1,1.6-2.2,2.5-3.5
		c0,0.4,0,0.6,0,0.9c0.1,2.1,1.1,3.5,3.2,4c2,0.5,3.7-0.3,5.3-1.8c2.8-2.6,4.7-5.7,6.4-8.8c0.6-1.2,0.4-1.5-1.1-1.6
		c-0.3,0.4-0.5,0.8-0.8,1.2c-1.7,2.3-3.4,4.6-5.2,6.8c-0.4,0.5-1.4,0.7-2,1.1c-0.1-0.6-0.3-1.3-0.1-1.9c1-2.4,2-4.8,3.2-7.1
		c0.4-0.8,0.4-1.3,0-1.8c-0.5-0.5-1-1-1.5-1.5c0.8-1.2,0.5-2.2-0.3-2.9c-0.9-0.8-2-1.5-3.1-2.1c-3.4-1.8-6.3-0.6-8.9,2.2
		c-2.9,3-4.6,6.4-5.7,10c-0.7,2.3-2.2,4-4.1,5.6c-0.9,0.7-1.5,0.7-2,0c-0.6-0.8-0.9-1.8-1.4-2.7c-0.6-1.1-0.2-2,0.9-3.2
		c2.8-2.9,5.5-5.8,8-8.9c1.3-1.5,0.8-2.7-0.7-3.3c-3.1,3.5-6.2,6.9-9.2,10.4c-0.2,0-0.3-0.1-0.5-0.1c-0.2-2.6-0.3-5.1-0.5-7.8
		c-0.8,0.1-1.8,0.1-2.8,0.3c-2.7,0.6-3.3,1.2-3,3.5c0.2,1.8-0.6,3.1-1.9,4.5c-1.3,1.3-2.6,2-3.6,2.2c0.4-2,1-4,1.3-6
		c0.2-1.6,0.1-3.3-1.3-4.2c-1.5-1-3.2-1.9-5-2.5c-1.5-0.5-3.1,0.2-4.2,1.6c-0.2,0.2-0.4,0.5-0.6,0.6c-1.7,0.5-2.6,1.8-3.5,3
		c-1.6,2.3-2.7,4.8-3.4,7.3c-0.5,2-2.1,3.3-3.8,4.6c-1.1,0.8-2.1,0.4-2-0.8c0.1-0.8,0.2-1.6,0.6-2.3c1.7-3.1,3.4-6.1,5.2-9.1
		c0.4-0.6,0.5-1.1,0-1.4c-0.9-0.7-1.8-1.5-2.9-2c-0.5-0.3-1.3-0.2-2-0.1c-1.2,0.2-2.4,0.5-3.7,0.8c0-0.1-0.1-0.2-0.1-0.2
		c0.9-1.4,1.9-2.8,3-4.4c-0.7-0.5-1.3-1.1-2.1-1.5c-1.5-0.6-2.7-0.3-3.7,1.2c-0.8,1-1.3,2.2-1.8,3.4c-0.5,1.4,0.1,2.5,1.3,3.1
		c0.2,0.1,0.4,0.2,0.6,0.3c-1.4,2.5-2.8,5-4.4,7.3c-1.2,1.7-2.4,3.4-4,5c-0.6,0.6-1.3,1.2-2,1.7C74,42,73.5,41.7,73.4,41
		c0-0.6,0.1-1.3,0.3-1.9c1.3-4,3.3-7.8,5.7-11.4c0.4-0.7,0.5-1.2,0.1-1.6c-1.1-1-2.2-2-3.5-2.7c-0.2-0.1-2.9,2.5-5.2,7.5
		c-0.1,0.2-0.2,0.3-0.3,0.5c-0.1,0.2-0.4,0.5-0.6,0.5C68.6,31.9,66.2,31.7,64.8,31.7z M49.4,29.4c-2,3.1-3.9,6.2-5.9,9.3
		c-0.5,0.8-1.2,1.5-2,2.2c-0.7,0.7-1.4,0.5-1.4-0.3c0-0.8,0.2-1.6,0.2-2.4c1-3.4,2.5-6.8,4.7-9.9c0.6-0.9,1.5-1.8,2.4-2.5
		c1.2-0.9,2.1-0.7,2.5,0.5C50.1,27.3,50.2,28.3,49.4,29.4z M138.7,39.1c1.2-4,2.7-7.8,5.5-11.2c0.4-0.6,1-1.1,1.6-1.5
		c1.1-0.8,2-0.6,2.4,0.4c0.3,1,0.4,2-0.4,3.1c-2,3.1-3.9,6.2-5.9,9.3c-0.5,0.8-1.3,1.5-2,2.1c-0.6,0.6-1.2,0.4-1.2-0.3
		C138.6,40.4,138.7,39.6,138.7,39.1z M106.2,29.5c0.3-0.3,0.5-0.5,0.8-0.7c1.3-1,1.3-1,0.1-1.9c0.9-0.6,1.7-1.1,2.6-0.7
		c0.9,0.4,0.9,1.3,0.9,2.1c0,2.4-1,4.7-2.1,7.1c-0.1,0.2-0.2,0.4-0.4,0.8c-1.3-0.5-2.2-1.4-2.8-2.6
		C104.3,31.6,104.4,31.3,106.2,29.5z M101.8,37.1c0.1-0.5,0.4-1,0.6-1.4c1.4,1.1,2.7,2.1,4.1,3.3c-0.7,1.1-1.5,2.3-2.9,3.2
		c-1.2,0.8-2.4,0.6-2.4-0.6C101.1,40.1,101.5,38.6,101.8,37.1z"/>
	<path class="st0" d="M31.2,32.5c2.2-5.7,5.1-11.3,8.7-16.6c0.5-0.7,0.6-1.3-0.6-2.1c-2.1-1.1-3.6-0.5-4.5,0.2
		c-0.6,0.5-1.3,2.1-1.5,2.6c-1.9,3.7-4,7.3-5.8,11c-1.8,3.7-3.1,7.5-4,11.3c-1.2,8.4,4.4,8,5,8c2.2-0.1,4.6-2.6,4.8-4.8
		c0-0.5-0.1-0.5-0.2-0.6c-5.2,4.4-5,1.3-4.8,0.6C29.2,38.9,30,35.7,31.2,32.5z"/>
	<path class="st0" d="M54.5,3.6c0-0.2,0-0.5,0-0.8C54.4,2.5,54.2,2,53.7,2c-0.1,0-0.6,0-1.4,0.6c-2,1.7-4.1,2.2-6.5,1.8
		c-2.7-0.5-5.3-1-8-1.4c-2.2-0.4-9.9-1.8-11.6-2c-2.4-0.4-5-0.5-7.6-0.2C11.7,1.7,4.1,6.9,1.2,12.9c-1.9,3.9-1.4,8,1.2,10
		c2.5,1.9,6,1.9,9.3-0.1c3.3-1.9,6.1-6.4,5.8-9.3c-0.1-1.4-0.8-2-1.9-1.8c-1.1,0.2-1.7,1.2-1.8,2.5c0,0.8-0.1,1.7-0.4,2.5
		c-0.7,2.9-3.4,5-6.3,5c-2.8,0-4.4-2.1-4.1-4.9c0.8-6.4,8.3-11.1,14.6-10.4c6.6,0.7,14.7,4.4,18.1,5.2c3.4,0.8,6.9,0.8,6.9,0.8
		C48.5,12.2,53.6,8.4,54.5,3.6z"/>
	<path class="st0" d="M5.4,43.5C5.7,43.2,6,43,6.3,42.7c0.5-0.5,0.7-1,0.5-1.7c-0.2-0.7-0.7-1-1.4-1.2c-0.8-0.1-1.6,0-2.1,0.7
		c-0.5,0.5-0.8,1.1-1,1.6C2,42.9,1.8,44,2.9,45.5c1.6,2,3.7,2.5,6.1,2c3.4-0.6,6-4,6.7-5.3c1.6-2.9,2.2-4.2,3.6-7.2
		c1.9-4.3,7.8-21.5,8-22.4c0-0.3-0.3-0.9-0.6-0.9c-1.5-0.1-3,0-4.5,0.1c-0.2,0-0.6,0.4-0.6,0.6c-1,4.6-4.8,15.7-6.5,20.1
		C13.9,35,10.1,45,6.1,45.5c-0.6,0-1-0.3-1.2-0.8C4.7,44.1,5,43.8,5.4,43.5z"/>
</g>
</svg>
