<?xml version="1.0" encoding="utf-8"?>
<!-- Generator: Adobe Illustrator 22.0.1, SVG Export Plug-In . SVG Version: 6.00 Build 0)  -->
<svg version="1.1" id="Слой_1" xmlns="http://www.w3.org/2000/svg" xmlns:xlink="http://www.w3.org/1999/xlink" x="0px" y="0px"
	 width="224px" height="36px" viewBox="0 0 224 36" enable-background="new 0 0 224 36" xml:space="preserve">
<g>
	<g>
		<path fill="#1E1E1C" d="M0,34.215L15.896,1.839h7.975L39.82,34.215h-9.037l-4.147-8.613h-8.773l-3.083-4.04L9.038,34.215H0z
			 M19.831,10.451l-3.881,8.241h7.868L19.831,10.451z"/>
		<rect x="43.652" y="26.864" fill="#1E1E1C" width="8.241" height="7.351"/>
		<polygon fill="#1E1E1C" points="47.2,1.838 74.845,1.838 74.845,8.644 65.116,8.644 65.116,34.215 56.876,34.215 56.876,8.644 
			47.2,8.644 		"/>
		<path fill="#1E1E1C" d="M77.902,11.248c0.904-2.161,2.154-4.049,3.748-5.662c1.595-1.612,3.464-2.879,5.609-3.801
			c2.144-0.922,4.44-1.383,6.885-1.383c2.515,0,4.846,0.461,6.99,1.383c2.144,0.922,4.006,2.179,5.582,3.774
			c1.577,1.596,2.809,3.474,3.696,5.636c0.886,2.162,1.329,4.484,1.329,6.965c0,2.481-0.451,4.784-1.356,6.911
			c-0.903,2.127-2.145,3.97-3.721,5.529c-1.577,1.56-3.438,2.783-5.582,3.669c-2.145,0.885-4.458,1.329-6.938,1.329
			c-2.445,0-4.741-0.444-6.885-1.329c-2.145-0.885-4.014-2.108-5.609-3.669c-1.595-1.559-2.844-3.403-3.748-5.529
			c-0.903-2.127-1.356-4.43-1.356-6.911C76.546,15.715,76.998,13.41,77.902,11.248 M84.946,21.934
			c0.532,1.169,1.249,2.206,2.154,3.111c0.903,0.903,1.948,1.613,3.137,2.127c1.187,0.514,2.454,0.77,3.801,0.77
			c1.381,0,2.685-0.239,3.908-0.717c1.222-0.479,2.295-1.151,3.216-2.02c0.922-0.869,1.647-1.896,2.18-3.084
			c0.531-1.187,0.797-2.507,0.797-3.96c0-1.347-0.257-2.632-0.771-3.855c-0.515-1.222-1.215-2.303-2.1-3.243
			c-0.886-0.938-1.94-1.682-3.164-2.232c-1.222-0.549-2.543-0.825-3.96-0.825c-1.383,0-2.677,0.276-3.882,0.825
			c-1.205,0.55-2.259,1.294-3.162,2.232c-0.905,0.94-1.622,2.021-2.154,3.243c-0.531,1.223-0.797,2.508-0.797,3.855
			C84.149,19.507,84.415,20.765,84.946,21.934"/>
		<path fill="#1E1E1C" d="M115.781,1.838h8.4v3.403l2.765-3.403h9.409c2.233,0,4.076,0.398,5.53,1.196
			c1.453,0.797,2.533,1.869,3.242,3.216l3.403-4.413h9.357c1.665,0,3.091,0.248,4.279,0.744c1.188,0.496,2.162,1.169,2.925,2.02
			c0.761,0.851,1.32,1.835,1.674,2.951c0.354,1.116,0.532,2.277,0.532,3.482v23.179h-8.453V12.311c0-0.708-0.276-1.408-0.825-2.1
			c-0.549-0.691-1.249-1.037-2.1-1.037h-10.207v25.04h-8.401V12.311c0-0.992-0.257-1.763-0.77-2.312
			c-0.515-0.549-1.233-0.825-2.154-0.825h-10.208v25.04h-8.4V1.838z"/>
		<polygon fill="#FFEB13" points="176.353,1.855 176.353,14.589 186.695,14.589 		"/>
		<polygon fill="#FFEB13" points="192.202,21.369 176.353,21.369 176.353,34.179 202.607,34.179 		"/>
		<polygon fill="#1B9BD8" points="213.292,21.369 224,21.369 218.493,14.589 207.785,14.589 207.775,14.589 197.405,1.821 
			186.696,1.821 212.977,34.179 223.686,34.179 213.281,21.369 		"/>
		<polygon fill="#1E1E1C" points="210.395,2.099 208.882,2.099 208.882,1.553 212.563,1.553 212.563,2.099 211.044,2.099 
			211.044,6.525 210.395,6.525 		"/>
		<path fill="#1E1E1C" d="M217.309,4.342c-0.038-0.693-0.082-1.527-0.074-2.147h-0.022c-0.17,0.583-0.376,1.203-0.628,1.889
			l-0.878,2.412h-0.487l-0.804-2.368c-0.237-0.701-0.435-1.343-0.576-1.933h-0.014c-0.014,0.62-0.052,1.454-0.096,2.199
			l-0.132,2.132h-0.613l0.347-4.973h0.819L215,3.958c0.207,0.613,0.377,1.159,0.502,1.675h0.023
			c0.125-0.502,0.303-1.048,0.523-1.675l0.885-2.404h0.819l0.31,4.973h-0.628L217.309,4.342z"/>
	</g>
</g>
</svg>
