<?xml version="1.0" encoding="utf-8"?>
<!-- Generator: Adobe Illustrator 22.0.1, SVG Export Plug-In . SVG Version: 6.00 Build 0)  -->
<svg version="1.1" id="Слой_1" xmlns="http://www.w3.org/2000/svg" xmlns:xlink="http://www.w3.org/1999/xlink" x="0px" y="0px"
	 width="522px" height="82px" viewBox="0 0 522 82" enable-background="new 0 0 522 82" xml:space="preserve">
<g>
	<g>
		<path fill="#FFFFFF" d="M0,78.795L37.044,3.347h18.584l37.167,75.449h-21.06l-9.663-20.072H41.629l-7.184-9.415L21.063,78.795H0z
			 M46.213,23.416L37.17,42.619h18.335L46.213,23.416z"/>
		<rect x="101.725" y="61.663" fill="#FFFFFF" width="19.203" height="17.131"/>
		<polygon fill="#FFFFFF" points="109.992,3.345 174.415,3.345 174.415,19.204 151.744,19.204 151.744,78.795 132.541,78.795 
			132.541,19.204 109.992,19.204 		"/>
		<path fill="#FFFFFF" d="M181.539,25.273c2.108-5.036,5.019-9.435,8.735-13.194c3.716-3.756,8.072-6.71,13.071-8.858
			C208.34,1.074,213.69,0,219.389,0c5.862,0,11.292,1.074,16.29,3.222c4.996,2.148,9.335,5.079,13.008,8.795
			c3.676,3.719,6.547,8.095,8.612,13.134s3.096,10.449,3.096,16.23c0,5.781-1.051,11.149-3.159,16.104
			c-2.105,4.956-4.998,9.252-8.672,12.885c-3.676,3.636-8.012,6.487-13.008,8.549c-4.998,2.063-10.388,3.096-16.167,3.096
			c-5.699,0-11.048-1.034-16.044-3.096c-4.998-2.063-9.355-4.913-13.071-8.549c-3.716-3.633-6.627-7.929-8.735-12.885
			c-2.105-4.956-3.159-10.323-3.159-16.104C178.379,35.682,179.433,30.312,181.539,25.273 M197.954,50.175
			c1.24,2.725,2.911,5.142,5.019,7.249c2.105,2.105,4.539,3.759,7.31,4.956c2.765,1.197,5.719,1.794,8.858,1.794
			c3.219,0,6.258-0.557,9.106-1.671c2.848-1.117,5.347-2.682,7.495-4.707c2.148-2.025,3.839-4.419,5.081-7.187
			c1.237-2.765,1.857-5.842,1.857-9.229c0-3.139-0.6-6.133-1.797-8.983c-1.199-2.848-2.83-5.367-4.893-7.558
			c-2.065-2.186-4.522-3.92-7.372-5.202c-2.848-1.28-5.927-1.922-9.229-1.922c-3.222,0-6.238,0.642-9.046,1.922
			c-2.808,1.282-5.264,3.016-7.37,5.202c-2.108,2.191-3.779,4.71-5.019,7.558c-1.237,2.851-1.857,5.844-1.857,8.983
			C196.098,44.52,196.717,47.45,197.954,50.175"/>
		<path fill="#FFFFFF" d="M269.811,3.345h19.575v7.929l6.444-7.929h21.926c5.204,0,9.498,0.929,12.888,2.788
			c3.385,1.857,5.902,4.356,7.555,7.495l7.929-10.283h21.806c3.879,0,7.204,0.577,9.972,1.734c2.768,1.157,5.039,2.725,6.815,4.707
			c1.774,1.982,3.076,4.276,3.902,6.878c0.826,2.6,1.24,5.307,1.24,8.115v54.015h-19.698V27.751c0-1.651-0.642-3.282-1.922-4.893
			c-1.28-1.611-2.911-2.416-4.893-2.416h-23.785v58.353h-19.577V27.751c0-2.311-0.6-4.108-1.794-5.387
			c-1.199-1.28-2.873-1.922-5.019-1.922h-23.788v58.353h-19.575V3.345z"/>
		<polygon fill="#FFFFFF" points="410.965,3.383 410.965,33.058 435.066,33.058 		"/>
		<polygon fill="#FFFFFF" points="447.9,48.858 410.965,48.858 410.965,78.711 472.147,78.711 		"/>
		<polygon fill="#FFFFFF" points="497.045,48.858 522,48.858 509.168,33.06 484.213,33.06 484.19,33.06 460.023,3.305 
			435.069,3.305 496.313,78.711 521.267,78.711 497.02,48.858 		"/>
		<polygon fill="#FFFFFF" points="490.295,3.952 486.77,3.952 486.77,2.68 495.349,2.68 495.349,3.952 491.808,3.952 
			491.808,14.268 490.295,14.268 		"/>
		<path fill="#FFFFFF" d="M506.408,9.18c-0.088-1.616-0.191-3.558-0.173-5.003h-0.05c-0.396,1.358-0.876,2.803-1.463,4.401
			l-2.045,5.621h-1.134l-1.874-5.518c-0.552-1.634-1.014-3.129-1.342-4.504h-0.033c-0.033,1.445-0.121,3.387-0.223,5.124
			l-0.309,4.968h-1.428l0.808-11.588h1.91l1.975,5.603c0.482,1.428,0.878,2.7,1.169,3.905h0.053
			c0.291-1.169,0.705-2.442,1.219-3.905l2.063-5.603h1.91l0.723,11.588h-1.463L506.408,9.18z"/>
	</g>
</g>
</svg>
