<?xml version="1.0" encoding="utf-8"?>
<!-- Generator: Adobe Illustrator 22.0.1, SVG Export Plug-In . SVG Version: 6.00 Build 0)  -->
<svg version="1.1" id="Слой_1" xmlns="http://www.w3.org/2000/svg" xmlns:xlink="http://www.w3.org/1999/xlink" x="0px" y="0px"
	 width="15px" height="15px" viewBox="0 0 15 15" enable-background="new 0 0 15 15" xml:space="preserve">
<path fill="#009FE3" d="M14.87,14.238l-3.646-3.646c0.978-1.124,1.57-2.592,1.57-4.195C12.794,2.868,9.923,0,6.397,0
	C2.868,0,0,2.871,0,6.397s2.871,6.397,6.397,6.397c1.603,0,3.071-0.592,4.195-1.57l3.646,3.646c0.087,0.086,0.203,0.133,0.316,0.133
	c0.113,0,0.23-0.043,0.316-0.133C15.043,14.697,15.043,14.411,14.87,14.238L14.87,14.238z M0.895,6.397
	c0-3.034,2.468-5.499,5.499-5.499c3.034,0,5.499,2.468,5.499,5.499s-2.465,5.502-5.499,5.502C3.363,11.899,0.895,9.431,0.895,6.397
	L0.895,6.397z M0.895,6.397"/>
</svg>
