<?xml version="1.0" encoding="utf-8"?>
<!-- Generator: Adobe Illustrator 22.0.1, SVG Export Plug-In . SVG Version: 6.00 Build 0)  -->
<svg version="1.1" id="Слой_1" xmlns="http://www.w3.org/2000/svg" xmlns:xlink="http://www.w3.org/1999/xlink" x="0px" y="0px"
	 width="23px" height="19px" viewBox="0 0 23 19" enable-background="new 0 0 23 19" xml:space="preserve">
<g>
	<g>
		<path fill="#FFFFFF" d="M23,2.369c-0.847,0.375-1.755,0.629-2.709,0.743c0.974-0.584,1.72-1.509,2.074-2.609
			c-0.914,0.54-1.923,0.933-2.998,1.145c-0.861-0.918-2.085-1.49-3.444-1.49c-2.606,0-4.718,2.113-4.718,4.717
			c0,0.369,0.042,0.73,0.122,1.075c-3.921-0.197-7.397-2.075-9.724-4.93C1.196,1.717,0.964,2.527,0.964,3.392
			c0,1.637,0.834,3.081,2.098,3.927c-0.773-0.026-1.5-0.239-2.137-0.592v0.059c0,2.285,1.627,4.192,3.784,4.626
			c-0.395,0.106-0.812,0.165-1.243,0.165c-0.305,0-0.599-0.03-0.888-0.088c0.601,1.876,2.343,3.24,4.407,3.277
			c-1.614,1.265-3.649,2.016-5.86,2.016c-0.381,0-0.756-0.023-1.125-0.065c2.088,1.341,4.568,2.123,7.232,2.123
			c8.679,0,13.424-7.189,13.424-13.424L20.64,4.807C21.567,4.146,22.369,3.315,23,2.369z"/>
	</g>
</g>
</svg>
