<?xml version="1.0" encoding="utf-8"?>
<!-- Generator: Adobe Illustrator 24.0.2, SVG Export Plug-In . SVG Version: 6.00 Build 0)  -->
<svg version="1.1" id="Слой_1" xmlns="http://www.w3.org/2000/svg" xmlns:xlink="http://www.w3.org/1999/xlink" x="0px" y="0px"
	 width="120px" height="70px" viewBox="0 0 120 70" enable-background="new 0 0 120 70" xml:space="preserve">
<g>
	<g>
		<path fill="#009FE3" d="M86.44,40.714l-0.137-0.329c-1.154-2.795-5.861-5.539-5.906-5.561c-0.785-0.407-1.562-0.751-2.306-1.026
			L61.134,3.187L40.348,15.05l-7.149,14.721l12.697,0.219v-7.447l12.091-8.6l13.635,22.185c-0.064,0.476-0.061,0.943,0.057,1.342
			c0.176,0.602,0.472,1.73,0.585,2.166c0.029,3.497-1.712,7.324-2.377,8.658l-1.689,0.641l-2.867,6.886l19.212-7.298
			c1.609-0.611,2.773-2.158,2.831-3.762C87.435,43.103,86.974,41.996,86.44,40.714z M42.762,20.928v5.874l-4.6-0.079l4.581-9.434
			L59.93,7.481l14.157,25.557c-0.227,0.019-0.435,0.055-0.618,0.111L58.902,9.448L42.762,20.928z M83.431,45.594l-10.725,4.074
			c0.813-1.627,2.795-6.044,2.688-10.283l-0.049-0.352c0,0-0.161-0.622-0.335-1.268h4.22c1.054,0.647,3.671,2.59,4.177,3.815
			l0.14,0.339c0.472,1.132,0.731,1.755,0.696,2.728C84.232,44.947,83.875,45.426,83.431,45.594z"/>
		<path fill="#009FE3" d="M53.999,53.441H8.763C5.585,53.441,3,56.027,3,59.204v1.846c0,3.177,2.585,5.763,5.763,5.763h45.236
			c3.178,0,5.763-2.586,5.763-5.763v-1.846C59.763,56.027,57.177,53.441,53.999,53.441z M56.629,61.05c0,1.45-1.18,2.63-2.63,2.63
			H8.763c-1.45,0-2.63-1.179-2.63-2.63v-1.846c0-1.45,1.18-2.63,2.63-2.63h45.236c1.45,0,2.63,1.179,2.63,2.63V61.05z"/>
		<path fill="#009FE3" d="M51.462,39.211l-4.523-8.118H31.728v6.458l-3.924,0.249v-1.736H15.227v1.491h-3.131V51.97h39.366V39.211z
			 M48.329,48.837h-33.1v-8.149h3.131v-1.491h6.31v1.942l10.191-0.647v-6.266h10.237l3.23,5.799V48.837z"/>
		<path fill="#009FE3" d="M35.903,35.338v8.849h11.096v-4.926l-2.795-3.924H35.903z M43.865,41.054h-4.829v-2.583h3.553l1.277,1.792
			V41.054z"/>
	</g>
	<path fill="#009FE3" d="M58.521,43.437l-1.039-0.912c0.173-0.197,4.218-4.772,7.509-5.415l5.073-3.455l0.777,1.144l-5.478,3.649
		C63.016,38.816,59.627,42.174,58.521,43.437z"/>
	<path fill="#009FE3" d="M100.275,51.495c-1.498-1.045-5.007-3.639-5.21-5.145c-0.057-0.418,0.097-0.707,0.238-0.875
		c0.502-0.775-0.567-6.262-2.446-8.824c-1.412-1.925-8.864-3.196-11.616-3.523l-4.106,0.464l-0.148-1.377l4.261-0.462
		c1.23,0.13,10.704,1.325,12.724,4.081c1.888,2.575,3.528,8.727,2.481,10.4c0.232,0.653,2.321,2.527,4.613,4.124L100.275,51.495z"/>
	<path fill="#009FE3" d="M116.128,45.937c-1.078-0.877-2.694-2.688-4.404-4.608c-2.141-2.4-5.717-6.411-6.706-6.411
		c-0.003,0-0.007,0-0.009,0c-2.026,0.051-12.483,1.096-12.588,1.107l-0.138-1.377c0.433-0.043,10.615-1.058,12.689-1.112
		c0.011,0,0.023,0,0.035,0c1.51,0,3.941,2.602,7.748,6.872c1.672,1.876,3.253,3.649,4.245,4.454L116.128,45.937z"/>
	<path fill="#009FE3" d="M64.69,58.675l-1.038-0.885c0.167-0.251,0.518-0.777,7.191-1.895l0.116-0.022l0.116,0.022
		c2.518,0.44,12.141-0.745,12.236-0.758l0.17,1.371c-0.398,0.049-9.647,1.188-12.519,0.767
		C68.276,57.727,65.145,58.386,64.69,58.675z"/>
	<rect x="104.458" y="37.766" fill="#009FE3" width="1.399" height="1.399"/>
	<rect x="100.671" y="40.47" fill="#009FE3" width="1.473" height="1.473"/>
	<rect x="87.067" y="36.022" fill="#009FE3" width="1.396" height="1.396"/>
	<rect x="90.27" y="41.241" fill="#009FE3" width="1.361" height="1.361"/>
	
		<rect x="60.852" y="44.296" transform="matrix(-0.9785 -0.2064 0.2064 -0.9785 112.8056 102.1195)" fill="#009FE3" width="1.756" height="1.756"/>
	<rect x="69.115" y="59.22" fill="#009FE3" width="1.382" height="3.455"/>
	<rect x="82.705" y="58.173" fill="#009FE3" width="1.382" height="3.582"/>
	<path fill="#009FE3" d="M111.353,60.818c-1.989-0.084-5.297-0.189-5.716-0.167c-0.513,0.086-1.958-0.58-4.191-1.881
		c-0.105-0.073-2.58-1.997-4.886-2.262l0.157-1.371c2.698,0.308,5.39,2.405,5.504,2.494c1.267,0.729,2.968,1.598,3.351,1.644
		c0.584-0.07,5.301,0.14,5.837,0.162L111.353,60.818z"/>
	<path fill="#009FE3" d="M95.372,62.138l-1.15-0.767c0.003-0.003,0.314-0.478,0.57-1.09c0.127-0.302,0.08-1.274-0.043-1.992
		l1.363-0.232c0.054,0.313,0.305,1.922-0.045,2.756C95.758,61.555,95.388,62.113,95.372,62.138z"/>
	<path fill="#009FE3" d="M98.252,65.15l-0.001-1.382c0.019,0,1.873-0.011,3.228-0.705c0.996-0.51,0.678-1.576,0.663-1.622l1.32-0.41
		c0.239,0.767,0.265,2.437-1.354,3.263C100.452,65.139,98.341,65.15,98.252,65.15z"/>
</g>
</svg>
