<?xml version="1.0" encoding="utf-8"?>
<!-- Generator: Adobe Illustrator 24.0.2, SVG Export Plug-In . SVG Version: 6.00 Build 0)  -->
<svg version="1.1" id="Слой_1" xmlns="http://www.w3.org/2000/svg" xmlns:xlink="http://www.w3.org/1999/xlink" x="0px" y="0px"
	 width="120px" height="54px" viewBox="0 0 120 54" enable-background="new 0 0 120 54" xml:space="preserve">
<g>
	<path fill="#009FE3" d="M91.307,27.5l4.288-6.606l1.187-0.218c0.691-0.977,1.719-2.688,2.035-4.276
		c-0.025-0.339-0.07-0.93-0.106-1.269c-0.142-1.354,0.862-3.147,2.03-3.618c1.506-0.594,3.884,0.622,5.606,1.961
		c0.03,0.022,3.013,2.532,3.511,4.87l0.048,0.221c0.2,0.92,0.406,1.873,0.121,3.158c-0.316,1.433-1.599,2.633-3.12,2.913h-0.001
		L91.307,27.5z M103.07,16.342c0.001,0.012,0.001,0.018,0.001,0.018l0.017,0.242l-0.037,0.239c-0.261,1.658-0.961,3.24-1.663,4.492
		l4.532-0.832c0.005-0.24-0.05-0.511-0.164-1.037l-0.05-0.235c-0.151-0.542-1.419-1.954-1.976-2.413
		C103.493,16.632,103.273,16.476,103.07,16.342z M106.137,20.46c-0.001,0.001-0.003,0.001-0.004,0.001L106.137,20.46z
		 M102.934,14.689c0,0.001,0.001,0.003,0.001,0.004C102.935,14.692,102.934,14.69,102.934,14.689z"/>
	<path fill="#009FE3" d="M64.265,52.32H25.873c-2.725,0-4.941-2.217-4.941-4.941v-1.551c0-2.724,2.216-4.941,4.941-4.941h38.392
		c2.725,0,4.941,2.217,4.941,4.941v1.551C69.205,50.104,66.989,52.32,64.265,52.32z M25.873,43.719c-1.164,0-2.11,0.947-2.11,2.11
		v1.551c0,1.164,0.947,2.11,2.11,2.11h38.392c1.164,0,2.11-0.947,2.11-2.11v-1.551c0-1.164-0.947-2.11-2.11-2.11H25.873z"/>
	<path fill="#009FE3" d="M67.629,39.035H56.187L74.326,1.68l11.43,2.224l19.453,9.969l-2.551,3.021L81.902,9.325l-4.029-0.65
		L67.855,31.445L67.629,39.035z M60.707,36.204h4.174l0.161-5.396L76.163,5.533l6.582,1.088l7.301,2.662l-5.4-2.767l-8.72-1.652
		L60.707,36.204z"/>
	<path fill="#009FE3" d="M56.156,39.031H24.072c-1.732,0-3.14-1.49-3.14-3.321v-5.195c0-4.19,3.146-7.6,7.014-7.6h4.832V8.826
		h18.036l5.342,10.592V39.031z M27.946,25.745c-2.307,0-4.183,2.139-4.183,4.769v5.195c0,0.276,0.167,0.491,0.31,0.491h29.254
		V20.093l-4.255-8.436H35.608v14.089H27.946z"/>
	<path fill="#009FE3" d="M51.128,25.735H37.695V13.549h10.661l2.772,5.771V25.735z M40.525,22.905h7.773v-2.941l-1.722-3.585h-6.051
		V22.905z"/>
	<polygon fill="#009FE3" points="80.58,50.905 76.335,50.905 76.335,37.136 79.813,33.659 82.814,36.66 80.58,38.894 	"/>
	
		<rect x="73.348" y="36.333" transform="matrix(0.3749 -0.9271 0.9271 0.3749 8.533 95.0671)" fill="#009FE3" width="2.83" height="9.747"/>
	<rect x="85.185" y="42.78" fill="#009FE3" width="31.815" height="1.415"/>
	<rect x="3" y="42.78" fill="#009FE3" width="13.731" height="1.415"/>
	<rect x="4.419" y="47.336" fill="#009FE3" width="1.196" height="1.196"/>
	<rect x="8.424" y="45.288" fill="#009FE3" width="1.196" height="1.196"/>
	<rect x="12.383" y="47.336" fill="#009FE3" width="1.196" height="1.196"/>
	<rect x="87.766" y="48.958" fill="#009FE3" width="1.196" height="1.196"/>
	<rect x="91.771" y="46.91" fill="#009FE3" width="1.196" height="1.196"/>
	<rect x="95.73" y="48.958" fill="#009FE3" width="1.196" height="1.196"/>
	<rect x="104.929" y="48.958" fill="#009FE3" width="1.196" height="1.196"/>
	<rect x="112.894" y="48.958" fill="#009FE3" width="1.196" height="1.196"/>
	<rect x="100.494" y="46.91" fill="#009FE3" width="1.196" height="1.196"/>
	<rect x="108.828" y="46.91" fill="#009FE3" width="1.196" height="1.196"/>
</g>
</svg>
