<?xml version="1.0" encoding="utf-8"?>
<!-- Generator: Adobe Illustrator 24.0.2, SVG Export Plug-In . SVG Version: 6.00 Build 0)  -->
<svg version="1.1" id="Слой_1" xmlns="http://www.w3.org/2000/svg" xmlns:xlink="http://www.w3.org/1999/xlink" x="0px" y="0px"
	 width="93px" height="61px" viewBox="0 0 93 61" enable-background="new 0 0 93 61" xml:space="preserve">
<g>
	<path fill="#009FE3" d="M73.837,22.288l-3.547-3.338l-5.143-5.012L62.885,14.8c-0.07-0.039-0.142-0.075-0.215-0.108
		c-0.626-0.279-1.32-0.295-1.959-0.051l-25.138,9.646H24.926c-2.801,0-5.118,2.19-5.275,4.985l-0.065,1.151l-9.052,3.474H7.303
		C4.379,33.897,2,36.277,2,39.201V50.31h3.097c0.546,4.696,4.542,8.354,9.382,8.354c4.84,0,8.837-3.659,9.382-8.354h23.112
		c0.546,4.696,4.542,8.354,9.382,8.354c5.212,0,9.451-4.24,9.451-9.451c0-4.502-3.166-8.272-7.388-9.217l0.467-1.576l-7.288-2.87
		l-10.919-1.473l-0.234-0.932l23.855-9.155c0.639-0.245,1.143-0.724,1.421-1.35c0.029-0.066,0.056-0.133,0.08-0.201l0.55-0.209
		l4.153,2.89l0.647,1.704H91l-0.003-4.537 M14.478,54.905c-3.138,0-5.692-2.554-5.692-5.692c0-3.138,2.554-5.692,5.692-5.692
		c3.139,0,5.693,2.554,5.693,5.692C20.171,52.352,17.617,54.905,14.478,54.905z M62.047,49.214c0,3.138-2.554,5.692-5.693,5.692
		s-5.693-2.554-5.693-5.692c0-3.138,2.554-5.692,5.693-5.692S62.047,46.075,62.047,49.214z M61.506,20.052l0.327,0.859L35.986,30.83
		l1.67,6.646l12.78,1.657l0.72,0.284c-2.733,1.466-4.811,4.045-5.58,7.134H25.257c-1.207-4.854-5.645-8.446-10.779-8.446
		c-3.496,0-6.67,1.666-8.72,4.263v-3.167c0-0.852,0.693-1.545,1.545-1.545h3.925L23.2,33.062l0.202-3.578
		c0.045-0.806,0.715-1.438,1.523-1.438h10.653l0.586,0.04l24.774-9.507l0.33,0.858l3.246-1.236l0.611,0.474L61.506,20.052z"/>
	<rect x="73.837" y="2.336" fill="#009FE3" width="17.163" height="16.623"/>
</g>
</svg>
