<?xml version="1.0" encoding="utf-8"?>
<!-- Generator: Adobe Illustrator 24.0.2, SVG Export Plug-In . SVG Version: 6.00 Build 0)  -->
<svg version="1.1" id="Слой_1" xmlns="http://www.w3.org/2000/svg" xmlns:xlink="http://www.w3.org/1999/xlink" x="0px" y="0px"
	 width="112px" height="60px" viewBox="0 0 112 60" enable-background="new 0 0 112 60" xml:space="preserve">
<g>
	<g>
		<line fill="#FFFFFF" x1="40.123" y1="31.567" x2="71.244" y2="31.567"/>
		<rect x="40.123" y="30" fill="#009FE3" width="31.121" height="3.137"/>
	</g>
	<g>
		<line fill="#FFFFFF" x1="71.244" y1="39.31" x2="58.678" y2="39.31"/>
		<rect x="58.678" y="37.741" fill="#009FE3" width="12.566" height="3.137"/>
	</g>
	<polygon fill="#009FE3" points="79.179,43.981 72.818,38.242 67.183,38.242 67.183,31.968 75.23,31.968 81.821,37.912 	"/>
	<path fill="#009FE3" d="M41.341,26.101c-0.296-2.166-2.147-3.781-4.333-3.781h0H25.905c-2.921,0-5.335,2.28-5.501,5.197
		l-0.068,1.201l-9.439,3.622H7.53C4.476,32.34,2,34.816,2,37.87v11.584h3.229c0.569,4.896,4.736,8.711,9.783,8.711
		c5.047,0,9.214-3.815,9.783-8.711h24.1c0.623,5.363,5.563,9.429,11.248,8.605c4.151-0.602,7.555-3.918,8.248-8.055
		c0.907-5.417-2.639-10.202-7.562-11.304l0.487-1.643l-7.6-2.993l-11.386-1.536l-0.244-0.972L41.341,26.101z M15.012,54.246
		c-3.273,0-5.935-2.663-5.935-5.935c0-3.273,2.663-5.935,5.935-5.935c3.273,0,5.936,2.663,5.936,5.935
		C20.948,51.584,18.285,54.246,15.012,54.246z M64.614,48.311c0,3.273-2.663,5.935-5.936,5.935c-3.273,0-5.936-2.663-5.936-5.935
		c0-3.273,2.663-5.935,5.936-5.935C61.951,42.376,64.614,45.039,64.614,48.311z M37.439,29.142l1.741,6.93L52.506,37.8l0.751,0.296
		c-2.85,1.528-5.017,4.218-5.818,7.439H26.251c-1.259-5.061-5.887-8.807-11.24-8.807c-3.646,0-6.955,1.738-9.092,4.445v-3.302
		c0-0.888,0.723-1.611,1.611-1.611h4.093l12.483-4.791l0.211-3.731c0.047-0.841,0.745-1.499,1.588-1.499h11.108"/>
	<rect x="78.681" y="30.298" fill="#009FE3" width="3.137" height="18.022"/>
	<rect x="80.366" y="41.313" fill="#009FE3" width="16.152" height="3.137"/>
	<path fill="#009FE3" d="M109.635,17.554L110,14.397l-1.308-0.151l-0.25,2.166l-2.058,0.333l-2.686,1.414l-0.61-0.774v-2.643
		l1.934-0.77l-0.487-1.224l-2.764,1.099v3.107l-1.5,1.181l-1.088-1.491l0.592-1.809l-1.252-0.408l-0.802,2.45l1.514,2.072
		l-1.574,1.239l-5.044,1.255v-5.455l6.086-3.916l-0.628-0.976l3.585-1.262l-0.131-0.452l1.469,0.221l0.195-1.303l-2.069-0.311
		l-0.646-2.228l-1.265,0.367l0.136,0.468l-1.29-0.578l-0.673-2.893l-1.283,0.298l0.82,3.53l2.906,1.299l0.218,0.751l-2.705,0.953
		l-0.539-0.838l-1.541,0.992l-1.834-2.437l0.915-2.143l-1.211-0.518l-0.769,1.799L90.084,6.47l-0.195,1.303l2.22,0.332l2.046,2.72
		l-5.311,3.417l-1.8-1.431l3.186-1.268l-0.487-1.224l-3.888,1.547l-0.471-0.375l-0.643-0.754l2.297-2.068L86.75,6.228l2.842-2.28
		L86.02,0.834l-0.866,0.994l2.386,2.078l-0.971,0.779L86.55,4.522l-1.308,0.154l0.408,3.472l-1.764,1.588l-1.642-1.926l-1.768,1.51
		l-2.516-1.396l-0.435-2.02c1.025-0.112,3.071-0.56,3.527-0.662l0.515-0.115V1.331h-1.317V4.07
		c-1.156,0.246-2.515,0.543-3.004,0.537l-0.176-0.819l-1.288,0.278l0.476,2.211C75.401,6,73.889,5.466,72.505,4.958l-0.453,1.238
		c1.415,0.518,3.738,1.354,4.519,1.54l0.226,1.049l3.155,1.753l2.87,3.364l4.53,3.632v9.575l-2.29-2.29l-3.444-6.152l-0.005,0.003
		c-0.006-0.489-0.017-1.077-0.04-1.846l0.761-0.859l-0.986-0.874l-1.108,1.25l0.008,0.262c0.03,0.988,0.05,2.062,0.05,2.803
		l-1.745,0.976l0.293,0.524l-2.69-0.647l-1.166-2.189l2.541-1.732l-0.453-4.316l-1.31,0.137l0.37,3.534l-1.772,1.208l-0.298-0.56h0
		c-0.001-0.002-0.002-0.004-0.004-0.007l-0.834-1.566l-1.163,0.621l0.244,0.459c-0.748-0.009-1.832,0.032-3.445,0.147l0.093,1.313
		c1.581-0.112,3.454-0.176,4.072-0.109l2.239,4.202l4.449,1.07l0.956,1.708c-0.566,0.362-1.317,0.848-2.316,1.496l0.002-0.009
		c0,0-2.551-0.4-2.748-0.434c-0.071-0.016-0.365-0.102-0.772-0.222l0.421-1.571l-1.586-2.594l-1.123,0.686l1.291,2.114l-0.265,0.988
		c-0.491-0.148-1.017-0.307-1.534-0.463l0,0l0,0c-0.486-0.147-0.961-0.291-1.373-0.417l-0.18,0.591
		c-0.557,0.105-1.307,0.255-2.4,0.486l-1.506-0.996l-0.727,1.097l1.968,1.301l0.269-0.057c1.55-0.33,3.286-0.673,3.677-0.713
		c0.706,0.214,1.386,0.42,1.97,0.594l-1.157,1.557l1.058,0.785l1.446-1.947c0.138,0.039,0.244,0.068,0.277,0.073
		c0.106,0.018,0.775,0.124,1.431,0.227l0.687,1.059c0,0,2.256-1.463,3.833-2.482l0.794,1.419l5.236,5.309v18.04l-2.962,0.86
		l-3.716,4.647l1.029,0.823l3.456-4.321l2.194-0.637v0.262l-1.472,1.159l-1.262,2.723l1.209,0.521l0.999-2.311l2.402-1.893
		l-0.125,1.562v1.878h1.317l-0.002-1.824l0.138-1.706h1.525l0.514,0.418l0.889,1.831l1.185-0.576l-0.952-1.962l-1.086-0.914
		l2.875,1.536l1.091,3.001l1.238-0.449L96.57,51.25l-3.951-2.113V37.763l4.209-3.629l2.861-0.871l3.294,0.764l0.714-0.658h2.726
		v-1.317h-1.299l0.624-0.576l-0.893-0.967l-2.252,2.078l-1.076-0.25l-0.55-1.807l1.43-0.786h3.001l2.173-3.524l-1.121-0.693
		l-1.788,2.899h-2.434l-1.516,0.771l0.242-1.486l2.765-1.236l-0.538-1.204l-3.413,1.528l-0.473,2.908l-4.208,1.281l-2.478,2.136
		v-8.063l6.625-1.648l0.496-0.391l3.681,1.469l3.885-1.056l-0.346-1.272l-3.46,0.943l-2.565-1.025l3.612-2.847l-0.025-0.032
		l0.72-0.388l1.526,1.667l2.284-0.305l-0.175-1.307l-1.601,0.216l-0.838-0.916l0.266-0.144L109.635,17.554z"/>
</g>
</svg>
