<?xml version="1.0" encoding="utf-8"?>
<!-- Generator: Adobe Illustrator 24.0.2, SVG Export Plug-In . SVG Version: 6.00 Build 0)  -->
<svg version="1.1" id="Слой_1" xmlns="http://www.w3.org/2000/svg" xmlns:xlink="http://www.w3.org/1999/xlink" x="0px" y="0px"
	 width="112px" height="39px" viewBox="0 0 112 39" enable-background="new 0 0 112 39" xml:space="preserve">
<g>
	<g>
		<line fill="#FFFFFF" x1="38.804" y1="9.862" x2="68.848" y2="9.862"/>
		<rect x="38.804" y="8.348" fill="#009FE3" width="30.044" height="3.028"/>
	</g>
	<g>
		<line fill="#FFFFFF" x1="68.848" y1="17.336" x2="56.717" y2="17.336"/>
		<rect x="56.716" y="15.822" fill="#009FE3" width="12.131" height="3.028"/>
	</g>
	<polygon fill="#009FE3" points="75.001,20.485 70.367,16.305 64.928,16.305 64.928,10.248 72.696,10.248 79.058,15.987 	"/>
	<path fill="#009FE3" d="M93.074,24.954l0.009-0.53l-0.813-0.014c0.008-0.147,0.044-0.287,0.044-0.436
		c0-0.355-0.06-0.693-0.105-1.036l0.683-0.172l-0.13-0.513l-0.607,0.153c-0.104-0.518-0.258-1.017-0.456-1.494l0.488-0.267
		l-0.254-0.465l-0.479,0.262c-0.129-0.26-0.298-0.493-0.452-0.736c0.2-0.982,0.316-2,0.316-3.05v-0.843H76.886
		c-1.329,0-2.411,1.082-2.411,2.411v9.566c0,1.329,1.082,2.411,2.411,2.411h1.876l0.092,0.098l0.105-0.098h0.455
		c0.002,0,0.005,0,0.007,0c0.321,0.253,0.645,0.5,1.004,0.703l-0.279,0.452l0.451,0.278l0.295-0.477
		c0.473,0.227,0.968,0.407,1.487,0.538l-0.221,0.785l0.51,0.144l0.226-0.805c0.466,0.085,0.941,0.145,1.43,0.145
		c0.055,0,0.106-0.015,0.16-0.016v0.931h0.53v-0.985c0.475-0.041,0.935-0.116,1.383-0.237l0.271,1.003l0.511-0.139l-0.276-1.022
		c0.417-0.143,0.813-0.32,1.195-0.527l0.539,0.948l0.461-0.262l-0.534-0.939c0.392-0.248,0.754-0.532,1.097-0.842l0.766,0.773
		l0.376-0.374l-0.75-0.756c0.352-0.364,0.67-0.758,0.948-1.183l0.914,0.541l0.27-0.456l-0.93-0.55
		c0.2-0.354,0.381-0.716,0.526-1.101l0.925,0.256l0.141-0.51l-0.909-0.252c0.129-0.429,0.221-0.868,0.277-1.323L93.074,24.954z
		 M77.403,26.907v-7.799c0-0.326,0.265-0.591,0.591-0.591h10.369c-0.305,5.011-3.914,8.98-8.308,8.98h-2.061
		C77.668,27.497,77.403,27.232,77.403,26.907z M90.757,24.385c-0.011,0.178-0.028,0.355-0.054,0.529
		c-0.048,0.326-0.123,0.639-0.218,0.947c-0.052,0.169-0.092,0.343-0.157,0.506c-0.103,0.257-0.237,0.496-0.371,0.736
		c-0.086,0.154-0.155,0.32-0.253,0.466c-0.211,0.315-0.455,0.604-0.717,0.876c-0.123,0.128-0.259,0.24-0.392,0.357
		c-0.246,0.218-0.499,0.427-0.777,0.606c-0.148,0.096-0.31,0.17-0.466,0.253c-0.272,0.146-0.55,0.275-0.844,0.381
		c-0.166,0.06-0.335,0.111-0.506,0.157c-0.321,0.087-0.65,0.142-0.989,0.179c-0.176,0.019-0.35,0.049-0.53,0.054
		c-0.055,0.001-0.105,0.016-0.16,0.016c-0.348,0-0.683-0.05-1.016-0.103c-0.177-0.028-0.35-0.06-0.522-0.102
		c-0.332-0.082-0.65-0.194-0.959-0.323c3.888-0.914,7.086-3.994,8.579-8.076c0.109,0.304,0.211,0.611,0.272,0.935
		c0.032,0.173,0.035,0.355,0.054,0.533c0.023,0.221,0.067,0.436,0.067,0.663C90.799,24.115,90.766,24.247,90.757,24.385z"/>
	<path fill="#009FE3" d="M39.98,4.584c-0.286-2.091-2.072-3.65-4.183-3.65h0H25.078c-2.82,0-5.15,2.201-5.31,5.017l-0.066,1.16
		l-9.113,3.497h-3.25C4.39,10.608,2,12.998,2,15.947V27.13h3.117c0.549,4.727,4.572,8.41,9.444,8.41c4.872,0,8.895-3.683,9.445-8.41
		h23.266c0.602,5.178,5.371,9.103,10.859,8.307c4.008-0.581,7.294-3.783,7.963-7.777c0.876-5.229-2.548-9.849-7.3-10.913l0.47-1.586
		l-7.337-2.89l-10.992-1.483L40.7,9.85L39.98,4.584z M14.561,31.756c-3.159,0-5.73-2.571-5.73-5.73s2.571-5.73,5.73-5.73
		c3.16,0,5.73,2.571,5.73,5.73S17.721,31.756,14.561,31.756z M62.447,26.026c0,3.159-2.571,5.73-5.73,5.73s-5.73-2.571-5.73-5.73
		s2.571-5.73,5.73-5.73S62.447,22.867,62.447,26.026z M36.213,7.52l1.681,6.691l12.865,1.668l0.725,0.286
		c-2.751,1.476-4.843,4.072-5.617,7.182H25.412c-1.215-4.886-5.683-8.502-10.851-8.502c-3.52,0-6.714,1.678-8.778,4.291v-3.188
		c0-0.857,0.698-1.556,1.555-1.556h3.951l12.051-4.625l0.204-3.601c0.046-0.812,0.719-1.447,1.533-1.447h10.724"/>
	<rect x="97.782" y="33.128" fill="#009FE3" width="1.28" height="1.28"/>
	<rect x="103.388" y="33.128" fill="#009FE3" width="1.28" height="1.28"/>
	<rect x="106.046" y="35.786" fill="#009FE3" width="1.28" height="1.28"/>
	<rect x="108.72" y="33.768" fill="#009FE3" width="1.28" height="1.28"/>
	<rect x="108.382" y="30.792" fill="#009FE3" width="1.28" height="1.28"/>
	<rect x="92.889" y="31.116" fill="#009FE3" width="1.28" height="1.28"/>
	<rect x="90.799" y="34.14" fill="#009FE3" width="1.28" height="1.28"/>
	<rect x="85.673" y="35.42" fill="#009FE3" width="1.28" height="1.28"/>
	<rect x="100.893" y="35.572" fill="#009FE3" width="1.28" height="1.28"/>
	<rect x="96.648" y="29.809" fill="#009FE3" width="1.28" height="1.28"/>
	<rect x="101.533" y="29.809" fill="#009FE3" width="1.28" height="1.28"/>
	<rect x="95.044" y="35.42" fill="#009FE3" width="1.28" height="1.28"/>
</g>
</svg>
