<?xml version="1.0" encoding="utf-8"?>
<!-- Generator: Adobe Illustrator 22.0.1, SVG Export Plug-In . SVG Version: 6.00 Build 0)  -->
<svg version="1.1" id="Слой_1" xmlns="http://www.w3.org/2000/svg" xmlns:xlink="http://www.w3.org/1999/xlink" x="0px" y="0px"
	 width="299px" height="70px" viewBox="0 0 299 70" style="enable-background:new 0 0 299 70;" xml:space="preserve">
<style type="text/css">
	.st0{fill:#0070BA;}
</style>
<g>
	<path class="st0" d="M260,31.4c2.6-3.8,6.6-6.4,11.1-7.7c-6.5,0.1-12.7,3.2-16.3,8.5c-0.8,2.8-1.1,5.7-1,8.4
		c0.4,6.8,2.6,12.1,6.9,16.2c-1-1.4-1.8-2.9-2.4-4.6C255.5,44.4,256.1,37,260,31.4z"/>
	<path class="st0" d="M246.8,14.2c7.9-9.3,20.2-12.6,28.4-12.6c1.4,0,2.7,0.1,3.9,0.3c-0.8-0.3-1.7-0.6-2.6-0.8
		c-20.4-5.3-42.6,10.5-40.9,33.6c0.9,12.9,6.8,20.9,12.6,25.7c-3.9-4.4-6.7-10.5-8.1-18.9C238.5,30.7,240.7,21.3,246.8,14.2z"/>
	<path class="st0" d="M282.3,4c-1.9-0.7-4.4-1-7.1-1c-7.8,0-19.7,3.2-27.3,12.1c-5.8,6.9-8,15.7-6.3,26.2
		c4,25.2,22.3,28.7,41.4,28.7h0c1.9,0,5.4-0.3,9-0.7c-1.8-0.2-5.2-0.5-10.2-1c-5-0.6-10.7-2.3-15.3-5.6
		c-8.9-4.7-13.5-11.9-14.1-21.9c-0.6-10.3,4.9-23.3,22-26.1c1.2-0.2,2.3-0.3,3.5-0.3c10.8,0,18,8.4,21.1,13.1
		C297.9,21.2,294.2,8.1,282.3,4z"/>
	<path class="st0" d="M269.1,32.7c3-2.1,6.6-3.2,10.4-3.2c4.3,0,7.8,1.4,9.4,2.6c1.8,1.2,3.3,3.6,4.3,5.5
		c-0.3-4.1-2.3-11.2-12.8-12.9c-1.1-0.2-2.2-0.3-3.4-0.3c-6.5,0-12.5,3-15.9,7.9c-3.6,5.2-4.1,12.1-1.5,19.4
		c3.5,9.7,13.8,14.1,22.3,15.1c0.1,0,0.3,0,0.4,0.1c-5.2-1.8-10.9-4.7-14.2-9.5C260.9,46.8,263.2,36.7,269.1,32.7z"/>
	<polygon class="st0" points="6.7,15.3 17,15.3 17,40.6 23.7,40.6 23.7,9.5 0,9.5 0,40.6 6.7,40.6 	"/>
	<path class="st0" d="M36.2,32.6h8.4l2.3,8H54L44.9,9.5h-8.7l-9,31.1h6.9L36.2,32.6z M38.9,20.7c0.5-1.8,0.9-4.1,1.4-6h0.1
		c0.4,1.9,1,4.2,1.5,6l1.8,6.6h-6.5L38.9,20.7z"/>
	<rect x="82.7" y="22.6" class="st0" width="11.4" height="4.7"/>
	<polygon class="st0" points="103.9,40.6 110.5,40.6 110.5,15.4 118.5,15.4 118.5,9.5 96,9.5 96,15.4 103.9,15.4 	"/>
	<path class="st0" d="M128.6,29.5c0.6,0.1,1.4,0.1,2.3,0.1c3.9,0,7.3-1,9.5-3.3c1.7-1.7,2.7-4.3,2.7-7.4c0-3-1.3-5.6-3.1-7.2
		c-1.9-1.7-4.9-2.5-8.9-2.5c-4,0-6.9,0.3-9,0.6v30.7h6.6V29.5z M128.6,14.8c0.5-0.1,1.4-0.3,2.7-0.3c3.3,0,5.2,1.7,5.2,4.6
		c0,3.2-2.2,5.1-5.7,5.1c-1,0-1.6,0-2.2-0.2V14.8z"/>
	<polygon class="st0" points="166,34.8 153.9,34.8 153.9,27.4 164.7,27.4 164.7,21.7 153.9,21.7 153.9,15.3 165.4,15.3 165.4,9.5 
		147.3,9.5 147.3,40.6 166,40.6 	"/>
	<path class="st0" d="M182.5,8.1c3.9,0,6.3-1.8,6.6-5.7h-4.4c-0.2,1.8-0.7,2.9-2,2.9c-1.4,0-1.9-1.1-1.9-2.9h-4.5
		C176.5,6.2,178.7,8.1,182.5,8.1z"/>
	<path class="st0" d="M184,29.4c1.7-3.3,3.6-7.4,5-11.1h0.1c-0.4,4.1-0.5,8.3-0.5,13.1v9.2h6.1V9.5h-6.8l-6.3,12.2
		c-1.7,3.3-3.7,7.4-5.2,11.1h-0.2c0.3-4.2,0.3-9.1,0.3-14.1V9.5h-6.1v31.1h7.6L184,29.4z"/>
	<path class="st0" d="M203.6,46.1l0.2-5.5H221l0.2,5.5h5.2l0.3-10.8l-2.9-0.2V9.5h-19.2v8.3c0,3.8-0.3,7.2-1.2,10.3
		c-0.7,2.5-1.6,4.7-2.8,6.9l-2.4,0.2l0.2,10.8H203.6z M209.4,29.6c0.9-3.1,1.3-6.6,1.3-10.2v-4.2h6.4v19.7h-9.7
		C208.1,33.4,208.9,31.5,209.4,29.6z"/>
	<path class="st0" d="M64.4,30.5l2.4-3.3L74,40.6h7.6L71.6,22.8l9.6-13.2h-8.1l-6.5,10.3c-0.7,1.1-1.4,2.2-2,3.4h-0.1V9.6h-6.5v31
		h6.5V30.5z"/>
	<rect x="0.6" y="49.1" class="st0" width="226.2" height="17.3"/>
</g>
</svg>
