<?xml version="1.0" encoding="utf-8"?>
<!-- Generator: Adobe Illustrator 22.0.1, SVG Export Plug-In . SVG Version: 6.00 Build 0)  -->
<svg version="1.1" id="Слой_1" xmlns="http://www.w3.org/2000/svg" xmlns:xlink="http://www.w3.org/1999/xlink" x="0px" y="0px"
	 width="187.7px" height="97.7px" viewBox="0 0 187.7 97.7" style="enable-background:new 0 0 187.7 97.7;" xml:space="preserve">
<style type="text/css">
	.st0{fill:#333333;}
	.st1{fill:#009FE3;}
	.st2{fill:#0070BA;}
	.st3{fill:#0071BA;}
</style>
<path class="st0" d="M14.8,13.6l-3.7-3.7C12,8.8,12.6,7.4,12.6,6c0-3.3-2.9-6-6.3-6S0,2.7,0,6.1s2.8,6.1,6.3,6.1
	c1.3,0,2.5-0.4,3.6-1.1l3.7,3.7c0.1,0.1,0.4,0.2,0.6,0.2c0.2,0,0.4-0.1,0.5-0.2C15.1,14.5,15.1,13.9,14.8,13.6L14.8,13.6z M6.3,1.6
	c2.6,0,4.6,2,4.6,4.5s-2.1,4.5-4.6,4.5s-4.6-2-4.6-4.5S3.7,1.6,6.3,1.6L6.3,1.6z"/>
<path class="st1" d="M32.8,13.7L29.1,10c0.9-1.1,1.5-2.5,1.5-3.9c0-3.3-2.8-6.1-6.3-6.1S18,2.8,18,6.2s2.8,6.1,6.3,6.1
	c1.3,0,2.5-0.4,3.6-1.1l3.7,3.7c0.1,0.1,0.4,0.2,0.6,0.2s0.4-0.1,0.5-0.2C33.1,14.6,33.1,14,32.8,13.7L32.8,13.7z M24.3,1.7
	c2.6,0,4.6,2,4.6,4.5s-2.1,4.5-4.6,4.5s-4.6-2-4.6-4.5S21.7,1.7,24.3,1.7L24.3,1.7z"/>
<g>
	<path class="st0" d="M36,2.5c0-0.7,0.2-1.3,0.7-1.8S37.8,0,38.6,0s1.4,0.2,1.9,0.7s0.7,1.1,0.7,1.9v0.6c0,0.7-0.2,1.3-0.7,1.8
		s-1.1,0.7-1.9,0.7c-0.8,0-1.4-0.2-1.9-0.7C36.3,4.5,36,3.9,36,3.1V2.5z M37.6,3.1c0,0.3,0.1,0.6,0.3,0.8s0.4,0.3,0.8,0.3
		s0.6-0.1,0.7-0.3s0.3-0.5,0.3-0.8V2.5c0-0.3-0.1-0.6-0.3-0.8S39,1.4,38.6,1.4c-0.3,0-0.6,0.1-0.7,0.3c-0.2,0.2-0.3,0.5-0.3,0.8V3.1
		z M39.1,11.4l-1.2-0.6l5.9-9.4L45,1.9L39.1,11.4z M41.8,9.3c0-0.7,0.2-1.3,0.7-1.8s1.1-0.7,1.9-0.7c0.8,0,1.4,0.2,1.9,0.7
		C46.8,7.9,47,8.6,47,9.3v0.6c0,0.7-0.2,1.3-0.7,1.8s-1.1,0.7-1.9,0.7c-0.8,0-1.4-0.2-1.9-0.7s-0.7-1.1-0.7-1.8
		C41.8,9.9,41.8,9.3,41.8,9.3z M43.4,9.9c0,0.3,0.1,0.6,0.3,0.8s0.4,0.3,0.7,0.3c0.7,0,1-0.4,1-1.1V9.3c0-0.3-0.1-0.6-0.3-0.8
		s-0.4-0.3-0.7-0.3s-0.6,0.1-0.7,0.3c-0.2,0.2-0.3,0.5-0.3,0.8V9.9z"/>
</g>
<rect x="50" class="st2" width="16" height="2"/>
<rect x="50" y="5" class="st2" width="16" height="2"/>
<rect x="50" y="10" class="st2" width="16" height="2"/>
<g>
	<path class="st2" d="M69,2.5c0-0.7,0.2-1.3,0.7-1.8s1.2-0.7,2-0.7s1.4,0.2,1.9,0.7s0.7,1.1,0.7,1.9v0.6c0,0.7-0.2,1.3-0.7,1.8
		s-1.1,0.7-1.9,0.7S70.3,5.5,69.8,5S69,3.9,69,3.1V2.5z M70.6,3.1c0,0.3,0.1,0.6,0.3,0.8c0.2,0.2,0.4,0.3,0.8,0.3s0.6-0.1,0.7-0.3
		s0.3-0.5,0.3-0.8V2.5c0-0.3-0.1-0.6-0.3-0.8S72,1.4,71.7,1.4S71.1,1.5,71,1.7c-0.2,0.2-0.3,0.5-0.3,0.8L70.6,3.1L70.6,3.1z
		 M72.2,11.4L71,10.7l5.9-9.4l1.2,0.6L72.2,11.4z M74.8,9.3c0-0.7,0.2-1.3,0.7-1.8s1.2-0.7,1.9-0.7c0.8,0,1.4,0.2,1.9,0.7
		S80,8.6,80,9.4V10c0,0.7-0.2,1.3-0.7,1.8s-1.1,0.7-1.9,0.7s-1.4-0.2-1.9-0.7s-0.7-1.1-0.7-1.8V9.3z M76.4,9.9
		c0,0.3,0.1,0.6,0.3,0.8s0.4,0.3,0.7,0.3c0.7,0,1-0.4,1-1.1V9.3c0-0.3-0.1-0.6-0.3-0.8c-0.2-0.2-0.4-0.3-0.7-0.3s-0.6,0.1-0.7,0.3
		c-0.2,0.2-0.3,0.5-0.3,0.8V9.9z"/>
</g>
<rect x="83.1" class="st1" width="16" height="2"/>
<rect x="83.1" y="5" class="st1" width="16" height="2"/>
<rect x="83.1" y="10" class="st1" width="16" height="2"/>
<g>
	<path class="st3" d="M40,38.2c0-11-9-20-20-20s-20,9-20,20s9,20,20,20S40,49.2,40,38.2z M1.8,38.2C1.8,28.2,10,20,20,20
		s18.2,8.1,18.2,18.2S30,56.4,20,56.4S1.8,48.2,1.8,38.2z"/>
	<path class="st3" d="M21,50.5h-3.7c-0.6,0-1.1-0.5-1.1-1.1V41H14c-0.6,0-1.1-0.5-1.1-1.1v-3.6c0-0.6,0.5-1.1,1.1-1.1h2.2v-1.8
		c0-1.8,0.6-3.3,1.6-4.4c1.1-1.1,2.5-1.7,4.3-1.7h2.8c0.6,0,1.1,0.5,1.1,1.1v3.3c0,0.6-0.5,1.1-1.1,1.1L23,33
		c-0.6,0-0.7,0.1-0.8,0.2c-0.1,0.1-0.1,0.2-0.1,0.7v1.4h2.6c0.2,0,0.4,0,0.6,0.1c0.4,0.2,0.6,0.6,0.6,1V40c0,0.6-0.5,1.1-1.1,1.1
		h-2.6v8.3C22.1,50,21.6,50.5,21,50.5z M17.5,49.2h3.2v-8.7c0-0.4,0.3-0.7,0.7-0.7h3v-3.1h-3c-0.4,0-0.7-0.3-0.7-0.7v-2
		c0-0.5,0.1-1.1,0.5-1.6c0.5-0.5,1.2-0.6,1.8-0.6h1.7v-2.9h-2.6c-2.8,0-4.5,1.8-4.5,4.7V36c0,0.4-0.3,0.7-0.7,0.7h-2.5v3.1h2.5
		c0.4,0,0.7,0.3,0.7,0.7v8.7H17.5z M24.9,28.8L24.9,28.8L24.9,28.8z"/>
</g>
<g>
	<path class="st3" d="M83,38.2c0-11-9-20-20-20s-20,9-20,20s9,20,20,20S83,49.2,83,38.2z M44.8,38.2C44.8,28.2,53,20,63,20
		s18.2,8.1,18.2,18.2S73,56.4,63,56.4S44.8,48.2,44.8,38.2z"/>
	<g>
		<path class="st3" d="M70.5,43.3c0-0.2,0-0.3-0.1-0.4c-0.1-0.1-0.2-0.1-0.4-0.1c-0.2,0-0.3,0-0.4,0.1s-0.1,0.2-0.1,0.4v0.5h1.1
			L70.5,43.3L70.5,43.3z"/>
		<path class="st3" d="M64.9,43h-0.3l-0.3,0.1V46c0.1,0.1,0.2,0.1,0.3,0.2h0.3c0.2,0,0.3,0,0.4-0.1s0.1-0.2,0.1-0.3v-2.4
			c0-0.2,0-0.3-0.1-0.4C65.2,43,65,43,64.9,43z"/>
		<polygon class="st3" points="57.3,35.7 58.8,35.7 58.8,32.1 60.5,27 59,27 58.1,30.5 58,30.5 57,27 55.5,27 57.3,32.2 		"/>
		<path class="st3" d="M62.5,35.7c0.6,0,1.1-0.2,1.5-0.5s0.5-0.7,0.5-1.2v-3c0-0.4-0.2-0.8-0.5-1.1c-0.4-0.3-0.8-0.4-1.4-0.4
			c-0.6,0-1.1,0.1-1.5,0.4s-0.6,0.6-0.6,1.1v3c0,0.5,0.2,0.9,0.5,1.2C61.4,35.5,61.9,35.7,62.5,35.7z M61.9,31.1
			c0-0.1,0.1-0.2,0.2-0.3c0.1-0.1,0.3-0.1,0.5-0.1s0.4,0,0.5,0.1s0.2,0.2,0.2,0.3V34c0,0.1-0.1,0.3-0.2,0.3
			c-0.1,0.1-0.3,0.1-0.5,0.1s-0.4,0-0.5-0.1s-0.2-0.2-0.2-0.3V31.1z"/>
		<path class="st3" d="M66.7,35.7c0.2,0,0.4-0.1,0.7-0.3c0.2-0.1,0.5-0.3,0.7-0.6v0.7h1.2v-6.1h-1.2V34c-0.1,0.1-0.2,0.2-0.4,0.3
			c-0.1,0.1-0.2,0.1-0.3,0.1c-0.1,0-0.2,0-0.2-0.1s-0.1-0.2-0.1-0.3v-4.7h-1.2v5.1c0,0.4,0.1,0.6,0.2,0.8
			C66.2,35.5,66.4,35.7,66.7,35.7z"/>
		<path class="st3" d="M70.1,38.2H55.9c-2.3,0-4.1,1.8-4.1,3.9v3.3c0,2.2,1.8,3.9,4.1,3.9h14.3c2.3,0,4.1-1.8,4.1-3.9v-3.3
			C74.2,40,72.4,38.2,70.1,38.2z M58,41.6h-1.3v5.2h-1.2v-5.2h-1.3v-0.9H58V41.6z M61.8,46.9h-1.3v-0.5c-0.2,0.2-0.5,0.4-0.8,0.5
			s-0.5,0.2-0.8,0.2s-0.5-0.1-0.7-0.2S58,46.5,58,46.2V42h1.3v3.8c0,0.1,0,0.2,0.1,0.3s0.1,0.1,0.3,0.1c0.1,0,0.2,0,0.4-0.1
			c0.1-0.1,0.3-0.2,0.4-0.3V42h1.3V46.9z M66.7,46c0,0.3-0.1,0.6-0.3,0.7c-0.2,0.2-0.5,0.3-0.9,0.3c-0.3,0-0.5,0-0.7-0.1
			s-0.4-0.2-0.6-0.3v0.3H63v-6.2h1.3v2c0.2-0.1,0.4-0.2,0.6-0.3s0.4-0.1,0.6-0.1c0.4,0,0.7,0.1,0.9,0.3c0.2,0.2,0.3,0.5,0.3,0.9
			C66.7,43.5,66.7,46,66.7,46z M71.7,45.5c0,0.5-0.2,0.9-0.5,1.1c-0.3,0.2-0.8,0.4-1.4,0.4s-1-0.1-1.3-0.4C68.2,46.3,68,46,68,45.5
			v-2.1c0-0.4,0.2-0.7,0.5-1c0.4-0.3,0.8-0.4,1.4-0.4s1,0.1,1.3,0.4c0.3,0.2,0.5,0.6,0.5,1v1.2h-2.4v0.9c0,0.2,0,0.4,0.1,0.5
			s0.2,0.1,0.4,0.1c0.2,0,0.4,0,0.4-0.1c0.1-0.1,0.1-0.3,0.1-0.5v-0.2h1.3L71.7,45.5L71.7,45.5z"/>
	</g>
</g>
<path class="st1" d="M106,18.2c-11,0-20,9-20,20s9,20,20,20s20-9,20-20S117,18.2,106,18.2z M110.7,31.8H109c-0.6,0-1.3,0.1-1.8,0.6
	c-0.4,0.5-0.5,1.1-0.5,1.6v2c0,0.4,0.3,0.7,0.7,0.7h3v3.1h-3c-0.4,0-0.7,0.3-0.7,0.7v8.7h-3.1v-8.7c0-0.4-0.3-0.7-0.7-0.7h-2.5v-3.1
	h2.5c0.4,0,0.7-0.3,0.7-0.7v-2.4c0-2.9,1.7-4.7,4.5-4.7h2.6V31.8z"/>
<polygon class="st1" points="144,40.7 140.2,40.7 140.2,41.6 141.5,41.6 141.5,46.8 142.7,46.8 142.7,41.6 144,41.6 "/>
<path class="st1" d="M146.5,45.8c-0.1,0.1-0.3,0.2-0.4,0.3c-0.2,0.1-0.3,0.1-0.4,0.1c-0.2,0-0.2,0-0.3-0.1s-0.1-0.2-0.1-0.3V42H144
	v4.2c0,0.3,0,0.6,0.2,0.7s0.4,0.2,0.7,0.2s0.5-0.1,0.8-0.2s0.6-0.3,0.8-0.5v0.5h1.3V42h-1.3V45.8z"/>
<path class="st1" d="M151.5,42.3c-0.2,0-0.4,0-0.6,0.1c-0.2,0.1-0.4,0.2-0.6,0.3v-2H149v6.2h1.2v-0.3c0.2,0.1,0.4,0.2,0.6,0.3
	s0.4,0.1,0.7,0.1c0.4,0,0.7-0.1,0.9-0.3c0.2-0.1,0.3-0.4,0.3-0.7v-2.5c0-0.4-0.1-0.7-0.3-0.9C152.2,42.4,151.9,42.3,151.5,42.3z
	 M151.4,45.8c0,0.1,0,0.2-0.1,0.3s-0.2,0.1-0.4,0.1h-0.3c-0.1-0.1-0.2-0.1-0.3-0.2v-2.9l0.3-0.1h0.3c0.1,0,0.3,0,0.4,0
	c0.1,0.1,0.1,0.2,0.1,0.4V45.8z"/>
<path class="st1" d="M149,18.2c-11,0-20,9-20,20s9,20,20,20s20-9,20-20S160,18.2,149,18.2z M151.9,29.3h1.2V34
	c0,0.1,0.1,0.2,0.1,0.3s0.1,0.1,0.2,0.1c0.1,0,0.2,0,0.3-0.1c0.2-0.1,0.3-0.2,0.4-0.3v-4.6h1.2v6.1h-1.2v-0.7
	c-0.2,0.3-0.5,0.5-0.7,0.6c-0.3,0.2-0.5,0.3-0.7,0.3c-0.3,0-0.5-0.2-0.6-0.5c-0.1-0.2-0.2-0.4-0.2-0.8V29.3z M147.1,29.9
	c0.4-0.3,0.9-0.4,1.5-0.4s1,0.1,1.4,0.4c0.3,0.3,0.5,0.7,0.5,1.1v3c0,0.5-0.1,0.9-0.5,1.2s-0.9,0.5-1.5,0.5s-1.1-0.2-1.5-0.5
	c-0.3-0.3-0.5-0.7-0.5-1.2v-3C146.5,30.5,146.7,30.2,147.1,29.9z M143,27l1,3.5h0.1L145,27h1.5l-1.7,5.1v3.6h-1.5v-3.5l-1.8-5.2
	C141.5,27,143,27,143,27z M160.3,45.4c0,2.1-1.8,3.9-4.1,3.9h-14.3c-2.3,0-4.1-1.7-4.1-3.9v-3.3c0-2.1,1.8-3.9,4.1-3.9h14.2
	c2.3,0,4.1,1.8,4.2,3.9L160.3,45.4L160.3,45.4z"/>
<path class="st1" d="M157.2,42.4c-0.3-0.3-0.7-0.4-1.3-0.4s-1,0.1-1.4,0.4c-0.3,0.3-0.5,0.6-0.5,1v2.1c0,0.5,0.2,0.8,0.5,1.1
	s0.7,0.4,1.3,0.4s1.1-0.2,1.4-0.4s0.5-0.6,0.5-1.1h-0.1v-0.2h-1.3v0.2c0,0.2,0,0.4-0.1,0.5c0,0.1-0.2,0.1-0.4,0.1s-0.3,0-0.4-0.1
	c-0.1-0.1-0.1-0.3-0.1-0.5v-0.9h2.4v-1.2C157.7,43,157.5,42.6,157.2,42.4z M156.6,43.8h-1.1v-0.5c0-0.2,0-0.3,0.1-0.4
	c0.1-0.1,0.2-0.1,0.4-0.1s0.3,0,0.4,0.1c0.1,0.1,0.1,0.2,0.1,0.4h0.1V43.8z"/>
<path class="st1" d="M148.6,34.4c0.2,0,0.4,0,0.5-0.1c0.1,0,0.2-0.2,0.2-0.3v-2.9c0-0.1-0.1-0.2-0.2-0.3c-0.1-0.1-0.3-0.1-0.5-0.1
	s-0.4,0-0.5,0.1s-0.2,0.2-0.2,0.3V34c0,0.1,0.1,0.2,0.2,0.3C148.2,34.4,148.4,34.4,148.6,34.4z"/>
<g>
	<path class="st2" d="M114.1,5.7c0-3.2-2.7-5.7-6-5.7s-6,2.6-6,5.7c0,1.3,0.6,2.3,1.1,3.4c0.9,1.8,2.7,4.7,3.6,6.2
		c0.2,0.4,0.8,0.7,1.4,0.7s1.1-0.3,1.4-0.7c0.9-1.5,2.4-4,3.5-6.2C113.5,8,114.1,7,114.1,5.7L114.1,5.7z M108.1,3.9
		c1.1,0,2,0.8,2,1.9c0,1-0.9,1.9-2,1.9s-2-0.8-2-1.9S107,3.9,108.1,3.9L108.1,3.9z"/>
</g>
<g>
	<path class="st2" d="M148.3,2.8c0.2,0.1,0.6,0.4,1.4,0.9c0.8,0.5,1.3,0.9,1.8,1.2c0,0,0.1,0.1,0.3,0.2c0.1,0.1,0.3,0.2,0.4,0.2
		c0.1,0.1,0.2,0.1,0.3,0.2s0.3,0.1,0.4,0.2c0.1,0,0.2,0.1,0.3,0.1l0,0c0.1,0,0.2,0,0.3-0.1c0.1,0,0.2-0.1,0.4-0.2
		c0.1-0.1,0.3-0.1,0.3-0.2c0.1-0.1,0.2-0.1,0.4-0.2c0.1-0.1,0.2-0.2,0.3-0.2c0.4-0.3,1.5-1,3.1-2.1c0.3-0.2,0.6-0.5,0.8-0.8
		s0.3-0.6,0.3-1c0-0.3-0.1-0.5-0.3-0.7C158.6,0.1,158.3,0,158,0h-9.9c-0.3,0-0.6,0.1-0.8,0.3S147,0.8,147,1.1s0.1,0.6,0.4,0.9
		C147.7,2.3,148,2.6,148.3,2.8L148.3,2.8z"/>
	<path class="st2" d="M158.4,3.5c-1.5,0.9-2.6,1.7-3.3,2.2c-0.3,0.2-0.5,0.3-0.6,0.4c-0.2,0.1-0.4,0.2-0.6,0.3
		c-0.3,0.1-0.5,0.2-0.7,0.2l0,0c-0.2,0-0.5-0.1-0.7-0.2c-0.3-0.1-0.5-0.2-0.6-0.3c-0.2-0.1-0.4-0.2-0.6-0.4
		c-0.6-0.4-1.7-1.2-3.3-2.2c-0.3-0.2-0.5-0.3-0.7-0.6V8c0,0.3,0.1,0.5,0.3,0.7s0.5,0.3,0.8,0.3h9.9c0.3,0,0.5-0.1,0.8-0.3
		c0.2-0.2,0.3-0.4,0.3-0.7V2.9C158.9,3.1,158.7,3.3,158.4,3.5L158.4,3.5z"/>
</g>
<g>
	<path class="st2" d="M138.1,0c-3.3,0-6,2.7-6,6s2.7,6,6,6s6-2.7,6-6S141.4,0,138.1,0L138.1,0z M138.1,10.2c-2.3,0-4.2-1.9-4.2-4.2
		s1.9-4.2,4.2-4.2s4.2,1.9,4.2,4.2S140.4,10.2,138.1,10.2L138.1,10.2z"/>
	<path class="st2" d="M141,6h-2.4V3c0-0.2-0.2-0.4-0.4-0.4s-0.4,0.2-0.4,0.4v3.4c0,0.2,0.2,0.4,0.4,0.4h2.9c0.2,0,0.4-0.2,0.4-0.4
		C141.4,6.2,141.2,6,141,6L141,6z"/>
</g>
<path class="st2" d="M129.1,9.5c0,0.2,0,0.4-0.2,0.5l-1.7,1.7c-0.1,0.1-0.2,0.2-0.3,0.2c-0.1,0.1-0.2,0.1-0.4,0.1c0,0,0,0-0.1,0
	c0,0-0.1,0-0.2,0c-0.2,0-0.4,0-0.8-0.1s-0.8-0.2-1.3-0.4s-1.1-0.5-1.8-1c-0.7-0.4-1.4-1-2.1-1.8c-0.6-0.6-1.1-1.1-1.5-1.7
	c-0.4-0.5-0.7-1-0.9-1.5c-0.2-0.5-0.4-0.9-0.5-1.2c-0.1-0.4-0.2-0.7-0.2-1S117,2.8,117,2.7c0-0.2,0-0.2,0-0.3s0.1-0.2,0.1-0.4
	c0.1-0.1,0.1-0.2,0.2-0.3L119,0c0.1-0.1,0.3-0.2,0.4-0.2s0.2,0,0.3,0.1c0.1,0.1,0.2,0.1,0.2,0.2l1.4,2.6c0.1,0.1,0.1,0.3,0.1,0.4
	c0,0.2-0.1,0.3-0.2,0.4l-0.6,0.6c0,0,0,0,0,0.1v0.1c0,0.2,0.1,0.4,0.2,0.6s0.3,0.5,0.5,0.7c0.2,0.3,0.5,0.6,0.9,1s0.7,0.7,1,0.9
	c0.3,0.2,0.5,0.4,0.7,0.5s0.4,0.2,0.5,0.2h0.2c0,0,0,0,0.1,0h0.1l0.7-0.7c0.2-0.1,0.3-0.2,0.5-0.2c0.1,0,0.3,0,0.3,0.1l0,0l2.5,1.4
	C129,9.2,129.1,9.3,129.1,9.5L129.1,9.5z"/>
<rect x="-18" width="3" height="61.2"/>
<path d="M21.2,61.5c-0.4-0.4-1.1-0.4-1.6,0c-0.4,0.4-0.4,1.1,0,1.6l8,8H1.1c-0.6,0-1.1,0.5-1.1,1.1s0.5,1.1,1.1,1.1h26.6l-8,8
	c-0.4,0.4-0.4,1.2,0,1.6c0.4,0.4,1.2,0.4,1.6,0l10-10c0.4-0.4,0.4-1.1,0-1.6L21.2,61.5z"/>
</svg>
