<?xml version="1.0" encoding="utf-8"?>
<!-- Generator: Adobe Illustrator 22.0.1, SVG Export Plug-In . SVG Version: 6.00 Build 0)  -->
<svg version="1.1" id="Слой_1" xmlns="http://www.w3.org/2000/svg" xmlns:xlink="http://www.w3.org/1999/xlink" x="0px" y="0px"
	 width="53px" height="27px" viewBox="0 0 53 27" style="enable-background:new 0 0 53 27;" xml:space="preserve">
<style type="text/css">
	.st0{fill:#2DABE3;}
</style>
<g>
	<path class="st0" d="M26.5,0C12.093,0,0.372,11.721,0.372,26.128c0,0.48,0.391,0.872,0.872,0.872c0.48,0,0.872-0.392,0.872-0.872
		c0-13.447,10.937-24.384,24.384-24.384c13.447,0,24.384,10.937,24.384,24.384c0,0.48,0.392,0.872,0.872,0.872
		c0.481,0,0.872-0.392,0.872-0.872C52.628,11.721,40.907,0,26.5,0L26.5,0z M26.5,0"/>
	<path class="st0" d="M26.5,5.316c-11.473,0-20.812,9.339-20.812,20.812C5.688,26.608,6.079,27,6.56,27
		c0.48,0,0.871-0.392,0.871-0.872c0-10.517,8.553-19.069,19.069-19.069s19.069,8.553,19.069,19.069c0,0.48,0.391,0.872,0.871,0.872
		c0.481,0,0.872-0.392,0.872-0.872C47.312,14.655,37.973,5.316,26.5,5.316L26.5,5.316z M26.5,5.316"/>
	<path class="st0" d="M26.5,10.636c-8.544,0-15.492,6.948-15.492,15.492c0,0.48,0.386,0.872,0.871,0.872
		c0.481,0,0.868-0.392,0.868-0.872c0-7.583,6.171-13.753,13.753-13.753c7.583,0,13.753,6.171,13.753,13.753
		c0,0.48,0.387,0.872,0.868,0.872c0.484,0,0.871-0.392,0.871-0.872C41.992,17.584,35.044,10.636,26.5,10.636L26.5,10.636z
		 M26.5,10.636"/>
	<path class="st0" d="M26.5,15.951c-5.613,0-10.177,4.568-10.177,10.177c0,0.48,0.388,0.872,0.872,0.872
		c0.481,0,0.872-0.392,0.872-0.872c0-4.652,3.781-8.433,8.433-8.433s8.433,3.781,8.433,8.433c0,0.48,0.391,0.872,0.872,0.872
		c0.484,0,0.872-0.392,0.872-0.872C36.677,20.519,32.113,15.951,26.5,15.951L26.5,15.951z M26.5,15.951"/>
	<path class="st0" d="M26.5,21.267c-2.679,0-4.861,2.182-4.861,4.861c0,0.48,0.392,0.872,0.872,0.872
		c0.48,0,0.872-0.392,0.872-0.872c0-1.718,1.399-3.117,3.117-3.117c1.718,0,3.117,1.399,3.117,3.117c0,0.48,0.392,0.872,0.872,0.872
		c0.48,0,0.872-0.392,0.872-0.872C31.361,23.449,29.179,21.267,26.5,21.267L26.5,21.267z M26.5,21.267"/>
</g>
<g>
</g>
<g>
</g>
<g>
</g>
<g>
</g>
<g>
</g>
<g>
</g>
</svg>
