<?xml version="1.0" encoding="utf-8"?>
<!-- Generator: Adobe Illustrator 22.0.1, SVG Export Plug-In . SVG Version: 6.00 Build 0)  -->
<svg version="1.1" id="Слой_1" xmlns="http://www.w3.org/2000/svg" xmlns:xlink="http://www.w3.org/1999/xlink" x="0px" y="0px"
	 width="129px" height="97px" viewBox="0 0 129 97" style="enable-background:new 0 0 129 97;" xml:space="preserve">
<style type="text/css">
	.st0{fill:#2DABE3;}
</style>
<g>
	<path class="st0" d="M37.625,40.563c0.688,0,0.03,0.148,0.555-0.377c1.05-1.05,1.05-2.75,0-3.8L31.167,28.7V13.688
		c0-1.485-1.202-2.688-2.688-2.688s-1.605,1.202-1.605,2.688v16.125c0,0.714,0.283,1.396,0.787,1.9l8.063,8.063
		C36.25,40.3,36.937,40.563,37.625,40.563z"/>
	<path class="st0" d="M128.213,49.412l-21.5-21.5c-0.504-0.504-1.186-0.787-1.9-0.787H86v-8.063c0-1.485-1.202-2.688-2.688-2.688
		H55.861C50.957,6.818,41.021,0.25,29.563,0.25C13.264,0.25,0,13.512,0,29.813c0,13.503,9.112,24.894,21.5,28.416V75.5
		c0,5.929,4.824,10.75,10.75,10.75h0.272C33.77,92.376,39.196,97,45.688,97s11.917-4.624,13.166-10.75h32.793
		C92.895,92.376,98.321,97,104.813,97s11.917-4.624,13.166-10.75h8.334c1.485,0,2.688-1.202,2.688-2.688v-32.25
		C129,50.599,128.717,49.916,128.213,49.412z M3.931,29.813c0-14.134,11.497-25.631,25.631-25.631s25.631,11.497,25.631,25.631
		S43.696,55.444,29.563,55.444S3.931,43.946,3.931,29.813z M45.275,93.363c-5.153,0-9.344-4.191-9.344-9.344
		s4.191-9.344,9.344-9.344s9.344,4.191,9.344,9.344S50.428,93.363,45.275,93.363z M104.813,93.363c-5.153,0-9.344-4.191-9.344-9.344
		s4.191-9.344,9.344-9.344s9.344,4.191,9.344,9.344S109.965,93.363,104.813,93.363z M45.363,70.882
		c-6.752,0-12.397,4.81-13.696,11.183h-0.283c-3.085,0-5.591-2.509-5.591-5.591V59.558c0.922,0.084,1.852,0.142,2.796,0.142
		c16.954,0,30.753-13.796,30.753-30.753c0-2.91-0.433-5.717-1.192-8.387h23.558v61.505H59.059
		C57.76,75.693,52.115,70.882,45.363,70.882z M124.551,82.065h-5.924c-1.31-6.427-7.003-11.279-13.814-11.279
		s-12.504,4.852-13.814,11.279h-5.924V31.31h18.571l20.906,20.906V82.065z"/>
	<path class="st0" d="M95.87,40.563c0-1.485-1.202-2.688-2.688-2.688s-1.807,1.202-1.807,2.688v16.125
		c0,1.485,1.202,2.688,2.688,2.688h21.5c1.485,0,2.688,0.142,2.688-1.344s-1.202-2.688-2.688-2.688H95.87V40.563z"/>
</g>
<g>
</g>
<g>
</g>
<g>
</g>
<g>
</g>
<g>
</g>
<g>
</g>
</svg>
