<?xml version="1.0" encoding="utf-8"?>
<!-- Generator: Adobe Illustrator 22.0.1, SVG Export Plug-In . SVG Version: 6.00 Build 0)  -->
<svg version="1.1" id="Слой_1" xmlns="http://www.w3.org/2000/svg" xmlns:xlink="http://www.w3.org/1999/xlink" x="0px" y="0px"
	 width="47px" height="43px" viewBox="0 0 47 43" style="enable-background:new 0 0 47 43;" xml:space="preserve">
<style type="text/css">
	.st0{fill:#2DABE3;}
</style>
<g>
	<path class="st0" d="M11.603,21.721c-2.634,0-5.291-0.775-7.023-2.508C0.474,15.107,0,7.072,0,1.384
		c0-0.589,0.478-1.067,1.067-1.067c5.687,0,13.722,0.476,17.829,4.58c3.619,3.617,3.058,11.255,0,14.314
		C17.301,20.805,14.465,21.721,11.603,21.721z M2.141,2.458c0.062,5.199,0.636,11.932,3.95,15.246c2.672,2.672,9.012,2.281,11.296,0
		c2.281-2.281,2.672-8.624,0-11.296C14.072,3.094,7.339,2.52,2.141,2.458z"/>
	<path class="st0" d="M35.395,25.94c-2.862,0-5.696-0.916-7.29-2.508c-3.058-3.058-3.619-10.696,0-14.314
		c4.106-4.106,12.141-4.58,17.829-4.58C46.522,4.539,47,5.017,47,5.606c0,5.687-0.476,13.722-4.58,17.829
		C40.683,25.167,38.028,25.94,35.395,25.94z M44.857,6.677c-5.199,0.062-11.932,0.636-15.246,3.95
		c-2.672,2.672-2.281,9.015,0,11.296s8.624,2.672,11.296,0C44.221,18.611,44.795,11.878,44.857,6.677z"/>
	<path class="st0" d="M22.408,43c-0.589,0-1.067-0.478-1.067-1.067c0-22.632-8.3-28.311-11.424-30.448
		c-0.493-0.337-0.858-0.6-1.069-0.809c-0.416-0.416-0.416-1.093,0-1.509c0.416-0.416,1.093-0.416,1.509,0
		c0.149,0.147,0.418,0.32,0.764,0.557c2.772,1.897,9.309,6.368,11.569,21.034c1.827-6.898,5.848-13.607,14.032-17.455
		c0.531-0.248,1.253-0.064,1.505,0.472c0.252,0.534,0.109,1.127-0.423,1.379c0,0-0.173,0.081-0.173,0.083
		C25.932,20.735,23.475,32.79,23.475,41.935C23.475,42.522,22.997,43,22.408,43z"/>
</g>
<g>
</g>
<g>
</g>
<g>
</g>
<g>
</g>
<g>
</g>
<g>
</g>
</svg>
