<?xml version="1.0" encoding="utf-8"?>
<!-- Generator: Adobe Illustrator 22.0.1, SVG Export Plug-In . SVG Version: 6.00 Build 0)  -->
<svg version="1.1" id="Слой_1" xmlns="http://www.w3.org/2000/svg" xmlns:xlink="http://www.w3.org/1999/xlink" x="0px" y="0px"
	 width="60px" height="53px" viewBox="0 0 60 53" style="enable-background:new 0 0 60 53;" xml:space="preserve">
<style type="text/css">
	.st0{fill:#2DABE3;}
</style>
<g>
	<g>
		<path class="st0" d="M30.005,29.948l-2.985-2.615l-8.525,7.305c0.31,0.295,0.723,0.471,1.186,0.471h20.64
			c0.461,0,0.874-0.177,1.184-0.471l-8.525-7.305L30.005,29.948z M30.005,29.948"/>
		<path class="st0" d="M41.505,18.362c-0.301-0.295-0.723-0.471-1.184-0.471h-20.64c-0.454,0-0.876,0.176-1.186,0.471l11.51,9.862
			L41.505,18.362z M41.505,18.362"/>
		<path class="st0" d="M17.948,19.404v14.302l8.323-7.072L17.948,19.404z M17.948,19.404"/>
		<path class="st0" d="M33.729,26.633l8.323,7.072v-14.31L33.729,26.633z M33.729,26.633"/>
	</g>
	<path class="st0" d="M45,52.481H15L0,26.5L15,0.519h30L60,26.5l-0.166,0.288L45,52.481z M15.665,51.329h28.67L58.67,26.5
		L44.335,1.671h-28.67L1.33,26.5L15.665,51.329z"/>
</g>
<g>
</g>
<g>
</g>
<g>
</g>
<g>
</g>
<g>
</g>
<g>
</g>
</svg>
