<?xml version="1.0" encoding="utf-8"?>
<!-- Generator: Adobe Illustrator 22.0.1, SVG Export Plug-In . SVG Version: 6.00 Build 0)  -->
<svg version="1.1" id="Слой_1" xmlns="http://www.w3.org/2000/svg" xmlns:xlink="http://www.w3.org/1999/xlink" x="0px" y="0px"
	 width="49px" height="42px" viewBox="0 0 49 42" style="enable-background:new 0 0 49 42;" xml:space="preserve">
<style type="text/css">
	.st0{fill:#5A5A58;}
</style>
<g>
	<g>
		<path class="st0" d="M24.504,23.787l-2.413-2.114l-6.891,5.904c0.25,0.238,0.585,0.381,0.959,0.381h16.683
			c0.372,0,0.706-0.143,0.957-0.381l-6.891-5.904L24.504,23.787z M24.504,23.787"/>
		<path class="st0" d="M33.799,14.422c-0.244-0.238-0.584-0.381-0.957-0.381H16.159c-0.367,0-0.708,0.143-0.959,0.381l9.304,7.971
			L33.799,14.422z M33.799,14.422"/>
		<path class="st0" d="M14.759,15.264v11.56l6.727-5.717L14.759,15.264z M14.759,15.264"/>
		<path class="st0" d="M27.514,21.108l6.727,5.717V15.257L27.514,21.108z M27.514,21.108"/>
	</g>
	<path class="st0" d="M36.624,42H12.376L0.251,21L12.376,0h24.249l12.124,21L36.624,42z M12.913,41.069h23.174L47.673,21
		L36.087,0.931H12.913L1.326,21L12.913,41.069z"/>
</g>
<g>
</g>
<g>
</g>
<g>
</g>
<g>
</g>
<g>
</g>
<g>
</g>
</svg>
