<?xml version="1.0" encoding="utf-8"?>
<!-- Generator: Adobe Illustrator 22.0.1, SVG Export Plug-In . SVG Version: 6.00 Build 0)  -->
<svg version="1.1" id="Слой_1" xmlns="http://www.w3.org/2000/svg" xmlns:xlink="http://www.w3.org/1999/xlink" x="0px" y="0px"
	 width="16px" height="16px" viewBox="0 0 16 16" style="enable-background:new 0 0 16 16;" xml:space="preserve">
<style type="text/css">
	.st0{fill:#2DABE3;}
</style>
<path class="st0" d="M16.003,12.627c0.034,0.26-0.045,0.486-0.237,0.678l-2.254,2.237c-0.102,0.113-0.234,0.209-0.398,0.288
	c-0.164,0.079-0.325,0.13-0.483,0.153c-0.011,0-0.045,0.003-0.102,0.009C12.472,15.997,12.398,16,12.308,16
	c-0.215,0-0.562-0.037-1.042-0.11c-0.48-0.073-1.068-0.254-1.763-0.542c-0.695-0.288-1.483-0.72-2.364-1.297
	c-0.881-0.576-1.819-1.367-2.814-2.373c-0.791-0.78-1.446-1.526-1.966-2.237c-0.52-0.712-0.938-1.37-1.254-1.975
	C0.788,6.862,0.551,6.314,0.393,5.822C0.234,5.331,0.127,4.907,0.071,4.551C0.014,4.195-0.009,3.915,0.003,3.712
	C0.014,3.508,0.02,3.395,0.02,3.373C0.042,3.215,0.093,3.054,0.172,2.89C0.251,2.726,0.347,2.593,0.46,2.492l2.254-2.254
	C2.873,0.079,3.054,0,3.257,0c0.147,0,0.277,0.042,0.39,0.127C3.76,0.212,3.856,0.316,3.935,0.441l1.814,3.441
	C5.85,4.062,5.879,4.26,5.833,4.475C5.788,4.689,5.692,4.87,5.545,5.017l-0.83,0.83C4.692,5.87,4.672,5.907,4.655,5.958
	C4.638,6.008,4.63,6.051,4.63,6.085c0.045,0.237,0.147,0.508,0.305,0.814C5.071,7.169,5.28,7.5,5.562,7.89
	c0.282,0.39,0.684,0.839,1.203,1.347c0.508,0.52,0.96,0.924,1.356,1.212c0.395,0.288,0.726,0.5,0.991,0.636
	c0.265,0.135,0.469,0.217,0.61,0.246l0.212,0.042c0.023,0,0.059-0.009,0.11-0.025c0.051-0.017,0.088-0.037,0.11-0.059l0.966-0.983
	c0.204-0.181,0.441-0.271,0.712-0.271c0.192,0,0.345,0.034,0.458,0.102h0.017l3.271,1.932
	C15.816,12.215,15.958,12.401,16.003,12.627L16.003,12.627z M16.003,12.627"/>
<g>
</g>
<g>
</g>
<g>
</g>
<g>
</g>
<g>
</g>
<g>
</g>
</svg>
