<?xml version="1.0" encoding="utf-8"?>
<!-- Generator: Adobe Illustrator 22.0.1, SVG Export Plug-In . SVG Version: 6.00 Build 0)  -->
<svg version="1.1" id="Слой_1" xmlns="http://www.w3.org/2000/svg" xmlns:xlink="http://www.w3.org/1999/xlink" x="0px" y="0px"
	 width="14px" height="20px" viewBox="0 0 14 20" style="enable-background:new 0 0 14 20;" xml:space="preserve">
<style type="text/css">
	.st0{fill:#2DABE3;}
</style>
<path class="st0" d="M11.936,2.047c-2.73-2.729-7.157-2.729-9.888,0c-2.46,2.46-2.737,7.094-0.648,9.877L6.993,20l5.593-8.076
	C14.672,9.141,14.396,4.507,11.936,2.047L11.936,2.047z M7.06,9.231c-1.276,0-2.308-1.033-2.308-2.308
	c0-1.274,1.033-2.308,2.308-2.308c1.275,0,2.308,1.035,2.308,2.308C9.368,8.198,8.335,9.231,7.06,9.231L7.06,9.231z M7.06,9.231"/>
<g>
</g>
<g>
</g>
<g>
</g>
<g>
</g>
<g>
</g>
<g>
</g>
</svg>
