<?xml version="1.0" encoding="utf-8"?>
<!-- Generator: Adobe Illustrator 22.0.1, SVG Export Plug-In . SVG Version: 6.00 Build 0)  -->
<svg version="1.1" id="Слой_1" xmlns="http://www.w3.org/2000/svg" xmlns:xlink="http://www.w3.org/1999/xlink" x="0px" y="0px"
	 width="16px" height="11px" viewBox="0 0 16 11" style="enable-background:new 0 0 16 11;" xml:space="preserve">
<style type="text/css">
	.st0{fill:#2DABE3;}
</style>
<g>
	<path class="st0" d="M8.003,7.703L6.096,6.032L0.65,10.699C0.848,10.887,1.112,11,1.408,11h13.186c0.294,0,0.558-0.113,0.756-0.301
		L9.904,6.032L8.003,7.703z M8.003,7.703"/>
	<path class="st0" d="M15.35,0.301C15.158,0.113,14.888,0,14.594,0H1.408c-0.29,0-0.56,0.113-0.758,0.301l7.353,6.3L15.35,0.301z
		 M15.35,0.301"/>
	<path class="st0" d="M0.301,0.967v9.137l5.317-4.518L0.301,0.967z M0.301,0.967"/>
	<path class="st0" d="M10.382,5.585l5.317,4.518V0.961L10.382,5.585z M10.382,5.585"/>
</g>
<g>
</g>
<g>
</g>
<g>
</g>
<g>
</g>
<g>
</g>
<g>
</g>
</svg>
