<?xml version="1.0" encoding="utf-8"?>
<!-- Generator: Adobe Illustrator 22.0.1, SVG Export Plug-In . SVG Version: 6.00 Build 0)  -->
<svg version="1.1" id="Слой_1" xmlns="http://www.w3.org/2000/svg" xmlns:xlink="http://www.w3.org/1999/xlink" x="0px" y="0px"
	 width="15px" height="15px" viewBox="0 0 15 15" style="enable-background:new 0 0 15 15;" xml:space="preserve">
<style type="text/css">
	.st0{fill:#595959;}
</style>
<g>
	<path class="st0" d="M7.5,0C3.377,0,0,3.377,0,7.5C0,11.623,3.377,15,7.5,15c4.123,0,7.5-3.377,7.5-7.5C15,3.377,11.623,0,7.5,0
		L7.5,0z M12.675,4.501h-2.176c-0.223-0.974-0.6-1.802-1.051-2.699C10.8,2.325,12.001,3.226,12.675,4.501L12.675,4.501z M7.5,1.502
		c0.601,0.897,1.124,1.875,1.425,2.999h-2.85C6.376,3.45,6.899,2.399,7.5,1.502L7.5,1.502z M1.725,9.002
		C1.575,8.551,1.502,8.024,1.502,7.5c0-0.524,0.073-1.051,0.223-1.502h2.549C4.2,6.526,4.2,6.976,4.2,7.5
		c0,0.524,0.074,0.974,0.074,1.502H1.725z M2.325,10.499h2.176c0.223,0.974,0.6,1.802,1.051,2.699
		C4.2,12.675,2.999,11.774,2.325,10.499L2.325,10.499z M4.501,4.501H2.325C3.076,3.226,4.2,2.325,5.552,1.802
		C5.101,2.699,4.724,3.527,4.501,4.501L4.501,4.501z M7.5,13.498c-0.601-0.897-1.124-1.875-1.425-2.999h2.85
		C8.624,11.55,8.101,12.601,7.5,13.498L7.5,13.498z M9.225,9.002h-3.45C5.698,8.474,5.625,8.024,5.625,7.5
		c0-0.524,0.073-0.974,0.15-1.502h3.527C9.375,6.526,9.448,6.976,9.448,7.5C9.448,8.024,9.302,8.474,9.225,9.002L9.225,9.002z
		 M9.448,13.198c0.451-0.824,0.828-1.725,1.051-2.699h2.176C12.001,11.774,10.8,12.675,9.448,13.198L9.448,13.198z M10.8,9.002
		c0.077-0.528,0.077-0.978,0.077-1.502c0-0.524-0.077-0.974-0.077-1.502h2.548c0.15,0.451,0.227,0.978,0.227,1.502
		c0,0.524-0.077,1.051-0.227,1.502H10.8z M10.8,9.002"/>
</g>
<g>
</g>
<g>
</g>
<g>
</g>
<g>
</g>
<g>
</g>
<g>
</g>
</svg>
