<?xml version="1.0" encoding="utf-8"?>
<!-- Generator: Adobe Illustrator 22.0.1, SVG Export Plug-In . SVG Version: 6.00 Build 0)  -->
<svg version="1.1" id="Слой_1" xmlns="http://www.w3.org/2000/svg" xmlns:xlink="http://www.w3.org/1999/xlink" x="0px" y="0px"
	 width="214.167px" height="56px" viewBox="0 0 214.167 56" style="enable-background:new 0 0 214.167 56;" xml:space="preserve">
<style type="text/css">
	.st0{fill:#575756;}
</style>
<g>
	<g>
		<path class="st0" d="M82.728,10.709v10.135h8.576V10.709h1.938v8.988c0,1.084-0.191,1.819-0.574,2.205
			c-0.382,0.386-1.105,0.579-2.166,0.579h-6.983c-1.069,0-1.797-0.197-2.183-0.59c-0.386-0.394-0.579-1.125-0.579-2.194v-8.988
			H82.728z"/>
		<path class="st0" d="M99.254,22.481V10.709h1.971v5.045l7.34-5.045h2.874l-8.532,5.636l9.467,6.137h-3.286l-7.863-5.29v5.29
			H99.254z"/>
		<path class="st0" d="M115.768,22.481V10.709h9.489c0.884,0,1.52,0.18,1.91,0.54c0.39,0.36,0.585,0.941,0.585,1.743v2.629
			c0,0.794-0.195,1.372-0.585,1.732c-0.39,0.36-1.027,0.54-1.91,0.54h-1.726l5.38,4.589h-2.918l-4.789-4.589h-3.464v4.589H115.768z
			 M124.489,12.234h-6.75v4.132h6.75c0.49,0,0.824-0.089,1.002-0.267c0.178-0.178,0.267-0.49,0.267-0.936v-1.715
			c0-0.446-0.091-0.759-0.273-0.941C125.304,12.325,124.972,12.234,124.489,12.234z"/>
		<path class="st0" d="M131.169,22.481l6.427-11.773h2.105l6.538,11.773h-2.161l-1.504-2.896h-7.964l-1.504,2.896H131.169z
			 M135.435,18.082h6.337l-3.174-6.026L135.435,18.082z"/>
		<path class="st0" d="M149.934,22.481V10.709h1.971v11.773H149.934z"/>
		<path class="st0" d="M157.895,22.481V10.709h1.236l8.81,7.874c0.2,0.178,0.414,0.394,0.64,0.646
			c0.226,0.252,0.458,0.531,0.696,0.835c-0.059-0.379-0.104-0.774-0.134-1.186c-0.03-0.412-0.045-0.982-0.045-1.71v-6.46h1.804
			v11.773h-1.103l-9.044-8.186c-0.045-0.037-0.111-0.097-0.201-0.178c-0.446-0.401-0.776-0.783-0.991-1.147
			c0.045,0.356,0.078,0.737,0.1,1.142c0.022,0.405,0.033,0.882,0.033,1.431v6.939H157.895z"/>
		<path class="st0" d="M176.894,22.481V10.709h1.971v11.773H176.894z"/>
		<path class="st0" d="M182.56,22.481l6.427-11.773h2.105l6.538,11.773h-2.161l-1.504-2.896h-7.964l-1.504,2.896H182.56z
			 M186.826,18.082h6.337l-3.174-6.026L186.826,18.082z"/>
		<path class="st0" d="M201.324,22.481V10.709h1.236l8.81,7.874c0.2,0.178,0.414,0.394,0.64,0.646
			c0.226,0.252,0.458,0.531,0.696,0.835c-0.059-0.379-0.104-0.774-0.134-1.186c-0.03-0.412-0.045-0.982-0.045-1.71v-6.46h1.804
			v11.773h-1.103l-9.044-8.186c-0.045-0.037-0.111-0.097-0.2-0.178c-0.446-0.401-0.776-0.783-0.991-1.147
			c0.045,0.356,0.078,0.737,0.1,1.142c0.022,0.405,0.033,0.882,0.033,1.431v6.939H201.324z"/>
		<path class="st0" d="M97.352,30.038H84.855v4.928h11.127c1.57,0,2.645,0.29,3.224,0.869c0.579,0.579,0.869,1.676,0.869,3.291
			v1.988c0,1.626-0.284,2.729-0.852,3.308c-0.568,0.579-1.648,0.869-3.241,0.869H85.674c-1.604,0-2.695-0.292-3.275-0.877
			c-0.579-0.585-0.869-1.685-0.869-3.3V40.63l2.74-0.635v2.84h13.148v-5.313H86.326c-1.604,0-2.69-0.292-3.258-0.877
			s-0.852-1.685-0.852-3.3v-1.537c0-1.615,0.284-2.715,0.852-3.3c0.568-0.585,1.654-0.877,3.258-0.877h9.406
			c1.57,0,2.654,0.287,3.249,0.86c0.596,0.574,0.894,1.579,0.894,3.016v0.368l-2.523,0.718V30.038z"/>
		<path class="st0" d="M118.413,30.038v15.253h-2.94V30.038h-8.069v-2.406h19.112v2.406H118.413z"/>
		<path class="st0" d="M133.81,31.809c0-1.604,0.287-2.701,0.86-3.291c0.574-0.59,1.668-0.885,3.283-0.885h12.213
			c1.593,0,2.676,0.292,3.249,0.877c0.574,0.585,0.86,1.685,0.86,3.3v9.306c0,1.626-0.287,2.729-0.86,3.308
			c-0.574,0.579-1.657,0.869-3.249,0.869h-12.213c-1.615,0-2.709-0.295-3.283-0.885c-0.574-0.59-0.86-1.687-0.86-3.291V31.809z
			 M136.75,42.836h14.618V30.038H136.75V42.836z"/>
		<path class="st0" d="M165.796,45.291V27.632h1.854l13.215,11.812c0.301,0.267,0.621,0.59,0.961,0.969
			c0.34,0.379,0.688,0.796,1.044,1.253c-0.089-0.568-0.156-1.161-0.2-1.779s-0.067-1.473-0.067-2.564v-9.69h2.706v17.659h-1.654
			l-13.566-12.279c-0.067-0.056-0.167-0.145-0.301-0.267c-0.668-0.601-1.164-1.175-1.487-1.721c0.067,0.535,0.117,1.105,0.15,1.712
			c0.033,0.607,0.05,1.323,0.05,2.147v10.408H165.796z"/>
		<path class="st0" d="M197.031,45.291V27.632h17.007v2.372h-14.05v4.912h8.587v2.339h-8.587v5.613h14.184v2.422H197.031z"/>
	</g>
	<g>
		<path class="st0" d="M48.5,56.001H16.166L0,28L16.166-0.001h17.098v16.566L45.108-0.001H48.5L64.666,28L48.5,56.001z
			 M41.43,54.138h5.994L62.515,28l-0.935-1.62H33.265v19.592L41.43,54.138z M25.871,54.138h12.925l-6.462-6.463L25.871,54.138z
			 M17.242,54.138h5.994l8.166-8.166V1.862H17.242L2.151,28L17.242,54.138z M33.265,24.517h27.24L47.424,1.862h-1.358L33.265,19.768
			V24.517z"/>
		<rect x="32.333" y="-0.001" class="st0" width="13.254" height="1.863"/>
	</g>
</g>
<g>
</g>
<g>
</g>
<g>
</g>
<g>
</g>
<g>
</g>
<g>
</g>
</svg>
