<?xml version="1.0" encoding="utf-8"?>
<!-- Generator: Adobe Illustrator 22.0.1, SVG Export Plug-In . SVG Version: 6.00 Build 0)  -->
<svg version="1.1" id="Слой_1" xmlns="http://www.w3.org/2000/svg" xmlns:xlink="http://www.w3.org/1999/xlink" x="0px" y="0px"
	 width="289px" height="76px" viewBox="0 0 289 76" style="enable-background:new 0 0 289 76;" xml:space="preserve">
<style type="text/css">
	.st0{fill:#575756;}
</style>
<g>
	<g>
		<path class="st0" d="M111.548,14.685v13.666h11.564V14.685h2.613v12.119c0,1.462-0.258,2.453-0.773,2.974
			c-0.516,0.521-1.489,0.781-2.921,0.781h-9.416c-1.442,0-2.423-0.265-2.943-0.796c-0.521-0.531-0.781-1.517-0.781-2.959V14.685
			H111.548z"/>
		<path class="st0" d="M133.831,30.559V14.685h2.658v6.803l9.897-6.803h3.875l-11.504,7.599l12.765,8.275h-4.43l-10.603-7.133v7.133
			H133.831z"/>
		<path class="st0" d="M156.098,30.559V14.685h12.795c1.191,0,2.05,0.243,2.576,0.728c0.526,0.486,0.788,1.269,0.788,2.35v3.544
			c0,1.071-0.263,1.85-0.788,2.335c-0.526,0.486-1.384,0.728-2.576,0.728h-2.328l7.254,6.187h-3.935l-6.458-6.187h-4.671v6.187
			H156.098z M167.857,16.742h-9.101v5.572h9.101c0.661,0,1.111-0.12,1.352-0.36c0.24-0.24,0.36-0.661,0.36-1.262v-2.313
			c0-0.601-0.123-1.024-0.368-1.269C168.956,16.865,168.508,16.742,167.857,16.742z"/>
		<path class="st0" d="M176.864,30.559l8.665-15.874h2.838l8.815,15.874h-2.913l-2.027-3.905h-10.738l-2.027,3.905H176.864z
			 M182.616,24.627h8.545l-4.28-8.125L182.616,24.627z"/>
		<path class="st0" d="M202.166,30.559V14.685h2.658v15.874H202.166z"/>
		<path class="st0" d="M212.901,30.559V14.685h1.667l11.879,10.618c0.27,0.24,0.558,0.531,0.864,0.871
			c0.305,0.34,0.618,0.716,0.939,1.126c-0.08-0.511-0.14-1.044-0.18-1.599c-0.04-0.556-0.06-1.324-0.06-2.305v-8.71h2.433v15.874
			h-1.487L216.76,19.521c-0.06-0.05-0.15-0.13-0.27-0.24c-0.601-0.541-1.046-1.056-1.337-1.547c0.06,0.481,0.105,0.994,0.135,1.539
			c0.03,0.546,0.045,1.189,0.045,1.93v9.356H212.901z"/>
		<path class="st0" d="M238.518,30.559V14.685h2.658v15.874H238.518z"/>
		<path class="st0" d="M246.158,30.559l8.665-15.874h2.838l8.815,15.874h-2.913l-2.027-3.905h-10.738l-2.027,3.905H246.158z
			 M251.91,24.627h8.545l-4.28-8.125L251.91,24.627z"/>
		<path class="st0" d="M271.459,30.559V14.685h1.667l11.879,10.618c0.27,0.24,0.558,0.531,0.864,0.871
			c0.305,0.34,0.618,0.716,0.939,1.126c-0.08-0.511-0.14-1.044-0.18-1.599c-0.04-0.556-0.06-1.324-0.06-2.305v-8.71H289v15.874
			h-1.487l-12.194-11.038c-0.06-0.05-0.15-0.13-0.27-0.24c-0.601-0.541-1.046-1.056-1.337-1.547c0.06,0.481,0.105,0.994,0.135,1.539
			c0.03,0.546,0.045,1.189,0.045,1.93v9.356H271.459z"/>
		<path class="st0" d="M131.266,40.748h-16.85v6.645h15.003c2.117,0,3.567,0.39,4.348,1.171c0.781,0.781,1.171,2.26,1.171,4.438
			v2.681c0,2.193-0.383,3.679-1.149,4.46s-2.223,1.171-4.37,1.171H115.52c-2.163,0-3.634-0.394-4.415-1.183
			c-0.781-0.788-1.171-2.271-1.171-4.449V55.03l3.694-0.856v3.83h17.729V50.84h-14.958c-2.163,0-3.627-0.394-4.393-1.183
			c-0.766-0.788-1.149-2.271-1.149-4.449v-2.072c0-2.178,0.383-3.661,1.149-4.449c0.766-0.788,2.23-1.183,4.393-1.183h12.683
			c2.118,0,3.578,0.387,4.381,1.16c0.803,0.773,1.205,2.129,1.205,4.066v0.496l-3.402,0.969V40.748z"/>
		<path class="st0" d="M159.664,40.748v20.567h-3.965V40.748h-10.88v-3.244h25.771v3.244H159.664z"/>
		<path class="st0" d="M180.425,43.136c0-2.163,0.387-3.642,1.16-4.438c0.773-0.796,2.249-1.194,4.427-1.194h16.467
			c2.148,0,3.608,0.394,4.381,1.183c0.773,0.788,1.16,2.271,1.16,4.449v12.547c0,2.193-0.387,3.679-1.16,4.46
			s-2.234,1.171-4.381,1.171h-16.467c-2.178,0-3.653-0.398-4.427-1.194s-1.16-2.275-1.16-4.438V43.136z M184.389,58.004H204.1
			V40.748h-19.711V58.004z"/>
		<path class="st0" d="M223.553,61.315V37.504h2.5l17.819,15.926c0.406,0.36,0.837,0.796,1.295,1.307
			c0.458,0.511,0.927,1.074,1.408,1.689c-0.12-0.766-0.21-1.566-0.27-2.399s-0.09-1.986-0.09-3.458V37.504h3.649v23.811h-2.23
			l-18.292-16.557c-0.09-0.075-0.225-0.195-0.405-0.36c-0.901-0.811-1.569-1.584-2.005-2.32c0.09,0.721,0.158,1.491,0.203,2.309
			c0.045,0.818,0.068,1.783,0.068,2.895v14.034H223.553z"/>
		<path class="st0" d="M265.67,61.315V37.504h22.932v3.199h-18.945v6.623h11.579v3.154h-11.579v7.569h19.125v3.266H265.67z"/>
	</g>
	<g>
		<path class="st0" d="M65.395,75.756H21.798L0,38L21.798,0.244h23.055v22.337L60.822,0.244h4.573L87.194,38L65.395,75.756z
			 M55.863,73.244h8.082L84.293,38l-1.261-2.184H44.853v26.417L55.863,73.244z M34.883,73.244h17.428l-8.714-8.714L34.883,73.244z
			 M23.249,73.244h8.082l11.01-11.011V2.756H23.249L2.901,38L23.249,73.244z M44.853,33.304h36.729L63.945,2.756h-1.831L44.853,26.9
			V33.304z"/>
		<rect x="43.597" y="0.244" class="st0" width="17.871" height="2.512"/>
	</g>
</g>
<g>
</g>
<g>
</g>
<g>
</g>
<g>
</g>
<g>
</g>
<g>
</g>
</svg>
