<?xml version="1.0" encoding="utf-8"?>
<!-- Generator: Adobe Illustrator 22.0.1, SVG Export Plug-In . SVG Version: 6.00 Build 0)  -->
<svg version="1.1" id="Слой_1" xmlns="http://www.w3.org/2000/svg" xmlns:xlink="http://www.w3.org/1999/xlink" x="0px" y="0px"
	 width="16px" height="11px" viewBox="0 0 16 11" style="enable-background:new 0 0 16 11;" xml:space="preserve">
<style type="text/css">
	.st0{fill:#575756;}
</style>
<g>
	<path class="st0" d="M8,7.7L6.1,6l-5.4,4.7C0.8,10.9,1.1,11,1.4,11h13.2c0.3,0,0.6-0.1,0.8-0.3L9.9,6L8,7.7z"/>
	<path class="st0" d="M15.4,0.3C15.2,0.1,14.9,0,14.6,0H1.4C1.1,0,0.8,0.1,0.6,0.3L8,6.6L15.4,0.3z"/>
	<path class="st0" d="M0.3,1v9.1l5.3-4.5L0.3,1z"/>
	<path class="st0" d="M10.4,5.6l5.3,4.5V1L10.4,5.6z"/>
</g>
</svg>
