<?xml version="1.0" encoding="utf-8"?>
<!-- Generator: Adobe Illustrator 22.0.1, SVG Export Plug-In . SVG Version: 6.00 Build 0)  -->
<svg version="1.1" id="Слой_1" xmlns="http://www.w3.org/2000/svg" xmlns:xlink="http://www.w3.org/1999/xlink" x="0px" y="0px"
	 width="60px" height="53px" viewBox="0 0 60 53" style="enable-background:new 0 0 60 53;" xml:space="preserve">
<style type="text/css">
	.st0{fill:#00AEF0;}
	.st1{fill:none;stroke:#00AEF0;stroke-width:3;stroke-miterlimit:10;}
</style>
<g>
	<path class="st0" d="M43.1,34.1c0.1,0.4-0.1,0.8-0.4,1.1L39,38.9c-0.2,0.2-0.4,0.3-0.7,0.5c-0.3,0.1-0.5,0.2-0.8,0.2
		c0,0-0.1,0-0.2,0c-0.1,0-0.2,0-0.4,0c-0.4,0-0.9-0.1-1.7-0.2c-0.8-0.1-1.8-0.4-2.9-0.9c-1.1-0.5-2.4-1.2-3.9-2.1
		c-1.4-0.9-3-2.2-4.6-3.9c-1.3-1.3-2.4-2.5-3.2-3.7c-0.9-1.2-1.5-2.2-2.1-3.2c-0.5-1-0.9-1.9-1.2-2.7c-0.3-0.8-0.4-1.5-0.5-2.1
		c-0.1-0.6-0.1-1-0.1-1.4c0-0.3,0-0.5,0-0.6c0-0.3,0.1-0.5,0.3-0.8c0.1-0.3,0.3-0.5,0.5-0.7l3.7-3.7c0.3-0.3,0.6-0.4,0.9-0.4
		c0.2,0,0.5,0.1,0.6,0.2c0.2,0.1,0.3,0.3,0.5,0.5l3,5.6c0.2,0.3,0.2,0.6,0.1,1c-0.1,0.4-0.2,0.6-0.5,0.9L24.6,23
		c0,0-0.1,0.1-0.1,0.2c0,0.1,0,0.2,0,0.2c0.1,0.4,0.2,0.8,0.5,1.3c0.2,0.4,0.6,1,1,1.6c0.5,0.6,1.1,1.4,2,2.2c0.8,0.9,1.6,1.5,2.2,2
		c0.6,0.5,1.2,0.8,1.6,1c0.4,0.2,0.8,0.4,1,0.4l0.3,0.1c0,0,0.1,0,0.2,0c0.1,0,0.1-0.1,0.2-0.1l1.6-1.6c0.3-0.3,0.7-0.4,1.2-0.4
		c0.3,0,0.6,0.1,0.8,0.2h0l5.4,3.2C42.8,33.4,43,33.7,43.1,34.1L43.1,34.1z M43.1,34.1"/>
	<path class="st0" d="M45,52.5H15l-15-26l15-26h30l15,26L45,52.5z M15.7,51.3h28.7l14.3-24.8L44.3,1.7H15.7L1.3,26.5L15.7,51.3z"/>
</g>
<g>
	<path class="st0" d="M2752.5,1013.6c0.1,1.1-0.2,2.1-1,2.9l-9.6,9.5c-0.4,0.5-1,0.9-1.7,1.2c-0.7,0.3-1.4,0.6-2.1,0.7
		c0,0-0.2,0-0.4,0c-0.2,0-0.6,0-0.9,0c-0.9,0-2.4-0.2-4.4-0.5c-2.1-0.3-4.6-1.1-7.5-2.3c-3-1.2-6.3-3.1-10.1-5.5
		c-3.8-2.5-7.8-5.8-12-10.1c-3.4-3.3-6.2-6.5-8.4-9.6c-2.2-3-4-5.8-5.4-8.4c-1.4-2.6-2.4-4.9-3-7c-0.7-2.1-1.1-3.9-1.4-5.4
		c-0.2-1.5-0.3-2.7-0.3-3.6c0-0.9,0.1-1.4,0.1-1.4c0.1-0.7,0.3-1.4,0.7-2.1c0.3-0.7,0.7-1.3,1.2-1.7l9.6-9.6c0.7-0.7,1.4-1,2.3-1
		c0.6,0,1.2,0.2,1.7,0.5c0.5,0.4,0.9,0.8,1.2,1.3l7.7,14.7c0.4,0.8,0.6,1.6,0.4,2.5c-0.2,0.9-0.6,1.7-1.2,2.3l-3.5,3.5
		c-0.1,0.1-0.2,0.3-0.3,0.5c-0.1,0.2-0.1,0.4-0.1,0.5c0.2,1,0.6,2.2,1.3,3.5c0.6,1.2,1.5,2.6,2.7,4.2c1.2,1.7,2.9,3.6,5.1,5.8
		c2.2,2.2,4.1,3.9,5.8,5.2c1.7,1.2,3.1,2.1,4.2,2.7c1.1,0.6,2,0.9,2.6,1l0.9,0.2c0.1,0,0.3,0,0.5-0.1c0.2-0.1,0.4-0.2,0.5-0.3
		l4.1-4.2c0.9-0.8,1.9-1.2,3-1.2c0.8,0,1.5,0.1,2,0.4h0.1l14,8.2C2751.7,1011.8,2752.3,1012.6,2752.5,1013.6L2752.5,1013.6z
		 M2752.5,1013.6"/>
	<polygon class="st1" points="2756.6,927.7 2794.8,993.8 2756.6,1060 2680.2,1060 2642,993.8 2680.2,927.7 	"/>
</g>
</svg>
