<?xml version="1.0" encoding="utf-8"?>
<!-- Generator: Adobe Illustrator 22.0.1, SVG Export Plug-In . SVG Version: 6.00 Build 0)  -->
<svg version="1.1" id="Слой_1" xmlns="http://www.w3.org/2000/svg" xmlns:xlink="http://www.w3.org/1999/xlink" x="0px" y="0px"
	 width="13px" height="13px" viewBox="0 0 13 13" style="enable-background:new 0 0 13 13;" xml:space="preserve">
<style type="text/css">
	.st0{fill:#808081;}
</style>
<path class="st0" d="M10.4,13c-0.5,0-1.2-0.1-1.9-0.4C7,12,5.2,10.8,3.7,9.3C2.2,7.8,1,6,0.4,4.5c-0.5-1.4-0.5-2.6,0-3.1
	c0.1-0.1,0.2-0.2,0.2-0.2C1.1,0.6,1.7,0,2.4,0c0.5,0,1,0.3,1.5,1c1.5,1.8,0.8,2.5,0,3.3L3.8,4.4C3.7,4.5,3.5,5.1,5.7,7.3
	C6.4,8,7,8.6,7.5,8.9c0.3,0.2,0.9,0.5,1.1,0.3L8.8,9c0.8-0.8,1.4-1.4,3.3,0c0.6,0.5,0.9,1,1,1.5c0,0.7-0.6,1.3-1.1,1.8
	c-0.1,0.1-0.2,0.2-0.2,0.2C11.4,12.9,11,13,10.4,13L10.4,13z M2.4,0.4"/>
</svg>
