<?xml version="1.0" encoding="utf-8"?>
<!-- Generator: Adobe Illustrator 22.0.1, SVG Export Plug-In . SVG Version: 6.00 Build 0)  -->
<svg version="1.1" id="Слой_1" xmlns="http://www.w3.org/2000/svg" xmlns:xlink="http://www.w3.org/1999/xlink" x="0px" y="0px"
	 width="16px" height="16px" viewBox="0 0 16 16" style="enable-background:new 0 0 16 16;" xml:space="preserve">
<style type="text/css">
	.st0{fill:#00AEF0;}
	.st1{fill:none;stroke:#00AEF0;stroke-width:3;stroke-miterlimit:10;}
	.st2{fill:#575756;}
</style>
<g>
	<path class="st0" d="M2730.5,995.1c0.1,1.1-0.2,2.1-1,2.9l-9.6,9.5c-0.4,0.5-1,0.9-1.7,1.2c-0.7,0.3-1.4,0.6-2.1,0.7
		c0,0-0.2,0-0.4,0c-0.2,0-0.6,0-0.9,0c-0.9,0-2.4-0.2-4.4-0.5c-2.1-0.3-4.6-1.1-7.5-2.3c-3-1.2-6.3-3.1-10.1-5.5
		c-3.8-2.5-7.8-5.8-12-10.1c-3.4-3.3-6.2-6.5-8.4-9.6c-2.2-3-4-5.8-5.4-8.4c-1.4-2.6-2.4-4.9-3-7c-0.7-2.1-1.1-3.9-1.4-5.4
		c-0.2-1.5-0.3-2.7-0.3-3.6c0-0.9,0.1-1.4,0.1-1.4c0.1-0.7,0.3-1.4,0.7-2.1c0.3-0.7,0.7-1.3,1.2-1.7l9.6-9.6c0.7-0.7,1.4-1,2.3-1
		c0.6,0,1.2,0.2,1.7,0.5c0.5,0.4,0.9,0.8,1.2,1.3l7.7,14.7c0.4,0.8,0.6,1.6,0.4,2.5c-0.2,0.9-0.6,1.7-1.2,2.3l-3.5,3.5
		c-0.1,0.1-0.2,0.3-0.3,0.5c-0.1,0.2-0.1,0.4-0.1,0.5c0.2,1,0.6,2.2,1.3,3.5c0.6,1.2,1.5,2.6,2.7,4.2c1.2,1.7,2.9,3.6,5.1,5.8
		c2.2,2.2,4.1,3.9,5.8,5.2c1.7,1.2,3.1,2.1,4.2,2.7c1.1,0.6,2,0.9,2.6,1l0.9,0.2c0.1,0,0.3,0,0.5-0.1c0.2-0.1,0.4-0.2,0.5-0.3
		l4.1-4.2c0.9-0.8,1.9-1.2,3-1.2c0.8,0,1.5,0.1,2,0.4h0.1l14,8.2C2729.7,993.3,2730.3,994.1,2730.5,995.1L2730.5,995.1z
		 M2730.5,995.1"/>
	<polygon class="st1" points="2734.6,909.2 2772.8,975.3 2734.6,1041.5 2658.2,1041.5 2620,975.3 2658.2,909.2 	"/>
</g>
<path class="st2" d="M16,12.6c0,0.3,0,0.5-0.2,0.7l-2.3,2.2c-0.1,0.1-0.2,0.2-0.4,0.3c-0.2,0.1-0.3,0.1-0.5,0.2c0,0,0,0-0.1,0
	c-0.1,0-0.1,0-0.2,0c-0.2,0-0.6,0-1-0.1c-0.5-0.1-1.1-0.3-1.8-0.5C8.8,15,8,14.6,7.1,14c-0.9-0.6-1.8-1.4-2.8-2.4
	c-0.8-0.8-1.4-1.5-2-2.2c-0.5-0.7-0.9-1.4-1.3-2C0.8,6.9,0.6,6.3,0.4,5.8C0.2,5.3,0.1,4.9,0.1,4.5C0,4.2,0,3.9,0,3.7
	c0-0.2,0-0.3,0-0.3c0-0.2,0.1-0.3,0.2-0.5c0.1-0.2,0.2-0.3,0.3-0.4l2.3-2.3C2.9,0.1,3.1,0,3.3,0c0.1,0,0.3,0,0.4,0.1
	c0.1,0.1,0.2,0.2,0.3,0.3l1.8,3.4c0.1,0.2,0.1,0.4,0.1,0.6c0,0.2-0.1,0.4-0.3,0.5L4.7,5.8c0,0,0,0.1-0.1,0.1c0,0.1,0,0.1,0,0.1
	c0,0.2,0.1,0.5,0.3,0.8c0.1,0.3,0.3,0.6,0.6,1c0.3,0.4,0.7,0.8,1.2,1.3c0.5,0.5,1,0.9,1.4,1.2c0.4,0.3,0.7,0.5,1,0.6
	c0.3,0.1,0.5,0.2,0.6,0.2l0.2,0c0,0,0.1,0,0.1,0c0.1,0,0.1,0,0.1-0.1l1-1c0.2-0.2,0.4-0.3,0.7-0.3c0.2,0,0.3,0,0.5,0.1h0l3.3,1.9
	C15.8,12.2,15.9,12.4,16,12.6L16,12.6z M16,12.6"/>
</svg>
