<?xml version="1.0" encoding="utf-8"?>
<!-- Generator: Adobe Illustrator 22.0.1, SVG Export Plug-In . SVG Version: 6.00 Build 0)  -->
<svg version="1.1" id="Слой_1" xmlns="http://www.w3.org/2000/svg" xmlns:xlink="http://www.w3.org/1999/xlink" x="0px" y="0px"
	 width="82px" height="97px" viewBox="0 0 82 97" style="enable-background:new 0 0 82 97;" xml:space="preserve">
<style type="text/css">
	.st0{fill:#00AEF0;}
	.st1{fill:none;stroke:#00AEF0;stroke-width:3;stroke-miterlimit:10;}
</style>
<g>
	<path class="st0" d="M2763.5,1035.6c0.1,1.1-0.2,2.1-1,2.9l-9.6,9.5c-0.4,0.5-1,0.9-1.7,1.2c-0.7,0.3-1.4,0.6-2.1,0.7
		c0,0-0.2,0-0.4,0c-0.2,0-0.6,0-0.9,0c-0.9,0-2.4-0.2-4.4-0.5c-2.1-0.3-4.6-1.1-7.5-2.3c-3-1.2-6.3-3.1-10.1-5.5
		c-3.8-2.5-7.8-5.8-12-10.1c-3.4-3.3-6.2-6.5-8.4-9.6c-2.2-3-4-5.8-5.4-8.4c-1.4-2.6-2.4-4.9-3-7c-0.7-2.1-1.1-3.9-1.4-5.4
		c-0.2-1.5-0.3-2.7-0.3-3.6c0-0.9,0.1-1.4,0.1-1.4c0.1-0.7,0.3-1.4,0.7-2.1c0.3-0.7,0.7-1.3,1.2-1.7l9.6-9.6c0.7-0.7,1.4-1,2.3-1
		c0.6,0,1.2,0.2,1.7,0.5c0.5,0.4,0.9,0.8,1.2,1.3l7.7,14.7c0.4,0.8,0.6,1.6,0.4,2.5c-0.2,0.9-0.6,1.7-1.2,2.3l-3.5,3.5
		c-0.1,0.1-0.2,0.3-0.3,0.5c-0.1,0.2-0.1,0.4-0.1,0.5c0.2,1,0.6,2.2,1.3,3.5c0.6,1.2,1.5,2.6,2.7,4.2c1.2,1.7,2.9,3.6,5.1,5.8
		c2.2,2.2,4.1,3.9,5.8,5.2c1.7,1.2,3.1,2.1,4.2,2.7c1.1,0.6,2,0.9,2.6,1l0.9,0.2c0.1,0,0.3,0,0.5-0.1c0.2-0.1,0.4-0.2,0.5-0.3
		l4.1-4.2c0.9-0.8,1.9-1.2,3-1.2c0.8,0,1.5,0.1,2,0.4h0.1l14,8.2C2762.7,1033.8,2763.3,1034.6,2763.5,1035.6L2763.5,1035.6z
		 M2763.5,1035.6"/>
	<polygon class="st1" points="2767.6,949.7 2805.8,1015.8 2767.6,1082 2691.2,1082 2653,1015.8 2691.2,949.7 	"/>
</g>
<g>
	<path class="st0" d="M81.7,80.3L67.6,55.5c1.4-0.7,2.3-2.2,2.2-3.9l-1-8.8l6-6.3c1.3-1.3,1.4-3.6,0.1-5.2l-6-6.5l1.2-8.9
		c0.2-1.9-1.1-3.8-3-4.2l-8.7-1.7l-4.2-7.7c-0.9-1.8-3-2.6-4.9-1.8h-0.1l-8,3.7l-7.8-3.8c-0.9-0.5-1.9-0.6-2.9-0.3
		c-1,0.3-1.7,1-2.2,1.8l-4.3,7.7l-8.7,1.5c-2,0.4-3.3,2.2-3.1,4.3l1,8.8l-6,6.3c-1.3,1.3-1.4,3.6-0.1,5.2l6,6.5L12,51.1
		c-0.2,1.7,0.9,3.3,2.5,4L0.3,80.3c-0.4,0.6-0.3,1.3,0,1.9c0.4,0.6,1,1,1.6,1h15.2l7,12.1c0.4,0.6,1,1,1.6,1c0.7,0,1.3-0.4,1.6-1
		L40.9,72l13.6,23.5c0.4,0.6,1,1,1.6,1c0.7,0,1.3-0.4,1.6-1l7-12.4H80c0.7,0,1.3-0.4,1.6-1C82.1,81.6,82.1,80.9,81.7,80.3L81.7,80.3
		z M25.6,90.7l-5.8-10.3c-0.4-0.6-0.9-1-1.6-1h-13l13-23.5l5.4,1l4.1,7.8c0.8,1.8,2.9,2.6,4.8,1.8h0.1l3.9-1.8l1.9,3.4L25.6,90.7z
		 M31.3,63.9L31.3,63.9l-4.3-8.1c-0.6-1-1.5-1.8-2.7-1.9l-8.7-1.7l1.2-9c0.2-1.2-0.2-2.5-0.9-3.2l-5.9-6.7l6-6.5
		c0.9-0.9,1.2-2.1,1-3.2l-1-8.9c0,0,0-0.1,0.1-0.2l8.6-1.6c1-0.2,2.1-0.9,2.7-2l4.3-8l7.8,3.9c1,0.6,2.4,0.6,3.4,0l7.9-3.7h0.1
		l4.2,8.1c0.6,1,1.5,1.8,2.6,1.9l8.6,1.8l-1.2,9c-0.2,1.2,0.2,2.5,0.9,3.2l6,6.7l-6.1,6.5c-0.9,0.9-1.2,2.1-1,3.2l1,9L57.4,54
		c-1,0.2-2.1,0.9-2.7,2l-4.3,8L42.6,60c-1-0.6-2.4-0.6-3.4,0L31.3,63.9z M63.8,79.5c-0.7,0-1.3,0.4-1.6,0.9l-5.8,10.2L43.4,68
		c-0.1-0.3-0.2-0.5-0.4-0.7l-2-3.6l0.6-0.3l7.6,3.7c0.6,0.3,1.1,0.4,1.7,0.4c1.3,0,2.6-0.7,3.2-1.9l4.2-7.5l5.6-1l12.7,22.4H63.8z
		 M62.5,77.6"/>
	<path class="st0" d="M59,34.4c0-9.9-8.1-18-18-18c-9.9,0-18,8.1-18,18c0,9.9,8.1,18,18,18C50.9,52.4,59,44.3,59,34.4L59,34.4z
		 M40.9,48.8c-7.9,0-14.4-6.5-14.4-14.4C26.5,26.5,33,20,40.9,20c7.9,0,14.4,6.5,14.4,14.4C55.4,42.3,48.9,48.8,40.9,48.8L40.9,48.8
		z M40.9,48.8"/>
</g>
</svg>
