<?xml version="1.0" encoding="utf-8"?>
<!-- Generator: Adobe Illustrator 22.0.1, SVG Export Plug-In . SVG Version: 6.00 Build 0)  -->
<svg version="1.1" id="Слой_1" xmlns="http://www.w3.org/2000/svg" xmlns:xlink="http://www.w3.org/1999/xlink" x="0px" y="0px"
	 width="15px" height="15px" viewBox="0 0 15 15" style="enable-background:new 0 0 15 15;" xml:space="preserve">
<style type="text/css">
	.st0{fill:#00AEF0;}
	.st1{fill:none;stroke:#00AEF0;stroke-width:3;stroke-miterlimit:10;}
	.st2{fill-rule:evenodd;clip-rule:evenodd;fill:#00AEF0;}
</style>
<g>
	<path class="st0" d="M2730,994.6c0.1,1.1-0.2,2.1-1,2.9l-9.6,9.5c-0.4,0.5-1,0.9-1.7,1.2c-0.7,0.3-1.4,0.6-2.1,0.7c0,0-0.2,0-0.4,0
		c-0.2,0-0.6,0-0.9,0c-0.9,0-2.4-0.2-4.4-0.5c-2.1-0.3-4.6-1.1-7.5-2.3c-3-1.2-6.3-3.1-10.1-5.5c-3.8-2.5-7.8-5.8-12-10.1
		c-3.4-3.3-6.2-6.5-8.4-9.6c-2.2-3-4-5.8-5.4-8.4c-1.4-2.6-2.4-4.9-3-7c-0.7-2.1-1.1-3.9-1.4-5.4c-0.2-1.5-0.3-2.7-0.3-3.6
		c0-0.9,0.1-1.4,0.1-1.4c0.1-0.7,0.3-1.4,0.7-2.1c0.3-0.7,0.7-1.3,1.2-1.7l9.6-9.6c0.7-0.7,1.4-1,2.3-1c0.6,0,1.2,0.2,1.7,0.5
		c0.5,0.4,0.9,0.8,1.2,1.3l7.7,14.7c0.4,0.8,0.6,1.6,0.4,2.5c-0.2,0.9-0.6,1.7-1.2,2.3l-3.5,3.5c-0.1,0.1-0.2,0.3-0.3,0.5
		c-0.1,0.2-0.1,0.4-0.1,0.5c0.2,1,0.6,2.2,1.3,3.5c0.6,1.2,1.5,2.6,2.7,4.2c1.2,1.7,2.9,3.6,5.1,5.8c2.2,2.2,4.1,3.9,5.8,5.2
		c1.7,1.2,3.1,2.1,4.2,2.7c1.1,0.6,2,0.9,2.6,1l0.9,0.2c0.1,0,0.3,0,0.5-0.1c0.2-0.1,0.4-0.2,0.5-0.3l4.1-4.2c0.9-0.8,1.9-1.2,3-1.2
		c0.8,0,1.5,0.1,2,0.4h0.1l14,8.2C2729.2,992.8,2729.8,993.6,2730,994.6L2730,994.6z M2730,994.6"/>
	<polygon class="st1" points="2734.1,908.7 2772.3,974.8 2734.1,1041 2657.7,1041 2619.5,974.8 2657.7,908.7 	"/>
</g>
<path class="st2" d="M14.6,12.9l-3.3-3.3c0,0,0,0-0.1,0c0.6-1,1-2.1,1-3.4C12.3,2.8,9.6,0,6.2,0S0,2.8,0,6.2c0,3.4,2.8,6.2,6.2,6.2
	c1.3,0,2.4-0.4,3.4-1c0,0,0,0,0,0.1l3.3,3.3c0.5,0.5,1.3,0.5,1.8,0C15.1,14.1,15.1,13.3,14.6,12.9L14.6,12.9z M6.2,10.2
	c-2.2,0-4-1.8-4-4c0-2.2,1.8-4,4-4s4,1.8,4,4C10.2,8.4,8.4,10.2,6.2,10.2L6.2,10.2z M6.2,10.2"/>
</svg>
