<?xml version="1.0" encoding="utf-8"?>
<!-- Generator: Adobe Illustrator 22.0.1, SVG Export Plug-In . SVG Version: 6.00 Build 0)  -->
<svg version="1.1" id="Слой_1" xmlns="http://www.w3.org/2000/svg" xmlns:xlink="http://www.w3.org/1999/xlink" x="0px" y="0px"
	 width="47px" height="52px" viewBox="0 0 47 52" style="enable-background:new 0 0 47 52;" xml:space="preserve">
<style type="text/css">
	.st0{fill:#00AEF0;}
	.st1{fill:none;stroke:#00AEF0;stroke-width:3;stroke-miterlimit:10;}
</style>
<g>
	<path class="st0" d="M2746,1013.1c0.1,1.1-0.2,2.1-1,2.9l-9.6,9.5c-0.4,0.5-1,0.9-1.7,1.2c-0.7,0.3-1.4,0.6-2.1,0.7
		c0,0-0.2,0-0.4,0c-0.2,0-0.6,0-0.9,0c-0.9,0-2.4-0.2-4.4-0.5c-2.1-0.3-4.6-1.1-7.5-2.3c-3-1.2-6.3-3.1-10.1-5.5
		c-3.8-2.5-7.8-5.8-12-10.1c-3.4-3.3-6.2-6.5-8.4-9.6c-2.2-3-4-5.8-5.4-8.4c-1.4-2.6-2.4-4.9-3-7c-0.7-2.1-1.1-3.9-1.4-5.4
		c-0.2-1.5-0.3-2.7-0.3-3.6c0-0.9,0.1-1.4,0.1-1.4c0.1-0.7,0.3-1.4,0.7-2.1c0.3-0.7,0.7-1.3,1.2-1.7l9.6-9.6c0.7-0.7,1.4-1,2.3-1
		c0.6,0,1.2,0.2,1.7,0.5c0.5,0.4,0.9,0.8,1.2,1.3l7.7,14.7c0.4,0.8,0.6,1.6,0.4,2.5c-0.2,0.9-0.6,1.7-1.2,2.3l-3.5,3.5
		c-0.1,0.1-0.2,0.3-0.3,0.5c-0.1,0.2-0.1,0.4-0.1,0.5c0.2,1,0.6,2.2,1.3,3.5c0.6,1.2,1.5,2.6,2.7,4.2c1.2,1.7,2.9,3.6,5.1,5.8
		c2.2,2.2,4.1,3.9,5.8,5.2c1.7,1.2,3.1,2.1,4.2,2.7c1.1,0.6,2,0.9,2.6,1l0.9,0.2c0.1,0,0.3,0,0.5-0.1c0.2-0.1,0.4-0.2,0.5-0.3
		l4.1-4.2c0.9-0.8,1.9-1.2,3-1.2c0.8,0,1.5,0.1,2,0.4h0.1l14,8.2C2745.2,1011.3,2745.8,1012.1,2746,1013.1L2746,1013.1z
		 M2746,1013.1"/>
	<polygon class="st1" points="2750.1,927.2 2788.3,993.3 2750.1,1059.5 2673.7,1059.5 2635.5,993.3 2673.7,927.2 	"/>
</g>
<g>
	<path class="st0" d="M24,4.2c-0.4-0.2-0.8-0.1-1.1,0.1l-4,3h-6.7L3.5,3.5C2.9,3.2,2.3,3.5,2.1,4s0,1.2,0.5,1.4l0,0l5.6,2.5
		C3.3,9.5,0,14,0,19.2v24.4c0,0.6,0.5,1.1,1.1,1.1s1.1-0.5,1.1-1.1V19.2c0-5,3.7-9,8.5-9.6v2.3c-3.2,1.2-5.3,4.2-5.3,7.4V50
		c0,0.6,0.5,1.1,1.1,1.1h15c0.6,0,1.1-0.5,1.1-1.1V19.3c0-3.3-2.2-6.2-5.3-7.4V9.4h1.7l4,4c0.4,0.4,1.1,0.4,1.5,0
		c0.2-0.2,0.3-0.5,0.3-0.8V5.2C24.6,4.8,24.3,4.4,24,4.2z M20.3,49H7.5v-2.1h12.8V49z M20.3,19.3v25.4H7.5V19.3
		c0-2.6,1.9-4.9,4.6-5.6c0.5-0.1,0.8-0.5,0.8-1V9.4H15v3.2c0,0.5,0.3,0.9,0.8,1C18.4,14.4,20.3,16.7,20.3,19.3L20.3,19.3z
		 M22.4,10.1l-1.6-1.6l1.6-1.2V10.1z"/>
	<path class="st0" d="M34.2,8.4h-5.3c-0.6,0-1.1,0.5-1.1,1.1s0.5,1.1,1.1,1.1h5.3c0.6,0,1.1-0.5,1.1-1.1S34.8,8.4,34.2,8.4z"/>
	<path class="st0" d="M33.7,14.3l-4.5-1.6c-0.6-0.2-1.2,0.1-1.4,0.6c-0.2,0.6,0.1,1.2,0.6,1.4c0,0,0,0,0,0l4.5,1.6
		c0.1,0,0.2,0.1,0.4,0.1c0.6,0,1.1-0.5,1.1-1.1C34.4,14.9,34.1,14.5,33.7,14.3L33.7,14.3z"/>
	<path class="st0" d="M28.8,6.2c0.1,0,0.2,0,0.4-0.1l4.5-1.6c0.6-0.2,0.9-0.8,0.7-1.4S33.6,2.3,33,2.5c0,0,0,0,0,0l-4.5,1.6
		c-0.6,0.2-0.8,0.8-0.6,1.4C28,6,28.4,6.2,28.8,6.2z"/>
	<path class="st0" d="M47,9.4c0-2.1-1.2-3.8-3.1-4.5c0-0.8-0.2-1.6-0.7-2.2c-0.8-1.1-2.2-1.8-3.7-1.8c-0.6,0-1.1,0.5-1.1,1.1
		S38.9,3,39.5,3c0.8,0,1.6,0.4,2,0.9c0.3,0.4,0.4,0.9,0.2,1.4c-0.2,0.6,0.1,1.2,0.7,1.3c0,0,0.1,0,0.1,0c1.4,0.3,2.4,1.3,2.4,2.7
		c0,1.4-0.9,2.5-2.3,2.7c-0.6,0.1-1,0.6-0.9,1.2c0,0.1,0.1,0.2,0.1,0.3c0.2,0.4,0.2,0.8,0,1.2c-0.4,0.6-1.3,1-2.3,1
		c-0.6,0-1.1,0.5-1.1,1.1c0,0.6,0.5,1.1,1.1,1.1c1.8,0,3.3-0.8,4.1-2c0.4-0.6,0.5-1.3,0.5-2C45.8,13.2,47,11.5,47,9.4z"/>
</g>
</svg>
