<?xml version="1.0" encoding="utf-8"?>
<!-- Generator: Adobe Illustrator 22.0.1, SVG Export Plug-In . SVG Version: 6.00 Build 0)  -->
<svg version="1.1" id="Слой_1" xmlns="http://www.w3.org/2000/svg" xmlns:xlink="http://www.w3.org/1999/xlink" x="0px" y="0px"
	 width="85px" height="97px" viewBox="0 0 85 97" style="enable-background:new 0 0 85 97;" xml:space="preserve">
<style type="text/css">
	.st0{fill:#00AEF0;}
	.st1{fill:none;stroke:#00AEF0;stroke-width:3;stroke-miterlimit:10;}
</style>
<g>
	<path class="st0" d="M2765,1035.6c0.1,1.1-0.2,2.1-1,2.9l-9.6,9.5c-0.4,0.5-1,0.9-1.7,1.2c-0.7,0.3-1.4,0.6-2.1,0.7
		c0,0-0.2,0-0.4,0c-0.2,0-0.6,0-0.9,0c-0.9,0-2.4-0.2-4.4-0.5c-2.1-0.3-4.6-1.1-7.5-2.3c-3-1.2-6.3-3.1-10.1-5.5
		c-3.8-2.5-7.8-5.8-12-10.1c-3.4-3.3-6.2-6.5-8.4-9.6c-2.2-3-4-5.8-5.4-8.4c-1.4-2.6-2.4-4.9-3-7c-0.7-2.1-1.1-3.9-1.4-5.4
		c-0.2-1.5-0.3-2.7-0.3-3.6c0-0.9,0.1-1.4,0.1-1.4c0.1-0.7,0.3-1.4,0.7-2.1c0.3-0.7,0.7-1.3,1.2-1.7l9.6-9.6c0.7-0.7,1.4-1,2.3-1
		c0.6,0,1.2,0.2,1.7,0.5c0.5,0.4,0.9,0.8,1.2,1.3l7.7,14.7c0.4,0.8,0.6,1.6,0.4,2.5c-0.2,0.9-0.6,1.7-1.2,2.3l-3.5,3.5
		c-0.1,0.1-0.2,0.3-0.3,0.5c-0.1,0.2-0.1,0.4-0.1,0.5c0.2,1,0.6,2.2,1.3,3.5c0.6,1.2,1.5,2.6,2.7,4.2c1.2,1.7,2.9,3.6,5.1,5.8
		c2.2,2.2,4.1,3.9,5.8,5.2c1.7,1.2,3.1,2.1,4.2,2.7c1.1,0.6,2,0.9,2.6,1l0.9,0.2c0.1,0,0.3,0,0.5-0.1c0.2-0.1,0.4-0.2,0.5-0.3
		l4.1-4.2c0.9-0.8,1.9-1.2,3-1.2c0.8,0,1.5,0.1,2,0.4h0.1l14,8.2C2764.2,1033.8,2764.8,1034.6,2765,1035.6L2765,1035.6z
		 M2765,1035.6"/>
	<polygon class="st1" points="2769.1,949.7 2807.3,1015.8 2769.1,1082 2692.7,1082 2654.5,1015.8 2692.7,949.7 	"/>
</g>
<g>
	<path class="st0" d="M42.5,52.6c6.4,0,21.6-7.7,21.6-26.3c0-2.6-0.1-5.1-0.3-7.5c-0.4-4.7-1.3-8.8-3.7-11.9C57.1,2.6,51.8,0,42.5,0
		c-9.3,0-14.6,2.6-17.6,6.9c-2.4,3.2-3.3,7.3-3.7,11.9c-0.2,2.4-0.3,4.9-0.3,7.5C20.9,44.9,36.1,52.6,42.5,52.6L42.5,52.6z
		 M49.5,9.6c-0.6,1.6-0.9,2.4-1.6,4c-4.1-1.1-6.9-1.1-10.9,0c-0.6-1.6-0.9-2.4-1.6-4C40.5,8.1,44.5,8.1,49.5,9.6L49.5,9.6z
		 M24.6,22.6c0.2,0.5,1.3,2.6,2.9,2.8c1.8,0.2,4.9-6.5,15-6.5c10.1,0,13.2,6.7,15,6.5c1.6-0.2,2.6-2.2,2.9-2.8
		c0,1.3,0.1,2.6,0.1,3.9c0,8.8-3.9,14.3-7.2,17.3c-4.1,3.8-8.7,5.2-10.8,5.2c-2.1,0-6.6-1.4-10.8-5.2c-3.3-3-7.2-8.5-7.2-17.3
		C24.6,25.2,24.6,23.9,24.6,22.6L24.6,22.6z M24.1,22.3"/>
	<path class="st0" d="M41.4,97c-17.3,0-28.4-3.3-29-3.5l-0.2-0.1c-9.3-3.9-11.5-8.9-11.9-9.8C0,83-0.1,82.3,0,81.7
		c0.6-3.8,3-16.5,9-20.4c3.1-2.1,13.1-7.5,18.8-10.6c1.4-0.7,3.1-0.6,4.3,0.4c2.1,1.7,4.5,2.8,6.9,3.4c1.3,0.3,2.4,1.2,2.8,2.4
		l0.6,1.6l0.6-1.6c0.5-1.2,1.5-2.2,2.8-2.4c2.5-0.5,4.8-1.7,6.9-3.4c1.2-1,2.9-1.1,4.3-0.4l0.1,0C61.9,53.2,72.8,59,76,61.3
		c4.2,2.9,7.2,9.8,8.9,20.4c0.1,0.6,0,1.3-0.1,1.9l0,0c-0.6,2.3-3.1,8-12.3,10L72,91.2l0.5,2.4C60.8,96.1,50.3,97,41.4,97z
		 M12.1,89.9c1.9,0.5,27.1,7.4,61.1-0.1l0,0c6.9-1.5,8.7-5.4,9.2-7c0,0,0,0,0,0c-1.5-9.4-4.1-15.8-7.3-18c-3.1-2.1-14.2-8.1-19-10.6
		c-2.6,1.9-5.4,3.3-8.4,4L42.5,72l-5.2-13.8c-3-0.7-5.8-2.1-8.4-4c-9.7,5.2-16.8,9.2-19,10.6c-3.4,2.3-6,10.6-7.3,17.9
		C3.1,83.6,5.2,86.9,12.1,89.9z M84.8,83.6C84.8,83.6,84.8,83.6,84.8,83.6C84.8,83.6,84.8,83.6,84.8,83.6z"/>
</g>
</svg>
