<?xml version="1.0" encoding="utf-8"?>
<!-- Generator: Adobe Illustrator 22.0.1, SVG Export Plug-In . SVG Version: 6.00 Build 0)  -->
<svg version="1.1" id="Слой_1" xmlns="http://www.w3.org/2000/svg" xmlns:xlink="http://www.w3.org/1999/xlink" x="0px" y="0px"
	 width="16px" height="16px" viewBox="0 0 16 16" style="enable-background:new 0 0 16 16;" xml:space="preserve">
<style type="text/css">
	.st0{fill:#FFFFFF;}
</style>
<path class="st0" d="M15.8,4.7C15.9,4.9,16,5.1,16,5.4l-0.7,3.8c0,0.2-0.1,0.4-0.3,0.5c-0.2,0.1-0.3,0.2-0.5,0.2H4.7L4.5,11h9.3
	c0.2,0,0.4,0.1,0.6,0.2c0.2,0.2,0.2,0.4,0.2,0.6c0,0.2-0.1,0.4-0.2,0.6c-0.2,0.2-0.4,0.2-0.6,0.2H3.5c-0.2,0-0.5-0.1-0.6-0.3
	c-0.2-0.2-0.2-0.4-0.2-0.7l0.4-2.4L2.5,2.5L0.6,1.9C0.4,1.9,0.2,1.7,0.1,1.5C0,1.3,0,1.1,0,0.9c0.1-0.2,0.2-0.4,0.4-0.5
	c0.2-0.1,0.4-0.1,0.6-0.1l2.4,0.8c0.2,0,0.3,0.1,0.4,0.3C4,1.5,4,1.7,4.1,1.8l0.1,1.3l11,1.2C15.5,4.4,15.7,4.6,15.8,4.7L15.8,4.7z
	 M4.8,13.1c0.4,0,0.7,0.1,0.9,0.4c0.2,0.2,0.4,0.5,0.4,0.9c0,0.4-0.1,0.7-0.4,0.9c-0.2,0.3-0.5,0.4-0.9,0.4c-0.4,0-0.7-0.1-0.9-0.4
	c-0.2-0.3-0.4-0.6-0.4-0.9c0-0.4,0.1-0.7,0.4-0.9C4.1,13.2,4.4,13.1,4.8,13.1L4.8,13.1z M12.3,13.1c0.4,0,0.7,0.1,0.9,0.4
	c0.2,0.2,0.4,0.5,0.4,0.9c0,0.4-0.1,0.7-0.4,0.9c-0.2,0.3-0.5,0.4-0.9,0.4c-0.4,0-0.7-0.1-0.9-0.4C11.2,15,11,14.7,11,14.4
	c0-0.4,0.1-0.7,0.4-0.9C11.7,13.2,12,13.1,12.3,13.1L12.3,13.1z M12.3,13.1"/>
</svg>
