<?xml version="1.0" encoding="utf-8"?>
<!-- Generator: Adobe Illustrator 21.0.0, SVG Export Plug-In . SVG Version: 6.00 Build 0)  -->
<svg version="1.1" id="Слой_1" xmlns="http://www.w3.org/2000/svg" xmlns:xlink="http://www.w3.org/1999/xlink" x="0px" y="0px"
	 viewBox="0 0 303 71" style="enable-background:new 0 0 303 71;" xml:space="preserve">
<style type="text/css">
	.st0{fill:#0070BA;}
	.st1{fill:#FFFFFF;}
</style>
<g>
	<g>
		<path class="st0" d="M255.8,41.1c0.4,6.7,2.6,12,6.9,16.1c-1-1.4-1.8-2.9-2.4-4.6c-2.8-7.8-2.2-15.1,1.6-20.7
			c2.6-3.8,6.6-6.4,11.2-7.7c-6.5,0.1-12.7,3.2-16.3,8.5C256,35.5,255.7,38.4,255.8,41.1z"/>
		<path class="st0" d="M248.8,14.7c7.9-9.3,20.2-12.6,28.4-12.6c1.4,0,2.7,0.1,3.9,0.3c-0.8-0.3-1.7-0.6-2.6-0.8
			c-20.4-5.2-42.6,10.4-40.9,33.5c0.9,12.8,6.8,20.8,12.6,25.6c-3.9-4.4-6.7-10.4-8.1-18.8C240.5,31.2,242.7,21.8,248.8,14.7z"/>
		<path class="st0" d="M268.5,63c-8.9-4.7-13.5-11.8-14.1-21.8c-0.6-10.3,4.9-23.3,22-26c1.2-0.2,2.3-0.3,3.5-0.3
			c10.8,0,18,8.4,21.1,13.1c-1.1-6.2-4.8-19.2-16.7-23.3c-1.9-0.7-4.4-1-7.1-1c-7.8,0-19.7,3.2-27.3,12c-5.8,6.9-8,15.6-6.3,26.1
			c4,25.1,22.3,28.6,41.4,28.6h0c1.9,0,5.4-0.3,9-0.7c-1.8-0.2-5.2-0.5-10.2-1C278.8,68,273.1,66.3,268.5,63z"/>
		<path class="st0" d="M263.1,32.8c-3.6,5.2-4.1,12-1.5,19.3c3.5,9.6,13.8,14.1,22.3,15c0.1,0,0.3,0,0.4,0.1
			c-5.2-1.8-10.9-4.7-14.2-9.4c-7.3-10.6-5-20.6,0.9-24.6c3-2.1,6.6-3.2,10.4-3.2c4.3,0,7.8,1.4,9.4,2.6c1.8,1.2,3.3,3.6,4.3,5.4
			c-0.3-4.1-2.3-11.1-12.8-12.8c-1.1-0.2-2.2-0.3-3.4-0.3C272.6,24.9,266.6,27.8,263.1,32.8z"/>
	</g>
	<g>
		<path class="st0" d="M25.7,10.1v31H19V15.8H8.7v25.2H2v-31H25.7z"/>
		<path class="st0" d="M38.2,33.1l-2.1,8h-6.9l9-31h8.7l9.1,31h-7.1l-2.3-8H38.2z M45.7,27.9l-1.8-6.6c-0.5-1.8-1-4.1-1.5-6h-0.1
			c-0.4,1.8-0.9,4.2-1.4,6l-1.7,6.6H45.7z"/>
		<path class="st0" d="M96.1,23.2v4.7H84.7v-4.7H96.1z"/>
		<path class="st0" d="M105.9,16H98v-5.9h22.5V16h-8v25.1h-6.6V16z"/>
		<path class="st0" d="M124,10.5c2-0.4,4.9-0.6,9-0.6c4.1,0,7,0.8,9,2.5c1.9,1.6,3.1,4.1,3.1,7.2c0,3-1,5.6-2.7,7.4
			c-2.3,2.3-5.6,3.3-9.5,3.3c-0.9,0-1.7,0-2.3-0.1v11.1H124V10.5z M130.6,24.6c0.6,0.1,1.3,0.2,2.2,0.2c3.5,0,5.7-1.9,5.7-5.1
			c0-2.9-1.9-4.6-5.2-4.6c-1.3,0-2.3,0.1-2.7,0.3V24.6z"/>
		<path class="st0" d="M166.7,28h-10.8v7.4h12v5.7h-18.7v-31h18.1v5.7h-11.4v6.4h10.8V28z"/>
		<path class="st0" d="M178.6,10.1v9.2c0,5-0.1,9.9-0.3,14h0.2c1.5-3.6,3.5-7.7,5.2-11l6.3-12.2h6.8v31h-6.1v-9.2
			c0-4.8,0.1-9,0.5-13.1H191c-1.4,3.7-3.2,7.8-5,11l-6,11.2h-7.6v-31H178.6z M182.7,3c0,1.8,0.5,2.9,1.9,2.9c1.3,0,1.9-1,2-2.9h4.4
			c-0.3,3.9-2.7,5.7-6.6,5.7c-3.8,0-6-1.8-6.3-5.7H182.7z"/>
		<path class="st0" d="M205.6,46.5l0.2-5.4H223l0.2,5.4h5.2l0.3-10.8l-2.9-0.2V10.1h-19.2v8.3c0,3.8-0.3,7.2-1.2,10.3
			c-0.7,2.4-1.6,4.7-2.8,6.9l-2.4,0.2l0.2,10.8H205.6z M211.4,30.1c0.9-3.1,1.3-6.6,1.3-10.2v-4.1h6.4v19.6h-9.7
			C210.1,33.9,210.9,32,211.4,30.1z"/>
		<path class="st0" d="M59.9,10.2h6.5v13.6h0.1c0.6-1.2,1.3-2.3,2-3.4l6.5-10.3h8.1l-9.6,13.1l10.1,17.7H76l-7.1-13.3L66.4,31v10.1
			h-6.5V10.2z"/>
	</g>
	<rect x="2" y="49.5" class="st0" width="226.7" height="17.2"/>
	<g>
		<path class="st1" d="M12.1,55.5H9.6v6.8h-1v-6.8H6.2v-0.8h5.9V55.5z"/>
		<path class="st1" d="M17.7,58.8h-3.5v2.7h4v0.8h-5v-7.6h5v0.8h-4V58h3.5V58.8z"/>
		<path class="st1" d="M21.9,57.7l1.8-3h1.2l-2.4,3.8l2.5,3.8h-1.2l-1.8-3l-1.8,3h-1.2l2.5-3.8l-2.4-3.8h1.2L21.9,57.7z"/>
		<path class="st1" d="M31.9,62.3h-1V59h-3.7v3.4h-1v-7.6h1v3.4h3.7v-3.4h1V62.3z"/>
		<path class="st1" d="M39.5,59.2c0,0.9-0.3,1.7-0.9,2.3c-0.6,0.6-1.3,0.9-2.2,0.9c-0.9,0-1.6-0.3-2.2-0.9c-0.6-0.6-0.8-1.4-0.8-2.3
			v-1.3c0-0.9,0.3-1.7,0.8-2.3c0.6-0.6,1.3-0.9,2.2-0.9c0.9,0,1.7,0.3,2.2,0.9c0.6,0.6,0.9,1.4,0.9,2.3V59.2z M38.5,57.8
			c0-0.7-0.2-1.3-0.6-1.7c-0.4-0.4-0.9-0.7-1.5-0.7c-0.6,0-1.1,0.2-1.4,0.7c-0.4,0.4-0.5,1-0.5,1.7v1.4c0,0.7,0.2,1.3,0.5,1.7
			c0.4,0.4,0.8,0.7,1.4,0.7c0.6,0,1.1-0.2,1.5-0.7c0.4-0.4,0.6-1,0.6-1.7V57.8z"/>
		<path class="st1" d="M46.6,54.7v7.6h-1v-6.8h-2.7l0,2.8c0,1.4-0.2,2.4-0.5,3c-0.4,0.6-1,1-1.8,1h-0.3v-0.8h0.2
			c0.5,0,0.8-0.2,1-0.7c0.2-0.5,0.3-1.3,0.3-2.5l0-3.6H46.6z"/>
		<path class="st1" d="M54.2,59.2c0,0.9-0.3,1.7-0.9,2.3c-0.6,0.6-1.3,0.9-2.2,0.9c-0.9,0-1.6-0.3-2.2-0.9c-0.6-0.6-0.8-1.4-0.8-2.3
			v-1.3c0-0.9,0.3-1.7,0.8-2.3c0.6-0.6,1.3-0.9,2.2-0.9c0.9,0,1.7,0.3,2.2,0.9c0.6,0.6,0.9,1.4,0.9,2.3V59.2z M53.2,57.8
			c0-0.7-0.2-1.3-0.6-1.7c-0.4-0.4-0.9-0.7-1.5-0.7c-0.6,0-1.1,0.2-1.4,0.7c-0.4,0.4-0.5,1-0.5,1.7v1.4c0,0.7,0.2,1.3,0.5,1.7
			c0.4,0.4,0.8,0.7,1.4,0.7c0.6,0,1.1-0.2,1.5-0.7c0.4-0.4,0.6-1,0.6-1.7V57.8z"/>
		<path class="st1" d="M60.4,55.5h-3.6v6.8h-1v-7.6h4.7V55.5z"/>
		<path class="st1" d="M66.4,54.7h1v7.6h-1v-5.8l0,0l-3.7,5.8h-1v-7.6h1v5.8l0,0L66.4,54.7z"/>
		<path class="st1" d="M74,54.7h1v7.6h-1v-5.8l0,0l-3.7,5.8h-1v-7.6h1v5.8l0,0L74,54.7z"/>
		<path class="st1" d="M84.3,54.7h1v7.6h-1v-5.8l0,0l-3.7,5.8h-1v-7.6h1v5.8l0,0L84.3,54.7z"/>
		<path class="st1" d="M89.9,57.2L89.9,57.2c0-0.7,0.2-1.3,0.7-1.8c0.5-0.5,1.2-0.7,2-0.7c0.9,0,1.6,0.3,2.1,0.9
			c0.5,0.6,0.8,1.4,0.8,2.3v1.3c0,0.9-0.3,1.7-0.8,2.3c-0.5,0.6-1.2,0.9-2.1,0.9c-0.9,0-1.5-0.2-2-0.7c-0.5-0.5-0.8-1.1-0.7-1.8l0,0
			h1c0,0.5,0.2,1,0.5,1.3c0.3,0.3,0.8,0.5,1.3,0.5c0.6,0,1-0.2,1.4-0.7c0.3-0.5,0.5-1,0.5-1.7v-0.4h-3V58h3v-0.1
			c0-0.7-0.2-1.3-0.5-1.7c-0.3-0.5-0.8-0.7-1.4-0.7c-0.6,0-1,0.2-1.3,0.5c-0.3,0.3-0.5,0.7-0.5,1.3H89.9z"/>
		<path class="st1" d="M100.8,55.5h0.1c0.9,0,1.6,0.3,2.2,0.9c0.6,0.6,0.9,1.3,0.9,2.2c0,0.9-0.3,1.6-0.9,2.2
			c-0.6,0.6-1.3,0.9-2.2,0.9h-0.1v1h-1v-1h-0.2c-0.9,0-1.6-0.3-2.2-0.9c-0.6-0.6-0.9-1.3-0.9-2.2c0-0.9,0.3-1.6,0.9-2.2
			c0.6-0.6,1.3-0.9,2.2-0.9h0.2v-1.1h1V55.5z M99.6,56.3c-0.7,0-1.2,0.2-1.5,0.6c-0.4,0.4-0.5,1-0.5,1.6c0,0.7,0.2,1.2,0.5,1.7
			c0.4,0.4,0.9,0.6,1.5,0.6h0.2v-4.5H99.6z M100.8,56.3v4.5h0.1c0.6,0,1.1-0.2,1.5-0.6c0.4-0.4,0.5-1,0.5-1.7c0-0.7-0.2-1.2-0.5-1.6
			c-0.4-0.4-0.9-0.6-1.5-0.6H100.8z"/>
		<path class="st1" d="M109.1,55.5h0.1c0.9,0,1.6,0.3,2.2,0.9c0.6,0.6,0.9,1.3,0.9,2.2c0,0.9-0.3,1.6-0.9,2.2
			c-0.6,0.6-1.3,0.9-2.2,0.9h-0.1v1h-1v-1h-0.2c-0.9,0-1.6-0.3-2.2-0.9c-0.6-0.6-0.9-1.3-0.9-2.2c0-0.9,0.3-1.6,0.9-2.2
			c0.6-0.6,1.3-0.9,2.2-0.9h0.2v-1.1h1V55.5z M107.9,56.3c-0.7,0-1.2,0.2-1.5,0.6c-0.4,0.4-0.5,1-0.5,1.6c0,0.7,0.2,1.2,0.5,1.7
			c0.4,0.4,0.9,0.6,1.5,0.6h0.2v-4.5H107.9z M109.1,56.3v4.5h0.1c0.6,0,1.1-0.2,1.5-0.6c0.4-0.4,0.5-1,0.5-1.7
			c0-0.7-0.2-1.2-0.5-1.6c-0.4-0.4-0.9-0.6-1.5-0.6H109.1z"/>
		<path class="st1" d="M118.1,58.8h-3.5v2.7h4v0.8h-5v-7.6h5v0.8h-4V58h3.5V58.8z"/>
		<path class="st1" d="M121.8,58.9h-0.9v3.4h-1v-7.6h1v3.4h0.8l2.7-3.4h1.1l0,0l-2.9,3.6l3.2,3.9l0,0h-1.2L121.8,58.9z"/>
		<path class="st1" d="M131.9,55.5h-2.4v6.8h-1v-6.8H126v-0.8h5.9V55.5z"/>
		<path class="st1" d="M137.7,54.7h1v7.6h-1v-5.8l0,0l-3.7,5.8h-1v-7.6h1v5.8l0,0L137.7,54.7z"/>
		<path class="st1" d="M140.6,62.3v-7.6h2.5c0.8,0,1.4,0.2,1.9,0.5c0.4,0.3,0.7,0.9,0.7,1.5c0,0.3-0.1,0.6-0.3,0.9
			c-0.2,0.3-0.5,0.5-0.8,0.6c0.5,0.1,0.8,0.3,1.1,0.7c0.3,0.4,0.4,0.8,0.4,1.2c0,0.7-0.2,1.2-0.7,1.6c-0.5,0.4-1.1,0.5-1.8,0.5
			H140.6z M141.6,58h1.7c0.4,0,0.7-0.1,0.9-0.3c0.2-0.2,0.4-0.5,0.4-0.9c0-0.4-0.1-0.7-0.4-0.9c-0.3-0.2-0.6-0.3-1.1-0.3h-1.4V58z
			 M141.6,58.8v2.7h1.8c0.5,0,0.8-0.1,1.1-0.3c0.3-0.2,0.4-0.6,0.4-1c0-0.4-0.1-0.8-0.3-1c-0.2-0.3-0.6-0.4-1-0.4H141.6z"/>
		<path class="st1" d="M153.2,62.3h-1V59h-3.7v3.4h-1v-7.6h1v3.4h3.7v-3.4h1V62.3z"/>
		<path class="st1" d="M156.1,57.7h1.9c0.8,0,1.4,0.2,1.9,0.6c0.4,0.4,0.7,1,0.7,1.6c0,0.7-0.2,1.2-0.7,1.7
			c-0.5,0.4-1.1,0.6-1.9,0.6H155v-7.6h1V57.7z M156.1,58.5v3h1.9c0.5,0,0.9-0.1,1.2-0.4c0.3-0.3,0.4-0.7,0.4-1.1
			c0-0.4-0.1-0.8-0.4-1c-0.3-0.3-0.6-0.4-1.2-0.4H156.1z M162.5,62.3h-1v-7.6h1V62.3z"/>
		<path class="st1" d="M168.8,58.8h-3.5v2.7h4v0.8h-5v-7.6h5v0.8h-4V58h3.5V58.8z"/>
		<path class="st1" d="M174.3,59.3v3h-1v-7.6h2.9c0.8,0,1.4,0.2,1.9,0.6s0.7,1,0.7,1.6c0,0.7-0.2,1.2-0.7,1.7
			c-0.4,0.4-1.1,0.6-1.9,0.6H174.3z M174.3,58.5h1.9c0.5,0,0.9-0.1,1.2-0.4c0.3-0.3,0.4-0.6,0.4-1c0-0.4-0.1-0.8-0.4-1.1
			c-0.3-0.3-0.6-0.4-1.1-0.4h-1.9V58.5z"/>
		<path class="st1" d="M184.6,58.8h-3.5v2.7h4v0.8h-5v-7.6h5v0.8h-4V58h3.5V58.8z"/>
		<path class="st1" d="M187.3,54.7v6.8h2.6v-6.8h1v6.8h2.6v-6.8h1v7.6h-8.2v-7.6H187.3z"/>
		<path class="st1" d="M200.9,58.8h-3.5v2.7h4v0.8h-5v-7.6h5v0.8h-4V58h3.5V58.8z"/>
		<path class="st1" d="M208.3,62.3h-1V59h-3.7v3.4h-1v-7.6h1v3.4h3.7v-3.4h1V62.3z"/>
		<path class="st1" d="M214.9,54.7h1v7.6h-1v-5.8l0,0l-3.7,5.8h-1v-7.6h1v5.8l0,0L214.9,54.7z"/>
		<path class="st1" d="M218.5,62.3h-1.1l1.8-3.2c-0.5-0.2-0.9-0.5-1.1-0.8c-0.3-0.3-0.4-0.8-0.4-1.3c0-0.7,0.2-1.3,0.7-1.7
			c0.5-0.4,1.1-0.6,2-0.6h2.4v7.6h-1v-3h-1.7L218.5,62.3z M221.8,55.5h-1.4c-0.5,0-1,0.1-1.2,0.4c-0.3,0.3-0.4,0.6-0.4,1.1
			s0.1,0.8,0.4,1.1s0.7,0.4,1.2,0.4h1.4V55.5z"/>
	</g>
</g>
</svg>
