<?xml version="1.0" encoding="utf-8"?>
<!-- Generator: Adobe Illustrator 22.0.1, SVG Export Plug-In . SVG Version: 6.00 Build 0)  -->
<svg version="1.1" id="Слой_1" xmlns="http://www.w3.org/2000/svg" xmlns:xlink="http://www.w3.org/1999/xlink" x="0px" y="0px"
	 width="60px" height="60px" viewBox="0 0 60 60" enable-background="new 0 0 60 60" xml:space="preserve">
<g>
	<path fill="#0070BA" d="M27.481,28.779c0.909-1.297,2.278-2.213,3.849-2.65c-2.251,0.042-4.383,1.094-5.616,2.915
		c-0.291,0.97-0.394,1.964-0.345,2.89c0.124,2.321,0.899,4.143,2.376,5.554c-0.334-0.481-0.618-1.008-0.83-1.59
		C25.935,33.223,26.138,30.695,27.481,28.779z"/>
	<path fill="#0070BA" d="M22.934,22.849c2.727-3.194,6.983-4.326,9.796-4.326c0.468,0,0.918,0.031,1.341,0.089
		c-0.285-0.101-0.579-0.194-0.885-0.274c-7.038-1.808-14.694,3.597-14.115,11.54c0.322,4.421,2.35,7.169,4.361,8.828
		c-1.341-1.506-2.322-3.595-2.783-6.478C20.053,28.533,20.845,25.29,22.934,22.849z"/>
	<path fill="#0070BA" d="M35.179,19.368c-0.672-0.229-1.52-0.351-2.449-0.351c-2.709,0-6.802,1.086-9.421,4.152
		c-2.018,2.361-2.75,5.384-2.171,8.981c1.382,8.654,7.691,9.856,14.303,9.862h0.004c0.651,0,1.867-0.114,3.101-0.25
		c-0.611-0.054-1.8-0.163-3.521-0.358c-1.743-0.197-3.694-0.805-5.296-1.936c-3.072-1.604-4.669-4.076-4.855-7.51
		c-0.196-3.542,1.675-8.013,7.59-8.958c0.404-0.063,0.809-0.096,1.205-0.096c3.737,0,6.21,2.898,7.291,4.5
		C40.579,25.264,39.301,20.778,35.179,19.368z"/>
	<path fill="#0070BA" d="M30.637,29.195c1.046-0.717,2.291-1.1,3.603-1.1c1.47,0,2.677,0.474,3.261,0.882
		c0.62,0.429,1.133,1.23,1.472,1.872c-0.094-1.406-0.796-3.834-4.421-4.421c-0.385-0.061-0.776-0.094-1.164-0.094
		c-2.247,0-4.301,1.02-5.501,2.728c-1.247,1.779-1.428,4.146-0.509,6.664c1.213,3.319,4.776,4.854,7.699,5.186
		c0.052,0.006,0.101,0.012,0.149,0.019c-1.792-0.611-3.778-1.619-4.9-3.25C27.818,34.039,28.613,30.591,30.637,29.195z"/>
</g>
</svg>
