<?xml version="1.0" encoding="utf-8"?>
<!-- Generator: Adobe Illustrator 22.0.1, SVG Export Plug-In . SVG Version: 6.00 Build 0)  -->
<svg version="1.1" id="Слой_1" xmlns="http://www.w3.org/2000/svg" xmlns:xlink="http://www.w3.org/1999/xlink" x="0px" y="0px"
	 width="70.866px" height="70.866px" viewBox="0 0 70.866 70.866" enable-background="new 0 0 70.866 70.866" xml:space="preserve">
<g>
	<path fill="#39B396" d="M70.866,35.442c0,19.567-15.857,35.424-35.424,35.424S0,55.009,0,35.442C0,15.876,15.876,0,35.442,0
		S70.866,15.876,70.866,35.442L70.866,35.442z M70.866,35.442"/>
	<path fill="#FFFFFF" d="M53.593,19.843c-1.358-0.937-3.189-0.609-4.127,0.735l-16.522,23.73l-11.649-9.571
		c-1.27-1.026-3.13-0.838-4.167,0.417c-1.026,1.255-0.853,3.115,0.417,4.153l14.13,11.605c0.535,0.435,1.196,0.664,1.875,0.664
		c0.129,0,0.273,0,0.402-0.03c0.823-0.114,1.543-0.546,2.019-1.225l18.356-26.369C55.25,22.611,54.918,20.766,53.593,19.843
		L53.593,19.843z M53.593,19.843"/>
</g>
</svg>
