<?xml version="1.0" encoding="utf-8"?>
<!-- Generator: Adobe Illustrator 22.0.1, SVG Export Plug-In . SVG Version: 6.00 Build 0)  -->
<svg version="1.1" id="Слой_1" xmlns="http://www.w3.org/2000/svg" xmlns:xlink="http://www.w3.org/1999/xlink" x="0px" y="0px"
	 width="595.3px" height="131.4px" viewBox="0 0 595.3 131.4" style="enable-background:new 0 0 595.3 131.4;" xml:space="preserve"
	>
<style type="text/css">
	.st0{font-family:'Arial-BoldMT';}
	.st1{font-size:9.96px;}
	.st2{fill-rule:evenodd;clip-rule:evenodd;fill:#0970B8;}
	.st3{fill-rule:evenodd;clip-rule:evenodd;fill:#B2B2B2;}
	.st4{clip-path:url(#SVGID_2_);fill:#0970B8;}
</style>
<g>
	<text transform="matrix(1.0005 0 0 1 70.603 41.9795)" class="st0 st1"> </text>
	<g>
		<path class="st2" d="M0,96.9v8.5c143-40.2,302.3-65.7,471.3-74.9C302.3,37.5,142.8,59.7,0,96.9"/>
		<path class="st3" d="M0,111.9v19.5C176,76.5,378.8,44,595.3,38.5v-7C380.3,33.5,177.5,61.5,0,111.9"/>
	</g>
	<g>
		<defs>
			<rect id="SVGID_1_" x="29.9" y="0" width="194.4" height="46.2"/>
		</defs>
		<clipPath id="SVGID_2_">
			<use xlink:href="#SVGID_1_"  style="overflow:visible;"/>
		</clipPath>
		<path class="st4" d="M198.8,20.6c1.7-2.5,4.3-4.3,7.2-5.1c-4.2,0-8.2,2.1-10.6,5.5c-0.5,1.9-0.8,3.8-0.7,5.5
			c0.3,4.4,1.7,7.9,4.5,10.6c-0.6-0.9-1.2-1.9-1.6-3C195.9,29.1,196.3,24.3,198.8,20.6"/>
		<path class="st4" d="M190.2,9.3c5.1-6.1,13.1-8.3,18.4-8.3c0.9,0,1.7,0.1,2.5,0.2c-0.5-0.2-1.1-0.4-1.7-0.5
			c-13.3-3.4-27.7,6.9-26.6,22.1c0.6,8.5,4.4,13.7,8.2,16.9c-2.5-2.9-4.4-6.9-5.2-12.4C184.8,20.2,186.3,13.9,190.2,9.3"/>
		<path class="st4" d="M213.3,2.6C212,2.2,210.4,2,208.7,2c-5.1,0-12.8,2.1-17.7,7.9c-3.8,4.5-5.2,10.3-4.1,17.2
			c2.6,16.6,14.5,18.8,26.9,18.9c1.2,0,3.5-0.2,5.9-0.5c-1.2-0.1-3.4-0.3-6.7-0.7c-3.3-0.4-7-1.5-10-3.7c-5.8-3.1-8.8-7.8-9.1-14.4
			c-0.4-6.8,3.1-15.3,14.3-17.1c0.8-0.1,1.6-0.2,2.3-0.2c7,0,11.7,5.5,13.7,8.6C223.5,13.9,221.1,5.3,213.3,2.6"/>
		<path class="st4" d="M204.7,21.4c2-1.4,4.3-2.1,6.8-2.1c2.7,0,5.1,0.9,6.1,1.7c1.2,0.8,2.1,2.3,2.8,3.6c-0.2-2.7-1.5-7.3-8.3-8.5
			c-0.7-0.1-1.5-0.2-2.2-0.2c-4.3,0-8.1,2-10.4,5.2c-2.4,3.4-2.7,7.9-0.9,12.7c2.3,6.4,9,9.3,14.5,9.9c0.1,0,0.2,0,0.3,0
			c-3.4-1.2-7.1-3.1-9.2-6.2C199.4,30.7,200.9,24.1,204.7,21.4"/>
		<polygon class="st4" points="34.1,10 40.9,10 40.9,26.6 45.2,26.6 45.2,6.2 29.8,6.2 29.8,26.6 34.1,26.6 		"/>
		<path class="st4" d="M55.2,13.6c0.3-1.2,0.6-2.7,0.8-3.9h0.1c0.3,1.2,0.6,2.7,0.9,3.9l1.2,4.3H54L55.2,13.6z M53.4,21.4h5.5
			l1.5,5.2H65L59,6.2h-5.6l-5.8,20.4H52L53.4,21.4z"/>
		<rect x="83.5" y="14.9" class="st4" width="7.4" height="3.1"/>
		<polygon class="st4" points="97.3,26.6 101.7,26.6 101.7,10.1 106.9,10.1 106.9,6.2 92.2,6.2 92.2,10.1 97.3,10.1 		"/>
		<path class="st4" d="M113.4,9.7c0.3-0.1,0.9-0.2,1.8-0.2c2.1,0,3.4,1.1,3.4,3c0,2.1-1.4,3.3-3.7,3.3c-0.6,0-1.1,0-1.4-0.1V9.7z
			 M113.4,19.4c0.4,0,0.9,0.1,1.5,0.1c2.5,0,4.7-0.7,6.2-2.2c1.2-1.2,1.8-2.8,1.8-4.8c0-2-0.8-3.7-2-4.7c-1.3-1.1-3.1-1.6-5.8-1.6
			s-4.5,0.2-5.8,0.4v20.1h4.3V19.4z"/>
		<polygon class="st4" points="137.7,22.9 129.9,22.9 129.9,18 136.9,18 136.9,14.3 129.9,14.3 129.9,10 137.3,10 137.3,6.2 
			125.6,6.2 125.6,26.6 137.7,26.6 		"/>
		<path class="st4" d="M149.4,19.3c1.1-2.1,2.4-4.8,3.2-7.3h0.1c-0.2,2.7-0.3,5.5-0.3,8.6v6h4V6.2H152l-4.1,8
			c-1.2,2.2-2.4,4.9-3.4,7.3h-0.1c0.2-2.7,0.2-6,0.2-9.3v-6h-3.9v20.4h4.9L149.4,19.3z"/>
		<path class="st4" d="M148.5,5.3c2.5,0,4.1-1.2,4.3-3.8h-2.9c-0.1,1.2-0.4,1.9-1.3,1.9c-0.9,0-1.2-0.7-1.2-1.9h-2.9
			C144.6,4.1,146,5.3,148.5,5.3"/>
		<path class="st4" d="M171,22.9h-6.3c0.5-1,1-2.2,1.3-3.5c0.6-2,0.8-4.3,0.8-6.7V10h4.2V22.9z M175.3,6.2h-12.5v5.5
			c0,2.5-0.2,4.7-0.8,6.8c-0.4,1.6-1.1,3.1-1.8,4.5l-1.6,0.1l0.2,7.1h3.4l0.1-3.6h11.1l0.2,3.6h3.4l0.2-7.1l-1.9-0.1V6.2z"/>
		<path class="st4" d="M71.7,20l1.6-2.1l4.6,8.7h5L76.4,15l6.2-8.6h-5.2l-4.3,6.7c-0.4,0.8-0.9,1.5-1.3,2.3h0v-9h-4.2v20.3h4.2V20z"
			/>
		<path class="st4" d="M99.3,39.6c1,0,1.6-0.9,1.6-2c0-1-0.5-2-1.6-2c-1,0-1.5,0.9-1.5,2C97.8,38.6,98.4,39.6,99.3,39.6"/>
		<path class="st4" d="M131.5,35.7H130v0.9c0,0.8,0,1.5-0.2,2c-0.1,0.4-0.3,0.7-0.4,0.9h2.1V35.7z"/>
		<path class="st4" d="M126.2,36.6c-0.1-0.3-0.2-0.6-0.3-0.9c-0.1,0.3-0.1,0.6-0.3,0.9l-0.4,1.4h1.4L126.2,36.6z"/>
		<path class="st4" d="M139.8,38.5c0-0.8-0.6-1.1-1.3-1.1c-0.1,0-0.4,0-0.5,0v2.1c0.1,0,0.3,0,0.5,0
			C139.2,39.6,139.8,39.2,139.8,38.5"/>
		<path class="st4" d="M147,36.6c-0.1-0.3-0.2-0.6-0.3-0.9c-0.1,0.3-0.2,0.6-0.3,0.9l-0.4,1.4h1.4L147,36.6z"/>
		<path class="st4" d="M90.2,39.6c1,0,1.6-0.9,1.6-2c0-1-0.5-2-1.6-2c-1,0-1.6,0.9-1.6,2C88.7,38.6,89.3,39.6,90.2,39.6"/>
		<path class="st4" d="M29.8,43.6h147.3V32.2H29.8V43.6z"/>
		<path class="st4" d="M63.3,38.5c0-0.8-0.6-1.1-1.3-1.1c-0.2,0-0.4,0-0.5,0v2.1c0.2,0,0.3,0,0.5,0C62.7,39.6,63.3,39.2,63.3,38.5"
			/>
		<path class="st4" d="M50.4,36.4c0-0.6-0.4-0.8-1-0.8c-0.3,0-0.4,0-0.6,0v1.6h0.6C50,37.2,50.4,36.8,50.4,36.4"/>
		<path class="st4" d="M53.9,36.6c-0.1-0.3-0.2-0.6-0.3-0.9c-0.1,0.3-0.1,0.6-0.3,0.9L52.9,38h1.4L53.9,36.6z"/>
		<path class="st4" d="M50.5,38.6c0-0.7-0.6-0.9-1.2-0.9h-0.5v1.9c0.1,0,0.3,0,0.5,0C50,39.6,50.5,39.3,50.5,38.6"/>
		<path class="st4" d="M38.1,36.6c-0.1-0.3-0.2-0.6-0.3-0.9c-0.1,0.3-0.1,0.6-0.3,0.9L37.1,38h1.5L38.1,36.6z"/>
		<path class="st4" d="M174.2,36.6c-0.1-0.3-0.2-0.6-0.3-0.9c-0.1,0.3-0.2,0.6-0.3,0.9l-0.4,1.4h1.4L174.2,36.6z"/>
	</g>
</g>
</svg>
