<?xml version="1.0" encoding="utf-8"?>
<!-- Generator: Adobe Illustrator 22.0.1, SVG Export Plug-In . SVG Version: 6.00 Build 0)  -->
<svg version="1.1" id="Слой_1" xmlns="http://www.w3.org/2000/svg" xmlns:xlink="http://www.w3.org/1999/xlink" x="0px" y="0px"
	 width="20px" height="20px" viewBox="0 0 20 20" style="enable-background:new 0 0 20 20;" xml:space="preserve">
<style type="text/css">
	.st0{fill:#878787;}
</style>
<g>
	<g id="Printer_2_">
		<g>
			<path class="st0" d="M18.7,4.4h-2.5V0H3.7v4.4H1.2C0.6,4.4,0,4.9,0,5.6v10c0,0.7,0.6,1.2,1.2,1.2h2.5V20h12.5v-3.1h2.5
				c0.7,0,1.2-0.6,1.2-1.2v-10C20,4.9,19.4,4.4,18.7,4.4z M5.6,1.9h8.7v2.5H5.6V1.9z M14.4,18.1H5.6v-4.4h8.7V18.1z M18.1,15h-1.9
				v-3.1H3.7V15H1.9V6.2h16.2V15z M16.2,7.5h-1.9v1.9h1.9V7.5z"/>
		</g>
	</g>
</g>
</svg>
