<?xml version="1.0" encoding="utf-8"?>
<!-- Generator: Adobe Illustrator 22.0.1, SVG Export Plug-In . SVG Version: 6.00 Build 0)  -->
<svg version="1.1" id="Слой_1" xmlns="http://www.w3.org/2000/svg" xmlns:xlink="http://www.w3.org/1999/xlink" x="0px" y="0px"
	 width="11px" height="15px" viewBox="0 0 11 15" style="enable-background:new 0 0 11 15;" xml:space="preserve">
<style type="text/css">
	.st0{fill:#009FE3;}
</style>
<g>
	<path class="st0" d="M10.9,5.4c0-3-2.4-5.4-5.4-5.4c-3,0-5.4,2.4-5.4,5.4c0,1.2,0.5,2.2,1,3.1c0.8,1.7,2.4,4.4,3.2,5.8
		C4.6,14.7,5,15,5.6,15c0.5,0,1-0.3,1.2-0.7c0.8-1.4,2.2-3.8,3.1-5.8C10.3,7.5,10.9,6.5,10.9,5.4L10.9,5.4z M5.5,3.6
		c1,0,1.8,0.8,1.8,1.8c0,1-0.8,1.8-1.8,1.8c-1,0-1.8-0.8-1.8-1.8C3.7,4.4,4.5,3.6,5.5,3.6L5.5,3.6z M5.5,3.6"/>
</g>
</svg>
