<?xml version="1.0" encoding="utf-8"?>
<!-- Generator: Adobe Illustrator 22.0.1, SVG Export Plug-In . SVG Version: 6.00 Build 0)  -->
<svg version="1.1" id="Слой_1" xmlns="http://www.w3.org/2000/svg" xmlns:xlink="http://www.w3.org/1999/xlink" x="0px" y="0px"
	 width="1024px" height="768px" viewBox="0 0 1024 768" style="enable-background:new 0 0 1024 768;" xml:space="preserve">
<style type="text/css">
	.st0{fill:#F87400;}
	.st1{fill:#87CEE9;}
	.st2{fill:#195C85;}
	.st3{fill:#FFC107;}
	.st4{fill:#FFD54F;}
	.st5{fill:#FFFFFF;}
	.st6{fill:#6B89C9;}
	.st7{fill:#294DA0;}
	.st8{fill:none;}
</style>
<g>
	<g>
		<path class="st0" d="M9.3,17c-0.9,0-1.8-0.2-2.6-0.5S5.2,15.7,4.6,15s-1.1-1.5-1.4-2.4c-0.3-1-0.5-2.1-0.5-3.3S2.9,7,3.2,6
			C3.6,5,4,4.2,4.7,3.5C5.3,2.8,6,2.3,6.9,2c0.8-0.4,1.7-0.5,2.6-0.5s1.8,0.2,2.5,0.6s1.3,0.8,1.8,1.3L12.3,5
			c-0.4-0.4-0.8-0.7-1.3-1c-0.5-0.2-1-0.4-1.5-0.4C8.9,3.6,8.3,3.7,7.8,4S6.9,4.7,6.5,5.2s-0.7,1-0.9,1.7C5.4,7.6,5.3,8.3,5.3,9.2
			c0,1.7,0.4,3.1,1.1,4c0.7,1,1.7,1.5,3,1.5c0.7,0,1.3-0.1,1.8-0.4c0.5-0.3,1-0.7,1.4-1.1l1.4,1.7c-0.6,0.7-1.3,1.2-2.1,1.6
			C11.1,16.8,10.3,17,9.3,17z"/>
	</g>
	<path class="st0" d="M1.9,3.9C0.9,3.9,0,3,0,2s0.9-2,1.9-2s1.9,0.9,1.9,2S3,3.9,1.9,3.9z M1.9,0.7C1.2,0.7,0.7,1.3,0.7,2
		S1.3,3.3,2,3.3S3.2,2.7,3.2,2S2.6,0.7,1.9,0.7z"/>
</g>
<g>
	<g>
		<path class="st0" d="M23.9,300.8c-2.3,0-4.6-0.5-6.7-1.3s-3.9-2-5.4-3.8s-2.8-3.8-3.6-6.1c-0.8-2.5-1.3-5.3-1.3-8.3
			s0.5-5.8,1.3-8.3c1-2.5,2.1-4.6,3.9-6.3c1.5-1.8,3.3-3,5.7-3.8c2.1-1,4.4-1.3,6.7-1.3s4.6,0.5,6.4,1.5c1.8,1,3.3,2,4.6,3.3l-3.9,4
			c-1-1-2.1-1.8-3.3-2.5c-1.3-0.5-2.6-1-3.9-1c-1.5,0-3.1,0.3-4.4,1c-1.3,0.8-2.3,1.8-3.3,3s-1.8,2.5-2.3,4.3s-0.8,3.5-0.8,5.8
			c0,4.3,1,7.8,2.8,10.1c1.8,2.5,4.4,3.8,7.7,3.8c1.8,0,3.3-0.3,4.6-1c1.3-0.8,2.6-1.8,3.6-2.8l3.6,4.3c-1.5,1.8-3.3,3-5.4,4
			C28.5,300.3,26.5,300.8,23.9,300.8z"/>
	</g>
	<path class="st0" d="M4.9,267.7c-2.6,0-4.9-2.3-4.9-4.8s2.3-5.1,4.9-5.1s4.9,2.3,4.9,5.1S7.7,267.7,4.9,267.7z M4.9,259.6
		c-1.8,0-3.1,1.5-3.1,3.3s1.5,3.3,3.3,3.3s3.1-1.5,3.1-3.3S6.7,259.6,4.9,259.6z"/>
</g>
<g>
	<path class="st1" d="M27.7,10.6c0,4-1.8,6.4-5.5,6.4s-5.5-2.4-5.5-6.4S22.2,0,22.2,0S27.7,6.6,27.7,10.6z"/>
	<path class="st2" d="M21.4,15.7L21.4,15.7c-1.1-0.1-2-0.6-2.7-1.5c-1.3-1.8-0.9-4.4-0.8-4.5c0-0.2,0.2-0.4,0.5-0.3
		c0.2,0,0.4,0.2,0.3,0.5c0,0-0.3,2.4,0.7,3.9c0.5,0.7,1.3,1.1,2.1,1.2c0.2,0,0.4,0.2,0.4,0.4C21.8,15.5,21.6,15.7,21.4,15.7z"/>
</g>
<g>
	<path class="st1" d="M69,284.6c0,10.1-4.9,16.2-15,16.2s-15-6.1-15-16.2s15-26.8,15-26.8S69,274.5,69,284.6z"/>
	<path class="st2" d="M51.8,297.5L51.8,297.5c-3-0.3-5.5-1.5-7.4-3.8c-3.5-4.6-2.5-11.1-2.2-11.4c0-0.5,0.5-1,1.4-0.8
		c0.5,0,1.1,0.5,0.8,1.3c0,0-0.8,6.1,1.9,9.9c1.4,1.8,3.5,2.8,5.7,3c0.5,0,1.1,0.5,1.1,1C52.9,297,52.4,297.5,51.8,297.5z"/>
</g>
<g>
	<circle class="st3" cx="39.2" cy="8.5" r="5.5"/>
	<g>
		<path class="st4" d="M39.2,2.2c0.2,0,0.4-0.2,0.4-0.4V0.4c0-0.2-0.2-0.4-0.4-0.4s-0.4,0.2-0.4,0.4v1.5C38.8,2.1,39,2.2,39.2,2.2z"
			/>
		<path class="st4" d="M39.2,14.8c-0.2,0-0.4,0.2-0.4,0.4v1.5c0,0.2,0.2,0.4,0.4,0.4s0.4-0.2,0.4-0.4v-1.5
			C39.6,14.9,39.4,14.8,39.2,14.8z"/>
		<path class="st4" d="M47.3,8.1h-1.5c-0.2,0-0.4,0.2-0.4,0.4s0.2,0.4,0.4,0.4h1.5c0.2,0,0.4-0.2,0.4-0.4S47.5,8.1,47.3,8.1z"/>
		<path class="st4" d="M32.9,8.5c0-0.2-0.2-0.4-0.4-0.4H31c-0.2,0-0.4,0.2-0.4,0.4s0.2,0.4,0.4,0.4h1.5C32.7,8.9,32.9,8.7,32.9,8.5z
			"/>
		<path class="st4" d="M35.5,2.9c0.1,0.1,0.2,0.2,0.3,0.2s0.1,0,0.2,0c0.2-0.1,0.2-0.3,0.1-0.5l-0.7-1.3c-0.1-0.2-0.3-0.2-0.5-0.1
			s-0.2,0.3-0.1,0.5L35.5,2.9z"/>
		<path class="st4" d="M42.8,14.1c-0.1-0.2-0.3-0.2-0.5-0.1c-0.2,0.1-0.2,0.3-0.1,0.5l0.7,1.3c0.1,0.1,0.2,0.2,0.3,0.2
			s0.1,0,0.2-0.1c0.2-0.1,0.2-0.3,0.1-0.5L42.8,14.1z"/>
		<path class="st4" d="M44.9,5.5c0.1,0,0.1,0,0.2-0.1l1.3-0.7c0.2-0.1,0.3-0.3,0.2-0.5S46.3,3.9,46.1,4l0,0l-1.3,0.7
			c-0.2,0.1-0.2,0.3-0.1,0.5C44.7,5.5,44.8,5.5,44.9,5.5L44.9,5.5L44.9,5.5z"/>
		<path class="st4" d="M33.2,11.5L32,12.2c-0.2,0.1-0.2,0.3-0.1,0.5c0.1,0.1,0.2,0.2,0.3,0.2c0.1,0,0.1,0,0.2-0.1l1.3-0.7
			c0.2-0.1,0.3-0.3,0.2-0.5S33.4,11.4,33.2,11.5C33.3,11.5,33.3,11.5,33.2,11.5L33.2,11.5z"/>
		<path class="st4" d="M32,4.8l1.3,0.7c0.1,0,0.1,0.1,0.2,0.1c0.2,0,0.4-0.2,0.4-0.4c0-0.1-0.1-0.3-0.2-0.3l-1.3-0.7
			c-0.2-0.1-0.4-0.1-0.5,0.1C31.7,4.4,31.8,4.6,32,4.8C31.9,4.7,32,4.7,32,4.8L32,4.8z"/>
		<path class="st4" d="M46.4,12.2l-1.3-0.7c-0.2-0.1-0.4-0.1-0.5,0.1c-0.1,0.2-0.1,0.4,0.1,0.5l0,0l1.3,0.7c0.1,0,0.1,0.1,0.2,0.1
			c0.2,0,0.4-0.2,0.4-0.4C46.6,12.4,46.5,12.3,46.4,12.2L46.4,12.2L46.4,12.2z"/>
		<path class="st4" d="M42.3,3.1c0.1,0,0.1,0,0.2,0c0.1,0,0.3-0.1,0.3-0.2l0.7-1.3c0.1-0.2,0-0.4-0.1-0.5c-0.2-0.1-0.4,0-0.5,0.1
			l-0.7,1.3C42.1,2.7,42.2,3,42.3,3.1z"/>
		<path class="st4" d="M36,13.9c-0.2-0.1-0.4,0-0.5,0.1l-0.7,1.3c-0.1,0.2,0,0.4,0.1,0.5c0.1,0,0.1,0.1,0.2,0.1
			c0.1,0,0.3-0.1,0.3-0.2l0.7-1.3C36.3,14.3,36.2,14,36,13.9L36,13.9z"/>
	</g>
</g>
<g>
	<circle class="st3" cx="93.6" cy="279.2" r="13.8"/>
	<g>
		<path class="st4" d="M93.6,263.3c0.5,0,1-0.5,1-1v-3.5c0-0.5-0.5-1-1-1s-1,0.5-1,1v3.8C92.6,263.1,93.1,263.3,93.6,263.3z"/>
		<path class="st4" d="M93.6,295c-0.5,0-1,0.5-1,1v3.8c0,0.5,0.5,1,1,1s1-0.5,1-1V296C94.6,295.3,94.1,295,93.6,295z"/>
		<path class="st4" d="M114,278.2h-3.8c-0.5,0-1,0.5-1,1s0.5,1,1,1h3.8c0.5,0,1-0.5,1-1S114.5,278.2,114,278.2z"/>
		<path class="st4" d="M77.8,279.2c0-0.5-0.5-1-1-1H73c-0.5,0-1,0.5-1,1s0.5,1,1,1h3.8C77.3,280.2,77.8,279.7,77.8,279.2z"/>
		<path class="st4" d="M84.3,265.1c0.3,0.3,0.5,0.5,0.8,0.5s0.3,0,0.5,0c0.5-0.3,0.5-0.8,0.3-1.3l-1.8-3.3c-0.3-0.5-0.8-0.5-1.3-0.3
			c-0.5,0.3-0.5,0.8-0.3,1.3L84.3,265.1z"/>
		<path class="st4" d="M102.7,293.3c-0.3-0.5-0.8-0.5-1.3-0.3c-0.5,0.3-0.5,0.8-0.3,1.3l1.8,3.3c0.3,0.3,0.5,0.5,0.8,0.5
			s0.3,0,0.5-0.3c0.5-0.3,0.5-0.8,0.3-1.3L102.7,293.3z"/>
		<path class="st4" d="M108,271.6c0.3,0,0.3,0,0.5-0.3l3.3-1.8c0.5-0.3,0.8-0.8,0.5-1.3s-0.8-0.8-1.3-0.5l0,0l-3.3,1.8
			c-0.5,0.3-0.5,0.8-0.3,1.3C107.5,271.6,107.7,271.6,108,271.6L108,271.6L108,271.6z"/>
		<path class="st4" d="M78.5,286.7l-3,1.8c-0.5,0.3-0.5,0.8-0.3,1.3c0.3,0.3,0.5,0.5,0.8,0.5s0.3,0,0.5-0.3l3.3-1.8
			c0.5-0.3,0.8-0.8,0.5-1.3C80,286.5,79,286.5,78.5,286.7C78.8,286.7,78.8,286.7,78.5,286.7L78.5,286.7z"/>
		<path class="st4" d="M75.5,269.9l3.3,1.8c0.3,0,0.3,0.3,0.5,0.3c0.5,0,1-0.5,1-1c0-0.3-0.3-0.8-0.5-0.8l-3.3-1.8
			c-0.5-0.3-1-0.3-1.3,0.3C74.8,268.9,75,269.4,75.5,269.9C75.3,269.6,75.5,269.6,75.5,269.9L75.5,269.9z"/>
		<path class="st4" d="M111.7,288.5l-3.3-1.8c-0.5-0.3-1-0.3-1.3,0.3c-0.3,0.5-0.3,1,0.3,1.3l0,0l3.3,1.8c0.3,0,0.3,0.3,0.5,0.3
			c0.5,0,1-0.5,1-1C112.2,289,112,288.7,111.7,288.5L111.7,288.5L111.7,288.5z"/>
		<path class="st4" d="M101.4,265.6c0.3,0,0.3,0,0.5,0c0.3,0,0.8-0.3,0.8-0.5l1.8-3.3c0.3-0.5,0-1-0.3-1.3c-0.5-0.3-1,0-1.3,0.3
			l-1.8,3.3C100.9,264.6,101.2,265.3,101.4,265.6z"/>
		<path class="st4" d="M85.6,292.8c-0.5-0.3-1,0-1.3,0.3l-1.8,3.3c-0.3,0.5,0,1,0.3,1.3c0.3,0,0.3,0.3,0.5,0.3s0.8-0.3,0.8-0.5
			l1.8-3.3C86.3,293.8,86.1,293,85.6,292.8L85.6,292.8z"/>
	</g>
</g>
<g>
	<path class="st0" d="M60,11c-0.5,0-1.1-0.1-1.8-0.3C56.9,10.2,55.3,9.3,54,8s-2.4-2.6-2.9-3.9s-0.5-2.4,0.1-2.9
		c0-0.1,0-0.2,0.1-0.2c0.5-0.5,1.1-1,2-1c0.6,0,1.1,0.3,1.6,0.9c1.5,1.6,0.9,2.4,0,3.1l0,0c0.1,0.2,0.3,0.6,1.5,1.7
		C57,6.4,57.5,6.8,57.8,7c0.2,0.2,0.3,0.2,0.4,0.2l0,0c0.9-0.8,1.6-1.3,3.4,0c0.7,0.4,1,0.9,1,1.4c0,0.8-0.6,1.3-1,1.7l-0.2,0.2
		C61.1,10.8,60.6,11,60,11z"/>
</g>
<g>
	<path class="st5" d="M160.3,18.6c-0.8,0-1.9-0.2-3-0.5c-2.2-0.8-4.9-2.4-7.1-4.6s-4-4.4-4.9-6.6s-0.8-4,0.2-4.9
		c0-0.2,0-0.3,0.2-0.3c0.8-0.8,1.9-1.7,3.4-1.7c1,0,1.9,0.5,2.7,1.5c2.5,2.7,1.5,4,0,5.2l0,0c0.2,0.3,0.5,1,2.5,2.9
		c1,1.2,1.9,1.9,2.4,2.2c0.3,0.3,0.5,0.3,0.7,0.3l0,0c1.5-1.3,2.7-2.2,5.7,0c1.2,0.7,1.7,1.5,1.7,2.4c0,1.3-1,2.2-1.7,2.9l-0.3,0.3
		C162.2,18.3,161.3,18.6,160.3,18.6z"/>
</g>
<g>
	<path class="st0" d="M75.4,3.5L75.4,3.5l-4.3-3.3C71,0.1,70.9,0,70.6,0c-0.2,0-0.3,0.1-0.4,0.2l-4.3,3.3c-0.2,0.2-0.2,0.4-0.2,0.5
		v6.4c0,0.4,0.2,0.6,0.7,0.6h3V7.8c0-0.3,0.3-0.6,0.7-0.6h1.3c0.4,0,0.7,0.3,0.7,0.6V11h3c0.4,0,0.7-0.2,0.7-0.6V5.8V5.7V4
		C75.7,3.8,75.6,3.6,75.4,3.5z"/>
</g>
<g>
	<g>
		<path class="st0" d="M112.2,7l-1.9-1.5L105,9.7c0.2,0.2,0.5,0.3,0.7,0.3h12.8c0.3,0,0.5-0.1,0.7-0.3L114,5.5L112.2,7z"/>
		<path class="st0" d="M119.3,0.3c-0.2-0.2-0.5-0.3-0.7-0.3h-12.8c-0.3,0-0.5,0.1-0.7,0.3l7.2,5.7L119.3,0.3z"/>
		<polygon class="st0" points="104.7,0.9 104.7,9.2 109.9,5.1 		"/>
		<polygon class="st0" points="114.5,5.1 119.7,9.2 119.7,0.9 		"/>
	</g>
</g>
<g>
	<path class="st6" d="M134.4,38.3c-0.5-0.6-0.7-1.2-0.8-1.9c-0.2-1.4-0.4-2.8-0.6-4.2l0,0l0,0c0-0.1,0-0.2,0-0.4
		c-0.1-1.1-0.2-2.1-0.4-3.2c-0.4-2.7-1.9-4.6-4.4-5.9c-2-1-4.2-1.8-6.5-2.3c-2.6-0.5-5.3-0.8-8-0.3c-0.1,0-0.3,0-0.4,0
		c-3.4,0.5-6.6,1.6-9.4,3.6c-1.7,1.2-2.6,2.9-3,4.9c-0.3,1.5-0.5,2.9-0.7,4.4c-0.3,2.3-0.5,4.7-2.2,6.6c-0.2,0.2-0.3,0.6-0.3,1
		c-0.4,1.8-0.4,3.7,0,5.6c0.4,2,0.9,3.9,2.6,5.4c0.7,0.6,1.2,1.3,1.5,2.2c0.9,2.4,2.2,4.5,3.9,6.4c5.4,5.9,13.9,6.6,20.2,1.6
		c2.4-1.9,4-4.4,5.2-7.1c0.6-1.4,1.1-2.6,2.3-3.6c0.8-0.6,1.2-1.6,1.5-2.6c0.7-2,0.9-4.1,0.8-6.2C135.8,40.8,135.4,39.4,134.4,38.3z
		 M132.1,48c-0.2,0.5-0.5,1-0.9,1.2c-1.2,0.8-1.8,1.9-2.3,3.2c-0.9,2.5-2.2,4.9-4.3,6.7c-5.1,4.6-12.3,4.1-16.8-1.1
		c-1.7-1.9-2.8-4.1-3.6-6.5c-0.3-0.8-0.6-1.4-1.5-1.8c-0.7-0.3-1.1-0.9-1.3-1.6c-0.8-1.9-1.1-3.9-0.9-6c0.1-1.7,1.2-2.9,2.7-3.6
		c2.7-1.3,5.6-2.1,8.7-2.3c0.9-0.1,1.8-0.1,2.8-0.1c0.4,0,1.1,0,1,0.6c0,0.6-0.6,0.4-1,0.4c-3.5,0-6.9,0.6-10.2,2
		c-1.7,0.7-1.7,0.8-1,2.4c1.2,2.7,1.2,2.7,4.1,2c6.2-1.6,12.4-1.5,18.5,0.1c0.3,0.1,0.6,0.1,0.8,0.2c0.5,0.2,1,0.3,1.5,0
		c0.7-0.2,0.7-0.9,1-1.4c0.2-0.3,0.3-0.6,0.4-0.8c0.3-0.7,0.7-1.6,1.6-1.5c0.9,0.1,1.1,1,1.2,1.8C133.2,43.9,133,46,132.1,48z"/>
	<path class="st6" d="M135.1,65.4c-0.1-1.4-3-3-4.4-2.5c-0.2,0.1-0.4,0.2-0.6,0.4c-0.3,0.3-0.6,0.6-0.9,0.9
		c-3.8,3.6-8.3,5.4-13.7,5.1c-4.2-0.3-7.6-2.1-10.6-4.9c-0.4-0.4-0.8-0.8-1.3-1c-1.9-1-4.9,0.3-5,2.1c-0.5,8.5-0.8,17-0.5,25.6
		c0,1.2,0,2.5,0.1,3.7c0,1,0.6,1.3,1.8,1.2c0.8,0,1-0.5,1-1.3c-0.1-1.5-0.1-3.1-0.2-4.7c-0.1-1.4,0.1-1.6,1.5-1.5
		c6.8,0.4,13.6,0.8,20.4,0.5c2.6-0.1,5.2-0.1,7.7-0.4c0.4,0,0.8,0,1.2-0.1c1.5,0.1,1.5,0.2,1.5,1.6c-0.1,1.5-0.2,3.1-0.2,4.6
		c0,0.4-0.1,0.9,0.5,1.1c0.5,0.2,1,0,1.5,0c0.7,0,0.7-0.5,0.7-0.9c0.1-1.9,0.1-3.8,0.1-5.7c0.1-3.9,0.1-7.7,0-11.6
		C135.7,73.5,135.5,69.4,135.1,65.4z M121.5,84.9c-0.9,0.3-1.3,0.9-1.7,1.6c-0.3,0.6-0.7,1-1.5,1c-2.4-0.1-4.8-0.1-7.5,0
		c0.8-1.4,1.6-2.7,2.4-3.9c0.3-0.6,0.7-1.1,0.8-1.8c0.2-0.6,0.2-1.2,0-1.9c-0.9-2.6,2.3-7.2,5.5-7.9c0.4-0.1,0.7-0.2,1,0.2
		c0.2,0.3-0.1,0.6-0.2,0.8c-0.7,1.1-1.3,2.2-2,3.3c-0.5,0.7-0.3,1.2,0.5,1.6c1,0.6,2.1,1.2,3.1,1.8c0.7,0.4,1.3,0.2,1.7-0.5
		c0.7-1.1,1.3-2.3,2-3.4c0.1-0.2,0.2-0.5,0.6-0.5c0.4,0.1,0.5,0.3,0.6,0.7C127.4,79.9,125.3,83.7,121.5,84.9z"/>
	<path class="st6" d="M91.5,69.7c-0.2-0.1-0.4,0.1-0.6,0.2s-0.3,0.3-0.4,0.4c-3.2,3.2-5.9,6.9-7.9,11c-1.8,3.6-3.5,7.2-3.5,11.3
		c0,2.6,0.8,3.4,3.5,3.3c2.4,0.1,4.8,0.1,7.2,0l0,0c0.4-0.5,0.3-1.1,0.3-1.7c0.1-6.1,0.6-12.3,1.2-18.4c0.2-1.9,0.3-3.7,0.5-5.6
		C91.7,70.1,91.8,69.8,91.5,69.7z"/>
	<path class="st6" d="M154.9,91.4c-1.7-8.2-5.8-15.2-11.7-21.2c-0.2-0.2-0.4-0.7-0.8-0.5c-0.4,0.2-0.1,0.6-0.1,1
		c0.8,8,1.6,15.9,1.7,24c0,0.4-0.1,0.8,0.4,1.1c3,0.3,6,0.1,8.9,0c0.7-0.1,1.1-0.6,1.3-1.2C155,93.5,155.1,92.4,154.9,91.4z"/>
</g>
<g>
	<path class="st6" d="M75.7,93.4c-2.1-4.4-4.2-8.8-6.2-13.2c-0.7-1.5-1.6-2.7-2.8-3.8C48.6,58.3,30.5,40.1,12.4,22
		c-0.3-0.3-0.5-0.5-0.8-0.8c-0.6-0.5-1.3-0.7-2.1-0.7c-1,0-1.7,0.5-2.4,1.2c-1.8,1.8-3.7,3.7-5.5,5.5c-1.9,2-2,3.6,0,5.6
		c18.5,18.5,36.9,37,55.4,55.5c0.5,0.5,1,0.8,1.5,1.1c5,2.4,10.1,4.4,15.2,6.5c0.7,0.3,1.4,0.3,2-0.3C76.1,94.9,76.1,94.2,75.7,93.4
		z M9.9,36.7c-2.1-2.1-4.2-4.3-6.3-6.4c-0.2-0.2-0.3-0.4,0-0.7c1.9-1.9,3.8-3.7,5.6-5.6c0.1-0.1,0.2-0.2,0.3-0.3
		c0.2,0.1,0.3,0.3,0.4,0.4c2.1,2.1,4.1,4.2,6.2,6.2c0.3,0.3,0.3,0.5,0,0.8c-1.8,1.8-3.7,3.7-5.5,5.5C10.4,36.9,10.2,37,9.9,36.7z
		 M58,84.9c-0.2-0.2-0.4-0.4-0.5-0.6C42.7,69.5,28,54.7,13.2,40c-0.5-0.5-0.6-0.8,0-1.4c1.7-1.6,3.3-3.3,5-5c0.5-0.5,0.8-0.6,1.3,0
		c10.5,10.5,21,21,31.5,31.5c4.4,4.4,8.8,8.8,13.2,13.2c0.2,0.2,0.3,0.4,0.5,0.6c-0.1,0.1-0.2,0.2-0.3,0.3c-1.8,1.8-3.7,3.7-5.5,5.5
		C58.5,85.2,58.3,85.2,58,84.9z M61.3,87.1c1.8-1.8,3.6-3.6,5.4-5.4c1.5,3.1,3,6.3,4.5,9.6C67.8,89.9,64.5,88.5,61.3,87.1z"/>
	<path class="st6" d="M37.4,45.4c0.5,0.6,0.8,0.5,1.2,0c7.4-7.4,14.7-14.7,22-22c0.3-0.3,0.5-0.7,1-0.2c3.6,3.6,7.2,7.2,10.8,10.8
		c0.3,0.3,0.3,0.5,0,0.8c-0.9,0.9-1.9,1.8-2.7,2.8c-0.3,0.3-0.5,0.3-0.8,0c-1-1-2-2-3-3.1c-0.1-0.1-0.3-0.3-0.4-0.4
		c-0.3-0.3-0.7-0.5-1.1-0.1s-0.3,0.8,0.1,1.1c1.1,1.1,2.3,2.3,3.4,3.4c0.3,0.3,0.4,0.5,0,0.9c-0.7,0.6-1.3,1.3-1.9,2
		c-0.4,0.5-0.6,0.4-1,0c-1-1-1.9-2-2.9-2.9c-0.1-0.1-0.2-0.2-0.4-0.4c-0.4-0.4-0.8-0.6-1.2-0.1c-0.4,0.4-0.2,0.8,0.2,1.1
		c1.1,1.1,2.2,2.3,3.4,3.4c0.4,0.4,0.4,0.6,0,0.9c-0.8,0.7-1.6,1.5-2.3,2.3c-0.3,0.4-0.5,0.4-0.9,0c-1-1.1-2.2-2.2-3.2-3.3
		c-0.4-0.4-0.7-0.8-1.2-0.3s-0.1,0.9,0.3,1.3c1.1,1.1,2.1,2.2,3.2,3.2c0.3,0.3,0.4,0.5,0,0.9c-0.8,0.7-1.5,1.5-2.3,2.3
		c-0.4,0.4-0.6,0.3-0.9,0c-2.1-2.2-4.3-4.3-6.4-6.4c-0.2-0.2-0.3-0.3-0.5-0.5c-0.3-0.3-0.6-0.3-0.9,0c-0.3,0.3-0.3,0.6,0,0.9
		c0.1,0.2,0.3,0.3,0.5,0.5c2.1,2.1,4.2,4.3,6.4,6.4c0.4,0.4,0.5,0.6,0,1.1c-1.2,1.1-2.4,2.3-3.5,3.5c-0.4,0.4-0.6,0.4-1,0
		c-1-1.1-2.2-2.2-3.2-3.3c-0.4-0.4-0.8-0.7-1.2-0.2c-0.5,0.5-0.1,0.9,0.3,1.2c1.1,1.1,2.2,2.2,3.3,3.3c0.1,0.1,0.6,0.3,0.2,0.6
		c-0.8,0.6-0.3,0.9,0.2,1.3c0.2,0.2,0.5,0.5,0.7,0.7c0.4,0.6,0.7,0.4,1.1,0c4.3-4.3,8.6-8.7,12.9-13c3.1-3.1,6.2-6.2,9.3-9.3
		c0.6-0.6,1.1-1.3,1.1-2.3S75.6,32.6,75,32c-3.6-3.6-7.2-7.2-10.8-10.8c-1.8-1.8-3.2-1.8-5,0c-7,7.1-14.1,14.1-21.1,21.2
		c-1.1,0.6-1.9,1-1.9,1.6C36.2,44.4,37.1,44.9,37.4,45.4z"/>
	<path class="st6" d="M36.9,73.3c-0.5-0.4-0.9-1.3-1.4-1.2c-0.5,0-1,0.7-1.4,1.2c-0.4,0.4-0.6,0.3-0.9,0c-1-1-1.9-2-2.9-3
		c-0.4-0.4-0.8-0.7-1.3-0.2s-0.1,0.9,0.3,1.3c1,1,1.9,2,2.9,2.9c0.3,0.3,0.4,0.5,0,0.9c-0.7,0.6-1.4,1.3-2,2c-0.4,0.4-0.6,0.3-0.9,0
		c-1-1-2-2-3-3c-0.3-0.4-0.7-0.6-1.2-0.2s-0.2,0.8,0.2,1.2c1,1,2,2.1,3.1,3.1c0.3,0.3,0.4,0.5,0,0.8c-0.8,0.8-1.7,1.6-2.4,2.4
		c-0.4,0.4-0.5,0.3-0.9,0c-1-1-2-2-2.9-2.9c-0.4-0.4-0.8-0.7-1.2-0.3c-0.5,0.5-0.1,0.9,0.2,1.3c1,1,1.9,2,2.9,2.9
		c0.4,0.4,0.4,0.6,0,0.9c-1,0.9-1.9,1.8-2.8,2.8c-0.4,0.4-0.6,0.4-1,0c-2.1-2.2-4.3-4.3-6.4-6.4c-0.2-0.2-0.4-0.4-0.6-0.5
		C13,79,12.7,79,12.4,79.2c-0.2,0.2-0.3,0.5-0.2,0.7c0.1,0.3,0.3,0.5,0.5,0.7c2.2,2.2,4.3,4.3,6.5,6.5c0.4,0.4,0.4,0.6,0,1
		c-1.2,1.1-2.4,2.3-3.5,3.5c-0.4,0.4-0.6,0.4-1,0c-3.5-3.5-6.9-7-10.5-10.5c-0.5-0.5-0.6-0.8,0-1.3c6-6,12-12,18-18
		c0.5-0.5,1.4-1,1.4-1.6c-0.1-0.6-0.9-1-1.4-1.6c-0.3-0.3-0.5-0.4-0.8,0C14.9,65.2,8.3,71.8,1.7,78.4c-1.2,1.2-1.2,2.8,0,4.1
		c3.8,3.9,7.7,7.7,11.5,11.5c0.6,0.6,1.3,0.9,2.1,0.9c0.9,0,1.6-0.5,2.2-1.1c6.4-6.5,12.9-12.9,19.3-19.3
		C37.4,74,37.4,73.7,36.9,73.3z"/>
</g>
<g>
	<path class="st6" d="M158.2,27l5.1,8.9c0.2,0.3,0.5,0.5,0.8,0.6l4.7,1.2L185,53.8l1.8-1.8l-16.5-16.5c-0.2-0.2-0.4-0.3-0.6-0.3
		l-4.5-1.1l-4.3-7.6l3.7-3.7l7.6,4.3l1.1,4.5c0.1,0.2,0.2,0.4,0.3,0.6L190,48.8l1.8-1.8l-16.2-16.2l-1.2-4.7
		c-0.1-0.3-0.3-0.6-0.6-0.8l-8.9-5.1c-0.5-0.3-1.1-0.2-1.5,0.2l-5.1,5.1C158,25.8,157.9,26.5,158.2,27z"/>
	<path class="st6" d="M210.8,45L183,72.8l-1.8-1.8L209,43.2L210.8,45z"/>
	<path class="st6" d="M178.1,73.8c-0.2-0.4-0.6-0.6-1.1-0.6h-7.6c-0.4,0-0.9,0.2-1.1,0.6l-3.8,6.3c-0.2,0.4-0.2,0.9,0,1.3l3.8,6.3
		c0.2,0.4,0.6,0.6,1.1,0.6h7.6c0.4,0,0.9-0.2,1.1-0.6l3.8-6.3c0.2-0.4,0.2-0.9,0-1.3L178.1,73.8z M176.3,85.8h-6.2l-3-5.1l3-5.1h6.2
		l3,5.1L176.3,85.8z"/>
	<path class="st6" d="M218.8,50.4c8.4,0,15.2-6.7,15.2-15.1c0-1.3-0.2-2.5-0.5-3.8c-0.2-0.7-0.9-1.1-1.5-0.9
		c-0.2,0.1-0.4,0.2-0.6,0.3l-7.9,7.9l-6.3-2.1l-2.1-6.3l7.9-7.9c0.5-0.5,0.5-1.3,0-1.8c-0.2-0.2-0.4-0.3-0.6-0.3
		c-8.1-2.1-16.3,2.9-18.4,11c-0.3,1.2-0.5,2.5-0.5,3.8c0,1,0.1,2,0.3,3l-27.7,27.7c-1-0.2-2-0.3-3-0.3c-8.4,0-15.2,6.8-15.2,15.2
		S164.7,96,173.1,96s15.2-6.8,15.2-15.2c0-1-0.1-2-0.3-3l6.6-6.6l2.9,2.9c0.5,0.5,1.3,0.5,1.8,0l0.6-0.6c0.6-0.6,1.5-0.6,2,0
		c0.6,0.6,0.6,1.5,0,2l0,0l-0.6,0.6c-0.5,0.5-0.5,1.3,0,1.8L216.5,93c4,4,10.4,4,14.5,0.1c4-4,4-10.4,0.1-14.5c0,0,0,0-0.1-0.1
		l-15.1-15.1c-0.5-0.5-1.3-0.5-1.8,0l-0.6,0.6c-0.6,0.6-1.5,0.6-2,0c-0.6-0.6-0.6-1.5,0-2l0,0l0.6-0.6c0.5-0.5,0.5-1.3,0-1.8
		l-2.9-2.9l6.6-6.6C216.8,50.3,217.8,50.4,218.8,50.4z M223.7,93.4c-0.9,0-1.8-0.2-2.7-0.5l9.9-9.9c1.5,4-0.5,8.4-4.5,9.9
		C225.6,93.3,224.7,93.4,223.7,93.4z M209.4,60.5c-1.4,1.7-1.2,4.2,0.5,5.6c1.5,1.2,3.6,1.2,5.1,0l14.2,14.2
		c0.2,0.2,0.3,0.3,0.4,0.5l-10.8,10.8c-0.2-0.1-0.3-0.3-0.5-0.4L204.1,77c1.4-1.7,1.2-4.2-0.5-5.6c-1.5-1.2-3.6-1.2-5.1,0l-2-2
		l10.9-10.9L209.4,60.5z M214.5,47.8l-28.7,28.7c-0.3,0.3-0.4,0.8-0.3,1.2c1.7,6.8-2.4,13.8-9.2,15.5s-13.8-2.4-15.5-9.2
		c-1.7-6.8,2.4-13.8,9.2-15.5c2.1-0.5,4.2-0.5,6.3,0c0.4,0.1,0.9,0,1.2-0.3l28.7-28.7c0.3-0.3,0.4-0.8,0.3-1.2
		c-1.7-6.7,2.3-13.6,9.1-15.3c1.3-0.3,2.6-0.5,3.9-0.4l-6.7,6.7c-0.3,0.3-0.5,0.8-0.3,1.3l2.5,7.6c0.1,0.4,0.4,0.7,0.8,0.8l7.6,2.5
		c0.5,0.2,1,0,1.3-0.3l6.7-6.7c0,0.2,0,0.5,0,0.7c0,7-5.6,12.6-12.5,12.7c-1.1,0-2.1-0.1-3.2-0.4C215.3,47.4,214.8,47.5,214.5,47.8
		L214.5,47.8L214.5,47.8z"/>
	<path class="st6" d="M223.5,83.7l-1.8,1.8L209,72.8l1.8-1.8L223.5,83.7z"/>
</g>
<g>
	<path class="st7" d="M125.4,205.8l-5.5-5.7l1.1-7.9c0.2-1.2-0.6-2.3-1.8-2.5l-7.8-1.4l-3.7-7.1c-0.6-1.1-1.9-1.5-3-1l-7.1,3.5
		l-7.1-3.5c-1.1-0.5-2.4-0.1-3,1l-3.7,7.1l-7.8,1.4c-1.2,0.2-2,1.3-1.8,2.5l1.1,7.9l-5.5,5.7c-0.8,0.9-0.8,2.3,0,3.1l5.5,5.7
		l-1.1,7.9c-0.2,1.2,0.6,2.3,1.8,2.5l6.3,1.1v24.5c0,0.8,0.4,1.5,1.1,1.9c0.4,0.2,0.8,0.3,1.2,0.3c0.3,0,0.7-0.1,1-0.2l12.1-6.1
		l12.1,6.1c0.7,0.4,1.5,0.3,2.2-0.1s1.1-1.1,1.1-1.9v-24.5l6.3-1.1c1.2-0.2,2-1.3,1.8-2.5l-1.1-7.9l5.5-5.7
		C126.2,208.1,126.2,206.7,125.4,205.8z M98.5,242.1c-0.6-0.3-1.4-0.3-2,0l-9.9,5v-15l0.8,1.5c0.6,1.1,1.9,1.5,3,1l7.1-3.5l7.1,3.5
		c0.3,0.2,0.7,0.2,1,0.2c0.8,0,1.6-0.4,2-1.2l0.8-1.5v15L98.5,242.1z M115.9,212.4c-0.5,0.5-0.7,1.2-0.6,1.9l1,6.8l-6.8,1.2
		c-0.7,0.1-1.3,0.6-1.6,1.2l-3.2,6.1l-6.2-3c-0.3-0.2-0.6-0.2-1-0.2c-0.3,0-0.7,0.1-1,0.2l-6.2,3l-3.2-6.1c-0.3-0.6-0.9-1-1.6-1.2
		l-6.8-1.2l1-6.8c0.1-0.7-0.1-1.4-0.6-1.9l-4.8-5l4.8-5c0.5-0.5,0.7-1.2,0.6-1.9l-1-6.8l6.8-1.2c0.7-0.1,1.3-0.6,1.6-1.2l3.2-6.1
		l6.2,3c0.6,0.3,1.4,0.3,2,0l6.2-3l3.2,6.1c0.3,0.6,0.9,1,1.6,1.2l6.8,1.2l-1,6.8c-0.1,0.7,0.1,1.4,0.6,1.9l4.8,5L115.9,212.4z"/>
	<path class="st7" d="M97.5,191.9c-8.5,0-15.4,6.9-15.4,15.5c0,8.5,6.9,15.5,15.4,15.5s15.4-6.9,15.4-15.5
		C112.9,198.9,106,191.9,97.5,191.9z M97.5,218.4c-6,0-10.9-4.9-10.9-11c0-6,4.9-10.9,10.9-10.9s10.9,4.9,10.9,10.9
		S103.5,218.4,97.5,218.4z"/>
	<path class="st7" d="M102.1,201.7l-6.6,6.7l-2.5-2.5c-0.9-0.9-2.3-0.9-3.2,0c-0.9,0.9-0.9,2.3,0,3.2l4.1,4.1c0.4,0.4,1,0.7,1.6,0.7
		s1.2-0.2,1.6-0.7l8.2-8.3c0.9-0.9,0.9-2.3,0-3.2C104.4,200.8,103,200.8,102.1,201.7z"/>
</g>
<g>
	<g id="Layer_2_17_">
		<g>
			<path class="st7" d="M38.4,237.1c-0.5,0.1-1,0.3-1.6,0.4c-1.4,0.3-2.3,1.6-2,3c0,0.1,0,0.2,0.1,0.2c0.4,1.2,1.6,2,2.9,1.8
				c0.6-0.1,1.3-0.3,1.9-0.4c1.4-0.4,2.2-1.8,1.8-3.1C41.2,237.6,39.8,236.8,38.4,237.1z"/>
			<path class="st7" d="M20.7,235.7c-0.5-0.2-1-0.5-1.5-0.7c-1.2-0.6-2.8-0.2-3.4,1.1c-0.3,0.6-0.4,1.3-0.2,1.9
				c0.2,0.6,0.6,1.2,1.3,1.5c0.6,0.3,1.1,0.6,1.7,0.8c1.3,0.6,2.8,0,3.4-1.3C22.6,237.8,22,236.3,20.7,235.7z"/>
			<path class="st7" d="M29.5,237.9c-0.5,0-1.1-0.1-1.6-0.2c-1.4-0.2-2.7,0.8-2.9,2.2c-0.1,0.4,0,0.7,0.1,1.1
				c0.3,0.9,1.1,1.6,2.1,1.8c0.6,0.1,1.3,0.2,1.9,0.2c1.4,0.1,2.6-0.9,2.7-2.3C31.9,239.3,30.9,238.1,29.5,237.9z"/>
			<path class="st7" d="M46.6,233.3c-0.4,0.3-0.9,0.6-1.4,0.9c-1,0.6-1.4,1.8-1.1,2.9c0.1,0.2,0.1,0.4,0.3,0.6
				c0.7,1.2,2.3,1.6,3.5,0.9c0.5-0.3,1.1-0.7,1.6-1c1.2-0.8,1.4-2.4,0.7-3.5C49.3,232.8,47.7,232.5,46.6,233.3z"/>
			<path class="st7" d="M56.6,226.5c-1.1-0.8-2.7-0.6-3.5,0.6c-0.3,0.4-0.6,0.9-1,1.3c-0.6,0.7-0.7,1.6-0.5,2.3
				c0.1,0.5,0.4,0.9,0.8,1.2c1.1,0.9,2.7,0.7,3.6-0.4c0.4-0.5,0.8-1,1.2-1.5C57.9,228.9,57.7,227.3,56.6,226.5z"/>
			<path class="st7" d="M60.1,217.2c-1.3-0.4-2.8,0.4-3.1,1.7c-0.2,0.5-0.3,1-0.5,1.5s-0.2,1.1,0,1.6c0.2,0.7,0.8,1.4,1.6,1.7
				c1.3,0.5,2.8-0.2,3.2-1.5c0.2-0.6,0.4-1.2,0.6-1.8C62.2,219,61.4,217.6,60.1,217.2z"/>
			<path class="st7" d="M64.9,200.7l-3.3,1c-2.5-7.8-7.9-14.1-15.1-18c-0.7-0.4-1.5-0.7-2.2-1.1l0,0h-0.1
				c-6.6-2.9-13.8-3.4-20.8-1.5c-0.1,0-0.1,0-0.2,0c-0.2,0.1-0.5,0.1-0.7,0.2c-0.4,0.1-0.8,0.2-1.1,0.4c0,0-0.1,0-0.1,0.1
				C15.1,184,9.8,187.9,6,193.2c0,0,0,0,0,0.1c-0.4,0.5-0.7,1.1-1.1,1.6c0,0,0,0.1-0.1,0.1c-0.3,0.5-0.7,1.1-1,1.7
				c-3.1,5.8-4.3,12.4-3.5,18.8l0,0l0,0c0.2,1.7,0.6,3.4,1.1,5.1c1.3,4.5,3.6,8.5,6.7,11.9c0.9,1,2.5,1.1,3.6,0.2
				c1-0.9,1.1-2.5,0.2-3.6c-1.5-1.7-2.8-3.6-3.8-5.6v-0.1c-0.2-0.5-0.5-1-0.7-1.5l0,0c-0.4-0.9-0.7-1.8-1-2.8
				c-3.3-11,0.9-22.6,9.7-29c0.1-0.1,0.3-0.2,0.4-0.3c2.3-1.6,4.8-2.9,7.6-3.7s5.6-1.2,8.4-1.1h0.1c0.2,0,0.3,0,0.5,0
				c0.1,0,0.1,0,0.2,0c8.7,0.5,16.7,5.4,21.1,12.9l0,0c0.1,0.1,0.1,0.2,0.2,0.3l0,0c0.9,1.5,1.6,3.1,2.1,4.8l-3.3,1
				c-0.9,0.3-1,1-0.2,1.5l7.3,4.7c0.8,0.5,1.8,0.2,2.2-0.7l3.3-8C66.2,200.9,65.8,200.4,64.9,200.7z"/>
			<path class="st7" d="M22.2,211.6c-2.4,1.8-4.1,3.4-5,4.7s-1.4,2.8-1.6,4.3h15.3v-4.2h-8c0.5-0.5,0.9-0.8,1.2-1.1
				c0.3-0.3,1-0.8,2.1-1.5c1.7-1.2,2.9-2.3,3.6-3.4c0.7-1,1-2.1,1-3.2c0-1.1-0.3-2-0.9-2.8s-1.4-1.5-2.4-1.9s-2.4-0.6-4.2-0.6
				c-1.7,0-3.1,0.2-4,0.6c-1,0.4-1.7,1-2.3,1.9c-0.5,0.8-0.9,1.9-1.1,3.4l5.1,0.4c0.1-1,0.4-1.8,0.8-2.2s0.9-0.6,1.6-0.6
				c0.6,0,1.1,0.2,1.6,0.6c0.4,0.4,0.6,0.9,0.6,1.4s-0.2,1.1-0.6,1.6C24.7,209.6,23.7,210.5,22.2,211.6z"/>
			<path class="st7" d="M46.3,220.5v-3.4h2.3v-4h-2.3v-11.3h-4.4l-9.3,11v4.2h9.3v3.4h4.4V220.5z M36.9,213.2l4.9-5.8v5.8H36.9z"/>
		</g>
	</g>
</g>
<g>
	<path class="st8" d="M140.2,220.3c0-0.3,0-0.3-0.3-0.2c-1.7,0.7-3.4,1.4-5.1,2.2c-0.8,0.3-1.4,0.9-1.8,1.6
		c-0.1,0.2-0.2,0.4-0.4,0.6c-0.7,1.4-1.2,2.9-1.6,4.5c-0.4,1.6-0.6,3.3-0.8,4.9c0,0.2,0,0.2,0.2,0.2c1.3,0,2.7,0,4,0s2.6,0,4,0
		c0.2,0,0.2,0,0.2-0.2c0-2.2,0-4.4,0-6.7c0-0.5,0.3-0.8,0.8-0.8c0.2,0,0.3,0,0.5,0s0.2,0,0.2-0.2c0-1.5,0-3,0-4.5
		C140.3,221.2,140.2,220.7,140.2,220.3z"/>
	<path class="st8" d="M156.3,189.4c0.3-0.2,0.3-0.5,0-0.6c-0.2-0.1-0.3-0.1-0.5-0.1s-0.4,0.1-0.6,0.2c-0.2,0.2-0.2,0.4,0,0.5
		C155.5,189.5,156.1,189.5,156.3,189.4z"/>
	<path class="st8" d="M197.9,183.2c0.4-0.3,0.4-0.7,0-1c-0.3-0.2-0.5-0.2-0.8-0.2s-0.7,0.1-0.9,0.3c-0.3,0.3-0.3,0.6,0,0.8
		C196.6,183.5,197.5,183.5,197.9,183.2z"/>
	<path class="st8" d="M147.6,189.4c0.3,0.1,0.7,0.1,1-0.1c0.3-0.2,0.2-0.4,0-0.6c-0.2-0.1-0.4-0.1-0.6-0.1c-0.1,0-0.2,0-0.3,0
		c-0.2,0.1-0.3,0.2-0.4,0.4C147.2,189.3,147.4,189.4,147.6,189.4z"/>
	<path class="st8" d="M146.8,214.9c0,0.4,0,0.8,0,1.2c0.1,1.3,0.5,2.5,1.3,3.5c1.8,2.3,4.9,2.6,7,0.5c1.4-1.4,1.8-3.2,1.8-5.1
		c-1.6,1-3.2,1.7-5.1,1.7C150,216.6,148.4,215.9,146.8,214.9z"/>
	<path class="st8" d="M151.8,215.3c1.7,0,3.1-0.6,4.3-1.7c1.3-1.2,2.1-2.7,2.7-4.4c0.1-0.5,0.4-0.9,0.7-1.2c0.7-0.7,1.2-1.5,1.6-2.5
		c0.5-1.1,0.7-2.3,0.5-3.6c-0.6,1.1-1.3,2.2-1.9,3.2c0-0.1,0-0.2,0-0.2c0-0.8,0-1.7,0-2.5c0-0.1,0-0.2-0.1-0.3c-2.1-1.1-4.2-2-6.6-2
		c-1.3,0-2.6-0.1-3.9,0.2c-1.5,0.3-2.9,0.9-4.3,1.6c-0.2,0.1-0.6,0.2-0.7,0.4c-0.1,0.2,0,0.5,0,0.8c0,0.7,0,1.4,0,2.1H144
		c-0.6-1-1.2-2.1-1.9-3.2c-0.1,0.6-0.1,1.1,0,1.7c0.3,1.6,1,3,2.1,4.2c0.4,0.4,0.7,0.9,0.8,1.4c0.5,1.5,1.2,2.9,2.3,4
		C148.6,214.5,150.1,215.3,151.8,215.3z"/>
	<path class="st8" d="M218,232.5L218,232.5c0.1-1.7,0.1-3.5,0.1-5.3c0-0.5,0.3-0.8,0.8-0.8c0.2,0,0.3,0,0.5,0s0.2,0,0.2-0.2
		c0-1.5,0-3,0-4.5c0-0.5,0-0.9,0-1.4c0-0.3,0-0.3-0.3-0.2c-1.7,0.7-3.4,1.4-5.1,2.2c-0.8,0.3-1.4,0.9-1.8,1.6
		c-0.1,0.2-0.2,0.4-0.4,0.6c-0.7,1.4-1.2,2.9-1.6,4.5c0,0.1,0,0.1,0,0.2c0.9,0.4,1.8,0.7,2.6,1.1C214.7,231,216.3,231.8,218,232.5z"
		/>
	<path class="st8" d="M172.1,227.1c-0.4-1.3-0.9-2.5-1.6-3.6c-0.3-0.5-0.7-0.8-1.2-1.1c-1.1-0.6-2.3-1.1-3.5-1.6
		c-0.7-0.3-1.4-0.6-2.2-0.9c0,0.1,0,0.1,0,0.1c-0.1,2.1-0.1,4.1-0.1,6.2c0,0.1,0.1,0.1,0.1,0.1c0.2,0,0.5,0,0.7,0
		c0.4,0.1,0.6,0.4,0.6,0.7c0,1.6,0,3.2,0,4.9c2.5-1.1,5.1-2.2,7.6-3.3C172.4,228.2,172.3,227.7,172.1,227.1z"/>
	<path class="st8" d="M158.5,217.5c-0.4-0.2-0.4-0.2-0.5,0.2c-0.4,1.4-1.1,2.7-2.3,3.6c-1.6,1.3-3.5,1.7-5.4,1.2
		c-1.8-0.5-3.1-1.7-3.9-3.3c-0.3-0.5-0.5-1.1-0.6-1.7c0-0.2-0.1-0.2-0.3-0.1c-0.2,0.1-0.3,0.2-0.5,0.3c-0.1,0.1-0.2,0.2-0.2,0.3
		c0,2.7,0,5.4,0,8.1c0,0.2,0.1,0.2,0.2,0.2c2.3,0,4.6,0,6.9,0c2.3,0,4.6,0,6.9,0c0.2,0,0.3-0.1,0.3-0.3c0-2.6,0-5.2,0-7.7
		C159,218,158.9,217.7,158.5,217.5z"/>
	<path class="st8" d="M231.1,215.3c1.7,0,3.1-0.6,4.3-1.7c1.3-1.2,2.1-2.7,2.7-4.4c0.1-0.5,0.4-0.9,0.7-1.2c0.7-0.7,1.2-1.5,1.6-2.5
		c0.5-1.1,0.7-2.3,0.5-3.6c-0.6,1.1-1.3,2.2-1.9,3.2c0-0.1,0-0.2,0-0.2c0-0.8,0-1.7,0-2.5c0-0.1,0-0.2-0.1-0.3c-2.1-1.1-4.2-2-6.6-2
		c-1.3,0-2.6-0.1-3.9,0.2c-1.5,0.3-2.9,0.9-4.3,1.6c-0.2,0.1-0.6,0.2-0.7,0.4c-0.1,0.2,0,0.5,0,0.8c0,0.7,0,1.4,0,2.1h-0.1
		c-0.6-1-1.2-2.1-1.9-3.2c-0.1,0.6-0.1,1.1,0,1.7c0.3,1.6,1,3,2.1,4.2c0.4,0.4,0.7,0.9,0.8,1.4c0.5,1.5,1.2,2.9,2.3,4
		C227.8,214.5,229.3,215.3,231.1,215.3z"/>
	<path class="st8" d="M226.8,189.4c0.3,0.1,0.7,0.1,1-0.1c0.3-0.2,0.2-0.4,0-0.6c-0.2-0.1-0.4-0.1-0.6-0.1c-0.1,0-0.2,0-0.3,0
		c-0.2,0.1-0.3,0.2-0.4,0.4C226.5,189.3,226.6,189.4,226.8,189.4z"/>
	<path class="st8" d="M226.1,214.9c0,0.4,0,0.8,0,1.2c0.1,1.3,0.5,2.5,1.3,3.5c1.8,2.3,4.9,2.6,7,0.5c1.4-1.4,1.8-3.2,1.8-5.1
		c-1.6,1-3.2,1.7-5.1,1.7C229.2,216.6,227.6,215.9,226.1,214.9z"/>
	<path class="st8" d="M237.7,217.5c-0.4-0.2-0.4-0.2-0.5,0.2c-0.4,1.4-1.1,2.7-2.3,3.6c-1.6,1.3-3.5,1.7-5.4,1.2
		c-1.8-0.5-3.1-1.7-3.9-3.3c-0.3-0.5-0.5-1.1-0.6-1.7c0-0.2-0.1-0.2-0.3-0.1c-0.2,0.1-0.3,0.2-0.5,0.3c-0.1,0.1-0.2,0.2-0.2,0.3
		c0,2.7,0,5.4,0,8.1c0,0.2,0.1,0.2,0.2,0.2c2.3,0,4.6,0,6.9,0c2.3,0,4.6,0,6.9,0c0.2,0,0.3-0.1,0.3-0.3c0-2.6,0-5.2,0-7.7
		C238.3,218,238.1,217.7,237.7,217.5z"/>
	<path class="st8" d="M251.3,227.1c-0.4-1.3-0.9-2.5-1.6-3.6c-0.3-0.5-0.7-0.8-1.2-1.1c-1.1-0.6-2.3-1.1-3.5-1.6
		c-0.7-0.3-1.4-0.6-2.2-0.9c0,0.1,0,0.1,0,0.1c-0.1,2.1-0.1,4.1-0.1,6.2c0,0.1,0.1,0.1,0.1,0.1c0.2,0,0.5,0,0.7,0
		c0.4,0.1,0.6,0.4,0.6,0.7c0,2.2,0,4.5,0,6.7c0,0.2,0,0.3,0.3,0.3c2.6,0,5.2,0,7.7,0c0.4,0,0.4,0,0.4-0.4
		C252.4,231.5,252,229.3,251.3,227.1z"/>
	<path class="st8" d="M235.6,189.4c0.3-0.2,0.3-0.5,0-0.6c-0.2-0.1-0.3-0.1-0.5-0.1s-0.4,0.1-0.6,0.2c-0.2,0.2-0.2,0.4,0,0.5
		C234.7,189.5,235.3,189.5,235.6,189.4z"/>
	<path class="st8" d="M190.9,223.6c2.6,0,4.8-1,6.7-2.7c2.1-1.8,3.4-4.2,4.2-6.8c0.2-0.7,0.6-1.4,1.1-1.9c1.1-1.1,1.9-2.4,2.6-3.8
		c0.8-1.7,1.1-3.6,0.9-5.5c-1,1.7-2,3.4-3,5c-0.1-0.1-0.1-0.2-0.1-0.3c0-1.3,0-2.6-0.1-3.9c0-0.2,0-0.3-0.2-0.4
		c-3.2-1.7-6.6-3.1-10.3-3.2c-2.1-0.1-4.1-0.2-6.1,0.2c-2.4,0.5-4.6,1.3-6.7,2.4c-0.4,0.2-0.9,0.3-1.1,0.6c-0.2,0.3-0.1,0.8-0.1,1.2
		c0,1.1,0,2.2,0,3.3h-0.1c-1-1.6-1.9-3.3-3-4.9c-0.2,0.9-0.1,1.8,0,2.6c0.4,2.5,1.6,4.7,3.3,6.6c0.6,0.7,1,1.4,1.3,2.2
		c0.7,2.4,1.9,4.5,3.6,6.2C185.9,222.4,188.2,223.6,190.9,223.6z"/>
	<path class="st8" d="M201.3,227.1c-0.6-0.3-0.6-0.3-0.8,0.3c-0.7,2.2-1.8,4.2-3.5,5.7c-2.5,2.1-5.4,2.7-8.5,1.8
		c-2.8-0.7-4.8-2.6-6.1-5.2c-0.4-0.8-0.8-1.7-1-2.6c-0.1-0.3-0.2-0.4-0.5-0.2c-0.2,0.2-0.5,0.3-0.8,0.4c-0.2,0.1-0.3,0.3-0.3,0.5
		c0,4.2,0,8.4,0,12.6c0,0.3,0.1,0.4,0.4,0.4c3.6,0,7.1,0,10.7,0c3.6,0,7.2,0,10.7,0c0.3,0,0.4-0.1,0.4-0.4c0-4,0-8,0-12
		C202.1,227.8,201.9,227.4,201.3,227.1z"/>
	<path class="st8" d="M184.3,183.3c0.5,0.2,1,0.1,1.5-0.2c0.4-0.3,0.4-0.7,0-0.9c-0.3-0.2-0.6-0.2-0.9-0.2c-0.2,0-0.4,0-0.5,0.1
		c-0.3,0.1-0.5,0.3-0.6,0.6C183.7,183,184,183.2,184.3,183.3z"/>
	<path class="st8" d="M183.1,223c0,0.7,0,1.3,0,1.9c0.1,2,0.8,3.8,2,5.4c2.9,3.6,7.7,4,11,0.8c2.2-2.2,2.9-4.9,2.7-8
		c-2.5,1.5-5,2.6-7.9,2.6C188,225.6,185.5,224.6,183.1,223z"/>
	<path class="st7" d="M172.8,231.4c0,0.7,0.1,1.4,0.1,2.1c0,0.2,0,0.4,0,0.5h0.1c0.4,0,0.4,0,0.4-0.4c-0.1-1.7-0.4-3.3-0.8-5
		c-2.5,1.1-5.1,2.2-7.6,3.3c0,0.6,0,1.2,0,1.8c0,0.2,0,0.3,0.3,0.3h0.1c2.3-1,4.6-2,7-3C172.8,230.9,172.8,230.9,172.8,231.4z"/>
	<path class="st7" d="M212.6,232.3c1.3,0.6,2.7,1.1,4,1.8c0.4,0,0.8,0,1.2,0c0.2,0,0.2,0,0.2-0.2c0-0.5,0-0.9,0-1.4c0,0,0,0-0.1,0
		c-1.7-0.7-3.3-1.5-5-2.2c-0.9-0.4-1.8-0.7-2.6-1.1c-0.2,0.7-0.3,1.4-0.4,2.1C210.8,231.6,211.7,232,212.6,232.3z"/>
	<path class="st7" d="M219.9,236.4c1.2,1.7,1.9,3.7,2.6,5.6c1.1,3.4,1.7,6.8,1.9,10.3c0,0.6,0,0.6-0.6,0.6c-4,0-8,0-12.1,0
		c-0.3,0-0.4-0.1-0.4-0.4c0-3.5,0-6.9,0-10.4c0-0.6-0.4-1.1-1-1.2c-0.4,0-0.7,0-1.1,0c-0.1,0-0.2,0-0.2-0.2c0-1.8,0-3.5,0-5.3
		c-0.3,0-0.5,0-0.8,0c-0.1-0.2,0-0.5,0-0.7c0-0.1,0-0.2,0-0.3v-0.1c0.1-0.2,0.1-0.5,0.1-0.7c0.2-1.7,0.4-3.4,0.8-5
		c-2.7-1.2-5.4-2.4-7.9-3.8c-0.3-0.1-0.3-0.3-0.3-0.6c0-1.1,0-2.2,0-3.3c0-0.3,0.1-0.5,0.2-0.7c1.1-1.5,1.9-3.2,2.5-5
		c0.3-0.8,0.7-1.5,1.3-2.2c2.2-2.5,3.5-5.4,3.6-8.7c0-0.8,0-1.7-0.3-2.5c-0.2-0.6-0.5-1-1.2-1.2c-0.2,0-0.3-0.2-0.3-0.4
		c0-1.7,0-3.4,0-5c0-2.1-0.1-4.2-0.6-6.2c-0.7-2.7-2-4.9-4.3-6.5c-2-1.3-4.2-2-6.5-2.3c-1.8-0.2-3.6-0.2-5.4-0.2
		c-2.2,0-4.4,0.3-6.5,1c-4.4,1.5-6.9,4.5-7.7,9.1c-0.3,1.4-0.3,2.8-0.3,4.2c0,2-0.1,4-0.1,6c0,0.2,0.1,0.3-0.2,0.4
		c-0.8,0.1-1.1,0.7-1.3,1.4c-0.3,1.3-0.3,2.6,0,3.9c0.5,2.8,1.7,5.2,3.6,7.3c0.5,0.5,0.9,1.1,1.1,1.8c0.6,1.9,1.5,3.6,2.6,5.2
		c0.1,0.2,0.1,0.3,0.1,0.5c0,1.2,0,2.3,0,3.5c0,0.2-0.1,0.3-0.2,0.4c-1.8,1-3.5,1.9-5.4,2.7c-0.6,0.3-1.1,0.5-1.7,0.7
		c0.1,0.3,0.1,0.5,0.2,0.8c0.4,1.7,0.6,3.5,0.7,5.3v0.1c0,0.1,0,0.2,0,0.3c0,0.2,0.1,0.4,0,0.6c-0.6,0-1.2,0-1.8,0
		c0,1.7,0,3.5,0,5.2c0,0.3-0.1,0.4-0.4,0.3c-0.3,0-0.5,0-0.8,0c-0.7,0-1.2,0.5-1.2,1.2c0,3.5,0,6.9,0,10.4c0,0.3-0.1,0.4-0.4,0.4
		c-2.1,0-4.1,0-6.2,0c-2.1,0-4.1,0-6.2,0c-0.3,0-0.3-0.1-0.3-0.4c0.2-2.6,0.6-5.2,1.2-7.7c0.6-2.4,1.3-4.8,2.4-7
		c0.2-0.3,0.4-0.6,0.5-1c0.4-0.6,0.8-1.1,1.3-1.5c-0.9,0-1.8,0-2.7,0c-0.4,0.5-0.8,1.1-1.1,1.8c-0.4,0.7-0.7,1.5-1,2.2
		c-1.6,4.1-2.3,8.4-2.7,12.8c0,0.4,0,0.8-0.1,1.1c0,0.1,0,0.1,0,0.2c0,0.2,0,0.3,0,0.5c0,0.4-0.1,0.7,0.1,1.1c23.7,0,47.4,0,71.1,0
		c0.2-0.3,0-0.7,0.1-1c0-0.2,0-0.4,0-0.5c-0.1,0-0.1-0.1-0.1-0.2c-0.2-2.8-0.6-5.5-1.1-8.2c-0.6-2.8-1.4-5.4-2.7-8
		c-0.3-0.6-0.7-1.2-1-1.7c-0.9,0-1.8,0-2.7,0C219.4,235.7,219.7,236,219.9,236.4z M196.2,182.3c0.3-0.2,0.6-0.3,0.9-0.3
		c0.3,0,0.6,0.1,0.8,0.2c0.4,0.3,0.4,0.7,0,1s-1.3,0.2-1.7-0.1C195.9,182.9,195.9,182.6,196.2,182.3z M184.3,182.1
		c0.2,0,0.3,0,0.5-0.1c0.3,0,0.6,0,0.9,0.2c0.4,0.2,0.4,0.7,0,0.9c-0.5,0.3-1,0.3-1.5,0.2c-0.3-0.1-0.5-0.3-0.5-0.6
		C183.8,182.4,184,182.2,184.3,182.1z M180.3,214.3c-0.3-0.9-0.7-1.6-1.3-2.2c-1.8-1.9-2.9-4-3.3-6.6c-0.1-0.8-0.2-1.7,0-2.6
		c1.1,1.6,2,3.3,3,4.9h0.1c0-1.1,0-2.2,0-3.3c0-0.4-0.1-0.9,0.1-1.2c0.2-0.3,0.7-0.4,1.1-0.6c2.1-1.1,4.3-2,6.7-2.4
		c2-0.4,4.1-0.3,6.1-0.2c3.7,0.1,7.1,1.4,10.3,3.2c0.2,0.1,0.2,0.2,0.2,0.4c0,1.3,0,2.6,0.1,3.9c0,0.1,0,0.2,0.1,0.3
		c1-1.7,2-3.3,3-5c0.2,2-0.1,3.8-0.9,5.5c-0.6,1.4-1.5,2.7-2.6,3.8c-0.5,0.6-0.9,1.2-1.1,1.9c-0.8,2.6-2.1,5-4.2,6.8
		c-1.9,1.7-4.1,2.7-6.7,2.7c-2.8,0-5.1-1.2-7-3.1C182.1,218.8,181,216.7,180.3,214.3z M196.1,231.1c-3.3,3.2-8.1,2.9-11-0.8
		c-1.2-1.6-1.9-3.4-2-5.4c0-0.6,0-1.2,0-1.9c2.4,1.5,4.9,2.6,7.8,2.6c2.9,0,5.4-1.1,7.9-2.6C199,226.1,198.3,228.9,196.1,231.1z
		 M202.1,240.5c0,0.3-0.1,0.4-0.4,0.4c-3.6,0-7.2,0-10.7,0c-3.6,0-7.1,0-10.7,0c-0.3,0-0.4-0.1-0.4-0.4c0-4.2,0-8.4,0-12.6
		c0-0.2,0.1-0.4,0.3-0.5c0.3-0.1,0.5-0.3,0.8-0.4c0.3-0.2,0.4-0.1,0.5,0.2c0.2,0.9,0.6,1.8,1,2.6c1.3,2.6,3.3,4.5,6.1,5.2
		c3.1,0.8,6,0.3,8.5-1.8c1.8-1.5,2.9-3.5,3.5-5.7c0.2-0.7,0.2-0.6,0.8-0.3s0.8,0.7,0.8,1.4C202.1,232.5,202.1,236.5,202.1,240.5z"/>
	<path class="st7" d="M254,234.8c0-0.1,0-0.2,0-0.3c-0.1,0,0-0.1,0-0.1c-0.1-1.8-0.4-3.5-0.7-5.3c-0.4-1.8-0.9-3.5-1.7-5.1
		c-0.7-1.3-1.6-2.4-3-3c-1.1-0.5-2.1-0.9-3.2-1.4c-2.6-1.1-5.1-2.2-7.5-3.5c-0.2-0.1-0.2-0.2-0.2-0.4c0-0.7,0-1.4,0-2.1
		c0-0.2,0-0.3,0.1-0.4c0.7-1,1.2-2,1.6-3.2c0.2-0.5,0.5-1,0.8-1.4c1.4-1.6,2.2-3.5,2.3-5.6c0-0.5,0-1.1-0.2-1.6
		c-0.1-0.4-0.3-0.7-0.8-0.8c-0.1,0-0.2-0.1-0.2-0.3c0-1.1,0-2.2,0-3.2c0-1.3,0-2.7-0.4-4c-0.5-1.7-1.3-3.1-2.8-4.2
		c-1.3-0.9-2.7-1.3-4.2-1.5c-1.1-0.1-2.3-0.1-3.5-0.2c-1.4,0-2.8,0.2-4.2,0.6c-2.8,0.9-4.4,2.9-5,5.8c-0.2,0.9-0.2,1.8-0.2,2.7
		c0,1.3,0,2.6-0.1,3.8c0,0.1,0,0.2-0.1,0.2c-0.5,0.1-0.7,0.5-0.8,0.9c-0.2,0.8-0.2,1.7,0,2.5c0.3,1.8,1.1,3.3,2.3,4.7
		c0.3,0.4,0.6,0.7,0.7,1.2c0.4,1.2,0.9,2.3,1.7,3.4c0.1,0.1,0.1,0.2,0.1,0.3c0,0.8,0,1.5,0,2.3c0,0.1,0,0.2-0.2,0.3
		c-1.1,0.6-2.3,1.2-3.5,1.8c-2.3,1.1-4.7,2.1-7.1,3.1c-1.5,0.7-2.6,1.7-3.3,3.2c-0.2,0.5-0.4,0.9-0.6,1.4c-0.4,1.1-0.7,2.1-1,3.2
		c0.4,0.2,0.8,0.4,1.2,0.5c0-0.1,0-0.2,0-0.2c0.4-1.5,0.8-3.1,1.6-4.5c0.1-0.2,0.2-0.4,0.4-0.6c0.4-0.7,1-1.2,1.8-1.6
		c1.7-0.7,3.4-1.5,5.1-2.2c0.3-0.1,0.3-0.1,0.3,0.2c0,0.5,0,0.9,0,1.4c0,1.5,0,3,0,4.5c0,0.2-0.1,0.2-0.2,0.2c-0.2,0-0.3,0-0.5,0
		c-0.5,0-0.8,0.3-0.8,0.8c0,1.8,0,3.5,0,5.3c1.5,0.7,2.7,1.7,3.6,2.9c10.8,0,21.5,0,32.3,0C254.1,235.2,254,235,254,234.8z
		 M234.4,188.8c0.2-0.1,0.4-0.2,0.6-0.2c0.2,0,0.4,0,0.5,0.1c0.3,0.2,0.3,0.5,0,0.6c-0.3,0.2-0.9,0.2-1.1,0
		C234.3,189.2,234.3,188.9,234.4,188.8z M226.8,188.7c0.1,0,0.2,0,0.3,0c0.2,0,0.4,0,0.6,0.1c0.3,0.2,0.3,0.4,0,0.6
		c-0.3,0.2-0.6,0.2-1,0.1c-0.2-0.1-0.3-0.2-0.3-0.4C226.5,188.8,226.7,188.7,226.8,188.7z M224.2,209.3c-0.2-0.6-0.4-1-0.8-1.4
		c-1.1-1.2-1.9-2.6-2.1-4.2c-0.1-0.5-0.1-1.1,0-1.7c0.7,1.1,1.3,2.1,1.9,3.2h0.1c0-0.7,0-1.4,0-2.1c0-0.3-0.1-0.6,0-0.8
		s0.5-0.3,0.7-0.4c1.4-0.7,2.8-1.3,4.3-1.6c1.3-0.3,2.6-0.2,3.9-0.2c2.4,0.1,4.6,0.9,6.6,2c0.1,0.1,0.1,0.2,0.1,0.3
		c0,0.8,0,1.7,0,2.5c0,0.1,0,0.1,0,0.2c0.6-1.1,1.3-2.1,1.9-3.2c0.2,1.3-0.1,2.4-0.5,3.6c-0.4,0.9-0.9,1.8-1.6,2.5
		c-0.4,0.4-0.6,0.8-0.7,1.2c-0.5,1.7-1.3,3.2-2.7,4.4c-1.2,1.1-2.6,1.7-4.3,1.7c-1.8,0-3.3-0.8-4.5-2
		C225.4,212.2,224.7,210.8,224.2,209.3z M234.4,220.1c-2.1,2.1-5.2,1.9-7-0.5c-0.8-1-1.2-2.2-1.3-3.5c0-0.4,0-0.8,0-1.2
		c1.5,1,3.2,1.7,5,1.7c1.9,0,3.5-0.7,5.1-1.7C236.3,216.9,235.8,218.7,234.4,220.1z M238.2,226.1c0,0.2,0,0.3-0.3,0.3
		c-2.3,0-4.6,0-6.9,0c-2.3,0-4.6,0-6.9,0c-0.2,0-0.2,0-0.2-0.2c0-2.7,0-5.4,0-8.1c0-0.2,0-0.3,0.2-0.3c0.2-0.1,0.3-0.2,0.5-0.3
		s0.2-0.1,0.3,0.1c0.2,0.6,0.4,1.1,0.6,1.7c0.8,1.7,2.1,2.9,3.9,3.3c2,0.5,3.8,0.2,5.4-1.2c1.1-1,1.8-2.2,2.3-3.6
		c0.1-0.4,0.1-0.4,0.5-0.2s0.5,0.4,0.5,0.9C238.2,221,238.2,223.6,238.2,226.1z M252.2,234.1c-2.6,0-5.2,0-7.7,0
		c-0.2,0-0.3-0.1-0.3-0.3c0-2.2,0-4.5,0-6.7c0-0.4-0.3-0.7-0.6-0.7c-0.2,0-0.5,0-0.7,0c-0.1,0-0.1,0-0.1-0.1c0-2.1,0-4.1,0.1-6.2
		V220c0.7,0.3,1.5,0.6,2.2,0.9c1.2,0.5,2.3,1,3.5,1.6c0.5,0.3,0.9,0.6,1.2,1.1c0.8,1.1,1.2,2.3,1.6,3.6c0.7,2.1,1.1,4.4,1.2,6.6
		C252.6,234.1,252.6,234.1,252.2,234.1z"/>
	<path class="st7" d="M218,232.5c0,0.5,0,0.9,0,1.4c0,0.2-0.1,0.2-0.2,0.2c-0.4,0-0.8,0-1.2,0c0.5,0.2,1,0.4,1.5,0.7
		c0.4,0.2,0.7,0.4,1,0.6c0.9,0,1.8,0,2.7,0C220.7,234.2,219.6,233.1,218,232.5z"/>
	<path class="st7" d="M208.3,234.3C208.3,234.4,208.3,234.4,208.3,234.3c0,0.2,0,0.3,0,0.4c0,0.2-0.1,0.5,0,0.7c0.3,0,0.5,0,0.8,0
		c0-1.4,0-2.9,0.1-4.3c0,0,0-0.1,0-0.2c0.2,0.1,0.5,0.2,0.7,0.3c0.1-0.7,0.2-1.4,0.4-2.1c-0.4-0.2-0.8-0.4-1.2-0.5
		c-0.4,1.6-0.6,3.3-0.8,5C208.3,233.9,208.4,234.1,208.3,234.3z"/>
	<path class="st7" d="M164.4,232.3c0.2-0.1,0.4-0.2,0.6-0.2c0-1.6,0-3.2,0-4.9c0-0.4-0.3-0.7-0.6-0.7c-0.2,0-0.5,0-0.7,0
		c-0.1,0-0.1,0-0.1-0.1c0-2.1,0-4.1,0.1-6.2v-0.1c0.7,0.3,1.5,0.6,2.2,0.9c1.2,0.5,2.3,1,3.5,1.6c0.5,0.3,0.9,0.6,1.2,1.1
		c0.8,1.1,1.2,2.3,1.6,3.6c0.2,0.5,0.3,1.1,0.5,1.6c0.4-0.2,0.8-0.4,1.2-0.5c-0.4-1.5-0.8-2.9-1.5-4.3c-0.7-1.3-1.6-2.4-3-3
		c-1.1-0.5-2.1-0.9-3.2-1.4c-2.6-1.1-5.1-2.2-7.5-3.5c-0.2-0.1-0.2-0.2-0.2-0.4c0-0.7,0-1.4,0-2.1c0-0.2,0-0.3,0.1-0.4
		c0.7-1,1.2-2,1.6-3.2c0.2-0.5,0.5-1,0.8-1.4c1.4-1.6,2.2-3.5,2.3-5.6c0-0.5,0-1.1-0.2-1.6c-0.1-0.4-0.3-0.7-0.8-0.8
		c-0.1,0-0.2-0.1-0.2-0.3c0-1.1,0-2.2,0-3.2c0-1.3,0-2.7-0.4-4c-0.5-1.7-1.3-3.1-2.8-4.2c-1.3-0.9-2.7-1.3-4.2-1.5
		c-1.1-0.1-2.3-0.1-3.5-0.2c-1.4,0-2.8,0.2-4.2,0.6c-2.8,0.9-4.4,2.9-5,5.8c-0.2,0.9-0.2,1.8-0.2,2.7c0,1.3,0,2.6-0.1,3.8
		c0,0.1,0,0.2-0.1,0.2c-0.5,0.1-0.7,0.5-0.8,0.9c-0.2,0.8-0.2,1.7,0,2.5c0.3,1.8,1.1,3.3,2.3,4.7c0.3,0.4,0.6,0.7,0.7,1.2
		c0.4,1.2,0.9,2.3,1.7,3.4c0.1,0.1,0.1,0.2,0.1,0.3c0,0.8,0,1.5,0,2.3c0,0.1,0,0.2-0.2,0.3c-1.1,0.6-2.3,1.2-3.5,1.8
		c-2.3,1.1-4.7,2.1-7.1,3.1c-1.5,0.7-2.6,1.7-3.3,3.2c-0.2,0.5-0.4,0.9-0.6,1.4c-1,2.6-1.5,5.4-1.8,8.2c0,0.2,0,0.5-0.1,0.7v0.1
		c0,0.1,0,0.2,0,0.3c0,0.2-0.1,0.5,0,0.7c10.4,0,20.8,0,31.2,0C161.3,234,162.7,233,164.4,232.3z M140,226.4c-0.2,0-0.3,0-0.5,0
		c-0.5,0-0.8,0.3-0.8,0.8c0,2.2,0,4.4,0,6.7c0,0.2-0.1,0.2-0.2,0.2c-1.3,0-2.6,0-4,0c-1.3,0-2.7,0-4,0c-0.2,0-0.2,0-0.2-0.2
		c0.1-1.7,0.4-3.3,0.8-4.9c0.4-1.5,0.8-3.1,1.6-4.5c0.1-0.2,0.2-0.4,0.4-0.6c0.4-0.7,1-1.2,1.8-1.6c1.7-0.7,3.4-1.5,5.1-2.2
		c0.3-0.1,0.3-0.1,0.3,0.2c0,0.5,0,0.9,0,1.4c0,1.5,0,3,0,4.5C140.3,226.4,140.2,226.4,140,226.4z M155.2,188.8
		c0.2-0.1,0.4-0.2,0.6-0.2c0.2,0,0.4,0,0.5,0.1c0.3,0.2,0.3,0.5,0,0.6c-0.3,0.2-0.9,0.2-1.1,0C155,189.2,155,188.9,155.2,188.8z
		 M147.6,188.7c0.1,0,0.2,0,0.3,0c0.2,0,0.4,0,0.6,0.1c0.3,0.2,0.3,0.4,0,0.6c-0.3,0.2-0.6,0.2-1,0.1c-0.2-0.1-0.3-0.2-0.3-0.4
		C147.3,188.8,147.4,188.7,147.6,188.7z M145,209.3c-0.2-0.6-0.4-1-0.8-1.4c-1.1-1.2-1.9-2.6-2.1-4.2c-0.1-0.5-0.1-1.1,0-1.7
		c0.7,1.1,1.3,2.1,1.9,3.2h0.1c0-0.7,0-1.4,0-2.1c0-0.3-0.1-0.6,0-0.8s0.5-0.3,0.7-0.4c1.4-0.7,2.8-1.3,4.3-1.6
		c1.3-0.3,2.6-0.2,3.9-0.2c2.4,0.1,4.6,0.9,6.6,2c0.1,0.1,0.1,0.2,0.1,0.3c0,0.8,0,1.7,0,2.5c0,0.1,0,0.1,0,0.2
		c0.6-1.1,1.3-2.1,1.9-3.2c0.2,1.3-0.1,2.4-0.5,3.6c-0.4,0.9-0.9,1.8-1.6,2.5c-0.4,0.4-0.6,0.8-0.7,1.2c-0.5,1.7-1.3,3.2-2.7,4.4
		c-1.2,1.1-2.6,1.7-4.3,1.7c-1.8,0-3.3-0.8-4.5-2C146.2,212.2,145.5,210.8,145,209.3z M155.2,220.1c-2.1,2.1-5.2,1.9-7-0.5
		c-0.8-1-1.2-2.2-1.3-3.5c0-0.4,0-0.8,0-1.2c1.5,1,3.2,1.7,5,1.7c1.9,0,3.5-0.7,5.1-1.7C157,216.9,156.6,218.7,155.2,220.1z
		 M159,226.1c0,0.2,0,0.3-0.3,0.3c-2.3,0-4.6,0-6.9,0c-2.3,0-4.6,0-6.9,0c-0.2,0-0.2,0-0.2-0.2c0-2.7,0-5.4,0-8.1
		c0-0.2,0-0.3,0.2-0.3c0.2-0.1,0.3-0.2,0.5-0.3s0.2-0.1,0.3,0.1c0.2,0.6,0.4,1.1,0.6,1.7c0.8,1.7,2.1,2.9,3.9,3.3
		c2,0.5,3.8,0.2,5.4-1.2c1.1-1,1.8-2.2,2.3-3.6c0.1-0.4,0.1-0.4,0.5-0.2s0.5,0.4,0.5,0.9C159,221,159,223.6,159,226.1z"/>
	<path class="st7" d="M173.3,233.7c0,0.4,0,0.4-0.4,0.4h-0.1c0,0.4,0,0.9,0,1.3c0.6,0,1.2,0,1.8,0c0.1-0.2,0-0.4,0-0.6
		c0-0.1,0-0.2,0-0.3c-0.1,0,0-0.1,0-0.1c-0.1-1.8-0.4-3.5-0.7-5.3c-0.1-0.3-0.1-0.5-0.2-0.8c-0.4,0.2-0.8,0.4-1.2,0.5
		C173,230.4,173.2,232,173.3,233.7z"/>
	<path class="st7" d="M164.4,234.5c0.3-0.1,0.6-0.3,0.9-0.4h-0.1c-0.2,0-0.3-0.1-0.3-0.3c0-0.6,0-1.2,0-1.8
		c-0.2,0.1-0.4,0.2-0.6,0.2c-1.7,0.7-3.1,1.8-4.1,3.2c0.9,0,1.8,0,2.7,0C163.4,235,163.9,234.7,164.4,234.5z"/>
</g>
<g id="surface1">
	<path class="st7" d="M223.9,119.4L223.9,119.4c0-0.8-0.1-1.5-0.1-2.4c-0.1-4.1-3.4-7.6-7.5-7.8c-8.6-0.5-15.3-3.3-21-8.8l0,0
		c-1.9-1.7-4.7-1.7-6.5,0l0,0c-5.7,5.6-12.4,8.4-21,8.8c-4.1,0.2-7.4,3.7-7.5,7.8c0,0.8,0,1.6-0.1,2.3v0.1
		c-0.2,8.8-0.4,19.7,3.3,29.7c2,5.5,5.1,10.2,9.1,14.1c4.6,4.4,10.5,8,17.8,10.5c0.2,0.1,0.5,0.1,0.7,0.2c0.4,0.1,0.7,0.1,1.1,0.1
		c0.4,0,0.7,0,1.1-0.1c0.2,0,0.5-0.1,0.7-0.2c7.2-2.5,13.2-6,17.7-10.5c4-3.9,7.1-8.7,9.1-14.1C224.3,139.1,224.1,128.2,223.9,119.4
		z M216.5,147.6c-3.9,10.5-11.8,17.7-24.1,22h-0.1c-0.1,0-0.3,0-0.4,0h-0.1c-12.4-4.3-20.3-11.5-24.2-22c-3.4-9.2-3.2-19.2-3-28.1
		l0,0c0-0.8,0.1-1.6,0.1-2.4c0-1.8,1.5-3.4,3.3-3.5c4.9-0.3,9.2-1.2,13.1-2.9c3.9-1.7,7.4-4,10.7-7.2c0.2-0.1,0.4-0.1,0.5,0
		c3.3,3.2,6.8,5.5,10.7,7.2s8.2,2.6,13.1,2.9c1.8,0.1,3.3,1.6,3.3,3.5c0,0.9,0,1.7,0.1,2.4C219.7,128.3,219.9,138.4,216.5,147.6z"/>
	<path class="st7" d="M192,117.8c-10.3,0-18.7,8.4-18.7,18.7c0,10.3,8.4,18.7,18.7,18.7s18.7-8.4,18.7-18.7S202.3,117.8,192,117.8z
		 M192,150.8c-7.9,0-14.3-6.4-14.3-14.3c0-7.9,6.4-14.3,14.3-14.3c7.9,0,14.3,6.4,14.3,14.3C206.3,144.4,199.9,150.8,192,150.8z"/>
	<path class="st7" d="M197.4,130.7l-8.7,8.7l-2.4-2.4c-0.9-0.9-2.3-0.9-3.1,0c-0.9,0.9-0.9,2.3,0,3.1l3.9,3.9c0.4,0.4,1,0.6,1.6,0.6
		s1.1-0.2,1.6-0.6l10.3-10.2c0.9-0.9,0.9-2.3,0-3.1C199.6,129.8,198.2,129.8,197.4,130.7z"/>
</g>
<g>
	<path class="st7" d="M75,133.7L38,99L1,133.7c-1.3,1.2-1.4,3.3-0.2,4.6c0.6,0.6,1.4,1,2.3,1s1.7-0.3,2.3-0.9l2-1.9V177h61.1v-40.4
		l2,1.9c1.3,1.2,3.4,1.1,4.6-0.2C76.4,137,76.3,134.9,75,133.7z M64.5,173h-53v-40.1l26.6-25.1l26.5,25.1L64.5,173L64.5,173z"/>
	<path class="st7" d="M17.4,169.5h18.9v-19.1H17.4V169.5z M21.4,154.4h10.9v11H21.4V154.4z"/>
	<path class="st7" d="M58.6,169.5v-19.1H39.7v19.1H58.6z M43.7,154.4h10.9v11H43.7V154.4z"/>
	<path class="st7" d="M17.4,146.9h18.9v-19.1H17.4V146.9z M21.4,131.8h10.9v11H21.4V131.8z"/>
	<path class="st7" d="M58.6,127.8H39.7v19.1h18.9V127.8z M54.6,142.9H43.7v-11h10.9V142.9z"/>
</g>
<g>
	<g>
		<g>
			<path class="st7" d="M102.7,153.3L102.7,153.3c-0.6-0.6-1.6-0.6-2.2,0s-0.6,1.6,0,2.2l0,0c0.3,0.3,0.7,0.4,1.1,0.4
				s0.8-0.2,1.1-0.5C103.3,154.9,103.3,153.9,102.7,153.3z"/>
		</g>
	</g>
	<g>
		<g>
			<path class="st7" d="M135.5,120.6c-9.6-9.6-25.3-9.6-34.9,0c-7.9,7.9-9.5,20.1-3.9,29.8c0.4,0.7,1.4,1,2.1,0.6s1-1.4,0.6-2.1
				c-4.9-8.5-3.4-19.2,3.5-26.1c8.4-8.4,22.2-8.4,30.6,0c8.4,8.4,8.4,22.2,0,30.6c-6.9,6.9-17.7,8.3-26.2,3.4
				c-0.7-0.4-1.7-0.2-2.1,0.5s-0.2,1.7,0.5,2.1c3.9,2.3,8.2,3.4,12.4,3.4c6.4,0,12.7-2.5,17.5-7.2
				C145.1,145.8,145.1,130.2,135.5,120.6z"/>
		</g>
	</g>
	<g>
		<g>
			<path class="st7" d="M157,131.3c0-0.7-0.5-1.4-1.3-1.5l-5.6-0.9l-3-7.2l3.3-4.6c0.4-0.6,0.4-1.4-0.2-2l-9.4-9.4
				c-0.5-0.5-1.4-0.6-2-0.2l-4.6,3.3l-7.2-3l-0.9-5.6c-0.1-0.7-0.8-1.3-1.5-1.3l0,0h-13.4c-0.7,0-1.4,0.5-1.5,1.3l-0.9,5.6l-7.2,3
				l-4.6-3.3c-0.6-0.4-1.4-0.4-2,0.2l-9.4,9.4c-0.5,0.5-0.6,1.4-0.2,2l3.3,4.6l-3,7.2l-5.6,0.9c-0.7,0.1-1.3,0.8-1.3,1.5v13.4
				c0,0.7,0.5,1.4,1.3,1.5l5.6,0.9l3,7.2l-3.3,4.6c-0.4,0.6-0.4,1.4,0.2,2l9.4,9.4c0.5,0.5,1.4,0.6,2,0.2l4.6-3.3l7.2,3l0.9,5.6
				c0.1,0.7,0.8,1.3,1.5,1.3l0,0h13.4c0.7,0,1.4-0.5,1.5-1.3l0.9-5.6l7.2-3l4.6,3.3c0.6,0.4,1.4,0.4,2-0.2l9.4-9.4
				c0.5-0.5,0.6-1.4,0.2-2l-3.3-4.6l3-7.2l5.6-0.9c0.7-0.1,1.3-0.8,1.3-1.5V131.3z M148.8,144.2c-0.5,0.1-1,0.4-1.2,0.9l-3.6,8.8
				c-0.2,0.5-0.1,1,0.2,1.5l3.1,4.2l-7.6,7.6l-4.2-3.1c-0.4-0.3-1-0.4-1.5-0.2l-8.8,3.6c-0.5,0.2-0.8,0.6-0.9,1.2l-0.8,5.2h-10.8
				l-0.8-5.2c-0.1-0.5-0.4-1-0.9-1.2l-8.8-3.6c-0.2-0.1-0.4-0.1-0.6-0.1c-0.3,0-0.6,0.1-0.9,0.3l-4.2,3.1l-7.6-7.6l3.1-4.2
				c0.3-0.4,0.4-1,0.2-1.5l-3.6-8.8c-0.2-0.5-0.6-0.8-1.2-0.9l-5.2-0.8v-10.8l5.2-0.8c0.5-0.1,1-0.4,1.2-0.9l3.6-8.8
				c0.2-0.5,0.1-1-0.2-1.5l-3.1-4.2l7.6-7.6l4.2,3.1c0.4,0.3,1,0.4,1.5,0.2l8.8-3.6c0.5-0.2,0.8-0.6,0.9-1.2l0.8-5.2h10.8l0.8,5.2
				c0.1,0.5,0.4,1,0.9,1.2l8.8,3.6c0.5,0.2,1,0.1,1.5-0.2l4.2-3.1l7.6,7.6l-3.1,4.2c-0.3,0.4-0.4,1-0.2,1.5l3.6,8.8
				c0.2,0.5,0.6,0.8,1.2,0.9l5.2,0.8v10.8L148.8,144.2z"/>
		</g>
	</g>
	<g>
		<g>
			<path class="st7" d="M131.9,139.9c-1.9-1.7-4.5-2.5-7-2.1l-6.7-6.7c0.4-2.7-0.5-5.4-2.4-7.3c-2.4-2.4-6-3.1-9.1-1.9
				c-0.5,0.2-0.8,0.6-0.9,1.1s0.1,1,0.4,1.4l2.2,2.2c0.5,0.5,0.5,1.2,0,1.7c-0.5,0.5-1.2,0.5-1.7,0l-2.2-2.2
				c-0.4-0.4-0.9-0.5-1.4-0.4s-0.9,0.4-1.1,0.9c-1.3,3.3-0.5,7.1,2.2,9.5c1.9,1.7,4.5,2.5,7,2.1l6.7,6.7c-0.4,2.7,0.5,5.4,2.4,7.3
				c1.6,1.6,3.8,2.5,6,2.5c1.1,0,2.1-0.2,3.2-0.6c0.5-0.2,0.8-0.6,0.9-1.1c0.1-0.5-0.1-1-0.4-1.4l-2.2-2.2c-0.5-0.5-0.5-1.2,0-1.7
				s1.2-0.5,1.7,0l2.2,2.2c0.4,0.4,0.9,0.5,1.4,0.4s0.9-0.5,1.1-0.9C135.4,146.1,134.5,142.3,131.9,139.9z M131.5,145.5
				c-1.7-1.7-4.3-1.7-6,0s-1.7,4.3,0,6l0.1,0.1c-1.2-0.1-2.4-0.7-3.2-1.6c-1.4-1.4-1.9-3.4-1.4-5.2c0.1-0.5,0-1.1-0.4-1.5l-7.8-7.8
				c-0.3-0.3-0.7-0.4-1.1-0.4c-0.1,0-0.3,0-0.4,0.1c-1.8,0.5-3.7,0-5.1-1.2c-1-0.9-1.6-2.1-1.7-3.4l0.1,0.1c1.7,1.7,4.3,1.7,6,0
				s1.7-4.3,0-6l-0.1-0.1c1.2,0.1,2.3,0.7,3.2,1.6c1.4,1.4,1.9,3.4,1.4,5.2c-0.1,0.5,0,1.1,0.4,1.5l7.9,7.9c0.4,0.4,0.9,0.5,1.5,0.4
				c1.8-0.5,3.7,0,5.1,1.2C130.8,143.1,131.4,144.3,131.5,145.5L131.5,145.5z"/>
		</g>
	</g>
	<g>
		<g>
			<path class="st7" d="M131.9,127.1c-2.5-3.2-6.1-5.5-10-6.4c-0.8-0.2-1.6,0.3-1.8,1.2c-0.2,0.8,0.3,1.6,1.2,1.8
				c3.3,0.7,6.2,2.6,8.3,5.3c0.3,0.4,0.7,0.6,1.2,0.6c0.3,0,0.7-0.1,0.9-0.3C132.3,128.7,132.4,127.8,131.9,127.1z"/>
		</g>
	</g>
	<g>
		<g>
			<path class="st7" d="M135,132.6L135,132.6c-0.2-0.9-0.9-1.3-1.6-1.1c-0.6,0.3-1,1.1-0.8,1.9v0.1c0.2,0.6,0.7,1.1,1.2,1.1
				c0.1,0,0.3,0,0.4-0.1C134.8,134.3,135.2,133.4,135,132.6z"/>
		</g>
	</g>
</g>
<g>
	<path d="M101.4,6.8l-6.8-6.5c-0.4-0.4-1.1-0.4-1.5,0s-0.4,1,0,1.4l5,4.8H79.8c-0.6,0-1.1,0.5-1.1,1c0,0.6,0.5,1,1.1,1H98l-5,4.8
		c-0.4,0.4-0.4,1,0,1.4c0.2,0.2,0.5,0.3,0.8,0.3s0.5-0.1,0.8-0.3l6.8-6.5C101.8,7.8,101.8,7.2,101.4,6.8z"/>
</g>
<g>
	<rect x="122.7" y="0" class="st0" width="19" height="2"/>
	<rect x="122.7" y="6" class="st0" width="16" height="2"/>
	<rect x="122.7" y="12" class="st0" width="13" height="2"/>
</g>
<g>
	<path class="st0" d="M169.2,2.7v1.9h-1.4V7h1.4v7h2.9V7h1.9c0,0,0.2-1.1,0.3-2.4h-2.2V3c0-0.2,0.3-0.6,0.6-0.6h1.6V0h-2.1
		C169.1,0,169.2,2.4,169.2,2.7L169.2,2.7z"/>
</g>
<g>
	<path class="st0" d="M177.3,2.9v8.2c0,1.7,1.3,2.9,2.9,2.9h8.2c1.7,0,2.9-1.3,2.9-2.9V2.9c0-1.7-1.3-2.9-2.9-2.9h-8.2
		C178.7,0,177.3,1.3,177.3,2.9z M185.9,11c-3.5,1.2-6.7-2-5.5-5.5c0.4-1.2,1.3-2.1,2.5-2.5c3.5-1.2,6.7,2,5.5,5.5
		C187.9,9.7,187,10.6,185.9,11z M189.3,2.8c-0.1,0.2-0.3,0.5-0.6,0.5c-0.2,0-0.3-0.1-0.4-0.2l0,0c-0.1-0.2-0.2-0.4,0-0.6
		c0.1-0.2,0.2-0.2,0.3-0.2s0.2,0,0.4,0.1C189.2,2.3,189.3,2.5,189.3,2.8C189.3,2.7,189.3,2.7,189.3,2.8z"/>
	<path class="st0" d="M184.4,4.3c-1.5,0-2.7,1.2-2.7,2.7s1.2,2.7,2.7,2.7s2.7-1.2,2.7-2.7S185.9,4.3,184.4,4.3z"/>
</g>
<polygon points="209.3,1.9 207.4,0 201.8,5.6 196.2,0 194.3,1.9 199.9,7.5 194.3,13.1 196.2,15 201.8,9.4 207.4,15 209.3,13.1 
	203.7,7.5 "/>
<rect y="-5.9" width="194.3" height="3"/>
</svg>
