<?xml version="1.0" encoding="utf-8"?>
<!-- Generator: Adobe Illustrator 22.0.1, SVG Export Plug-In . SVG Version: 6.00 Build 0)  -->
<svg version="1.1" id="Слой_1" xmlns="http://www.w3.org/2000/svg" xmlns:xlink="http://www.w3.org/1999/xlink" x="0px" y="0px"
	 width="315.6px" height="231px" viewBox="0 0 315.6 231" style="enable-background:new 0 0 315.6 231;" xml:space="preserve">
<style type="text/css">
	.st0{fill:#020203;}
</style>
<g>
	<g>
		<path class="st0" d="M27,132.1h-8.5l-2.7,26.1H4.1l2.7-26.1H0.4l1-10.2h6.4L10.3,98H3.8l1-10.2h6.5l2.2-21h11.8l-2.2,21h8.5
			l2.2-21h11.7l-2.2,21H50L49,98h-6.7l-2.5,23.9h6.7l-1,10.2h-6.7l-2.7,26.1H24.3L27,132.1z M19.6,121.9h8.5L30.6,98h-8.5
			L19.6,121.9z"/>
		<path class="st0" d="M55.1,107.5L99.8,1.8h26.8v105.7h11.6v22.3h-11.6v28.4h-24.1v-28.4H55.1V107.5z M102.5,107.5V48.7l-24.8,58.8
			H102.5z"/>
		<path class="st0" d="M147.4,39.3c0-25,13.2-39.3,37.3-39.3S222,14.3,222,39.3v81.3c0,25-13.2,39.3-37.3,39.3s-37.3-14.3-37.3-39.3
			V39.3z M172,122.2c0,11.2,4.9,15.4,12.7,15.4c7.8,0,12.7-4.2,12.7-15.4V37.8c0-11.2-4.9-15.4-12.7-15.4c-7.8,0-12.7,4.2-12.7,15.4
			V122.2z"/>
		<path class="st0" d="M232.1,107.5L276.7,1.8h26.8v105.7h11.6v22.3h-11.6v28.4h-24.1v-28.4h-47.4V107.5z M279.4,107.5V48.7
			l-24.8,58.8H279.4z"/>
	</g>
	<g>
		<path class="st0" d="M49.9,203.8v4.6c0,5.7-2.7,8.8-8.3,8.8h-2.6v13.3h-5.6V195h8.2C47.1,195,49.9,198.1,49.9,203.8z M38.9,200.1
			v12h2.6c1.8,0,2.7-0.8,2.7-3.3v-5.3c0-2.5-1-3.4-2.7-3.4H38.9z"/>
		<path class="st0" d="M70.1,230.5h-5.6l-1-6.4h-6.9l-1,6.4h-5.1l5.7-35.5h8.2L70.1,230.5z M57.4,219.3h5.4l-2.7-18L57.4,219.3z"/>
		<path class="st0" d="M81,210.8h7.8V222c0,5.7-2.8,8.9-8.3,8.9c-5.5,0-8.3-3.2-8.3-8.9v-18.5c0-5.7,2.8-8.9,8.3-8.9
			c5.5,0,8.3,3.2,8.3,8.9v3.4h-5.3v-3.8c0-2.5-1.1-3.5-2.9-3.5c-1.8,0-2.9,1-2.9,3.5v19.2c0,2.5,1.1,3.4,2.9,3.4
			c1.8,0,2.9-0.9,2.9-3.4v-6.5H81V210.8z"/>
		<path class="st0" d="M98,210h7.7v5.1H98v10.4h9.6v5.1H92.4V195h15.2v5.1H98V210z"/>
		<path class="st0" d="M123.9,204.8v25.7h-5V195h7l5.7,21.2V195h5v35.5h-5.7L123.9,204.8z"/>
		<path class="st0" d="M140.1,203.6c0-5.7,3-8.9,8.5-8.9c5.5,0,8.5,3.2,8.5,8.9V222c0,5.7-3,8.9-8.5,8.9c-5.5,0-8.5-3.2-8.5-8.9
			V203.6z M145.7,222.4c0,2.5,1.1,3.5,2.9,3.5c1.8,0,2.9-1,2.9-3.5v-19.2c0-2.5-1.1-3.5-2.9-3.5c-1.8,0-2.9,1-2.9,3.5V222.4z"/>
		<path class="st0" d="M159,195h17.2v5.1h-5.8v30.4h-5.6v-30.4H159V195z"/>
		<path class="st0" d="M192.1,210.8h7.2v5.1h-7.2v14.7h-5.6V195h14.8v5.1h-9.2V210.8z"/>
		<path class="st0" d="M203.5,203.6c0-5.7,3-8.9,8.5-8.9s8.5,3.2,8.5,8.9V222c0,5.7-3,8.9-8.5,8.9s-8.5-3.2-8.5-8.9V203.6z
			 M209.1,222.4c0,2.5,1.1,3.5,2.9,3.5c1.8,0,2.9-1,2.9-3.5v-19.2c0-2.5-1.1-3.5-2.9-3.5c-1.8,0-2.9,1-2.9,3.5V222.4z"/>
		<path class="st0" d="M229.4,195v27.4c0,2.5,1.1,3.5,2.9,3.5c1.8,0,2.9-0.9,2.9-3.5V195h5.3v27c0,5.7-2.8,8.9-8.3,8.9
			s-8.3-3.2-8.3-8.9v-27H229.4z"/>
		<path class="st0" d="M249.2,204.8v25.7h-5V195h7l5.7,21.2V195h5v35.5h-5.7L249.2,204.8z"/>
		<path class="st0" d="M265.9,195h8.8c5.6,0,8.3,3.1,8.3,8.8v18c0,5.7-2.7,8.8-8.3,8.8h-8.8V195z M271.5,200.1v25.4h3.1
			c1.8,0,2.8-0.9,2.8-3.4v-18.5c0-2.5-1.1-3.5-2.8-3.5H271.5z"/>
	</g>
</g>
</svg>
