<?xml version="1.0" encoding="utf-8"?>
<!-- Generator: Adobe Illustrator 22.0.1, SVG Export Plug-In . SVG Version: 6.00 Build 0)  -->
<svg version="1.1" id="Слой_1" xmlns="http://www.w3.org/2000/svg" xmlns:xlink="http://www.w3.org/1999/xlink" x="0px" y="0px"
	 width="116px" height="76px" viewBox="0 0 116 76" enable-background="new 0 0 116 76" xml:space="preserve">
<g>
	<path fill="#009FE3" d="M80.961,50.85c0.039,0.021,0.081,0.037,0.12,0.058l-0.09-0.125C80.98,50.805,80.971,50.828,80.961,50.85z"
		/>
	<path fill="#009FE3" d="M113.254,53.885c-5.468-2.9-9.656-4.514-13.39-5.136l0.392-0.539c0.183-0.183,0.274-0.458,0.183-0.732
		l-0.863-3.45c2.265-3.206,3.609-7.201,3.609-11.011v-3.661h0.915h1.831c0.549,0,0.916-0.366,0.916-0.915
		c0-0.549-0.366-0.915-0.916-0.915h-0.915v-0.915c0-7.231-4.759-13.364-11.899-15.377v-0.183c0-1.464-1.19-2.746-2.746-2.746H86.71
		c-1.465,0-2.746,1.19-2.746,2.746v0.183c-0.72,0.203-1.397,0.476-2.065,0.76c0.232,0.571,0.439,1.162,0.65,1.751
		c0.464-0.199,0.922-0.407,1.416-0.56v2.443c0,0.549,0.366,0.915,0.915,0.915s0.916-0.366,0.916-0.915v-3.661v-0.915
		c0-0.458,0.366-0.915,0.916-0.915h3.661c0.458,0,0.915,0.366,0.915,0.915v0.915v3.661c0,0.549,0.366,0.915,0.915,0.915
		s0.915-0.366,0.915-0.915v-2.443c0.749,0.233,1.463,0.521,2.145,0.853l-1.23,5.983c0,0.275,0.091,0.641,0.275,0.824
		c0.183,0.183,0.366,0.275,0.64,0.275c0.091,0,0.091,0,0.183,0l6.29-1.324c1.136,2.026,1.765,4.35,1.765,6.816v0.915h-0.916H85.277
		c0.033,0.607,0.056,1.216,0.067,1.831h16.011v3.661c0,3.997-1.379,7.541-3.44,10.239l-0.038,0.013
		c-0.091,0.092-0.183,0.183-0.274,0.275c-0.504,0.672-1.046,1.262-1.606,1.804c-2.141,1.942-4.667,3.105-7.106,3.207
		c-0.111-0.04-0.228-0.068-0.35-0.068c-0.098,0-0.173,0.047-0.258,0.074c-0.299-0.009-0.597-0.023-0.893-0.062
		c-1.054-0.143-2.114-0.487-3.145-0.988c-0.117-0.058-0.235-0.108-0.351-0.171c-0.148-0.078-0.292-0.17-0.438-0.254
		c-0.26-0.155-0.513-0.333-0.768-0.51c-0.215,0.62-0.418,1.25-0.657,1.851c1.215,0.773,2.532,1.348,3.934,1.67
		c0.125,0.029,0.251,0.051,0.376,0.077c0.268,0.052,0.533,0.109,0.807,0.143l-1.423,3.202c0.59,0.262,1.134,0.55,1.697,0.827
		l0.567-1.3l0.556-1.251l1.369,3.011l0.523,1.177c0.995,0.596,1.933,1.217,2.812,1.866l5.463-7.512
		c3.729,0.562,8.003,2.114,13.718,5.107c1.098,0.641,1.739,1.739,1.739,2.929v3.021H97.208c0.541,0.597,1.038,1.206,1.485,1.831
		h16.392c0.549,0,0.915-0.366,0.915-0.915V58.37C116,56.54,114.902,54.801,113.254,53.885z M96.138,19.012l0.819-4.003
		c0.112,0.074,0.223,0.149,0.333,0.226c1.154,0.864,2.223,1.867,3.059,2.953L96.138,19.012z M97.505,48.869
		c-0.027,0.029-0.062,0.038-0.086,0.074l-3.807,5.271l-1.209,1.659l-2.471-5.56c0.237-0.029,0.467-0.078,0.701-0.121
		c0.197-0.037,0.393-0.073,0.589-0.12c0.25-0.06,0.496-0.127,0.741-0.203c0.168-0.052,0.335-0.112,0.501-0.171
		c0.253-0.09,0.505-0.178,0.752-0.285c0.037-0.016,0.073-0.037,0.111-0.054c0.561-0.25,1.101-0.545,1.625-0.873
		c0.152-0.094,0.304-0.186,0.454-0.287c0.213-0.145,0.421-0.298,0.627-0.455c0.172-0.131,0.343-0.266,0.512-0.406
		c0.177-0.147,0.353-0.294,0.525-0.45c0.245-0.221,0.483-0.456,0.72-0.696c0.082-0.084,0.167-0.162,0.247-0.247
		c0.038-0.04,0.077-0.075,0.115-0.115l0.366,1.648L97.505,48.869z"/>
	<path fill="#009FE3" d="M35.033,50.831c-0.008-0.016-0.014-0.034-0.022-0.05l-0.067,0.092
		C34.973,50.858,35.004,50.846,35.033,50.831z"/>
	<path fill="#009FE3" d="M1.831,61.391V58.37c0-1.19,0.641-2.288,1.739-2.837c5.835-3.1,10.035-4.654,13.776-5.119l5.406,7.432
		c0.904-0.667,1.871-1.305,2.897-1.917l1.26-2.888l0.556-1.251l1.151,2.533c0.551-0.271,1.083-0.553,1.659-0.809l-1.423-3.202
		c0.237-0.029,0.468-0.078,0.701-0.121c0.197-0.037,0.394-0.073,0.589-0.12c0.249-0.06,0.496-0.127,0.74-0.203
		c0.168-0.052,0.335-0.112,0.501-0.171c0.253-0.09,0.505-0.178,0.751-0.285c0.038-0.016,0.074-0.037,0.111-0.054
		c0.561-0.25,1.101-0.545,1.626-0.873c0.033-0.021,0.066-0.042,0.099-0.063c-0.236-0.595-0.437-1.218-0.65-1.831
		c-1.75,1.183-3.655,1.882-5.511,1.96c-0.111-0.04-0.228-0.068-0.35-0.068c-0.098,0-0.173,0.047-0.258,0.074
		c-0.299-0.009-0.596-0.023-0.893-0.062c-1.054-0.143-2.114-0.487-3.145-0.988c-0.117-0.058-0.235-0.108-0.351-0.171
		c-0.148-0.078-0.292-0.17-0.437-0.254c-1.428-0.851-2.775-2.038-3.977-3.541c-0.091-0.091-0.183-0.183-0.275-0.275l-0.038-0.013
		c-2.061-2.697-3.44-6.241-3.44-10.239v-3.661h16.013c0.012-0.614,0.034-1.224,0.067-1.831H13.73h-0.915v-0.915
		c0-2.436,0.616-4.733,1.726-6.741l6.329,1.249c0.091,0,0.091,0,0.183,0c0.275,0,0.458-0.091,0.733-0.183
		c0.274-0.183,0.366-0.549,0.274-0.824l-1.255-6.105c0.663-0.319,1.354-0.597,2.078-0.823v2.443c0,0.549,0.366,0.915,0.915,0.915
		c0.549,0,0.915-0.366,0.915-0.915v-3.661v-0.915c0-0.458,0.366-0.915,0.916-0.915h3.661c0.457,0,0.915,0.366,0.915,0.915v0.915
		v3.661c0,0.549,0.366,0.915,0.915,0.915c0.549,0,0.915-0.366,0.915-0.915V13.18c0.494,0.154,0.952,0.365,1.417,0.564
		c0.211-0.59,0.418-1.182,0.65-1.754c-0.669-0.284-1.347-0.557-2.067-0.761v-0.183c0-1.464-1.19-2.746-2.746-2.746h-3.661
		c-1.464,0-2.746,1.19-2.746,2.746v0.183c-7.14,2.014-11.899,8.146-11.899,15.377v0.915h-0.916c-0.549,0-0.915,0.366-0.915,0.915
		c0,0.549,0.366,0.915,0.915,0.915h1.831h0.915v3.661c0,3.81,1.344,7.806,3.609,11.011l-0.863,3.45c0,0.183,0,0.549,0.183,0.732
		l0.392,0.539c-3.733,0.621-7.922,2.236-13.389,5.136C1.007,54.709,0,56.448,0,58.37v3.936c0,0.549,0.366,0.915,0.916,0.915H17.31
		c0.447-0.624,0.944-1.233,1.485-1.831L1.831,61.391L1.831,61.391z M17.849,45.831c0.036,0.039,0.075,0.073,0.112,0.112
		c0.097,0.104,0.201,0.198,0.3,0.299c0.208,0.209,0.416,0.416,0.631,0.61c0.234,0.214,0.476,0.414,0.72,0.611
		c0.068,0.054,0.135,0.109,0.204,0.161c1.513,1.182,3.218,2.046,5.07,2.47c0.125,0.029,0.25,0.051,0.376,0.077
		c0.268,0.052,0.533,0.109,0.807,0.143l-2.471,5.56l-1.208-1.659l-3.807-5.271c-0.02-0.02-0.049-0.035-0.071-0.054l-1.027-1.411
		L17.849,45.831z M18.711,15.235c0.11-0.077,0.221-0.152,0.333-0.226l0.819,4.003l-4.211-0.824
		C16.488,17.102,17.557,16.099,18.711,15.235z"/>
	<path fill="#009FE3" d="M87.203,54.846l0.22-0.504c-0.563-0.278-1.108-0.566-1.697-0.827l-0.091,0.204
		C86.164,54.086,86.689,54.459,87.203,54.846z"/>
	<g>
		<path fill="#009FE3" d="M91.567,63.32c-7.427-3.938-13.116-6.131-18.186-6.975l0.532-0.732c0.249-0.249,0.373-0.621,0.249-0.995
			l-1.171-4.686c3.076-4.354,4.901-9.781,4.901-14.956v-4.973h1.243h2.486c0.746,0,1.243-0.497,1.243-1.243
			s-0.497-1.243-1.243-1.243h-1.243v-1.243c0-9.821-6.464-18.15-16.161-20.885v-0.25c0-1.989-1.616-3.729-3.729-3.729h-4.973
			c-1.989,0-3.73,1.616-3.73,3.729v0.249c-9.697,2.735-16.161,11.064-16.161,20.885v1.243h-1.243c-0.746,0-1.243,0.497-1.243,1.243
			s0.497,1.243,1.243,1.243h2.486h1.243v4.973c0,5.175,1.825,10.602,4.901,14.956l-1.171,4.686c0,0.249,0,0.746,0.248,0.995
			l0.533,0.732c-5.07,0.844-10.759,3.037-18.186,6.975c-2.362,1.119-3.73,3.481-3.73,6.092v5.346c0,0.746,0.497,1.243,1.243,1.243
			h29.836h0.497H63.72h0.497h29.836c0.746,0,1.243-0.497,1.243-1.243v-5.346C95.296,66.925,93.804,64.563,91.567,63.32z
			 M69.431,10.518c0.152,0.101,0.304,0.203,0.452,0.308c1.568,1.174,3.02,2.535,4.155,4.011l-5.719,1.119L69.431,10.518z
			 M46.119,10.825c0.149-0.105,0.3-0.206,0.452-0.308l1.112,5.437l-5.719-1.119C43.099,13.361,44.551,11.999,46.119,10.825z
			 M38.11,27.517v-1.243c0-3.309,0.837-6.428,2.345-9.156l8.595,1.697c0.124,0,0.124,0,0.248,0c0.373,0,0.622-0.124,0.995-0.249
			c0.373-0.249,0.497-0.746,0.373-1.119l-1.704-8.292c0.9-0.433,1.838-0.811,2.823-1.117v3.318c0,0.746,0.497,1.243,1.243,1.243
			s1.243-0.497,1.243-1.243V6.383V5.139c0-0.622,0.497-1.243,1.243-1.243h4.973c0.622,0,1.243,0.497,1.243,1.243v1.243v4.973
			c0,0.746,0.497,1.243,1.243,1.243s1.243-0.497,1.243-1.243V8.037c1.017,0.316,1.987,0.707,2.913,1.159l-1.67,8.126
			c0,0.373,0.124,0.87,0.373,1.119c0.248,0.249,0.497,0.373,0.87,0.373c0.124,0,0.124,0,0.249,0l8.543-1.799
			c1.543,2.751,2.397,5.908,2.397,9.258v1.243h-1.243H39.354H38.11V27.517z M40.597,34.976v-4.973h34.809v4.973
			c0,5.429-1.873,10.243-4.673,13.906l-0.051,0.017c-0.124,0.124-0.248,0.249-0.373,0.373c-0.685,0.913-1.42,1.714-2.182,2.45
			c-2.908,2.638-6.339,4.217-9.651,4.356c-0.151-0.055-0.31-0.092-0.475-0.092c-0.133,0-0.235,0.064-0.35,0.1
			c-0.405-0.012-0.81-0.032-1.213-0.084c-1.432-0.194-2.872-0.661-4.272-1.342c-0.159-0.079-0.32-0.147-0.477-0.232
			c-0.201-0.106-0.396-0.23-0.594-0.345c-1.939-1.156-3.769-2.769-5.402-4.81c-0.124-0.124-0.249-0.249-0.373-0.373l-0.051-0.017
			C42.47,45.218,40.597,40.405,40.597,34.976z M50.741,73.514H23.192v-4.102c0-1.616,0.87-3.108,2.362-3.854
			c7.925-4.21,13.629-6.321,18.711-6.952l7.417,10.199L50.741,73.514z M51.113,63.766l-5.171-7.159
			c-0.027-0.027-0.067-0.047-0.097-0.073l-1.395-1.916l0.497-2.238c0.049,0.053,0.102,0.099,0.152,0.152
			c0.131,0.141,0.273,0.269,0.407,0.406c0.283,0.284,0.565,0.565,0.857,0.829c0.317,0.29,0.646,0.562,0.978,0.83
			c0.092,0.074,0.183,0.148,0.277,0.219c2.056,1.605,4.37,2.778,6.885,3.355c0.17,0.04,0.34,0.07,0.51,0.104
			c0.363,0.071,0.724,0.148,1.095,0.194l-3.356,7.551L51.113,63.766z M53.327,73.514l0.746-3.729
			c0.094-0.468,0.945-2.486,0.945-2.486l2.235-5.123l0.755-1.699l1.859,4.089l1.214,2.733c0,0,0.721,1.866,0.839,2.486l0.71,3.729
			C62.63,73.514,53.327,73.514,53.327,73.514z M63.248,66.019l-3.356-7.551c0.322-0.039,0.635-0.106,0.952-0.164
			c0.268-0.05,0.535-0.1,0.8-0.163c0.339-0.081,0.674-0.173,1.006-0.275c0.229-0.071,0.455-0.152,0.681-0.233
			c0.343-0.123,0.686-0.242,1.02-0.387c0.051-0.022,0.1-0.051,0.151-0.073c0.762-0.339,1.496-0.74,2.208-1.185
			c0.206-0.128,0.413-0.253,0.616-0.39c0.29-0.197,0.571-0.405,0.852-0.619c0.234-0.177,0.465-0.361,0.695-0.551
			c0.241-0.2,0.48-0.399,0.713-0.611c0.332-0.3,0.656-0.619,0.978-0.945c0.111-0.114,0.227-0.22,0.336-0.336
			c0.051-0.054,0.105-0.101,0.156-0.156l0.497,2.238l-1.376,1.889c-0.036,0.04-0.084,0.052-0.116,0.1l-5.17,7.159L63.248,66.019z
			 M92.81,73.514H65.261l-0.942-4.709l7.497-10.308c5.065,0.764,10.87,2.871,18.632,6.937c1.492,0.87,2.362,2.362,2.362,3.978
			V73.514z"/>
		<path fill="#009FE3" d="M54.073,69.784l0.945-2.486C55.017,67.298,54.166,69.317,54.073,69.784z"/>
		<path fill="#009FE3" d="M61.081,67.298l0.839,2.486C61.802,69.164,61.081,67.298,61.081,67.298z"/>
	</g>
</g>
</svg>
