<?xml version="1.0" encoding="utf-8"?>
<!-- Generator: Adobe Illustrator 22.0.1, SVG Export Plug-In . SVG Version: 6.00 Build 0)  -->
<svg version="1.1" id="Слой_1" xmlns="http://www.w3.org/2000/svg" xmlns:xlink="http://www.w3.org/1999/xlink" x="0px" y="0px"
	 width="68px" height="76px" viewBox="0 0 68 76" enable-background="new 0 0 68 76" xml:space="preserve">
<g>
	<path fill="#009FE3" d="M20.536,38.711c-0.266-0.266-0.667-0.345-1.015-0.202c-0.348,0.145-0.574,0.483-0.574,0.861v16.522
		c0,0.514,0.417,0.931,0.931,0.931H36.4c0.377,0,0.717-0.227,0.86-0.575c0.145-0.348,0.065-0.748-0.202-1.014L20.536,38.711z
		 M20.809,54.961V41.617l13.343,13.344H20.809z"/>
	<path fill="#009FE3" d="M67.519,5.735l-4.841-4.841c-0.364-0.364-0.953-0.363-1.317,0L33.386,28.87
		c-0.089,0.089-0.16,0.197-0.207,0.314l-3.066,7.7l-12.339-12.34l2.214-2.214c0.364-0.364,0.364-0.953,0-1.317s-0.953-0.364-1.316,0
		l-2.214,2.214l-3.714-3.714V0.931C12.744,0.417,12.326,0,11.812,0H1.139C0.625,0,0.208,0.417,0.208,0.931v74.138
		C0.208,75.583,0.625,76,1.139,76h10.674c0.514,0,0.931-0.417,0.931-0.932v-10.18h42.742l2.599,2.599
		c0.182,0.182,0.42,0.273,0.659,0.273c0.238,0,0.476-0.091,0.658-0.273c0.364-0.363,0.364-0.953,0-1.316L31.53,38.3l7.7-3.066
		c0.117-0.047,0.225-0.117,0.314-0.207L67.519,7.052c0.174-0.175,0.273-0.412,0.273-0.658C67.792,6.147,67.693,5.91,67.519,5.735
		L67.519,5.735z M10.882,74.138H2.07v-1.657h1.599c0.514,0,0.931-0.417,0.931-0.931s-0.417-0.931-0.931-0.931H2.07v-2.931h1.599
		c0.514,0,0.931-0.417,0.931-0.931s-0.417-0.931-0.931-0.931H2.07v-2.931h1.599c0.514,0,0.931-0.417,0.931-0.931
		s-0.417-0.931-0.931-0.931H2.07v-2.931h1.599c0.514,0,0.931-0.417,0.931-0.931S4.183,56.24,3.669,56.24H2.07v-2.931h1.599
		c0.514,0,0.931-0.417,0.931-0.931s-0.417-0.931-0.931-0.931H2.07v-2.932h1.599c0.514,0,0.931-0.417,0.931-0.931
		s-0.417-0.932-0.931-0.932H2.07v-2.931h1.599c0.514,0,0.931-0.417,0.931-0.931s-0.417-0.931-0.931-0.931H2.07v-2.931h1.599
		C4.184,38.931,4.6,38.514,4.6,38s-0.417-0.931-0.931-0.931H2.07v-2.931h1.599c0.514,0,0.931-0.417,0.931-0.931
		s-0.417-0.932-0.931-0.932H2.07v-2.931h1.599c0.514,0,0.931-0.417,0.931-0.931s-0.417-0.931-0.931-0.931H2.07v-2.931h1.599
		c0.514,0,0.931-0.416,0.931-0.931c0-0.514-0.417-0.931-0.931-0.931H2.07v-2.931h1.599c0.514,0,0.931-0.417,0.931-0.931
		s-0.417-0.932-0.931-0.932H2.07v-2.931h1.599c0.514,0,0.931-0.417,0.931-0.931c0-0.515-0.417-0.931-0.931-0.931H2.07v-2.931h1.599
		c0.514,0,0.931-0.416,0.931-0.931c0-0.514-0.417-0.931-0.931-0.931H2.07V5.381h1.599C4.184,5.381,4.6,4.964,4.6,4.45
		c0-0.515-0.417-0.932-0.931-0.932H2.07V1.862h8.811v72.276H10.882z M12.743,63.025V22.146l4.531,4.53l-2.649,2.649
		c-0.364,0.364-0.364,0.953,0,1.317c0.182,0.182,0.42,0.273,0.659,0.273c0.238,0,0.476-0.091,0.658-0.273l2.649-2.649l2.073,2.073
		l-2.649,2.649c-0.363,0.364-0.363,0.953,0,1.316c0.182,0.182,0.42,0.273,0.658,0.273c0.239,0,0.477-0.091,0.659-0.273l2.649-2.649
		l2.072,2.072l-2.649,2.649c-0.364,0.364-0.364,0.953,0,1.317c0.182,0.182,0.42,0.273,0.659,0.273c0.238,0,0.476-0.091,0.658-0.273
		l2.649-2.649l2.073,2.073l-2.649,2.649c-0.364,0.364-0.364,0.953,0,1.316c0.182,0.182,0.42,0.273,0.658,0.273
		c0.239,0,0.477-0.091,0.659-0.273l2.649-2.649l2.072,2.072l-2.649,2.649c-0.364,0.364-0.364,0.953,0,1.317
		c0.182,0.182,0.42,0.273,0.659,0.273c0.238,0,0.476-0.091,0.658-0.273l2.649-2.649l2.073,2.073l-2.649,2.649
		c-0.364,0.364-0.364,0.953,0,1.317c0.182,0.182,0.42,0.273,0.658,0.273c0.239,0,0.477-0.091,0.659-0.273l2.649-2.649l2.072,2.072
		l-2.649,2.649c-0.364,0.363-0.364,0.953,0,1.316c0.182,0.182,0.42,0.273,0.659,0.273c0.238,0,0.476-0.091,0.658-0.273l2.649-2.649
		l2.073,2.073l-2.649,2.649c-0.364,0.364-0.364,0.953,0,1.317c0.182,0.182,0.42,0.273,0.658,0.273c0.238,0,0.477-0.091,0.659-0.273
		l2.649-2.649l2.072,2.072l-2.649,2.649c-0.363,0.364-0.363,0.953,0,1.316c0.182,0.182,0.42,0.273,0.659,0.273
		c0.238,0,0.476-0.091,0.658-0.273l2.649-2.649l2.073,2.073l-2.649,2.649c-0.364,0.364-0.364,0.953,0,1.317
		c0.182,0.182,0.42,0.273,0.658,0.273c0.239,0,0.477-0.091,0.659-0.273l2.649-2.649l4.53,4.53H12.743L12.743,63.025z M37.782,31.948
		L60.931,8.8l1.103,1.103L38.886,33.052L37.782,31.948z M36.465,30.632l-1.103-1.103L58.51,6.379l1.104,1.104L36.465,30.632z
		 M34.386,31.186l2.841,2.841l-4.72,1.879L34.386,31.186z M63.351,8.586l-3.524-3.524L62.02,2.87l3.523,3.524L63.351,8.586z"/>
	<path fill="#009FE3" d="M61.676,68.445c-0.364-0.364-0.953-0.364-1.317,0c-0.364,0.363-0.364,0.953,0,1.316l2.872,2.872
		c0.182,0.182,0.42,0.273,0.659,0.273c0.238,0,0.476-0.091,0.658-0.273c0.364-0.364,0.364-0.953,0-1.317L61.676,68.445z"/>
	<path fill="#009FE3" d="M66.821,73.592c-0.364-0.364-0.953-0.364-1.317,0c-0.363,0.364-0.363,0.954,0.001,1.317l0.059,0.059
		c0.182,0.182,0.42,0.273,0.658,0.273c0.239,0,0.477-0.092,0.659-0.274c0.364-0.364,0.364-0.953-0.001-1.316L66.821,73.592z"/>
	<path fill="#009FE3" d="M37.044,4.888c0.238,0,0.477-0.091,0.659-0.273l0.148-0.149c0.364-0.363,0.364-0.953,0-1.316
		c-0.364-0.364-0.953-0.364-1.316,0l-0.148,0.149c-0.363,0.363-0.363,0.953,0,1.316C36.568,4.797,36.806,4.888,37.044,4.888
		L37.044,4.888z"/>
	<path fill="#009FE3" d="M31.898,10.035c0.238,0,0.476-0.091,0.658-0.273l2.873-2.872c0.364-0.364,0.364-0.953,0-1.317
		s-0.953-0.364-1.317,0l-2.873,2.872c-0.364,0.364-0.364,0.953,0,1.317C31.421,9.944,31.66,10.035,31.898,10.035L31.898,10.035z"/>
	<path fill="#009FE3" d="M26.751,15.181c0.238,0,0.476-0.091,0.658-0.273l2.873-2.872c0.364-0.364,0.364-0.953,0-1.317
		c-0.364-0.363-0.953-0.363-1.317,0l-2.873,2.872c-0.364,0.363-0.364,0.953,0,1.316C26.274,15.09,26.513,15.181,26.751,15.181
		L26.751,15.181z"/>
	<path fill="#009FE3" d="M21.605,20.328c0.238,0,0.476-0.091,0.658-0.273l2.873-2.872c0.364-0.363,0.364-0.953,0-1.316
		c-0.363-0.364-0.954-0.364-1.316,0l-2.873,2.873c-0.364,0.363-0.364,0.953,0,1.316C21.128,20.237,21.367,20.328,21.605,20.328
		L21.605,20.328z"/>
</g>
</svg>
