<?xml version="1.0" encoding="utf-8"?>
<!-- Generator: Adobe Illustrator 22.0.1, SVG Export Plug-In . SVG Version: 6.00 Build 0)  -->
<svg version="1.1" id="Слой_1" xmlns="http://www.w3.org/2000/svg" xmlns:xlink="http://www.w3.org/1999/xlink" x="0px" y="0px"
	 width="72px" height="76px" viewBox="0 0 72 76" enable-background="new 0 0 72 76" xml:space="preserve">
<g>
	<path fill="#009FE3" d="M51.533,33.475H6.155C2.761,33.475,0,36.236,0,39.63v24.904c0,3.394,2.761,6.154,6.155,6.154h2.833
		L8.024,74.48c-0.116,0.456,0.04,0.938,0.402,1.239C8.649,75.904,8.926,76,9.204,76c0.175,0,0.349-0.037,0.513-0.114l11.21-5.199
		h30.607c3.394,0,6.155-2.76,6.155-6.154V39.63C57.688,36.236,54.927,33.475,51.533,33.475L51.533,33.475z M55.251,64.534
		c0,2.049-1.668,3.716-3.717,3.716H20.658c-0.177,0-0.352,0.039-0.512,0.114l-9.127,4.233l0.719-2.827
		c0.093-0.364,0.012-0.751-0.219-1.049c-0.231-0.297-0.586-0.471-0.962-0.471H6.155c-2.05,0-3.717-1.667-3.717-3.716V39.63
		c0-2.05,1.668-3.717,3.717-3.717h45.378c2.05,0,3.717,1.668,3.717,3.717v24.904H55.251z"/>
	<path fill="#009FE3" d="M48.507,40.625H9.181c-0.673,0-1.219,0.546-1.219,1.219c0,0.674,0.546,1.219,1.219,1.219h39.326
		c0.673,0,1.219-0.545,1.219-1.219C49.726,41.171,49.18,40.625,48.507,40.625L48.507,40.625z"/>
	<path fill="#009FE3" d="M48.507,47.341H9.181c-0.673,0-1.219,0.546-1.219,1.219c0,0.674,0.546,1.219,1.219,1.219h39.326
		c0.673,0,1.219-0.545,1.219-1.219C49.726,47.887,49.18,47.341,48.507,47.341L48.507,47.341z"/>
	<path fill="#009FE3" d="M48.507,54.058H9.181c-0.673,0-1.219,0.546-1.219,1.219c0,0.674,0.546,1.219,1.219,1.219h39.326
		c0.673,0,1.219-0.545,1.219-1.219C49.726,54.604,49.18,54.058,48.507,54.058L48.507,54.058z"/>
	<g>
		<path fill="#009FE3" d="M48.507,60.776H9.181c-0.673,0-1.219,0.545-1.219,1.219c0,0.673,0.546,1.219,1.219,1.219h39.326
			c0.673,0,1.219-0.546,1.219-1.219C49.726,61.321,49.18,60.776,48.507,60.776L48.507,60.776z"/>
		<path fill="#009FE3" d="M65.834,2.271H45.359c-3.394,0-6.155,2.761-6.155,6.155v14.609c0,3.394,2.761,6.154,6.155,6.154h5.229
			l9.79,4.54c0.164,0.076,0.338,0.114,0.513,0.114c0.226,0,0.451-0.063,0.648-0.187c0.35-0.219,0.564-0.601,0.571-1.013l0.051-3.453
			h3.674c3.394,0,6.155-2.761,6.155-6.154V8.426C71.988,5.032,69.228,2.271,65.834,2.271L65.834,2.271z M69.551,23.035
			c0,2.05-1.667,3.717-3.716,3.717H60.96c-0.667,0-1.209,0.535-1.219,1.201L59.7,30.729l-8.33-3.863
			c-0.16-0.075-0.336-0.113-0.513-0.113h-5.498c-2.05,0-3.717-1.668-3.717-3.717V8.426c0-2.05,1.668-3.717,3.717-3.717h20.476
			c2.049,0,3.716,1.668,3.716,3.717V23.035z"/>
	</g>
	<path fill="#009FE3" d="M55.596,7.565c-2.916,0-5.288,2.372-5.288,5.288c0,0.673,0.545,1.219,1.219,1.219
		c0.673,0,1.219-0.546,1.219-1.219c0-1.572,1.279-2.851,2.851-2.851c1.573,0,2.852,1.279,2.852,2.851
		c0,0.991-0.502,1.895-1.344,2.422c-1.86,1.067-2.972,3.043-2.903,5.158c0.022,0.659,0.563,1.179,1.217,1.179
		c0.014,0,0.028-0.001,0.041-0.001c0.673-0.022,1.2-0.586,1.178-1.258c-0.04-1.213,0.606-2.351,1.689-2.971
		c0.018-0.01,0.036-0.021,0.051-0.031c1.57-0.972,2.507-2.653,2.507-4.498C60.885,9.937,58.513,7.565,55.596,7.565L55.596,7.565z"/>
	<path fill="#009FE3" d="M55.425,22.828c-0.322,0-0.636,0.13-0.863,0.356c-0.226,0.227-0.355,0.541-0.355,0.862
		c0,0.32,0.13,0.634,0.355,0.861c0.228,0.228,0.543,0.358,0.863,0.358s0.635-0.13,0.861-0.358c0.228-0.227,0.358-0.541,0.358-0.861
		c0-0.321-0.13-0.636-0.358-0.862C56.06,22.958,55.745,22.828,55.425,22.828L55.425,22.828z"/>
</g>
</svg>
