<?xml version="1.0" encoding="utf-8"?>
<!-- Generator: Adobe Illustrator 22.0.1, SVG Export Plug-In . SVG Version: 6.00 Build 0)  -->
<svg version="1.1" id="Слой_1" xmlns="http://www.w3.org/2000/svg" xmlns:xlink="http://www.w3.org/1999/xlink" x="0px" y="0px"
	 width="27px" height="23px" viewBox="0 0 27 23" style="enable-background:new 0 0 27 23;" xml:space="preserve">
<style type="text/css">
	.st0{fill:#009FE3;}
	.st1{clip-path:url(#SVGID_2_);fill:#009FE3;}
</style>
<g>
	<path class="st0" d="M15.8,4c-0.2,0-0.4-0.1-0.4-0.3c0-0.2,0.1-0.4,0.3-0.5l8.7-1.5c0.2,0,0.4,0.1,0.5,0.3c0,0.2-0.1,0.4-0.3,0.5
		L15.8,4C15.8,4,15.8,4,15.8,4L15.8,4z M15.8,4"/>
	<path class="st0" d="M2.1,6.3c-0.2,0-0.4-0.1-0.4-0.3c0-0.2,0.1-0.4,0.3-0.5L10.8,4c0.2,0,0.4,0.1,0.5,0.3c0,0.2-0.1,0.4-0.3,0.5
		L2.1,6.3C2.2,6.3,2.1,6.3,2.1,6.3L2.1,6.3z M2.1,6.3"/>
	<path class="st0" d="M21.7,16.6c-2.7,0-5-2.2-5-5c0-0.2,0.2-0.4,0.4-0.4h9.1c0.2,0,0.4,0.2,0.4,0.4C26.6,14.3,24.4,16.6,21.7,16.6
		L21.7,16.6z M17.5,12c0.2,2.1,2,3.8,4.1,3.8c2.2,0,3.9-1.7,4.1-3.8H17.5z M17.5,12"/>
	<path class="st0" d="M17.1,12c-0.1,0-0.1,0-0.2,0c-0.2-0.1-0.3-0.3-0.2-0.5l4.6-8.8c0.1-0.3,0.6-0.3,0.7,0l4.6,8.8
		c0.1,0.2,0,0.4-0.2,0.5c-0.2,0.1-0.4,0-0.5-0.2l-4.2-8.1l-4.2,8.1C17.4,11.9,17.2,12,17.1,12L17.1,12z M17.1,12"/>
	<g>
		<defs>
			<rect id="SVGID_1_" width="27.1" height="23"/>
		</defs>
		<clipPath id="SVGID_2_">
			<use xlink:href="#SVGID_1_"  style="overflow:visible;"/>
		</clipPath>
		<path class="st1" d="M5,19.2c-2.7,0-5-2.2-5-5c0-0.2,0.2-0.4,0.4-0.4h9.1c0.2,0,0.4,0.2,0.4,0.4C9.9,17,7.7,19.2,5,19.2L5,19.2z
			 M0.8,14.6c0.2,2.1,2,3.8,4.1,3.8c2.2,0,3.9-1.7,4.1-3.8H0.8z M0.8,14.6"/>
		<path class="st1" d="M9.5,14.6c-0.1,0-0.3-0.1-0.4-0.2L5,6.3l-4.2,8.1c-0.1,0.2-0.3,0.3-0.5,0.2C0,14.5-0.1,14.2,0,14l4.6-8.8
			C4.8,5,5.2,5,5.3,5.3L9.9,14c0.1,0.2,0,0.4-0.2,0.5C9.7,14.6,9.6,14.6,9.5,14.6L9.5,14.6z M9.5,14.6"/>
	</g>
	<path class="st0" d="M13.3,6.9c-1.6,0-2.9-1.3-2.9-2.9c0-1.6,1.3-2.9,2.9-2.9c1.6,0,2.9,1.3,2.9,2.9C16.2,5.6,14.9,6.9,13.3,6.9
		L13.3,6.9z M13.3,1.9c-1.1,0-2.1,0.9-2.1,2.1S12.2,6,13.3,6s2.1-0.9,2.1-2.1S14.4,1.9,13.3,1.9L13.3,1.9z M13.3,1.9"/>
	<path class="st0" d="M13.3,22c-0.2,0-0.4-0.2-0.4-0.4V6.5c0-0.2,0.2-0.4,0.4-0.4c0.2,0,0.4,0.2,0.4,0.4v15.2
		C13.7,21.9,13.5,22,13.3,22L13.3,22z M13.3,22"/>
	<path class="st0" d="M13.3,1.9c-0.2,0-0.4-0.2-0.4-0.4v-1c0-0.2,0.2-0.4,0.4-0.4c0.2,0,0.4,0.2,0.4,0.4v1
		C13.7,1.8,13.5,1.9,13.3,1.9L13.3,1.9z M13.3,1.9"/>
	<path class="st0" d="M18.6,22H8c-0.2,0-0.4-0.2-0.4-0.4c0-0.2,0.2-0.4,0.4-0.4h10.6c0.2,0,0.4,0.2,0.4,0.4C19,21.9,18.9,22,18.6,22
		L18.6,22z M18.6,22"/>
</g>
</svg>
