<?xml version="1.0" encoding="utf-8"?>
<!-- Generator: Adobe Illustrator 22.0.1, SVG Export Plug-In . SVG Version: 6.00 Build 0)  -->
<svg version="1.1" id="Слой_1" xmlns="http://www.w3.org/2000/svg" xmlns:xlink="http://www.w3.org/1999/xlink" x="0px" y="0px"
	 width="14px" height="15px" viewBox="0 0 14 15" style="enable-background:new 0 0 14 15;" xml:space="preserve">
<style type="text/css">
	.st0{fill:#009FE3;}
</style>
<g>
	<g>
		<path class="st0" d="M13.6,2.5c-0.2-0.2-0.5-0.3-0.8-0.3h-1.1V1.3c0-0.4-0.1-0.7-0.4-0.9C11.1,0.1,10.8,0,10.4,0H9.9
			C9.5,0,9.2,0.1,9,0.4C8.7,0.7,8.6,1,8.6,1.3v0.8H5.4V1.3C5.4,1,5.2,0.7,5,0.4C4.7,0.1,4.4,0,4,0H3.5C3.1,0,2.8,0.1,2.5,0.4
			C2.3,0.7,2.1,1,2.1,1.3v0.8H1.1c-0.3,0-0.5,0.1-0.8,0.3C0.1,2.7,0,2.9,0,3.2v10.7c0,0.3,0.1,0.5,0.3,0.8C0.5,14.9,0.8,15,1.1,15
			h11.8c0.3,0,0.5-0.1,0.8-0.3c0.2-0.2,0.3-0.5,0.3-0.8V3.2C13.9,2.9,13.8,2.7,13.6,2.5L13.6,2.5z M9.6,1.3c0-0.1,0-0.1,0.1-0.2
			c0.1-0.1,0.1-0.1,0.2-0.1h0.5c0.1,0,0.1,0,0.2,0.1c0.1,0.1,0.1,0.1,0.1,0.2v2.4c0,0.1,0,0.1-0.1,0.2C10.6,4,10.5,4,10.4,4H9.9
			C9.8,4,9.8,4,9.7,3.9C9.7,3.9,9.6,3.8,9.6,3.7V1.3z M3.2,1.3c0-0.1,0-0.1,0.1-0.2c0.1-0.1,0.1-0.1,0.2-0.1H4c0.1,0,0.1,0,0.2,0.1
			c0.1,0.1,0.1,0.1,0.1,0.2v2.4c0,0.1,0,0.1-0.1,0.2C4.2,4,4.1,4,4,4H3.5C3.4,4,3.3,4,3.3,3.9C3.2,3.9,3.2,3.8,3.2,3.7V1.3z
			 M12.9,13.9H1.1V5.4h11.8V13.9z M12.9,13.9"/>
	</g>
	<g>
		<path class="st0" d="M6.7,8L6.7,8L5.8,8.5L5.6,7.7l1.2-0.6h0.9v5.1h-1V8z"/>
	</g>
</g>
</svg>
