<?xml version="1.0" encoding="utf-8"?>
<!-- Generator: Adobe Illustrator 22.0.1, SVG Export Plug-In . SVG Version: 6.00 Build 0)  -->
<svg version="1.1" id="Слой_1" xmlns="http://www.w3.org/2000/svg" xmlns:xlink="http://www.w3.org/1999/xlink" x="0px" y="0px"
	 width="25px" height="15px" viewBox="0 0 25 15" style="enable-background:new 0 0 25 15;" xml:space="preserve">
<style type="text/css">
	.st0{fill:#747474;}
</style>
<path class="st0" d="M24.7,9.4C24.7,9.4,24.7,9.4,24.7,9.4c-0.1,0.1-0.2-0.8-0.5-1.8c0-0.1-0.5-1.7-0.5-1.7l-0.3-0.8
	c0,0-0.2-0.6-1-1c-0.4-0.2-1.7-0.9-1.7-0.9l-1.3-0.8l-1.3-0.7c0,0-0.4-0.2-0.6-0.2c-0.1,0-0.1,0-0.1,0l-0.2,0c0,0-0.2-0.1-0.4-0.1
	c0,0-0.1,0-0.2-0.1c-0.1,0-0.1,0-0.1,0c-0.1,0-1.3-1-1.3-1S15,0,14.3,0c-0.7,0-1.7,0-1.7,0L9.4,0l-1.5,0l-2.7,0c0,0-0.2,0.1-0.2,0.3
	c0,0.2,0,0.3,0,0.3l0,0c0,0-0.7,0.5-0.7,0.6c0,0.2,0,0.3,0.1,0.3c0,0,0,0.1,0,0.1l0.2,0.8c0,0-0.2,0.1-0.2,0.2
	C4.2,3,2.7,5.9,2.7,5.9L0.8,9.4c0,0-0.1,0.3-0.1,0.6c0,0.2,0,0.9-0.1,1c0,0.1,0,0.5,0,0.5s-0.2,0.3-0.2,0.3c0,0,0,0.1,0,0.2
	c0.1,0,0.2,0.1,0.7,0.3c0.1,0,0.8,0.2,0.8,0.2l3.6,0.9l4.9,1.1l3.3,0.6l2-0.1c0,0,0.1-0.2-0.1-0.2c-0.1,0-0.2-0.1-0.2-0.1
	s0.2-0.1,0.4-0.1c0.2,0,0.1-0.2,0.1-0.2l1.5-0.1l2.5-0.2l1.8-0.2c0,0,1.2-0.2,1.2-0.2c0.1,0,0.2-0.1,0.2-0.2c0-0.1,0.4-0.4,0.4-0.4
	s0.4-0.3,0.7-1c0.1-0.3,0.3-0.7,0.3-0.8s0.2-0.6,0.2-0.8c0,0,0,0,0,0C24.7,10.1,24.7,9.4,24.7,9.4z"/>
</svg>
