<?xml version="1.0" encoding="utf-8"?>
<!-- Generator: Adobe Illustrator 22.0.1, SVG Export Plug-In . SVG Version: 6.00 Build 0)  -->
<svg version="1.1" id="Слой_1" xmlns="http://www.w3.org/2000/svg" xmlns:xlink="http://www.w3.org/1999/xlink" x="0px" y="0px"
	 width="12px" height="12px" viewBox="0 0 12 12" style="enable-background:new 0 0 12 12;" xml:space="preserve">
<style type="text/css">
	.st0{fill-rule:evenodd;clip-rule:evenodd;fill:#737373;}
	.st1{fill-rule:evenodd;clip-rule:evenodd;fill:#FFFFFF;}
</style>
<g>
	<path class="st0" d="M10.8,0.5h-0.4c0,0,0-0.1,0-0.1C10.4,0.2,10.2,0,10,0C9.8,0,9.7,0.2,9.7,0.4c0,0,0,0.1,0,0.1H8.3
		c0,0,0-0.1,0-0.1C8.4,0.2,8.2,0,8,0C7.8,0,7.7,0.2,7.7,0.4c0,0,0,0.1,0,0.1H6.3c0,0,0-0.1,0-0.1C6.4,0.2,6.2,0,6,0
		C5.8,0,5.6,0.2,5.6,0.4c0,0,0,0.1,0,0.1H4.3c0,0,0-0.1,0-0.1C4.3,0.2,4.2,0,4,0C3.8,0,3.6,0.2,3.6,0.4c0,0,0,0.1,0,0.1H2.3
		c0,0,0-0.1,0-0.1C2.3,0.2,2.2,0,2,0C1.8,0,1.6,0.2,1.6,0.4c0,0,0,0.1,0,0.1H1.2c-0.6,0-1,0.5-1,1V11c0,0.6,0.5,1,1,1h6.9
		c1,0,1.9-0.4,2.6-1.1l0,0c0.7-0.7,1.1-1.6,1.1-2.6V1.5C11.8,0.9,11.3,0.5,10.8,0.5L10.8,0.5z M11.2,9.6"/>
	<path class="st1" d="M10.4,9.3L10.4,9.3L9.6,9.4C9.3,9.4,9,9.7,9,10v0.7l-0.1,0.1H2c-0.2,0-0.4-0.2-0.4-0.4V3.9h8.9V9.3z"/>
</g>
</svg>
