<?xml version="1.0" encoding="utf-8"?>
<!-- Generator: Adobe Illustrator 22.0.1, SVG Export Plug-In . SVG Version: 6.00 Build 0)  -->
<svg version="1.1" id="Слой_1" xmlns="http://www.w3.org/2000/svg" xmlns:xlink="http://www.w3.org/1999/xlink" x="0px" y="0px"
	 width="28px" height="20px" viewBox="0 0 28 20" enable-background="new 0 0 28 20" xml:space="preserve">
<g>
	<path fill="#189CD9" d="M10.785,13.84c-0.168,0-0.332-0.033-0.494-0.081v5.35c0,0.313,0.198,0.592,0.491,0.696
		c0.082,0.031,0.166,0.043,0.251,0.043c0.216,0,0.428-0.094,0.57-0.269l4.708-5.739h-1.911l-2.628,3.204V13.84H10.785z
		 M10.785,13.84"/>
	<path fill="#189CD9" d="M7.202,8.911l1.134,0.424L8.104,7.671l-0.51-0.193C7.512,7.45,7.423,7.433,7.337,7.433h-6.41
		c-0.407,0-0.739,0.332-0.739,0.739c0,0.409,0.332,0.739,0.739,0.739H7.202z M7.202,8.911"/>
	<path fill="#189CD9" d="M27.813,16.368c0-1.986-1.608-3.594-3.594-3.594c-0.924,0-1.764,0.351-2.402,0.927l-2.145-1.564
		l-0.508,0.527c-0.159,0.159-0.366,0.332-0.597,0.496l2.378,1.733c-0.205,0.45-0.32,0.949-0.32,1.476
		c0,1.986,1.608,3.594,3.594,3.594C26.205,19.961,27.813,18.354,27.813,16.368L27.813,16.368z M24.219,17.588
		c-0.664,0-1.203-0.532-1.218-1.194c0-0.01-0.002-0.017-0.002-0.026c0-0.553,0.37-1.018,0.876-1.165
		c0.111-0.033,0.224-0.055,0.344-0.055c0.674,0,1.22,0.546,1.22,1.22C25.439,17.042,24.893,17.588,24.219,17.588L24.219,17.588z
		 M24.219,17.588"/>
	<path fill="#189CD9" d="M18.904,11.573l4.992-5.166c0.38-0.385,0.248-0.452-0.294-0.452H9.801c-0.544,0-0.924,0.253-0.847,0.789
		l0.187,1.312l0.238,1.67l0.282,1.966c0.053,0.373,0.315,0.784,0.65,1.001c0.147,0.099,0.308,0.161,0.474,0.161h5.999
		c0.12,0,0.255-0.024,0.389-0.063c0.188-0.053,0.383-0.137,0.568-0.238c0.282-0.154,0.542-0.344,0.72-0.524L18.904,11.573z
		 M18.904,11.573"/>
	<path fill="#189CD9" d="M18.918,1.516h-2.71l-0.802-1.478h-1.663l-1.295,2.465h-1.17l-0.987,2.465h12.324l-0.799-1.478h-1.666
		L18.918,1.516z M18.918,1.516"/>
</g>
</svg>
