<?xml version="1.0" encoding="utf-8"?>
<!-- Generator: Adobe Illustrator 22.0.1, SVG Export Plug-In . SVG Version: 6.00 Build 0)  -->
<svg version="1.1" id="Слой_1" xmlns="http://www.w3.org/2000/svg" xmlns:xlink="http://www.w3.org/1999/xlink" x="0px" y="0px"
	 width="15px" height="12px" viewBox="0 0 15 12" style="enable-background:new 0 0 15 12;" xml:space="preserve">
<style type="text/css">
	.st0{fill:#1B9DD9;}
</style>
<g>
	<path class="st0" d="M1.4,3.7c0.2,0.1,0.8,0.5,1.7,1.2c1,0.7,1.7,1.2,2.2,1.5c0.1,0,0.2,0.1,0.4,0.3C5.9,6.8,6,7,6.2,7
		c0.1,0.1,0.3,0.2,0.4,0.3c0.2,0.1,0.3,0.2,0.5,0.2c0.2,0.1,0.3,0.1,0.4,0.1h0c0.1,0,0.3,0,0.4-0.1c0.2-0.1,0.3-0.1,0.5-0.2
		C8.6,7.2,8.7,7.1,8.8,7C9,7,9.1,6.8,9.3,6.7c0.2-0.1,0.3-0.2,0.4-0.3c0.5-0.4,1.8-1.3,3.9-2.7c0.4-0.3,0.7-0.6,1-1
		C14.9,2.3,15,1.9,15,1.4c0-0.4-0.1-0.7-0.4-0.9c-0.3-0.3-0.6-0.4-0.9-0.4H1.3c-0.4,0-0.8,0.1-1,0.4C0.1,0.8,0,1.2,0,1.6
		C0,2,0.2,2.4,0.5,2.8C0.8,3.2,1.1,3.5,1.4,3.7L1.4,3.7z M1.4,3.7"/>
	<path class="st0" d="M14.2,4.6c-1.8,1.2-3.2,2.2-4.2,2.9C9.7,7.8,9.4,7.9,9.2,8.1C9,8.2,8.8,8.3,8.4,8.5C8.1,8.6,7.8,8.7,7.5,8.7h0
		c-0.3,0-0.6-0.1-0.9-0.2C6.2,8.3,6,8.2,5.8,8.1C5.6,7.9,5.3,7.8,5,7.5C4.3,7,2.9,6,0.8,4.6C0.5,4.4,0.2,4.2,0,3.9v6.6
		c0,0.4,0.1,0.7,0.4,0.9c0.3,0.3,0.6,0.4,0.9,0.4h12.3c0.4,0,0.7-0.1,0.9-0.4c0.3-0.3,0.4-0.6,0.4-0.9V3.9
		C14.8,4.2,14.5,4.4,14.2,4.6L14.2,4.6z M14.2,4.6"/>
</g>
</svg>
