<?xml version="1.0" encoding="utf-8"?>
<!-- Generator: Adobe Illustrator 22.0.1, SVG Export Plug-In . SVG Version: 6.00 Build 0)  -->
<svg version="1.1" id="Слой_1" xmlns="http://www.w3.org/2000/svg" xmlns:xlink="http://www.w3.org/1999/xlink" x="0px" y="0px"
	 width="17px" height="19px" viewBox="0 0 17 19" style="enable-background:new 0 0 17 19;" xml:space="preserve">
<style type="text/css">
	.st0{fill:#EFEBDE;}
	.st1{fill:#D5D0BA;}
	.st2{clip-path:url(#SVGID_2_);fill:#D5D0BA;}
	.st3{clip-path:url(#SVGID_2_);fill:#2EAB5F;}
	.st4{fill:#FFFFFF;}
</style>
<g>
	<path class="st0" d="M13.9,4.7L9.6,0.4H0v18h13.9V4.7z M13.9,4.7"/>
	<path class="st1" d="M3.1,7.5h7.7c0.2,0,0.3-0.1,0.3-0.3c0-0.2-0.1-0.3-0.3-0.3H3.1c-0.2,0-0.3,0.1-0.3,0.3
		C2.8,7.4,2.9,7.5,3.1,7.5L3.1,7.5z M3.1,7.5"/>
	<path class="st1" d="M3.1,5.1h3.1c0.2,0,0.3-0.1,0.3-0.3c0-0.2-0.1-0.3-0.3-0.3H3.1c-0.2,0-0.3,0.1-0.3,0.3
		C2.8,4.9,2.9,5.1,3.1,5.1L3.1,5.1z M3.1,5.1"/>
	<path class="st1" d="M10.8,9.4H3.1c-0.2,0-0.3,0.1-0.3,0.3c0,0.2,0.1,0.3,0.3,0.3h7.7c0.2,0,0.3-0.1,0.3-0.3
		C11.1,9.5,11,9.4,10.8,9.4L10.8,9.4z M10.8,9.4"/>
	<path class="st1" d="M10.8,11.9H3.1c-0.2,0-0.3,0.1-0.3,0.3c0,0.2,0.1,0.3,0.3,0.3h7.7c0.2,0,0.3-0.1,0.3-0.3
		C11.1,12,11,11.9,10.8,11.9L10.8,11.9z M10.8,11.9"/>
	<path class="st1" d="M10.8,14.3H3.1c-0.2,0-0.3,0.1-0.3,0.3c0,0.2,0.1,0.3,0.3,0.3h7.7c0.2,0,0.3-0.1,0.3-0.3
		C11.1,14.5,11,14.3,10.8,14.3L10.8,14.3z M10.8,14.3"/>
	<g>
		<defs>
			<rect id="SVGID_1_" y="0.3" width="17" height="18.5"/>
		</defs>
		<clipPath id="SVGID_2_">
			<use xlink:href="#SVGID_1_"  style="overflow:visible;"/>
		</clipPath>
		<path class="st2" d="M9.6,0.4v4.3h4.3L9.6,0.4z M9.6,0.4"/>
		<rect x="10.2" y="11.6" class="st3" width="6.8" height="6.8"/>
	</g>
	<rect x="13.3" y="12.1" class="st4" width="0.6" height="5"/>
	<path class="st4" d="M13.6,17.4l-2.2-2.1l0.5-0.4l1.7,1.6l1.7-1.6l0.5,0.4L13.6,17.4z M13.6,17.4"/>
</g>
</svg>
