<?xml version="1.0" encoding="utf-8"?>
<!-- Generator: Adobe Illustrator 22.0.1, SVG Export Plug-In . SVG Version: 6.00 Build 0)  -->
<svg version="1.1" id="Слой_1" xmlns="http://www.w3.org/2000/svg" xmlns:xlink="http://www.w3.org/1999/xlink" x="0px" y="0px"
	 width="19px" height="15px" viewBox="0 0 19 15" style="enable-background:new 0 0 19 15;" xml:space="preserve">
<style type="text/css">
	.st0{fill:#FFFFFF;}
</style>
<g>
	<path class="st0" d="M1,2.9h2.8c0.3,0.8,1.1,1.4,2,1.4c0.9,0,1.7-0.6,2-1.4H18c0.6,0,1-0.3,1-0.7s-0.4-0.7-1-0.7H7.7
		C7.4,0.6,6.7,0,5.8,0c-0.9,0-1.7,0.6-2,1.4H1c-0.6,0-1,0.3-1,0.7S0.4,2.9,1,2.9z"/>
	<path class="st0" d="M18,6.8h-1.6c-0.3-0.8-1.1-1.4-2-1.4c-0.9,0-1.7,0.6-2,1.4H1c-0.6,0-1,0.3-1,0.7c0,0.4,0.4,0.7,1,0.7h11.4
		c0.3,0.8,1.1,1.4,2,1.4c0.9,0,1.7-0.6,2-1.4H18c0.6,0,1-0.3,1-0.7C19,7.1,18.6,6.8,18,6.8z"/>
	<path class="st0" d="M18,12.1H4.1c-0.3-0.8-1.1-1.4-2-1.4c-1.2,0-2.1,0.9-2.1,2.1C0,14,0.9,15,2.1,15c0.9,0,1.7-0.6,2-1.4H18
		c0.6,0,1-0.3,1-0.7C19,12.5,18.6,12.1,18,12.1z"/>
</g>
</svg>
