<?xml version="1.0" encoding="utf-8"?>
<!-- Generator: Adobe Illustrator 22.0.1, SVG Export Plug-In . SVG Version: 6.00 Build 0)  -->
<svg version="1.1" id="Слой_1" xmlns="http://www.w3.org/2000/svg" xmlns:xlink="http://www.w3.org/1999/xlink" x="0px" y="0px"
	 width="15px" height="20px" viewBox="0 0 15 20" enable-background="new 0 0 15 20" xml:space="preserve">
<g>
	<path fill="#189CD9" d="M8.476,6.766c0.295,0.717,0.526,1.437,0.707,2.202c0.009,0.036,0.032,0.067,0.064,0.085
		C9.267,9.064,9.289,9.07,9.312,9.07c0.014,0,0.027-0.002,0.04-0.007l2.02-0.627c0.036-0.011,0.065-0.037,0.081-0.07
		c0.016-0.034,0.016-0.073,0.002-0.107l-0.121-0.29c-0.591-1.418-1.474-2.823-2.7-4.296c-0.58-0.7-1.241-1.401-1.964-2.083
		C6.038,0.995,5.453,0.493,4.88,0.058C4.825,0.016,4.746,0.024,4.701,0.077C4.601,0.191,4.394,0.431,4.394,0.431
		C4.349,0.483,4.351,0.56,4.399,0.609c0,0,0.057,0.058,0.074,0.076c0.059,0.063,0.117,0.126,0.175,0.19
		C4.761,1.001,4.875,1.129,4.995,1.27c0.276,0.322,0.558,0.67,0.837,1.035c0.573,0.748,1.091,1.514,1.539,2.276
		c0.033,0.056,0.065,0.111,0.097,0.167L0.36,9.393c-0.367,0.24-0.47,0.732-0.23,1.098c0.152,0.233,0.406,0.359,0.665,0.359
		c0.149,0,0.3-0.042,0.433-0.129l6.981-4.562C8.304,6.364,8.394,6.566,8.476,6.766L8.476,6.766z M8.476,6.766"/>
	<path fill="#189CD9" d="M9.151,14.051l-3.237,1.928l-4.139,3.989H15V6.87l-2.921,1.688L9.151,14.051z M9.151,14.051"/>
	<path fill="#189CD9" d="M4.726,12.97L3.19,12.461l-0.137,0.748l0.371,1.159l1.159-0.371L4.726,12.97z M4.726,12.97"/>
	<path fill="#189CD9" d="M2.697,16.253l1.086,0.549l0.611-0.421l-0.216-1.415l-1.349,0.225L2.697,16.253z M2.697,16.253"/>
	<path fill="#189CD9" d="M7.119,11.702l-0.793,0.132l-0.078,0.624l0.639,0.323l0.36-0.247L7.119,11.702z M7.119,11.702"/>
	<path fill="#189CD9" d="M8.105,11.352l-0.197,0.864l0.405,0.359l0.963-0.403l-0.397-0.914L8.105,11.352z M8.105,11.352"/>
	<path fill="#189CD9" d="M6.414,13.49L6.37,13.846l0.364,0.184l0.205-0.141l-0.073-0.475L6.414,13.49z M6.414,13.49"/>
	<path fill="#189CD9" d="M5.137,14.155l0.29,0.356l0.331-0.138l-0.02-0.408l-0.224-0.108L5.137,14.155z M5.137,14.155"/>
</g>
</svg>
