<?xml version="1.0" encoding="utf-8"?>
<!-- Generator: Adobe Illustrator 22.0.1, SVG Export Plug-In . SVG Version: 6.00 Build 0)  -->
<svg version="1.1" id="Слой_1" xmlns="http://www.w3.org/2000/svg" xmlns:xlink="http://www.w3.org/1999/xlink" x="0px" y="0px"
	 width="13px" height="11px" viewBox="0 0 13 11" enable-background="new 0 0 13 11" xml:space="preserve">
<g>
	<g>
		<defs>
			<rect id="SVGID_1_" y="0.341" width="13" height="10.317"/>
		</defs>
		<clipPath id="SVGID_2_">
			<use xlink:href="#SVGID_1_"  overflow="visible"/>
		</clipPath>
		<path clip-path="url(#SVGID_2_)" d="M6.453,2.414L1.85,6.21c0,0.005-0.001,0.013-0.004,0.024C1.844,6.244,1.842,6.252,1.842,6.258
			V10.1c0,0.139,0.05,0.259,0.152,0.36c0.101,0.102,0.221,0.153,0.36,0.153h3.074V7.538h2.05v3.074h3.074
			c0.139,0,0.259-0.051,0.36-0.152c0.102-0.101,0.153-0.222,0.153-0.36V6.258c0-0.022-0.003-0.037-0.008-0.048L6.453,2.414z
			 M6.453,2.414"/>
		<path clip-path="url(#SVGID_2_)" d="M12.818,5.345l-1.753-1.457V0.621c0-0.075-0.024-0.136-0.072-0.184
			c-0.048-0.048-0.109-0.072-0.184-0.072H9.271c-0.075,0-0.136,0.024-0.184,0.072C9.039,0.485,9.015,0.547,9.015,0.621v1.561
			L7.062,0.55C6.891,0.411,6.688,0.341,6.454,0.341c-0.235,0-0.438,0.07-0.608,0.208L0.089,5.345
			c-0.053,0.043-0.083,0.1-0.088,0.172c-0.005,0.072,0.013,0.135,0.056,0.189l0.496,0.592c0.043,0.048,0.099,0.078,0.168,0.088
			C0.785,6.391,0.85,6.372,0.914,6.33l5.54-4.619l5.54,4.619c0.043,0.037,0.099,0.056,0.168,0.056h0.024
			c0.069-0.011,0.125-0.04,0.168-0.088l0.497-0.593c0.042-0.053,0.061-0.116,0.056-0.188C12.901,5.445,12.871,5.388,12.818,5.345
			L12.818,5.345z M12.818,5.345"/>
	</g>
</g>
</svg>
