<?xml version="1.0" encoding="utf-8"?>
<!-- Generator: Adobe Illustrator 22.0.1, SVG Export Plug-In . SVG Version: 6.00 Build 0)  -->
<svg version="1.1" id="Слой_1" xmlns="http://www.w3.org/2000/svg" xmlns:xlink="http://www.w3.org/1999/xlink" x="0px" y="0px"
	 width="14px" height="12px" viewBox="0 0 14 12" style="enable-background:new 0 0 14 12;" xml:space="preserve">
<style type="text/css">
	.st0{fill:#1B9DD9;}
</style>
<g>
	<g>
		<path class="st0" d="M7,2.7L2,6.8c0,0,0,0,0,0c0,0,0,0,0,0V11c0,0.2,0.1,0.3,0.2,0.4c0.1,0.1,0.2,0.2,0.4,0.2h3.3V8.2h2.2v3.3h3.3
			c0.2,0,0.3-0.1,0.4-0.2c0.1-0.1,0.2-0.2,0.2-0.4V6.8c0,0,0,0,0-0.1L7,2.7z M7,2.7"/>
		<path class="st0" d="M13.9,5.9L12,4.3V0.7c0-0.1,0-0.1-0.1-0.2c-0.1-0.1-0.1-0.1-0.2-0.1h-1.7c-0.1,0-0.1,0-0.2,0.1
			C9.8,0.6,9.8,0.7,9.8,0.7v1.7L7.7,0.7C7.5,0.5,7.3,0.4,7,0.4c-0.3,0-0.5,0.1-0.7,0.2L0.1,5.9C0,5.9,0,6,0,6c0,0.1,0,0.1,0.1,0.2
			l0.5,0.6C0.6,6.9,0.7,7,0.8,7C0.9,7,0.9,7,1,6.9l6-5l6,5c0,0,0.1,0.1,0.2,0.1h0c0.1,0,0.1,0,0.2-0.1l0.5-0.6C14,6.2,14,6.1,14,6
			C14,6,14,5.9,13.9,5.9L13.9,5.9z M13.9,5.9"/>
	</g>
</g>
</svg>
