<?xml version="1.0" encoding="utf-8"?>
<!-- Generator: Adobe Illustrator 22.0.1, SVG Export Plug-In . SVG Version: 6.00 Build 0)  -->
<svg version="1.1" id="Слой_1" xmlns="http://www.w3.org/2000/svg" xmlns:xlink="http://www.w3.org/1999/xlink" x="0px" y="0px"
	 width="17px" height="14px" viewBox="0 0 17 14" enable-background="new 0 0 17 14" xml:space="preserve">
<g>
	<path fill="#747474" d="M14.873,2.218V0.094H0v11.688c0,0,0,2.124,2.124,2.124h13.28c0,0,1.596-0.034,1.596-2.124V2.218H14.873z
		 M2.124,12.842c-1.06,0-1.06-1.06-1.06-1.06V1.158h12.748v10.624c0,0.487,0.15,0.827,0.358,1.06H2.124z M2.124,12.842"/>
	<rect x="2.124" y="3.282" fill="#747474" width="10.624" height="1.061"/>
	<rect x="7.968" y="9.654" fill="#747474" width="3.72" height="1.064"/>
	<rect x="7.968" y="7.53" fill="#747474" width="4.78" height="1.064"/>
	<rect x="7.968" y="5.406" fill="#747474" width="4.78" height="1.064"/>
	<rect x="2.124" y="5.406" fill="#747474" width="4.78" height="5.312"/>
</g>
</svg>
