<?xml version="1.0" encoding="utf-8"?>
<!-- Generator: Adobe Illustrator 22.0.1, SVG Export Plug-In . SVG Version: 6.00 Build 0)  -->
<svg version="1.1" id="Слой_1" xmlns="http://www.w3.org/2000/svg" xmlns:xlink="http://www.w3.org/1999/xlink" x="0px" y="0px"
	 width="17px" height="11px" viewBox="0 0 17 11" enable-background="new 0 0 17 11" xml:space="preserve">
<g>
	<path fill="#747474" d="M10.876,10.936H1.641C0.736,10.936,0,10.199,0,9.294V1.706c0-0.905,0.736-1.641,1.641-1.641h9.235
		c0.905,0,1.641,0.736,1.641,1.641v7.589C12.517,10.199,11.781,10.936,10.876,10.936z"/>
	<path fill="#747474" d="M16.536,9.224l-0.265-0.149l-4.049-3.029c-0.174-0.13-0.274-0.329-0.274-0.547
		c0-0.218,0.1-0.417,0.274-0.548l4.237-3.169l0.285,0.098c0.156,0.078,0.253,0.234,0.253,0.409L17,8.948L16.536,9.224z
		 M16.732,2.539l-0.003,0.002C16.73,2.54,16.731,2.539,16.732,2.539z"/>
</g>
</svg>
