<?xml version="1.0" encoding="utf-8"?>
<!-- Generator: Adobe Illustrator 22.0.1, SVG Export Plug-In . SVG Version: 6.00 Build 0)  -->
<svg version="1.1" id="Слой_1" xmlns="http://www.w3.org/2000/svg" xmlns:xlink="http://www.w3.org/1999/xlink" x="0px" y="0px"
	 width="17px" height="17px" viewBox="0 0 17 17" enable-background="new 0 0 17 17" xml:space="preserve">
<g>
	<path fill="#747474" d="M0,5.046V17h4.789V5.046H0z M1.665,11.44H1.097V6.992h0.568V11.44z M3.369,11.44H2.801V6.992h0.568V11.44z"
		/>
	<path fill="#747474" d="M12.172,5.046V17H17V5.046H12.172z M14.16,11.44h-0.568V6.992h0.568V11.44z M15.864,11.44h-0.568V6.992
		h0.568V11.44z"/>
	<polygon fill="#606060" points="12.172,5.046 12.172,17 12.172,5.046 	"/>
	<g>
		<rect x="6.209" y="0.876" fill="none" width="4.544" height="2.78"/>
		<path fill="#747474" d="M4.789,0.098v4.948V17h7.383V5.046V0.098H4.789z M6.209,0.876h4.544v2.78H6.209V0.876z M11.036,6.158
			v0.556V7.27v0.556v0.556v0.556v0.556v0.556h-0.568H9.901H9.333H8.765H8.197H7.629H7.061H6.493H5.925V9.494V8.938V8.382V7.826V7.27
			V6.714V6.158V5.046h1.136h0.568h0.568h0.568h0.568h0.568h1.136V6.158z"/>
	</g>
</g>
</svg>
