<?xml version="1.0" encoding="utf-8"?>
<!-- Generator: Adobe Illustrator 22.0.1, SVG Export Plug-In . SVG Version: 6.00 Build 0)  -->
<svg version="1.1" id="Слой_1" xmlns="http://www.w3.org/2000/svg" xmlns:xlink="http://www.w3.org/1999/xlink" x="0px" y="0px"
	 width="20px" height="13px" viewBox="0 0 20 13" enable-background="new 0 0 20 13" xml:space="preserve">
<path fill="#747474" d="M19.984,8.094c-0.003,0.002-0.006,0.005-0.008,0.007c-0.045,0.038-0.174-0.694-0.402-1.515
	c-0.012-0.042-0.424-1.436-0.424-1.436l-0.218-0.658c0,0-0.141-0.495-0.799-0.827c-0.354-0.178-1.376-0.778-1.376-0.778
	l-1.045-0.617l-1.094-0.605c0,0-0.354-0.147-0.479-0.17c-0.073-0.014-0.092,0.041-0.092,0.041l-0.133-0.038
	c0,0-0.168-0.047-0.325-0.091c-0.04-0.017-0.099-0.033-0.17-0.048c-0.046-0.013-0.082-0.024-0.092-0.027
	c-0.049-0.016-1.098-0.824-1.098-0.824s-0.165-0.166-0.752-0.162C10.887,0.35,10.042,0.35,10.042,0.35L7.443,0.386L6.182,0.39
	L3.999,0.43c0,0-0.17,0.123-0.199,0.283c-0.029,0.16-0.016,0.264-0.016,0.264L3.781,1.01c0,0-0.599,0.397-0.598,0.527
	c0.001,0.13,0.03,0.246,0.049,0.27c0.019,0.025,0.033,0.052,0.033,0.052l0.13,0.642c0,0-0.133,0.115-0.174,0.203
	C3.179,2.792,1.927,5.215,1.927,5.215L0.394,8.064c0,0-0.101,0.266-0.109,0.47C0.277,8.739,0.244,9.282,0.239,9.326
	C0.233,9.369,0.201,9.712,0.201,9.712S0.054,9.973,0.019,9.998c-0.035,0.024-0.018,0.107,0.033,0.133
	c0.052,0.027,0.145,0.116,0.609,0.279c0.081,0.028,0.662,0.145,0.662,0.145l2.941,0.707l3.988,0.885l2.741,0.508l1.61-0.073
	c0,0,0.054-0.124-0.055-0.151c-0.109-0.027-0.163-0.07-0.163-0.07s0.141-0.06,0.294-0.054c0.152,0.005,0.096-0.126,0.096-0.126
	l1.252-0.108l2.088-0.136l1.461-0.138c0,0,0.957-0.174,1.022-0.189c0.065-0.015,0.141-0.062,0.152-0.127
	c0.011-0.065,0.312-0.29,0.312-0.29s0.294-0.243,0.54-0.798c0.094-0.211,0.218-0.602,0.221-0.624s0.142-0.527,0.154-0.679
	c0-0.004,0.007-0.006,0.008-0.015C20.019,8.597,19.984,8.094,19.984,8.094z"/>
</svg>
