<?xml version="1.0" encoding="utf-8"?>
<!-- Generator: Adobe Illustrator 22.0.1, SVG Export Plug-In . SVG Version: 6.00 Build 0)  -->
<svg version="1.1" id="Слой_1" xmlns="http://www.w3.org/2000/svg" xmlns:xlink="http://www.w3.org/1999/xlink" x="0px" y="0px"
	 width="17px" height="17px" viewBox="0 0 17 17" style="enable-background:new 0 0 17 17;" xml:space="preserve">
<style type="text/css">
	.st0{fill:#009FE3;}
</style>
<g>
	<path class="st0" d="M0,3.5v9.9c0,2,1.6,3.5,3.5,3.5h9.9c2,0,3.5-1.6,3.5-3.5V3.5c0-2-1.6-3.5-3.5-3.5H3.5C1.6,0,0,1.6,0,3.5z
		 M10.3,13.3c-4.2,1.4-8.1-2.4-6.6-6.6c0.5-1.4,1.6-2.5,3-3c4.2-1.4,8.1,2.4,6.6,6.6C12.8,11.7,11.7,12.8,10.3,13.3z M14.4,3.4
		c-0.1,0.3-0.4,0.6-0.7,0.6c-0.2,0-0.4-0.1-0.5-0.2c0,0,0,0,0,0c-0.1-0.2-0.2-0.5,0-0.7c0.1-0.2,0.2-0.3,0.4-0.3
		c0.2,0,0.3,0,0.5,0.1C14.3,2.8,14.4,3,14.4,3.4C14.4,3.3,14.4,3.3,14.4,3.4z"/>
	<path class="st0" d="M8.5,5.2c-1.8,0-3.3,1.5-3.3,3.3s1.5,3.3,3.3,3.3s3.3-1.5,3.3-3.3S10.3,5.2,8.5,5.2z"/>
</g>
</svg>
