<?xml version="1.0" encoding="utf-8"?>
<!-- Generator: Adobe Illustrator 22.0.1, SVG Export Plug-In . SVG Version: 6.00 Build 0)  -->
<svg version="1.1" id="Слой_1" xmlns="http://www.w3.org/2000/svg" xmlns:xlink="http://www.w3.org/1999/xlink" x="0px" y="0px"
	 width="25px" height="20px" viewBox="0 0 25 20" enable-background="new 0 0 25 20" xml:space="preserve">
<g>
	<path fill="#189CD9" d="M8.621,16.599c0-1.726-1.399-3.125-3.125-3.125c-1.725,0-3.124,1.399-3.124,3.125
		c0,1.725,1.399,3.125,3.124,3.125C7.222,19.724,8.621,18.324,8.621,16.599L8.621,16.599z M4.464,16.599
		c0-0.57,0.462-1.033,1.031-1.033c0.57,0,1.034,0.462,1.034,1.033c0,0.569-0.462,1.033-1.034,1.033
		C4.926,17.631,4.464,17.169,4.464,16.599L4.464,16.599z M4.464,16.599"/>
	<path fill="#189CD9" d="M16.071,6.079v6.376c0,0,0.172-0.042,1.033-0.042c1.919,0,2.892,0.943,3.359,1.67
		c0.244-0.254,0.585-0.415,0.965-0.415h3.125V8.981l-1.897-2.902H16.071z M23.215,10.991h-3.571V7.42h2.678l0.893,1.423V10.991z
		 M23.215,10.991"/>
	<path fill="#189CD9" d="M1.312,10.544c0,0,7.366,1.368,8.342,4.911h3.376c0,0,0.42-2.232,2.15-2.846V5.186h7.854l1.298-1.785
		H14.286l-1.228,2.678H0v1.786h1.339L1.312,10.544z M1.312,10.544"/>
	<path fill="#189CD9" d="M21.429,14.562c-0.208,0-0.375,0.146-0.425,0.339c-0.009,0.035-0.021,0.07-0.021,0.107v0.893
		c0,0.247,0.199,0.447,0.446,0.447h3.125c0.247,0,0.446-0.201,0.446-0.447v-0.893c0-0.246-0.199-0.446-0.446-0.446H21.429z
		 M21.429,14.562"/>
	<g>
		<path fill="#189CD9" d="M20.229,16.599c0-0.042-0.005-0.084-0.006-0.126c-0.011-0.277-0.055-0.546-0.133-0.8
			c-0.395-1.274-1.581-2.2-2.986-2.2c-1.725,0-3.124,1.399-3.124,3.125c0,1.725,1.399,3.125,3.124,3.125
			C18.831,19.724,20.229,18.324,20.229,16.599L20.229,16.599z M16.071,16.599c0-0.57,0.462-1.033,1.033-1.033
			c0.57,0,1.033,0.462,1.033,1.033c0,0.569-0.462,1.033-1.033,1.033C16.534,17.631,16.071,17.169,16.071,16.599L16.071,16.599z
			 M16.071,16.599"/>
		<path fill="#189CD9" d="M13.245,3.187l-0.466-1.125H11.44l-1.172-1.786h-1.73L6.697,2.508H5.283L4.019,3.847H3.05L1.562,5.186
			h10.715L13.245,3.187z M13.245,3.187"/>
	</g>
</g>
</svg>
