<?xml version="1.0" encoding="utf-8"?>
<!-- Generator: Adobe Illustrator 22.0.1, SVG Export Plug-In . SVG Version: 6.00 Build 0)  -->
<svg version="1.1" id="Слой_1" xmlns="http://www.w3.org/2000/svg" xmlns:xlink="http://www.w3.org/1999/xlink" x="0px" y="0px"
	 width="13px" height="11px" viewBox="0 0 13 11" style="enable-background:new 0 0 13 11;" xml:space="preserve">
<style type="text/css">
	.st0{fill:#1D1D1B;}
</style>
<g>
	<path class="st0" d="M1.2,3.5c0.2,0.1,0.7,0.5,1.5,1c0.8,0.6,1.5,1,1.9,1.3c0,0,0.2,0.1,0.3,0.2c0.2,0.1,0.3,0.2,0.4,0.3
		c0.1,0.1,0.2,0.1,0.4,0.2C5.9,6.7,6,6.8,6.1,6.8c0.1,0,0.3,0.1,0.4,0.1h0c0.1,0,0.2,0,0.4-0.1c0.1,0,0.3-0.1,0.4-0.2
		c0.1-0.1,0.3-0.2,0.4-0.2c0.1-0.1,0.2-0.2,0.4-0.3C8.2,6,8.3,5.9,8.4,5.9c0.4-0.3,1.6-1.1,3.4-2.4c0.4-0.2,0.6-0.5,0.9-0.9
		C12.9,2.3,13,1.9,13,1.6c0-0.3-0.1-0.6-0.3-0.8c-0.2-0.2-0.5-0.3-0.8-0.3H1.2c-0.4,0-0.7,0.1-0.9,0.4C0.1,1,0,1.3,0,1.7
		c0,0.3,0.1,0.6,0.4,1C0.7,3.1,0.9,3.3,1.2,3.5L1.2,3.5z M1.2,3.5"/>
	<path class="st0" d="M12.3,4.3c-1.6,1.1-2.8,1.9-3.6,2.5C8.4,7,8.2,7.2,8,7.3C7.8,7.4,7.6,7.5,7.3,7.6C7,7.8,6.8,7.8,6.5,7.8h0
		C6.2,7.8,6,7.8,5.7,7.6C5.4,7.5,5.2,7.4,5,7.3C4.8,7.2,4.6,7,4.3,6.8C3.7,6.3,2.5,5.5,0.7,4.3C0.5,4.1,0.2,3.9,0,3.7v5.8
		c0,0.3,0.1,0.6,0.3,0.8c0.2,0.2,0.5,0.3,0.8,0.3h10.7c0.3,0,0.6-0.1,0.8-0.3C12.9,10,13,9.8,13,9.4V3.7C12.8,3.9,12.6,4.1,12.3,4.3
		L12.3,4.3z M12.3,4.3"/>
</g>
</svg>
