<?xml version="1.0" encoding="utf-8"?>
<!-- Generator: Adobe Illustrator 22.0.1, SVG Export Plug-In . SVG Version: 6.00 Build 0)  -->
<svg version="1.1" id="Слой_1" xmlns="http://www.w3.org/2000/svg" xmlns:xlink="http://www.w3.org/1999/xlink" x="0px" y="0px"
	 width="33px" height="16px" viewBox="0 0 33 16" style="enable-background:new 0 0 33 16;" xml:space="preserve">
<style type="text/css">
	.st0{fill:#1B9DD9;}
</style>
<g>
	<path class="st0" d="M32.4,11.5l-3.4-10l-0.3-0.1c-0.3-0.1-1.7-0.6-2-0.7c-0.1,0-0.2-0.1-0.3-0.1c-0.3-0.1-0.5-0.2-0.8-0.1
		c-0.2,0-0.3,0.1-0.4,0.2l-7.6,0.5v0l-13,0.8C4.4,1.9,4,1.8,3.8,1.7C3.2,1.5,2.7,1.8,2.5,2.2L0.8,6.6L0,8.7l0,0.2
		c0,0.2,0.1,0.8,0.2,1l0,0.1c0.1,0.4,0.2,0.8,0.4,1.1l0.1,0.1c0.2,0.3,0.5,0.8,1.1,1.1c0.5,0.3,2.1,0.9,2.2,0.9l2.6,1v0.2l2.2,0.9
		c0.1,0.1,0.4,0.1,0.6,0.1c0.1,0,0.3,0,0.5,0c0.8-0.1,2.7-0.3,2.8-0.3L33,13v-1.1L32.4,11.5z M4.5,12c0,0-1.6-0.7-2.1-0.9
		c-0.3-0.1-0.4-0.4-0.6-0.6l-0.1-0.1c-0.1-0.1-0.1-0.3-0.2-0.7l0-0.1c0-0.1-0.1-0.4-0.1-0.7L2,7.1l1.3-3.4L3.6,3
		c0.3,0.1,0.7,0.2,0.8,0.2l1.2,0.4l2.8,10.2l-0.4-0.2v-0.3L4.5,12z M12.6,14c0,0-2,0.2-2.8,0.3c0,0,0,0-0.1,0l-3-11.2l10.9-0.7
		l0-0.6l0,0.6l7.7-0.5l0.7,0l0-0.1c0.1,0,0.2,0.1,0.4,0.1c0.2,0,0.9,0.3,1.6,0.5l3.2,9.4L12.6,14z"/>
	<path class="st0" d="M23.6,7.8c-0.2-0.9-0.2-1.1,0.1-1.6l-0.6-0.3c-0.4,0.6-0.4,1-0.2,2c0.3,1.1,1.6,1.5,1.6,1.5
		c4.8,1.9,4.8,1.9,4.9,1.9l0.2-0.6c-0.2-0.1-2.9-1.2-4.8-1.9C24.7,8.8,23.8,8.5,23.6,7.8z"/>
	
		<rect x="10" y="8.6" transform="matrix(0.9969 -7.923318e-02 7.923318e-02 0.9969 -0.6619 1.2504)" class="st0" width="10.8" height="0.6"/>
</g>
</svg>
