<?xml version="1.0" encoding="utf-8"?>
<!-- Generator: Adobe Illustrator 22.0.1, SVG Export Plug-In . SVG Version: 6.00 Build 0)  -->
<svg version="1.1" id="Слой_1" xmlns="http://www.w3.org/2000/svg" xmlns:xlink="http://www.w3.org/1999/xlink" x="0px" y="0px"
	 width="25px" height="23px" viewBox="0 0 25 23" style="enable-background:new 0 0 25 23;" xml:space="preserve">
<style type="text/css">
	.st0{fill:#1B9DD9;}
</style>
<g>
	<path class="st0" d="M23,0c1,0,1.7,0.8,1.7,1.7c0,5.4-3.9,12-8.8,12c-1.1,0-2.2-0.4-3.1-1.2c-0.3,0.8-1,2.9-1.2,4.1l-0.9,0.1
		c-0.3-0.5-1.5-2.4-1.8-2.9c-0.6,0.5-1.4,0.8-2.1,0.8c-3.5,0-6.4-4.7-6.4-8.6c0-0.8,0.6-1.4,1.4-1.4c3.9,0,8.6,2.9,8.6,6.4
		c0,0.6-0.2,1.2-0.5,1.8c0.3,0.4,0.6,0.8,0.8,1.3c0.3-1,0.6-1.9,1-2.8C11.2,10.5,11,9.7,11,8.8C11,3.9,17.6,0,23,0z M8.8,11.4
		c0-0.1,0-0.3,0-0.4c0-2.6-3.9-4.8-7-4.9c0,3.1,2.3,7,4.9,7c0.4,0,0.8-0.2,1.2-0.4C6.8,11.4,5.4,10.2,3.7,9C3.3,8.8,3.2,8.3,3.5,8
		c0.2-0.4,0.7-0.4,1.1-0.2C6.2,8.9,7.6,10.1,8.8,11.4z M15.9,12.2c3.9,0,7.3-5.8,7.3-10.5c0-0.1,0-0.1-0.1-0.2l0,0v0
		c0,0-0.1,0-0.1,0c-4.7,0-10.5,3.4-10.5,7.3c0,0.3,0,0.5,0.1,0.7c2.1-3.4,5-5.1,8-6.4c0.4-0.2,0.8,0,1,0.4c0.2,0.4,0,0.8-0.4,1
		c-3.3,1.4-5.9,3.2-7.7,6.5c0,0,0,0,0,0.1c0,0,0.1,0.1,0.1,0.1C14.3,11.9,15,12.2,15.9,12.2z"/>
	<path class="st0" d="M3.3,22.4c1.1-3.3,5.8-4.4,8.8-4c2.8,0.4,5,1.9,6.7,4.1c0.7,0.9,1.9-0.4,1.2-1.2c-2.5-3.1-6.2-5-10.2-4.6
		c-3.3,0.3-7.2,2-8.3,5.4C1.2,23,2.9,23.4,3.3,22.4L3.3,22.4z"/>
</g>
</svg>
