<?xml version="1.0" encoding="utf-8"?>
<!-- Generator: Adobe Illustrator 22.0.1, SVG Export Plug-In . SVG Version: 6.00 Build 0)  -->
<svg version="1.1" id="Слой_1" xmlns="http://www.w3.org/2000/svg" xmlns:xlink="http://www.w3.org/1999/xlink" x="0px" y="0px"
	 width="13px" height="13px" viewBox="0 0 13 13" style="enable-background:new 0 0 13 13;" xml:space="preserve">
<style type="text/css">
	.st0{fill:#1D1D1B;}
</style>
<path class="st0" d="M13,10.3c0,0.2,0,0.4-0.2,0.6L11,12.6c-0.1,0.1-0.2,0.2-0.3,0.2c-0.1,0.1-0.3,0.1-0.4,0.1c0,0,0,0-0.1,0
	c0,0-0.1,0-0.2,0c-0.2,0-0.5,0-0.8-0.1c-0.4-0.1-0.9-0.2-1.4-0.4c-0.6-0.2-1.2-0.6-1.9-1.1c-0.7-0.5-1.5-1.1-2.3-1.9
	C2.9,8.9,2.3,8.2,1.9,7.7c-0.4-0.6-0.8-1.1-1-1.6C0.6,5.6,0.4,5.1,0.3,4.7C0.2,4.3,0.1,4,0.1,3.7C0,3.4,0,3.2,0,3c0-0.2,0-0.3,0-0.3
	c0-0.1,0.1-0.3,0.1-0.4C0.2,2.2,0.3,2.1,0.4,2l1.8-1.8C2.3,0.1,2.5,0,2.6,0C2.8,0,2.9,0,3,0.1c0.1,0.1,0.2,0.2,0.2,0.3l1.5,2.8
	c0.1,0.1,0.1,0.3,0.1,0.5c0,0.2-0.1,0.3-0.2,0.4L3.8,4.8c0,0,0,0,0,0.1c0,0,0,0.1,0,0.1c0,0.2,0.1,0.4,0.2,0.7
	c0.1,0.2,0.3,0.5,0.5,0.8c0.2,0.3,0.6,0.7,1,1.1c0.4,0.4,0.8,0.8,1.1,1C6.9,8.7,7.2,8.9,7.4,9c0.2,0.1,0.4,0.2,0.5,0.2l0.2,0
	c0,0,0,0,0.1,0c0,0,0.1,0,0.1,0L9,8.4c0.2-0.1,0.4-0.2,0.6-0.2c0.2,0,0.3,0,0.4,0.1h0l2.7,1.6C12.9,9.9,13,10.1,13,10.3L13,10.3z
	 M13,10.3"/>
</svg>
