<?xml version="1.0" encoding="utf-8"?>
<!-- Generator: Adobe Illustrator 22.0.1, SVG Export Plug-In . SVG Version: 6.00 Build 0)  -->
<svg version="1.1" id="Слой_1" xmlns="http://www.w3.org/2000/svg" xmlns:xlink="http://www.w3.org/1999/xlink" x="0px" y="0px"
	 width="73px" height="76px" viewBox="0 0 73 76" enable-background="new 0 0 73 76" xml:space="preserve">
<g>
	<path fill="#333333" d="M68.411,48.703c-3.993-3.993-9.746-5.512-15.165-4.051l-3.115-3.115c-0.005-0.005-0.009-0.009-0.014-0.014
		l-19.72-19.72c0.631-1.688,0.976-3.515,0.976-5.42c0-0.082-0.009-0.161-0.024-0.238c-0.008-2.167-0.463-4.331-1.364-6.344
		c-0.452-1.126-2.065-3.38-2.065-3.38c-0.36-0.449-0.75-0.885-1.16-1.295c-4.358-4.358-10.9-5.756-16.667-3.561
		c-0.372,0.141-0.647,0.462-0.73,0.851c-0.084,0.39,0.036,0.795,0.318,1.077l7.775,7.775l-1.139,7.289l-7.408,1.246L2.187,13.08
		c-0.312-0.312-0.773-0.423-1.193-0.287c-0.42,0.136-0.728,0.496-0.798,0.932C-0.596,18.68,1.047,23.754,4.59,27.297
		c2.985,2.985,6.954,4.587,11.032,4.595c0.072,0.014,0.146,0.021,0.221,0.021c1.37,0,2.698-0.179,3.964-0.513l3.07,3.069
		c0.003,0.003,0.006,0.006,0.009,0.009l19.726,19.726c-0.204,0.544-0.38,1.1-0.522,1.67c-0.029,0.117-0.04,0.234-0.033,0.349
		c-0.848,3.606-0.396,7.405,1.338,10.761c0.656,1.445,2.402,3.427,2.402,3.427c0.145,0.158,0.295,0.313,0.444,0.462
		c2.99,2.989,7.006,4.586,11.096,4.586c1.872,0,3.76-0.335,5.571-1.024c0.372-0.142,0.648-0.462,0.731-0.852
		s-0.036-0.795-0.318-1.077l-7.775-7.775l1.139-7.289l7.408-1.246l6.722,6.722c0.312,0.312,0.773,0.423,1.193,0.287
		s0.729-0.496,0.798-0.932C73.596,57.319,71.954,52.246,68.411,48.703z M19.734,28.905c-4.778,1.523-9.944,0.27-13.484-3.269
		c-2.423-2.422-3.8-5.687-3.896-9.064l5.321,5.321c0.269,0.269,0.65,0.391,1.026,0.328l8.84-1.486
		c0.499-0.084,0.888-0.478,0.966-0.977l1.362-8.716c0.058-0.371-0.065-0.747-0.33-1.012l-6.812-6.812
		c4.42-1,9.114,0.312,12.371,3.57c0.349,0.349,0.682,0.72,0.988,1.102c0.988,1.102,1.754,2.871,1.754,2.871
		c1.532,3.423,1.547,7.358,0.043,10.796c-0.054,0.124-0.083,0.254-0.093,0.384c-1.507,3.227-4.283,5.745-7.683,6.911
		C19.983,28.85,19.857,28.866,19.734,28.905z M24.544,32.815C24.543,32.815,24.543,32.814,24.544,32.815
		c-0.002-0.001-0.002-0.002-0.003-0.003l-2.285-2.285c2.983-1.358,5.464-3.632,7.081-6.462l19.112,19.112
		c0.004,0.004,0.007,0.007,0.011,0.011l2.305,2.305c-2.989,1.354-5.472,3.63-7.09,6.452L24.544,32.815z M65.325,54.107
		c-0.269-0.269-0.651-0.39-1.025-0.328l-8.84,1.486c-0.499,0.084-0.888,0.478-0.966,0.977l-1.362,8.716
		c-0.058,0.371,0.065,0.747,0.33,1.012l6.811,6.812c-4.419,1-9.113-0.312-12.371-3.57c-0.127-0.127-0.255-0.26-0.379-0.394
		c-1.216-1.162-2.041-2.911-2.041-2.911c-1.824-3.531-1.96-7.816-0.364-11.464c0.051-0.117,0.081-0.238,0.092-0.361
		c1.517-3.243,4.322-5.783,7.764-6.935c0.098-0.005,0.197-0.021,0.293-0.052c4.778-1.523,9.945-0.271,13.485,3.269
		c2.422,2.422,3.799,5.687,3.895,9.064L65.325,54.107z"/>
	<path fill="#333333" d="M28.65,31.206c-0.456-0.462-1.2-0.466-1.661-0.01c-0.462,0.456-0.466,1.2-0.01,1.661L41.51,47.556
		c0.23,0.232,0.533,0.349,0.836,0.349c0.298,0,0.597-0.113,0.825-0.339c0.462-0.456,0.466-1.2,0.01-1.661L28.65,31.206z"/>
	<path fill="#333333" d="M44.397,44.835c0.23,0.232,0.532,0.348,0.834,0.348c0.299,0,0.598-0.114,0.827-0.341
		c0.461-0.457,0.464-1.201,0.007-1.661L31.429,28.424c-0.457-0.461-1.201-0.464-1.661-0.007c-0.461,0.457-0.464,1.201-0.007,1.661
		L44.397,44.835z"/>
	<path fill="#333333" d="M25.577,46.008c-0.21-0.363-0.598-0.587-1.017-0.587H11.899c-0.42,0-0.808,0.224-1.017,0.587L4.551,56.972
		c-0.21,0.363-0.21,0.811,0,1.175l6.331,10.964c0.21,0.363,0.597,0.587,1.017,0.587H24.56c0.42,0,0.807-0.224,1.017-0.587
		l6.331-10.964c0.21-0.363,0.21-0.811,0-1.175L25.577,46.008z M23.882,67.35H12.577l-5.652-9.79l5.652-9.79h11.304l5.652,9.79
		L23.882,67.35z"/>
	<path fill="#333333" d="M18.229,50.897c-3.674,0-6.663,2.989-6.663,6.662c0,1.106,0.278,2.201,0.801,3.169
		c0,0,1.195,1.817,3.196,2.896c0.059,0.037,0.106,0.087,0.173,0.114l0.102,0.04c0.15,0.058,0.277,0.102,0.398,0.14
		c0.005,0.001,0.009,0.003,0.014,0.004c0.126,0.039,0.259,0.075,0.421,0.114c0.036,0.009,0.072,0.017,0.107,0.025
		c0.288,0.064,0.585,0.109,0.883,0.135c0.037,0.003,0.073,0.006,0.112,0.008c0.17,0.012,0.315,0.017,0.455,0.017
		s0.284-0.005,0.457-0.017c0.037-0.003,0.073-0.005,0.111-0.008c0.297-0.025,0.593-0.071,0.881-0.134
		c0.036-0.008,0.072-0.016,0.109-0.025c0.161-0.039,0.294-0.075,0.42-0.114c0.005-0.002,0.009-0.003,0.014-0.004
		c0.121-0.038,0.248-0.083,0.401-0.141l0.101-0.04c0.146-0.059,0.274-0.115,0.391-0.171c0.003-0.002,0.008-0.004,0.012-0.006
		c0.116-0.056,0.238-0.121,0.376-0.199c0.031-0.017,0.062-0.035,0.089-0.051c2.036-1.192,3.3-3.396,3.3-5.751
		C24.892,53.886,21.903,50.897,18.229,50.897z M20.401,61.285l-0.057,0.033c-0.094,0.053-0.172,0.094-0.244,0.129
		c-0.002,0.001-0.005,0.002-0.007,0.003c-0.072,0.034-0.151,0.069-0.248,0.108l-0.067,0.027c-0.105,0.04-0.189,0.07-0.263,0.093
		c-0.004,0.001-0.008,0.003-0.012,0.004c-0.074,0.023-0.159,0.045-0.264,0.071l-0.069,0.016c-0.187,0.041-0.379,0.071-0.57,0.087
		l-0.073,0.006c-0.233,0.016-0.362,0.016-0.592,0l-0.074-0.006c-0.193-0.016-0.384-0.046-0.572-0.087l-0.068-0.016
		c-0.106-0.026-0.191-0.048-0.265-0.071c-0.004-0.001-0.008-0.002-0.012-0.004c-0.074-0.023-0.158-0.053-0.26-0.092l-0.07-0.028
		c0,0-1.627-0.499-2.18-1.949c-0.338-0.624-0.517-1.333-0.517-2.049c0-2.378,1.935-4.313,4.313-4.313s4.313,1.935,4.313,4.313
		C22.543,59.084,21.724,60.511,20.401,61.285z"/>
	<path fill="#333333" d="M47.433,29.951c0.21,0.363,0.597,0.587,1.017,0.587h12.661c0.42,0,0.807-0.224,1.018-0.587l6.33-10.964
		c0.21-0.363,0.21-0.811,0-1.175l-6.33-10.965c-0.21-0.363-0.598-0.587-1.018-0.587H48.45c-0.42,0-0.808,0.224-1.017,0.587
		l-6.331,10.965c-0.21,0.363-0.21,0.811,0,1.175L47.433,29.951z M49.128,8.61h11.304l5.652,9.79l-5.652,9.79H49.128l-5.652-9.79
		L49.128,8.61z"/>
	<path fill="#333333" d="M52.288,24.578l0.102,0.04c0.15,0.058,0.277,0.102,0.398,0.14c0.005,0.001,0.009,0.003,0.014,0.004
		c0.126,0.039,0.259,0.075,0.421,0.114c0.036,0.009,0.072,0.017,0.108,0.025c0.288,0.064,0.585,0.109,0.883,0.135
		c0.037,0.003,0.073,0.006,0.112,0.008c0.17,0.012,0.315,0.017,0.455,0.017s0.285-0.005,0.457-0.017
		c0.036-0.003,0.073-0.005,0.11-0.008c0.297-0.025,0.593-0.071,0.88-0.134c0.037-0.008,0.073-0.016,0.111-0.025
		c0.161-0.039,0.294-0.075,0.42-0.114c0.005-0.002,0.009-0.003,0.014-0.004c0.121-0.038,0.248-0.083,0.401-0.141l0.101-0.04
		c0.146-0.059,0.274-0.115,0.391-0.171c0.003-0.002,0.008-0.004,0.012-0.006c0.116-0.056,0.238-0.12,0.376-0.199
		c0.031-0.018,0.062-0.035,0.089-0.051c2.036-1.192,3.3-3.396,3.3-5.751c0-3.674-2.989-6.662-6.663-6.662s-6.663,2.989-6.663,6.662
		c0,1.106,0.277,2.201,0.801,3.169C48.919,21.568,50.332,23.835,52.288,24.578z M54.781,14.087c2.378,0,4.313,1.935,4.313,4.313
		c0,1.524-0.819,2.951-2.141,3.725l-0.057,0.033c-0.094,0.053-0.172,0.094-0.244,0.129c-0.002,0.001-0.005,0.002-0.007,0.004
		c-0.072,0.034-0.151,0.069-0.248,0.108l-0.067,0.027c-0.105,0.04-0.189,0.07-0.263,0.093c-0.004,0.001-0.008,0.003-0.012,0.004
		c-0.074,0.023-0.158,0.046-0.264,0.071l-0.07,0.016c-0.186,0.041-0.379,0.071-0.57,0.087l-0.073,0.006
		c-0.232,0.016-0.362,0.016-0.591,0l-0.074-0.006c-0.193-0.016-0.384-0.046-0.571-0.087l-0.068-0.016
		c-0.106-0.026-0.191-0.048-0.265-0.071c-0.004-0.001-0.008-0.002-0.012-0.004c-0.075-0.023-0.158-0.053-0.26-0.092l-0.07-0.028
		c0,0-1.633-0.939-2.18-1.949c-0.338-0.624-0.518-1.333-0.518-2.049C50.467,16.021,52.402,14.087,54.781,14.087z"/>
</g>
</svg>
