<?xml version="1.0" encoding="utf-8"?>
<!-- Generator: Adobe Illustrator 22.0.1, SVG Export Plug-In . SVG Version: 6.00 Build 0)  -->
<svg version="1.1" id="Слой_1" xmlns="http://www.w3.org/2000/svg" xmlns:xlink="http://www.w3.org/1999/xlink" x="0px" y="0px"
	 width="17px" height="20px" viewBox="0 0 17 20" enable-background="new 0 0 17 20" xml:space="preserve">
<g>
	<path fill="#189CD9" d="M8.674,18.826C8.674,18.923,8.596,19,8.5,19c-0.096,0-0.174-0.078-0.174-0.174V3.96
		c0-0.096,0.078-0.174,0.174-0.174c0.096,0,0.174,0.078,0.174,0.174V18.826z M8.674,18.826"/>
	<path fill="#189CD9" d="M9.184,19.315c0,0.378-0.307,0.684-0.684,0.684c-0.378,0-0.684-0.306-0.684-0.684
		c0-0.378,0.307-0.684,0.684-0.684C8.878,18.63,9.184,18.937,9.184,19.315L9.184,19.315z M9.184,19.315"/>
	<path fill="#189CD9" d="M8.506,0c-0.723,0.355-1.27,1.95-1.27,2.712c0,0.762,0.547,1.393,1.27,1.528V0z M8.506,0"/>
	<path fill="#189CD9" d="M8.494,0c0.723,0.355,1.269,1.95,1.269,2.712c0,0.762-0.547,1.393-1.269,1.528V0z M8.494,0"/>
	<path fill="#189CD9" d="M11.699,4.754c-0.762-0.26-2.277,0.482-2.816,1.021C8.345,6.313,8.285,7.147,8.7,7.753L11.699,4.754z
		 M11.699,4.754"/>
	<path fill="#189CD9" d="M11.691,4.746c0.259,0.762-0.482,2.277-1.02,2.816C10.132,8.1,9.298,8.159,8.692,7.745L11.691,4.746z
		 M11.691,4.746"/>
	<path fill="#189CD9" d="M11.699,8.275c-0.762-0.26-2.277,0.482-2.816,1.02C8.345,9.834,8.285,10.668,8.7,11.273L11.699,8.275z
		 M11.699,8.275"/>
	<path fill="#189CD9" d="M11.691,8.267c0.259,0.762-0.482,2.277-1.02,2.816c-0.539,0.538-1.373,0.598-1.979,0.183L11.691,8.267z
		 M11.691,8.267"/>
	<path fill="#189CD9" d="M11.699,11.796c-0.762-0.26-2.277,0.482-2.816,1.02c-0.538,0.539-0.598,1.372-0.182,1.978L11.699,11.796z
		 M11.699,11.796"/>
	<path fill="#189CD9" d="M11.691,11.788c0.259,0.762-0.482,2.277-1.02,2.816c-0.539,0.538-1.373,0.598-1.979,0.183L11.691,11.788z
		 M11.691,11.788"/>
	<path fill="#189CD9" d="M11.165,15.849c-0.626-0.213-1.873,0.397-2.315,0.839c-0.443,0.442-0.492,1.128-0.151,1.627L11.165,15.849z
		 M11.165,15.849"/>
	<path fill="#189CD9" d="M11.158,15.843c0.214,0.627-0.396,1.873-0.839,2.315c-0.443,0.442-1.128,0.492-1.627,0.15L11.158,15.843z
		 M11.158,15.843"/>
	<path fill="#189CD9" d="M5.3,4.754c0.762-0.26,2.277,0.482,2.816,1.021c0.538,0.538,0.598,1.372,0.182,1.978L5.3,4.754z M5.3,4.754
		"/>
	<path fill="#189CD9" d="M5.309,4.746c-0.26,0.762,0.482,2.277,1.02,2.816C6.868,8.1,7.701,8.159,8.307,7.745L5.309,4.746z
		 M5.309,4.746"/>
	<path fill="#189CD9" d="M5.3,8.275c0.762-0.26,2.277,0.482,2.816,1.02c0.538,0.538,0.598,1.372,0.182,1.978L5.3,8.275z M5.3,8.275"
		/>
	<path fill="#189CD9" d="M5.309,8.267c-0.26,0.762,0.482,2.277,1.02,2.816c0.539,0.538,1.372,0.598,1.978,0.183L5.309,8.267z
		 M5.309,8.267"/>
	<path fill="#189CD9" d="M5.3,11.796c0.762-0.26,2.277,0.482,2.816,1.02c0.538,0.539,0.598,1.372,0.182,1.978L5.3,11.796z
		 M5.3,11.796"/>
	<path fill="#189CD9" d="M5.309,11.788c-0.26,0.762,0.482,2.277,1.02,2.816c0.539,0.538,1.372,0.598,1.978,0.183L5.309,11.788z
		 M5.309,11.788"/>
	<path fill="#189CD9" d="M5.835,15.849c0.627-0.213,1.873,0.397,2.315,0.839c0.443,0.442,0.492,1.128,0.15,1.627L5.835,15.849z
		 M5.835,15.849"/>
	<g>
		<path fill="#189CD9" d="M5.842,15.843c-0.214,0.627,0.395,1.873,0.839,2.315c0.443,0.442,1.127,0.492,1.626,0.15L5.842,15.843z
			 M5.842,15.843"/>
		<path fill="#189CD9" d="M2.452,14.527c0.001,0.001,0.001,0.002,0.001,0.002l0.002,0c0.379,0.256,0.898,0.217,1.233-0.118
			c0.336-0.336,0.796-1.276,0.641-1.756l0.004-0.004L4.329,12.65l-0.001-0.004L4.324,12.65c-0.481-0.155-1.421,0.305-1.756,0.641
			c-0.051,0.052-0.093,0.108-0.131,0.167v-1.163c0.004,0.007,0.007,0.015,0.012,0.022l-0.001,0.001l0.003,0.002
			c0.001,0.001,0.001,0.003,0.003,0.004l0.001-0.002c0.379,0.256,0.898,0.217,1.233-0.118c0.336-0.336,0.796-1.276,0.641-1.756
			l0.004-0.004l-0.005-0.001c-0.001-0.001-0.001-0.003-0.001-0.004l-0.004,0.004c-0.481-0.155-1.421,0.306-1.756,0.641
			c-0.051,0.052-0.093,0.109-0.131,0.167v-1.16C2.832,9.966,3.12,9.601,3.12,9.164c0-0.475-0.339-1.465-0.788-1.695V7.464
			C2.33,7.465,2.329,7.466,2.329,7.466c-0.003,0-0.004-0.001-0.005-0.002v0.005c-0.449,0.23-0.788,1.22-0.788,1.695
			c0,0.437,0.288,0.802,0.683,0.926v1.161c-0.037-0.059-0.08-0.116-0.131-0.167c-0.336-0.335-1.276-0.796-1.756-0.641l-0.004-0.004
			c0,0.001,0,0.003,0,0.004l-0.005,0.001l0.004,0.004c-0.155,0.48,0.305,1.42,0.641,1.756c0.336,0.335,0.854,0.374,1.233,0.118
			l0.002,0.002c0.001-0.001,0.001-0.003,0.003-0.004l0.003-0.002l-0.001-0.001c0.005-0.007,0.008-0.015,0.013-0.022v1.164
			c-0.037-0.059-0.079-0.116-0.131-0.168c-0.336-0.336-1.276-0.796-1.756-0.641l-0.004-0.004c0,0.001,0,0.003,0,0.004l-0.005,0.001
			l0.004,0.004c-0.155,0.48,0.305,1.42,0.64,1.756c0.336,0.336,0.854,0.374,1.233,0.118l0.001,0.001
			c0.001-0.001,0.001-0.002,0.002-0.003l0.003-0.002l-0.001-0.001c0.005-0.008,0.008-0.015,0.013-0.023v1.164
			c-0.037-0.059-0.079-0.116-0.131-0.168c-0.336-0.335-1.276-0.796-1.756-0.641l-0.004-0.004c0,0.001,0,0.003,0,0.005l-0.005,0.001
			l0.004,0.003c-0.155,0.48,0.305,1.42,0.64,1.756c0.336,0.336,0.854,0.374,1.233,0.119l0.001,0.001
			c0.001-0.001,0.001-0.002,0.001-0.002l0.004-0.003l-0.001-0.001c0.005-0.008,0.008-0.015,0.013-0.023v1.358
			c-0.031-0.05-0.067-0.098-0.111-0.142c-0.275-0.276-1.048-0.655-1.443-0.527l-0.003-0.003l-0.001,0.004l-0.004,0.001l0.003,0.003
			c-0.128,0.395,0.251,1.168,0.527,1.444c0.276,0.276,0.701,0.308,1.014,0.098l0.001,0.001c0.001-0.001,0.001-0.002,0.001-0.002
			s0.003-0.002,0.005-0.003l-0.001-0.001c0.005-0.008,0.008-0.016,0.013-0.024v0.243c-0.184,0.049-0.32,0.214-0.32,0.413
			C1.899,19.808,2.09,20,2.328,20c0.237,0,0.429-0.192,0.429-0.429c0-0.199-0.136-0.365-0.32-0.414v-0.242
			c0.005,0.007,0.008,0.015,0.013,0.023l-0.002,0.001c0.001,0.001,0.003,0.001,0.003,0.001s0.002,0.003,0.003,0.003l0.001-0.001
			c0.312,0.21,0.738,0.179,1.014-0.098c0.276-0.276,0.655-1.05,0.527-1.444l0.003-0.003l-0.003-0.001l0-0.004l-0.003,0.003
			c-0.395-0.127-1.168,0.251-1.444,0.527c-0.044,0.044-0.079,0.092-0.11,0.142v-1.359c0.004,0.007,0.008,0.015,0.013,0.023
			l-0.002,0.002l0.004,0.002c0,0,0.001,0.002,0.002,0.003l0.001-0.001c0.38,0.255,0.898,0.217,1.233-0.119
			c0.336-0.335,0.796-1.276,0.641-1.756l0.004-0.003l-0.005-0.001l-0.001-0.005l-0.004,0.004c-0.481-0.155-1.421,0.305-1.756,0.641
			c-0.051,0.052-0.093,0.108-0.131,0.167v-1.164c0.004,0.007,0.008,0.015,0.013,0.023l-0.002,0.002L2.452,14.527z M2.452,14.527"/>
		<path fill="#189CD9" d="M14.796,14.527c0.001,0.001,0.001,0.002,0.001,0.002l0.002,0c0.38,0.256,0.898,0.217,1.233-0.118
			c0.335-0.336,0.796-1.276,0.641-1.756l0.004-0.004l-0.004-0.001l0-0.004l-0.004,0.004c-0.481-0.155-1.421,0.305-1.757,0.641
			c-0.051,0.052-0.093,0.108-0.131,0.167v-1.163c0.005,0.007,0.007,0.015,0.012,0.022l-0.001,0.001l0.003,0.002
			c0.001,0.001,0.001,0.003,0.003,0.004l0.001-0.002c0.38,0.256,0.898,0.217,1.233-0.118c0.335-0.336,0.796-1.276,0.641-1.756
			l0.004-0.004l-0.004-0.001c0-0.001,0-0.003,0-0.004l-0.004,0.004c-0.481-0.155-1.421,0.306-1.757,0.641
			c-0.051,0.052-0.093,0.109-0.131,0.167v-1.16c0.395-0.125,0.683-0.49,0.683-0.926c0-0.475-0.339-1.465-0.788-1.695V7.464
			c-0.001,0.001-0.003,0.002-0.003,0.002c-0.002,0-0.004-0.001-0.005-0.002v0.005c-0.45,0.23-0.789,1.22-0.789,1.695
			c0,0.437,0.288,0.802,0.683,0.926v1.161c-0.037-0.059-0.079-0.116-0.131-0.167c-0.335-0.335-1.275-0.796-1.756-0.641l-0.004-0.004
			c-0.001,0.001,0,0.003-0.001,0.004l-0.005,0.001l0.004,0.004c-0.155,0.48,0.305,1.42,0.641,1.756
			c0.335,0.335,0.854,0.374,1.233,0.118l0.002,0.002c0.001-0.001,0.001-0.003,0.003-0.004l0.003-0.002l-0.001-0.001
			c0.005-0.007,0.007-0.015,0.013-0.022v1.164c-0.037-0.059-0.079-0.116-0.131-0.168c-0.335-0.336-1.276-0.796-1.756-0.641
			l-0.004-0.004c-0.001,0.001,0,0.003-0.001,0.004l-0.005,0.001l0.004,0.004c-0.155,0.48,0.305,1.42,0.641,1.756
			c0.335,0.336,0.854,0.374,1.233,0.118l0.001,0.001c0.001-0.001,0.001-0.002,0.002-0.003l0.003-0.002l-0.001-0.001
			c0.005-0.008,0.007-0.015,0.013-0.023v1.164c-0.037-0.059-0.079-0.116-0.131-0.168c-0.335-0.335-1.276-0.796-1.756-0.641
			l-0.004-0.004c-0.001,0.001,0,0.003-0.001,0.005l-0.005,0.001l0.004,0.003c-0.155,0.48,0.305,1.42,0.641,1.756
			c0.335,0.336,0.854,0.374,1.233,0.119l0.001,0.001c0.001-0.001,0.001-0.002,0.001-0.002l0.004-0.003l-0.001-0.001
			c0.005-0.008,0.007-0.015,0.013-0.023v1.358c-0.031-0.05-0.066-0.098-0.11-0.142c-0.276-0.276-1.049-0.655-1.444-0.527
			l-0.003-0.003l0,0.004l-0.004,0.001l0.003,0.003c-0.128,0.395,0.251,1.168,0.527,1.444c0.276,0.276,0.701,0.308,1.014,0.098
			l0.001,0.001c0.001-0.001,0.001-0.002,0.001-0.002s0.003-0.002,0.004-0.003l-0.001-0.001c0.005-0.008,0.007-0.016,0.013-0.024
			v0.243c-0.184,0.049-0.32,0.214-0.32,0.413c0,0.237,0.191,0.429,0.429,0.429c0.237,0,0.429-0.192,0.429-0.429
			c0-0.199-0.136-0.365-0.32-0.414v-0.242c0.004,0.007,0.008,0.015,0.013,0.023l-0.001,0.001c0.001,0.001,0.002,0.001,0.002,0.001
			s0.002,0.003,0.003,0.003l0.001-0.001c0.312,0.21,0.738,0.179,1.014-0.098c0.276-0.276,0.655-1.05,0.527-1.444l0.003-0.003
			l-0.003-0.001l-0.001-0.004l-0.003,0.003c-0.394-0.127-1.168,0.251-1.443,0.527c-0.044,0.044-0.079,0.092-0.111,0.142v-1.359
			c0.005,0.007,0.008,0.015,0.013,0.023l-0.002,0.002l0.004,0.002c0,0,0.001,0.002,0.002,0.003l0.001-0.001
			c0.38,0.255,0.898,0.217,1.233-0.119c0.335-0.335,0.796-1.276,0.641-1.756l0.004-0.003l-0.005-0.001l0-0.005l-0.004,0.004
			c-0.481-0.155-1.421,0.305-1.757,0.641c-0.051,0.052-0.093,0.108-0.131,0.167v-1.164c0.005,0.007,0.008,0.015,0.013,0.023
			l-0.002,0.002L14.796,14.527z M14.796,14.527"/>
	</g>
</g>
</svg>
