<?xml version="1.0" encoding="utf-8"?>
<!-- Generator: Adobe Illustrator 22.0.1, SVG Export Plug-In . SVG Version: 6.00 Build 0)  -->
<svg version="1.1" id="Слой_1" xmlns="http://www.w3.org/2000/svg" xmlns:xlink="http://www.w3.org/1999/xlink" x="0px" y="0px"
	 width="16px" height="16px" viewBox="0 0 16 16" style="enable-background:new 0 0 16 16;" xml:space="preserve">
<style type="text/css">
	.st0{fill:#1B9DD9;}
</style>
<g>
	<path class="st0" d="M8,0C3.6,0,0,3.6,0,8c0,4.4,3.6,8,8,8c4.4,0,8-3.6,8-8C16,3.6,12.4,0,8,0L8,0z M8,14.5c-3.6,0-6.5-2.9-6.5-6.5
		c0-3.6,2.9-6.5,6.5-6.5c3.6,0,6.5,2.9,6.5,6.5C14.5,11.6,11.6,14.5,8,14.5L8,14.5z M8,14.3"/>
	<path class="st0" d="M11.8,8H8.6V4c0-0.3-0.3-0.6-0.6-0.6C7.6,3.4,7.4,3.7,7.4,4v4.5c0,0.3,0.3,0.6,0.6,0.6h3.9
		c0.3,0,0.6-0.3,0.6-0.6C12.4,8.2,12.2,8,11.8,8L11.8,8z M11.8,8"/>
</g>
</svg>
