<?xml version="1.0" encoding="utf-8"?>
<!-- Generator: Adobe Illustrator 22.0.1, SVG Export Plug-In . SVG Version: 6.00 Build 0)  -->
<svg version="1.1" id="Слой_1" xmlns="http://www.w3.org/2000/svg" xmlns:xlink="http://www.w3.org/1999/xlink" x="0px" y="0px"
	 width="65px" height="65px" viewBox="0 0 65 65" enable-background="new 0 0 65 65" xml:space="preserve">
<g>
	<path fill="#1B9DD9" d="M32.5,65C14.579,65,0,50.421,0,32.5S14.579,0,32.5,0S65,14.579,65,32.5S50.421,65,32.5,65z M32.5,1.62
		C15.472,1.62,1.62,15.473,1.62,32.5S15.472,63.38,32.5,63.38S63.38,49.527,63.38,32.5S49.528,1.62,32.5,1.62z"/>
	<g>
		<g>
			<path fill="#1B9DD9" d="M29.449,49.254H16.507c-0.494,0-0.895-0.402-0.895-0.895v-3.444c0-0.494,0.401-0.895,0.895-0.895h12.942
				c0.494,0,0.895,0.402,0.895,0.895v3.444C30.345,48.852,29.943,49.254,29.449,49.254z M16.827,48.039H29.13v-2.805H16.827V48.039z
				"/>
			<path fill="#1B9DD9" d="M48.492,49.254H35.55c-0.494,0-0.895-0.402-0.895-0.895v-3.444c0-0.494,0.402-0.895,0.895-0.895h12.942
				c0.494,0,0.895,0.402,0.895,0.895v3.444C49.388,48.852,48.986,49.254,48.492,49.254z M35.87,48.039h12.303v-2.805H35.87V48.039z"
				/>
			<path fill="#1B9DD9" d="M32.779,50.571H32.22c-0.196,0-0.355-0.159-0.355-0.355v-5.801c0-0.196,0.159-0.355,0.355-0.355h0.559
				c0.196,0,0.355,0.159,0.355,0.355v5.801C33.134,50.412,32.975,50.571,32.779,50.571z"/>
		</g>
		<path fill="#1B9DD9" d="M33.436,41.925h-1.752c-0.292,0-0.566-0.143-0.733-0.382l-4.305-6.153
			c-0.107-0.155-0.161-0.331-0.161-0.513v-0.831c0-0.494,0.402-0.895,0.895-0.895h10.242c0.494,0,0.895,0.401,0.895,0.895v0.804
			c0,0.18-0.054,0.354-0.154,0.503l-4.185,6.179C34.012,41.777,33.735,41.925,33.436,41.925z M33.171,40.85
			c-0.001,0.001-0.001,0.002-0.002,0.003L33.171,40.85z M31.946,40.846l0.001,0.001C31.946,40.847,31.946,40.846,31.946,40.846z
			 M31.851,40.71h1.415l4.036-5.958v-0.386h-9.603v0.411L31.851,40.71z"/>
		<path fill="#1B9DD9" d="M36.927,33.973h-8.854c-0.494,0-0.895-0.402-0.895-0.895v-3.092c0-0.494,0.402-0.895,0.895-0.895h8.854
			c0.494,0,0.895,0.402,0.895,0.895v3.092C37.823,33.571,37.421,33.973,36.927,33.973z M28.392,32.758h8.215v-2.453h-8.215V32.758z"
			/>
		<path fill="#1B9DD9" d="M40.298,29.976H24.701c-0.494,0-0.895-0.402-0.895-0.895v-4.469c0-0.494,0.402-0.895,0.895-0.895h15.597
			c0.494,0,0.895,0.401,0.895,0.895v4.469C41.194,29.575,40.792,29.976,40.298,29.976z M25.02,28.761h14.958v-3.83H25.02V28.761z"/>
		<path fill="#1B9DD9" d="M39.201,24.534H25.798c-0.494,0-0.895-0.402-0.895-0.895v-8.921c0-0.494,0.401-0.895,0.895-0.895h13.403
			c0.494,0,0.895,0.401,0.895,0.895v8.921C40.097,24.132,39.695,24.534,39.201,24.534z M26.118,23.319h12.763v-8.282H26.118V23.319z
			"/>
	</g>
</g>
</svg>
