<?xml version="1.0" encoding="utf-8"?>
<!-- Generator: Adobe Illustrator 22.0.1, SVG Export Plug-In . SVG Version: 6.00 Build 0)  -->
<svg version="1.1" id="Слой_1" xmlns="http://www.w3.org/2000/svg" xmlns:xlink="http://www.w3.org/1999/xlink" x="0px" y="0px"
	 width="65px" height="65px" viewBox="0 0 65 65" enable-background="new 0 0 65 65" xml:space="preserve">
<g>
	<path fill="#1B9DD9" d="M32.5,65C14.579,65,0,50.421,0,32.5S14.579,0,32.5,0S65,14.579,65,32.5S50.421,65,32.5,65z M32.5,1.62
		C15.472,1.62,1.62,15.473,1.62,32.5S15.472,63.38,32.5,63.38S63.38,49.527,63.38,32.5S49.528,1.62,32.5,1.62z"/>
	<g>
		<g>
			<path fill="#1B9DD9" d="M31.889,39.552h1.221c0.102,0,0.184,0.082,0.184,0.184v10.732c0,0.102-0.082,0.184-0.184,0.184h-1.221
				c-0.102,0-0.184-0.082-0.184-0.184V39.736C31.706,39.634,31.788,39.552,31.889,39.552z"/>
			<g>
				<path fill="#1B9DD9" d="M31.507,39.076l0.863-0.863c0.072-0.072,0.188-0.072,0.26,0l5.096,5.096c0.072,0.072,0.072,0.188,0,0.26
					l-0.863,0.863c-0.072,0.072-0.188,0.072-0.26,0l-5.096-5.096C31.435,39.264,31.435,39.148,31.507,39.076z"/>
				<path fill="#1B9DD9" d="M28.136,44.432l-0.863-0.863c-0.072-0.072-0.072-0.188,0-0.26l5.096-5.096
					c0.072-0.072,0.188-0.072,0.26,0l0.863,0.863c0.072,0.072,0.072,0.188,0,0.26l-5.096,5.096
					C28.324,44.504,28.208,44.504,28.136,44.432z"/>
			</g>
		</g>
		<g>
			<path fill="#1B9DD9" d="M33.11,25.448h-1.221c-0.102,0-0.184-0.082-0.184-0.184V14.532c0-0.102,0.082-0.184,0.184-0.184h1.221
				c0.102,0,0.184,0.082,0.184,0.184v10.732C33.294,25.366,33.212,25.448,33.11,25.448z"/>
			<g>
				<path fill="#1B9DD9" d="M33.493,25.924l-0.863,0.863c-0.072,0.072-0.188,0.072-0.26,0l-5.096-5.096
					c-0.072-0.072-0.072-0.188,0-0.26l0.863-0.863c0.072-0.072,0.188-0.072,0.26,0l5.096,5.096
					C33.564,25.736,33.564,25.852,33.493,25.924z"/>
				<path fill="#1B9DD9" d="M36.864,20.567l0.863,0.863c0.072,0.072,0.072,0.188,0,0.26l-5.096,5.096
					c-0.072,0.072-0.188,0.072-0.26,0l-0.863-0.863c-0.072-0.072-0.072-0.188,0-0.26l5.096-5.096
					C36.675,20.496,36.792,20.496,36.864,20.567z"/>
			</g>
		</g>
		<path fill="#1B9DD9" d="M51.167,36.027H13.833c-0.846,0-1.534-0.688-1.534-1.533v-3.988c0-0.846,0.688-1.533,1.534-1.533h37.335
			c0.846,0,1.533,0.688,1.533,1.533v3.988C52.7,35.339,52.013,36.027,51.167,36.027z M13.919,34.407H51.08v-3.815H13.919V34.407z"/>
	</g>
</g>
</svg>
