<?xml version="1.0" encoding="utf-8"?>
<!-- Generator: Adobe Illustrator 22.0.1, SVG Export Plug-In . SVG Version: 6.00 Build 0)  -->
<svg version="1.1" id="Слой_1" xmlns="http://www.w3.org/2000/svg" xmlns:xlink="http://www.w3.org/1999/xlink" x="0px" y="0px"
	 width="21px" height="17px" viewBox="0 0 21 17" enable-background="new 0 0 21 17" xml:space="preserve">
<g>
	<g>
		<path fill="#020304" d="M20.929,2.011c-0.77,0.341-1.597,0.573-2.465,0.676c0.887-0.531,1.565-1.373,1.887-2.374
			c-0.832,0.492-1.75,0.849-2.728,1.042C16.839,0.521,15.725,0,14.489,0c-2.371,0-4.293,1.922-4.293,4.292
			c0,0.336,0.038,0.664,0.111,0.978C6.739,5.091,3.575,3.382,1.458,0.785c-0.37,0.633-0.581,1.371-0.581,2.158
			c0,1.49,0.759,2.804,1.909,3.573C2.083,6.492,1.422,6.298,0.842,5.977V6.03c0,2.079,1.48,3.815,3.443,4.21
			c-0.36,0.097-0.739,0.15-1.131,0.15c-0.277,0-0.545-0.027-0.808-0.08c0.547,1.707,2.132,2.948,4.01,2.982
			c-1.469,1.151-3.32,1.835-5.332,1.835c-0.347,0-0.688-0.021-1.024-0.059C1.9,16.289,4.156,17,6.581,17
			c7.898,0,12.215-6.542,12.215-12.215l-0.014-0.556C19.625,3.628,20.354,2.872,20.929,2.011z"/>
	</g>
</g>
</svg>
