<?xml version="1.0" encoding="utf-8"?>
<!-- Generator: Adobe Illustrator 22.0.1, SVG Export Plug-In . SVG Version: 6.00 Build 0)  -->
<svg version="1.1" id="Слой_1" xmlns="http://www.w3.org/2000/svg" xmlns:xlink="http://www.w3.org/1999/xlink" x="0px" y="0px"
	 width="27px" height="27px" viewBox="0 0 27 27" style="enable-background:new 0 0 27 27;" xml:space="preserve">
<style type="text/css">
	.st0{fill:#5EA7DD;}
	.st1{fill:#FFFFFF;}
</style>
<g>
	<rect class="st0" width="27" height="27"/>
	<path class="st1" d="M3.6,20c1.8,1.1,3.9,1.8,6.2,1.8c6.4,0,11.6-5.2,11.6-11.6c0-0.2,0-0.3,0-0.5c0.2-0.2,1.7-1.3,2-2.1
		c0,0-1.2,0.5-2.3,0.6c0,0,0,0,0,0c0,0,0,0,0,0c0.1-0.1,1.6-1.1,1.8-2.3c0,0-0.8,0.4-2,0.8c-0.2,0.1-0.4,0.1-0.6,0.2
		c-0.7-0.8-1.8-1.3-3-1.3c-2.3,0-4.1,1.8-4.1,4.1c0,0.3,0,0.6,0.1,0.9c-0.3,0-5.1-0.3-8.4-4.2c0,0-1.9,2.7,1.2,5.4
		c0,0-0.9,0-1.8-0.5c0,0-0.3,3.2,3.2,4c0,0-0.7,0.3-1.8,0.1c0,0,0.6,2.6,3.7,2.8C9.6,18.3,7.1,20.5,3.6,20L3.6,20z M3.6,20"/>
</g>
</svg>
