<?xml version="1.0" encoding="utf-8"?>
<!-- Generator: Adobe Illustrator 22.0.1, SVG Export Plug-In . SVG Version: 6.00 Build 0)  -->
<svg version="1.1" id="Слой_1" xmlns="http://www.w3.org/2000/svg" xmlns:xlink="http://www.w3.org/1999/xlink" x="0px" y="0px"
	 width="308px" height="205.9px" viewBox="0 0 308 205.9" style="enable-background:new 0 0 308 205.9;" xml:space="preserve">
<style type="text/css">
	.st0{fill:#FFFFFF;}
	.st1{fill:#009FE3;}
</style>
<g>
	<g>
		<rect y="0.3" class="st0" width="308" height="205.3"/>
	</g>
	<g>
		<path class="st1" d="M144.8,96.2c-0.4,0.2-0.5,0.5-0.5,0.9v20.2c0,0.4,0.2,0.7,0.5,1.1c0.2,0.2,0.4,0.2,0.5,0.2s0.4,0,0.5-0.2
			l20.2-10.1c0.4-0.2,0.7-0.5,0.7-1.1c0-0.4-0.2-0.9-0.7-1.1l-20.2-10.1C145.5,95.9,145.1,95.9,144.8,96.2L144.8,96.2z M146.6,99.1
			l16.5,8.1l-16.5,8.1V99.1z"/>
		<path class="st1" d="M188.9,79.9L166.9,58c-0.2-0.2-0.7-0.4-1.1-0.4H123c-2.3,0-4.4,1.9-4.4,4.2v82c0,1.2,0.5,2.3,1.4,3.2
			c0.9,0.9,2.1,1.2,3.2,1.2H185c1.1,0,2.3-0.4,3-1.2c0.7-0.9,1.2-1.9,1.2-3V81C189.4,80.7,189.2,80.3,188.9,79.9L188.9,79.9z
			 M165.5,60.7l19.6,19.6h-19.8C165.5,68.4,165.5,63.1,165.5,60.7L165.5,60.7z M186.6,144c0,0.4-0.2,0.7-0.5,1.1
			c-0.2,0.2-0.7,0.4-1.1,0.4h-61.6c-0.4,0-0.9-0.2-1.2-0.5s-0.5-0.7-0.5-1.1v-82c0-0.7,0.7-1.4,1.6-1.4h39.7c0,3.5,0,14.3,0,21.2
			c0,0.4,0.2,0.7,0.4,1.1c0.2,0.4,0.7,0.4,1.1,0.4h22.7V144H186.6z"/>
	</g>
</g>
</svg>
