<?xml version="1.0" encoding="utf-8"?>
<!-- Generator: Adobe Illustrator 22.0.1, SVG Export Plug-In . SVG Version: 6.00 Build 0)  -->
<svg version="1.1" id="Слой_1" xmlns="http://www.w3.org/2000/svg" xmlns:xlink="http://www.w3.org/1999/xlink" x="0px" y="0px"
	 width="23px" height="15px" viewBox="0 0 23 15" enable-background="new 0 0 23 15" xml:space="preserve">
<g>
	<path fill="#B4B4B4" d="M14.714,14.854H2.22c-1.224,0-2.22-0.996-2.22-2.221V2.367c0-1.224,0.996-2.22,2.22-2.22h12.494
		c1.224,0,2.22,0.996,2.22,2.22v10.266C16.934,13.858,15.938,14.854,14.714,14.854z M2.22,1.187c-0.65,0-1.18,0.529-1.18,1.18
		v10.266c0,0.65,0.529,1.18,1.18,1.18h12.494c0.65,0,1.179-0.53,1.179-1.18V2.367c0-0.65-0.529-1.18-1.179-1.18H2.22z"/>
	<path fill="#B4B4B4" d="M22.374,12.538l-0.359-0.199l-5.48-4.1c-0.235-0.177-0.37-0.446-0.37-0.74c0-0.294,0.135-0.564,0.37-0.74
		l5.733-4.29l0.39,0.137c0.208,0.105,0.338,0.316,0.338,0.55L23,12.165L22.374,12.538z M17.283,7.499l4.676,3.498l-0.003-6.995
		L17.283,7.499z"/>
</g>
</svg>
