<?xml version="1.0" encoding="utf-8"?>
<!-- Generator: Adobe Illustrator 22.0.1, SVG Export Plug-In . SVG Version: 6.00 Build 0)  -->
<svg version="1.1" id="Слой_1" xmlns="http://www.w3.org/2000/svg" xmlns:xlink="http://www.w3.org/1999/xlink" x="0px" y="0px"
	 width="23px" height="15px" viewBox="0 0 23 15" style="enable-background:new 0 0 23 15;" xml:space="preserve">
<style type="text/css">
	.st0{fill:#1D1D1B;}
</style>
<g>
	<path class="st0" d="M14.7,14.9H2.2c-1.2,0-2.2-1-2.2-2.2V2.4c0-1.2,1-2.2,2.2-2.2h12.5c1.2,0,2.2,1,2.2,2.2v10.3
		C16.9,13.9,15.9,14.9,14.7,14.9z M2.2,1.2C1.6,1.2,1,1.7,1,2.4v10.3c0,0.6,0.5,1.2,1.2,1.2h12.5c0.6,0,1.2-0.5,1.2-1.2V2.4
		c0-0.6-0.5-1.2-1.2-1.2H2.2z"/>
	<path class="st0" d="M22.4,12.5L22,12.3l-5.5-4.1c-0.2-0.2-0.4-0.4-0.4-0.7c0-0.3,0.1-0.6,0.4-0.7l5.7-4.3l0.4,0.1
		C22.9,2.7,23,2.9,23,3.2v9L22.4,12.5z M17.3,7.5L22,11V4L17.3,7.5z"/>
</g>
</svg>
