<?xml version="1.0" encoding="utf-8"?>
<!-- Generator: Adobe Illustrator 22.0.1, SVG Export Plug-In . SVG Version: 6.00 Build 0)  -->
<svg version="1.1" id="Слой_1" xmlns="http://www.w3.org/2000/svg" xmlns:xlink="http://www.w3.org/1999/xlink" x="0px" y="0px"
	 width="175px" height="117px" viewBox="0 0 175 117" style="enable-background:new 0 0 175 117;" xml:space="preserve">
<style type="text/css">
	.st0{fill:#FFFFFF;}
	.st1{fill:#009FE3;}
</style>
<g>
	<rect x="0.5" y="0.5" class="st0" width="174" height="116"/>
</g>
<g>
	<path class="st1" d="M82.3,54.7C82.1,54.8,82,55,82,55.2v11.4c0,0.2,0.1,0.4,0.3,0.6c0.1,0.1,0.2,0.1,0.3,0.1c0.1,0,0.2,0,0.3-0.1
		l11.4-5.7c0.2-0.1,0.4-0.3,0.4-0.6c0-0.2-0.1-0.5-0.4-0.6l-11.4-5.7C82.7,54.5,82.5,54.5,82.3,54.7L82.3,54.7z M83.3,56.3l9.3,4.6
		l-9.3,4.6V56.3z M83.3,56.3"/>
	<path class="st1" d="M107.2,45.5L94.8,33.1c-0.1-0.1-0.4-0.2-0.6-0.2H70c-1.3,0-2.5,1.1-2.5,2.4v46.3c0,0.7,0.3,1.3,0.8,1.8
		c0.5,0.5,1.2,0.7,1.8,0.7H105c0.6,0,1.3-0.2,1.7-0.7c0.4-0.5,0.7-1.1,0.7-1.7V46.1C107.5,45.9,107.4,45.7,107.2,45.5L107.2,45.5z
		 M94,34.6l11.1,11.1H93.9C94,39,94,36,94,34.6L94,34.6z M105.9,81.7c0,0.2-0.1,0.4-0.3,0.6c-0.1,0.1-0.4,0.2-0.6,0.2H70.2
		c-0.2,0-0.5-0.1-0.7-0.3c-0.2-0.2-0.3-0.4-0.3-0.6V35.3c0-0.4,0.4-0.8,0.9-0.8h22.4c0,2,0,8.1,0,12c0,0.2,0.1,0.4,0.2,0.6
		c0.1,0.2,0.4,0.2,0.6,0.2h12.8V81.7z M105.9,81.7"/>
</g>
</svg>
