<?xml version="1.0" encoding="utf-8"?>
<!-- Generator: Adobe Illustrator 22.0.1, SVG Export Plug-In . SVG Version: 6.00 Build 0)  -->
<svg version="1.1" id="Слой_1" xmlns="http://www.w3.org/2000/svg" xmlns:xlink="http://www.w3.org/1999/xlink" x="0px" y="0px"
	 width="175px" height="117px" viewBox="0 0 175 117" style="enable-background:new 0 0 175 117;" xml:space="preserve">
<style type="text/css">
	.st0{fill:#FFFFFF;}
	.st1{fill:#009FE3;}
	.st2{fill:#1B9DD9;}
</style>
<g>
	<rect x="0.5" y="0.5" class="st0" width="174" height="116"/>
	<path class="st1" d="M174,1v115H1V1H174 M175,0H0v117h175V0L175,0z"/>
</g>
<g>
	<path class="st2" d="M105.6,33.7H69.4c-2.4,0-4.4,2-4.4,4.4v40.8c0,2.4,2,4.4,4.4,4.4h36.1c2.4,0,4.4-2,4.4-4.4V38.1
		C110,35.7,108,33.7,105.6,33.7z M71.8,75.5c0,0.6-0.5,1.1-1.1,1.1h-2.4c-0.6,0-1.1-0.5-1.1-1.1v-2.4c0-0.6,0.5-1.1,1.1-1.1h2.4
		c0.6,0,1.1,0.5,1.1,1.1V75.5z M71.8,68.7c0,0.6-0.5,1.1-1.1,1.1h-2.4c-0.6,0-1.1-0.5-1.1-1.1v-2.4c0-0.6,0.5-1.1,1.1-1.1h2.4
		c0.6,0,1.1,0.5,1.1,1.1V68.7z M71.8,62c0,0.6-0.5,1.1-1.1,1.1h-2.4c-0.6,0-1.1-0.5-1.1-1.1v-2.4c0-0.6,0.5-1.1,1.1-1.1h2.4
		c0.6,0,1.1,0.5,1.1,1.1V62z M71.8,55.2c0,0.6-0.5,1.1-1.1,1.1h-2.4c-0.6,0-1.1-0.5-1.1-1.1v-2.4c0-0.6,0.5-1.1,1.1-1.1h2.4
		c0.6,0,1.1,0.5,1.1,1.1V55.2z M71.8,48.4c0,0.6-0.5,1.1-1.1,1.1h-2.4c-0.6,0-1.1-0.5-1.1-1.1v-2.4c0-0.6,0.5-1.1,1.1-1.1h2.4
		c0.6,0,1.1,0.5,1.1,1.1V48.4z M71.8,41.7c0,0.6-0.5,1.1-1.1,1.1h-2.4c-0.6,0-1.1-0.5-1.1-1.1v-2.4c0-0.6,0.5-1.1,1.1-1.1h2.4
		c0.6,0,1.1,0.5,1.1,1.1V41.7z M107.7,75.5c0,0.6-0.5,1.1-1.1,1.1h-2.4c-0.6,0-1.1-0.5-1.1-1.1v-2.4c0-0.6,0.5-1.1,1.1-1.1h2.4
		c0.6,0,1.1,0.5,1.1,1.1V75.5z M107.7,68.7c0,0.6-0.5,1.1-1.1,1.1h-2.4c-0.6,0-1.1-0.5-1.1-1.1v-2.4c0-0.6,0.5-1.1,1.1-1.1h2.4
		c0.6,0,1.1,0.5,1.1,1.1V68.7z M107.7,62c0,0.6-0.5,1.1-1.1,1.1h-2.4c-0.6,0-1.1-0.5-1.1-1.1v-2.4c0-0.6,0.5-1.1,1.1-1.1h2.4
		c0.6,0,1.1,0.5,1.1,1.1V62z M107.7,55.2c0,0.6-0.5,1.1-1.1,1.1h-2.4c-0.6,0-1.1-0.5-1.1-1.1v-2.4c0-0.6,0.5-1.1,1.1-1.1h2.4
		c0.6,0,1.1,0.5,1.1,1.1V55.2z M107.7,48.4c0,0.6-0.5,1.1-1.1,1.1h-2.4c-0.6,0-1.1-0.5-1.1-1.1v-2.4c0-0.6,0.5-1.1,1.1-1.1h2.4
		c0.6,0,1.1,0.5,1.1,1.1V48.4z M107.7,41.7c0,0.6-0.5,1.1-1.1,1.1h-2.4c-0.6,0-1.1-0.5-1.1-1.1v-2.4c0-0.6,0.5-1.1,1.1-1.1h2.4
		c0.6,0,1.1,0.5,1.1,1.1V41.7z"/>
	<polygon class="st0" points="83,51.6 83,65.1 94.2,58.4 	"/>
</g>
</svg>
