<?xml version="1.0" encoding="utf-8"?>
<!-- Generator: Adobe Illustrator 22.0.1, SVG Export Plug-In . SVG Version: 6.00 Build 0)  -->
<svg version="1.1" id="Слой_1" xmlns="http://www.w3.org/2000/svg" xmlns:xlink="http://www.w3.org/1999/xlink" x="0px" y="0px"
	 width="65px" height="65px" viewBox="0 0 65 65" enable-background="new 0 0 65 65" xml:space="preserve">
<g>
	<path fill="#1B9DD9" d="M32.5,65C14.579,65,0,50.421,0,32.5S14.579,0,32.5,0S65,14.579,65,32.5S50.421,65,32.5,65z M32.5,1.62
		C15.472,1.62,1.62,15.473,1.62,32.5S15.472,63.38,32.5,63.38S63.38,49.527,63.38,32.5S49.528,1.62,32.5,1.62z"/>
	<g>
		<path fill="#1B9DD9" d="M22.271,48.866h-5.455c-0.376,0-0.682-0.306-0.682-0.682V16.816c0-0.376,0.306-0.682,0.682-0.682h5.455
			c0.376,0,0.682,0.306,0.682,0.682v25.913c0,0.376-0.306,0.682-0.682,0.682c-0.376,0-0.682-0.306-0.682-0.682V17.498h-4.092v30.005
			h4.773c0.376,0,0.682,0.306,0.682,0.682S22.647,48.866,22.271,48.866z"/>
		<path fill="#1B9DD9" d="M48.184,48.866H22.271c-0.376,0-0.682-0.306-0.682-0.682s0.306-0.682,0.682-0.682h25.231v-4.092H22.271
			c-0.376,0-0.682-0.306-0.682-0.682s0.306-0.682,0.682-0.682h25.913c0.376,0,0.682,0.306,0.682,0.682v5.455
			C48.866,48.561,48.56,48.866,48.184,48.866z"/>
		<path fill="#1B9DD9" d="M22.271,42.047h-2.728c-0.376,0-0.682-0.306-0.682-0.682s0.306-0.682,0.682-0.682h2.046v-2.728h-0.682
			c-0.376,0-0.682-0.306-0.682-0.682s0.306-0.682,0.682-0.682h0.682v-2.728h-0.682c-0.376,0-0.682-0.306-0.682-0.682
			s0.306-0.682,0.682-0.682h0.682v-2.728h-2.046c-0.376,0-0.682-0.306-0.682-0.682c0-0.376,0.306-0.682,0.682-0.682h2.046v-2.728
			h-0.682c-0.376,0-0.682-0.306-0.682-0.682c0-0.376,0.306-0.682,0.682-0.682h0.682v-2.728h-0.682c-0.376,0-0.682-0.306-0.682-0.682
			c0-0.376,0.306-0.682,0.682-0.682h1.364c0.376,0,0.682,0.306,0.682,0.682v20.458C22.953,41.741,22.647,42.047,22.271,42.047z"/>
		<path fill="#1B9DD9" d="M35.909,46.138c-0.376,0-0.682-0.306-0.682-0.682v-2.046H32.5v0.682c0,0.376-0.306,0.682-0.682,0.682
			c-0.376,0-0.682-0.306-0.682-0.682v-0.682h-2.728v0.682c0,0.376-0.306,0.682-0.682,0.682c-0.376,0-0.682-0.306-0.682-0.682v-0.682
			h-2.728v2.046c0,0.376-0.306,0.682-0.682,0.682c-0.376,0-0.682-0.306-0.682-0.682v-2.728c0-0.376,0.306-0.682,0.682-0.682h20.458
			c0.376,0,0.682,0.306,0.682,0.682v1.364c0,0.376-0.306,0.682-0.682,0.682c-0.376,0-0.682-0.306-0.682-0.682v-0.682h-2.728v0.682
			c0,0.376-0.306,0.682-0.682,0.682c-0.376,0-0.682-0.306-0.682-0.682v-0.682h-2.728v2.046
			C36.591,45.833,36.286,46.138,35.909,46.138z"/>
		<path fill="#1B9DD9" d="M46.82,21.589H24.999c-0.376,0-0.682-0.306-0.682-0.682c0-0.376,0.306-0.682,0.682-0.682H46.82
			c0.376,0,0.682,0.306,0.682,0.682C47.502,21.284,47.197,21.589,46.82,21.589z"/>
		<path fill="#1B9DD9" d="M46.82,29.772H24.999c-0.376,0-0.682-0.306-0.682-0.682c0-0.376,0.306-0.682,0.682-0.682H46.82
			c0.376,0,0.682,0.306,0.682,0.682C47.502,29.467,47.197,29.772,46.82,29.772z"/>
		<path fill="#1B9DD9" d="M46.82,37.955H24.999c-0.376,0-0.682-0.306-0.682-0.682s0.306-0.682,0.682-0.682H46.82
			c0.376,0,0.682,0.306,0.682,0.682S47.197,37.955,46.82,37.955z"/>
		<path fill="#1B9DD9" d="M44.092,40.683c-0.376,0-0.682-0.306-0.682-0.682V18.179c0-0.376,0.306-0.682,0.682-0.682
			c0.376,0,0.682,0.306,0.682,0.682v21.822C44.774,40.378,44.469,40.683,44.092,40.683z"/>
		<path fill="#1B9DD9" d="M35.909,40.683c-0.376,0-0.682-0.306-0.682-0.682V18.179c0-0.376,0.306-0.682,0.682-0.682
			c0.376,0,0.682,0.306,0.682,0.682v21.822C36.591,40.378,36.286,40.683,35.909,40.683z"/>
		<path fill="#1B9DD9" d="M27.726,40.683c-0.376,0-0.682-0.306-0.682-0.682V18.179c0-0.376,0.306-0.682,0.682-0.682
			c0.376,0,0.682,0.306,0.682,0.682v21.822C28.408,40.378,28.103,40.683,27.726,40.683z"/>
	</g>
</g>
</svg>
